<svg height="511pt" viewBox="1 0 511.99998 511" width="511pt" xmlns="http://www.w3.org/2000/svg"><path d="m254.050781 512.3125c-67.859375 0-131.65625-26.425781-179.640625-74.410156-47.984375-47.980469-74.410156-111.78125-74.410156-179.640625 0-56.042969 17.894531-109.183594 51.75-153.671875 32.753906-43.042969 79.238281-75.0625 130.894531-90.164063l47.625-13.925781-31.933593 37.976562c-30.023438 35.710938-46.558594 81.101563-46.558594 127.808594 0 109.585938 89.152344 198.738282 198.738281 198.738282 43.929687 0 85.570313-14.050782 120.417969-40.640626l39.492187-30.128906-16.210937 46.953125c-35.339844 102.34375-131.851563 171.105469-240.164063 171.105469zm0 0" fill="#54489b"/><path d="m453.480469.515625h30.003906v28.332031h-30.003906zm0 0" fill="#c567ea"/><path d="m453.480469 59.394531h30.003906v28.15625h-30.003906zm0 0" fill="#a751e2"/><path d="m483.664062 29.03125h28.335938v30.003906h-28.335938zm0 0" fill="#a751e2"/><path d="m424.964844 29.03125h28.375v30.003906h-28.375zm0 0" fill="#c567ea"/><path d="m423.929688 170.136719c7.847656 0 15.363281-6.902344 15-15.003907-.363282-8.128906-6.589844-15-15-15-7.847657 0-15.367188 6.898438-15.003907 15 .363281 8.128907 6.59375 15.003907 15.003907 15.003907zm0 0" fill="#ccbfba"/><path d="m344.644531 107.511719h-17.617187v-17.617188h-30.003906v17.617188h-17.617188v30.003906h17.617188v17.617187h30.003906v-17.617187h17.617187zm0 0" fill="#c4e945"/><path d="m344.644531 107.511719h-17.617187l-30.003906 30.003906v17.617187h30.003906v-17.617187h17.617187zm0 0" fill="#9edb3d"/><path d="m470.933594 324.386719c-34.847656 26.585937-76.492188 40.640625-120.421875 40.640625-55.890625 0-106.453125-23.199219-142.597657-60.464844l-133.421874 133.421875c47.976562 47.933594 111.738281 74.328125 179.558593 74.328125 108.3125 0 204.824219-68.761719 240.160157-171.105469l16.214843-46.953125zm0 0" fill="#463d83"/></svg>