<svg height="512pt" viewBox="0 0 512 512" width="512pt" xmlns="http://www.w3.org/2000/svg"><path d="m256 512c-68.378906 0-132.667969-26.628906-181.019531-74.980469-48.351563-48.351562-74.980469-112.640625-74.980469-181.019531s26.628906-132.667969 74.980469-181.019531c48.351562-48.351563 112.640625-74.980469 181.019531-74.980469s132.667969 26.628906 181.019531 74.980469c48.351563 48.351562 74.980469 112.640625 74.980469 181.019531s-26.628906 132.667969-74.980469 181.019531c-48.351562 48.351563-112.640625 74.980469-181.019531 74.980469zm0 0" fill="#54489b"/><path d="m437.019531 74.980469c-48.351562-48.351563-112.640625-74.980469-181.019531-74.980469v512c68.378906 0 132.667969-26.628906 181.019531-74.980469 48.351563-48.351562 74.980469-112.640625 74.980469-181.019531s-26.628906-132.667969-74.980469-181.019531zm0 0" fill="#463d83"/><path d="m256 63.605469c-106.085938 0-192.394531 86.308593-192.394531 192.394531s86.308593 192.394531 192.394531 192.394531 192.394531-86.308593 192.394531-192.394531-86.308593-192.394531-192.394531-192.394531zm0 241.445312-46.648438-33.894531 17.816407-54.839844h57.660156l17.820313 54.839844zm-19.015625-118.941406 19.015625-58.523437 19.015625 58.523437zm-53.328125 66.378906-49.785156-36.171875h61.535156zm46.648438 71.230469-49.785157 36.171875 19.015625-58.527344zm82.160156-22.355469 19.015625 58.527344-49.785157-36.171875zm15.878906-48.875-11.75-36.171875h61.535156zm73.996094-66.378906h-95.5625l-29.539063-90.90625c55.273438 7.261719 101.871094 42.457031 125.101563 90.90625zm-167.578125-90.90625-29.539063 90.90625h-95.5625c23.230469-48.449219 69.828125-83.644531 125.101563-90.90625zm-140.949219 160.796875c0-10.070312.929688-19.925781 2.695312-29.492188l77.332032 56.1875-29.507813 90.820313c-31.101562-29.570313-50.519531-71.316406-50.519531-117.515625zm84.882812 142.550781 77.304688-56.164062 77.304688 56.164062c-22.996094 12.519531-49.332032 19.636719-77.304688 19.636719s-54.308594-7.117188-77.304688-19.636719zm188.972657-25.035156-29.507813-90.820313 77.332032-56.183593c1.765624 9.566406 2.695312 19.421875 2.695312 29.488281 0 46.199219-19.417969 87.945312-50.519531 117.515625zm0 0" fill="#fdda50"/><path d="m256 63.605469v63.980469l19.015625 58.523437h-19.015625v30.207031h28.832031l17.816407 54.839844-46.648438 33.894531v37.335938l77.304688 56.164062c-22.996094 12.519531-49.332032 19.636719-77.304688 19.636719v30.207031c106.085938 0 192.394531-86.308593 192.394531-192.394531s-86.308593-192.394531-192.394531-192.394531zm21.238281 31.597656c55.273438 7.261719 101.871094 42.457031 125.101563 90.90625h-95.5625zm4.457031 228.515625 30.769532-22.355469 19.015625 58.527344zm46.648438-71.230469-11.75-36.171875h61.535156zm39.324219 121.027344-29.507813-90.820313 77.332032-56.183593c1.765624 9.566406 2.695312 19.421875 2.695312 29.488281 0 46.199219-19.417969 87.945312-50.519531 117.515625zm0 0" fill="#fabe3d"/></svg>