<svg height="512pt" viewBox="0 0 512 512" width="512pt" xmlns="http://www.w3.org/2000/svg"><path d="m131.476562 512-54.066406-54.0625 10.546875-10.546875c3.308594-3.304687 5.128907-7.703125 5.128907-12.378906 0-9.652344-7.855469-17.507813-17.507813-17.507813-4.675781 0-9.074219 1.820313-12.378906 5.128906l-10.546875 10.546876-52.652344-52.65625 10.546875-10.542969c6.148437-6.152344 9.539063-14.332031 9.539063-23.03125s-3.390626-16.878907-9.539063-23.03125l-10.546875-10.542969 313.375-313.375 10.542969 10.546875c12.699219 12.699219 33.363281 12.699219 46.0625 0l10.542969-10.546875 53.5 53.5-10.675782 10.546875c-3.359375 3.316406-5.207031 7.738281-5.207031 12.453125 0 9.652344 7.851563 17.507812 17.503906 17.507812 4.714844 0 9.136719-1.851562 12.457031-5.210937l10.542969-10.675781 53.355469 53.355468-10.546875 10.546876c-6.148437 6.148437-9.539063 14.328124-9.539063 23.027343 0 8.703125 3.390626 16.878907 9.539063 23.03125l10.546875 10.546875-313.371094 313.371094-10.546875-10.546875c-6.152343-6.148437-14.332031-9.539063-23.03125-9.539063s-16.878906 3.390626-23.03125 9.539063zm0 0" fill="#efe2dd"/><path d="m501.453125 188.082031c-6.148437-6.152343-9.539063-14.332031-9.539063-23.03125s3.390626-16.878906 9.539063-23.03125l10.546875-10.542969-53.355469-53.355468-10.542969 10.675781c-3.320312 3.359375-7.742187 5.210937-12.457031 5.210937-9.652343 0-17.503906-7.855468-17.503906-17.507812 0-4.714844 1.847656-9.136719 5.207031-12.453125l10.675782-10.546875-53.5-53.5-10.542969 10.546875c-12.699219 12.699219-33.363281 12.699219-46.0625 0l-10.542969-10.546875-57.375 57.375v397.253906l256-256zm0 0" fill="#ccbfba"/><path d="m38.859375 274.488281 235.421875-235.421875 198.644531 198.648438-235.421875 235.417968zm0 0" fill="#54489b"/><path d="m274.285156 39.066406-18.285156 18.285156v397.292969l216.933594-216.929687zm0 0" fill="#463d83"/><path d="m256 349.238281c-50.4375 0-91.46875-41.03125-91.46875-91.46875s41.03125-91.46875 91.46875-91.46875 91.46875 41.03125 91.46875 91.46875-41.03125 91.46875-91.46875 91.46875zm0 0" fill="#e681fa"/><path d="m256 349.238281v-182.9375c50.4375 0 91.46875 41.03125 91.46875 91.46875s-41.03125 91.46875-91.46875 91.46875zm0 0" fill="#c567ea"/><path d="m280.261719 290.015625-24.261719-8.726563-24.261719 8.726563.800781-25.773437-15.792968-20.375 24.753906-7.203126 14.5-21.320312 14.5 21.320312 24.753906 7.199219-15.792968 20.378907zm0 0" fill="#fdda50"/><path d="m295.253906 243.863281-24.753906-7.199219-14.5-21.320312v65.945312l24.261719 8.726563-.800781-25.773437zm0 0" fill="#fd9126"/></svg>