<svg height="512pt" viewBox="-61 0 512 512" width="512pt" xmlns="http://www.w3.org/2000/svg"><path d="m183.355469 222.164062 43.457031-51.023437 22.847656 19.460937-43.457031 51.023438zm0 0" fill="#fd9126"/><path d="m119.953125 167.265625 22.851563-19.460937 63.324218 74.351562-22.851562 19.460938zm0 0" fill="#fed29a"/><path d="m316.949219 103.679688h-17.625v-17.621094h-30.011719v17.621094h-17.625v30.015624h17.625v17.621094h30.011719v-17.621094h17.625zm0 0" fill="#a751e2"/><path d="m80.226562 295.257812h229.105469v216.742188h-229.105469zm0 0" fill="#575f64"/><g fill="#e681fa"><path d="m179.695312 0h30.015626v28.34375h-30.015626zm0 0"/><path d="m179.695312 58.898438h30.015626v28.167968h-30.015626zm0 0"/><path d="m209.890625 28.523438h28.34375v30.015624h-28.34375zm0 0"/><path d="m151.171875 28.523438h28.382813v30.015624h-28.382813zm0 0"/></g><path d="m179.773438 151.316406h30.011718v80.574219h-30.011718zm0 0" fill="#fabe3d"/><path d="m226.808594 171.136719-32.414063 38.058593v22.371094l11.808594 10.054688 43.457031-51.023438zm0 0" fill="#fabe3d"/><path d="m194.394531 208.386719v23.765625l11.734375-9.992188zm0 0" fill="#fed29a"/><path d="m316.949219 103.679688h-17.625v-17.621094h-30.011719v17.621094h-17.625v30.015624h17.625v17.621094h30.011719v-17.621094h17.625zm0 0" fill="#54489b"/><path d="m194.394531 295.257812h114.9375v216.742188h-114.9375zm0 0" fill="#32393f"/><path d="m194.394531 151.316406h15.390625v80.574219h-15.390625zm0 0" fill="#fd9126"/><path d="m80.226562 295.257812h229.105469v81.222657h-229.105469zm0 0" fill="#efe2dd"/><path d="m194.394531 295.257812h114.9375v81.222657h-114.9375zm0 0" fill="#ccbfba"/><path d="m331.859375 310.265625h-274.160156c-31.816407 0-57.699219-25.882813-57.699219-57.699219v-35.683594h389.558594v35.683594c0 31.816406-25.882813 57.699219-57.699219 57.699219zm0 0" fill="#7c8388"/><path d="m194.394531 216.882812v93.382813h137.464844c31.816406 0 57.699219-25.882813 57.699219-57.699219v-35.683594zm0 0" fill="#575f64"/><path d="m194.394531 0h15.316407v28.34375h-15.316407zm0 0" fill="#a751e2"/><path d="m194.394531 58.898438h15.316407v28.167968h-15.316407zm0 0" fill="#a751e2"/><path d="m209.890625 28.523438h28.34375v30.015624h-28.34375zm0 0" fill="#a751e2"/><path d="m92.234375 124.078125c7.847656 0 15.367187-6.902344 15.003906-15.007813-.363281-8.128906-6.59375-15.007812-15.003906-15.007812-7.851563 0-15.371094 6.90625-15.007813 15.007812.363282 8.128907 6.59375 15.007813 15.007813 15.007813zm0 0" fill="#c4e945"/></svg>