<svg height="512pt" viewBox="-61 0 512 512" width="512pt" xmlns="http://www.w3.org/2000/svg"><path d="m247.449219 234.945312c-.921875-3.679687-104.417969-3.679687-105.339844-.003906l-29.175781-7.320312c.734375-2.929688 1.632812-5.824219 2.679687-8.664063-11.527343-20.097656-20.890625-50.640625-25.554687-83.941406-8.527344-60.890625 19.199218-114.320313 20.382812-116.566406l9.734375-18.449219 14.429688 15.066406c1.753906 1.832032 43.089843 45.589844 51.617187 106.484375 2.039063 14.546875 3.09375 28.917969 3.140625 42.417969 3.601563-.226562 7.230469-.226562 10.828125 0 .046875-13.5 1.105469-27.871094 3.144532-42.417969 8.523437-60.894531 49.863281-104.652343 51.617187-106.484375l14.429687-15.066406 9.734376 18.449219c1.183593 2.246093 28.910156 55.675781 20.382812 116.566406-4.664062 33.300781-14.027344 63.84375-25.554688 83.941406 1.046876 2.839844 1.945313 5.730469 2.679688 8.660157zm0 0" fill="#fdf4f5"/><path d="m279.117188 18.449219-9.734376-18.449219-14.429687 15.066406c-1.757813 1.832032-43.09375 45.589844-51.617187 106.484375-2.039063 14.546875-3.097657 28.917969-3.144532 42.417969-1.9375-.121094-3.890625-.171875-5.839844-.164062v68.378906c26.246094-.007813 52.632813.910156 53.097657 2.757812l29.175781-7.324218c-.734375-2.929688-1.632812-5.824219-2.679688-8.664063 11.527344-20.09375 20.890626-50.636719 25.554688-83.9375 8.527344-60.890625-19.199219-114.320313-20.382812-116.566406zm0 0" fill="#efe2dd"/><path d="m80.226562 295.257812h229.105469v216.742188h-229.105469zm0 0" fill="#c567ea"/><path d="m194.394531 295.257812h114.9375v216.742188h-114.9375zm0 0" fill="#a751e2"/><path d="m80.226562 295.257812h229.105469v81.222657h-229.105469zm0 0" fill="#c4e945"/><path d="m194.394531 295.257812h114.9375v81.222657h-114.9375zm0 0" fill="#9edb3d"/><path d="m331.859375 310.265625h-274.160156c-31.816407 0-57.699219-25.882813-57.699219-57.699219v-35.683594h389.558594v35.683594c0 31.816406-25.882813 57.699219-57.699219 57.699219zm0 0" fill="#e681fa"/><path d="m194.394531 216.882812v93.382813h137.464844c31.816406 0 57.699219-25.882813 57.699219-57.699219v-35.683594zm0 0" fill="#c567ea"/></svg>