<svg height="512pt" viewBox="-62 0 512 512" width="512pt" xmlns="http://www.w3.org/2000/svg"><path d="m143.683594 138.347656h29.972656v50.21875h-29.972656zm0 0" fill="#efe2dd"/><path d="m158.679688 138.347656h14.976562v50.21875h-14.976562zm0 0" fill="#ccbfba"/><path d="m158.671875 153.335938c-30.191406 0-54.75-24.5625-54.75-54.75 0-7.753907 2.300781-21.707032 22.195313-53.199219 10.183593-16.121094 20.230468-29.277344 20.652343-29.832031l11.902344-15.554688 11.898437 15.554688c.421876.550781 10.46875 13.710937 20.652344 29.828124 19.894532 31.496094 22.195313 45.445313 22.195313 53.203126 0 30.1875-24.558594 54.75-54.746094 54.75zm0 0" fill="#fdda50"/><path d="m213.417969 98.585938c0-7.757813-2.300781-21.707032-22.195313-53.203126-10.183594-16.117187-20.230468-29.277343-20.652344-29.828124l-11.890624-15.539063v153.320313c30.183593-.007813 54.738281-24.566407 54.738281-54.75zm0 0" fill="#fabe3d"/><path d="m216.121094 369.300781h-114.902344v-195.722656h114.902344zm0 0" fill="#c4e945"/><path d="m158.679688 173.578125h57.441406v195.722656h-57.441406zm0 0" fill="#9edb3d"/><path d="m333.273438 477.703125h-48.097657v-29.976563h48.097657c13.78125 0 24.992187-11.210937 24.992187-24.988281 0-13.78125-11.210937-24.992187-24.992187-24.992187h-30.921876v-29.976563h30.921876c30.308593 0 54.964843 24.660157 54.964843 54.96875 0 30.308594-24.652343 54.964844-54.964843 54.964844zm0 0" fill="#fed29a"/><path d="m0 339.328125h317.339844v71.875h-317.339844zm0 0" fill="#fed29a"/><g fill="#fabe3d"><path d="m333.273438 477.703125h-48.097657v-29.976563h48.097657c13.78125 0 24.992187-11.210937 24.992187-24.988281 0-13.78125-11.210937-24.992187-24.992187-24.992187h-30.921876v-29.976563h30.921876c30.308593 0 54.964843 24.660157 54.964843 54.96875 0 30.308594-24.652343 54.964844-54.964843 54.964844zm0 0"/><path d="m158.679688 339.328125h158.660156v71.875h-158.660156zm0 0"/><path d="m216.542969 512h-115.746094c-55.578125 0-100.796875-45.21875-100.796875-100.796875v-14.988281h317.339844v14.988281c0 55.578125-45.21875 100.796875-100.796875 100.796875zm0 0"/></g><path d="m158.679688 396.214844v115.785156h57.863281c55.578125 0 100.796875-45.21875 100.796875-100.796875v-14.988281zm0 0" fill="#fd9126"/></svg>