<svg height="512pt" viewBox="-45 0 512 512.00001" width="512pt" xmlns="http://www.w3.org/2000/svg"><path d="m303.496094 337.554688h-184.003906c-26.691407-15.746094-49.054688-38.21875-64.679688-64.980469-16.105469-27.59375-24.621094-59.15625-24.621094-91.273438.003906-99.96875 81.332032-181.300781 181.304688-181.300781 99.96875 0 181.300781 81.332031 181.300781 181.300781 0 32.117188-8.515625 63.679688-24.621094 91.273438-15.625 26.761719-37.988281 49.230469-64.679687 64.980469zm0 0" fill="#fdf4f5"/><path d="m211.496094 0v337.554688h92c26.691406-15.746094 49.054687-38.21875 64.679687-64.980469 16.105469-27.59375 24.621094-59.15625 24.621094-91.273438 0-99.96875-81.332031-181.300781-181.300781-181.300781zm0 0" fill="#efe2dd"/><path d="m391.527344 493.574219-40.097656-173.207031h-279.875l-40.09375 173.207031zm0 0" fill="#fabe3d"/><path d="m266.625 131.308594c7.863281 0 15.398438-6.914063 15.035156-15.035156-.367187-8.144532-6.609375-15.035157-15.035156-15.035157-7.867188 0-15.402344 6.914063-15.035156 15.035157.363281 8.144531 6.605468 15.035156 15.035156 15.035156zm0 0" fill="#9edb3d"/><g fill="#c567ea"><path d="m140.144531 102.074219h30.070313v28.398437h-30.070313zm0 0"/><path d="m140.144531 161.085938h30.070313v28.214843h-30.070313zm0 0"/><path d="m170.398438 130.65625h28.394531v30.070312h-28.394531zm0 0"/><path d="m111.566406 130.65625h28.4375v30.070312h-28.4375zm0 0"/></g><path d="m351.429688 320.367188h-139.933594v173.207031h180.03125zm0 0" fill="#fd9126"/><path d="m46.527344 428.484375-15.066406 65.089844h360.066406l-15.066406-65.089844zm0 0" fill="#c567ea"/><path d="m376.460938 428.484375h-164.964844v65.089844h180.03125zm0 0" fill="#a751e2"/><path d="m0 481.929688h422.988281v30.070312h-422.988281zm0 0" fill="#fed29a"/><path d="m211.496094 481.929688h211.492187v30.070312h-211.492187zm0 0" fill="#fabe3d"/><path d="m46.109375 308.722656h330.773437v30.070313h-330.773437zm0 0" fill="#fed29a"/><path d="m211.496094 308.722656h165.386718v30.070313h-165.386718zm0 0" fill="#fabe3d"/><path d="m296.921875 217.464844h-17.652344v-17.65625h-30.070312v17.65625h-17.65625v30.070312h17.65625v17.65625h30.070312v-17.65625h17.652344zm0 0" fill="#54489b"/></svg>