<svg height="512pt" viewBox="-23 0 512 512" width="512pt" xmlns="http://www.w3.org/2000/svg"><path d="m101.53125 512h-70.460938l37.964844-85.867188 69 54.015626zm0 0" fill="#fed29a"/><path d="m430.746094 512h-70.460938l-36.503906-31.851562 69-54.015626zm0 0" fill="#fed29a"/><path d="m385.941406 127.3125h-309.628906v-16.359375c0-13.566406 5.105469-26.484375 14.378906-36.371094 9.417969-10.042969 22.105469-15.859375 35.722656-16.378906.707032-.023437 1.417969-.039063 2.132813-.039063 9.730469 0 19.097656 2.5 27.34375 7.199219 21.144531-17.429687 47.410156-26.898437 75.230469-26.898437 27.820312 0 54.082031 9.464844 75.226562 26.898437 8.25-4.699219 17.613282-7.199219 27.347656-7.199219.71875 0 1.441407.015626 2.15625.042969 28.085938 1.078125 50.089844 24.25 50.089844 52.75zm0 0" fill="#e681fa"/><path d="m321.742188 30.121094c7.875 0 15.425781-6.925782 15.0625-15.058594-.367188-8.160156-6.621094-15.0625-15.0625-15.0625-7.878907 0-15.425782 6.929688-15.0625 15.0625.367187 8.160156 6.617187 15.058594 15.0625 15.058594zm0 0" fill="#c567ea"/><path d="m425.296875 13.554688c-22.007813 0-39.910156 17.90625-39.910156 39.914062s17.902343 39.910156 39.910156 39.910156 39.914063-17.902344 39.914063-39.910156-17.90625-39.914062-39.914063-39.914062zm0 0" fill="#c567ea"/><path d="m430.746094 512h-70.460938l-36.503906-31.851562 69-54.015626zm0 0" fill="#fabe3d"/><path d="m321.742188 30.121094c7.875 0 15.425781-6.925782 15.0625-15.058594-.367188-8.160156-6.621094-15.0625-15.0625-15.0625-7.878907 0-15.425782 6.929688-15.0625 15.0625.367187 8.160156 6.617187 15.058594 15.0625 15.058594zm0 0" fill="#a751e2"/><path d="m425.296875 13.554688c-22.007813 0-39.910156 17.90625-39.910156 39.914062s17.902343 39.910156 39.910156 39.910156 39.914063-17.902344 39.914063-39.910156-17.90625-39.914062-39.914063-39.914062zm0 0" fill="#a751e2"/><path d="m385.941406 110.953125c0-28.496094-22.003906-51.667969-50.089844-52.75-.714843-.023437-1.4375-.039063-2.15625-.039063-9.734374 0-19.097656 2.5-27.347656 7.195313-20.765625-17.117187-46.476562-26.53125-73.742187-26.863281v88.816406h153.335937zm0 0" fill="#c567ea"/><path d="m231.117188 512c-58.054688 0-112.640626-22.609375-153.695313-63.664062-41.054687-41.050782-63.660156-95.636719-63.660156-153.695313 0-25.167969 4.269531-49.824219 12.695312-73.328125v-40.207031h409.324219v40.207031c8.425781 23.503906 12.695312 48.160156 12.695312 73.328125 0 58.058594-22.609374 112.644531-63.660156 153.699219-41.054687 41.050781-95.636718 63.660156-153.699218 63.660156zm0 0" fill="#fabe3d"/><path d="m448.476562 294.640625c0-25.167969-4.269531-49.824219-12.695312-73.328125v-40.207031h-203.175781v330.875c57.503906-.382813 111.507812-22.941407 152.210937-63.644531 41.050782-41.050782 63.660156-95.636719 63.660156-153.695313zm0 0" fill="#fd9126"/><path d="m462.238281 196.167969h-462.238281v-28.765625c0-30.410156 24.742188-55.152344 55.152344-55.152344h351.933594c30.410156 0 55.152343 24.742188 55.152343 55.152344zm0 0" fill="#fed29a"/><path d="m462.238281 167.402344c0-30.410156-24.742187-55.152344-55.152343-55.152344h-174.480469v83.917969h229.632812zm0 0" fill="#fabe3d"/></svg>