<svg height="512pt" viewBox="0 0 512 511" width="512pt" xmlns="http://www.w3.org/2000/svg"><path d="m511.726562 213.882812h.257813v29.980469h-.257813zm0 0"/><path d="m511.726562 213.882812h.257813v29.980469h-.257813zm0 0"/><path d="m62.171875 512.085938-62.171875-62.167969 340.910156-338.273438 64.503906 60.644531zm0 0" fill="#7c8388"/><path d="m452.253906 213.464844h29.980469v28.3125h-29.980469zm0 0" fill="#54489b"/><path d="m452.253906 274.292969h29.980469v28.132812h-29.980469zm0 0" fill="#463d83"/><path d="m483.414062 242.957031h28.3125v29.980469h-28.3125zm0 0" fill="#463d83"/><path d="m422.765625 242.957031h28.351563v29.980469h-28.351563zm0 0" fill="#54489b"/><path d="m422.65625 362.222656c7.84375 0 15.351562-6.894531 14.992188-14.992187-.367188-8.121094-6.585938-14.988281-14.992188-14.988281-7.839844 0-15.351562 6.894531-14.988281 14.988281.363281 8.125 6.585937 14.992187 14.988281 14.992187zm0 0" fill="#c4e945"/><path d="m452.253906 274.292969h29.980469v28.132812h-29.980469zm0 0" fill="#463d83"/><path d="m483.414062 242.957031h28.3125v29.980469h-28.3125zm0 0" fill="#463d83"/><path d="m31.085938 481.003906 31.085937 31.082032 343.242187-339.796876-33.820312-31.796874zm0 0" fill="#575f64"/><path d="m455.699219 176.113281h-119.738281l.425781-119.367187c0-30.992188 25.257812-56.246094 56.300781-56.246094s56.300781 25.257812 56.300781 56.300781v6.710938h6.710938c31.042969 0 56.300781 25.257812 56.300781 56.300781s-25.257812 56.300781-56.300781 56.300781zm0 0" fill="#e681fa"/><path d="m455.699219 63.511719h-6.710938v-.410157l-113.015625 113.011719h119.726563c31.042969 0 56.300781-25.257812 56.300781-56.300781s-25.257812-56.300781-56.300781-56.300781zm0 0" fill="#c567ea"/><path d="m62.171875 512.085938-62.171875-62.167969 50.699219-50.449219 64.234375 60.386719zm0 0" fill="#fdf4f5"/><path d="m62.171875 512.085938 52.761719-52.230469-32.320313-30.382813-51.527343 51.53125zm0 0" fill="#efe2dd"/></svg>