<svg height="512pt" viewBox="-24 0 512 512" width="512pt" xmlns="http://www.w3.org/2000/svg"><path d="m231.542969 512c-107.019531 0-194.089844-87.070312-194.089844-194.089844 0-23.300781 4.097656-46.109375 12.183594-67.796875h363.8125c8.085937 21.683594 12.183593 44.492188 12.183593 67.796875 0 107.019532-87.070312 194.089844-194.089843 194.089844zm0 0" fill="#fabe3d"/><path d="m380.015625 200.851562h-30.179687v-52.378906c0-65.230468-53.066407-118.292968-118.292969-118.292968-65.226563 0-118.292969 53.0625-118.292969 118.292968v52.378906h-30.179688v-52.378906c0-81.867187 66.605469-148.472656 148.472657-148.472656 81.867187 0 148.472656 66.605469 148.472656 148.472656zm0 0" fill="#fabe3d"/><path d="m227.515625 156.921875h-30.175781c0-6.554687-1.4375-9.070313-4.046875-13.636719-3.386719-5.925781-8.023438-14.042968-8.023438-28.609375 0-14.570312 4.636719-22.6875 8.023438-28.613281 2.609375-4.566406 4.046875-7.082031 4.046875-13.636719h30.175781c0 14.570313-4.636719 22.683594-8.023437 28.609375-2.609376 4.570313-4.046876 7.085938-4.046876 13.640625 0 6.554688 1.4375 9.070313 4.046876 13.636719 3.386718 5.925781 8.023437 14.039062 8.023437 28.609375zm0 0" fill="#c4e945"/><path d="m277.816406 156.921875h-30.175781c0-6.554687-1.4375-9.070313-4.046875-13.636719-3.386719-5.925781-8.023438-14.042968-8.023438-28.609375 0-14.570312 4.636719-22.6875 8.023438-28.613281 2.609375-4.566406 4.046875-7.082031 4.046875-13.636719h30.175781c0 14.570313-4.636718 22.683594-8.023437 28.609375-2.609375 4.570313-4.046875 7.085938-4.046875 13.640625 0 6.554688 1.4375 9.070313 4.046875 13.636719 3.386719 5.925781 8.023437 14.039062 8.023437 28.609375zm0 0" fill="#c4e945"/><path d="m277.816406 156.921875h-30.175781c0-6.554687-1.4375-9.070313-4.046875-13.636719-3.386719-5.925781-8.023438-14.042968-8.023438-28.609375 0-14.570312 4.636719-22.6875 8.023438-28.613281 2.609375-4.566406 4.046875-7.082031 4.046875-13.636719h30.175781c0 14.570313-4.636718 22.683594-8.023437 28.609375-2.609375 4.570313-4.046875 7.085938-4.046875 13.640625 0 6.554688 1.4375 9.070313 4.046875 13.636719 3.386719 5.925781 8.023437 14.039062 8.023437 28.609375zm0 0" fill="#9edb3d"/><path d="m425.632812 317.910156c0-23.304687-4.097656-46.113281-12.183593-67.796875h-181.90625v261.886719c107.019531 0 194.089843-87.070312 194.089843-194.089844zm0 0" fill="#fd9126"/><path d="m349.835938 148.472656v52.378906h30.179687v-52.378906c0-81.867187-66.605469-148.472656-148.472656-148.472656v30.179688c65.226562 0 118.292969 53.0625 118.292969 118.292968zm0 0" fill="#fd9126"/><path d="m463.085938 268.683594h-463.085938v-28.816406c0-30.464844 24.785156-55.253907 55.253906-55.253907h352.578125c30.464844 0 55.253907 24.789063 55.253907 55.253907zm0 0" fill="#fed29a"/><path d="m463.085938 239.867188c0-30.464844-24.785157-55.25-55.253907-55.25h-176.289062v84.070312h231.542969zm0 0" fill="#fabe3d"/></svg>