<svg height="512pt" viewBox="0 0 512 512" width="512pt" xmlns="http://www.w3.org/2000/svg"><path d="m203.796875 159.929688-29.074219-7.34375c6.125-24.242188 15.835938-44.804688 30.558594-64.710938 43.601562-58.945312 118.515625-80.304688 121.683594-81.183594l24.082031-6.691406-5.429687 24.398438c-17.355469 77.953124-18.609376 148.292968-3.730469 209.070312 0 0-48.863281 22.421875-138.089844-73.539062zm0 0" fill="#efe2dd"/><path d="m351.046875 0-24.082031 6.691406c-2.101563.585938-35.769532 10.183594-70.929688 33.78125v166.597656c55.871094 40.144532 85.851563 26.398438 85.851563 26.398438-14.878907-60.777344-13.625-131.121094 3.726562-209.070312zm0 0" fill="#ccbfba"/><path d="m92.894531 512-7.589843-1.664062c-42.144532-9.242188-70.054688-37.726563-80.710938-82.371094-7.636719-31.988282-3.488281-61.113282-3.308594-62.339844l1.925782-13.097656 158.222656 3.5 8.292968-5.902344c-52.816406-24.121094-88.035156-59.1875-104.871093-104.511719-34.730469-93.515625 22.308593-195.277343 24.753906-199.5625l12.539063-21.984375 13.257812 21.5625c76.839844 125 189.3125 170.035156 215.308594 179.066406 4.582031-2.601562 9.457031-5.816406 14.546875-9.601562 11.402343-8.472656 17.558593-22.199219 16.46875-36.71875-.1875-2.511719-.230469-5.074219-.121094-7.617188 1.421875-32.875 28.292969-59.597656 61.175781-60.835937 17.492188-.65625 34.039063 5.652344 46.613282 17.765625 11.242187 10.824219 17.96875 24.976562 19.277343 40.324219 11.972657 15.261719 18.742188 28.207031 20.128907 38.515625l3.003906 22.34375-21.765625-5.871094c-2.425781-.652344-4.941407-1.0625-7.476563-1.214844-9.273437-.5625-20.058594 4.097656-28.851562 12.46875-8.914063 8.484375-14.597656 19.511719-15.203125 29.503906l-.871094 14.359376c-2.902344 47.894531-24.445313 91.890624-60.652344 123.882812-36.007812 31.8125-82 47.691406-129.503906 44.695312-26.625-1.679687-45.839844-6.457031-65.066406-16.527343zm0 0" fill="#fdf4f5"/><path d="m87.113281 200.070312c31.011719 30.277344 81.835938 70.753907 147.855469 91.65625l8.71875-30.851562c-60.125-19.035156-106.765625-56.105469-135.308594-83.847656-26.984375-26.230469-43.371094-49.335938-47.457031-55.332032-3.144531 13.242188-5.597656 27.621094-6.664063 42.644532 8.363282 10.164062 19.347657 22.542968 32.855469 35.730468zm0 0" fill="#efe2dd"/><path d="m508.804688 206.527344c-1.386719-10.3125-8.15625-23.257813-20.128907-38.515625-1.308593-15.347657-8.039062-29.503907-19.277343-40.328125-12.574219-12.113282-29.121094-18.421875-46.613282-17.761719-32.882812 1.238281-59.753906 27.957031-61.175781 60.835937-.109375 2.539063-.070313 5.101563.117187 7.617188 1.09375 14.519531-5.0625 28.246094-16.464843 36.71875-5.09375 3.78125-9.964844 6.996094-14.546875 9.597656-11.5-3.996094-39.914063-15.039062-74.679688-36.921875v259.253907c44.445313.695312 87.109375-15.125 120.953125-45.027344 36.207031-31.992188 57.746094-75.988282 60.652344-123.882813l.871094-14.359375c.605469-9.988281 6.289062-21.019531 15.199219-29.503906 8.792968-8.367188 19.578124-13.03125 28.855468-12.46875 2.535156.15625 5.050782.5625 7.472656 1.21875l21.765626 5.867188zm0 0" fill="#efe2dd"/><path d="m477.882812 221.914062c5.261719-.59375 9.734376.433594 12.15625 1.085938l21.765626 5.871094-3.003907-22.34375c-1.386719-10.308594-8.152343-23.257813-20.128906-38.515625zm0 0" fill="#fabe3d"/></svg>