<svg height="511pt" viewBox="1 0 511.99999 511" width="511pt" xmlns="http://www.w3.org/2000/svg"><path d="m511.738281 164.363281h.261719v29.980469h-.261719zm0 0"/><path d="m511.738281 164.363281h.261719v29.980469h-.261719zm0 0"/><path d="m62.925781 511.972656-62.925781-62.925781 448.546875-448.546875 62.925781 62.925781zm0 0" fill="#fdf4f5"/><g fill="#c567ea"><path d="m452.269531 163.945312h29.980469v28.3125h-29.980469zm0 0"/><path d="m452.269531 224.773438h29.980469v28.132812h-29.980469zm0 0"/><path d="m483.429688 193.4375h28.3125v29.976562h-28.3125zm0 0"/><path d="m422.78125 193.4375h28.351562v29.976562h-28.351562zm0 0"/><path d="m452.269531 163.945312h29.980469v28.3125h-29.980469zm0 0"/></g><path d="m452.269531 224.773438h29.980469v28.132812h-29.980469zm0 0" fill="#a751e2"/><path d="m483.429688 193.4375h28.3125v29.976562h-28.3125zm0 0" fill="#a751e2"/><path d="m422.78125 193.4375h28.351562v29.976562h-28.351562zm0 0" fill="#c567ea"/><path d="m31.671875 480.714844 448.542969-448.539063 31.25 31.25-448.542969 448.542969zm0 0" fill="#efe2dd"/><path d="m62.925781 511.972656-62.925781-62.925781 337.507812-337.507813 62.925782 62.925782zm0 0" fill="#7c8388"/><path d="m31.671875 480.714844 337.503906-337.503906 31.253907 31.25-337.507813 337.507812zm0 0" fill="#575f64"/><path d="m422.675781 312.699219c7.839844 0 15.351563-6.894531 14.988281-14.988281-.363281-8.121094-6.585937-14.988282-14.988281-14.988282-7.84375 0-15.355469 6.894532-14.992187 14.988282.363281 8.121093 6.585937 14.988281 14.992187 14.988281zm0 0" fill="#c4e945"/><path d="m412.195312 308.28125c2.648438 2.710938 6.292969 4.417969 10.480469 4.417969 7.839844 0 15.351563-6.894531 14.988281-14.988281-.183593-4.03125-1.808593-7.75-4.425781-10.476563zm0 0" fill="#9edb3d"/></svg>