<svg height="512pt" viewBox="0 -60 512 512" width="512pt" xmlns="http://www.w3.org/2000/svg"><path d="m99.6875 0h312.625v301.382812h-312.625zm0 0" fill="#54489b"/><path d="m253.925781 0h158.386719v301.382812h-158.386719zm0 0" fill="#463d83"/><path d="m99.6875 198.410156h312.625v102.972656h-312.625zm0 0" fill="#c4e945"/><path d="m253.925781 198.410156h158.386719v102.972656h-158.386719zm0 0" fill="#9edb3d"/><path d="m512 392.132812h-512v-30.148437c0-41.6875 33.914062-75.601563 75.605469-75.601563h360.789062c41.6875 0 75.605469 33.914063 75.605469 75.601563zm0 0" fill="#463d83"/><path d="m436.394531 286.382812h-182.46875v105.75h258.074219v-30.148437c0-41.6875-33.914062-75.601563-75.605469-75.601563zm0 0" fill="#39306b"/></svg>