<svg height="512pt" viewBox="0 0 512 512" width="512pt" xmlns="http://www.w3.org/2000/svg"><path d="m256 512c-68.378906 0-132.667969-26.628906-181.019531-74.980469-48.351563-48.351562-74.980469-112.640625-74.980469-181.019531s26.628906-132.667969 74.980469-181.019531c48.351562-48.351563 112.640625-74.980469 181.019531-74.980469s132.667969 26.628906 181.019531 74.980469c48.351563 48.351562 74.980469 112.640625 74.980469 181.019531s-26.628906 132.667969-74.980469 181.019531c-48.351562 48.351563-112.640625 74.980469-181.019531 74.980469zm0 0" fill="#e681fa"/><path d="m437.019531 74.980469c-48.351562-48.351563-112.640625-74.980469-181.019531-74.980469v512c68.378906 0 132.667969-26.628906 181.019531-74.980469 48.351563-48.351562 74.980469-112.640625 74.980469-181.019531s-26.628906-132.667969-74.980469-181.019531zm0 0" fill="#c567ea"/><path d="m256 63.605469c-106.085938 0-192.394531 86.308593-192.394531 192.394531s86.308593 192.394531 192.394531 192.394531 192.394531-86.308593 192.394531-192.394531-86.308593-192.394531-192.394531-192.394531zm162.1875 192.394531c0 16.867188-2.589844 33.144531-7.390625 48.449219-13.894531-39.953125-42.65625-72.511719-79.410156-91.53125l.042969-.363281-.382813-.164063c.109375-2.429687.183594-4.863281.183594-7.296875 0-25.992188-6.246094-51.875-18.054688-74.847656-6.011719-11.691406-13.484375-22.65625-22.132812-32.609375 72.640625 16.058593 127.144531 80.960937 127.144531 158.363281zm-162.1875-150.960938c12.394531 11.015626 22.757812 24.328126 30.3125 39.019532 9.117188 17.738281 14.035156 36.824218 14.640625 56.800781-.039063-1.320313-17.296875-3.90625-18.890625-4.160156-7.042969-1.117188-14.15625-1.78125-21.285156-1.984375-16.761719-.480469-33.597656 1.5625-49.730469 6.144531.609375-19.976563 5.523437-39.066406 14.644531-56.800781 7.550782-14.691406 17.914063-28.003906 30.308594-39.019532zm3.488281 119.871094c19.9375 0 38.886719 6.773438 38.886719 6.773438-5.679688 28.304687-20.8125 54.304687-42.375 73.460937 0 0-35.042969-27.203125-42.375-73.460937 0 0 14.203125-6.773438 45.863281-6.773438zm-73.867187 19.875c7.523437 30.40625 23.421875 57.253906 45.011718 78.136719-18.90625 10.152344-40.496093 15.882813-63.324218 15.882813-14.5625 0-28.769532-2.300782-42.375-6.855469 7.4375-37.058594 29.984375-68.175781 60.6875-87.164063zm140.757812 0c30.699219 18.988282 53.25 50.105469 60.683594 87.164063-13.601562 4.554687-27.808594 6.855469-42.375 6.855469-22.824219 0-44.414062-5.730469-63.320312-15.882813 21.59375-20.882813 37.488281-47.730469 45.011718-78.136719zm-105.421875-147.148437c-8.648437 9.953125-16.121093 20.917969-22.132812 32.609375-11.808594 22.972656-18.050781 48.855468-18.050781 74.847656 0 2.433594.070312 4.867188.179687 7.296875l-.382813.164063.042969.363281c-36.753906 19.019531-65.515625 51.578125-79.410156 91.53125-4.800781-15.304688-7.390625-31.582031-7.390625-48.449219 0-77.402344 54.503906-142.304688 127.144531-158.363281zm35.042969 320.550781c-46.898438 0-89.207031-20.015625-118.847656-51.949219 9.875 1.839844 19.945312 2.773438 30.15625 2.773438 32.425781 0 62.8125-9.425781 88.40625-25.804688l.285156.210938.285156-.210938c25.59375 16.378907 55.980469 25.804688 88.40625 25.804688 10.210938 0 20.28125-.933594 30.15625-2.773438-29.640625 31.933594-71.949218 51.949219-118.847656 51.949219zm0 0" fill="#fdda50"/><path d="m256 63.605469v41.433593c12.394531 11.015626 22.757812 24.328126 30.3125 39.019532 9.117188 17.738281 14.035156 36.824218 14.640625 56.800781-.039063-1.320313-17.296875-3.90625-18.890625-4.160156-7.042969-1.117188-14.15625-1.78125-21.285156-1.984375-1.589844-.046875-3.183594-.0625-4.777344-.0625v30.289062c1.144531-.015625 2.300781-.03125 3.492188-.03125 19.933593 0 38.882812 6.773438 38.882812 6.773438-5.679688 28.304687-20.8125 54.304687-42.375 73.460937v38.273438l.285156-.210938c25.597656 16.378907 55.984375 25.804688 88.40625 25.804688 10.210938 0 20.28125-.933594 30.15625-2.773438-29.640625 31.933594-71.949218 51.949219-118.847656 51.949219v30.207031c106.085938 0 192.394531-86.308593 192.394531-192.394531s-86.308593-192.394531-192.394531-192.394531zm88.691406 275.199219c-22.828125 0-44.417968-5.730469-63.324218-15.882813 21.59375-20.882813 37.488281-47.730469 45.011718-78.136719 30.699219 18.988282 53.25 50.105469 60.683594 87.164063-13.601562 4.554687-27.808594 6.855469-42.371094 6.855469zm-13.304687-125.886719.042969-.363281-.382813-.164063c.109375-2.429687.183594-4.863281.183594-7.296875 0-25.992188-6.246094-51.875-18.054688-74.847656-6.011719-11.691406-13.484375-22.65625-22.132812-32.609375 72.640625 16.058593 127.144531 80.960937 127.144531 158.363281 0 16.867188-2.589844 33.144531-7.390625 48.449219-13.894531-39.953125-42.65625-72.511719-79.410156-91.53125zm0 0" fill="#fabe3d"/></svg>