<svg height="512pt" viewBox="-52 0 512 512.00059" width="512pt" xmlns="http://www.w3.org/2000/svg"><path d="m352.96875 512h-26.394531l-2.148438-108.523438h28.542969c29.921875 0 54.265625 24.339844 54.265625 54.261719s-24.34375 54.261719-54.265625 54.261719zm0 0" fill="#ccbfba"/><path d="m337.027344 512-287.089844-.042969.003906-30.140625h43.597656v-118.8125l-14.667968-29.335937c-8.09375-16.183594-12.371094-34.300781-12.371094-52.390625v-6.503906h-.363281c-19.246094 0-27.816407-8.648438-36.890625-17.808594-.65625-.660156-1.335938-1.347656-2.042969-2.054688l-27.203125-27.203125 36.957031-81.367187 17.503907-10.429688-7.253907-121.992187-2.003906-6.648438 11.605469-4.617187c.203125-.085938.445312-.183594.71875-.289063l.558594-.21875c-.105469.042969-.210938.085938-.316407.128907 1.25-.46875 3.089844-1.042969 5.257813-1.183594-.757813.035156-1.523438.128906-2.285156.285156 20.898437-4.390625 47.628906.855469 60.265624 28.6875 2.300782 5.070312 3.667969 10.515625 4.058594 16.1875l5.386719 78.292969c16.84375 4.070312 32.273437 13.429687 44.390625 27.109375 14.921875 16.855468 23.140625 38.347656 23.140625 60.519531v23.4375l74.0625 60.519531c41.296875 33.742188 64.980469 83.679688 64.980469 137.007813zm0 0" fill="#fdf4f5"/><path d="m238.628906 345.398438c-52 0-94.304687 42.304687-94.304687 94.304687v41.292969h30.140625v-41.292969c0-35.378906 28.785156-64.164063 64.164062-64.164063h19.765625v-30.140624zm0 0" fill="#efe2dd"/><path d="m272.046875 296.128906-69.429687-56.730468v272.582031l134.410156.019531v-78.863281c0-53.328125-23.683594-103.265625-64.980469-137.007813zm0 0" fill="#efe2dd"/><path d="m238.628906 345.398438c-12.746094 0-24.910156 2.546874-36.011718 7.152343v34.078125c10.273437-6.996094 22.671874-11.089844 36.011718-11.089844h19.765625v-30.140624zm0 0" fill="#ccbfba"/></svg>