<svg height="512pt" viewBox="-31 0 512 512" width="512pt" xmlns="http://www.w3.org/2000/svg"><path d="m449.890625 512h-272.898437v-382.421875h272.898437zm0 0" fill="#fdf4f5"/><path d="m449.890625 512h-135.9375v-382.421875h135.941406v382.421875zm0 0" fill="#efe2dd"/><path d="m313.746094 391.59375-58.710938-59.132812c-16.355468-16.355469-16.355468-43.035157.039063-59.429688 16.203125-16.207031 42.457031-16.394531 58.898437-.5625 7.875-7.585938 18.199219-11.753906 29.164063-11.753906 11.230469 0 21.792969 4.371094 29.734375 12.316406 16.394531 16.394531 16.394531 43.070312 0 59.46875l-48.472656 48.46875zm0 0" fill="#e681fa"/><path d="m313.746094 391.59375.226562-119.125c7.875-7.585938 18.199219-11.753906 29.164063-11.753906 11.230469 0 21.792969 4.375 29.734375 12.316406 16.394531 16.394531 16.394531 43.074219 0 59.46875l-48.472656 48.472656zm0 0" fill="#c567ea"/><path d="m361.574219 444.03125 21.230469-21.230469 19.910156 19.90625-21.230469 21.234375zm0 0" fill="#c567ea"/><path d="m272.902344 382.421875h-272.902344v-382.421875h272.902344zm0 0" fill="#54489b"/><path d="m132.808594 0h140.09375v382.421875h-140.09375zm0 0" fill="#463d83"/><path d="m191.746094 163.679688-58.738282-59.160157-10.65625 10.683594-48.441406 48.441406c-7.941406 7.941407-12.316406 18.5-12.316406 29.734375 0 11.230469 4.375 21.792969 12.316406 29.734375 11.847656 11.847657 29.0625 15.121094 43.886719 9.847657v21.921874h30.027344v-21.890624c4.480469 1.597656 9.25 2.4375 14.152343 2.4375 11.230469 0 21.792969-4.375 29.734376-12.316407 7.941406-7.941406 12.316406-18.503906 12.316406-29.734375-.003906-11.234375-4.375-21.792968-12.28125-29.699218zm0 0" fill="#c4e945"/><path d="m34.175781 56.808594 21.230469-21.230469 19.910156 19.90625-21.230468 21.230469zm0 0" fill="#c4e945"/><g fill="#9edb3d"><path d="m194.089844 324.445312 21.230468-21.230468 19.90625 19.90625-21.230468 21.230468zm0 0"/><path d="m191.746094 163.679688-58.738282-59.160157-.199218.195313v150.167968h15.015625v-21.890624c4.480469 1.597656 9.25 2.4375 14.148437 2.4375 11.234375 0 21.792969-4.375 29.734375-12.316407 7.941407-7.941406 12.316407-18.503906 12.316407-29.734375 0-11.234375-4.371094-21.792968-12.277344-29.699218zm0 0"/></g></svg>