<svg height="512pt" viewBox="0 0 512 512" width="512pt" xmlns="http://www.w3.org/2000/svg"><path d="m62.207031 511.8125-62.207031-62.207031 349.039062-343.296875 65.082032 60.148437zm0 0" fill="#fdf4f5"/><path d="m160.433594 127.609375c5.546875 5.546875 15.738281 5.984375 21.210937 0 5.488281-6.003906 5.945313-15.265625 0-21.210937-5.546875-5.546876-15.742187-5.984376-21.210937 0-5.488282 6.003906-5.945313 15.265624 0 21.210937zm0 0" fill="#e681fa"/><path d="m160.433594 127.609375c5.546875 5.546875 15.738281 5.984375 21.210937 0 5.488281-6.003906 5.945313-15.265625 0-21.210937zm0 0" fill="#c567ea"/><path d="m240.953125 0h30v28.324219h-30zm0 0" fill="#463d83"/><path d="m240.953125 58.863281h30v28.148438h-30zm0 0" fill="#39306b"/><path d="m271.132812 28.507812h28.328126v30h-28.328126zm0 0" fill="#39306b"/><path d="m212.445312 28.507812h28.371094v30h-28.371094zm0 0" fill="#463d83"/><path d="m31.210938 480.816406 30.996093 30.996094 351.914063-345.355469-35.625-32.921875zm0 0" fill="#efe2dd"/><path d="m109.40625 465.484375-62.207031-62.207031 301.839843-296.96875 65.082032 60.148437zm0 0" fill="#c4e945"/><path d="m77.976562 434.054688 31.429688 31.429687 304.714844-299.027344-35.625-32.921875zm0 0" fill="#9edb3d"/><path d="m285.292969 131.207031 21.207031-21.210937 100.5 100.5-21.207031 21.210937zm0 0" fill="#463d83"/><path d="m333.054688 178.972656 21.210937-21.210937 52.734375 52.734375-21.207031 21.210937zm0 0" fill="#39306b"/><path d="m425.011719 173.980469c-47.96875 0-86.992188-39.023438-86.992188-86.988281 0-47.964844 39.023438-86.98828175 86.992188-86.98828175 47.964843 0 86.988281 39.01953175 86.988281 86.98828175s-39.023438 86.988281-86.988281 86.988281zm0 0" fill="#fdda50"/><path d="m363.539062 148.488281c15.753907 15.742188 37.492188 25.492188 61.472657 25.492188 47.964843 0 86.988281-39.019531 86.988281-86.988281 0-23.976563-9.75-45.71875-25.492188-61.46875zm0 0" fill="#fabe3d"/></svg>