<svg height="512pt" viewBox="-15 -14 512 512" width="512pt" xmlns="http://www.w3.org/2000/svg"><path d="m417.484375 223.730469h-214.0625v-28.261719h214.0625c16.878906 0 30.613281-13.730469 30.613281-30.613281 0-16.882813-13.734375-30.613281-30.613281-30.613281h-138.742187v-28.261719h138.742187c32.460937 0 58.871094 26.414062 58.871094 58.875 0 32.460937-26.410157 58.875-58.871094 58.875zm0 0" fill="#e681fa"/><path d="m454.902344 119.46875h-176.160156v14.773438h138.742187c16.878906 0 30.613281 13.730468 30.613281 30.613281 0 16.882812-13.734375 30.613281-30.613281 30.613281h-214.0625v28.261719h214.0625c32.460937 0 58.871094-26.414063 58.871094-58.875 0-18.257813-8.367188-34.578125-21.453125-45.386719zm0 0" fill="#c567ea"/><path d="m262.484375 376.328125h-90.652344c-49.714843 0-90.160156-40.445313-90.160156-90.160156 0-30.371094 15.144531-58.507813 40.507813-75.269531l15.582031 23.578124c-17.425781 11.511719-27.828125 30.835938-27.828125 51.691407 0 34.132812 27.765625 61.898437 61.898437 61.898437h90.652344zm0 0" fill="#e681fa"/><path d="m125.523438 363.773438c13.542968 8.140624 29.386718 12.554687 46.308593 12.554687h90.652344v-12.554687zm0 0" fill="#c567ea"/><path d="m256.355469 66.632812c-8.949219-18.1875-22.363281-33.765624-39.203125-45.433593-20.011719-13.867188-43.503906-21.199219-67.933594-21.199219-65.839844 0-119.398438 53.5625-119.398438 119.398438 0 65.839843 53.5625 119.402343 119.398438 119.402343 24.429688 0 47.921875-7.332031 67.933594-21.199219 16.839844-11.667968 30.253906-27.246093 39.203125-45.433593h36.519531v-105.535157zm-107.136719 120.878907c-37.554688 0-68.109375-30.554688-68.109375-68.113281 0-37.554688 30.554687-68.109376 68.109375-68.109376s68.113281 30.554688 68.113281 68.109376c0 37.558593-30.558593 68.113281-68.113281 68.113281zm0 0" fill="#575f64"/><path d="m217.324219 119.582031c-.097657 37.472657-30.609375 67.929688-68.105469 67.929688s-68.007812-30.457031-68.105469-67.929688c0-.0625-.003906-.121093-.003906-.183593 0-1.027344.03125-2.046876.078125-3.066407-.039062.878907-.0625 1.761719-.066406 2.644531h-.023438c0-13.480468-11.019531-24.449218-24.5625-24.449218h-2.027344c-13.546874 0-24.574218 10.972656-24.574218 24.457031v.59375h-.109375c.097656 65.757813 53.617187 119.21875 119.394531 119.21875 24.429688 0 47.921875-7.328125 67.9375-21.195313 16.835938-11.671874 30.25-27.246093 39.203125-45.4375h36.515625v-52.585937h-75.550781zm0 0" fill="#32393f"/><path d="m257.136719 133.535156c7.390625 0 14.46875-6.496094 14.128906-14.128906-.34375-7.65625-6.207031-14.128906-14.128906-14.128906-7.390625 0-14.472657 6.496094-14.128907 14.128906.34375 7.65625 6.207032 14.128906 14.128907 14.128906zm0 0" fill="#e681fa"/><path d="m243.023438 119.582031c.421874 7.578125 6.253906 13.953125 14.113281 13.953125 7.332031 0 14.351562-6.398437 14.125-13.953125zm0 0" fill="#c567ea"/><path d="m248.945312 310.84375v105.535156h36.515626c8.953124 18.1875 22.367187 33.765625 39.203124 45.433594 20.015626 13.867188 43.507813 21.199219 67.9375 21.199219 65.835938 0 119.398438-53.5625 119.398438-119.402344 0-65.835937-53.5625-119.398437-119.398438-119.398437-24.429687 0-47.921874 7.328124-67.9375 21.199218-16.835937 11.667969-30.25 27.246094-39.203124 45.433594zm75.542969 52.769531c0-37.558593 30.554688-68.113281 68.109375-68.113281 37.558594 0 68.113282 30.554688 68.113282 68.113281 0 37.554688-30.554688 68.109375-68.113282 68.109375-37.554687 0-68.109375-30.554687-68.109375-68.109375zm0 0" fill="#575f64"/><path d="m324.492188 363.792969c.097656 37.472656 30.613281 67.929687 68.105468 67.929687 37.496094 0 68.011719-30.457031 68.109375-67.929687 0-.0625.003907-.121094.003907-.179688 0-1.03125-.03125-2.050781-.078126-3.066406.039063.875.0625 1.757813.066407 2.640625h.023437c0-13.480469 11.015625-24.445312 24.5625-24.445312h2.027344c13.546875 0 24.570312 10.96875 24.570312 24.453124v.597657h.113282c-.097656 65.753906-53.621094 119.21875-119.398438 119.21875-24.429687 0-47.917968-7.332031-67.933594-21.199219-16.839843-11.667969-30.25-27.246094-39.203124-45.433594h-36.519532v-52.585937zm0 0" fill="#32393f"/><path d="m284.683594 377.746094c-7.390625 0-14.472656-6.496094-14.128906-14.128906.339843-7.65625 6.207031-14.128907 14.128906-14.128907 7.390625 0 14.46875 6.5 14.128906 14.128907-.34375 7.65625-6.207031 14.128906-14.128906 14.128906zm0 0" fill="#e681fa"/><path d="m298.796875 363.792969c-.425781 7.578125-6.253906 13.953125-14.113281 13.953125-7.335938 0-14.355469-6.398438-14.128906-13.953125zm0 0" fill="#c567ea"/></svg>