<svg height="512pt" viewBox="0 0 512 512" width="512pt" xmlns="http://www.w3.org/2000/svg"><path d="m62.046875 511.386719-62.046875-62.042969 288.636719-282.871094 62.101562 62.558594zm0 0" fill="#fdf4f5"/><g fill="#54489b"><path d="m220.414062.894531h29.921876v28.253907h-29.921876zm0 0"/><path d="m220.414062 59.609375h29.921876v28.078125h-29.921876zm0 0"/><path d="m250.515625 29.332031h28.253906v29.921875h-28.253906zm0 0"/><path d="m191.976562 29.332031h28.296876v29.921875h-28.296876zm0 0"/><path d="m220.414062.894531h29.921876v28.253907h-29.921876zm0 0"/></g><path d="m220.414062 59.609375h29.921876v28.078125h-29.921876zm0 0" fill="#463d83"/><path d="m250.515625 29.332031h28.253906v29.921875h-28.253906zm0 0" fill="#463d83"/><path d="m191.976562 29.332031h28.296876v29.921875h-28.296876zm0 0" fill="#54489b"/><path d="m31.328125 480.671875 30.71875 30.714844 288.691406-282.355469-33.761719-34.007812zm0 0" fill="#efe2dd"/><path d="m115.347656 459.253906-62.0625-62.121094 233.820313-232.253906 63.632812 64.152344zm0 0" fill="#7c8388"/><path d="m84.0625 427.9375 31.285156 31.316406 235.386719-230.222656-33.757813-34.007812zm0 0" fill="#575f64"/><path d="m336.054688 234.453125-54.015626-53.816406 58.800782-180.636719 13.425781 3.207031c67.121094 16.027344 137.882813 86.226563 154.527344 153.289063l3.207031 12.929687zm0 0" fill="#fabe3d"/><path d="m512 169.425781-3.207031-12.929687c-8.28125-33.367188-29.960938-67.507813-57.921875-95.367188l-144.167969 144.167969 29.351563 29.15625zm0 0" fill="#fd9126"/><path d="m417.902344 33.347656-115.785156 167.367188 8.847656 8.761718 171.164062-110.617187c-16.851562-25.03125-39.402344-48.003906-64.226562-65.511719zm0 0" fill="#fdda50"/><path d="m450.855469 61.140625-144.152344 144.15625 4.261719 4.179687 171.164062-110.617187c-8.976562-13.332031-19.578125-26.066406-31.273437-37.71875zm0 0" fill="#fabe3d"/><path d="m306.292969 272.511719-63.46875-63.652344 44.285156-43.976563 63.625 64.148438zm0 0" fill="#575f64"/><path d="m272.9375 239.066406 33.355469 33.445313 44.441406-43.480469-33.746094-34.023438zm0 0" fill="#32393f"/><path d="m160.402344 127.605469c5.546875 5.546875 15.742187 5.984375 21.210937 0 5.492188-6 5.949219-15.261719 0-21.210938-5.546875-5.546875-15.738281-5.984375-21.210937 0-5.488282 6.003907-5.945313 15.265625 0 21.210938zm0 0" fill="#e681fa"/><path d="m160.402344 127.605469c5.546875 5.546875 15.742187 5.984375 21.210937 0 5.492188-6 5.949219-15.261719 0-21.210938zm0 0" fill="#c567ea"/></svg>