<svg height="511pt" viewBox="-71 1 511 511.99999" width="511pt" xmlns="http://www.w3.org/2000/svg"><path d="m57.371094 418.210938h256.15625v93.789062h-256.15625zm0 0" fill="#efe2dd"/><path d="m185.464844 418.210938h128.0625v93.789062h-128.0625zm0 0" fill="#ccbfba"/><path d="m313.5625 433.1875h-256.191406v-62.25h-56.871094v-199.691406c0-94.425782 76.820312-171.246094 171.246094-171.246094h27.4375c94.425781 0 171.25 76.820312 171.25 171.246094v199.691406h-56.871094zm0 0" fill="#fdf4f5"/><path d="m199.183594 0h-13.71875v433.1875h128.097656v-62.25h56.871094v-199.691406c0-94.425782-76.824219-171.246094-171.25-171.246094zm0 0" fill="#efe2dd"/><g fill="#575f64"><path d="m308.945312 210.480469-47.6875-47.691407h-54.773437v104.855469h102.460937zm0 0"/><path d="m164.449219 162.789062h-54.777344l-47.6875 47.691407v57.164062h102.464844zm0 0"/><path d="m157.972656 333.839844h54.988282v-29.441406l-27.496094-20.402344-27.492188 20.402344zm0 0"/><path d="m313.5 412.21875h-56.09375v-29.242188h-30.101562v29.242188h-26.542969v-29.242188h-30.101563v29.242188h-26.542968v-29.242188h-30.101563v29.242188h-56.652344v30h56.652344v27.324219h30.101563v-27.324219h26.542968v27.324219h30.101563v-27.324219h26.542969v27.324219h30.101562v-27.324219h56.09375zm0 0"/></g><path d="m308.945312 210.480469-47.6875-47.691407h-54.773437v104.855469h102.460937zm0 0" fill="#32393f"/><path d="m212.960938 304.398438-27.496094-20.402344v49.84375h27.496094zm0 0" fill="#32393f"/><path d="m257.40625 412.21875v-29.242188h-30.101562v29.242188h-26.542969v-29.242188h-15.296875v86.566407h15.296875v-27.324219h26.542969v27.324219h30.101562v-27.324219h56.09375v-30zm0 0" fill="#32393f"/></svg>