<svg height="512pt" viewBox="-56 0 512 512" width="512pt" xmlns="http://www.w3.org/2000/svg"><path d="m54.035156 0c-14.464844 0-28.050781 5.640625-38.265625 15.878906-10.210937 10.242188-15.8085935 23.847656-15.769531 38.308594l1.171875 412.855469c.019531 24.796875 20.199219 44.957031 44.996094 44.957031h354v-512zm0 0" fill="#39306b"/><path d="m54.683594 0h345.484375v512h-345.484375zm0 0" fill="#54489b"/><path d="m229.898438 0h170.269531v512h-170.269531zm0 0" fill="#463d83"/><path d="m177.511719 351.144531h109.136719v29.996094h-109.136719zm0 0" fill="#e681fa"/><path d="m177.511719 301.144531h109.136719v29.996094h-109.136719zm0 0" fill="#e681fa"/><path d="m229.898438 351.144531h56.75v29.996094h-56.75zm0 0" fill="#c567ea"/><path d="m229.898438 301.144531h56.75v29.996094h-56.75zm0 0" fill="#c567ea"/><path d="m230.074219 250.644531c-51.453125 0-93.316407-41.863281-93.316407-93.316406 0-51.457031 41.863282-93.316406 93.316407-93.316406s93.3125 41.859375 93.3125 93.316406c0 51.453125-41.859375 93.316406-93.3125 93.316406zm0 0" fill="#e681fa"/><path d="m323.386719 157.328125c0-51.453125-41.859375-93.316406-93.3125-93.316406-.058594 0-.117188.003906-.175781.003906v186.625c.058593 0 .117187.003906.175781.003906 51.453125 0 93.3125-41.863281 93.3125-93.316406zm0 0" fill="#c567ea"/><path d="m45.414062 512h354.761719v-88.296875h-354.761719c-24.382812 0-44.148437 19.765625-44.148437 44.148437 0 24.382813 19.765625 44.148438 44.148437 44.148438zm0 0" fill="#fdf4f5"/><path d="m229.898438 423.703125h170.277343v88.296875h-170.277343zm0 0" fill="#efe2dd"/><path d="m256.378906 193.644531-26.304687-8.515625-26.308594 8.511719-.03125-27.644531-16.222656-22.386719 26.285156-8.574219 16.277344-22.347656 16.273437 22.347656 26.285156 8.574219-16.222656 22.386719zm0 0" fill="#fdda50"/><path d="m246.347656 135.035156-16.273437-22.347656-.175781.242188v72.257812l.175781-.058594 26.304687 8.515625.03125-27.648437 16.222656-22.386719zm0 0" fill="#fabe3d"/></svg>