<svg height="512pt" viewBox="0 0 511 512" width="512pt" xmlns="http://www.w3.org/2000/svg"><path d="m431.136719 60.992188 35.003906-35.003907 21.230469 21.230469-35.003906 35.003906zm0 0" fill="#fcced3"/><path d="m441.957031 71.8125 35.007813-35.003906 10.40625 10.40625-35.007813 35.003906zm0 0" fill="#f9a7b0"/><path d="m447.5 81.148438-52.050781 37.902343-31-72.652343 45.058593-45.054688 18.707032 18.707031c16.050781 16.050781 23.261718 38.890625 19.285156 61.097657zm0 0" fill="#c567ea"/><path d="m447.5 81.148438-52.050781 37.902343-31-72.652343 45.058593-45.054688 18.707032 18.707031c16.050781 16.050781 23.261718 38.890625 19.285156 61.097657zm0 0" fill="#a751e2"/><path d="m465.652344 148.878906-81.953125-55.273437 11.042969-11.042969c27.058593-27.0625 71.09375-27.0625 98.15625 0l19.535156 19.535156zm0 0" fill="#c567ea"/><path d="m451.117188 62.660156-45.636719 45.636719 60.171875 40.582031 46.78125-46.78125-19.535156-19.535156c-11.675782-11.675781-26.511719-18.300781-41.78125-19.902344zm0 0" fill="#e681fa"/><path d="m143.976562 297.578125-8.15625-5.277344c-2.515624-1.628906-61.667968-40.492187-61.667968-91.820312s59.152344-90.191407 61.667968-91.820313l8.15625-5.277344 8.15625 5.277344c2.519532 1.625 61.671876 40.492188 61.671876 91.820313s-59.152344 90.191406-61.671876 91.820312zm0 0" fill="#c4e945"/><path d="m257.207031 493.164062c-51.328125 0-90.191406-59.152343-91.820312-61.671874l-5.277344-8.15625 5.277344-8.152344c1.628906-2.519532 40.492187-61.671875 91.820312-61.671875s90.191407 59.152343 91.820313 61.671875l5.277344 8.152344-5.277344 8.15625c-1.628906 2.519531-40.492188 61.671874-91.820313 61.671874zm0 0" fill="#c4e945"/><path d="m349.027344 415.183594c-.3125-.484375-1.988282-3.042969-4.851563-6.859375h-218.769531l195.578125-195.578125-21.226563-21.230469-140.769531 140.765625v-218.769531c-3.816406-2.863281-6.375-4.542969-6.855469-4.851563l-8.15625-5.277344-8.15625 5.277344c-.480468.308594-3.039062 1.988282-6.855468 4.851563v248.792969l-128.464844 128.464843 21.230469 21.230469 73.652343-73.652344h248.792969c2.863281-3.816406 4.539063-6.375 4.851563-6.855468l5.277344-8.15625zm0 0" fill="#9edb3d"/><path d="m257.207031 493.160156c-51.328125 0-90.195312-59.152344-91.824219-61.671875l-5.277343-8.152343 5.277343-8.15625c1.628907-2.519532 40.492188-61.671876 91.824219-61.671876 51.324219 0 90.191407 59.152344 91.820313 61.671876l5.277344 8.15625-5.277344 8.152343c-1.628906 2.519531-40.496094 61.671875-91.820313 61.671875zm0 0" fill="#9edb3d"/><path d="m344.175781 408.324219h-218.769531l195.578125-195.582031-9.976563-9.976563-299.253906 299.257813 9.976563 9.976562 73.648437-73.652344h248.792969c2.863281-3.816406 4.542969-6.375 4.855469-6.855468l5.277344-8.15625-5.277344-8.152344c-.3125-.484375-1.988282-3.042969-4.851563-6.859375zm0 0" fill="#69ba30"/><path d="m512.433594 166.164062-36.917969-36.917968c-20-20.003906-47.550781-29.234375-75.601563-25.332032l-112.929687 87.414063 38.09375 38.476563c12.453125 12.453124 29.011719 19.3125 46.625 19.3125s34.167969-6.859376 46.621094-19.3125l57.644531-57.648438 15.234375 15.238281zm0 0" fill="#c567ea"/><path d="m410.71875 103.058594-106.089844 106.089844 20.449219 20.65625c12.453125 12.453124 29.011719 19.3125 46.625 19.3125s34.167969-6.859376 46.621094-19.3125l57.644531-57.648438 15.234375 15.238281 21.230469-21.230469-36.917969-36.917968c-17.421875-17.425782-40.574219-26.671875-64.796875-26.1875zm0 0" fill="#a751e2"/><path d="m321.027344 202.070312c-16.035156 0-31.113282-6.246093-42.453125-17.585937-23.410157-23.40625-23.410157-61.496094 0-84.90625l63.113281-63.113281-15.234375-15.234375 21.230469-21.230469 36.917968 36.917969c34.859376 34.863281 34.859376 91.585937 0 126.445312l-21.121093 21.121094c-11.339844 11.339844-26.417969 17.585937-42.453125 17.585937zm0 0" fill="#e681fa"/><path d="m312.214844 201.429688c2.890625.421874 5.835937.640624 8.8125.640624 16.035156 0 31.113281-6.246093 42.453125-17.585937l21.121093-21.121094c16.714844-16.714843 25.390626-38.453125 26.078126-60.398437zm0 0" fill="#c567ea"/></svg>