<svg height="512pt" viewBox="0 0 512.00003 512" width="512pt" xmlns="http://www.w3.org/2000/svg"><path d="m116.550781 379.90625.355469-141.628906 30.011719.074218-.355469 141.628907zm0 0" fill="#54489b"/><path d="m116.550781 379.90625.355469-141.628906 30.011719.074218-.355469 141.628907zm0 0" fill="#54489b"/><path d="m286.285156 338.722656h-113.570312l.402344-113.292968c.117187-33.414063 13.195312-64.824219 36.820312-88.449219l100.15625-100.160157c25.535156-25.535156 60.847656-38.863281 96.894531-36.566406l98.476563 6.28125 6.277344 98.472656c2.300781 36.042969-11.027344 71.359376-36.566407 96.894532l-99.996093 100c-23.742188 23.742187-55.3125 36.820312-88.894532 36.820312zm0 0" fill="#e681fa"/><g fill="#c567ea"><path d="m270 76.914062-30.042969 30.042969v152.816407l13.121094 14.742187h149.488281l30.039063-30.039063h-162.605469zm0 0"/><path d="m327 22.664062c-5.992188 4.1875-11.660156 8.910157-16.90625 14.15625l-13.136719 13.136719v148.816407l18.121094 16.742187h146.488281l13.613282-13.613281c5.105468-5.105469 9.714843-10.609375 13.820312-16.429688h-162zm0 0"/><path d="m384 127.476562v-126.574218c-10.316406 1.242187-20.40625 3.753906-30.042969 7.449218v129.421876l13.121094 19.742187h136.773437c3.652344-9.640625 6.109376-19.730469 7.304688-30.042969h-127.15625zm0 0"/><path d="m505.464844 6.535156-332.1875 332.1875h113.007812c33.582032 0 65.152344-13.078125 88.894532-36.820312l100-100c25.535156-25.535156 38.863281-60.851563 36.566406-96.894532zm0 0"/></g><path d="m253.078125 274.515625h149.488281l30.039063-30.039063h-162.605469v-2.476562l-24.265625 24.265625zm0 0" fill="#a751e2"/><path d="m315.078125 215.515625h146.488281l13.613282-13.613281c5.105468-5.105469 9.714843-10.609375 13.820312-16.429688h-162v-.472656l-21.585938 21.585938zm0 0" fill="#a751e2"/><path d="m362.050781 149.949219 5.027344 7.566406h136.773437c3.652344-9.640625 6.109376-19.726563 7.304688-30.039063h-126.632812zm0 0" fill="#a751e2"/><path d="m21.21875 512-21.21875-21.21875 485.53125-485.53125 19.933594 1.285156 1.285156 19.933594zm0 0" fill="#fdf4f5"/><path d="m10.609375 501.390625 10.609375 10.609375 485.53125-485.53125-1.285156-19.933594zm0 0" fill="#efe2dd"/></svg>