<svg height="512pt" viewBox="-42 0 512 512.001" width="512pt" xmlns="http://www.w3.org/2000/svg"><path d="m375.835938 141.53125h-324.738282c-28.175781 0-51.097656 22.921875-51.097656 51.097656 0 28.175782 22.921875 51.097656 51.097656 51.097656h66.871094l8.464844 64.652344-36.746094 131.980469-.03125.121094c-8.144531 30.214843 9.816406 61.417969 40.03125 69.558593 4.828125 1.304688 9.804688 1.960938 14.78125 1.960938 25.542969 0 48.035156-17.203125 54.742188-41.859375l14.65625-49.59375 13.855468 49.59375c6.707032 24.652344 29.199219 41.859375 54.746094 41.859375 4.976562 0 9.949219-.65625 14.78125-1.960938 30.175781-8.128906 48.125-39.269531 40.0625-69.445312l-33.449219-132.042969 5.679688-64.824219h66.292969c28.175781 0 51.097656-22.921874 51.097656-51.097656 0-28.175781-22.921875-51.097656-51.097656-51.097656zm0 0" fill="#fabe3d"/><path d="m375.835938 141.53125h-161.972657v279.023438l.003907-.007813 13.855468 49.59375c6.707032 24.652344 29.199219 41.859375 54.742188 41.859375 4.980468 0 9.949218-.65625 14.78125-1.960938 30.175781-8.128906 48.128906-39.269531 40.0625-69.445312l-33.445313-132.042969 5.679688-64.824219h66.292969c28.175781 0 51.097656-22.921874 51.097656-51.097656 0-28.175781-22.921875-51.097656-51.097656-51.097656zm0 0" fill="#fd9126"/><path d="m213.464844 186.453125c-51.40625 0-93.226563-41.820313-93.226563-93.226563s41.820313-93.226562 93.226563-93.226562 93.230468 41.820312 93.230468 93.226562-41.824218 93.226563-93.230468 93.226563zm0 0" fill="#fdda50"/><path d="m74.789062 69.597656h139.160157v29.960938h-139.160157zm0 0" fill="#fdf4f5"/><path d="m64.261719 110.101562c-10.617188 0-20.554688-6.679687-24.171875-17.273437-2.203125-6.449219-1.765625-13.375 1.238281-19.496094 3.003906-6.117187 8.210937-10.703125 14.664063-12.90625 13.3125-4.550781 27.851562 2.582031 32.402343 15.898438 4.550781 13.320312-2.585937 27.859375-15.902343 32.40625-2.722657.929687-5.5 1.371093-8.230469 1.371093zm0 0" fill="#54489b"/><path d="m306.695312 93.226562c0-51.273437-41.609374-93.007812-92.832031-93.22265575v186.44531275c51.222657-.214844 92.832031-41.949219 92.832031-93.222657zm0 0" fill="#fabe3d"/><path d="m240.195312 288.117188 10.109376-28.199219 147.082031 52.738281-10.109375 28.199219zm0 0" fill="#fdf4f5"/><path d="m402.203125 355.824219c-14.074219 0-25.523437-11.453125-25.523437-25.523438 0-14.074219 11.449218-25.523437 25.523437-25.523437s25.523437 11.449218 25.523437 25.523437c0 14.070313-11.449218 25.523438-25.523437 25.523438zm0 0" fill="#e681fa"/></svg>