<svg height="512pt" viewBox="0 0 512 512" width="512pt" xmlns="http://www.w3.org/2000/svg"><path d="m62.132812 512-62.132812-62.132812 340.695312-338.054688 64.460938 60.605469zm0 0" fill="#e681fa"/><path d="m31.066406 480.933594 31.066406 31.066406 343.023438-339.582031-33.796875-31.777344zm0 0" fill="#c567ea"/><path d="m62.132812 512-62.132812-62.132812 50.667969-50.414063 64.191406 60.347656zm0 0" fill="#fdf4f5"/><path d="m62.132812 512 52.726563-52.199219-32.296875-30.363281-51.496094 51.496094zm0 0" fill="#efe2dd"/><path d="m388.390625 221.707031-31.921875-66.171875-66.175781-31.925781 53.070312-50.808594 9.914063-72.800781 64.722656 34.769531 72.296875-13.066406-13.066406 72.300781 34.769531 64.722656-72.800781 9.914063zm0 0" fill="#fdda50"/><path d="m388.390625 221.707031-31.921875-66.171875 133.828125-133.832031-13.066406 72.300781 34.769531 64.722656-72.800781 9.914063zm0 0" fill="#fabe3d"/></svg>