<svg height="512pt" viewBox="-14 0 512 512.00053" width="512pt" xmlns="http://www.w3.org/2000/svg"><path d="m358.394531 494.949219v-12.46875h-22.210937c-25.332032 0-45.9375-20.609375-45.9375-45.941407v-9.261718h-95.785156v9.261718c0 25.332032-20.609376 45.941407-45.941407 45.941407h-22.207031v12.464843h232.082031zm0 0" fill="#fed29a"/><path d="m336.183594 482.480469c-25.332032 0-45.941406-20.609375-45.941406-45.941407v-9.261718h-44.890626v67.667968h113.042969v-12.464843zm0 0" fill="#fabe3d"/><path d="m242.351562 445.148438c-117.007812 0-212.203124-95.195313-212.203124-212.207032v-49.273437h424.40625v49.273437c.003906 117.011719-95.191407 212.207032-212.203126 212.207032zm0 0" fill="#fabe3d"/><path d="m265.03125 195.222656-22.835938-19.453125 94.816407-111.304687 5.585937-1.71875c7.464844-2.292969 13.085938-8.761719 14.671875-16.882813 2.144531-11.023437 7.496094-21.105469 15.46875-29.152343 19.648438-19.839844 51.433594-22.324219 73.933594-5.785157 12.910156 9.488281 21.035156 23.445313 22.875 39.300781 1.816406 15.632813-2.992187 31.464844-13.195313 43.441407-6.347656 7.453125-14.546874 13.164062-23.707031 16.511719-7.707031 2.820312-13.167969 9.386718-14.246093 17.132812l-.804688 5.789062-51.902344 60.929688zm0 0" fill="#e681fa"/><path d="m245.351562 183.667969v261.441406c115.632813-1.613281 209.207032-96.160156 209.207032-212.167969v-49.273437zm0 0" fill="#fd9126"/><path d="m104.363281 482h275.980469v30h-275.980469zm0 0" fill="#fabe3d"/><path d="m245.351562 482h134.992188v30h-134.992188zm0 0" fill="#fd9126"/><path d="m454.53125 234.941406c.007812-.664062.023438-1.332031.023438-2v-49.273437h-424.40625v49.273437c0 .671875.019531 1.335938.023437 2zm0 0" fill="#54489b"/><path d="m245.351562 183.667969v51.273437h209.179688c.007812-.664062.023438-1.332031.023438-2v-49.273437zm0 0" fill="#39306b"/><path d="m0 168.667969h484.707031v30h-484.707031zm0 0" fill="#fed29a"/><path d="m245.351562 168.667969h239.351563v30h-239.351563zm0 0" fill="#fabe3d"/></svg>