<svg height="512pt" viewBox="0 0 512 512" width="512pt" xmlns="http://www.w3.org/2000/svg"><path d="m508.28125 321.238281c-4.800781-11.222656-13.617188-19.804687-24.828125-24.171875-10.996094-4.285156-22.984375-3.96875-33.75.886719l-99.015625 44.652344c-6.0625-13.292969-18.34375-23.234375-33.675781-25.566407l-113.546875-17.269531c-30.722656-4.675781-62.410156 5.714844-84.785156 27.785157l-39.109376 37.730468v131.070313h15.507813l.695313.859375 81.996093-66.234375 143.257813 26.519531 164.550781-76.769531c22.257813-10.046875 32.441406-36.734375 22.703125-59.492188zm0 0" fill="#fcced3"/><path d="m310.578125 407.023438c-2.203125 0-4.421875-.164063-6.640625-.503907l-106.96875-16.269531 3.8125-25.0625 106.964844 16.269531c4.945312.753907 9.890625-.53125 13.921875-3.621093 4.308593-3.292969 7.027343-8.160157 7.65625-13.703126 1.230469-10.792968-5.851563-20.46875-16.125-22.03125l-113.542969-17.269531c-23.21875-3.53125-46.257812 4.054688-63.214844 20.8125l-.109375.105469-56.761719 53.445312v-33.910156l39.109376-37.730468c22.375-22.070313 54.0625-32.457032 84.785156-27.785157l113.546875 17.269531c23.804687 3.621094 40.277343 25.566407 37.5 49.960938-1.398438 12.269531-7.753907 23.554688-17.4375 30.96875-7.757813 5.9375-16.976563 9.054688-26.496094 9.054688zm0 0" fill="#f9a7b0"/><path d="m508.28125 321.238281c-4.800781-11.222656-13.617188-19.804687-24.828125-24.171875-10.996094-4.285156-22.984375-3.96875-33.75.886719l-99.015625 44.652344c-5.523438-12.109375-16.210938-21.414063-29.660156-24.742188v139.632813l164.550781-76.765625c22.257813-10.046875 32.441406-36.734375 22.703125-59.492188zm0 0" fill="#fbc0c8"/><path d="m321.027344 317.847656v27.367188c5.78125 4.011718 9.179687 11.175781 8.296875 18.917968-.632813 5.542969-3.351563 10.410157-7.65625 13.707032-.207031.15625-.425781.289062-.640625.4375v27.464844c5.734375-1.433594 11.179687-4.046876 16.046875-7.773438 9.683593-7.410156 16.039062-18.699219 17.4375-30.96875 2.617187-22.996094-11.871094-43.808594-33.484375-49.152344zm0 0" fill="#f68b98"/><path d="m119.308594 512h-119.308594v-211.792969h119.308594zm0 0" fill="#54489b"/><path d="m339.472656 278.792969c-1.742187 0-29.84375-.375-32.507812-.191407-28.164063 1.984376-55.410156-12.628906-69.417969-37.207031-36.8125-64.617187-1.761719-137.757812-.253906-140.839843l7.917969-16.15625 14.476562 10.679687c.128906.089844 1.414062 1.039063 3.617188 2.695313 18.507812-38.558594 43.269531-79.472657 44.46875-81.449219l9.902343-16.324219 13.527344 13.476562c1.265625 1.261719 31.273437 31.359376 55.53125 73.574219 33.484375 58.269531 39.425781 111.484375 17.183594 153.886719-12.117188 23.09375-37.558594 37.855469-64.445313 37.855469zm0 0" fill="#fabe3d"/><path d="m386.734375 87.050781c-24.257813-42.214843-54.265625-72.3125-55.53125-73.574219l-13.527344-13.476562-.0625.105469v278.472656c9.089844.0625 20.753907.210937 21.859375.210937 26.890625 0 52.328125-14.757812 64.445313-37.851562 22.242187-42.402344 16.300781-95.617188-17.183594-153.886719zm0 0" fill="#fd9126"/><path d="m365.835938 208.109375c-3.738282-24.539063-15.832032-49.996094-34.980469-73.617187l-13.019531-16.0625-11.242188 17.351562c-15.378906 23.734375-23.410156 46.6875-27.511719 62.382812l-18.535156-8.914062-.777344 22.992188c-.628906 18.558593 3.164063 35.183593 11.273438 49.417968 5.925781 10.402344 16.71875 17.121094 27.492187 17.121094h33.082032c8.015624 0 19.484374-8.363281 24.765624-15.871094 9.300782-13.214844 12.746094-33.1875 9.453126-54.800781zm0 0" fill="#fdda50"/><path d="m365.835938 208.109375c-3.738282-24.539063-15.832032-49.996094-34.980469-73.617187l-13.019531-16.0625-.226563.34375v160.007812h14.007813c8.015624 0 19.480468-8.367188 24.765624-15.871094 9.300782-13.214844 12.746094-33.1875 9.453126-54.800781zm0 0" fill="#fabe3d"/></svg>