<svg height="512pt" viewBox="0 0 512 512" width="512pt" xmlns="http://www.w3.org/2000/svg"><path d="m62.191406 261.59375h388.335938v147.066406h-388.335938zm0 0" fill="#54489b"/><path d="m257.035156 261.59375h193.492188v147.066406h-193.492188zm0 0" fill="#463d83"/><path d="m449.503906 224.347656h62.496094v-184.730468h-126.804688c0 84.921874 24.617188 165.929687 61.257813 183.285156zm0 0" fill="#a751e2"/><path d="m449.503906 224.617188h62.496094v184.726562h-126.804688c0-84.917969 24.617188-165.929688 61.257813-183.28125zm0 0" fill="#c567ea"/><path d="m62.496094 224.347656h-62.496094v-184.730468h126.804688c0 84.921874-24.617188 165.929687-61.257813 183.285156zm0 0" fill="#a751e2"/><path d="m62.496094 224.617188h-62.496094v184.726562h126.804688c0-84.917969-24.617188-165.929688-61.257813-183.28125zm0 0" fill="#c567ea"/><path d="m154.695312 447.003906h-102.53125v-97.273437c0-16.105469 13.058594-29.164063 29.164063-29.164063h44.203125c16.105469 0 29.164062 13.058594 29.164062 29.164063zm0 0" fill="#fda751"/><path d="m257.0625 447.003906h-102.53125v-97.273437c0-16.105469 13.058594-29.164063 29.164062-29.164063h44.203126c16.105468 0 29.164062 13.058594 29.164062 29.164063zm0 0" fill="#fd9126"/><path d="m359.429688 447.003906h-102.53125v-97.273437c0-16.105469 13.054687-29.164063 29.164062-29.164063h44.203125c16.105469 0 29.164063 13.058594 29.164063 29.164063zm0 0" fill="#fda751"/><path d="m461.796875 447.003906h-102.53125v-97.273437c0-16.105469 13.054687-29.164063 29.164063-29.164063h44.203124c16.105469 0 29.164063 13.058594 29.164063 29.164063zm0 0" fill="#fd9126"/><path d="m102.53125 512h-102.53125v-97.273438c0-16.105468 13.058594-29.164062 29.164062-29.164062h44.203126c16.105468 0 29.164062 13.058594 29.164062 29.164062zm0 0" fill="#fdda50"/><path d="m204.898438 512h-102.53125v-97.273438c0-16.105468 13.058593-29.164062 29.164062-29.164062h44.203125c16.105469 0 29.164063 13.058594 29.164063 29.164062zm0 0" fill="#fabe3d"/><path d="m307.265625 512h-102.53125v-97.273438c0-16.105468 13.058594-29.164062 29.164063-29.164062h44.203124c16.105469 0 29.164063 13.058594 29.164063 29.164062zm0 0" fill="#fdda50"/><path d="m278.101562 385.5625h-22.101562v126.4375h51.265625v-97.273438c0-16.105468-13.058594-29.164062-29.164063-29.164062zm0 0" fill="#fabe3d"/><path d="m409.632812 512h-102.53125v-97.273438c0-16.105468 13.058594-29.164062 29.164063-29.164062h44.203125c16.105469 0 29.164062 13.058594 29.164062 29.164062zm0 0" fill="#fdda50"/><path d="m512 512h-102.53125v-97.273438c0-16.105468 13.058594-29.164062 29.164062-29.164062h44.203126c16.105468 0 29.164062 13.058594 29.164062 29.164062zm0 0" fill="#fabe3d"/><path d="m51.199219 93.667969c-28.277344 0-51.199219-22.925781-51.199219-51.199219v-42.46875h102.398438v42.46875c0 28.273438-22.921876 51.199219-51.199219 51.199219zm0 0" fill="#e681fa"/><path d="m153.601562 93.667969c-28.277343 0-51.203124-22.925781-51.203124-51.199219v-42.46875h102.402343v42.46875c0 28.273438-22.921875 51.199219-51.199219 51.199219zm0 0" fill="#c567ea"/><path d="m256 93.667969c-28.277344 0-51.199219-22.925781-51.199219-51.199219v-42.46875h102.398438v42.46875c0 28.273438-22.921875 51.199219-51.199219 51.199219zm0 0" fill="#e681fa"/><path d="m256 93.667969v-93.667969h51.199219v42.46875c0 28.273438-22.921875 51.199219-51.199219 51.199219zm0 0" fill="#c567ea"/><path d="m358.398438 93.667969c-28.277344 0-51.199219-22.925781-51.199219-51.199219v-42.46875h102.402343v42.46875c0 28.273438-22.925781 51.199219-51.203124 51.199219zm0 0" fill="#e681fa"/><path d="m460.800781 93.667969c-28.277343 0-51.199219-22.925781-51.199219-51.199219v-42.46875h102.398438v42.46875c0 28.273438-22.921875 51.199219-51.199219 51.199219zm0 0" fill="#c567ea"/></svg>