<svg height="512pt" viewBox="0 0 512 512" width="512pt" xmlns="http://www.w3.org/2000/svg"><path d="m469.605469 512h-350.695313c-21.023437 0-38.066406-17.042969-38.066406-38.066406v-397.753906c0-1.261719-.3125-2.503907-.90625-3.617188l-38.738281-72.5625h375.5625c33.429687 0 60.527343 27.097656 60.527343 60.527344v443.789062c0 4.242188-3.4375 7.683594-7.683593 7.683594zm0 0" fill="#fdf4f5"/><g fill="#efe2dd"><path d="m80.589844 127.992188h-80.589844v-87.695313c0-22.257813 18.039062-40.296875 40.296875-40.296875 22.253906 0 40.292969 18.039062 40.292969 40.296875zm0 0"/><path d="m132.691406 512 .011719-.023438c21.832031-.488281 39.382813-18.324218 39.382813-40.273437v-33.484375l.253906-.476562v-33.5h339.660156v66.859374c0 22.585938-18.3125 40.898438-40.898438 40.898438zm0 0"/><path d="m416.761719 0h-131.617188v512h184.460938c4.246093 0 7.683593-3.441406 7.683593-7.683594v-443.789062c0-33.429688-27.097656-60.527344-60.527343-60.527344zm0 0"/></g><path d="m285.140625 404.242188v107.757812h185.960937c22.585938 0 40.898438-18.3125 40.898438-40.898438v-66.859374zm0 0" fill="#ccbfba"/><path d="m161.023438 270.714844h107.570312v29.882812h-107.570312zm0 0" fill="#fabe3d"/><path d="m161.023438 330.484375h107.570312v29.882813h-107.570312zm0 0" fill="#fabe3d"/><path d="m301.464844 270.714844h107.570312v29.882812h-107.570312zm0 0" fill="#fd9126"/><path d="m301.464844 330.484375h107.570312v29.882813h-107.570312zm0 0" fill="#fd9126"/><path d="m366.773438 234.832031 10.140624-4.398437-1.238281-10.984375c-3.3125-29.351563-20.328125-54.085938-44.234375-68.179688l-.589844-1.011719c-.304687-28.324218-14-55.253906-36.785156-72.191406l-8.914062-6.628906-8.914063 6.628906c-22.785156 16.9375-36.480469 43.867188-36.789062 72.191406l-.585938 1.011719c-23.910156 14.09375-40.925781 38.828125-44.234375 68.179688l-1.242187 10.984375 10.140625 4.398437c11.46875 4.976563 23.660156 7.496094 36.230468 7.496094 16.230469 0 31.539063-4.257813 44.8125-11.753906h1.160157c13.277343 7.496093 28.582031 11.753906 44.816406 11.753906 12.570313 0 24.757813-2.519531 36.226563-7.496094zm-127.015626-22.386719c-4.398437 0-8.722656-.457031-12.941406-1.363281 3.488282-10.976562 9.964844-20.53125 18.429688-27.796875 3.535156 9.441406 8.574218 18.097656 14.820312 25.707032-6.371094 2.234374-13.207031 3.453124-20.308594 3.453124zm45.394532-19.554687c-8.65625-8.246094-13.527344-23.453125-13.527344-23.453125 16.765625-3.859375 27.050781 0 27.050781 0-3.488281 12.996094-13.523437 23.453125-13.523437 23.453125zm14.792968-52.914063c-14.792968-2.75-29.585937 0-29.585937 0 .007813-.042968.019531-.085937.03125-.132812-.011719.003906-.019531.003906-.03125.007812 1.683594-9.074218 5.375-17.550781 10.8125-24.910156 2.285156-3.59375 3.980469-5.714844 3.980469-5.714844 1.945312 2.222657 3.710937 4.832032 5.296875 7.574219 4.71875 6.910157 7.953125 14.730469 9.496093 23.050781-.011718-.003906-.023437-.003906-.039062-.007812.023438.078125.039062.132812.039062.132812zm25.113282 43.3125c8.464844 7.261719 14.9375 16.816407 18.425781 27.792969-4.21875.910157-8.542969 1.367188-12.9375 1.367188-7.105469 0-13.9375-1.222657-20.308594-3.457031 6.242188-7.609376 11.285157-16.265626 14.820313-25.703126zm0 0" fill="#fabe3d"/><path d="m375.675781 219.449219c-3.3125-29.351563-20.328125-54.085938-44.234375-68.179688l-.589844-1.011719c-.304687-28.324218-14-55.253906-36.785156-72.191406l-8.914062-6.628906-.152344.113281v37.871094c.089844-.113281.152344-.195313.152344-.195313 1.945312 2.222657 3.710937 4.832032 5.296875 7.574219 4.71875 6.910157 7.949219 14.730469 9.492187 23.050781-.011718-.003906-.023437-.003906-.035156-.007812.023438.078125.035156.132812.035156.132812-5.195312-.964843-10.386718-1.25-14.941406-1.21875v28.976563c8.6875-.167969 13.675781 1.703125 13.675781 1.703125-3.488281 12.996094-13.527343 23.453125-13.527343 23.453125-.050782-.050781-.097657-.101563-.148438-.152344v37.832031h.730469c13.277343 7.496094 28.582031 11.757813 44.8125 11.757813 12.570312 0 24.761719-2.519531 36.230469-7.496094l10.140624-4.398437zm-45.128906-7.003907c-7.105469 0-13.9375-1.21875-20.308594-3.453124 6.242188-7.609376 11.285157-16.265626 14.820313-25.707032 8.464844 7.265625 14.9375 16.820313 18.425781 27.796875-4.21875.90625-8.542969 1.363281-12.9375 1.363281zm0 0" fill="#fd9126"/></svg>