<svg height="512pt" viewBox="-45 0 512 512.00002" width="512pt" xmlns="http://www.w3.org/2000/svg"><path d="m421.046875 463.992188h-157.519531c-105.226563 0-190.835938-85.605469-190.835938-190.835938v-119.585938h129.144532s53.777343 280.476563 142.492187 280.476563h76.71875zm0 0" fill="#efe2dd"/><path d="m242.382812 448.84375h29.949219v62.3125h-29.949219zm0 0" fill="#fabe3d"/><path d="m188.714844 438.574219h29.949218v73.425781h-29.949218zm0 0" fill="#fabe3d"/><path d="m344.328125 434.046875c-88.714844 0-142.492187-280.476563-142.492187-280.476563h-71.996094v255.628907c34.457031 33.867187 81.671875 54.796875 133.6875 54.796875h157.519531v-29.949219zm0 0" fill="#ccbfba"/><path d="m340.820312 353.816406v-107.210937c0-76.324219-62.097656-138.421875-138.425781-138.421875l-45.464843 17.210937v90.140625c0 66.363282 25.84375 128.757813 72.769531 175.6875 46.929687 46.925782 109.324219 72.769532 175.6875 72.769532v-1.113282c5.117187.730469 10.34375 1.113282 15.660156 1.113282v-29.945313c-44.238281 0-80.226563-35.992187-80.226563-80.230469zm0 0" fill="#575f64"/><path d="m128.019531 176.679688c-58.964843 0-106.941406-47.972657-106.941406-106.9375v-51.308594h213.878906v51.308594c0 58.964843-47.972656 106.9375-106.9375 106.9375zm0 0" fill="#fdf4f5"/><path d="m129.839844 18.433594v158.222656c58.128906-.976562 105.117187-48.558594 105.117187-106.914062v-51.308594zm0 0" fill="#efe2dd"/><path d="m143.242188 132.164062h-29.945313c0-56.359374-45.855469-102.214843-102.21875-102.214843v-29.949219h244.75v29.949219c-61.027344 0-112.585937 46.808593-112.585937 102.214843zm0 0" fill="#7c8388"/><path d="m129.839844 0v132.164062h13.402344c0-55.402343 51.558593-102.214843 112.585937-102.214843v-29.949219zm0 0" fill="#575f64"/><path d="m0 0h257.4375v29.949219h-257.4375zm0 0" fill="#575f64"/><path d="m129.839844 0h127.597656v29.949219h-127.597656zm0 0" fill="#32393f"/></svg>