<svg height="512pt" viewBox="-56 0 511 512" width="512pt" xmlns="http://www.w3.org/2000/svg"><path d="m399.472656 0h-344.9375c-14.464844 0-28.050781 5.640625-38.265625 15.878906-10.210937 10.242188-15.808593 23.847656-15.769531 38.308594l1.171875 412.855469c.019531 24.796875 20.199219 44.957031 44.996094 44.957031h352.804687zm0 0" fill="#39306b"/><path d="m55.183594 0h344.289062v512h-344.289062zm0 0" fill="#54489b"/><path d="m230.398438 0h169.074218v512h-169.074218zm0 0" fill="#463d83"/><path d="m399.472656 167.078125h-68.097656c-33.523438 0-60.796875 27.273437-60.796875 60.796875 0 33.519531 27.273437 60.792969 60.796875 60.792969h68.097656zm0 0" fill="#39306b"/><path d="m142.070312 423.996094-86.972656-.28125v-86.601563h40.980469v43.507813h45.992187zm0 0" fill="#fdda50"/><path d="m399.472656 337.113281h-40.253906v43.507813h-45.992188v43.375l86.246094-.28125zm0 0" fill="#fabe3d"/><path d="m326.824219 242.664062c7.84375 0 15.359375-6.898437 15-15-.363281-8.125-6.589844-14.996093-15-14.996093-7.84375 0-15.359375 6.898437-15 14.996093.363281 8.128907 6.589843 15 15 15zm0 0" fill="#fdda50"/><path d="m399.472656 423.703125h-353.558594c-24.382812 0-44.148437 19.765625-44.148437 44.148437 0 24.382813 19.765625 44.148438 44.148437 44.148438h353.558594zm0 0" fill="#fdf4f5"/><path d="m230.398438 423.703125h169.074218v88.296875h-169.074218zm0 0" fill="#efe2dd"/><path d="m142.671875 0-86.972656.28125v86.601562h40.980469v-43.511718h45.992187zm0 0" fill="#fdda50"/><path d="m399.472656 86.882812v-86.605468l-85.644531-.277344v43.371094h45.992187v43.511718zm0 0" fill="#fabe3d"/></svg>