<svg height="512pt" viewBox="0 -2 512 512" width="512pt" xmlns="http://www.w3.org/2000/svg"><path d="m456.160156 0-331.476562 261.304688 35.160156 45.035156 3.988281-3.164063 49.347657 61.808594-4.660157 3.699219 33.929688 43.453125 34.546875-26.226563 2.453125-35.59375 35.25-14.621094 2.621093-38.070312 35.246094-14.621094 2.621094-38.070312 35.246094-14.621094 2.617187-38.0625 35.246094-14.621094 2.621094-38.070312 35.246093-14.621094 2.605469-37.839844 43.230469-16.871094zm0 0" fill="#efe2dd"/><path d="m456.160156 0-331.476562 261.304688 35.109375 44.96875 330.546875-263.285157zm0 0" fill="#fdf4f5"/><path d="m213.179688 364.984375-86.335938 68.503906-49.226562-61.90625 86.214843-68.40625-35.292969-44.203125-128.539062 101.460938 117.988281 148.378906 129.859375-100.402344zm0 0" fill="#9edb3d"/><path d="m163.773438 303.101562-35.234376-44.128906-128.539062 101.460938 35.59375 44.765625zm0 0" fill="#c4e945"/></svg>