<svg height="512pt" viewBox="0 0 512 512" width="512pt" xmlns="http://www.w3.org/2000/svg"><path d="m446.148438 451.511719v-241.285157l-190.160157-65.910156-190.160156 65.910156v241.285157l190.160156 60.308593zm0 0" fill="#fabe3d"/><path d="m446.148438 451.511719v-241.285157l-190.160157-65.910156v367.503906zm0 0" fill="#fd9126"/><path d="m446.148438 210.226562-190.160157-65.910156-190.160156 65.910156 190.160156 66.910157zm0 0" fill="#fdf4f5"/><path d="m446.148438 210.226562-190.160157-65.910156v132.820313zm0 0" fill="#efe2dd"/><path d="m65.828125 210.226562-65.828125 77.894532 193.738281 70.40625 62.25-81.390625zm0 0" fill="#fed29a"/><path d="m446.148438 210.226562 65.851562 77.894532-193.738281 70.40625-62.273438-81.390625zm0 0" fill="#fabe3d"/><path d="m446.148438 210.226562 65.851562 77.894532-193.738281 70.40625-62.273438-81.390625zm0 0" fill="#fabe3d"/><path d="m171 111.015625c7.847656 0 15.363281-6.898437 15-15-.363281-8.125-6.589844-15-15-15-7.847656 0-15.363281 6.898437-15 15 .363281 8.128906 6.589844 15 15 15zm0 0" fill="#c4e945"/><g fill="#e681fa"><path d="m240.925781 0h30v28.328125h-30zm0 0"/><path d="m240.925781 58.871094h30v28.152344h-30zm0 0"/><path d="m271.105469 28.511719h28.328125v30h-28.328125zm0 0"/><path d="m212.410156 28.511719h28.375v30h-28.375zm0 0"/></g><path d="m255.0625 0h15.863281v28.328125h-15.863281zm0 0" fill="#c567ea"/><path d="m255.0625 58.871094h15.863281v28.152344h-15.863281zm0 0" fill="#c567ea"/><path d="m271.105469 28.511719h28.328125v30h-28.328125zm0 0" fill="#c567ea"/><path d="m463.085938 121.773438h-17.617188v-17.613282h-30v17.613282h-17.613281v30h17.613281v17.613281h30v-17.613281h17.617188zm0 0" fill="#463d83"/><path d="m109.753906 121.773438h-17.613281v-17.613282h-30v17.613282h-17.617187v30h17.617187v17.613281h30v-17.613281h17.613281zm0 0" fill="#54489b"/><path d="m341 111.015625c7.847656 0 15.363281-6.898437 15-15-.363281-8.125-6.589844-15-15-15-7.847656 0-15.363281 6.898437-15 15 .363281 8.128906 6.589844 15 15 15zm0 0" fill="#9edb3d"/></svg>