<svg height="512pt" viewBox="0 0 512 512" width="512pt" xmlns="http://www.w3.org/2000/svg"><path d="m256 512c-68.378906 0-132.667969-26.628906-181.019531-74.980469-48.351563-48.351562-74.980469-112.640625-74.980469-181.019531s26.628906-132.667969 74.980469-181.019531c48.351562-48.351563 112.640625-74.980469 181.019531-74.980469s132.667969 26.628906 181.019531 74.980469c48.351563 48.351562 74.980469 112.640625 74.980469 181.019531s-26.628906 132.667969-74.980469 181.019531c-48.351562 48.351563-112.640625 74.980469-181.019531 74.980469zm0 0" fill="#54489b"/><path d="m437.019531 74.980469c-48.351562-48.351563-112.640625-74.980469-181.019531-74.980469v512c68.378906 0 132.667969-26.628906 181.019531-74.980469 48.351563-48.351562 74.980469-112.640625 74.980469-181.019531s-26.628906-132.667969-74.980469-181.019531zm0 0" fill="#463d83"/><path d="m256 240.898438c-7.898438 0-15.46875 6.945312-15.105469 15.101562.367188 8.183594 6.636719 15.105469 15.105469 15.105469 7.898438 0 15.46875-6.949219 15.105469-15.105469-.367188-8.183594-6.636719-15.101562-15.105469-15.101562zm0 0" fill="#fdda50"/><path d="m271.105469 256c-.367188-8.183594-6.636719-15.105469-15.105469-15.105469v30.207031c7.898438.003907 15.46875-6.945312 15.105469-15.101562zm0 0" fill="#fabe3d"/><path d="m256 63.605469c-106.085938 0-192.394531 86.308593-192.394531 192.394531s86.308593 192.394531 192.394531 192.394531 192.394531-86.308593 192.394531-192.394531-86.308593-192.394531-192.394531-192.394531zm0 331.039062-24.109375-41.757812h48.21875zm-41.550781-71.964843-37.03125-64.140626 37.03125-64.144531h83.101562l37.03125 64.144531-37.03125 64.140626zm-34.878907 0h-39.183593l19.59375-33.933594zm-19.59375-94.347657-19.589843-33.9375h39.183593zm96.023438-105.902343 24.109375 41.757812h-48.21875zm76.429688 71.964843h39.183593l-19.59375 33.9375zm19.59375 94.351563 19.589843 33.933594h-39.183593zm17.4375-30.207032 36.757812-63.664062c7.710938 18.875 11.96875 39.511719 11.96875 61.125 0 22.742188-4.710938 44.402344-13.199219 64.066406zm20.160156-94.351562h-74.632813l-39.984375-69.257812c47.476563 5.566406 88.742188 31.714843 114.617188 69.257812zm-152.625-69.257812-39.984375 69.257812h-74.632813c25.875-37.542969 67.140625-63.691406 114.617188-69.257812zm-131.214844 99.945312 36.757812 63.664062-35.523437 61.527344c-8.488281-19.664062-13.203125-41.324218-13.203125-64.066406 0-21.613281 4.261719-42.25 11.96875-61.125zm20.226562 158.011719h71.003907l36.824219 63.78125c-43.988282-6.039063-82.414063-29.773438-107.828126-63.78125zm152.15625 63.78125 36.824219-63.78125h71.003907c-25.414063 34.007812-63.839844 57.742187-107.828126 63.78125zm0 0" fill="#fdda50"/><path d="m256 63.605469v58.824219l24.109375 41.757812h-24.109375v30.207031h41.550781l37.03125 64.140625-37.03125 64.144532h-41.550781v30.207031h24.109375l-24.109375 41.757812v53.75c106.085938 0 192.394531-86.308593 192.394531-192.394531s-86.308593-192.394531-192.394531-192.394531zm19.003906 31.324219c47.472656 5.566406 88.742188 31.714843 114.617188 69.257812h-74.632813zm57.425782 99.464843h39.183593l-19.59375 33.9375zm19.59375 94.351563 19.589843 33.933594h-39.183593zm-73.859376 127.921875 36.824219-63.78125h71.003907c-25.414063 34.007812-63.839844 57.742187-107.828126 63.78125zm91.296876-158.128907 36.757812-63.664062c7.710938 18.875 11.96875 39.511719 11.96875 61.125 0 22.742188-4.710938 44.402344-13.199219 64.066406zm0 0" fill="#fabe3d"/></svg>