<svg height="512pt" viewBox="0 0 512 512" width="512pt" xmlns="http://www.w3.org/2000/svg"><path d="m241 461.578125h30v50.421875h-30zm0 0" fill="#fdf4f5"/><path d="m461.578125 241h50.421875v30h-50.421875zm0 0" fill="#efe2dd"/><path d="m0 241h50.421875v30h-50.421875zm0 0" fill="#fdf4f5"/><path d="m241 0h30v50.421875h-30zm0 0" fill="#fdf4f5"/><path d="m255.96875 461.578125h15.03125v50.421875h-15.03125zm0 0" fill="#efe2dd"/><path d="m255.96875 0h15.03125v50.421875h-15.03125zm0 0" fill="#efe2dd"/><path d="m111.421875 467.777344 25.945313-43.238282 25.722656 15.433594-25.941406 43.238282zm0 0" fill="#fdf4f5"/><path d="m424.589844 374.636719 15.441406-25.722657 43.234375 25.945313-15.4375 25.726563zm0 0" fill="#efe2dd"/><path d="m28.777344 137.140625 15.4375-25.726563 43.238281 25.949219-15.4375 25.722657zm0 0" fill="#fdf4f5"/><path d="m348.910156 71.996094 25.941406-43.238282 25.722657 15.433594-25.941407 43.238282zm0 0" fill="#efe2dd"/><path d="m24.796875 366.925781 44.105469-24.4375 14.539062 26.242188-44.105468 24.433593zm0 0" fill="#fdf4f5"/><path d="m342.488281 443.082031 26.242188-14.539062 24.433593 44.105469-26.238281 14.539062zm0 0" fill="#efe2dd"/><path d="m118.816406 39.335938 26.242188-14.539063 24.433594 44.105469-26.242188 14.539062zm0 0" fill="#fdf4f5"/><path d="m428.539062 143.25 44.105469-24.433594 14.539063 26.238282-44.105469 24.4375zm0 0" fill="#efe2dd"/><path d="m255.96875 404.949219-159.023438-166.886719 57.558594-85.363281h202.929688l57.558594 85.363281zm0 0" fill="#e681fa"/><path d="m255.96875 404.949219v-252.25h101.464844l57.558594 85.363281zm0 0" fill="#c567ea"/><path d="m255.96875 404.949219-159.023438-166.886719h318.046876zm0 0" fill="#c567ea"/><path d="m255.96875 404.949219v-166.886719h159.023438zm0 0" fill="#a751e2"/><path d="m255.96875 404.949219-55.078125-166.886719h110.15625zm0 0" fill="#e681fa"/><path d="m255.96875 404.949219v-166.886719h55.078125zm0 0" fill="#c567ea"/><path d="m200.890625 238.0625h110.15625l-55.078125-85.398438zm0 0" fill="#c567ea"/><path d="m255.96875 238.0625h55.078125l-55.078125-85.398438zm0 0" fill="#a751e2"/><path d="m154.503906 152.699219-57.558594 85.363281h103.925782zm0 0" fill="#a751e2"/><path d="m357.453125 152.699219 57.5625 85.363281h-103.929687zm0 0" fill="#e681fa"/></svg>