<svg height="512pt" viewBox="-162 0 512 512" width="512pt" xmlns="http://www.w3.org/2000/svg"><path d="m59.511719 512h-32.5625v-223.171875h134.226562v121.511719c0 56.054687-45.605469 101.660156-101.664062 101.660156zm0 0" fill="#c4e945"/><path d="m93.679688 288.828125v217.257813c39.300781-14.066407 67.496093-51.671876 67.496093-95.746094v-121.511719zm0 0" fill="#9edb3d"/><path d="m161.175781 303.917969h-134.226562v-184.78125c0-65.691407 53.445312-119.136719 119.136719-119.136719h15.089843zm0 0" fill="#fdf4f5"/><path d="m146.085938 0c-18.796876 0-36.582032 4.382812-52.40625 12.164062v291.753907h67.496093v-303.917969zm0 0" fill="#efe2dd"/><path d="m78.972656 225.664062h30.179688v81.097657h-30.179688zm0 0" fill="#efe2dd"/><path d="m93.679688 225.664062h15.472656v81.097657h-15.472656zm0 0" fill="#ccbfba"/><path d="m26.949219 306.703125h134.226562v52.132813h-134.226562zm0 0" fill="#fdda50"/><path d="m93.679688 306.703125h67.496093v52.132813h-67.496093zm0 0" fill="#fabe3d"/><path d="m0 291.671875h188.125v30.179687h-188.125zm0 0" fill="#9edb3d"/><path d="m93.679688 291.671875h94.445312v30.179687h-94.445312zm0 0" fill="#69ba30"/></svg>