<svg height="512pt" viewBox="-1 0 511 512" width="512pt" xmlns="http://www.w3.org/2000/svg"><path d="m240.597656 512h-240.097656v-240.097656h240.097656zm0 0" fill="#fdf4f5"/><path d="m119.8125 271.902344h120.785156v240.097656h-120.785156zm0 0" fill="#efe2dd"/><path d="m339.351562 339.550781-169.773437-169.777343 169.773437-169.773438 169.777344 169.773438zm0 0" fill="#fdf4f5"/><g fill="#575f64"><path d="m56.257812 347.511719c9.375 0 18.355469-8.242188 17.921876-17.921875-.4375-9.707032-7.875-17.917969-17.921876-17.917969-9.371093 0-18.351562 8.238281-17.917968 17.917969.433594 9.710937 7.875 17.921875 17.917968 17.921875zm0 0"/><path d="m183.445312 474.695312c9.375 0 18.351563-8.242187 17.917969-17.917968-.433593-9.710938-7.871093-17.921875-17.917969-17.921875-9.375 0-18.351562 8.242187-17.921874 17.921875.4375 9.707031 7.875 17.917968 17.921874 17.917968zm0 0"/><path d="m183.445312 347.511719c9.375 0 18.351563-8.242188 17.917969-17.921875-.433593-9.707032-7.871093-17.917969-17.917969-17.917969-9.375 0-18.351562 8.238281-17.921874 17.917969.4375 9.710937 7.875 17.921875 17.921874 17.921875zm0 0"/><path d="m56.257812 474.695312c9.375 0 18.355469-8.242187 17.921876-17.917968-.4375-9.710938-7.875-17.921875-17.921876-17.921875-9.371093 0-18.351562 8.242187-17.917968 17.921875.433594 9.707031 7.875 17.917968 17.917968 17.917968zm0 0"/><path d="m119.53125 410.78125c9.375 0 18.351562-8.242188 17.917969-17.917969-.433594-9.710937-7.871094-17.921875-17.917969-17.921875-9.375 0-18.351562 8.242188-17.921875 17.921875.4375 9.707031 7.875 17.917969 17.921875 17.917969zm0 0"/><path d="m428.820312 190.261719c9.691407 0 18.980469-8.523438 18.53125-18.53125-.449218-10.042969-8.140624-18.535157-18.53125-18.535157-9.695312 0-18.984374 8.523438-18.535156 18.535157.449219 10.039062 8.144532 18.53125 18.535156 18.53125zm0 0"/><path d="m253.792969 190.261719c9.695312 0 18.980469-8.523438 18.53125-18.53125-.449219-10.042969-8.140625-18.535157-18.53125-18.535157-9.695313 0-18.980469 8.523438-18.53125 18.535157.449219 10.039062 8.140625 18.53125 18.53125 18.53125zm0 0"/></g><path d="m339.351562 339.550781v-339.550781l169.777344 169.773438zm0 0" fill="#efe2dd"/><path d="m183.445312 474.695312c9.375 0 18.351563-8.242187 17.917969-17.917968-.433593-9.710938-7.871093-17.921875-17.917969-17.921875-9.375 0-18.351562 8.242187-17.921874 17.921875.4375 9.707031 7.875 17.917968 17.921874 17.917968zm0 0" fill="#32393f"/><path d="m183.445312 347.511719c9.375 0 18.351563-8.242188 17.917969-17.921875-.433593-9.707032-7.871093-17.917969-17.917969-17.917969-9.375 0-18.351562 8.238281-17.921874 17.917969.4375 9.710937 7.875 17.921875 17.921874 17.921875zm0 0" fill="#32393f"/><path d="m428.820312 190.261719c9.691407 0 18.980469-8.523438 18.53125-18.53125-.449218-10.042969-8.140624-18.535157-18.53125-18.535157-9.695312 0-18.984374 8.523438-18.535156 18.535157.449219 10.039062 8.144532 18.53125 18.535156 18.53125zm0 0" fill="#32393f"/><path d="m137.449219 392.863281c-.429688-9.617187-7.734375-17.753906-17.636719-17.90625v35.808594c9.273438-.164063 18.066406-8.324219 17.636719-17.902344zm0 0" fill="#32393f"/></svg>