<svg height="512pt" viewBox="0 -52 512 512" width="512pt" xmlns="http://www.w3.org/2000/svg"><path d="m512 408.664062h-512v-257.195312h512zm0 0" fill="#fdda50"/><path d="m512 181.46875h-512v-65.777344c0-63.792968 51.898438-115.691406 115.691406-115.691406h280.617188c63.792968 0 115.691406 51.898438 115.691406 115.691406zm0 0" fill="#fabe3d"/><path d="m100.691406 0v408.664062h85.277344v-408.664062zm55.277344 30v45.734375h-25.277344v-45.734375zm-25.277344 197.199219v-46.035157h25.277344v46.035157zm25.277344 30v45.734375h-25.277344v-45.734375zm-25.277344-106.035157v-45.429687h25.277344v45.429687zm0 227.5v-45.730468h25.277344v45.730468zm0 0" fill="#54489b"/><path d="m256 151.46875h256v257.195312h-256zm0 0" fill="#fabe3d"/><path d="m512 115.691406c0-63.792968-51.898438-115.691406-115.691406-115.691406h-140.308594v181.46875h256zm0 0" fill="#fd9126"/><path d="m324.179688 0v408.664062h85.277343v-408.664062zm55.277343 30v45.734375h-25.277343v-45.734375zm-25.277343 197.199219v-46.035157h25.277343v46.035157zm25.277343 30v45.734375h-25.277343v-45.734375zm-25.277343-106.035157v-45.429687h25.277343v45.429687zm0 227.5v-45.730468h25.277343v45.730468zm0 0" fill="#463d83"/><path d="m271 265.871094v-54.066406h-30v54.066406c-4.082031 3.9375-6.632812 9.457031-6.632812 15.566406 0 11.925781 9.703124 21.628906 21.632812 21.628906s21.632812-9.703125 21.632812-21.628906c0-6.109375-2.550781-11.628906-6.632812-15.566406zm0 0" fill="#e681fa"/><path d="m271 265.871094v-54.066406h-15v91.261718c11.929688 0 21.632812-9.703125 21.632812-21.628906 0-6.109375-2.550781-11.628906-6.632812-15.566406zm0 0" fill="#c567ea"/><path d="m214 181.539062h84v45.265626h-84zm0 0" fill="#54489b"/><path d="m256 181.539062h42v45.265626h-42zm0 0" fill="#463d83"/></svg>