<svg height="512pt" viewBox="-24 0 512 512" width="512pt" xmlns="http://www.w3.org/2000/svg"><path d="m464.304688 512h-464.304688v-37.835938c0-79.007812 64.277344-143.285156 143.285156-143.285156h177.734375c79.007813 0 143.285157 64.277344 143.285157 143.285156zm0 0" fill="#54489b"/><path d="m464.304688 474.164062c0-79.007812-64.277344-143.285156-143.285157-143.285156h-88.867187v181.121094h232.152344zm0 0" fill="#463d83"/><path d="m386.472656 346.726562c-9.003906-4.644531-18.566406-8.355468-28.546875-11.019531-11.78125-3.144531-24.148437-4.828125-36.90625-4.828125h-177.734375c-13.4375 0-26.449218 1.863282-38.789062 5.339844-9.929688 2.796875-19.425782 6.644531-28.359375 11.402344l38.738281 59.152344h-28.039062l90.035156 105.226562h109l88.003906-105.226562h-28.042969zm0 0" fill="#e681fa"/><path d="m386.472656 346.726562c-9.003906-4.644531-18.566406-8.355468-28.546875-11.019531-11.78125-3.144531-24.148437-4.828125-36.90625-4.828125h-88.867187v181.121094h53.714844l88.007812-105.226562h-28.042969zm0 0" fill="#c567ea"/><path d="m232.152344 481.257812-88.867188-150.378906h177.734375zm0 0" fill="#f9a7b0"/><path d="m232.152344 330.878906v150.378906l88.867187-150.378906zm0 0" fill="#f68b98"/><path d="m231.503906 371.230469c-67.121094 0-121.730468-54.605469-121.730468-121.730469 0-25.011719 7.53125-49.042969 21.78125-69.5l201.3125.128906c13.136718 19.277344 20.367187 43.914063 20.367187 69.371094.003906 67.121094-54.605469 121.730469-121.730469 121.730469zm0 0" fill="#fcced3"/><path d="m353.238281 249.5c0-25.457031-7.234375-50.09375-20.367187-69.371094l-100.71875-.066406v191.160156c66.824218-.351562 121.085937-54.816406 121.085937-121.722656zm0 0" fill="#f9a7b0"/><path d="m128.84375 0h206.621094v178.082031h-206.621094zm0 0" fill="#54489b"/><path d="m232.152344 0h103.3125v178.082031h-103.3125zm0 0" fill="#463d83"/><path d="m128.84375 123.3125h206.621094v54.769531h-206.621094zm0 0" fill="#fdf4f5"/><path d="m232.152344 123.3125h103.3125v54.769531h-103.3125zm0 0" fill="#efe2dd"/><path d="m92.667969 163.136719h278.972656v29.890625h-278.972656zm0 0" fill="#54489b"/><path d="m232.152344 163.136719h139.484375v29.890625h-139.484375zm0 0" fill="#39306b"/></svg>