<svg height="512pt" viewBox="0 0 512 512" width="512pt" xmlns="http://www.w3.org/2000/svg"><path d="m392.3125 176.570312-51.738281-51.34375 13.25-103.480468 69.304687-21.746094 88.871094 93.425781-17.160156 69.167969-89.550782 12.140625zm0 0" fill="#e681fa"/><path d="m392.3125 176.570312-28.023438-28.003906 60.722657-55.632812 45.988281-42.65625 41 43.148437-17.160156 69.167969-89.550782 12.140625zm0 0" fill="#c567ea"/><path d="m425.011719 92.933594-1.882813-92.933594 88.871094 93.425781zm0 0" fill="#c567ea"/><path d="m425.011719 92.933594 45.300781-43.386719 41.6875 43.878906zm0 0" fill="#e681fa"/><path d="m392.703125 176.523438-52.953125-52.914063 14.027344-101.828125 141.015625 140.847656-89.507813 12.101563zm0 0" fill="#c567ea"/><path d="m392.75 176.488281-28.75-27.875 61.011719-55.679687 69.828125 69.660156-89.554688 12.140625zm0 0" fill="#a751e2"/><path d="m405.289062 174.734375-63.78125-64.128906 83.503907-17.671875zm0 0" fill="#e681fa"/><path d="m405.289062 174.734375-33.363281-33.617187 53.085938-48.183594zm0 0" fill="#c567ea"/><path d="m160.402344 127.609375c5.546875 5.546875 15.742187 5.984375 21.210937 0 5.492188-6.003906 5.949219-15.265625 0-21.210937-5.546875-5.546876-15.738281-5.984376-21.210937 0-5.488282 6.003906-5.945313 15.265624 0 21.210937zm0 0" fill="#c4e945"/><path d="m160.402344 127.609375c5.546875 5.546875 15.742187 5.984375 21.210937 0 5.492188-6.003906 5.949219-15.265625 0-21.210937zm0 0" fill="#9edb3d"/><path d="m240.925781 0h29.996094v28.328125h-29.996094zm0 0" fill="#463d83"/><path d="m240.925781 58.867188h29.996094v28.148437h-29.996094zm0 0" fill="#39306b"/><path d="m271.105469 28.507812h28.324219v30h-28.324219zm0 0" fill="#39306b"/><path d="m212.417969 28.507812h28.367187v30h-28.367187zm0 0" fill="#463d83"/><path d="m62.046875 511.390625-62.046875-62.046875 341.507812-338.738281 63.78125 64.128906zm0 0" fill="#fdf4f5"/><path d="m31.328125 480.671875 30.71875 30.71875 343.242187-336.65625-33.886718-34.136719zm0 0" fill="#efe2dd"/><path d="m115.035156 458.945312-62.09375-62.148437 288.589844-286.34375 63.414062 63.941406zm0 0" fill="#7c8388"/><path d="m84.0625 427.9375 31.207031 31.253906 290.019531-284.457031-33.886718-34.136719zm0 0" fill="#575f64"/><path d="m360.808594 218.1875-63.871094-64.066406 44.59375-43.667969 63.757812 64.28125zm0 0" fill="#575f64"/><path d="m327.355469 184.648438 33.539062 33.617187 44.394531-43.53125-33.367187-33.617187zm0 0" fill="#32393f"/></svg>