<svg height="512pt" viewBox="-106 0 512 512" width="512pt" xmlns="http://www.w3.org/2000/svg"><path d="m149.867188 512-106.726563-88.59375-43.140625-303.328125 149.867188-120.078125 149.867187 120.078125-43.140625 303.328125zm0 0" fill="#c4e945"/><path d="m149.867188 512v-512l149.867187 120.078125-43.140625 303.328125zm0 0" fill="#9edb3d"/><path d="m149.867188 512-43.539063-88.59375-17.601563-303.328125 61.140626-120.078125 61.140624 120.078125-17.601562 303.328125zm0 0" fill="#9edb3d"/><path d="m149.867188 512v-512l61.140624 120.078125-17.601562 303.328125zm0 0" fill="#c4e945"/><path d="m299.734375 120.078125-149.867187-120.078125-149.867188 120.078125 90.636719 32.429687h118.550781zm0 0" fill="#9edb3d"/><path d="m43.492188 423.699219 106.375 88.300781 106.375-88.300781-61.554688-21.164063-89.613281-.695312zm0 0" fill="#9edb3d"/><path d="m299.734375 120.078125-149.867187-120.078125v152.507812h59.320312zm0 0" fill="#69ba30"/><path d="m149.867188 512 106.375-88.300781-61.554688-21.164063-44.820312-.382812zm0 0" fill="#69ba30"/><path d="m209.1875 152.507812-59.320312-152.507812-59.230469 152.507812zm0 0" fill="#c4e945"/><path d="m105.074219 401.835938 44.792969 110.164062 44.757812-109.507812zm0 0" fill="#c4e945"/><g fill="#9edb3d"><path d="m209.1875 152.507812-59.320312-152.507812v152.507812zm0 0"/><path d="m149.867188 402.164062v109.835938l44.820312-109.464844zm0 0"/></g></svg>