<svg height="512pt" viewBox="0 0 512 512" width="512pt" xmlns="http://www.w3.org/2000/svg"><path d="m448.519531 381.0625c-18.429687 0-33.421875-14.992188-33.421875-33.421875v-4.101563c0-18.429687 14.992188-33.421874 33.421875-33.421874h45.851563v-30.058594h-45.851563c-35.003906 0-63.480469 28.476562-63.480469 63.480468v4.101563c0 35.003906 28.476563 63.480469 63.480469 63.480469 18.429688 0 33.421875 14.996094 33.421875 33.421875v3.933593c0 18.425782-14.992187 33.417969-33.421875 33.417969h-77.910156v-44.402343c0-66.257813-24.835937-129.476563-69.929687-178.015626l-84.664063-91.128906v-28.101562c0-24.230469-8.984375-47.71875-25.292969-66.140625-13.902344-15.699219-31.792968-26.1875-51.265625-30.234375-.246093-.867188-.507812-1.710938-.746093-2.554688-18.140626-63.238281-82.347657-35.058594-82.347657-35.058594l4.867188 51.304688s-10.984375 9.542969-15.214844 14.332031c-4.851563 5.496094-13.066406 14.703125-27.660156 44.117188-8.222657 16.566406-14.34375 31.578125-14.601563 32.207031l-3.753906 9.238281 29.085938 29.085938c.789062.789062 1.546874 1.554687 2.277343 2.292969 10.257813 10.347656 19.113281 19.285156 39.789063 19.285156h2.132812v27.328125c0 13.855469 2.21875 27.542969 6.601563 40.683593l23.457031 70.375v135.34375h-50.199219l-.003906 30.058594 395.378906.046875c35.003907 0 63.480469-28.476562 63.480469-63.480469v-3.929687c0-35.003906-28.476562-63.484375-63.480469-63.484375zm0 0" fill="#7c8388"/><path d="m448.519531 381.0625c-18.429687 0-33.421875-14.992188-33.421875-33.421875v-4.101563c0-18.429687 14.992188-33.421874 33.421875-33.421874h45.851563v-30.058594h-45.851563c-35.003906 0-63.480469 28.476562-63.480469 63.480468v4.101563c0 35.003906 28.476563 63.480469 63.480469 63.480469 18.429688 0 33.421875 14.996094 33.421875 33.421875v3.933593c0 18.425782-14.992187 33.417969-33.421875 33.417969h-77.910156v-44.402343c0-66.257813-24.835937-129.476563-69.929687-178.015626l-36.140626-38.898437v291.359375l183.980469.019531c35.003907 0 63.480469-28.476562 63.480469-63.480469v-3.929687c0-35.003906-28.476562-63.484375-63.480469-63.484375zm0 0" fill="#575f64"/><path d="m262.933594 330.179688c-56.863282 0-103.125 46.257812-103.125 103.121093v47.644531h30.0625v-47.644531c0-40.285156 32.777344-73.0625 73.0625-73.0625h21.980468v-30.058593zm0 0" fill="#575f64"/><path d="m264.539062 330.179688h20.375v30.058593h-20.375zm0 0" fill="#32393f"/></svg>