<svg height="512pt" viewBox="0 0 512 512" width="512pt" xmlns="http://www.w3.org/2000/svg"><path d="m446.148438 451.40625v-385.496094l-190.160157-65.910156-190.160156 65.910156v385.496094l190.160156 60.3125zm0 0" fill="#c567ea"/><path d="m446.148438 451.40625v-385.496094l-190.160157-65.910156v511.71875zm0 0" fill="#a751e2"/><path d="m446.148438 65.910156-190.160157-65.910156-190.160156 65.910156 190.160156 66.910156zm0 0" fill="#fdf4f5"/><path d="m446.148438 65.910156-190.160157-65.910156v132.820312zm0 0" fill="#efe2dd"/><path d="m65.828125 65.910156-65.828125 77.898438 193.738281 70.402344 62.25-81.390626zm0 0" fill="#e681fa"/><path d="m446.148438 65.910156 65.851562 77.898438-193.738281 70.402344-62.273438-81.390626zm0 0" fill="#fabe3d"/><path d="m446.148438 65.910156 65.851562 77.898438-193.738281 70.402344-62.273438-81.390626zm0 0" fill="#c567ea"/><path d="m204.410156 300.398438-21.292968-7.65625-21.296876 7.65625.703126-22.617188-13.859376-17.882812 21.726563-6.324219 12.726563-18.707031 12.726562 18.707031 21.722656 6.324219-13.855468 17.882812zm0 0" fill="#fdda50"/><path d="m155.414062 416.265625-14-17.777344-22.113281-4.789062 12.578125-18.808594-2.28125-22.511719 21.777344 6.152344 20.707031-9.125.878907 22.613281 15.074218 16.875-21.230468 7.820313zm0 0" fill="#fdda50"/><g fill="#fabe3d"><path d="m360.695312 300.832031-14-17.777343-22.117187-4.789063 12.582031-18.808594-2.273437-22.515625 21.769531 6.15625 20.710938-9.128906.875 22.617188 15.078124 16.871093-21.234374 7.824219zm0 0"/><path d="m341.4375 416.265625-14-17.777344-22.117188-4.789062 12.582032-18.808594-2.273438-22.511719 21.773438 6.152344 20.707031-9.128906.875 22.617187 15.082031 16.875-21.238281 7.820313zm0 0"/></g></svg>