<svg height="512pt" viewBox="0 -1 512 512" width="512pt" xmlns="http://www.w3.org/2000/svg"><path d="m212.78125 393.828125h88.371094v116.816406h-88.371094zm0 0" fill="#fed29a"/><path d="m256.269531 393.828125h44.882813v116.816406h-44.882813zm0 0" fill="#fabe3d"/><path d="m464.128906 408.785156h-415.714844v-77.785156l415.714844 1.726562zm0 0" fill="#fabe3d"/><path d="m464.128906 332.726562-207.859375-.863281v76.921875h207.859375zm0 0" fill="#fd9126"/><path d="m.0234375 390.359375-.0234375-333.71875s49.015625-8.421875 61.058594-9.859375l391.742187.527344c11.921875 1.410156 59.199219 10.046875 59.199219 10.046875v330.679687l-21.785156-11.175781c-76.453125-39.203125-152.640625-34.9375-181.269532-31.414063v8.785157h-105.890624v-8.523438c-51.566407-8.195312-95.988282-.476562-124.980469 7.851563-34.128907 9.800781-55.019531 22.578125-55.226563 22.703125zm0 0" fill="#e681fa"/><path d="m452.796875 47.308594-196.527344-.265625v307.1875h52.671875v-8.785157c28.628906-3.523437 104.820313-7.789062 181.269532 31.414063l21.789062 11.175781v-330.679687s-47.277344-8.636719-59.203125-10.046875zm0 0" fill="#c567ea"/><path d="m464.128906 313.378906-19.597656-6.390625c-56.5625-18.441406-126.964844-18.691406-183.730469-.648437l-5.296875 1.65625-5.238281-1.636719c-56.515625-17.964844-126.535156-17.714844-182.792969.628906l-19.601562 6.390625v-294.683594l10.339844-3.359374c30.75-9.992188 65.648437-15.2929692 100.921874-15.335938h.425782c33.378906 0 66.425781 4.710938 95.945312 13.652344 61.792969-18.710938 137.28125-18.136719 198.285156 1.683594l10.339844 3.359374zm0 0" fill="#fdf4f5"/><path d="m453.789062 15.335938c-60.75-19.738282-135.867187-20.382813-197.519531-1.910157v294.332031l4.53125-1.417968c56.765625-18.042969 127.164063-17.792969 183.726563.648437l19.601562 6.390625v-294.683594zm0 0" fill="#efe2dd"/><g fill="#c4e945"><path d="m107.953125 74.992188h105.429687v29.917968h-105.429687zm0 0"/><path d="m106.34375 133.949219h107.042969v29.921875h-107.042969zm0 0"/><path d="m106.34375 190.644531h107.042969v29.917969h-107.042969zm0 0"/></g><path d="m296.75 74.992188h107.042969v29.917968h-107.042969zm0 0" fill="#9edb3d"/><path d="m296.75 133.949219h107.042969v29.921875h-107.042969zm0 0" fill="#9edb3d"/><path d="m296.75 190.644531h107.042969v29.917969h-107.042969zm0 0" fill="#9edb3d"/></svg>