<svg height="512pt" viewBox="0 0 512.001 512" width="512pt" xmlns="http://www.w3.org/2000/svg"><path d="m285.730469 492.382812-26.050781-81.734374-61.453126.117187-25.324218 81.734375zm0 0" fill="#fabe3d"/><path d="m285.730469 492.382812-26.050781-81.734374-29.828126.058593v81.734375zm0 0" fill="#fd9126"/><path d="m136.980469 481.9375h185.992187v30.003906h-185.992187zm0 0" fill="#fed29a"/><path d="m238.34375 431.800781c-68.265625 0-123.800781-55.535156-123.800781-123.800781v-70.566406l397.457031-4.433594v19.433594h-94.292969c-30.636719 0-55.566406 24.925781-55.566406 55.566406 0 68.265625-55.535156 123.800781-123.796875 123.800781zm0 0" fill="#fed29a"/><path d="m229.851562 236.148438v195.355468c2.808594.191406 5.636719.296875 8.492188.296875 68.261719 0 123.796875-55.535156 123.796875-123.796875 0-30.640625 24.929687-55.570312 55.566406-55.570312h94.292969v-19.433594zm0 0" fill="#fabe3d"/><path d="m229.851562 481.9375h93.121094v30.003906h-93.121094zm0 0" fill="#fabe3d"/><path d="m114.542969 237.433594v57.566406h249.148437c5.871094-24.386719 27.851563-42.566406 54.015625-42.566406h94.292969v-19.433594zm0 0" fill="#e681fa"/><path d="m229.851562 236.148438v58.851562h133.839844c5.871094-24.386719 27.855469-42.566406 54.015625-42.566406h94.292969v-19.433594zm0 0" fill="#c567ea"/><path d="m214.800781 111.421875h30v48.863281h-30zm0 0" fill="#fed29a"/><path d="m229.851562 111.421875h14.949219v48.863281h-14.949219zm0 0" fill="#fabe3d"/><path d="m46.878906 252.433594h465.121094v-30h-171.042969c-17.121093-45.949219-61.265625-77.148438-111.15625-77.148438-49.886719 0-94.035156 31.195313-111.15625 77.148438h-71.765625c-25.847656 0-46.878906 21.03125-46.878906 46.878906v45.824219c0 23.3125 18.964844 42.273437 42.273438 42.273437 23.308593 0 42.273437-18.964844 42.273437-42.273437v-32.722657h-30v32.722657c0 6.769531-5.503906 12.273437-12.273437 12.273437-6.769532 0-12.273438-5.503906-12.273438-12.273437v-45.824219c0-9.304688 7.570312-16.878906 16.878906-16.878906zm0 0" fill="#fabe3d"/><path d="m512 222.433594h-171.042969c-17.113281-45.9375-61.238281-77.125-111.105469-77.148438v107.148438h282.148438zm0 0" fill="#fd9126"/><path d="m398.988281 183.019531h-30c0-34.742187 28.265625-63.003906 63.003907-63.003906h29.003906c11.582031 0 21.003906-9.425781 21.003906-21.003906 0-11.582031-9.421875-21.003907-21.003906-21.003907h-110.011719c-34.738281 0-63.003906-28.265624-63.003906-63.003906v-15.003906h30v15c0 18.199219 14.804687 33.007812 33.003906 33.007812h110.011719c28.125 0 51.003906 22.878907 51.003906 51 0 28.125-22.878906 51.003907-51.003906 51.003907h-29.003906c-18.199219.003906-33.003907 14.808593-33.003907 33.007812zm0 0" fill="#efe2dd"/></svg>