<svg height="512pt" viewBox="0 0 512 512.001" width="512pt" xmlns="http://www.w3.org/2000/svg"><path d="m407.921875 451.847656h-304.082031l58.363281-351.617187c9.589844-57.761719 59.042969-99.851563 117.589844-100.078125 25.945312-.1015628 54.4375-.152344 84.6875-.152344h.136719l81.765624.746094c3.175782-.261719 6.375-.394532 9.585938-.394532h14.945312l.0625 30.570313-23.398437-.210937c-21.738281 2.109374-42.046875 12.351562-56.679687 28.820312-16.507813 18.578125-24.296876 43.382812-21.375 68.058594zm0 0" fill="#54489b"/><path d="m447.578125 30.710938 23.394531.214843-.058594-30.574219h-14.945312c-3.210938 0-6.414062.132813-9.585938.394532l-81.765624-.746094h-.136719c-30.25 0-58.742188.0507812-84.6875.152344-8.632813.035156-17.066407.984375-25.207031 2.753906v448.941406h153.335937l-38.398437-324.257812c-2.921876-24.675782 4.867187-49.480469 21.375-68.058594 14.632812-16.46875 34.941406-26.710938 56.679687-28.820312zm0 0" fill="#463d83"/><path d="m124.515625 327.300781-20.675781 124.546875h304.082031l-14.75-124.546875zm0 0" fill="#7c8388"/><path d="m254.585938 451.847656h153.335937l-14.75-124.546875h-138.585937zm0 0" fill="#575f64"/><path d="m341.382812 356.945312h-22.15625v-49.609374h-127.285156v127.292968h127.285156v-47.734375h22.15625zm-52.105468 47.230469h-67.386719v-66.890625h67.386719v19.65625h-21.023438v29.953125h21.023438zm0 0" fill="#fdda50"/><path d="m319.226562 356.945312v-49.613281h-64.640624v29.953125h34.691406v19.660156h-21.023438v29.949219h21.023438v17.28125h-34.691406v30.449219h64.640624v-47.730469h22.15625v-29.949219zm0 0" fill="#fabe3d"/><path d="m511.167969 512h-511.167969v-30.234375c0-32.875 26.746094-59.625 59.621094-59.625h391.925781c32.875 0 59.621094 26.75 59.621094 59.625zm0 0" fill="#463d83"/><path d="m451.546875 422.144531h-196.960937v89.855469h256.582031v-30.234375c0-32.875-26.746094-59.621094-59.621094-59.621094zm0 0" fill="#39306b"/></svg>