<svg height="512pt" viewBox="-112 0 512 512.00001" width="512pt" xmlns="http://www.w3.org/2000/svg"><path d="m128.828125 138.28125h29.960937v50.195312h-29.960937zm0 0" fill="#efe2dd"/><path d="m143.808594 138.28125h14.980468v50.195312h-14.980468zm0 0" fill="#ccbfba"/><path d="m86.386719 173.496094h114.847656v150.6875h-114.847656zm0 0" fill="#c567ea"/><path d="m249.535156 482.039062c-36.546875 0-66.277344-29.730468-66.277344-66.277343v-34.585938h-78.898437v34.585938c0 36.546875-29.730469 66.277343-66.273437 66.277343h-7.625v29.960938h226.699218v-29.960938zm0 0" fill="#fed29a"/><path d="m143.808594 173.496094h57.425781v150.6875h-57.425781zm0 0" fill="#a751e2"/><path d="m257.160156 482.039062h-7.625c-36.546875 0-66.277344-29.730468-66.277344-66.277343v-34.585938h-39.449218v130.824219h113.351562zm0 0" fill="#fabe3d"/><path d="m0 482.039062h287.617188v29.960938h-287.617188zm0 0" fill="#fabe3d"/><path d="m143.808594 482.039062h143.808594v29.960938h-143.808594zm0 0" fill="#fd9126"/><path d="m63.914062 324.25h159.789063v72.902344h-159.789063zm0 0" fill="#fabe3d"/><path d="m143.808594 324.25h79.894531v72.902344h-79.894531zm0 0" fill="#fd9126"/><path d="m41.945312 309.203125h203.730469v29.960937h-203.730469zm0 0" fill="#fed29a"/><path d="m143.808594 309.203125h101.867187v29.960937h-101.867187zm0 0" fill="#fabe3d"/><path d="m143.808594 153.261719c-30.175782 0-54.722656-24.550781-54.722656-54.722657 0-7.75 2.300781-21.695312 22.1875-53.175781 10.175781-16.109375 20.214843-29.261719 20.640624-29.816406l11.894532-15.546875 11.894531 15.546875c.425781.550781 10.464844 13.703125 20.640625 29.816406 19.890625 31.480469 22.1875 45.421875 22.1875 53.171875 0 30.175782-24.546875 54.726563-54.722656 54.726563zm0 0" fill="#fdda50"/><path d="m198.53125 98.535156c0-7.75-2.300781-21.691406-22.1875-53.171875-10.179688-16.113281-20.214844-29.265625-20.640625-29.816406l-11.894531-15.546875v153.261719c30.175781 0 54.722656-24.550781 54.722656-54.726563zm0 0" fill="#fabe3d"/></svg>