<svg height="496pt" viewBox="-96 0 496 496.00151" width="496pt" xmlns="http://www.w3.org/2000/svg"><path d="m256 408 32 32v48l-32-32-32 32v-48zm0 0" fill="#7ecb92"/><path d="m296 88-40-80-40 80 40-24zm0 0" fill="#c18e59"/><path d="m59.511719 304.585938-11.480469 13.773437c-5.191406 6.234375-8.03125 14.082031-8.03125 22.191406 0 16.042969 11.144531 29.929688 26.800781 33.410157l78.96875 17.542968c22.34375 4.96875 38.238281 24.785156 38.238281 47.664063-.007812 26.96875-21.871093 48.832031-48.839843 48.832031h-15.167969c-8.839844 0-16-7.160156-16-16s7.160156-16 16-16 16-7.160156 16-16c0-13.910156-9.910156-25.855469-23.589844-28.425781l-49.875-9.351563c-31.613281-5.925781-54.535156-33.542968-54.535156-65.71875 0-15.832031 5.554688-31.167968 15.6875-43.335937l14.066406-16.878907c6.621094-7.9375 10.246094-17.953124 10.246094-28.289062s-3.625-20.351562-10.238281-28.289062l-14.066407-16.878907c-10.140624-12.167969-15.695312-27.503906-15.695312-43.335937 0-32.175782 22.921875-59.792969 54.542969-65.71875l49.875-9.351563c13.671875-2.570312 23.582031-14.515625 23.582031-28.425781 0-8.839844-7.160156-16-16-16s-16-7.160156-16-16 7.160156-16 16-16h15.167969c26.96875 0 48.832031 21.863281 48.832031 48.832031 0 22.886719-15.894531 42.703125-38.238281 47.664063l-78.96875 17.542968c-15.648438 3.488282-26.792969 17.367188-26.792969 33.410157 0 8.109375 2.839844 15.957031 8.03125 22.191406l11.480469 13.773437c13.242187 15.890626 20.488281 35.90625 20.488281 56.585938s-7.246094 40.695312-20.488281 56.585938zm0 0" fill="#7ecb92"/><path d="m26.464844 289.847656 27.894531 20.921875 5.152344-6.183593c13.242187-15.890626 20.488281-35.90625 20.488281-56.585938s-7.246094-40.695312-20.488281-56.585938l-5.152344-6.183593-27.894531 20.921875 11.296875 13.550781c6.613281 7.945313 10.238281 17.960937 10.238281 28.296875s-3.625 20.351562-10.238281 28.289062zm0 0" fill="#c18e59"/><path d="m135.167969 496h-15.167969c-13.230469 0-24-10.769531-24-24s10.769531-24 24-24c4.417969 0 8-3.585938 8-8 0-10.0625-7.167969-18.703125-17.0625-20.558594l-49.871094-9.351562c-35.386718-6.632813-61.066406-37.585938-61.066406-73.585938 0-17.671875 6.226562-34.871094 17.535156-48.457031l14.074219-16.886719c5.414063-6.480468 8.390625-14.703125 8.390625-23.160156 0-8.449219-2.976562-16.671875-8.390625-23.167969l-14.074219-16.878906c-11.308594-13.59375-17.535156-30.792969-17.535156-48.457031 0-36 25.679688-66.953125 61.066406-73.585938l49.871094-9.351562c9.894531-1.855469 17.0625-10.503906 17.0625-20.558594 0-4.40625-3.582031-8-8-8-13.230469 0-24-10.769531-24-24s10.769531-24 24-24h15.167969c31.335937 0 56.832031 25.496094 56.832031 56.832031 0 26.839844-18.296875 49.65625-44.496094 55.480469l-78.96875 17.550781c-12.085937 2.671875-20.535156 13.199219-20.535156 25.59375 0 6.222657 2.191406 12.277344 6.175781 17.070313l11.488281 13.777344c14.410157 17.28125 22.335938 39.191406 22.335938 61.695312 0 22.496094-7.925781 44.414062-22.335938 61.703125 0 0 0 .007813-.007812.007813l-11.488281 13.777343c-3.976563 4.777344-6.167969 10.832031-6.167969 17.054688 0 12.386719 8.449219 22.914062 20.527344 25.59375l78.96875 17.542969c26.207031 5.832031 44.503906 28.65625 44.503906 55.488281 0 31.335937-25.496094 56.832031-56.832031 56.832031zm-15.167969-480c-4.414062 0-8 3.59375-8 8s3.585938 8 8 8c13.234375 0 24 10.769531 24 24 0 17.753906-12.664062 33.015625-30.109375 36.289062l-49.875 9.351563c-27.824219 5.207031-48.015625 29.542969-48.015625 57.855469 0 13.929687 4.914062 27.503906 13.832031 38.214844l14.074219 16.882812c7.796875 9.359375 12.09375 21.230469 12.09375 33.40625 0 12.183594-4.296875 24.054688-12.09375 33.414062l-14.074219 16.882813c-8.917969 10.703125-13.832031 24.269531-13.832031 38.207031 0 28.304688 20.191406 52.640625 48.015625 57.855469l49.875 9.351563c17.445313 3.273437 30.109375 18.527343 30.109375 36.289062 0 13.230469-10.765625 24-24 24-4.414062 0-8 3.585938-8 8s3.585938 8 8 8h15.167969c22.519531 0 40.832031-18.3125 40.832031-40.832031 0-19.28125-13.152344-35.671875-31.96875-39.855469l-78.964844-17.542969c-19.472656-4.328125-33.066406-21.273437-33.066406-41.226562 0-9.957031 3.503906-19.65625 9.878906-27.304688l11.496094-13.78125c12.007812-14.417969 18.625-32.695312 18.625-51.457031 0-18.769531-6.617188-37.039062-18.632812-51.464844l-11.488282-13.773437c-6.375-7.65625-9.878906-17.355469-9.878906-27.304688 0-19.945312 13.59375-36.898437 33.066406-41.21875l78.964844-17.550781c18.816406-4.183594 31.96875-20.574219 31.96875-39.855469 0-22.511719-18.3125-40.832031-40.832031-40.832031zm0 0"/><path d="m144 104h16v287.503906h-16zm0 0"/><path d="m48 240h32v16h-32zm0 0"/><path d="m38.054688 216.226562 32.003906-7.988281 3.875 15.523438-32.003906 7.988281zm0 0"/><path d="m38.039062 279.757812 3.878907-15.515624 31.996093 8-3.875 15.511718zm0 0"/><path d="m19.1875 201.597656 32.003906-23.992187 9.59375 12.796875-32.003906 23.992187zm0 0"/><path d="m19.199219 294.398438 9.597656-12.792969 32 24-9.597656 12.792969zm0 0"/><path d="m288 496c-2.078125 0-4.128906-.816406-5.65625-2.34375l-26.34375-26.34375-26.34375 26.34375c-2.289062 2.289062-5.71875 2.976562-8.71875 1.734375-2.992188-1.230469-4.9375-4.160156-4.9375-7.390625v-48c0-2.128906.839844-4.160156 2.34375-5.65625l32-32c3.128906-3.128906 8.183594-3.128906 11.3125 0l32 32c1.503906 1.496094 2.34375 3.527344 2.34375 5.65625v48c0 3.230469-1.941406 6.160156-4.933594 7.390625-.992187.417969-2.035156.609375-3.066406.609375zm-32-48c2.046875 0 4.097656.785156 5.65625 2.34375l18.34375 18.34375v-25.375l-24-24-24 24v25.375l18.34375-18.34375c1.5625-1.558594 3.609375-2.34375 5.65625-2.34375zm0 0"/><path d="m296 96c-1.414062 0-2.839844-.375-4.121094-1.144531l-35.878906-21.527344-35.878906 21.527344c-3.046875 1.832031-6.9375 1.433593-9.550782-.992188-2.609374-2.414062-3.304687-6.261719-1.722656-9.449219l40-80c2.722656-5.421874 11.59375-5.421874 14.3125 0l40 80c1.585938 3.1875.886719 7.035157-1.71875 9.449219-1.527344 1.417969-3.472656 2.136719-5.441406 2.136719zm-40-40c1.425781 0 2.847656.375 4.121094 1.144531l16.441406 9.863281-20.5625-41.121093-20.550781 41.121093 16.441406-9.863281c1.261719-.769531 2.6875-1.144531 4.109375-1.144531zm0 0"/><path d="m248 64h16v344h-16zm0 0"/></svg>