<svg height="496pt" viewBox="0 0 496 496" width="496pt" xmlns="http://www.w3.org/2000/svg"><path d="m192 408h112v48h-112zm0 0" fill="#c18e59"/><path d="m176 456h144v32h-144zm0 0" fill="#a66d43"/><path d="m176 376h144v32h-144zm0 0" fill="#a66d43"/><path d="m400 144c0-83.945312-68.054688-136-152-136s-152 52.054688-152 136 68.054688 168 152 168 152-84.054688 152-168zm0 0" fill="#d1a339"/><path d="m376 88c0-7.863281-.535156-15.601562-1.480469-23.214844-27.238281-36.167968-73.71875-56.785156-126.519531-56.785156-83.945312 0-152 52.054688-152 136 0 51.457031 25.59375 102.910156 64.710938 135.0625 6.34375.609375 12.777343.9375 19.289062.9375 108.246094 0 196-85.960938 196-192zm0 0" fill="#f0d365"/><path d="m464 368c-.273438 0-.527344.070312-.800781.078125-3.671875-18.292969-19.824219-32.078125-39.199219-32.078125-19.921875 0-36.3125 14.609375-39.359375 33.664062-2.6875-1.039062-5.585937-1.664062-8.640625-1.664062-13.257812 0-24 10.742188-24 24s10.742188 24 24 24c8.558594 0 16.023438-4.511719 20.273438-11.257812 7.191406 6.9375 16.941406 11.257812 27.726562 11.257812 8.511719 0 16.367188-2.703125 22.855469-7.238281 4.359375 4.453125 10.417969 7.238281 17.144531 7.238281 13.257812 0 24-10.742188 24-24s-10.742188-24-24-24zm0 0" fill="#8bd2f5"/><path d="m120 336c-.273438 0-.527344.070312-.800781.078125-3.671875-18.292969-19.824219-32.078125-39.199219-32.078125-19.921875 0-36.3125 14.609375-39.359375 33.664062-2.6875-1.039062-5.585937-1.664062-8.640625-1.664062-13.257812 0-24 10.742188-24 24s10.742188 24 24 24c8.558594 0 16.023438-4.511719 20.273438-11.257812 7.191406 6.9375 16.941406 11.257812 27.726562 11.257812 8.511719 0 16.367188-2.703125 22.855469-7.238281 4.359375 4.453125 10.417969 7.238281 17.144531 7.238281 13.257812 0 24-10.742188 24-24s-10.742188-24-24-24zm0 0" fill="#8bd2f5"/><path d="m320 496h-144c-4.425781 0-8-3.574219-8-8v-32c0-4.425781 3.574219-8 8-8h144c4.425781 0 8 3.574219 8 8v32c0 4.425781-3.574219 8-8 8zm-136-16h128v-16h-128zm0 0"/><path d="m320 416h-144c-4.425781 0-8-3.574219-8-8v-32c0-4.425781 3.574219-8 8-8h144c4.425781 0 8 3.574219 8 8v32c0 4.425781-3.574219 8-8 8zm-136-16h128v-16h-128zm0 0"/><path d="m184 408h16v48h-16zm0 0"/><path d="m296 408h16v48h-16zm0 0"/><path d="m248 320c-91.574219 0-160-92.921875-160-176 0-83.441406 67.289062-144 160-144s160 60.558594 160 144c0 83.078125-68.425781 176-160 176zm0-304c-84.785156 0-144 52.632812-144 128 0 75.527344 61.585938 160 144 160s144-84.472656 144-160c0-75.367188-59.214844-128-144-128zm0 0"/><path d="m312.390625 373.457031 41.128906-123.273437 15.171875 5.058594-41.132812 123.273437zm0 0"/><path d="m127.316406 255.257812 15.171875-5.058593 41.089844 123.285156-15.171875 5.058594zm0 0"/><path d="m240 288h16v88h-16zm0 0"/><path d="m376 144h-16c0-66.3125-56.246094-96-112-96v-16c75.367188 0 128 46.054688 128 112zm0 0"/><path d="m464 424c-6.464844 0-12.625-1.902344-17.855469-5.457031-15.273437 8.023437-34.625 6.882812-48.839843-2.710938-5.792969 5.214844-13.304688 8.167969-21.304688 8.167969-17.648438 0-32-14.351562-32-32 0-18.585938 16.167969-33.601562 34.816406-31.863281 6.582032-19.039063 24.429688-32.136719 45.183594-32.136719 20.664062 0 38.855469 13.328125 45.414062 32.464844 15.082032 2.574218 26.585938 15.726562 26.585938 31.535156 0 17.648438-14.351562 32-32 32zm-17.144531-23.230469c2.097656 0 4.167969.824219 5.71875 2.40625 3.050781 3.113281 7.105469 4.824219 11.425781 4.824219 8.824219 0 16-7.175781 16-16 0-8.71875-7.007812-15.832031-15.679688-16-.457031.054688-.839843.078125-1.121093.078125-3.800781 0-7.09375-2.679687-7.839844-6.421875-2.992187-14.863281-16.183594-25.65625-31.359375-25.65625-15.734375 0-28.96875 11.328125-31.464844 26.9375-.382812 2.382812-1.824218 4.476562-3.917968 5.671875-2.113282 1.199219-4.640626 1.390625-6.882813.511719-10.839844-4.210938-21.734375 4.167968-21.734375 14.878906 0 8.824219 7.175781 16 16 16 5.488281 0 10.527344-2.816406 13.496094-7.511719 1.28125-2.039062 3.414062-3.390625 5.808594-3.6875 2.4375-.28125 4.800781.511719 6.519531 2.183594 10.792969 10.398437 28.167969 11.816406 40.457031 3.222656 1.382812-.96875 2.984375-1.4375 4.574219-1.4375zm0 0"/><path d="m120 392c-6.464844 0-12.625-1.902344-17.855469-5.457031-15.28125 8.023437-34.617187 6.882812-48.839843-2.710938-5.792969 5.214844-13.304688 8.167969-21.304688 8.167969-17.648438 0-32-14.351562-32-32 0-18.585938 16.167969-33.585938 34.816406-31.863281 6.582032-19.039063 24.429688-32.136719 45.183594-32.136719 20.664062 0 38.855469 13.328125 45.414062 32.464844 15.082032 2.574218 26.585938 15.726562 26.585938 31.535156 0 17.648438-14.351562 32-32 32zm-17.144531-23.230469c2.097656 0 4.167969.824219 5.71875 2.40625 3.050781 3.113281 7.105469 4.824219 11.425781 4.824219 8.824219 0 16-7.175781 16-16 0-8.71875-7.007812-15.832031-15.679688-16-.457031.054688-.839843.078125-1.121093.078125-3.800781 0-7.09375-2.679687-7.839844-6.421875-2.992187-14.863281-16.183594-25.65625-31.359375-25.65625-15.734375 0-28.96875 11.328125-31.464844 26.9375-.382812 2.382812-1.824218 4.476562-3.917968 5.671875-2.105469 1.207031-4.640626 1.390625-6.882813.511719-10.847656-4.210938-21.734375 4.167968-21.734375 14.878906 0 8.824219 7.175781 16 16 16 5.488281 0 10.527344-2.816406 13.496094-7.511719 1.28125-2.039062 3.414062-3.390625 5.808594-3.6875 2.449218-.273437 4.800781.511719 6.519531 2.183594 10.792969 10.398437 28.167969 11.816406 40.457031 3.222656 1.382812-.96875 2.984375-1.4375 4.574219-1.4375zm0 0"/></svg>