<svg height="496pt" viewBox="0 -16 496 496" width="496pt" xmlns="http://www.w3.org/2000/svg"><path d="m392 40.003906c20.488281-20.488281 48.28125-32 77.257812-32h2.742188c8.839844 0 16 7.15625 16 16 0 8.839844-7.160156 16-16 16-20.488281 0-40.136719 8.132813-54.625 22.621094l-1.375 1.378906" fill="#e39854"/><path d="m320 48.003906 40-40 96 96-40 40" fill="#b8cbd9"/><path d="m440 240.003906c0 119.292969-96.707031 216-216 216s-216-96.707031-216-216c0-119.296875 96.707031-216 216-216s216 96.703125 216 216zm0 0" fill="#c16b3f"/><path d="m400 216.003906c0-70.289062-33.59375-132.714844-85.585938-172.160156-27.511718-12.707031-58.117187-19.839844-90.414062-19.839844-119.296875 0-216 96.703125-216 216 0 70.285156 33.59375 132.710938 85.585938 172.15625 27.511718 12.707032 58.117187 19.84375 90.414062 19.84375 119.296875 0 216-96.707031 216-216zm0 0" fill="#e39854"/><path d="m288 104.003906c0 26.507813-21.492188 48-48 48s-48-21.492187-48-48c0-26.511718 21.492188-48 48-48s48 21.488282 48 48zm0 0" fill="#fff"/><path d="m224 464.003906c-123.511719 0-224-100.488281-224-224 0-123.515625 100.488281-224 224-224s224 100.484375 224 224c0 123.511719-100.488281 224-224 224zm0-432c-114.695312 0-208 93.308594-208 208 0 114.695313 93.304688 208 208 208s208-93.304687 208-208c0-114.691406-93.304688-208-208-208zm0 0"/><path d="m421.65625 149.65625-11.3125-11.308594 34.34375-34.34375-84.6875-84.691406-34.34375 34.34375-11.3125-11.308594 40-40c3.128906-3.128906 8.183594-3.128906 11.3125 0l96 96c3.128906 3.125 3.128906 8.183594 0 11.308594zm0 0"/><path d="m224 432.003906v-16c97.046875 0 176-78.953125 176-176h16c0 105.863282-86.136719 192-192 192zm0 0"/><path d="m240 160.003906c-30.871094 0-56-25.121094-56-56 0-30.882812 25.128906-56 56-56s56 25.117188 56 56c0 30.878906-25.128906 56-56 56zm0-96c-22.054688 0-40 17.941406-40 40 0 22.054688 17.945312 40 40 40s40-17.945312 40-40c0-22.058594-17.945312-40-40-40zm0 0"/><path d="m421.648438 69.664062-11.296876-11.324218 1.375-1.371094c16.097657-16.101562 37.496094-24.964844 60.273438-24.964844 4.414062 0 8-3.59375 8-8 0-4.410156-3.585938-8-8-8h-2.742188c-27.050781 0-52.480468 10.527344-71.601562 29.652344l-11.3125-11.308594c22.152344-22.152344 51.59375-34.34374975 82.914062-34.34374975h2.742188c13.230469 0 24 10.76562475 24 23.99999975 0 13.230469-10.769531 24-24 24-18.496094 0-35.886719 7.199219-48.96875 20.285156zm0 0"/></svg>