<svg height="496pt" viewBox="0 -72 496.00951 496" width="496pt" xmlns="http://www.w3.org/2000/svg"><path d="m240.007812 113.597656c-12.496093-6.386718-26.710937-9.871094-41.773437-9.578125-48.394531.953125-86.226563 42.488281-86.226563 90.890625 0 24.902344-20.191406 45.09375-45.09375 45.09375h-58.90625l27.480469 27.480469c28.503907 28.503906 67.167969 44.519531 107.480469 44.519531h77.160156c16.144532 19.542969 40.5625 32 67.878906 32 35.34375 0 65.746094-20.886718 79.738282-50.949218 11.839844 6.917968 25.566406 10.949218 40.261718 10.949218 44.1875 0 80-35.816406 80-80 0-32.65625-19.589843-60.695312-47.636718-73.128906h.125c4.847656-12.007812 7.511718-25.125 7.511718-38.871094 0-57.4375-46.558593-104-104-104-57.4375 0-104 46.5625-104 104zm0 0" fill="#b8cbd9"/><path d="m240.007812 112.003906v1.59375c-12.496093-6.386718-26.710937-9.871094-41.773437-9.578125-48.394531.953125-86.226563 42.488281-86.226563 90.890625 0 24.902344-20.191406 45.09375-45.09375 45.09375h-58.90625l16.882813 16.878906c35.847656 19.730469 78 31.121094 123.117187 31.121094 130.335938 0 236-94.910156 236-212 0-22.230468-3.824218-43.65625-10.894531-63.792968-9.238281-2.695313-18.992187-4.207032-29.105469-4.207032-57.4375 0-104 46.5625-104 104zm0 0" fill="#e8eff4"/><path d="m240.59375 155.085938c-5.695312-13.664063-8.585938-28.160157-8.585938-43.082032 0-61.757812 50.242188-111.99999975 112-111.99999975 61.761719 0 112 50.24218775 112 111.99999975 0 14.472656-2.71875 28.5625-8.085937 41.863282l-14.839844-5.984376c4.597657-11.390624 6.925781-23.46875 6.925781-35.878906 0-52.933594-43.0625-96-96-96-52.933593 0-96 43.066406-96 96 0 12.800782 2.480469 25.21875 7.355469 36.921875zm0 0"/><path d="m224.007812 320.003906h-81.039062c-42.734375 0-82.917969-16.640625-113.144531-46.863281l-27.480469-27.480469c-2.2851562-2.289062-2.972656-5.726562-1.734375-8.71875 1.238281-2.992187 4.167969-4.9375 7.398437-4.9375h58.90625c20.457032 0 37.09375-16.640625 37.09375-37.09375 0-53.503906 42.195313-97.867187 94.074219-98.890625 15.664063-.277343 31.574219 3.3125 45.566407 10.457031l-7.277344 14.25c-11.648438-5.953124-24.632813-9.074218-37.976563-8.707031-43.21875.847657-78.386719 38.035157-78.386719 82.890625 0 29.269532-23.824218 53.09375-53.09375 53.09375h-39.59375l13.824219 13.824219c27.199219 27.199219 63.359375 42.175781 101.824219 42.175781h81.039062zm0 0"/><path d="m288.007812 352.003906c-52.933593 0-96-43.0625-96-96 0-5.847656.53125-11.71875 1.585938-17.445312l15.734375 2.886718c-.871094 4.777344-1.320313 9.679688-1.320313 14.558594 0 44.113282 35.890626 80 80 80 30.929688 0 59.386719-18.183594 72.488282-46.328125.945312-2.039062 2.714844-3.582031 4.855468-4.253906 2.144532-.695313 4.480469-.417969 6.433594.726563 11.03125 6.449218 23.550782 9.855468 36.222656 9.855468 39.707032 0 72-32.296875 72-72s-32.292968-72-72-72v-16c48.523438 0 88 39.480469 88 88 0 48.519532-39.476562 88-88 88-12.71875 0-25.308593-2.808594-36.863281-8.167968-17.015625 29.511718-48.800781 48.167968-83.136719 48.167968zm0 0"/><path d="m408.007812 280.003906v-16c22.058594 0 40-17.941406 40-40h16c0 30.871094-25.125 56-56 56zm0 0"/><path d="m280.007812 112.003906h-16c0-44.109375 35.890626-80 80-80v16c-35.285156 0-64 28.710938-64 64zm0 0"/></svg>