<svg height="495pt" viewBox="-47 0 495 495.884" width="495pt" xmlns="http://www.w3.org/2000/svg"><path d="m168.441406 191.882812-112-40 48 112v64l-48 112 112-40h64l112 40-48-112v-64l48-112-112 40" fill="#2d4d83"/><path d="m288.441406 103.882812-72-24v24l32 144 144 48-144 48-48 144-48-144-144-48 144-48 32-144v-24l-72 24 88-96zm0 0" fill="#4472b2"/><path d="m200.441406 495.882812c-3.449218 0-6.496094-2.199218-7.582031-5.472656l-46.746094-140.199218-140.199219-46.742188c-3.273437-1.089844-5.472656-4.136719-5.472656-7.585938 0-3.445312 2.199219-6.496093 5.472656-7.582031l139.703126-46.570312 30.824218-138.71875v-12.023438l-61.472656 20.488281c-3.480469 1.160157-7.253906-.175781-9.238281-3.234374-1.984375-3.054688-1.648438-7.070313.816406-9.757813l88-96c3.03125-3.3125 8.765625-3.3125 11.800781 0l88 96c2.460938 2.6875 2.796875 6.703125.8125 9.757813-1.980468 3.066406-5.773437 4.410156-9.238281 3.234374l-61.480469-20.488281v12.023438l30.832032 138.71875 139.703124 46.570312c3.265626 1.085938 5.464844 4.136719 5.464844 7.582031 0 3.449219-2.199218 6.496094-5.472656 7.585938l-140.199219 46.742188-46.742187 140.199218c-1.089844 3.273438-4.136719 5.472656-7.585938 5.472656zm-166.703125-200 121.230469 40.417969c2.394531.792969 4.265625 2.664063 5.058594 5.054688l40.414062 121.234375 40.417969-121.234375c.789063-2.390625 2.664063-4.261719 5.054687-5.054688l121.230469-40.417969-121.230469-40.414062c-2.664062-.878906-4.671874-3.113281-5.28125-5.847656l-32-144c-.125-.570313-.191406-1.152344-.191406-1.738282v-24c0-2.566406 1.234375-4.984374 3.320313-6.496093 2.089843-1.511719 4.769531-1.925781 7.207031-1.09375l42.714844 14.230469-61.242188-66.808594-61.238281 66.816406 42.710937-14.230469c2.433594-.832031 5.113282-.417969 7.207032 1.09375 2.089844 1.503907 3.320312 3.921875 3.320312 6.488281v24c0 .585938-.0625 1.167969-.183594 1.738282l-32 144c-.609374 2.742187-2.617187 4.96875-5.28125 5.847656zm0 0"/><path d="m97.089844 267.035156-48-112c-1.253906-2.917968-.65625-6.3125 1.519531-8.625 2.183594-2.316406 5.550781-3.140625 8.511719-2.054687l112 40-5.375 15.066406-94.734375-33.832031 40.773437 95.148437zm0 0"/><path d="m303.792969 267.035156-14.703125-6.296875 40.777344-95.148437-94.738282 33.832031-5.375-15.066406 112-40c2.976563-1.09375 6.335938-.261719 8.511719 2.054687 2.175781 2.3125 2.785156 5.707032 1.519531 8.625zm0 0"/><path d="m344.441406 447.882812c-.902344 0-1.816406-.152343-2.6875-.472656l-112-40 5.375-15.0625 94.738282 33.832032-40.777344-95.152344 14.703125-6.296875 48 112c1.257812 2.921875.65625 6.3125-1.519531 8.625-1.542969 1.648437-3.664063 2.527343-5.832032 2.527343zm0 0"/><path d="m56.441406 447.882812c-2.167968 0-4.289062-.878906-5.832031-2.519531-2.175781-2.3125-2.785156-5.703125-1.519531-8.625l48-112 14.703125 6.296875-40.773438 95.152344 94.734375-33.832031 5.375 15.066406-112 40c-.871094.308594-1.789062.460937-2.6875.460937zm0 0"/><path d="m192.441406 111.882812h16v376h-16zm0 0"/><path d="m8.441406 287.882812h384v16h-384zm0 0"/><path d="m50.785156 157.542969 11.3125-11.3125 96.003906 96-11.316406 11.3125zm0 0"/><path d="m242.78125 349.542969 11.316406-11.3125 96 96-11.3125 11.3125zm0 0"/><path d="m242.785156 242.226562 96-96.003906 11.3125 11.316406-96 96zm0 0"/><path d="m50.785156 434.222656 96-96 11.3125 11.3125-96 96.003906zm0 0"/></svg>