<svg height="496pt" viewBox="0 0 496 496" width="496pt" xmlns="http://www.w3.org/2000/svg"><path d="m227.191406 166.097656-3.191406.847656c-2.617188.695313-5.28125 1.054688-8 1.054688-30.289062 0-54.894531-44.6875-55.902344-100.488281 9.46875-5.558594 15.902344-15.734375 15.902344-27.511719 0-17.671875-14.328125-32-32-32s-32 14.328125-32 32c0 11.785156 6.441406 21.960938 15.921875 27.519531-.851563 47.167969-18.5625 86.402344-42.335937 97.402344 12.382812 48.535156 43.542968 83.078125 74.414062 83.078125 30.625 0 56.785156-33.992188 67.191406-81.902344zm0 0" fill="#d1a339"/><path d="m410.414062 164.921875c-23.765624-11-41.476562-50.234375-42.335937-97.402344 9.480469-5.558593 15.921875-15.734375 15.921875-27.519531 0-17.671875-14.328125-32-32-32s-32 14.328125-32 32c0 11.777344 6.433594 21.953125 15.902344 27.511719-1 55.800781-25.613282 100.488281-55.902344 100.488281-2.71875 0-5.382812-.359375-8-1.054688l-3.230469-1.050781c10.375 48.027344 36.566407 82.105469 67.230469 82.105469 30.871094 0 62.03125-34.542969 74.414062-83.078125zm0 0" fill="#d1a339"/><path d="m176 40c0 17.671875-14.328125 32-32 32s-32-14.328125-32-32 14.328125-32 32-32 32 14.328125 32 32zm0 0" fill="#66acd7"/><path d="m384 40c0 17.671875-14.328125 32-32 32s-32-14.328125-32-32 14.328125-32 32-32 32 14.328125 32 32zm0 0" fill="#66acd7"/><path d="m448 40c-22.089844 0-40 17.910156-40 40 0 9.121094 3.167969 17.425781 8.3125 24.152344l-.3125-.152344v16c0 70.695312-40.230469 128-80 128s-72-57.304688-72-128v-3.375c14.113281-6.175781 24-20.234375 24-36.625 0-22.089844-17.910156-40-40-40s-40 17.910156-40 40c0 16.390625 9.886719 30.449219 24 36.625v3.375c0 70.695312-32.230469 128-72 128s-80-57.304688-80-128v-16.214844c4.960938-6.664062 8-14.832031 8-23.785156 0-22.089844-17.910156-40-40-40s-40 17.910156-40 40 17.910156 40 40 40l27.207031 285.679688c2.929688 30.734374 23.28125 57.046874 52.296875 67.601562 26.792969 9.734375 55.082032 14.71875 83.585938 14.71875h73.820312c28.503906 0 56.792969-4.984375 83.578125-14.726562 29.015625-10.554688 49.375-36.867188 52.296875-67.601563l27.214844-285.671875c22.089844 0 40-17.910156 40-40s-17.910156-40-40-40zm0 0" fill="#f0d365"/><g fill="#8bd2f5"><path d="m88 80c0 22.089844-17.910156 40-40 40s-40-17.910156-40-40 17.910156-40 40-40 40 17.910156 40 40zm0 0"/><path d="m288 80c0 22.089844-17.910156 40-40 40s-40-17.910156-40-40 17.910156-40 40-40 40 17.910156 40 40zm0 0"/><path d="m488 80c0 22.089844-17.910156 40-40 40s-40-17.910156-40-40 17.910156-40 40-40 40 17.910156 40 40zm0 0"/></g><path d="m296 384c0-30.929688-21.492188-56-48-56s-48 25.070312-48 56 21.492188 56 48 56 48-25.070312 48-56zm0 0" fill="#af4a47"/><path d="m200 384c0 15.496094 5.390625 29.511719 14.113281 39.65625 32.472657-3.464844 57.886719-34.214844 57.886719-71.65625 0-6.144531-.761719-12.070312-2.039062-17.761719-6.585938-3.957031-14.039063-6.238281-21.960938-6.238281-26.511719 0-48 25.070312-48 56zm0 0" fill="#e4725f"/><path d="m48 128c-26.472656 0-48-21.527344-48-48s21.527344-48 48-48 48 21.527344 48 48-21.527344 48-48 48zm0-80c-17.648438 0-32 14.351562-32 32s14.351562 32 32 32 32-14.351562 32-32-14.351562-32-32-32zm0 0"/><path d="m248 128c-26.472656 0-48-21.527344-48-48s21.527344-48 48-48 48 21.527344 48 48-21.527344 48-48 48zm0-80c-17.648438 0-32 14.351562-32 32s14.351562 32 32 32 32-14.351562 32-32-14.351562-32-32-32zm0 0"/><path d="m448 128c-26.472656 0-48-21.527344-48-48s21.527344-48 48-48 48 21.527344 48 48-21.527344 48-48 48zm0-80c-17.648438 0-32 14.351562-32 32s14.351562 32 32 32 32-14.351562 32-32-14.351562-32-32-32zm0 0"/><path d="m284.910156 496h-73.832031c-29.511719 0-58.550781-5.121094-86.308594-15.199219-31.753906-11.554687-54.328125-40.738281-57.523437-74.359375l-27.207032-285.679687 15.921876-1.515625 27.207031 285.675781c2.617187 27.511719 21.097656 51.390625 47.070312 60.839844 25.992188 9.445312 53.203125 14.238281 80.851563 14.238281h73.832031c27.644531 0 54.847656-4.792969 80.839844-14.238281 25.972656-9.449219 44.453125-33.328125 47.070312-60.839844l27.207031-285.675781 15.921876 1.515625-27.207032 285.671875c-3.195312 33.621094-25.777344 62.8125-57.523437 74.359375-27.757813 10.085937-56.796875 15.207031-86.320313 15.207031zm0 0"/><path d="m336 256c-44.855469 0-80-59.734375-80-136h16c0 65.046875 29.304688 120 64 120 33.296875 0 72-52.414062 72-120v-16h16v16c0 72.449219-41.128906 136-88 136zm0 0"/><path d="m160 256c-46.871094 0-88-63.550781-88-136v-16h16v16c0 67.585938 38.703125 120 72 120 34.695312 0 64-54.953125 64-120h16c0 76.265625-35.144531 136-80 136zm0 0"/><path d="m144 80c-22.054688 0-40-17.945312-40-40s17.945312-40 40-40 40 17.945312 40 40-17.945312 40-40 40zm0-64c-13.230469 0-24 10.769531-24 24s10.769531 24 24 24 24-10.769531 24-24-10.769531-24-24-24zm0 0"/><path d="m216 176c-35.886719 0-64-49.191406-64-112h16c0 52.039062 21.984375 96 48 96 1.984375 0 3.984375-.265625 5.9375-.785156l4.125 15.464844c-3.292969.871093-6.6875 1.320312-10.0625 1.320312zm0 0"/><path d="m88.945312 172.175781-6.722656-14.519531c21.898438-10.128906 37.777344-49.511719 37.777344-93.65625h16c0 50.871094-19.351562 95.351562-47.054688 108.175781zm0 0"/><path d="m352 80c-22.054688 0-40-17.945312-40-40s17.945312-40 40-40 40 17.945312 40 40-17.945312 40-40 40zm0-64c-13.230469 0-24 10.769531-24 24s10.769531 24 24 24 24-10.769531 24-24-10.769531-24-24-24zm0 0"/><path d="m280 176c-3.375 0-6.769531-.449219-10.0625-1.328125l4.125-15.464844c1.953125.527344 3.953125.792969 5.9375.792969 26.015625 0 48-43.960938 48-96h16c0 62.808594-28.113281 112-64 112zm0 0"/><path d="m407.054688 172.175781c-27.703126-12.824219-47.054688-57.304687-47.054688-108.175781h16c0 44.144531 15.878906 83.527344 37.777344 93.65625zm0 0"/><path d="m248 448c-30.871094 0-56-28.710938-56-64s25.128906-64 56-64 56 28.710938 56 64-25.128906 64-56 64zm0-112c-22.054688 0-40 21.527344-40 48s17.945312 48 40 48 40-21.527344 40-48-17.945312-48-40-48zm0 0"/><path d="m272 384h-16c0-9.769531-4.734375-16-8-16v-16c13.464844 0 24 14.054688 24 32zm0 0"/></svg>