<svg height="496pt" viewBox="-80 0 496 496" width="496pt" xmlns="http://www.w3.org/2000/svg"><path d="m328 304c0 132.550781-71.632812 184-160 184s-160-51.449219-160-184 71.632812-296 160-296 160 163.449219 160 296zm0 0" fill="#f5b953"/><path d="m8 304c0 64.390625 16.9375 109.59375 44.457031 139.105469 115.4375-28.027344 205.695313-174.066407 218.070313-356.210938-27.765625-47-63.511719-78.894531-102.527344-78.894531-88.367188 0-160 163.449219-160 296zm0 0" fill="#f9d18b"/><path d="m155.160156 241.246094c-24.953125 4.851562-45.0625 24.960937-49.914062 49.914062-6.261719 32.246094 11.746094 61.246094 38.960937 72.167969 1.074219 28.710937 15.714844 55.28125 39.730469 71.296875l8.0625 5.375v-27.710938c0-18.113281 7.191406-35.480468 20-48.289062s20-30.175781 20-48.289062v-11.710938c0-39.542969-35.863281-70.710938-76.839844-62.753906zm0 0" fill="#af4a47"/><path d="m155.160156 241.246094c-24.953125 4.851562-45.0625 24.960937-49.914062 49.914062-6.261719 32.246094 11.746094 61.246094 38.960937 72.167969.144531 3.953125.609375 7.839844 1.257813 11.6875 36.792968-16.632813 62.535156-54.679687 62.535156-99.015625 0-8.207031-.960938-16.175781-2.632812-23.863281-13.6875-9.878907-31.382813-14.542969-50.207032-10.890625zm0 0" fill="#e4725f"/><g fill="#e8eff4"><path d="m248 200c0 13.253906-10.746094 24-24 24s-24-10.746094-24-24 10.746094-24 24-24 24 10.746094 24 24zm0 0"/><path d="m168 136c0 22.089844-17.910156 40-40 40s-40-17.910156-40-40 17.910156-40 40-40 40 17.910156 40 40zm0 0"/><path d="m120 416c0 8.835938-7.164062 16-16 16s-16-7.164062-16-16 7.164062-16 16-16 16 7.164062 16 16zm0 0"/><path d="m296 344c0 8.835938-7.164062 16-16 16s-16-7.164062-16-16 7.164062-16 16-16 16 7.164062 16 16zm0 0"/></g><path d="m168 496c-106.769531 0-168-69.984375-168-192 0-137.695312 74.9375-304 168-304s168 166.304688 168 304c0 122.015625-61.230469 192-168 192zm0-480c-81.855469 0-152 158.359375-152 288 0 153.136719 95.230469 176 152 176s152-22.863281 152-176c0-129.640625-70.144531-288-152-288zm0 0"/><path d="m192 448c-1.550781 0-3.097656-.457031-4.441406-1.34375l-8.0625-5.375c-24.808594-16.539062-40.503906-43.210938-43.113282-72.570312-9.125-4.464844-17.3125-10.863282-23.96875-18.933594-13.734374-16.664063-19.214843-38.578125-15.023437-60.136719 5.472656-28.167969 28.074219-50.777344 56.242187-56.242187 21.550782-4.183594 43.480469 1.289062 60.136719 15.027343 16.671875 13.742188 26.230469 34 26.230469 55.574219v11.71875c0 20.378906-7.9375 39.527344-22.34375 53.9375-11.382812 11.390625-17.65625 26.519531-17.65625 42.625v27.71875c0 2.953125-1.625 5.664062-4.222656 7.054688-1.183594.632812-2.480469.945312-3.777344.945312zm-38.710938-73.503906c3.574219 19.929687 14.445313 37.894531 30.710938 50.351562v-12.558594c0-20.378906 7.9375-39.527343 22.34375-53.9375 11.382812-11.398437 17.65625-26.527343 17.65625-42.632812v-11.71875c0-16.792969-7.441406-32.542969-20.398438-43.230469-12.960937-10.679687-30.066406-14.898437-46.914062-11.664062-21.832031 4.238281-39.34375 21.757812-43.582031 43.582031-3.273438 16.847656.984375 33.945312 11.664062 46.90625 10.6875 12.964844 26.445313 20.40625 43.230469 20.40625v16c-5 0-9.921875-.511719-14.710938-1.503906zm0 0"/><path d="m168 344v-16c13.230469 0 24-10.769531 24-24h16c0 22.054688-17.945312 40-40 40zm0 0"/><path d="m224 232c-17.648438 0-32-14.351562-32-32s14.351562-32 32-32 32 14.351562 32 32-14.351562 32-32 32zm0-48c-8.824219 0-16 7.175781-16 16s7.175781 16 16 16 16-7.175781 16-16-7.175781-16-16-16zm0 0"/><path d="m128 184c-26.472656 0-48-21.527344-48-48s21.527344-48 48-48 48 21.527344 48 48-21.527344 48-48 48zm0-80c-17.648438 0-32 14.351562-32 32s14.351562 32 32 32 32-14.351562 32-32-14.351562-32-32-32zm0 0"/><path d="m104 440c-13.230469 0-24-10.769531-24-24s10.769531-24 24-24 24 10.769531 24 24-10.769531 24-24 24zm0-32c-4.40625 0-8 3.585938-8 8s3.59375 8 8 8 8-3.585938 8-8-3.59375-8-8-8zm0 0"/><path d="m280 368c-13.230469 0-24-10.769531-24-24s10.769531-24 24-24 24 10.769531 24 24-10.769531 24-24 24zm0-32c-4.40625 0-8 3.585938-8 8s3.59375 8 8 8 8-3.585938 8-8-3.59375-8-8-8zm0 0"/></svg>