<svg height="496pt" viewBox="0 -80 496 496" width="496pt" xmlns="http://www.w3.org/2000/svg"><g fill="#c18e59"><path d="m152 328.003906v-272l-48-48-48 48v272"/><path d="m296 328.003906v-272l-48-48-48 48v272"/><path d="m440 328.003906v-272l-48-48-48 48v272"/></g><path d="m8 128.003906h480v80h-480zm0 0" fill="#976947"/><path d="m160 128.003906h-16v-68.691406l-40-40-40 40v68.691406h-16v-72c0-2.121094.839844-4.160156 2.34375-5.65625l48-48c3.128906-3.128906 8.183594-3.128906 11.3125 0l48 48c1.503906 1.496094 2.34375 3.535156 2.34375 5.65625zm0 0"/><path d="m152 336.003906h-96c-4.414062 0-8-3.585937-8-8v-120h16v112h80v-112h16v120c0 4.414063-3.585938 8-8 8zm0 0"/><path d="m304 128.003906h-16v-68.691406l-40-40-40 40v68.691406h-16v-72c0-2.121094.839844-4.160156 2.34375-5.65625l48-48c3.128906-3.128906 8.183594-3.128906 11.3125 0l48 48c1.503906 1.496094 2.34375 3.535156 2.34375 5.65625zm0 0"/><path d="m296 336.003906h-96c-4.414062 0-8-3.585937-8-8v-120h16v112h80v-112h16v120c0 4.414063-3.585938 8-8 8zm0 0"/><path d="m448 128.003906h-16v-68.691406l-40-40-40 40v68.691406h-16v-72c0-2.121094.839844-4.160156 2.34375-5.65625l48-48c3.128906-3.128906 8.183594-3.128906 11.3125 0l48 48c1.503906 1.496094 2.34375 3.535156 2.34375 5.65625zm0 0"/><path d="m440 336.003906h-96c-4.414062 0-8-3.585937-8-8v-120h16v112h80v-112h16v120c0 4.414063-3.585938 8-8 8zm0 0"/><path d="m488 216.003906h-480c-4.414062 0-8-3.585937-8-8v-80c0-4.417968 3.585938-8 8-8h480c4.414062 0 8 3.582032 8 8v80c0 4.414063-3.585938 8-8 8zm-472-16h464v-64h-464zm0 0"/></svg>