<svg height="496pt" viewBox="0 0 496 496" width="496pt" xmlns="http://www.w3.org/2000/svg"><path d="m424 487.972656-7.832031-7.832031c-61.574219-61.578125-96.167969-145.089844-96.167969-232.167969h-144c0 87.078125-34.59375 170.589844-96.167969 232.167969l-7.832031 7.832031" fill="#b8cbd9"/><path d="m326.375 312.363281c-4.207031-21.046875-6.375-42.609375-6.375-64.390625h-144c0 79.636719-29.007812 156.238282-81.054688 215.863282 16.765626 5.277343 34.582032 8.136718 53.054688 8.136718 91.3125 0 166.695312-69.53125 178.375-159.609375zm0 0" fill="#e8eff4"/><path d="m176 319.972656c8.839844 0 16 7.160156 16 16v40c0 8.839844 7.160156 16 16 16s16-7.160156 16-16v-64c0-8.839844 7.160156-16 16-16s16 7.160156 16 16v32c0 8.839844 7.160156 16 16 16s16-7.160156 16-16v-48c0-8.839844 7.160156-16 16-16h17.574219c-1.039063-10.59375-1.574219-21.265625-1.574219-32h-144c0 24.421875-2.816406 48.542969-8.089844 72zm0 0" fill="#e4725f"/><path d="m136 199.972656c17.671875 0 32-14.328125 32-32s-14.328125-32-32-32c0-26.511718-21.488281-48-48-48s-48 21.488282-48 48c-17.671875 0-32 14.328125-32 32s14.328125 32 32 32zm0 0" fill="#66acd7"/><path d="m112 115.972656c0-8.152344-1.335938-16-3.703125-23.457031-6.175781-2.878906-13.03125-4.542969-20.296875-4.542969-26.511719 0-48 21.488282-48 48-17.671875 0-32 14.328125-32 32 0 15.167969 10.585938 27.804688 24.742188 31.101563 44.761718-5.6875 79.257812-40.671875 79.257812-83.101563zm0 0" fill="#8bd2f5"/><path d="m456 199.972656c17.671875 0 32-14.328125 32-32s-14.328125-32-32-32c0-26.511718-21.488281-48-48-48s-48 21.488282-48 48c-17.671875 0-32 14.328125-32 32s14.328125 32 32 32zm0 0" fill="#66acd7"/><path d="m432 115.972656c0-8.152344-1.335938-16-3.703125-23.457031-6.175781-2.878906-13.03125-4.542969-20.296875-4.542969-26.511719 0-48 21.488282-48 48-17.671875 0-32 14.328125-32 32 0 15.167969 10.585938 27.804688 24.742188 31.101563 44.761718-5.6875 79.257812-40.671875 79.257812-83.101563zm0 0" fill="#8bd2f5"/><path d="m248 135.972656c-39.542969 0-70.710938-35.867187-62.753906-76.839844 4.851562-24.953124 24.960937-45.066406 49.914062-49.914062 40.976563-7.960938 76.839844 23.207031 76.839844 62.753906v11.710938c0 18.113281-7.191406 35.480468-20 48.289062-12.808594 12.804688-20 30.175782-20 48.285156v27.714844l-8.0625-5.378906c-24.953125-16.628906-39.9375-44.640625-39.9375-74.621094" fill="#b8cbd9"/><path d="m235.160156 9.21875c-24.953125 4.847656-45.0625 24.960938-49.914062 49.914062-6.261719 32.246094 11.746094 61.246094 38.960937 72.167969.234375 6.246094.984375 12.40625 2.472657 18.367188 36.726562-21.792969 61.320312-60.914063 61.320312-105.695313 0-8.105468-.863281-16.007812-2.390625-23.683594-13.722656-10-31.511719-14.75-50.449219-11.070312zm0 0" fill="#e8eff4"/><path d="m272 215.972656c-1.550781 0-3.105469-.449218-4.441406-1.34375l-8.0625-5.378906c-24.808594-16.535156-40.503906-43.207031-43.121094-72.566406-9.117188-4.457032-17.304688-10.863282-23.960938-18.9375-13.734374-16.664063-19.207031-38.582032-15.023437-60.144532 5.472656-28.167968 28.074219-50.765624 56.242187-56.230468 21.550782-4.175782 43.480469 1.289062 60.136719 15.023437 16.671875 13.738281 26.230469 33.992188 26.230469 55.578125v11.710938c0 20.375-7.9375 39.535156-22.34375 53.945312-11.382812 11.382813-17.65625 26.527344-17.65625 42.628906v27.714844c0 2.949219-1.625 5.664063-4.222656 7.054688-1.183594.632812-2.480469.945312-3.777344.945312zm-38.710938-73.503906c3.566407 19.933594 14.445313 37.902344 30.710938 50.34375v-12.554688c0-20.375 7.9375-39.535156 22.34375-53.941406 11.382812-11.386718 17.65625-26.53125 17.65625-42.632812v-11.710938c0-16.785156-7.441406-32.546875-20.40625-43.234375-12.953125-10.6875-30.058594-14.925781-46.90625-11.664062-21.832031 4.242187-39.34375 21.761719-43.582031 43.585937-3.273438 16.847656.972656 33.949219 11.664062 46.910156 10.6875 12.960938 26.4375 20.402344 43.230469 20.402344v16c-5 0-9.921875-.511718-14.710938-1.503906zm0 0"/><path d="m248 111.972656v-16c13.230469 0 24-10.769531 24-24h16c0 22.054688-17.945312 40-40 40zm0 0"/><path d="m0 479.972656h496v16h-496zm0 0"/><path d="m418.34375 493.636719-7.832031-7.832031c-61.640625-61.648438-96.40625-142.992188-98.414063-229.832032h-128.195312c-2.007813 86.839844-36.78125 168.183594-98.414063 229.824219l-7.832031 7.832031-11.3125-11.320312 7.832031-7.832032c60.503907-60.496093 93.824219-140.945312 93.824219-226.503906 0-4.417968 3.574219-8 8-8h144c4.425781 0 8 3.582032 8 8 0 85.558594 33.320312 166.007813 93.824219 226.511719l7.832031 7.832031zm0 0"/><path d="m144 135.972656h-16c0-22.058594-17.945312-40-40-40s-40 17.941406-40 40h-16c0-30.882812 25.128906-56 56-56s56 25.117188 56 56zm0 0"/><path d="m136 207.972656v-16c13.230469 0 24-10.769531 24-24 0-13.234375-10.769531-24-24-24s-24 10.765625-24 24h-16c0-22.058594 17.945312-40 40-40s40 17.941406 40 40c0 22.054688-17.945312 40-40 40zm0 0"/><path d="m136 207.972656h-96c-22.054688 0-40-17.945312-40-40 0-22.058594 17.945312-40 40-40s40 17.941406 40 40h-16c0-13.234375-10.769531-24-24-24s-24 10.765625-24 24c0 13.230469 10.769531 24 24 24h96zm0 0"/><path d="m464 135.972656h-16c0-22.058594-17.945312-40-40-40s-40 17.941406-40 40h-16c0-30.882812 25.128906-56 56-56s56 25.117188 56 56zm0 0"/><path d="m456 207.972656h-96c-22.054688 0-40-17.945312-40-40 0-22.058594 17.945312-40 40-40s40 17.941406 40 40h-16c0-13.234375-10.769531-24-24-24s-24 10.765625-24 24c0 13.230469 10.769531 24 24 24h96c13.230469 0 24-10.769531 24-24 0-13.234375-10.769531-24-24-24s-24 10.765625-24 24h-16c0-22.058594 17.945312-40 40-40s40 17.941406 40 40c0 22.054688-17.945312 40-40 40zm0 0"/><path d="m208 399.972656c-13.230469 0-24-10.769531-24-24v-40c0-4.410156-3.585938-8-8-8h-8v-16h8c13.230469 0 24 10.765625 24 24v40c0 4.40625 3.585938 8 8 8s8-3.59375 8-8v-64c0-13.234375 10.769531-24 24-24s24 10.765625 24 24v32c0 4.40625 3.585938 8 8 8s8-3.59375 8-8v-48c0-13.234375 10.769531-24 24-24h16v16h-16c-4.414062 0-8 3.589844-8 8v48c0 13.230469-10.769531 24-24 24s-24-10.769531-24-24v-32c0-4.410156-3.585938-8-8-8s-8 3.589844-8 8v64c0 13.230469-10.769531 24-24 24zm0 0"/></svg>