<svg height="496pt" viewBox="0 0 496 496" width="496pt" xmlns="http://www.w3.org/2000/svg"><path d="m144 168c0 8.835938-7.164062 16-16 16s-16-7.164062-16-16 7.164062-16 16-16 16 7.164062 16 16zm0 0" fill="#8bd2f5"/><path d="m104 104c0 17.671875-14.328125 32-32 32s-32-14.328125-32-32 14.328125-32 32-32 32 14.328125 32 32zm0 0" fill="#8bd2f5"/><path d="m488 248c0 88.367188-71.632812 160-160 160s-160-71.632812-160-160 71.632812-160 160-160 160 71.632812 160 160zm0 0" fill="#af4a47"/><path d="m328 88c-88.367188 0-160 71.632812-160 160 0 38.0625 13.351562 72.984375 35.542969 100.457031 27.472656 22.191407 62.394531 35.542969 100.457031 35.542969 88.367188 0 160-71.632812 160-160 0-38.0625-13.351562-72.984375-35.542969-100.457031-27.472656-22.191407-62.394531-35.542969-100.457031-35.542969zm0 0" fill="#e4725f"/><path d="m216 384c0 57.4375-46.5625 104-104 104s-104-46.5625-104-104 46.5625-104 104-104 104 46.5625 104 104zm0 0" fill="#b64f86"/><path d="m8 384c0 34.359375 16.734375 64.734375 42.414062 83.671875 9.386719 2.777344 19.296876 4.328125 29.585938 4.328125 57.441406 0 104-46.558594 104-104 0-34.359375-16.734375-64.734375-42.414062-83.671875-9.386719-2.777344-19.296876-4.328125-29.585938-4.328125-57.441406 0-104 46.558594-104 104zm0 0" fill="#e087a6"/><path d="m184 264c0-26.507812-32.234375-48-72-48s-72 21.492188-72 48 32.234375 48 72 48 72-21.492188 72-48zm0 0" fill="#b64f86"/><path d="m432 72c0-35.347656-46.5625-64-104-64s-104 28.652344-104 64 46.5625 64 104 64 104-28.652344 104-64zm0 0" fill="#af4a47"/><path d="m400 72c0-17.671875-32.234375-32-72-32s-72 14.328125-72 32 32.234375 32 72 32 72-14.328125 72-32zm0 0" fill="#e4725f"/><path d="m152 264c0-8.835938-17.910156-16-40-16s-40 7.164062-40 16 17.910156 16 40 16 40-7.164062 40-16zm0 0" fill="#e087a6"/><path d="m328 112c-45.609375 0-80-17.191406-80-40s34.390625-40 80-40 80 17.191406 80 40-34.390625 40-80 40zm0-64c-39.070312 0-64 14.214844-64 24s24.929688 24 64 24 64-14.214844 64-24-24.929688-24-64-24zm0 0"/><path d="m328 144c-62.808594 0-112-31.625-112-72s49.191406-72 112-72 112 31.625 112 72-49.191406 72-112 72zm0-128c-52.039062 0-96 25.648438-96 56s43.960938 56 96 56 96-25.648438 96-56-43.960938-56-96-56zm0 0"/><path d="m176.542969 234.992188-15.933594-1.351563c4.511719-53.359375 34.6875-101.800781 80.703125-129.570313l8.261719 13.699219c-41.636719 25.125-68.933594 68.949219-73.03125 117.222657zm0 0"/><path d="m328 416c-45.894531 0-88.769531-18.167969-120.703125-51.144531l11.503906-11.136719c28.886719 29.847656 67.671875 46.28125 109.199219 46.28125 83.816406 0 152-68.183594 152-152 0-53.742188-27.503906-102.433594-73.574219-130.238281l8.261719-13.699219c50.914062 30.730469 81.3125 84.539062 81.3125 143.9375 0 92.640625-75.367188 168-168 168zm0 0"/><path d="m328 384v-16c66.167969 0 120-53.832031 120-120h16c0 74.992188-61.007812 136-136 136zm0 0"/><path d="m112 320c-44.855469 0-80-24.601562-80-56s35.144531-56 80-56 80 24.601562 80 56-35.144531 56-80 56zm0-96c-34.695312 0-64 18.320312-64 40s29.304688 40 64 40 64-18.320312 64-40-29.304688-40-64-40zm0 0"/><path d="m112 288c-23.121094 0-48-7.511719-48-24s24.878906-24 48-24 48 7.511719 48 24-24.878906 24-48 24zm-31.800781-24c2.058593 2.617188 13.015625 8 31.800781 8s29.742188-5.382812 31.800781-8c-2.058593-2.617188-13.015625-8-31.800781-8s-29.742188 5.382812-31.800781 8zm0 0"/><path d="m112 496c-61.761719 0-112-50.238281-112-112 0-39.183594 19.945312-74.855469 53.34375-95.425781l8.390625 13.625c-28.636719 17.632812-45.734375 48.214843-45.734375 81.800781 0 52.9375 43.0625 96 96 96s96-43.0625 96-96c0-33.585938-17.097656-64.167969-45.726562-81.800781l8.390624-13.625c33.398438 20.570312 53.335938 56.242187 53.335938 95.425781 0 61.761719-50.238281 112-112 112zm0 0"/><path d="m112 464v-16c35.289062 0 64-28.710938 64-64h16c0 44.113281-35.886719 80-80 80zm0 0"/><path d="m128 192c-13.230469 0-24-10.769531-24-24s10.769531-24 24-24 24 10.769531 24 24-10.769531 24-24 24zm0-32c-4.414062 0-8 3.59375-8 8s3.585938 8 8 8 8-3.59375 8-8-3.585938-8-8-8zm0 0"/><path d="m72 144c-22.054688 0-40-17.945312-40-40s17.945312-40 40-40 40 17.945312 40 40-17.945312 40-40 40zm0-64c-13.230469 0-24 10.769531-24 24s10.769531 24 24 24 24-10.769531 24-24-10.769531-24-24-24zm0 0"/></svg>