<svg height="496pt" viewBox="0 0 496.004 496" width="496pt" xmlns="http://www.w3.org/2000/svg"><path d="m176.003906 152.003906 168 168 104-104-168-168" fill="#e4725f"/><path d="m136 136.007812 127.996094-127.996093 32.003906 32-128 127.996093zm0 0" fill="#af4a47"/><path d="m328 328.007812 127.996094-127.996093 32 32-127.996094 127.996093zm0 0" fill="#af4a47"/><path d="m336.003906 104.003906 40-40 56 56-40 40" fill="#c18e59"/><path d="m64.003906 376.003906 168-168 56 56-168 168" fill="#c18e59"/><path d="m7.996094 400.003906 40-39.996094 88 87.996094-40 40zm0 0" fill="#976947"/><path d="m397.65625 165.660156-11.308594-11.3125 34.34375-34.34375-44.6875-44.6875-34.347656 34.34375-11.308594-11.3125 40-40c3.125-3.128906 8.183594-3.128906 11.308594 0l56 56c3.128906 3.128906 3.128906 8.183594 0 11.3125zm0 0"/><path d="m114.34375 426.34375 167.996094-167.996094 11.3125 11.316406-167.996094 167.992188zm0 0"/><path d="m58.34375 370.34375 167.996094-167.996094 11.3125 11.316406-167.996094 167.992188zm0 0"/><path d="m168.003906 176.003906c-2.050781 0-4.097656-.785156-5.65625-2.34375l-32-32c-3.128906-3.128906-3.128906-8.183594 0-11.3125l128-128c3.125-3.128906 8.183594-3.128906 11.308594 0l32 32c3.128906 3.128906 3.128906 8.183594 0 11.3125l-128 128c-1.558594 1.558594-3.605469 2.34375-5.652344 2.34375zm-20.691406-40 20.691406 20.6875 116.6875-116.6875-20.6875-20.6875zm0 0"/><path d="m360.003906 368.003906c-2.050781 0-4.097656-.785156-5.65625-2.34375l-32-32c-3.128906-3.128906-3.128906-8.183594 0-11.3125l128-128c3.125-3.128906 8.183594-3.128906 11.308594 0l32 32c3.128906 3.128906 3.128906 8.183594 0 11.3125l-128 128c-1.558594 1.558594-3.605469 2.34375-5.652344 2.34375zm-20.691406-40 20.691406 20.6875 116.6875-116.6875-20.6875-20.6875zm0 0"/><path d="m274.34375 53.664062 11.3125-11.3125 167.996094 167.996094-11.3125 11.3125zm0 0"/><path d="m170.34375 157.664062 11.3125-11.316406 167.996094 167.996094-11.3125 11.316406zm0 0"/><path d="m250.34375 77.664062 11.316406-11.3125 111.996094 112-11.3125 11.3125zm0 0"/><path d="m378.34375 205.664062 11.3125-11.3125 15.996094 15.996094-11.3125 11.3125zm0 0"/><path d="m96.003906 496.003906c-2.050781 0-4.097656-.785156-5.65625-2.34375l-88-88c-3.128906-3.128906-3.128906-8.183594 0-11.3125l40-40c3.125-3.128906 8.183594-3.128906 11.308594 0l88 88c3.128906 3.128906 3.128906 8.183594 0 11.3125l-40 40c-1.558594 1.558594-3.605469 2.34375-5.652344 2.34375zm-76.691406-96 76.691406 76.6875 28.6875-28.6875-76.6875-76.6875zm0 0"/></svg>