<svg height="496pt" viewBox="0 0 496 496" width="496pt" xmlns="http://www.w3.org/2000/svg"><path d="m272 267.144531v-38.296875c41.382812-10.671875 72-48.136718 72-92.855468 0-17.488282-4.671875-33.878907-12.839844-48h-166.3125c-8.175781 14.128906-12.847656 30.519531-12.847656 48.007812 0 44.710938 30.617188 82.183594 72 92.855469v38.296875c-41.382812 10.664062-72 48.128906-72 92.847656 0 17.488281 4.671875 33.878906 12.839844 48h166.3125c8.175781-14.121094 12.847656-30.511719 12.847656-48 0-44.71875-30.617188-82.183594-72-92.855469zm0 0" fill="#b8cbd9"/><path d="m312 136c0 35.34375-28.65625 64-64 64s-64-28.65625-64-64zm0 0" fill="#8bd2f5"/><path d="m312 376c0-35.34375-28.65625-64-64-64s-64 28.65625-64 64zm0 0" fill="#8bd2f5"/><path d="m8 408h480v80h-480zm0 0" fill="#7ecb92"/><path d="m8 408h480v32h-480zm0 0" fill="#568e53"/><path d="m8 8h480v80h-480zm0 0" fill="#7ecb92"/><path d="m8 8h480v32h-480zm0 0" fill="#568e53"/><path d="m72 408v-320h-32v320" fill="#c18e59"/><path d="m456 408v-320h-32v320" fill="#c18e59"/><path d="m488 96h-480c-4.414062 0-8-3.574219-8-8v-80c0-4.425781 3.585938-8 8-8h480c4.414062 0 8 3.574219 8 8v80c0 4.425781-3.585938 8-8 8zm-472-16h464v-64h-464zm0 0"/><path d="m488 496h-480c-4.414062 0-8-3.574219-8-8v-80c0-4.425781 3.585938-8 8-8h480c4.414062 0 8 3.574219 8 8v80c0 4.425781-3.585938 8-8 8zm-472-16h464v-64h-464zm0 0"/><path d="m32 88h16v320h-16zm0 0"/><path d="m64 88h16v320h-16zm0 0"/><path d="m416 88h16v320h-16zm0 0"/><path d="m448 88h16v320h-16zm0 0"/><path d="m8 432h480v16h-480zm0 0"/><path d="m8 32h480v16h-480zm0 0"/><path d="m331.160156 416h-166.320312c-2.855469 0-5.496094-1.519531-6.929688-3.992188-9.09375-15.742187-13.910156-33.726562-13.910156-52.007812 0-45.296875 29.3125-85.089844 72-98.855469v-26.28125c-42.6875-13.773437-72-53.558593-72-98.855469 0-18.28125 4.816406-36.265624 13.921875-52.007812 1.421875-2.480469 4.070313-4 6.917969-4h166.3125c2.855468 0 5.496094 1.519531 6.925781 3.992188 9.105469 15.742187 13.921875 33.726562 13.921875 52.007812 0 45.296875-29.3125 85.089844-72 98.855469v26.28125c42.6875 13.773437 72 53.558593 72 98.855469 0 18.28125-4.816406 36.265624-13.921875 52.007812-1.421875 2.480469-4.070313 4-6.917969 4zm-161.566406-16h156.8125c6.289062-12.320312 9.59375-26.054688 9.59375-40 0-40.089844-27.144531-75.089844-66-85.105469-3.527344-.910156-6-4.09375-6-7.742187v-38.296875c0-3.648438 2.472656-6.832031 6-7.75 38.855469-10.015625 66-45.015625 66-85.105469 0-13.945312-3.304688-27.679688-9.59375-40h-156.8125c-6.289062 12.320312-9.59375 26.054688-9.59375 40 0 40.089844 27.144531 75.089844 66 85.105469 3.527344.910156 6 4.09375 6 7.742187v38.296875c0 3.648438-2.472656 6.832031-6 7.75-38.855469 10.015625-66 45.015625-66 85.105469 0 13.945312 3.304688 27.679688 9.59375 40zm0 0"/><path d="m248 208c-39.695312 0-72-32.296875-72-72 0-4.425781 3.585938-8 8-8h128c4.414062 0 8 3.574219 8 8 0 39.703125-32.304688 72-72 72zm-55.433594-64c3.898438 27.105469 27.265625 48 55.433594 48s51.535156-20.894531 55.433594-48zm0 0"/><path d="m312 384h-128c-4.414062 0-8-3.574219-8-8 0-39.703125 32.304688-72 72-72s72 32.296875 72 72c0 4.425781-3.585938 8-8 8zm-119.433594-16h110.859375c-3.898437-27.105469-27.265625-48-55.433593-48-28.167969 0-51.527344 20.894531-55.425782 48zm0 0"/><path d="m240 200h16v112h-16zm0 0"/></svg>