<svg height="496pt" viewBox="0 0 496 496" width="496pt" xmlns="http://www.w3.org/2000/svg"><path d="m168 248c0 44.183594-35.816406 80-80 80s-80-35.816406-80-80zm0 0" fill="#2d4d83"/><path d="m127.742188 248h-119.742188c0 36.839844 24.9375 67.785156 58.824219 77.070312 35.007812-14.917968 59.105469-43.695312 60.917969-77.070312zm0 0" fill="#4472b2"/><path d="m488 248c0 44.183594-35.816406 80-80 80s-80-35.816406-80-80zm0 0" fill="#2d4d83"/><path d="m447.742188 248h-119.742188c0 36.839844 24.9375 67.785156 58.824219 77.070312 35.007812-14.917968 59.105469-43.695312 60.917969-77.070312zm0 0" fill="#4472b2"/><path d="m328 440h-160c-13.257812 0-24 10.742188-24 24v24h208v-24c0-13.257812-10.742188-24-24-24zm0 0" fill="#c18e59"/><path d="m280 96h184c13.257812 0 24 10.742188 24 24s-10.742188 24-24 24h-184" fill="#f0d365"/><path d="m216 96h-184c-13.257812 0-24 10.742188-24 24s10.742188 24 24 24h184" fill="#f0d365"/><path d="m224 440v-408c0-13.257812 10.742188-24 24-24s24 10.742188 24 24v408" fill="#d1a339"/><path d="m288 120c0 22.089844-17.910156 40-40 40s-40-17.910156-40-40 17.910156-40 40-40 40 17.910156 40 40zm0 0" fill="#a66d43"/><path d="m248 168c-26.472656 0-48-21.527344-48-48s21.527344-48 48-48 48 21.527344 48 48-21.527344 48-48 48zm0-80c-17.648438 0-32 14.351562-32 32s14.351562 32 32 32 32-14.351562 32-32-14.351562-32-32-32zm0 0"/><path d="m280 88h-16v-56c0-8.824219-7.175781-16-16-16s-16 7.175781-16 16v56h-16v-56c0-17.648438 14.351562-32 32-32s32 14.351562 32 32zm0 0"/><path d="m464 152h-184v-16h184c8.824219 0 16-7.175781 16-16s-7.175781-16-16-16h-184v-16h184c17.648438 0 32 14.351562 32 32s-14.351562 32-32 32zm0 0"/><path d="m216 152h-184c-17.648438 0-32-14.351562-32-32s14.351562-32 32-32h184v16h-184c-8.824219 0-16 7.175781-16 16s7.175781 16 16 16h184zm0 0"/><path d="m352 496h-208c-4.414062 0-8-3.574219-8-8v-24c0-17.648438 14.351562-32 32-32h160c17.648438 0 32 14.351562 32 32v24c0 4.425781-3.585938 8-8 8zm-200-16h192v-16c0-8.824219-7.175781-16-16-16h-160c-8.824219 0-16 7.175781-16 16zm0 0"/><path d="m216 152h16v288h-16zm0 0"/><path d="m264 152h16v288h-16zm0 0"/><path d="m88 336c-48.519531 0-88-39.480469-88-88 0-4.425781 3.585938-8 8-8h160c4.414062 0 8 3.574219 8 8 0 48.519531-39.480469 88-88 88zm-71.558594-80c3.992188 35.953125 34.558594 64 71.558594 64s67.566406-28.046875 71.558594-64zm0 0"/><path d="m145.183594 252.191406-57.183594-92.925781-57.183594 92.925781-13.625-8.390625 64-104c2.914063-4.738281 10.710938-4.738281 13.625 0l64 104zm0 0"/><path d="m408 336c-48.519531 0-88-39.480469-88-88 0-4.425781 3.585938-8 8-8h160c4.414062 0 8 3.574219 8 8 0 48.519531-39.480469 88-88 88zm-71.558594-80c3.992188 35.953125 34.558594 64 71.558594 64s67.566406-28.046875 71.558594-64zm0 0"/><path d="m465.183594 252.191406-57.183594-92.925781-57.183594 92.925781-13.625-8.390625 64-104c2.914063-4.738281 10.710938-4.738281 13.625 0l64 104zm0 0"/></svg>