<svg height="496pt" viewBox="-88 0 496 496" width="496pt" xmlns="http://www.w3.org/2000/svg"><path d="m160 8c83.945312 0 152 60.886719 152 136 0 65.28125-51.433594 119.769531-120 132.921875v27.078125h48c17.671875 0 32 14.328125 32 32s-14.328125 32-32 32h-48v32h64c17.671875 0 32 14.328125 32 32s-14.328125 32-32 32h-65.128906c-3.566406 13.777344-15.976563 24-30.871094 24-17.671875 0-32-14.328125-32-32v-179.078125c-68.566406-13.152344-120-67.640625-120-132.921875 0-75.113281 68.054688-136 152-136zm0 0" fill="#e39854"/><path d="m248 144c0-39.765625-39.398438-72-88-72s-88 32.234375-88 72 39.398438 72 88 72 88-32.234375 88-72zm0 0" fill="#fff"/><path d="m160 224c-52.9375 0-96-35.886719-96-80s43.0625-80 96-80 96 35.886719 96 80-43.0625 80-96 80zm0-144c-44.113281 0-80 28.710938-80 64s35.886719 64 80 64 80-28.710938 80-64-35.886719-64-80-64zm0 0"/><path d="m160 496c-22.054688 0-40-17.945312-40-40v-172.601562c-69.921875-16.214844-120-73.894532-120-139.398438 0-79.398438 71.777344-144 160-144s160 64.601562 160 144c0 65.503906-50.078125 123.183594-120 139.398438v12.601562h40c22.054688 0 40 17.945312 40 40s-17.945312 40-40 40h-40v16h56c22.054688 0 40 17.945312 40 40s-17.945312 40-40 40h-59.457031c-6.261719 14.390625-20.519531 24-36.542969 24zm0-480c-79.398438 0-144 57.425781-144 128 0 59.847656 47.734375 112.449219 113.503906 125.0625 3.777344.730469 6.496094 4.027344 6.496094 7.859375v179.078125c0 13.230469 10.769531 24 24 24 10.871094 0 20.375-7.398438 23.121094-18 .910156-3.527344 4.101562-6 7.742187-6h65.136719c13.230469 0 24-10.769531 24-24s-10.769531-24-24-24h-64c-4.414062 0-8-3.585938-8-8v-32c0-4.414062 3.585938-8 8-8h48c13.230469 0 24-10.769531 24-24s-10.769531-24-24-24h-48c-4.414062 0-8-3.585938-8-8v-27.078125c0-3.832031 2.71875-7.136719 6.496094-7.859375 65.769531-12.613281 113.503906-65.214844 113.503906-125.0625 0-70.574219-64.601562-128-144-128zm0 0"/></svg>