<svg height="496pt" viewBox="-40 0 496 496" width="496pt" xmlns="http://www.w3.org/2000/svg"><path d="m384 8 23.742188 356.144531c.167968 2.566407.257812 5.144531.257812 7.71875 0 64.144531-51.992188 116.136719-116.136719 116.136719h-167.726562c-64.144531 0-116.136719-51.992188-116.136719-116.136719 0-2.574219.089844-5.152343.257812-7.726562l23.742188-356.136719h112l-16 296c0 26.511719 21.488281 48 48 48h64c26.511719 0 48-21.488281 48-48l-16-296zm0 0" fill="#af4a47"/><path d="m384 8h-112l5.191406 96h113.207032zm0 0" fill="#b8cbd9"/><path d="m285.824219 263.710938c41.414062-67.214844 66.175781-151.765626 66.175781-243.710938 0-4.023438-.144531-8.007812-.238281-12h-79.761719zm0 0" fill="#e4725f"/><path d="m176 352c-26.511719 0-48-21.488281-48-48l16-296h-112l-23.742188 356.144531c-.167968 2.566407-.257812 5.144531-.257812 7.71875 0 15.160157 2.992188 29.601563 8.273438 42.878907 7.839843.753906 15.734374 1.257812 23.726562 1.257812 62.71875 0 121.070312-23.574219 169.984375-64zm0 0" fill="#e4725f"/><path d="m351.761719 8h-79.761719l5.191406 96h67.710938c4.609375-27.078125 7.097656-55.167969 7.097656-84 0-4.023438-.144531-8.007812-.238281-12zm0 0" fill="#e8eff4"/><path d="m25.601562 104h113.207032l5.191406-96h-112zm0 0" fill="#e8eff4"/><path d="m291.863281 496h-167.726562c-68.449219 0-124.136719-55.6875-124.136719-124.136719 0-2.757812.0976562-5.511719.28125-8.253906l23.734375-356.136719c.28125-4.207031 3.777344-7.472656 7.984375-7.472656h112c2.191406 0 4.296875.902344 5.808594 2.496094 1.503906 1.59375 2.296875 3.742187 2.175781 5.929687l-16 296c.015625 21.628907 17.960937 39.574219 40.015625 39.574219h64c22.054688 0 40-17.945312 40-40l-15.992188-295.566406c-.121093-2.1875.671876-4.335938 2.175782-5.929688 1.519531-1.601562 3.625-2.503906 5.816406-2.503906h112c4.207031 0 7.703125 3.265625 7.984375 7.472656l23.742187 356.144532c.175782 2.734374.273438 5.496093.273438 8.246093 0 68.449219-55.6875 124.136719-124.136719 124.136719zm-252.375-480-23.25 348.671875c-.160156 2.398437-.238281 4.800781-.238281 7.191406 0 59.632813 48.503906 108.136719 108.136719 108.136719h167.734375c59.625 0 108.128906-48.503906 108.128906-108.136719 0-2.398437-.078125-4.800781-.238281-7.191406l-23.25-348.671875h-96.0625l15.542969 287.566406c.007812 31.304688-25.113282 56.433594-55.992188 56.433594h-64c-30.878906 0-56-25.128906-56-56l15.550781-288zm0 0"/><path d="m24 96h120v16h-120zm0 0"/><path d="m280 96h112v16h-112zm0 0"/></svg>