<svg height="496pt" viewBox="0 0 496 496" width="496pt" xmlns="http://www.w3.org/2000/svg"><path d="m488 143.769531c0-74.984375-60.785156-135.769531-135.769531-135.769531-36.007813 0-70.535157 14.304688-96 39.769531l-208.460938 208.460938c-25.464843 25.464843-39.769531 60-39.769531 96 0 74.984375 60.785156 135.769531 135.769531 135.769531 36.007813 0 70.535157-14.304688 96-39.769531l208.46875-208.46875c25.457031-25.457031 39.761719-59.992188 39.761719-95.992188zm0 0" fill="#b8cbd9"/><path d="m152 152 192 192 104.230469-104.230469c25.464843-25.464843 39.769531-59.992187 39.769531-96 0-74.984375-60.785156-135.769531-135.769531-135.769531-36.007813 0-70.535157 14.304688-96 39.769531zm0 0" fill="#568e53"/><path d="m352.230469 8c-36.007813 0-70.535157 14.304688-96 39.769531l-208.460938 208.460938c-20.625 20.625-33.769531 47.242187-38.082031 75.738281 37.039062 17.960938 78.511719 28.03125 122.3125 28.03125 156.847656 0 284-128.945312 284-288 0-17.128906-1.558594-33.878906-4.382812-50.183594-17.960938-8.761718-38.058594-13.816406-59.386719-13.816406zm0 0" fill="#e8eff4"/><path d="m352.230469 8c-36.007813 0-70.535157 14.304688-96 39.769531l-104.230469 104.230469 150.398438 150.398438c68.976562-52.542969 113.601562-136.183594 113.601562-230.398438 0-17.128906-1.558594-33.878906-4.382812-50.183594-17.960938-8.761718-38.058594-13.816406-59.386719-13.816406zm0 0" fill="#7ecb92"/><path d="m112 400c0 13.253906-10.746094 24-24 24s-24-10.746094-24-24 10.746094-24 24-24 24 10.746094 24 24zm0 0" fill="#fff"/><path d="m144 304c0 22.089844-17.910156 40-40 40s-40-17.910156-40-40 17.910156-40 40-40 40 17.910156 40 40zm0 0" fill="#fff"/><path d="m143.769531 496c-79.273437 0-143.769531-64.496094-143.769531-143.769531 0-38.398438 14.953125-74.503907 42.113281-101.65625l208.460938-208.460938c27.160156-27.160156 63.257812-42.113281 101.65625-42.113281 79.273437 0 143.769531 64.496094 143.769531 143.769531 0 38.398438-14.953125 74.503907-42.113281 101.65625l-208.460938 208.460938c-27.160156 27.160156-63.257812 42.113281-101.65625 42.113281zm208.460938-480c-34.125 0-66.207031 13.289062-90.34375 37.425781l-208.460938 208.460938c-24.136719 24.136719-37.425781 56.226562-37.425781 90.34375 0 70.449219 57.3125 127.769531 127.769531 127.769531 34.125 0 66.207031-13.289062 90.34375-37.425781l208.472657-208.46875c24.125-24.128907 37.414062-56.21875 37.414062-90.335938 0-70.449219-57.3125-127.769531-127.769531-127.769531zm0 0"/><path d="m146.339844 157.65625 11.3125-11.316406 191.996094 192-11.3125 11.3125zm0 0"/><path d="m349.65625 301.65625-11.3125-11.3125 82.175781-82.175781c17.71875-17.71875 27.480469-41.289063 27.480469-66.34375 0-25.054688-9.761719-48.625-27.480469-66.34375l11.3125-11.3125c20.742188 20.742187 32.167969 48.328125 32.167969 77.65625s-11.425781 56.910156-32.167969 77.65625zm0 0"/><path d="m88 432c-17.648438 0-32-14.351562-32-32s14.351562-32 32-32 32 14.351562 32 32-14.351562 32-32 32zm0-48c-8.824219 0-16 7.175781-16 16s7.175781 16 16 16 16-7.175781 16-16-7.175781-16-16-16zm0 0"/><path d="m104 352c-26.472656 0-48-21.527344-48-48s21.527344-48 48-48 48 21.527344 48 48-21.527344 48-48 48zm0-80c-17.648438 0-32 14.351562-32 32s14.351562 32 32 32 32-14.351562 32-32-14.351562-32-32-32zm0 0"/></svg>