<svg height="496pt" viewBox="-48 0 496 496" width="496pt" xmlns="http://www.w3.org/2000/svg"><path d="m380.953125 77.960938 11.050781 10.039062-6.730468 55.535156c-16.246094 134.03125-82.398438 257.023438-185.269532 344.464844-102.875-87.441406-169.027344-210.433594-185.273437-344.464844l-6.726563-55.535156 11.046875-10.039062c49.511719-45.015626 114.03125-69.960938 180.953125-69.960938 66.917969 0 131.4375 24.945312 180.949219 69.960938zm0 0" fill="#f0d365"/><path d="m272.003906 359.105469c36.589844-53.554688 60.703125-115.195313 69.695313-180.410157l10.304687-74.695312c-23.480468-20.542969-50.753906-35.824219-80-45.191406zm0 0" fill="#976947"/><path d="m197.042969 48c-23.625 0-46.898438 3.710938-69.039063 10.808594v300.289062c20.300782 29.710938 44.390625 56.972656 72 80.894532v-391.992188zm0 0" fill="#976947"/><path d="m128.003906 359.105469v-300.296875c-29.25 9.367187-56.523437 24.648437-80 45.191406l10.300782 74.695312c8.992187 65.214844 33.105468 126.847657 69.699218 180.410157zm0 0" fill="#c18e59"/><path d="m272.003906 58.808594c-22.144531-7.097656-45.417968-10.808594-69.042968-10.808594h-2.957032v392c27.605469-23.921875 51.695313-51.183594 72-80.894531zm0 0" fill="#c18e59"/><path d="m232.003906 136c0 17.671875-14.328125 32-32 32-17.675781 0-32-14.328125-32-32s14.324219-32 32-32c17.671875 0 32 14.328125 32 32zm0 0" fill="#8bd2f5"/><path d="m200.003906 496c-1.839844 0-3.691406-.640625-5.175781-1.902344-104.722656-89.007812-171.496094-213.167968-188.035156-349.601562l-6.7343752-55.535156c-.3124998-2.570313.6406252-5.136719 2.5585942-6.882813l11.050781-10.039063c51.09375-46.453124 117.269531-72.039062 186.335937-72.039062 69.0625 0 135.238282 25.585938 186.335938 72.039062l11.046875 10.039063c1.917969 1.746094 2.871093 4.3125 2.558593 6.882813l-6.726562 55.535156c-16.535156 136.433594-83.3125 260.59375-188.03125 349.601562-1.496094 1.261719-3.34375 1.902344-5.183594 1.902344zm-183.5625-404.855469 6.234375 51.429688c15.773438 130.160156 78.664063 248.808593 177.328125 334.867187 98.664063-86.058594 161.550782-204.707031 177.328125-334.867187l6.230469-51.429688-7.992188-7.265625c-48.144531-43.773437-110.496093-67.878906-175.566406-67.878906-65.074218 0-127.425781 24.105469-175.570312 67.871094zm0 0"/><path d="m200.003906 448c-1.867187 0-3.738281-.65625-5.242187-1.953125-78.847657-68.335937-130.128907-162.894531-144.382813-266.253906l-10.304687-74.695313c-.367188-2.664062.632812-5.335937 2.65625-7.113281 42.734375-37.390625 97.535156-57.984375 154.3125-57.984375h5.910156c56.785156 0 111.585937 20.59375 154.3125 57.984375 2.023437 1.777344 3.023437 4.449219 2.65625 7.113281l-10.304687 74.695313c-14.261719 103.359375-65.535157 197.917969-144.382813 266.253906-1.496094 1.296875-3.367187 1.953125-5.230469 1.953125zm-143.480468-340.769531 9.703124 70.371093c13.414063 97.214844 60.832032 186.335938 133.777344 251.734376 72.941406-65.398438 120.359375-154.519532 133.773438-251.734376l9.703125-70.371093c-39.316407-33.0625-89.046875-51.230469-140.519531-51.230469h-5.917969c-51.472657 0-101.199219 18.167969-140.519531 51.230469zm0 0"/><path d="m192.003906 168h16v272h-16zm0 0"/><path d="m192.003906 48h16v56h-16zm0 0"/><path d="m264.003906 56h16v304h-16zm0 0"/><path d="m120.003906 56h16v304h-16zm0 0"/><path d="m200.003906 176c-22.058594 0-40-17.945312-40-40s17.941406-40 40-40c22.054688 0 40 17.945312 40 40s-17.945312 40-40 40zm0-64c-13.234375 0-24 10.769531-24 24s10.765625 24 24 24c13.230469 0 24-10.769531 24-24s-10.769531-24-24-24zm0 0"/></svg>