<svg height="496pt" viewBox="0 0 496 496" width="496pt" xmlns="http://www.w3.org/2000/svg"><path d="m112 344v112c0 17.671875 14.328125 32 32 32h208c17.671875 0 32-14.328125 32-32v-112" fill="#976947"/><path d="m304 488v-64c0-17.671875-14.328125-32-32-32h-48c-17.671875 0-32 14.328125-32 32v64" fill="#e8eff4"/><path d="m144 208h208v64h-208zm0 0" fill="#c18e59"/><path d="m280 40c0 17.671875-14.328125 32-32 32s-32-14.328125-32-32 14.328125-32 32-32 32 14.328125 32 32zm0 0" fill="#c18e59"/><path d="m384 344 7.433594 7.433594c10.605468 10.605468 25 16.566406 40 16.566406 31.238281 0 56.566406-25.328125 56.566406-56.566406v-23.433594c0-17.671875-14.328125-32-32-32s-32 14.328125-32 32c0 13.257812-10.742188 24-24 24h-8l-40-40h-208l-40 40h-8c-13.257812 0-24-10.742188-24-24 0-17.671875-14.328125-32-32-32s-32 14.328125-32 32v23.433594c0 31.238281 25.328125 56.566406 56.566406 56.566406 15 0 29.394532-5.960938 40-16.566406l7.433594-7.433594zm0 0" fill="#af4a47"/><path d="m352 208 7.433594 7.433594c10.605468 10.605468 25 16.566406 40 16.566406 31.238281 0 56.566406-25.328125 56.566406-56.566406v-23.433594c0-17.671875-14.328125-32-32-32s-32 14.328125-32 32c0 13.257812-10.742188 24-24 24h-8l-104-104h-16l-104 104h-8c-13.257812 0-24-10.742188-24-24 0-17.671875-14.328125-32-32-32s-32 14.328125-32 32v23.433594c0 31.238281 25.328125 56.566406 56.566406 56.566406 15 0 29.394532-5.960938 40-16.566406l7.433594-7.433594zm0 0" fill="#e4725f"/><path d="m399.433594 240c-17.242188 0-33.464844-6.71875-45.65625-18.910156l-5.089844-5.089844h-201.375l-5.089844 5.089844c-12.191406 12.191406-28.40625 18.910156-45.65625 18.910156-35.597656 0-64.566406-28.96875-64.566406-64.566406v-23.433594c0-22.054688 17.945312-40 40-40s40 17.945312 40 40c0 8.824219 7.175781 16 16 16h4.6875l101.65625-101.65625c1.496094-1.503906 3.527344-2.34375 5.65625-2.34375h16c2.128906 0 4.160156.839844 5.65625 2.34375l101.65625 101.65625h4.6875c8.824219 0 16-7.175781 16-16 0-22.054688 17.945312-40 40-40s40 17.945312 40 40v23.433594c0 35.597656-28.96875 64.566406-64.566406 64.566406zm-255.433594-40h208c2.128906 0 4.160156.839844 5.65625 2.34375l7.433594 7.433594c9.167968 9.167968 21.375 14.222656 34.34375 14.222656 26.773437 0 48.566406-21.792969 48.566406-48.566406v-23.433594c0-13.230469-10.769531-24-24-24s-24 10.769531-24 24c0 17.648438-14.351562 32-32 32h-8c-2.128906 0-4.160156-.839844-5.65625-2.34375l-101.65625-101.65625h-9.375l-101.65625 101.65625c-1.496094 1.503906-3.527344 2.34375-5.65625 2.34375h-8c-17.648438 0-32-14.351562-32-32 0-13.230469-10.769531-24-24-24s-24 10.769531-24 24v23.433594c0 26.773437 21.792969 48.566406 48.566406 48.566406 12.96875 0 25.167969-5.054688 34.34375-14.222656l7.433594-7.433594c1.496094-1.503906 3.527344-2.34375 5.65625-2.34375zm0 0"/><path d="m431.433594 376c-17.242188 0-33.464844-6.71875-45.65625-18.910156l-5.089844-5.089844h-265.375l-5.089844 5.089844c-12.191406 12.191406-28.40625 18.910156-45.65625 18.910156-35.597656 0-64.566406-28.96875-64.566406-64.566406v-23.433594c0-22.054688 17.945312-40 40-40s40 17.945312 40 40c0 8.824219 7.175781 16 16 16h4.6875l37.65625-37.65625c1.496094-1.503906 3.527344-2.34375 5.65625-2.34375h208c2.128906 0 4.160156.839844 5.65625 2.34375l37.65625 37.65625h4.6875c8.824219 0 16-7.175781 16-16 0-22.054688 17.945312-40 40-40s40 17.945312 40 40v23.433594c0 35.597656-28.96875 64.566406-64.566406 64.566406zm-319.433594-40h272c2.128906 0 4.160156.839844 5.65625 2.34375l7.433594 7.433594c9.167968 9.167968 21.375 14.222656 34.34375 14.222656 26.773437 0 48.566406-21.792969 48.566406-48.566406v-23.433594c0-13.230469-10.769531-24-24-24s-24 10.769531-24 24c0 17.648438-14.351562 32-32 32h-8c-2.128906 0-4.160156-.839844-5.65625-2.34375l-37.65625-37.65625h-201.375l-37.65625 37.65625c-1.496094 1.503906-3.527344 2.34375-5.65625 2.34375h-8c-17.648438 0-32-14.351562-32-32 0-13.230469-10.769531-24-24-24s-24 10.769531-24 24v23.433594c0 26.773437 21.792969 48.566406 48.566406 48.566406 12.96875 0 25.167969-5.054688 34.34375-14.222656l7.433594-7.433594c1.496094-1.503906 3.527344-2.34375 5.65625-2.34375zm0 0"/><path d="m136 208h16v64h-16zm0 0"/><path d="m344 208h16v64h-16zm0 0"/><path d="m352 496h-208c-22.054688 0-40-17.945312-40-40v-112h16v112c0 13.230469 10.769531 24 24 24h208c13.230469 0 24-10.769531 24-24v-112h16v112c0 22.054688-17.945312 40-40 40zm0 0"/><path d="m312 488h-16v-64c0-13.230469-10.769531-24-24-24h-48c-13.230469 0-24 10.769531-24 24v64h-16v-64c0-22.054688 17.945312-40 40-40h48c22.054688 0 40 17.945312 40 40zm0 0"/><path d="m248 80c-22.054688 0-40-17.945312-40-40s17.945312-40 40-40 40 17.945312 40 40-17.945312 40-40 40zm0-64c-13.230469 0-24 10.769531-24 24s10.769531 24 24 24 24-10.769531 24-24-10.769531-24-24-24zm0 0"/></svg>