<svg height="496pt" viewBox="0 0 496 496" width="496pt" xmlns="http://www.w3.org/2000/svg"><path d="m136 423.996094c0-39.542969-35.863281-70.710938-76.839844-62.75-24.953125 4.847656-45.0625 24.960937-49.914062 49.910156-7.957032 40.976562 23.210937 76.839844 62.753906 76.839844h11.710938c18.113281 0 35.480468-7.191406 48.289062-20 12.808594-12.804688 30.175781-20 48.289062-20h27.710938l-5.375-8.0625c-16.632812-24.953125-44.640625-39.9375-74.625-39.9375" fill="#b8cbd9"/><path d="m124.503906 387.558594c-13.785156-19.824219-38.425781-31.535156-65.34375-26.304688-24.953125 4.847656-45.0625 24.960938-49.914062 49.910156-4.910156 25.289063 5.105468 48.601563 22.769531 62.769532 41.71875-12.734375 75.664063-44.734375 92.488281-86.375zm0 0" fill="#e8eff4"/><path d="m360 423.996094c0-39.542969 35.863281-70.710938 76.839844-62.75 24.953125 4.847656 45.0625 24.960937 49.914062 49.910156 7.957032 40.976562-23.210937 76.839844-62.753906 76.839844h-11.710938c-18.113281 0-35.480468-7.191406-48.289062-20-12.808594-12.804688-30.175781-20-48.289062-20h-27.710938l5.375-8.0625c16.632812-24.953125 44.640625-39.9375 74.625-39.9375" fill="#b8cbd9"/><path d="m364.671875 400.207031c-28.710937 1.070313-55.28125 15.710938-71.296875 39.726563l-5.375 8.0625h27.710938c18.113281 0 35.480468 7.195312 48.289062 20 .433594.433594.902344.800781 1.34375 1.21875 48.808594-17.929688 82.65625-56.449219 82.65625-101.21875 0-1.148438-.175781-2.269532-.222656-3.414063-3.53125-1.398437-7.152344-2.59375-10.9375-3.328125-32.246094-6.273437-61.246094 11.734375-72.167969 38.953125zm0 0" fill="#e8eff4"/><path d="m112 151.996094h-43.464844c-33.429687 0-60.535156-27.101563-60.535156-60.535156 0-17.453126 7.535156-34.0625 20.671875-45.550782l43.328125-37.914062v48c0 26.515625 21.488281 48 48 48" fill="#e4725f"/><path d="m160 95.996094h-40l-16 72h32" fill="#c18e59"/><path d="m384 151.996094h43.464844c33.429687 0 60.535156-27.101563 60.535156-60.535156 0-17.453126-7.535156-34.0625-20.671875-45.550782l-43.328125-37.914062v48c0 26.515625-21.488281 48-48 48" fill="#af4a47"/><path d="m336 95.996094h40l16 72h-32" fill="#976947"/><path d="m360 167.996094c0-61.855469-50.144531-112-112-112s-112 50.144531-112 112c0 33.464844 14.761719 63.425781 38.03125 83.945312l-30.03125 60.054688 48-16 16 32 40-24 40 24 16-32 48 16-30.03125-60.054688c23.269531-20.519531 38.03125-50.480468 38.03125-83.945312zm0 0" fill="#758190"/><path d="m248 55.996094c-61.855469 0-112 50.144531-112 112 0 33.464844 14.761719 63.425781 38.03125 83.945312l-16.695312 33.382813c87.425781-13.832031 159.441406-81.207031 188.640624-171.542969-19.097656-34.449219-55.800781-57.785156-97.976562-57.785156zm0 0" fill="#8892a0"/><path d="m168 167.996094c0 26.515625 14.328125 48 32 48s32-21.484375 32-48zm0 0" fill="#c18e59"/><path d="m328 167.996094c0 26.515625-14.328125 48-32 48s-32-21.484375-32-48zm0 0" fill="#976947"/><path d="m321.65625 167.996094h-57.65625c0 22.082031 9.953125 40.625 23.480469 46.226562 12.902343-13.871094 24.351562-29.394531 34.175781-46.226562zm0 0" fill="#c18e59"/><path d="m288 335.996094c-1.441406 0-2.855469-.390625-4.121094-1.140625l-35.878906-21.53125-35.878906 21.53125c-1.921875 1.140625-4.210938 1.453125-6.351563.824219-2.144531-.625-3.921875-2.113282-4.921875-4.105469l-12.894531-25.800781-41.417969 13.808593c-3.0625 1.039063-6.464844.097657-8.574218-2.34375-2.121094-2.449219-2.554688-5.929687-1.113282-8.824219l27.351563-54.695312c-23.078125-22.554688-36.199219-53.457031-36.199219-85.722656 0-66.167969 53.832031-120 120-120s120 53.832031 120 120c0 32.265625-13.121094 63.167968-36.191406 85.730468l27.351562 54.695313c1.449219 2.886719 1.007813 6.375-1.113281 8.824219-2.117187 2.441406-5.503906 3.390625-8.574219 2.34375l-41.417968-13.808594-12.894532 25.800781c-1 1.992188-2.785156 3.480469-4.921875 4.105469-.734375.207031-1.484375.308594-2.238281.308594zm-40-40c1.425781 0 2.847656.386718 4.121094 1.144531l32.589844 19.554687 12.136718-24.273437c1.792969-3.558594 5.921875-5.273437 9.6875-4.007813l29.671875 9.886719-21.390625-42.78125c-1.625-3.242187-.855468-7.175781 1.863282-9.578125 22.449218-19.792968 35.320312-48.199218 35.320312-77.945312 0-57.34375-46.65625-104-104-104s-104 46.65625-104 104c0 29.746094 12.871094 58.152344 35.320312 77.945312 2.726563 2.402344 3.496094 6.335938 1.863282 9.578125l-21.390625 42.78125 29.671875-9.886719c3.765625-1.265624 7.894531.449219 9.6875 4.007813l12.136718 24.273437 32.589844-19.554687c1.273438-.757813 2.695313-1.144531 4.121094-1.144531zm0 0"/><path d="m200 223.996094c-22.433594 0-40-24.597656-40-56 0-4.421875 3.574219-8 8-8h64c4.425781 0 8 3.578125 8 8 0 31.402344-17.566406 56-40 56zm-23.496094-48c2.289063 18.011718 12.121094 32 23.496094 32s21.199219-13.988282 23.496094-32zm0 0"/><path d="m296 223.996094c-22.433594 0-40-24.597656-40-56 0-4.421875 3.574219-8 8-8h64c4.425781 0 8 3.578125 8 8 0 31.402344-17.566406 56-40 56zm-23.496094-48c2.289063 18.011718 12.121094 32 23.496094 32s21.199219-13.988282 23.496094-32zm0 0"/><path d="m266.34375 253.652344-18.34375-18.34375-18.34375 18.34375-11.3125-11.308594 24-24c3.128906-3.128906 8.183594-3.128906 11.3125 0l24 24zm0 0"/><path d="m392 175.996094h-32v-16h22.023438l-12.4375-56h-33.585938v-16h40c3.753906 0 6.992188 2.601562 7.816406 6.265625l16 72c.519532 2.367187-.054687 4.839843-1.570312 6.746093-1.527344 1.886719-3.8125 2.988282-6.246094 2.988282zm0 0"/><path d="m427.472656 159.996094h-43.472656v-16h43.472656c28.96875 0 52.527344-23.558594 52.527344-52.527344 0-15.160156-6.535156-29.558594-17.9375-39.527344l-30.0625-26.3125v30.367188c0 30.875-25.128906 56-56 56v-16c22.054688 0 40-17.941406 40-40v-48c0-3.140625 1.832031-5.980469 4.695312-7.277344 2.855469-1.304688 6.207032-.8007812 8.570313 1.253906l43.328125 37.914063c14.878906 13.007812 23.40625 31.816406 23.40625 51.582031 0 37.785156-30.742188 68.527344-68.527344 68.527344zm0 0"/><path d="m136 175.996094h-32c-2.433594 0-4.71875-1.101563-6.238281-2.988282-1.515625-1.898437-2.097657-4.378906-1.570313-6.746093l16-72c.816406-3.664063 4.054688-6.265625 7.808594-6.265625h40v16h-33.585938l-12.4375 56h22.023438zm0 0"/><path d="m112 159.996094h-43.472656c-37.785156 0-68.527344-30.742188-68.527344-68.527344 0-19.765625 8.527344-38.566406 23.40625-51.574219l43.328125-37.914062c2.363281-2.0625002 5.722656-2.566407 8.570313-1.253907 2.863281 1.289063 4.695312 4.128907 4.695312 7.269532v48c0 22.058594 17.945312 40 40 40v16c-30.871094 0-56-25.125-56-56v-30.367188l-30.0625 26.304688c-11.402344 9.96875-17.9375 24.375-17.9375 39.535156 0 28.96875 23.558594 52.527344 52.527344 52.527344h43.472656zm0 0"/><path d="m83.71875 495.996094h-11.71875c-21.574219 0-41.832031-9.558594-55.574219-26.222656-13.738281-16.664063-19.210937-38.574219-15.027343-60.136719 5.472656-28.167969 28.074218-50.773438 56.242187-56.238281 21.519531-4.175782 43.472656 1.289062 60.136719 15.023437 8.070312 6.65625 14.480468 14.839844 18.933594 23.960937 29.359374 2.605469 56.042968 18.3125 72.570312 43.117188l5.375 8.066406c1.632812 2.457032 1.792969 5.609375.398438 8.207032-1.390626 2.601562-4.101563 4.222656-7.054688 4.222656h-27.71875c-16.105469 0-31.234375 6.273437-42.625 17.65625-14.410156 14.410156-33.558594 22.34375-53.9375 22.34375zm-11.871094-127.972656c-3.703125 0-7.441406.359374-11.167968 1.078124-21.832032 4.242188-39.34375 21.761719-43.582032 43.585938-3.273437 16.847656.972656 33.941406 11.664063 46.902344 10.695312 12.96875 26.445312 20.40625 43.238281 20.40625h11.71875c16.105469 0 31.234375-6.269532 42.625-17.652344 14.410156-14.410156 33.558594-22.347656 53.9375-22.347656h12.558594c-12.457032-16.261719-30.414063-27.140625-50.351563-30.710938 1 4.792969 1.511719 9.710938 1.511719 14.710938h-16c0-16.789063-7.441406-32.542969-20.40625-43.230469-10.089844-8.320313-22.707031-12.742187-35.746094-12.742187zm0 0"/><path d="m72 463.996094v-16c13.230469 0 24-10.765625 24-24h16c0 22.058594-17.945312 40-40 40zm0 0"/><path d="m424 495.996094h-11.71875c-20.378906 0-39.527344-7.933594-53.9375-22.34375-11.390625-11.382813-26.519531-17.65625-42.625-17.65625h-27.71875c-2.953125 0-5.664062-1.621094-7.054688-4.222656-1.394531-2.597657-1.234374-5.757813.398438-8.207032l5.375-8.066406c16.527344-24.804688 43.210938-40.503906 72.570312-43.117188 4.464844-9.121093 10.863282-17.304687 18.933594-23.960937 16.664063-13.734375 38.625-19.191406 60.136719-15.023437 28.167969 5.472656 50.777344 28.070312 56.242187 56.238281 4.183594 21.554687-1.289062 43.472656-15.027343 60.136719-13.742188 16.664062-34 26.222656-55.574219 26.222656zm-120.839844-56h12.558594c20.378906 0 39.527344 7.9375 53.9375 22.347656 11.390625 11.382812 26.519531 17.652344 42.625 17.652344h11.71875c16.792969 0 32.542969-7.4375 43.230469-20.40625 10.691406-12.960938 14.9375-30.054688 11.664062-46.902344-4.238281-21.832031-21.757812-39.34375-43.582031-43.585938-16.855469-3.238281-33.953125.984376-46.90625 11.664063-12.964844 10.6875-20.40625 26.441406-20.40625 43.230469h-16c0-5 .511719-9.917969 1.503906-14.710938-19.9375 3.570313-37.894531 14.449219-50.34375 30.710938zm0 0"/><path d="m424 463.996094c-22.054688 0-40-17.941406-40-40h16c0 13.234375 10.769531 24 24 24zm0 0"/></svg>