<svg height="496pt" viewBox="0 0 496 496" width="496pt" xmlns="http://www.w3.org/2000/svg"><path d="m264 208v264c0 8.839844-7.160156 16-16 16s-16-7.160156-16-16v-264" fill="#c18e59"/><path d="m232 392h32v64h-32zm0 0" fill="#976947"/><path d="m440 352c0 8.835938-7.164062 16-16 16s-16-7.164062-16-16 7.164062-16 16-16 16 7.164062 16 16zm0 0" fill="#f0d365"/><path d="m88 352c0 8.835938-7.164062 16-16 16s-16-7.164062-16-16 7.164062-16 16-16 16 7.164062 16 16zm0 0" fill="#f0d365"/><path d="m248 216 85.144531 46.441406c1.871094 1.023438 3.976563 1.558594 6.101563 1.558594 7.050781 0 12.753906-5.703125 12.753906-12.753906v-.238282c0-1.976562-.464844-3.929687-1.34375-5.703124l-38.65625-77.304688 57.503906-28.753906c3.984375-1.988282 6.496094-6.054688 6.496094-10.503906 0-5.183594-3.398438-9.757813-8.367188-11.246094l-71.632812-21.496094-36.6875-80.71875c-2.015625-4.433594-6.441406-7.28125-11.3125-7.28125s-9.296875 2.847656-11.3125 7.28125l-36.6875 80.71875-71.632812 21.488281c-4.96875 1.488281-8.367188 6.0625-8.367188 11.253907 0 4.449218 2.511719 8.523437 6.496094 10.503906l57.503906 28.753906-38.65625 77.3125c-.878906 1.765625-1.34375 3.71875-1.34375 5.695312v.238282c0 7.050781 5.703125 12.753906 12.753906 12.753906 2.132813 0 4.230469-.535156 6.101563-1.558594zm0 0" fill="#2d4d83"/><path d="m310.574219 100.375-14.574219-4.375-36.6875-80.71875c-2.015625-4.433594-6.441406-7.28125-11.3125-7.28125s-9.296875 2.847656-11.3125 7.28125l-36.6875 80.71875-71.632812 21.488281c-4.96875 1.488281-8.367188 6.0625-8.367188 11.246094 0 4.449219 2.511719 8.523437 6.496094 10.503906l57.503906 28.761719-23.785156 47.574219c69.855468-3.460938 128.410156-50.476563 150.359375-115.199219zm0 0" fill="#4472b2"/><path d="m339.246094 272c-3.453125 0-6.878906-.871094-9.917969-2.519531l-81.328125-44.367188-81.320312 44.359375c-3.046876 1.65625-6.480469 2.527344-9.925782 2.527344-11.449218 0-20.753906-9.304688-20.753906-20.753906 0-3.4375.761719-6.636719 2.175781-9.503906l35.089844-70.167969-50.355469-25.167969c-6.734375-3.375-10.910156-10.140625-10.910156-17.664062 0-8.652344 5.792969-16.4375 14.089844-18.910157l68.132812-20.449219 35.183594-77.414062c3.304688-7.265625 10.601562-11.96875 18.59375-11.96875s15.289062 4.703125 18.59375 11.976562l35.183594 77.40625 68.144531 20.449219c8.285156 2.480469 14.078125 10.257813 14.078125 18.910157 0 7.523437-4.175781 14.289062-10.902344 17.664062l-50.363281 25.167969 35.082031 70.152343c1.429688 2.882813 2.183594 6.089844 2.183594 9.28125 0 11.6875-9.304688 20.992188-20.753906 20.992188zm-91.246094-64c1.320312 0 2.640625.328125 3.832031.976562l85.152344 46.449219c2.984375 1.613281 7.015625-.769531 7.015625-4.179687 0-.972656-.167969-1.71875-.503906-2.382813l-38.648438-77.289062c-.945312-1.894531-1.105468-4.09375-.433594-6.109375.664063-2.007813 2.113282-3.671875 4.011719-4.625l57.503907-28.75c1.253906-.617188 2.070312-1.9375 2.070312-3.347656 0-1.636719-1.097656-3.117188-2.664062-3.582032l-71.632813-21.496094c-2.207031-.664062-4.03125-2.25-4.984375-4.351562l-36.6875-80.71875c-1.4375-3.160156-6.625-3.152344-8.0625-.007812l-36.6875 80.726562c-.953125 2.101562-2.777344 3.6875-4.984375 4.351562l-71.625 21.496094c-1.574219.464844-2.671875 1.945313-2.671875 3.582032 0 1.410156.816406 2.730468 2.078125 3.355468l57.507813 28.75c1.894531.953125 3.34375 2.617188 4.007812 4.625.671875 2.015625.511719 4.207032-.433594 6.113282l-38.65625 77.300781c-.335937.640625-.503906 1.386719-.503906 2.121093 0 3.71875 4 6.054688 7.03125 4.40625l85.144531-46.4375c1.183594-.648437 2.503907-.976562 3.824219-.976562zm0 0"/><path d="m248 496c-13.230469 0-24-10.769531-24-24v-248h16v248c0 4.414062 3.585938 8 8 8s8-3.585938 8-8v-248h16v248c0 13.230469-10.769531 24-24 24zm0 0"/><path d="m232 448h32v16h-32zm0 0"/><path d="m232 416h32v16h-32zm0 0"/><path d="m232 384h32v16h-32zm0 0"/><path d="m424 376c-13.230469 0-24-10.769531-24-24s10.769531-24 24-24 24 10.769531 24 24-10.769531 24-24 24zm0-32c-4.414062 0-8 3.585938-8 8s3.585938 8 8 8 8-3.585938 8-8-3.585938-8-8-8zm0 0"/><path d="m416 280h16v32h-16zm0 0"/><path d="m416 392h16v32h-16zm0 0"/><path d="m464 344h32v16h-32zm0 0"/><path d="m352 344h32v16h-32zm0 0"/><path d="m370.339844 309.660156 11.3125-11.3125 24.003906 24-11.3125 11.3125zm0 0"/><path d="m442.339844 381.660156 11.3125-11.3125 24.003906 24-11.316406 11.3125zm0 0"/><path d="m370.339844 394.339844 24-24 11.316406 11.3125-24.003906 24.003906zm0 0"/><path d="m442.339844 322.34375 24-24.003906 11.316406 11.3125-24.003906 24.003906zm0 0"/><path d="m72 376c-13.230469 0-24-10.769531-24-24s10.769531-24 24-24 24 10.769531 24 24-10.769531 24-24 24zm0-32c-4.414062 0-8 3.585938-8 8s3.585938 8 8 8 8-3.585938 8-8-3.585938-8-8-8zm0 0"/><path d="m64 280h16v32h-16zm0 0"/><path d="m64 392h16v32h-16zm0 0"/><path d="m112 344h32v16h-32zm0 0"/><path d="m0 344h32v16h-32zm0 0"/><path d="m18.34375 309.65625 11.3125-11.3125 24 24-11.3125 11.316406zm0 0"/><path d="m90.34375 381.65625 11.3125-11.3125 24 24-11.3125 11.316406zm0 0"/><path d="m18.34375 394.339844 24-24.003906 11.3125 11.316406-24 24zm0 0"/><path d="m90.34375 322.339844 24-24.003906 11.3125 11.316406-24 24zm0 0"/></svg>