<svg height="496pt" viewBox="-40 0 496 496" width="496pt" xmlns="http://www.w3.org/2000/svg"><path d="m8 440v-432h400v384h-352c-26.511719 0-48 21.488281-48 48zm0 0" fill="#568e53"/><path d="m56 488h352v-96h-352c-26.511719 0-48 21.488281-48 48s21.488281 48 48 48zm0 0" fill="#b8cbd9"/><path d="m239.816406 392h-183.816406c-26.511719 0-48 21.488281-48 48 0 2.640625.273438 5.214844.679688 7.742188 20.328124 5.347656 41.511718 8.257812 63.320312 8.257812 63.34375 0 121.585938-23.953125 167.816406-64zm0 0" fill="#e8eff4"/><path d="m8 440c0-26.511719 21.488281-48 48-48h183.816406c63.40625-54.921875 104.183594-140.183594 104.183594-236 0-53.839844-12.921875-104.320312-35.441406-148h-300.558594zm0 0" fill="#7ecb92"/><path d="m64 128 144 208 144-208zm0 0" fill="#d1a339"/><path d="m64 272 144-208 144 208zm0 0" fill="#f0d365"/><path d="m408 496h-352c-30.871094 0-56-25.128906-56-56v-432c0-4.425781 3.574219-8 8-8h400c4.425781 0 8 3.574219 8 8v480c0 4.425781-3.574219 8-8 8zm-392-56c0 22.054688 17.945312 40 40 40h344v-80h-344c-22.054688 0-40 17.945312-40 40zm0-424v384.839844c10.167969-10.382813 24.34375-16.839844 40-16.839844h344v-368zm0 0"/><path d="m352 280h-288c-2.976562 0-5.703125-1.648438-7.089844-4.289062-1.382812-2.632813-1.183594-5.824219.503906-8.261719l144-208c2.984376-4.3125 10.171876-4.3125 13.160157 0l144 208c1.699219 2.445312 1.890625 5.628906.503906 8.261719-1.375 2.640624-4.101563 4.289062-7.078125 4.289062zm-272.734375-16h257.46875l-128.734375-185.945312zm0 0"/><path d="m208 344c-2.625 0-5.089844-1.289062-6.574219-3.449219l-144-208c-1.699219-2.445312-1.890625-5.628906-.503906-8.261719 1.375-2.640624 4.101563-4.289062 7.078125-4.289062h288c2.976562 0 5.703125 1.648438 7.089844 4.289062 1.382812 2.632813 1.183594 5.824219-.503906 8.261719l-144 208c-1.496094 2.160157-3.960938 3.449219-6.585938 3.449219zm-128.734375-208 128.734375 185.945312 128.734375-185.945312zm0 0"/></svg>