<svg height="496pt" viewBox="0 0 496.004 496" width="496pt" xmlns="http://www.w3.org/2000/svg"><path d="m8.003906 408 399.996094-399.996094 80 79.996094-400 400zm0 0" fill="#c18e59"/><path d="m136 264.007812 127.996094-127.996093 96 96-127.996094 127.996093zm0 0" fill="#4472b2"/><path d="m357.65625 229.660156-11.308594-11.3125 130.34375-130.34375-68.6875-68.6875-130.347656 130.34375-11.308594-11.3125 136-136c3.125-3.128906 8.183594-3.128906 11.308594 0l80 80c3.128906 3.128906 3.128906 8.183594 0 11.3125zm0 0"/><path d="m88.003906 496.003906c-2.050781 0-4.097656-.785156-5.65625-2.34375l-80-80c-3.128906-3.128906-3.128906-8.183594 0-11.3125l136-136 11.308594 11.3125-130.34375 130.34375 68.691406 68.6875 130.34375-130.34375 11.308594 11.3125-136 136c-1.558594 1.558594-3.605469 2.34375-5.652344 2.34375zm0 0"/><path d="m232.003906 368.003906c-2.050781 0-4.097656-.785156-5.65625-2.34375l-96-96c-3.128906-3.128906-3.128906-8.183594 0-11.3125l128-128c3.125-3.128906 8.183594-3.128906 11.308594 0l96 96c3.128906 3.128906 3.128906 8.183594 0 11.3125l-128 128c-1.558594 1.558594-3.605469 2.34375-5.652344 2.34375zm-84.691406-104 84.691406 84.6875 116.6875-116.6875-84.6875-84.6875zm0 0"/><path d="m226.34375 165.664062 11.316406-11.3125 104 104-11.316406 11.3125zm0 0"/><path d="m202.34375 189.664062 11.316406-11.3125 104 104-11.316406 11.3125zm0 0"/><path d="m178.34375 213.664062 11.316406-11.3125 104 104-11.316406 11.3125zm0 0"/><path d="m154.34375 237.664062 11.316406-11.316406 104 104-11.316406 11.316406zm0 0"/><path d="m106.34375 410.34375 87.996094-87.996094 11.3125 11.3125-87.996094 87.996094zm0 0"/><path d="m74.34375 442.34375 15.996094-15.996094 11.3125 11.3125-15.996094 15.996094zm0 0"/><path d="m290.34375 162.347656 87.996094-87.996094 11.3125 11.3125-87.996094 87.996094zm0 0"/><path d="m394.34375 58.347656 15.996094-15.996094 11.316406 11.3125-16 15.996094zm0 0"/></svg>