<svg height="496pt" viewBox="0 0 496 496" width="496pt" xmlns="http://www.w3.org/2000/svg"><g fill="#c16b3f"><path d="m200 95.683594 48-88 48 88"/><path d="m296 399.683594-48 88-48-88"/><path d="m96 295.683594-88-48 88-48"/><path d="m400 199.683594 88 48-88 48"/><path d="m176 103.683594-96-24 24 96"/><path d="m320 103.683594 96-24-24 96"/><path d="m320 391.683594 96 24-24-96"/><path d="m176 391.683594-96 24 24-96"/></g><path d="m408 247.683594c0 88.363281-71.632812 160-160 160s-160-71.636719-160-160c0-88.367188 71.632812-160 160-160s160 71.632812 160 160zm0 0" fill="#e39854"/><path d="m248 415.683594c-92.640625 0-168-75.371094-168-168 0-92.632813 75.359375-168 168-168s168 75.367187 168 168c0 92.628906-75.359375 168-168 168zm0-320c-83.816406 0-152 68.183594-152 152 0 83.8125 68.183594 152 152 152s152-68.1875 152-152c0-83.816406-68.183594-152-152-152zm0 0"/><path d="m288.976562 99.515625-40.976562-75.128906-40.976562 75.128906-14.046876-7.65625 48-88c2.808594-5.144531 11.238282-5.144531 14.046876 0l48 88zm0 0"/><path d="m248 495.683594c-2.929688 0-5.625-1.601563-7.023438-4.167969l-48-88 14.046876-7.65625 40.976562 75.117187 40.976562-75.125 14.046876 7.65625-48 88c-1.398438 2.574219-4.09375 4.175782-7.023438 4.175782zm0 0"/><path d="m92.167969 302.707031-88-48c-2.566407-1.402343-4.167969-4.097656-4.167969-7.023437 0-2.929688 1.601562-5.625 4.167969-7.027344l88-48 7.664062 14.050781-75.128906 40.976563 75.128906 40.972656zm0 0"/><path d="m403.832031 302.707031-7.664062-14.050781 75.128906-40.972656-75.128906-40.976563 7.664062-14.050781 88 48c2.566407 1.402344 4.167969 4.097656 4.167969 7.027344 0 2.925781-1.601562 5.621094-4.167969 7.023437zm0 0"/><path d="m96.238281 177.617188-24-96c-.679687-2.726563.121094-5.605469 2.105469-7.589844 1.992188-1.984375 4.871094-2.800782 7.601562-2.105469l96 24-3.882812 15.511719-83.0625-20.769532 20.769531 83.074219zm0 0"/><path d="m399.761719 177.617188-15.523438-3.871094 20.769531-83.070313-83.0625 20.765625-3.882812-15.511718 96-24c2.738281-.6875 5.609375.121093 7.601562 2.105468 1.992188 1.984375 2.785157 4.863282 2.105469 7.589844zm0 0"/><path d="m416 423.683594c-.648438 0-1.296875-.082032-1.945312-.242188l-96-24 3.882812-15.511718 83.0625 20.769531-20.761719-83.082031 15.523438-3.871094 24 96c.679687 2.726562-.121094 5.609375-2.105469 7.59375-1.519531 1.511718-3.558594 2.34375-5.65625 2.34375zm0 0"/><path d="m80 423.683594c-2.097656 0-4.136719-.832032-5.65625-2.34375-1.992188-1.984375-2.785156-4.867188-2.105469-7.59375l24-96 15.523438 3.871094-20.769531 83.074218 83.0625-20.769531 3.882812 15.511719-96 24c-.640625.167968-1.289062.25-1.9375.25zm0 0"/></svg>