<svg height="496pt" viewBox="0 0 496 496" width="496pt" xmlns="http://www.w3.org/2000/svg"><path d="m300.886719 92.878906c12.152343-8.328125 26.625-12.878906 41.578125-12.878906 40.605468 0 73.535156 32.929688 73.535156 73.535156 0 19.503906-7.742188 38.207032-21.535156 52l-146.464844 146.464844 52.886719 51.113281 144.035156-144.035156c27.582031-27.582031 43.078125-64.988281 43.078125-104 0-81.230469-65.847656-147.078125-147.078125-147.078125-34.011719 0-66.800781 11.777344-92.921875 33.070312" fill="#568e53"/><path d="m195.113281 403.121094c-12.152343 8.328125-26.625 12.878906-41.578125 12.878906-40.605468 0-73.535156-32.929688-73.535156-73.535156 0-19.503906 7.742188-38.207032 21.535156-52l146.464844-146.464844-52.894531-51.105469-144.027344 144.027344c-27.582031 27.582031-43.078125 64.988281-43.078125 104 0 81.230469 65.847656 147.078125 147.078125 147.078125 34.011719 0 66.800781-11.777344 92.921875-33.070312" fill="#568e53"/><path d="m92.351562 194.335938c-8-11.992188-12.351562-26.167969-12.351562-40.800782 0-40.605468 32.929688-73.535156 73.535156-73.535156 19.503906 0 38.207032 7.742188 52 21.535156l146.464844 146.464844 51.105469-52.894531-144.027344-144.027344c-27.582031-27.582031-64.988281-43.078125-104-43.078125-81.230469 0-147.078125 65.847656-147.078125 147.078125 0 34.128906 11.863281 67.042969 33.304688 93.210937" fill="#7ecb92"/><path d="m403.648438 301.664062c8 11.992188 12.351562 26.167969 12.351562 40.800782 0 40.605468-32.929688 73.535156-73.535156 73.535156-19.503906 0-38.207032-7.742188-52-21.535156l-146.464844-146.464844-51.113281 52.886719 144.035156 144.035156c27.582031 27.582031 64.988281 43.078125 104 43.078125 81.230469 0 147.078125-65.847656 147.078125-147.078125 0-34.128906-11.863281-67.042969-33.304688-93.210937" fill="#7ecb92"/><path d="m35.121094 253.359375c-22.648438-27.640625-35.121094-62.542969-35.121094-98.28125 0-85.511719 69.566406-155.078125 155.078125-155.078125 41.425781 0 80.371094 16.136719 109.65625 45.425781l144.027344 144.023438-11.3125 11.3125-144.023438-144.027344c-26.273437-26.269531-61.203125-40.734375-98.347656-40.734375-76.6875 0-139.078125 62.390625-139.078125 139.078125 0 32.050781 11.183594 63.355469 31.496094 88.144531zm0 0"/><path d="m340.921875 496c-41.425781 0-80.371094-16.136719-109.65625-45.425781l-144.035156-144.03125 11.3125-11.3125 144.03125 144.035156c26.273437 26.269531 61.203125 40.734375 98.347656 40.734375 76.6875 0 139.078125-62.390625 139.078125-139.078125 0-32.050781-11.183594-63.355469-31.496094-88.144531l12.375-10.144532c22.648438 27.648438 35.121094 62.550782 35.121094 98.289063 0 85.511719-69.566406 155.078125-155.078125 155.078125zm0 0"/><path d="m342.464844 424c-21.785156 0-42.257813-8.480469-57.65625-23.878906l-146.464844-146.464844 11.3125-11.3125 146.464844 146.464844c12.375 12.375 28.832031 19.191406 46.34375 19.191406 36.136718 0 65.535156-29.398438 65.535156-65.535156 0-12.984375-3.808594-25.554688-11.007812-36.359375l13.3125-8.875c8.960937 13.433593 13.695312 29.082031 13.695312 45.234375 0 44.960937-36.574219 81.535156-81.535156 81.535156zm0 0"/><path d="m346.34375 253.65625-146.464844-146.464844c-12.375-12.375-28.832031-19.191406-46.34375-19.191406-36.136718 0-65.535156 29.398438-65.535156 65.535156 0 12.984375 3.808594 25.554688 11.007812 36.359375l-13.3125 8.875c-8.960937-13.433593-13.695312-29.082031-13.695312-45.234375 0-44.960937 36.574219-81.535156 81.535156-81.535156 21.785156 0 42.257813 8.480469 57.65625 23.878906l146.464844 146.464844zm0 0"/><path d="m306.542969 408.769531-11.3125-11.3125 144.035156-144.03125c26.269531-26.273437 40.734375-61.203125 40.734375-98.347656 0-76.6875-62.390625-139.078125-139.078125-139.078125-31.921875 0-63.128906 11.105469-87.867187 31.273438l-10.109376-12.410157c27.589844-22.480469 62.382813-34.863281 97.976563-34.863281 85.511719 0 155.078125 69.566406 155.078125 155.078125 0 41.425781-16.136719 80.371094-45.425781 109.65625zm0 0"/><path d="m155.078125 496c-85.511719 0-155.078125-69.566406-155.078125-155.078125 0-41.425781 16.136719-80.371094 45.425781-109.65625l144.023438-144.027344 11.3125 11.3125-144.027344 144.023438c-26.269531 26.273437-40.734375 61.203125-40.734375 98.347656 0 76.6875 62.390625 139.078125 139.078125 139.078125 31.921875 0 63.128906-11.105469 87.867187-31.273438l10.109376 12.410157c-27.589844 22.480469-62.382813 34.863281-97.976563 34.863281zm0 0"/><path d="m153.535156 424c-44.960937 0-81.535156-36.574219-81.535156-81.535156 0-21.785156 8.480469-42.257813 23.878906-57.65625l146.464844-146.464844 11.3125 11.3125-146.464844 146.464844c-12.375 12.375-19.191406 28.832031-19.191406 46.34375 0 36.136718 29.398438 65.535156 65.535156 65.535156 13.28125 0 26.097656-3.96875 37.058594-11.480469l9.046875 13.191407c-13.632813 9.351562-29.578125 14.289062-46.105469 14.289062zm0 0"/><path d="m253.65625 357.65625-11.3125-11.3125 146.464844-146.464844c12.375-12.375 19.191406-28.832031 19.191406-46.34375 0-36.136718-29.398438-65.535156-65.535156-65.535156-13.28125 0-26.097656 3.96875-37.058594 11.480469l-9.046875-13.191407c13.632813-9.351562 29.578125-14.289062 46.105469-14.289062 44.960937 0 81.535156 36.574219 81.535156 81.535156 0 21.785156-8.480469 42.257813-23.878906 57.65625zm0 0"/></svg>