<svg height="512pt" viewBox="0 -31 512.00008 512" width="512pt" xmlns="http://www.w3.org/2000/svg"><g fill-rule="evenodd"><path d="m382.722656 26.679688c-32.257812-10.199219-80.617187-16.691407-134.222656-16.691407s-101.253906 6.378907-133.511719 16.578125v129.210938c32.257813 10.199218 80.105469 16.574218 133.511719 16.574218 53.800781 0 101.964844-6.460937 134.222656-16.6875zm0 0" fill="#d7d6d8"/><path d="m248.5 246.339844c-53.40625 0-101.253906-6.378906-133.511719-16.578125v90.929687c32.257813 10.199219 80.105469 16.605469 133.511719 16.605469 9.523438 0 18.90625-.199219 28.035156-.597656l11.734375-5.949219 70.980469-35.871094 12.84375-6.488281 10.628906-5.355469v-53.386718c-32.257812 10.230468-80.421875 16.691406-134.222656 16.691406zm0 0" fill="#d7d6d8"/><path d="m248.5 337.296875c-53.40625 0-101.253906-6.40625-133.511719-16.605469v-30.40625c-63.386719 8.8125-105 23.691406-105 40.550782 0 23.148437 78.378907 42.53125 183.800781 47.660156l13.382813-6.746094 4.929687-2.492188 64.433594-32.558593c-9.128906.398437-18.511718.597656-28.035156.597656zm0 0" fill="#b3b0b5"/><path d="m427.480469 307.796875-127.472657 64.40625-13.976562 7.058594c114.859375-3.601563 202.847656-23.914063 202.847656-48.425781 0-11.109376-18.054687-21.339844-48.5-29.554688zm0 0" fill="#b3b0b5"/><path d="m248.5 246.339844c53.800781 0 101.964844-6.460938 134.222656-16.691406v-73.984376c-32.257812 10.230469-80.421875 16.691407-134.222656 16.691407-53.40625 0-101.253906-6.378907-133.511719-16.578125v73.984375c32.257813 10.199219 80.105469 16.578125 133.511719 16.578125zm0 0" fill="#ff6977"/><path d="m205.015625 372.828125-11.226563 5.667969-44.503906 22.496094c-10.375 5.242187-14.597656 18.023437-9.324218 28.421874 5.242187 10.371094 18.027343 14.566407 28.402343 9.324219l55.730469-28.167969zm0 0" fill="#ffc15a"/><path d="m205.015625 372.828125 19.078125 37.742187 61.9375-31.308593 154.347656-77.980469 5.472656-2.777344-19.109374-37.742187-44.019532 22.269531-106.1875 53.667969zm0 0" fill="#b3b0b5"/><path d="m426.742188 260.761719 19.109374 37.742187 44.558594-22.527344c10.375-5.242187 14.570313-18.023437 9.328125-28.390624-5.246093-10.371094-18.03125-14.59375-28.433593-9.324219zm0 0" fill="#ffc15a"/></g><path d="m508.652344 243.074219c-3.742188-7.398438-10.164063-12.90625-18.078125-15.507813-7.925781-2.601562-16.371094-1.96875-23.773438 1.78125l-44.226562 22.347656c-.113281.050782-.230469.09375-.34375.152344-.109375.054688-.207031.121094-.316407.179688l-29.203124 14.757812v-37.128906c0-.035156 0-.070312 0-.105469v-73.871093c0-.039063 0-.074219 0-.109376v-128.890624c0-4.355469-2.824219-8.210938-6.976563-9.527344-34.476563-10.898438-84.496094-17.152344-137.234375-17.152344-52.515625 0-102.277344 6.210938-136.523438 17.042969-4.15625 1.3125-6.980468 5.167969-6.980468 9.523437v129.121094.105469 73.875.109375 51.875c-28.597656 4.367187-52.617188 10.046875-69.808594 16.542968-23.675781 8.953126-35.1875 19.628907-35.1875 32.640626 0 16.789062 19.589844 29.960937 59.894531 40.265624 25.761719 6.585938 59.324219 11.730469 96.84375 14.933594l-11.957031 6.039063c-7.414062 3.746093-12.925781 10.175781-15.523438 18.101562-2.597656 7.917969-1.960937 16.351563 1.792969 23.753907 5.472657 10.820312 16.449219 17.066406 27.824219 17.066406 4.71875 0 9.507812-1.074219 13.996094-3.34375l115.71875-58.480469c55.707031-1.859375 106.855468-7.726563 144.238281-16.558594 44.441406-10.503906 66.042969-24.171875 66.042969-41.777343 0-12.390626-10.671875-22.792969-32.453125-31.539063l28.496093-14.402344c7.402344-3.738281 12.910157-10.15625 15.507813-18.074219 2.601563-7.914062 1.972656-16.347656-1.769531-23.746093zm-175.992188 101.433593-51.132812 25.835938c-.054688.027344-.105469.058594-.160156.089844l-52.863282 26.714844-10.0625-19.90625 16.628906-8.402344 45.96875-23.222656c.003907 0 .007813-.003907.007813-.003907l106.179687-53.664062c.019532-.007813.035157-.019531.050782-.03125l35.070312-17.722657 10.070313 19.898438zm-58.710937-17.707031c-.101563.003907-.207031.007813-.3125.011719-1.988281.074219-3.945313.140625-5.878907.199219-.28125.007812-.558593.015625-.835937.023437-1.914063.054688-3.808594.101563-5.679687.136719-.261719.007813-.519532.011719-.777344.015625-1.898438.035156-3.777344.066406-5.640625.085938-.171875 0-.34375 0-.519531.003906-1.949219.015625-3.882813.027344-5.804688.027344-46.988281 0-91.4375-5.09375-123.523438-14.066407v-70.25c33.25 8.53125 77.320313 13.339844 123.523438 13.339844 46.507812 0 90.828125-4.847656 124.230469-13.445313v34zm-25.449219-306.820312c47.265625 0 91.976562 5.125 124.230469 14.148437v114.070313c-23.085938 6.449219-53.128907 11.039062-85.660157 13.019531-5.507812.335938-9.703124 5.070312-9.367187 10.578125.324219 5.300781 4.722656 9.382813 9.964844 9.382813.203125 0 .410156-.003907.613281-.019532 31.441406-1.910156 60.828125-6.214844 84.453125-12.28125v53.316406c-32.179687 9.023438-76.882813 14.148438-124.234375 14.148438-47.039062 0-91.484375-5.085938-123.523438-14.039062v-53.320313c24.09375 6.171875 54.152344 10.492187 86.363282 12.320313.191406.011718.382812.015624.574218.015624 5.257813 0 9.664063-4.105468 9.964844-9.421874.3125-5.507813-3.898437-10.230469-9.40625-10.542969-33.289062-1.886719-63.976562-6.488281-87.492187-13.050781v-114.285157c32.035156-8.957031 76.480469-14.039062 123.519531-14.039062zm-228.519531 310.855469c0-.058594 1.308593-6.023438 22.273437-13.949219 15.332032-5.796875 36.863282-10.941407 62.742188-15.023438v18.828125c0 .542969.042968 1.078125.128906 1.605469.597656 3.675781 3.214844 6.769531 6.851562 7.917969 1.023438.324218 2.0625.644531 3.117188.960937.34375.101563.695312.203125 1.042969.304688.714843.210937 1.429687.421875 2.152343.628906.425782.121094.855469.238281 1.28125.355469.664063.1875 1.328126.371094 1.996094.550781.464844.125.933594.25 1.398438.375.652344.171875 1.304687.34375 1.960937.511719.488281.125.976563.246094 1.46875.371094.652344.164062 1.308594.328124 1.972657.488281.5.125 1 .246093 1.503906.367187.671875.15625 1.347656.316406 2.023437.472656.507813.117188 1.011719.234376 1.523438.351563.695312.15625 1.394531.308594 2.09375.464844.503906.109375 1.003906.222656 1.511719.328125.746093.160156 1.5.320312 2.257812.476562.46875.097656.933594.199219 1.40625.292969.863281.175781 1.738281.347656 2.613281.519531.375.074219.75.152344 1.125.222656 1.25.242188 2.503907.476563 3.773438.710938.3125.054688.628906.109375.945312.167969.964844.175781 1.929688.347656 2.90625.515625.5.085937 1.003907.167968 1.503907.253906.800781.136719 1.597656.273438 2.40625.402344.558593.089844 1.125.179687 1.6875.269531.761718.121094 1.527343.242187 2.296874.363281.582032.089844 1.167969.175782 1.753907.265625.757812.113281 1.515625.226563 2.28125.335938.601562.085937 1.207031.171875 1.808593.257812.761719.109375 1.527344.214844 2.292969.316407.609375.085937 1.214844.167968 1.828125.246093.777344.105469 1.5625.207031 2.347656.304688.605469.078125 1.207032.15625 1.8125.230469.8125.097656 1.625.199218 2.441407.292968.589843.070313 1.175781.144532 1.765625.210938.878906.101562 1.765625.199218 2.652344.296875.53125.058593 1.0625.117187 1.597656.175781 1.121094.121094 2.25.238281 3.382812.351562.304688.03125.605469.066407.910156.09375 1.429688.144532 2.867188.28125 4.308594.410157.460938.042969.925782.082031 1.390625.125.992188.089843 1.988281.175781 2.988281.261719.574219.046874 1.152344.09375 1.730469.140624.894531.070313 1.785157.140626 2.683594.210938.625.046875 1.253906.09375 1.878906.140625.859375.0625 1.71875.125 2.578125.183594.644532.042969 1.292969.085937 1.941406.128906.855469.054687 1.710938.109375 2.574219.164063.644531.039062 1.296875.078124 1.945313.117187.867187.050781 1.734375.097656 2.605468.144531.648438.035156 1.292969.070313 1.945313.101563.886719.046875 1.78125.089843 2.671875.132812.628906.027344 1.261719.058594 1.894531.085938.929688.042969 1.863281.078125 2.796875.113281.597656.023438 1.199219.050781 1.800782.070312 1.050781.039063 2.101562.074219 3.15625.105469.484374.015625.964843.035157 1.445312.046875 1.527344.046875 3.054688.085938 4.585938.121094l-8.035157 4.058594-34.058593 17.203125c-49.796876-2.546875-94.742188-8.441407-126.804688-16.640625-42.226562-10.800782-44.863281-20.816406-44.863281-20.910156zm143.878906 98.984374c-5.492187 2.773438-12.210937.570313-14.984375-4.914062 0-.003906-.003906-.007812-.003906-.007812-1.335938-2.636719-1.5625-5.65625-.628906-8.496094.933593-2.851563 2.90625-5.15625 5.550781-6.492188l46.8125-23.65625 10.066406 19.90625zm315.03125-98.984374c0 .101562-2.976563 11.058593-50.660156 22.332031-25.871094 6.113281-58.71875 10.761719-95.269531 13.574219l8.699218-4.394532 99.773438-50.410156c35.199218 10.035156 37.457031 18.8125 37.457031 18.898438zm12.550781-70.25c-.933594 2.84375-2.902344 5.140624-5.535156 6.472656l-35.652344 18.019531-10.074218-19.894531 35.640624-18.007813c1.566407-.796875 3.269532-1.195312 4.988282-1.195312 1.179687 0 2.371094.1875 3.53125.570312 2.84375.933594 5.148437 2.902344 6.480468 5.542969 1.332032 2.632812 1.550782 5.648438.621094 8.492188zm0 0"/><path d="m250.144531 182.34375h.167969c5.519531 0 9.992188-4.472656 9.992188-9.988281 0-5.519531-4.472657-9.992188-9.992188-9.992188h-.167969c-5.519531 0-9.992187 4.472657-9.992187 9.992188 0 5.515625 4.472656 9.988281 9.992187 9.988281zm0 0"/></svg>