<svg height="512pt" viewBox="0 -23 512.00013 512" width="512pt" xmlns="http://www.w3.org/2000/svg"><g fill-rule="evenodd"><path d="m138.863281 174.210938v139.113281c0 14.039062 11.433594 25.53125 25.429688 25.53125 14 0 25.433593-11.492188 25.433593-25.53125v-45.882813c0-14.011718 11.460938-25.503906 25.460938-25.503906 13.996094 0 25.429688 11.492188 25.429688 25.503906v41.683594c0 14.035156 11.460937 25.5 25.460937 25.5 13.96875 0 25.433594-11.464844 25.433594-25.5v-73.21875h12c11.292969 0 21.554687-4.632812 29.023437-12.035156 7.527344-7.519532 12.234375-17.898438 12.234375-29.335938v-20.324218h-92.460937c-37.835938 0-75.640625 0-113.445313 0zm0 0" fill="#cbe558"/><path d="m138.863281 223.871094v-49.660156h-104.039062c-13.597657 0-24.746094 11.175781-24.746094 24.816406 0 13.664062 11.148437 24.84375 24.746094 24.84375zm0 0" fill="#d7d6d8"/><path d="m344.769531 174.210938v20.324218c0 11.4375-4.707031 21.816406-12.234375 29.335938h133.261719c13.628906 0 24.746094-11.179688 24.746094-24.84375 0-13.636719-11.117188-24.816406-24.746094-24.816406zm0 0" fill="#d7d6d8"/><path d="m344.769531 174.210938h64.234375l86.957032-101.265626c8.867187-10.347656 7.699218-26.101562-2.621094-35.019531-10.324219-8.894531-26.03125-7.722656-34.898438 2.628907zm0 0" fill="#ffc15a"/><path d="m246.632812 88.011719c21.46875 0 38.859376-17.4375 38.859376-38.964844s-17.390626-38.96875-38.859376-38.96875-38.859374 17.441406-38.859374 38.96875 17.390624 38.964844 38.859374 38.964844zm0 0" fill="#cbe558"/><path d="m166.519531 98.046875c0-15.292969-12.402343-27.730469-27.65625-27.730469-15.285156 0-27.65625 12.4375-27.65625 27.730469 0 15.324219 12.371094 27.734375 27.65625 27.734375 15.253907 0 27.65625-12.410156 27.65625-27.734375zm0 0" fill="#cbe558"/><path d="m291.511719 309.125c0 14.035156-11.460938 25.5-25.433594 25.5-14 0-25.460937-11.464844-25.460937-25.5v-41.683594c0-14.011718-11.433594-25.503906-25.429688-25.503906-14 0-25.460938 11.492188-25.460938 25.503906v45.882813c0 14.039062-11.433593 25.53125-25.433593 25.53125-13.996094 0-25.429688-11.492188-25.429688-25.53125v-89.453125h-93.886719c0 57.148437 23.234376 108.867187 60.757813 146.175781 11.746094 11.691406 24.886719 21.957031 39.144531 30.53125 30.820313 18.527344 66.886719 29.164063 105.433594 29.164063 38.542969 0 74.640625-10.636719 105.460938-29.164063 14.253906-8.574219 27.398437-18.839844 39.117187-30.53125 37.519531-37.308594 60.757813-89.027344 60.757813-146.175781h-123.113282c-7.46875 7.402344-17.730468 12.035156-29.023437 12.035156h-12zm0 0" fill="#b3b0b5"/><path d="m144.878906 400.582031c-14.257812-8.578125-27.398437-18.839843-39.144531-30.535156l-37.664063 43.886719c-8.867187 10.347656-7.699218 26.101562 2.621094 34.992187 10.324219 8.917969 26.03125 7.746094 34.898438-2.601562zm0 0" fill="#b3b0b5"/><path d="m355.773438 400.582031 39.257812 45.742188c8.898438 10.347656 24.605469 11.523437 34.929688 2.601562 10.320312-8.890625 11.488281-24.644531 2.59375-34.992187l-37.664063-43.886719c-11.71875 11.691406-24.863281 21.957031-39.117187 30.535156zm0 0" fill="#b3b0b5"/></g><path d="m250.3125 419.664062h-.199219c-5.566406 0-10.082031 4.511719-10.082031 10.078126 0 5.566406 4.515625 10.078124 10.082031 10.078124h.199219c5.566406 0 10.078125-4.515624 10.078125-10.078124 0-5.566407-4.511719-10.078126-10.078125-10.078126zm0 0"/><path d="m499.917969 30.289062c-7.042969-6.066406-16.046875-9.019531-25.351563-8.3125-9.296875.703126-17.742187 4.972657-23.804687 12.046876l-110.652344 130.109374h-305.285156c-19.203125 0-34.824219 15.652344-34.824219 34.894532 0 19.253906 15.621094 34.921875 34.824219 34.921875h.316406c2.179687 46.527343 19.394531 91.421875 49.035156 127.390625 2.566407 3.109375 5.222657 6.136718 7.949219 9.089844l-31.710938 36.949218c-12.503906 14.589844-10.84375 36.65625 3.6875 49.171875 6.363282 5.5 14.328126 8.453125 22.679688 8.453125.882812 0 1.777344-.035156 2.667969-.101562 9.300781-.699219 17.75-4.96875 23.785156-12.011719l33.890625-39.457031c18.738281 10.277344 38.984375 17.773437 60.058594 22.070312.679687.136719 1.355468.203125 2.027344.203125 4.6875 0 8.890624-3.292969 9.863281-8.066406 1.109375-5.453125-2.410157-10.777344-7.863281-11.886719-87.191407-17.777344-151.34375-93.347656-155.898438-181.804687h73.472656v79.375c0 19.636719 15.929688 35.609375 35.507813 35.609375 19.582031 0 35.511719-15.972656 35.511719-35.609375v-45.882813c0-8.507812 6.898437-15.425781 15.382812-15.425781 8.464844 0 15.351562 6.917969 15.351562 15.425781v41.683594c0 19.617188 15.941407 35.578125 35.539063 35.578125 19.578125 0 35.511719-15.960937 35.511719-35.578125v-63.140625h1.921875c12.535156 0 24.027343-4.53125 32.949219-12.035156h108.847656c-4.558594 88.714843-68.925782 164.34375-156.410156 181.910156-5.457032 1.09375-8.992188 6.40625-7.898438 11.863281.960938 4.789063 5.167969 8.097656 9.871094 8.097656.65625 0 1.324218-.066406 1.996094-.199218 21.289062-4.277344 41.738281-11.816406 60.652343-22.191406l33.871094 39.460937c6.0625 7.054687 14.527344 11.320313 23.832031 12.011719.886719.0625 1.765625.097656 2.644532.097656 8.351562 0 16.320312-2.953125 22.667968-8.441406 14.558594-12.539063 16.199219-34.609375 3.664063-49.191406l-31.691407-36.929688c2.660157-2.882812 5.257813-5.835938 7.765626-8.875 29.75-36.003906 47.027343-80.984375 49.210937-127.613281h.3125c19.203125 0 34.828125-15.667969 34.828125-34.925781 0-19.238282-15.625-34.890626-34.828125-34.890626h-34.855469l72.675782-84.628906c12.488281-14.578125 10.835937-36.652344-3.699219-49.214844zm-391.332031 356.171876c.597656.519531 1.1875 1.042968 1.789062 1.558593 6.15625 5.28125 12.59375 10.238281 19.300781 14.792969l-31.738281 36.957031c-2.53125 2.949219-6.078125 4.738281-9.996094 5.03125-3.917968.292969-7.707031-.949219-10.671875-3.507812-6.144531-5.296875-6.835937-14.625-1.550781-20.796875l30.773438-35.855469c.6875.617187 1.398437 1.210937 2.09375 1.820313zm20.199218-172.667969h-93.960937c-8.085938 0-14.667969-6.625-14.667969-14.769531 0-8.125 6.582031-14.734376 14.667969-14.734376h93.960937zm205.902344-19.257813c0 8.269532-3.214844 15.792969-8.453125 21.394532-.273437.269531-.550781.542968-.820313.808593-.117187.121094-.226562.242188-.339843.367188-5.601563 5.394531-13.199219 8.722656-21.5625 8.722656h-12c-5.566407 0-10.082031 4.511719-10.082031 10.078125v73.21875c0 8.503906-6.886719 15.421875-15.351563 15.421875-8.480469 0-15.382813-6.917969-15.382813-15.421875v-41.683594c0-19.621094-15.929687-35.582031-35.511718-35.582031-19.59375 0-35.539063 15.960937-35.539063 35.582031v45.882813c0 8.523437-6.886719 15.453125-15.351562 15.453125-8.464844 0-15.351563-6.929688-15.351563-15.453125v-129.035157h185.746094zm90.222656 225.964844c5.300782 6.171875 4.617188 15.496094-1.542968 20.800781-2.945313 2.546875-6.730469 3.792969-10.652344 3.5-3.925782-.289062-7.492188-2.082031-10.035156-5.039062l-31.707032-36.945313c5.40625-3.671875 10.625-7.613281 15.667969-11.753906.136719-.113281.273437-.222656.410156-.332031.992188-.820313 1.980469-1.652344 2.957031-2.488281.902344-.769532 1.796876-1.550782 2.683594-2.335938.480469-.425781.972656-.832031 1.445313-1.257812zm40.886719-236.210938c8.089844 0 14.667969 6.609376 14.667969 14.734376 0 8.144531-6.578125 14.769531-14.667969 14.769531h-114.683594c-.003906-.003907-.003906-.007813-.007812-.011719 2.40625-5.949219 3.742187-12.441406 3.742187-19.246094v-10.246094h54.15625.007813zm22.519531-117.90625-83.945312 97.75h-37.800782l99.523438-117.019531c2.527344-2.953125 6.078125-4.742187 9.996094-5.039062 3.933594-.296875 7.714844.941406 10.65625 3.476562 6.152344 5.3125 6.851562 14.664063 1.570312 20.832031zm0 0"/><path d="m138.863281 135.886719c20.808594 0 37.734375-16.972657 37.734375-37.839844 0-20.847656-16.925781-37.808594-37.734375-37.808594-20.808593 0-37.734375 16.960938-37.734375 37.808594 0 20.863281 16.925782 37.839844 37.734375 37.839844zm0-55.492188c9.691407 0 17.578125 7.917969 17.578125 17.652344 0 9.75-7.886718 17.683594-17.578125 17.683594-9.691406 0-17.578125-7.933594-17.578125-17.683594 0-9.734375 7.886719-17.652344 17.578125-17.652344zm0 0"/><path d="m246.632812 98.089844c26.984376 0 48.941407-22 48.941407-49.042969s-21.957031-49.046875-48.941407-49.046875c-26.984374 0-48.9375 22.003906-48.9375 49.046875s21.953126 49.042969 48.9375 49.042969zm0-77.933594c15.871094 0 28.78125 12.960938 28.78125 28.890625s-12.910156 28.886719-28.78125 28.886719c-15.867187 0-28.78125-12.957032-28.78125-28.886719s12.910157-28.890625 28.78125-28.890625zm0 0"/></svg>