<svg height="512pt" viewBox="-22 0 512 512" width="512pt" xmlns="http://www.w3.org/2000/svg"><g fill-rule="evenodd"><path d="m333.269531 243.570312s0 0-.03125 0zm-73.6875-65.390624c-9.011719-2.179688-18.527343-3.371094-28.359375-3.371094-13.371094 0-26.148437 2.179687-37.9375 6.152344-22.550781 7.59375-41.332031 21.765624-53.34375 39.792968-4.84375 7.3125-8.585937 15.277344-10.992187 23.695313-2.066407 7.171875-3.171875 14.683593-3.171875 22.417969 0 11.367187 2.351562 24.972656 6.65625 35.003906 26.574218 5.472656 60.96875 8.789062 98.5625 8.789062 33.261718 0 66.125-2.410156 98.789062-8.816406 4.476563-10.230469 6.882813-23.382812 6.882813-34.976562 0-8.046876-1.1875-15.84375-3.398438-23.296876 0 0 0 0-.027343 0-3.402344-11.394531-9.238282-21.910156-17-31.148437-13.796876-16.386719-33.628907-28.628906-56.660157-34.242187zm0 0" fill="#f9f9f9"/><path d="m132.433594 301.871094c-4.304688-10.03125-6.660156-23.636719-6.660156-35.003906 0-7.679688 1.105468-15.21875 3.175781-22.417969-72.585938 16.042969-64.539063 43.394531 3.484375 57.421875zm0 0" fill="#b3b0b5"/><path d="m336.667969 266.867188c0 11.59375-2.40625 24.746093-6.882813 34.976562 66.519532-13.773438 73.515625-42.628906 3.484375-58.273438 2.207031 7.453126 3.398438 15.246094 3.398438 23.296876zm0 0" fill="#b3b0b5"/><path d="m333.269531 243.570312c70.03125 15.644532 63.035157 44.5-3.488281 58.273438-32.664062 6.40625-65.527344 8.816406-98.789062 8.816406-37.59375 0-71.984376-3.316406-98.558594-8.789062-68.023438-14.027344-76.070313-41.378906-3.488282-57.421875-70.769531 10.828125-118.957031 32.253906-118.957031 56.941406 0 21.570313 36.855469 40.703125 93.488281 52.378906 36.746094 7.597657 81.820313 12.074219 130.519532 12.074219 48.359375 0 93.152344-4.421875 129.78125-11.902344 57.03125-11.679687 94.230468-30.867187 94.230468-52.550781 0-25.339844-50.824218-47.277344-124.738281-57.820313zm0 0" fill="#d7d6d8"/><path d="m363.78125 353.941406c-36.632812 7.480469-81.421875 11.902344-129.785156 11.902344-48.699219 0-93.773438-4.476562-130.515625-12.074219v67.375c64.335937 28.964844 187.035156 29.902344 260.300781-.03125zm0 0" fill="#b3b0b5"/><path d="m363.78125 421.113281c-73.265625 29.933594-195.964844 28.996094-260.300781.027344v56.347656c27.621093 15.417969 77.453125 23.554688 126.949219 24.460938h18.160156c49.125-.90625 95.074218-9.070313 115.191406-24.546875zm0 0" fill="#ff6977"/><path d="m328.792969 161.542969c6.542969-15.136719 17.054687-26.160157 32.75-31.859375-17.199219-8.53125-28.953125-18.875-32.75-31.886719-.90625 3.230469-2.125 6.238281-3.710938 9.070313-5.582031 9.976562-15.355469 17.515624-29.011719 22.816406 13.289063 3.261718 22.777344 11.28125 29.039063 23.328125 1.386719 2.636719 2.605469 5.5 3.683594 8.53125zm0 0" fill="#ffc15a"/><path d="m379.304688 103.835938c13.457031 3.285156 22.183593 12.46875 27.113281 26.386718 5.410156-12.554687 14.136719-21.683594 27.113281-26.386718-14.25-7.058594-23.96875-15.648438-27.113281-26.417969-3.371094 12.074219-12.578125 20.777343-27.113281 26.417969zm0 0" fill="#ffc15a"/><path d="m193.285156 180.957031c2.183594-15.617187 3.402344-33.105469 3.402344-51.585937 0-65.953125-15.46875-119.382813-34.535156-119.382813s-34.507813 53.429688-34.507813 119.382813c0 36.679687 4.789063 69.5 12.296875 91.382812 12.011719-18.054687 30.792969-32.199218 53.34375-39.796875zm0 0" fill="#e8e7e9"/><path d="m291.195312 10.839844c-19.0625 0-34.503906 53.457031-34.503906 119.382812 0 17.0625 1.019532 33.273438 2.886719 47.957032 23.035156 5.613281 42.867187 17.855468 56.664063 34.242187 4.445312-16.1875 7.59375-36.648437 8.867187-59.410156-6.261719-12.046875-15.753906-20.066407-29.039063-23.328125 13.652344-5.296875 23.425782-12.839844 29.007813-22.816406-3.140625-54.730469-17.109375-96.027344-33.882813-96.027344zm0 0" fill="#e8e7e9"/></g><path d="m212.835938 249.53125c-5.519532 0-9.988282-4.46875-9.988282-9.988281 0-1.890625-.601562-2.640625-1.121094-3.082031-.867187-.734376-2.292968-1.171876-3.8125-1.171876-1.574218 0-5.234374.414063-5.234374 4.253907 0 5.519531-4.472657 9.988281-9.988282 9.988281s-9.988281-4.46875-9.988281-9.988281c0-13.8125 10.835937-24.230469 25.210937-24.230469 14.203126 0 24.910157 10.417969 24.910157 24.230469 0 5.519531-4.472657 9.988281-9.988281 9.988281zm0 0"/><path d="m279.753906 249.902344c-5.519531 0-9.992187-4.472656-9.992187-9.988282 0-1.894531-.597657-2.640624-1.117188-3.082031-.867187-.734375-2.292969-1.171875-3.8125-1.171875-1.574219 0-5.234375.414063-5.234375 4.253906 0 5.515626-4.472656 9.988282-9.992187 9.988282-5.515625 0-9.988281-4.472656-9.988281-9.988282 0-13.816406 10.839843-24.234374 25.210937-24.234374 14.203125 0 24.910156 10.417968 24.910156 24.234374.003907 5.515626-4.46875 9.988282-9.984375 9.988282zm0 0"/><path d="m376.933594 113.539062c9.695312 2.367188 16.070312 8.730469 20.070312 20.019532 1.367188 3.875 4.972656 6.511718 9.082032 6.648437.109374.003907.222656.007813.332031.007813 3.976562 0 7.589843-2.367188 9.171875-6.039063 4.539062-10.535156 11.523437-17.386719 21.34375-20.949219 3.761718-1.363281 6.34375-4.839843 6.570312-8.832031.222656-3.992187-1.957031-7.734375-5.539062-9.511719-12.445313-6.160156-19.832032-12.980468-21.957032-20.261718-1.246093-4.265625-5.152343-7.191406-9.589843-7.191406-.019531 0-.039063 0-.058594 0-4.460937.027343-8.363281 3.007812-9.5625 7.304687-2.445313 8.753906-9.347656 15.226563-21.105469 19.789063-4.066406 1.578124-6.636718 5.613281-6.351562 9.964843.28125 4.351563 3.355468 8.015625 7.59375 9.050781zm29.925781-16.3125c2.070313 2.1875 4.429687 4.292969 7.074219 6.316407-2.492188 2.03125-4.800782 4.292969-6.921875 6.78125-2.007813-2.582031-4.222657-4.886719-6.640625-6.914063 2.40625-1.914062 4.570312-3.976562 6.488281-6.183594zm0 0"/><path d="m340.714844 234.582031c-3.296875-8.714843-7.875-16.917969-13.5625-24.414062 2.941406-11.867188 5.1875-25.425781 6.644531-40.007813 1.808594-1.050781 3.296875-2.644531 4.164063-4.652344 5.742187-13.277343 14.570312-21.925781 26.988281-26.433593 3.761719-1.363281 6.339843-4.835938 6.566406-8.828125.226563-3.992188-1.953125-7.730469-5.535156-9.507813-15.585938-7.734375-24.871094-16.394531-27.597657-25.738281-.753906-2.574219-2.480468-4.65625-4.703124-5.90625-4.671876-45.308594-17.738282-88.242188-42.480469-88.242188-14.472657 0-25.914063 14.191407-34.003907 42.183594-6.765624 23.421875-10.496093 54.386719-10.496093 87.1875 0 12.277344.523437 24.230469 1.53125 35.707032-5.550781-.730469-11.230469-1.109376-17.007813-1.109376-9.050781 0-17.863281.925782-26.316406 2.675782 1.167969-12.230469 1.769531-24.992188 1.769531-38.125 0-32.804688-3.734375-63.773438-10.511719-87.199219-8.097656-27.984375-19.539062-42.171875-34.011718-42.171875s-25.910156 14.191406-34 42.175781c-6.769532 23.417969-10.496094 54.382813-10.496094 87.195313 0 34.113281 4.117188 66.578125 11.363281 90.097656-3.046875 5.117188-5.613281 10.492188-7.65625 16.074219-40.882812 6.769531-121.363281 25.261719-121.363281 65.847656 0 22.386719 25.1875 41.464844 72.835938 55.175781 6.570312 1.890625 13.472656 3.652344 20.65625 5.277344v115.644531c0 3.625 1.960937 6.960938 5.125 8.726563 28.964843 16.148437 81.636718 25.785156 140.914062 25.785156h.113281c59.839844-.011719 108.519531-9.984375 130.222657-26.675781 2.460937-1.890625 3.902343-4.816407 3.902343-7.917969v-56.132812c0-.035157 0-.070313 0-.105469v-59.15625c7.449219-1.671875 14.59375-3.488281 21.390625-5.445313 47.648438-13.707031 72.835938-32.789062 72.835938-55.175781 0-41.859375-84.59375-60.21875-127.28125-66.808594zm5.414062 22.683594c21.566406 6.628906 26.699219 13.328125 26.6875 14.898437-.011718 1.441407-5.429687 8.851563-28.347656 15.726563 1.414062-6.898437 2.1875-14.121094 2.1875-21.023437 0-3.238282-.191406-6.4375-.527344-9.601563zm-16.875-138.730469c3.3125 3.78125 7.324219 7.363282 12.058594 10.753906-4.421875 3.300782-8.390625 7.179688-11.886719 11.625-.195312-.277343-.398437-.542968-.597656-.816406-.003906 0-.003906-.003906-.007813-.007812-2.496093-3.390625-5.28125-6.398438-8.347656-9.015625-.019531-.019531-.039062-.035157-.0625-.054688-.753906-.640625-1.519531-1.269531-2.308594-1.863281 4.339844-3.171875 8.058594-6.714844 11.152344-10.621094zm-52.863281-69.953125c6.625-22.929687 13.691406-27.753906 14.804687-27.753906 1.066407 0 6.664063 3.699219 12.621094 20.789063 5.566406 15.96875 9.480469 38.136718 11.097656 62.703124-4.554687 6.636719-12.097656 12.03125-22.460937 16.050782-4.0625 1.578125-6.632813 5.609375-6.351563 9.960937.28125 4.351563 3.351563 8.015625 7.585938 9.054688 9.273438 2.273437 16.253906 7.496093 21.277344 15.929687-.851563 13.375-2.371094 26.003906-4.480469 37.375-11.953125-9.960937-26.234375-17.632812-41.765625-22.363281-1.355469-12.730469-2.039062-26.1875-2.039062-40.105469 0-30.976562 3.449218-59.972656 9.710937-81.640625zm-129.046875-.859375c6.625-22.921875 13.691406-27.742187 14.808594-27.742187 1.117187 0 8.1875 4.820312 14.820312 27.742187 6.269532 21.671875 9.726563 50.667969 9.726563 81.648438 0 15.429687-.851563 30.296875-2.539063 44.292968-15.175781 6-28.746094 14.886719-39.714844 25.910157-4.382812-19.859375-6.8125-44.429688-6.8125-70.203125 0-30.984375 3.449219-59.984375 9.710938-81.648438zm-8.859375 199.675782c.035156-.113282.070313-.226563.101563-.339844.023437-.082032.046874-.164063.066406-.25 10.4375-35.589844 47.980468-62.011719 92.570312-62.011719 44.273438 0 81.597656 26.050781 92.34375 61.257813.011719.054687.027344.105468.042969.160156.035156.128906.078125.257812.121094.382812 1.921875 6.488282 2.949219 13.277344 2.949219 20.269532 0 8.867187-1.546876 18.300781-4.214844 26.195312-28.058594 5.113281-58.046875 7.609375-91.472656 7.609375-33.054688 0-65.15625-2.664063-91.15625-7.527344-2.523438-7.804687-4.074219-17.578125-4.074219-26.277343.003906-6.707032.949219-13.222657 2.722656-19.46875zm-22.253906 10.582031c-.289063 2.929687-.445313 5.890625-.445313 8.886719 0 6.90625.777344 14.246093 2.167969 21.214843-23.222656-6.636719-29.644531-13.546875-30.089844-15.449219.234375-.578124 3.589844-7.394531 28.367188-14.652343zm237.558593 156.289062c-22.847656 8.457031-51.019531 14.371094-82.015624 17.164063-5.496094.492187-9.546876 5.347656-9.050782 10.84375.464844 5.191406 4.824219 9.09375 9.933594 9.09375.300781 0 .605469-.015625.910156-.042969 29.691406-2.675781 57.089844-8.121094 80.222656-15.882813v36.691407c-20.050781 12.160156-63.789062 19.875-114.148437 19.886719-.039063 0-.066406 0-.105469 0-51.730468 0-99.136718-7.828126-126.066406-20.625v-35.523438c22.679688 8.039062 50.660156 13.515625 81.980469 15.972656.269531.023438.53125.03125.792969.03125 5.164062 0 9.539062-3.972656 9.949218-9.207031.433594-5.5-3.675781-10.308594-9.175781-10.738281-32.882813-2.582032-61.574219-8.582032-83.546875-17.410156v-48.632813c35.871094 6.476563 77.308594 9.941406 120.527344 9.941406 42.929687 0 84.097656-3.421875 119.792968-9.808593zm35.847657-76.902343c-8.675781 2.496093-17.960938 4.753906-27.753907 6.769531-.082031.015625-.164062.03125-.242187.050781-36.941406 7.578125-81.152344 11.667969-127.644531 11.667969-46.660156 0-91.023438-4.121094-128.046875-11.753907-.285157-.074218-.570313-.132812-.863281-.179687-9.414063-1.960937-18.355469-4.144531-26.726563-6.554687-43.09375-12.398438-58.382813-27.128907-58.382813-35.976563 0-9.859375 16.425782-22.3125 48.304688-32.835937-.273438 1.371093-.414062 2.769531-.402344 4.203124.121094 17.28125 21.160156 30.367188 62.542969 38.898438 28.167969 5.800781 63.886719 8.992188 100.574219 8.992188 36.816406 0 69.707031-2.933594 100.550781-8.96875.027344-.007813.054687-.011719.082031-.019532.023438-.003906.050782-.007812.078125-.011718.035157-.007813.070313-.015626.105469-.023438 39.757812-8.230469 60.847656-21.824219 60.984375-39.304688.015625-2.152343-.28125-4.242187-.886719-6.261718 10.242188 3.039062 19.402344 6.375 27.3125 9.96875 18.03125 8.191406 28.796875 17.671875 28.796875 25.363281 0 8.847656-15.292969 23.578125-58.382812 35.976563zm0 0"/><path d="m233.433594 433.234375c-5.519532 0-9.992188 4.472656-9.992188 9.988281s4.472656 9.988282 9.992188 9.988282h.195312c5.519532 0 9.988282-4.472657 9.988282-9.988282s-4.46875-9.988281-9.988282-9.988281zm0 0"/></svg>