<svg height="511pt" viewBox="-32 0 511 511.99965" width="511pt" xmlns="http://www.w3.org/2000/svg"><g fill-rule="evenodd"><path d="m10.488281 182.070312v290.941407c0 15.933593 13.027344 29 28.972657 29h196.242187c15.917969 0 28.972656-13.070313 28.972656-29v-290.941407c0-6.011718-1.867187-11.625-5.039062-16.300781-5.242188-7.625-14.019531-12.671875-23.933594-12.671875h-196.242187c-15.945313.003906-28.972657 13.039063-28.972657 28.972656zm127.078125 107.601563c7.5625-15.167969 15.152344-22.734375 30.277344-22.734375 16.710938 0 30.277344 13.578125 30.277344 30.300781 0 19.585938-12.632813 39.175781-29.765625 58.761719-9.375 10.714844-20.082031 21.429688-30.789063 32.144531-30.273437-30.300781-60.550781-60.605469-60.550781-90.90625 0-16.722656 13.566406-30.300781 30.277344-30.300781 10.476562 0 17.332031 3.628906 23.054687 10.882812 2.574219 3.234376 4.898438 7.171876 7.21875 11.851563zm0 0" fill="#f9f9f9"/><path d="m161.074219 153.101562h74.628906c9.914063 0 18.691406 5.042969 23.933594 12.667969l37.015625-31.71875 32.625 81.949219-64.601563 55.417969v108.335937l68.398438 16.867188c15.464843 3.796875 31.238281-5.726563 35.035156-21.230469l69.558594-282.46875c3.792969-15.476563-5.722657-31.265625-21.214844-35.09375l-190.550781-46.996094c-2.292969-.570312-4.585938-.824219-6.851563-.824219h-.058593c-13 0-24.894532 8.871094-28.125 22.054688zm0 0" fill="#e8e7e9"/><path d="m264.675781 182.070312v89.34375l64.601563-55.414062-32.625-81.949219-37.015625 31.71875c3.171875 4.675781 5.039062 10.289063 5.039062 16.300781zm0 0" fill="#ff6977"/><path d="m198.121094 297.238281c0-16.722656-13.566406-30.300781-30.277344-30.300781-15.125 0-22.714844 7.566406-30.277344 22.734375-2.320312-4.675781-4.644531-8.617187-7.21875-11.847656-5.722656-7.257813-12.578125-10.886719-23.054687-10.886719-16.710938 0-30.277344 13.578125-30.277344 30.300781 0 30.304688 30.277344 60.605469 60.550781 90.90625 10.707032-10.714843 21.414063-21.429687 30.789063-32.144531 17.132812-19.585938 29.765625-39.171875 29.765625-58.761719zm0 0" fill="#ff6977"/></g><path d="m418.84375 48.128906-190.558594-47c-10.070312-2.472656-20.527344-.855468-29.449218 4.546875-8.921876 5.40625-15.195313 13.929688-17.664063 24l-27.925781 113.4375h-113.785156c-21.480469 0-38.960938 17.476563-38.960938 38.957031v87.703126c0 5.515624 4.472656 9.988281 9.988281 9.988281s9.988281-4.472657 9.988281-9.988281v-87.703126c0-10.46875 8.515626-18.984374 18.984376-18.984374h196.242187c6.496094 0 12.230469 3.28125 15.65625 8.265624.042969.066407.089844.128907.132813.195313 2.019531 3.011719 3.199218 6.632813 3.199218 10.523437v290.945313c0 10.480469-8.519531 19.007813-18.988281 19.007813h-196.242187c-10.46875 0-18.984376-8.527344-18.984376-19.007813v-123.394531c0-5.515625-4.472656-9.988282-9.988281-9.988282s-9.988281 4.472657-9.988281 9.988282v123.390625c0 21.5 17.476562 38.988281 38.960938 38.988281h196.242187c21.484375 0 38.960937-17.488281 38.960937-38.988281v-80.507813l56.027344 13.816406c3.085938.757813 6.207032 1.132813 9.308594 1.132813 7.027344 0 13.953125-1.921875 20.136719-5.664063 8.925781-5.402343 15.203125-13.933593 17.667969-24.011718l69.5625-282.480469c5.117187-20.859375-7.679688-42.015625-28.523438-47.167969zm-146.730469 120.101563 20.425781-17.503907 24.820313 62.335938-42.695313 36.625v-67.617188c0-4.875-.910156-9.539062-2.550781-13.839843zm155.855469-77.699219-69.5625 282.484375c-1.199219 4.898437-4.257812 9.046875-8.613281 11.683594-4.351563 2.632812-9.441407 3.425781-14.328125 2.222656l-60.800782-14.992187v-95.921876l61.117188-52.429687c3.238281-2.777344 4.355469-7.308594 2.777344-11.273437l-32.628906-81.949219c-1.191407-2.996094-3.757813-5.230469-6.890626-6.003907-3.125-.769531-6.4375.015626-8.886718 2.113282l-29.753906 25.496094c-6.726563-5.527344-15.332032-8.851563-24.695313-8.851563h-61.882813l26.75-108.667969c1.199219-4.894531 4.261719-9.042968 8.617188-11.683594 4.355469-2.636718 9.449219-3.425781 14.324219-2.230468l190.546875 46.996094c10.164062 2.511718 16.402344 12.835937 13.910156 23.007812zm0 0"/><path d="m144.632812 395.203125c31.207032-31.230469 63.476563-63.527344 63.476563-97.964844 0-22.214843-18.0625-40.289062-40.265625-40.289062-14.410156 0-23.597656 5.789062-30.273438 13.890625-6.679687-8.101563-15.867187-13.890625-30.277343-13.890625-22.199219 0-40.261719 18.074219-40.261719 40.289062 0 34.4375 32.265625 66.734375 63.472656 97.964844 1.871094 1.875 4.414063 2.929687 7.066406 2.929687 2.652344 0 5.191407-1.054687 7.0625-2.929687zm-57.628906-97.964844c0-11.199219 9.101563-20.3125 20.289063-20.3125 8.824219 0 13.996093 2.484375 21.335937 17.203125 1.691406 3.390625 5.152344 5.53125 8.941406 5.53125 3.785157 0 7.246094-2.140625 8.9375-5.53125 7.339844-14.71875 12.515626-17.203125 21.339844-17.203125 11.183594 0 20.289063 9.113281 20.289063 20.3125 0 23.996094-24.632813 50.640625-50.566407 76.761719-25.9375-26.121094-50.566406-52.765625-50.566406-76.761719zm0 0"/><path d="m10.488281 319.699219c5.515625 0 9.988281-4.472657 9.988281-9.988281v-.199219c0-5.515625-4.472656-9.984375-9.988281-9.984375s-9.988281 4.46875-9.988281 9.984375v.199219c0 5.515624 4.472656 9.988281 9.988281 9.988281zm0 0"/></svg>