<svg height="512pt" viewBox="-18 0 512 512.00045" width="512pt" xmlns="http://www.w3.org/2000/svg"><g fill-rule="evenodd"><path d="m208.652344 142.726562c7.621094-18.179687 19.929687-31.425781 38.289062-38.277343-20.128906-10.21875-33.863281-22.636719-38.289062-38.277344-4.769532 17.527344-17.789063 30.144531-38.292969 38.277344 18.988281 4.796875 31.324219 18.125 38.292969 38.277343zm0 0" fill="#cbe558"/><path d="m369.582031 58.71875c24.125 6.109375 39.804688 23.039062 48.65625 48.671875 9.707031-23.125 25.355469-39.964844 48.683594-48.671875-25.554687-12.984375-43.03125-28.773438-48.683594-48.640625-6.054687 22.265625-22.585937 38.28125-48.65625 48.640625zm0 0" fill="#ffc15a"/><path d="m434.484375 266.386719c-20.128906-10.25-33.863281-22.664063-38.289063-38.277344-4.769531 17.496094-17.789062 30.113281-38.292968 38.277344 18.988281 4.796875 31.324218 18.097656 38.292968 38.277343 7.621094-18.210937 19.929688-31.457031 38.289063-38.277343zm0 0" fill="#ff6977"/><path d="m280.492188 165.164062 39.71875 35.855469 42.488281-47.042969c9.878906-10.933593 8.996093-27.945312-1.941407-37.792968-10.90625-9.878906-27.925781-8.992188-37.804687 1.910156zm0 0" fill="#f9f9f9"/><path d="m320.210938 201.015625-39.71875-35.851563-64.929688 71.90625-153.566406 170.070313 39.746094 35.882813 153.765624-170.328126zm0 0" fill="#b3b0b5"/><path d="m101.742188 443.023438-39.746094-35.882813-45.058594 49.898437c-9.851562 10.933594-8.992188 27.945313 1.941406 37.792969 10.9375 9.878907 27.957032 8.992188 37.808594-1.910156zm0 0" fill="#f9f9f9"/></g><path d="m471.488281 49.738281c-24.769531-12.59375-39.019531-26.464843-43.558593-42.417969-1.238282-4.351562-5.257813-7.3632808-9.75-7.320312-4.527344.0273438-8.480469 3.066406-9.667969 7.433594-3.050781 11.226562-9.269531 20.621094-18.765625 28.371094-20.957032-11.703126-44.589844-17.878907-68.792969-17.878907-22.621094 0-44.238281 5.191407-64.242187 15.429688-14.402344 7.367187-27.558594 17.300781-38.6875 29.121093-1.503907-3.820312-5.203126-6.386718-9.371094-6.386718-.019532 0-.035156 0-.050782 0-4.53125.023437-8.488281 3.066406-9.675781 7.433594-3.847656 14.140624-14.40625 24.464843-32.28125 31.558593-4.066406 1.613281-6.625 5.660157-6.339843 10.023438.28125 4.363281 3.347656 8.042969 7.585937 9.113281 6.382813 1.613281 11.894531 4.449219 16.597656 8.53125-3.132812 11.777344-4.734375 23.964844-4.734375 36.335938 0 27.714843 7.933594 54.207031 22.96875 77.140624l-193.269531 214.066407c-6.566406 7.289062-9.90625 16.71875-9.4023438 26.566406.4960938 9.765625 4.7187498 18.738281 11.8945308 25.289063 6.476563 6.375 15.101563 9.851562 24.414063 9.851562.316406 0 .636719-.003906.957031-.011719 10.226563-.261719 20.015625-4.746093 26.847656-12.3125l45.035157-49.871093c.007812-.011719.015625-.015626.023437-.027344.011719-.007813.015625-.019532.023438-.027344l47.890625-53.035156c3.730469-4.132813 3.40625-10.503906-.726563-14.234375-4.128906-3.730469-10.5-3.40625-14.230468.726562l-41.164063 45.582031-24.789063-22.378906 146.535157-162.304687c.195312-.199219.378906-.402344.554687-.613281l57.882813-64.113282 24.746093 22.339844-107.167968 118.539062c-3.734375 4.128907-3.414063 10.5.714844 14.234376 4.128906 3.730468 10.5 3.414062 14.234374-.714844l43.867188-48.519532c19.550781 9.835938 41.285156 15.011719 63.359375 15.011719 19.3125 0 37.902344-3.792969 55.371094-11.269531 4.261719 4.984375 7.695312 11.285156 10.34375 18.953125 1.363281 3.953125 5.027343 6.652344 9.203125 6.785156.109375.003907.214844.003907.324218.003907 4.050782 0 7.722657-2.429688 9.296876-6.1875 6.886718-16.449219 17.519531-27.152344 32.503906-32.722657 3.75-1.390625 6.320312-4.871093 6.550781-8.867187.230469-3.992188-1.925781-7.746094-5.488281-9.558594-4.019532-2.046875-7.667969-4.152344-10.984375-6.3125 22.070312-25.582031 34.105469-57.828125 34.105469-92.007812 0-25.53125-6.824219-50.257813-19.761719-71.992188 7.625-8.519531 16.917969-14.785156 28.027343-18.929688 3.746094-1.398437 6.3125-4.878906 6.539063-8.875.222656-3.992187-1.929687-7.742187-5.496094-9.550781zm-278.425781 54.074219c6.472656-4.492188 11.832031-9.671875 16.054688-15.515625 4.476562 5.578125 10.210937 10.785156 17.238281 15.671875-6.511719 4.601562-12.199219 10.253906-17.046875 16.945312-4.507813-6.960937-9.929688-12.664062-16.246094-17.101562zm-105.554688 339.9375-38.300781 42.414062c-3.148437 3.484376-7.667969 5.554688-12.402343 5.675782-4.1875.089844-8.027344-1.363282-10.796876-4.132813-.125-.125-.253906-.246093-.382812-.363281-3.285156-2.957031-5.21875-7.046875-5.445312-11.515625-.226563-4.472656 1.28125-8.75 4.238281-12.035156l38.300781-42.421875zm207.199219-279.332031 35.714844-39.558594c6.136719-6.769531 16.582031-7.363281 23.394531-1.363281 6.789063 6.925781 7.40625 17.082031 1.40625 23.71875l-35.757812 39.550781zm102.144531 118.417969c-4.511718-6.957032-9.9375-12.664063-16.257812-17.097657 6.476562-4.5 11.839844-9.683593 16.066406-15.523437 4.480469 5.570312 10.210938 10.78125 17.238282 15.671875-6.511719 4.597656-12.203126 10.253906-17.046876 16.949219zm15.921876-44.867188c-3.347657-4.0625-5.652344-8.269531-6.882813-12.609375s-5.191406-7.332031-9.695313-7.332031c-.019531 0-.035156 0-.054687 0-4.523437.023437-8.480469 3.0625-9.667969 7.429687-3.847656 14.117188-14.414062 24.445313-32.296875 31.566407-4.0625 1.617187-6.617187 5.667968-6.328125 10.027343.25 3.789063 2.601563 7.066407 5.996094 8.558594-10.601562 2.988281-21.597656 4.507813-32.890625 4.507813-17.042969 0-33.84375-3.601563-49.25-10.464844l55.5625-61.457032c.144531-.140624.292969-.273437.425781-.425781.140625-.152343.265625-.316406.390625-.480469l42.09375-46.554687c13.164063-14.570313 12.152344-37.273437-2.304687-51.6875-.113282-.117187-.230469-.226563-.347656-.335937-15.046876-13.621094-38.390626-12.449219-52.050782 2.632812l-98.710937 109.332031c-11.046875-18.578125-16.851563-39.632812-16.851563-61.589843 0-3.554688.171875-7.085938.476563-10.597657 1.785156 2.566407 4.707031 4.210938 7.941406 4.316407.105469.003906.214844.003906.324219.003906 4.046875 0 7.71875-2.425782 9.292968-6.179688 6.886719-16.433594 17.527344-27.140625 32.519532-32.734375 3.746094-1.398437 6.3125-4.882812 6.539062-8.875.226563-3.992187-1.933594-7.742187-5.5-9.554687-9.363281-4.753906-16.835937-9.835938-22.382812-15.207032 23.058594-26.894531 56.085937-42.171874 91.832031-42.171874 16.65625 0 32.996094 3.414062 48.082031 9.9375-1.046875.449218-2.089844.902343-3.175781 1.335937-4.0625 1.613281-6.621094 5.660156-6.335937 10.019531.285156 4.363282 3.347656 8.042969 7.582031 9.113282 19.9375 5.046874 33.542969 18.847656 41.605469 42.191406 1.363281 3.949218 5.023437 6.644531 9.199218 6.78125.109375.003906.21875.003906.328125.003906 4.046875 0 7.714844-2.425781 9.289063-6.175781.738281-1.753907 1.519531-3.445313 2.324218-5.101563 7.988282 16.378906 12.171876 34.386719 12.171876 52.894532 0 29.304687-10.320313 56.953124-29.25 78.882812zm9.636718-158.167969c-.210937.25-.410156.503907-.597656.769531-.058594.078126-.113281.160157-.171875.238282-.003906.003906-.007813.007812-.007813.011718-.921874 1.25-1.816406 2.527344-2.6875 3.839844-6.691406-11.429687-15.207031-20.359375-25.484374-26.738281.6875-.4375 1.339843-.894531 2.011718-1.34375.335938-.195313.65625-.417969.972656-.652344 9.269532-6.378906 16.71875-13.851562 22.273438-22.414062 6.445312 8.878906 15.390625 17.042969 26.9375 24.597656-8.925781 5.726563-16.675781 12.980469-23.246094 21.691406zm0 0"/><path d="m171.628906 350.605469-.144531.140625c-3.933594 3.9375-3.933594 10.320312 0 14.253906 1.96875 1.96875 4.546875 2.953125 7.125 2.953125 2.582031 0 5.160156-.984375 7.128906-2.953125l.140625-.140625c3.9375-3.9375 3.9375-10.320313 0-14.253906-3.933594-3.9375-10.316406-3.9375-14.25 0zm0 0"/></svg>