<svg height="511pt" viewBox="-47 0 511 511.998" width="511pt" xmlns="http://www.w3.org/2000/svg"><g fill-rule="evenodd"><path d="m85.023438 393.113281 22.703124 73.847657 204.691407-34.386719 85.371093-68.914063c26.386719-21.289062.851563-69.113281-42.089843-36.257812l-77.292969 47.511718c-14.285156 1.757813-26.585938.90625-60.738281 2.238282 39.792969-5.613282 46.3125-54.144532 13.152343-53.578125-57.964843-1.1875-63.660156-2.4375-88.261718 15.054687l-59.664063 47.625zm0 0" fill="#ffddcf"/><path d="m107.722656 466.960938-22.703125-73.847657c-2.859375-9.210937-12.726562-14.457031-21.9375-11.59375l-40.191406 12.359375c-9.238281 2.835938-14.453125 12.699219-11.621094 21.914063l22.703125 73.84375c2.835938 9.214843 12.699219 14.429687 21.9375 11.59375l40.191406-12.359375c9.214844-2.832032 14.457032-12.699219 11.621094-21.910156zm0 0" fill="#cbe558"/><path d="m153.753906 239.523438c-.710937 39.601562 47.929688 39.601562 49.175782-.878907.425781-12.953125 1.1875-70.785156 39.90625-77.160156-15.078126 38.183594 5.046874 135.359375 89.367187 108.855469 5.441406 26.136718-1.984375 67.691406-22.222656 85.15625l45.71875-28.09375c9.210937-7.058594 17.628906-10.402344 24.886719-11.082032 27.917968-37.078124 8.160156-139.699218 3.085937-161.328124 0 0-35.9375-8.703126-38.289063 47-1.078124 25.230468-60.371093 34.328124-47.984374-40.027344 11.449218-68.742188-54.589844-97.402344-13.011719-151.972656-114.761719 0-117.085938 91.25-118.332031 144.234374-1.164063 50.117188-57.566407 39.855469-51.359376 6.207032-39.765624 45.015625-55.210937 145.371094-7.792968 206.65625l35.65625-28.460938c4.308594-3.058594 8.046875-5.554687 11.5625-7.566406-20.066406-28.125-19.101563-68.066406-.367188-91.539062zm0 0" fill="#ff6977"/><path d="m202.929688 238.644531c-1.246094 40.484375-49.882813 40.484375-49.175782.882813-18.734375 23.46875-19.699218 63.414062.367188 91.53125 16.636718-9.496094 28.882812-8.472656 76.695312-7.480469 33.164063-.570313 26.644532 47.964844-13.148437 53.574219 34.152343-1.332032 46.453125-.480469 60.738281-2.238282l31.574219-19.417968c20.238281-17.460938 27.664062-59.019532 22.222656-85.15625-84.324219 26.503906-104.445313-70.671875-89.367187-108.855469-38.714844 6.378906-39.480469 64.207031-39.90625 77.160156zm0 0" fill="#ffcb7c"/></g><path d="m410.773438 319.277344c-3.691407-4.703125-8.652344-8.453125-14.558594-10.699219 21.226562-51.566406-1.726563-151.246094-2.8125-155.871094-.859375-3.667969-3.714844-6.539062-7.375-7.429687-1.664063-.402344-16.675782-3.636719-30.527344 6.796875-12.34375 9.292969-19.105469 25.945312-20.097656 49.492187-.125 2.855469-2.332032 5.566406-5.910156 7.253906-3.890626 1.832032-9.820313 2.449219-14.800782-1.320312-8.324218-6.300781-11.035156-22.300781-7.4375-43.894531 5.59375-33.570313-5.441406-57.976563-15.175781-79.507813-11.15625-24.671875-19.214844-42.496094.257813-68.050781 2.300781-3.019531 2.691406-7.085937 1.007812-10.488281-1.6875-3.40625-5.160156-5.558594-8.957031-5.558594-53.792969 0-91.011719 19.40625-110.625 57.683594-16.171875 31.5625-17.050781 68.984375-17.695313 96.308594-.273437 11.78125-4.160156 20.058593-10.945312 23.3125-5.078125 2.4375-11.5 1.773437-15.984375-1.65625-2.832031-2.167969-5.933594-6.25-4.613281-13.402344.8125-4.414063-1.417969-8.832032-5.453126-10.796875-4.039062-1.964844-8.890624-.996094-11.863281 2.367187-21.410156 24.238282-36.011719 62.773438-39.066406 103.085938-3.105469 41.027344 5.789063 79.050781 25.128906 108.28125l-11.472656 9.160156c-.226563-.132812-.453125-.265625-.6875-.386719-6.523437-3.453125-13.972656-4.160156-20.980469-1.984375l-40.167968 12.351563c-7.019532 2.15625-12.785157 6.925781-16.234376 13.441406-3.449218 6.507813-4.160156 13.953125-2.003906 20.960937l22.703125 73.847657c3.632813 11.8125 14.558594 19.425781 26.339844 19.421875 2.675781 0 5.394531-.390625 8.082031-1.214844l40.191406-12.359375c10.742188-3.304687 18.007813-12.617187 19.253907-23.109375l66.453125-11.171875c5.441406-.917969 9.109375-6.070313 8.195312-11.511719-.914062-5.441406-6.070312-9.117187-11.507812-8.195312l-66.730469 11.21875-20.140625-65.503906c-.035156-.113282-.074219-.222657-.113281-.335938l54.125-43.203125c3.859375-2.738281 7.128906-4.949219 10.230469-6.734375.167968-.089844.332031-.183594.496093-.28125 12.941407-7.292969 23.246094-7.070312 61.621094-6.234375 3.0625.0625 6.289063.136719 9.691406.207031h.375c6.984375-.125 10.625 2.597656 11.074219 8.316406.675781 8.597657-6.914062 22.496094-25.324219 25.304688-7.386719.292969-15.785156.6875-25.425781 1.234375-5.511719.3125-9.726562 5.03125-9.414062 10.539063.3125 5.511718 5.027343 9.714843 10.539062 9.414062 28.15625-1.59375 45.539062-1.890625 58.234375-2.105469 12.074219-.203125 20.046875-.339843 28.960937-1.441406 1.421876-.175781 2.785157-.65625 4.007813-1.40625l77.289063-47.507813c.289062-.179687.570312-.371093.839843-.578124 13.949219-10.671876 26.707031-12.097657 33.292969-3.714844 5.058594 6.4375 5.113281 17.269531-3.550781 24.261718l-83.332031 67.269532-49.652344 8.351562c-5.445313.914063-9.113282 6.070313-8.199219 11.511719.917969 5.441406 6.066406 9.113281 11.511719 8.195313l52.238281-8.789063c1.691406-.285156 3.28125-1 4.617187-2.078125l85.371094-68.910156c18.269532-14.738282 17.757813-38.09375 6.707032-52.15625zm-317.605469 160.042968-40.1875 12.359376c-3.992188 1.226562-8.234375-1.007813-9.453125-4.976563l-22.707032-73.847656c-.585937-1.90625-.386718-3.945313.5625-5.734375.949219-1.792969 2.527344-3.101563 4.445313-3.691406l40.191406-12.359376c.007813-.003906.019531-.007812.027344-.007812.714844-.222656 1.449219-.332031 2.179687-.332031 1.207032 0 2.414063.296875 3.53125.886719 1.714844.910156 2.988282 2.394531 3.613282 4.167968l22.800781 74.113282s0 .003906.003906.003906c1.195313 3.902344-1.097656 8.214844-5.007812 9.417968zm181.894531-114.082031c-6.140625.648438-12.328125.832031-20.570312.980469 5.566406-8.003906 8.171874-17.253906 7.492187-25.90625-1.277344-16.222656-13.773437-26.988281-31.132813-26.730469-3.335937-.070312-6.496093-.136719-9.492187-.203125-34.191406-.742187-49.125-1.066406-63.507813 4.761719-8.597656-16.023437-10.714843-35.429687-6.269531-52.101563 6.320313 8.382813 15.671875 12.832032 25.035157 13.058594 17.378906.417969 35.46875-13.230468 36.296874-40.125l.035157-1.105468c.863281-28.066407 6.125-47.410157 15.6875-57.835938-.804688 9.277344-.414063 19.355469 1.226562 29.515625 3.433594 21.285156 12.058594 40.246094 24.289063 53.386719 10.191406 10.945312 26.488281 21.953125 50.835937 21.953125 5.796875 0 12.058594-.628907 18.792969-2.023438 1.421875 22.8125-5.660156 51.878907-19.851562 64.632813zm74.984375-46.089843-11.804687 7.257812c5.960937-19.359375 7.261718-41.207031 3.742187-58.105469-.574219-2.761719-2.292969-5.152343-4.726563-6.582031-2.433593-1.425781-5.359374-1.757812-8.050781-.914062-25.527343 8.027343-45.859375 4.164062-60.425781-11.488282-21.703125-23.3125-24.324219-64.730468-16.652344-84.164062 1.324219-3.34375.742188-7.144532-1.515625-9.945313-2.261719-2.796875-5.851562-4.171875-9.402343-3.582031-13.769532 2.265625-32.199219 11.335938-41.8125 41.65625-5.613282 17.71875-6.179688 36.117188-6.421876 43.972656l-.035156 1.082032c-.449218 14.535156-8.554687 20.945312-15.835937 20.785156-6.320313-.15625-13.613281-5.332032-13.359375-19.417969.074218-4.277344-2.582032-8.128906-6.605469-9.578125-4.023437-1.453125-8.527344-.175781-11.195313 3.164062-10.585937 13.261719-16.460937 31.097657-16.550781 50.214844-.070312 15.660156 3.800781 31.089844 11.027344 44.433594-1.183594.804688-2.398437 1.652344-3.652344 2.546875-.152343.105469-.300781.21875-.445312.332031l-27.363281 21.84375c-16.21875-25.335937-23.609376-58.367187-20.890626-94.246094 2.082032-27.539062 9.992188-53.933593 21.886719-74.269531 1.902344 2.765625 4.257813 5.25 7.039063 7.378907 10.464844 8.003906 24.898437 9.496093 36.769531 3.800781 13.707031-6.578125 21.828125-21.472657 22.277344-40.863281.597656-25.394532 1.417969-60.175782 15.5-87.664063 13.917969-27.160156 38.410156-42.289063 74.597656-45.941406-12.3125 27.148437-2.152344 49.621093 7.726563 71.472656 8.980468 19.867187 18.265624 40.40625 13.671874 67.992187-6.320312 37.941407 4.71875 55.265626 15.089844 63.113282 10.109375 7.652344 23.667969 8.976562 35.378906 3.464844 10.421876-4.910157 16.910157-14.0625 17.359376-24.488282.710937-16.867187 4.84375-28.699218 11.945312-34.214844 2.796875-2.171874 5.765625-3.125 8.257812-3.5 3.109376 15.066407 7.347657 40.289063 8.957032 65.792969 2.269531 35.902344-1.140625 62.273438-9.859375 76.734375-7.660157 1.621094-15.96875 5.386719-24.621094 11.925782zm0 0"/><path d="m219.265625 437.683594-.171875.027344c-5.441406.902343-9.125 6.046874-8.222656 11.492187.808594 4.890625 5.042968 8.359375 9.84375 8.359375.542968 0 1.09375-.042969 1.648437-.136719l.167969-.027343c5.445312-.902344 9.128906-6.046876 8.226562-11.492188-.902343-5.441406-6.042968-9.125-11.492187-8.222656zm0 0"/></svg>