<svg height="512pt" viewBox="-52 0 512 512" width="512pt" xmlns="http://www.w3.org/2000/svg"><g fill-rule="evenodd"><path d="m9.988281 328.164062c0 18.710938 31.921875 35.265626 80.949219 45.414063 31.832031 6.578125 70.863281 10.460937 113.0625 10.460937 41.886719 0 80.691406-3.828124 112.382812-10.347656 49.394532-10.121094 81.625-26.730468 81.625-45.527344 0-28.292968-73.101562-51.679687-167.894531-55.335937 0 .027344-.027343.085937-.027343.113281 60.296874 2.949219 105.726562 15.847656 105.726562 31.324219 0 17.632813-59.023438 31.949219-131.8125 31.949219-72.816406 0-131.8125-14.316406-131.8125-31.949219 0-16.726563 52.960938-30.445313 120.453125-31.835937-.027344 0-.027344 0-.027344-.027344-101.847656 1.703125-182.625 26.027344-182.625 55.761718zm0 0" fill="#d7d6d8"/><path d="m72.1875 304.269531c0 17.628907 58.996094 31.945313 131.8125 31.945313 72.789062 0 131.8125-14.316406 131.8125-31.945313 0-15.480469-45.429688-28.378906-105.726562-31.324219-5.214844 15.449219-16.117188 28.515626-34.554688 32.285157 0-13.691407-1.046875-24.40625-2.890625-32.796875-67.492187 1.386718-120.453125 15.109375-120.453125 31.835937zm0 0" fill="#b3b0b5"/><path d="m316.382812 431.917969c-63.441406 25.910156-169.707031 25.117187-225.445312.027343v48.816407c50.835938 28.347656 188.511719 28.347656 225.445312-.085938zm0 0" fill="#ff6977"/><path d="m90.9375 431.945312c55.738281 25.089844 162.003906 25.882813 225.445312-.027343v-58.226563c-31.691406 6.519532-70.496093 10.347656-112.382812 10.347656-42.203125 0-81.230469-3.886718-113.0625-10.460937zm0 0" fill="#b3b0b5"/><path d="m148.289062 243.121094c15.945313-.199219 36.761719-4.933594 44.324219 29.28125 0 .03125 0 .03125.027344.03125 1.84375 8.390625 2.890625 19.105468 2.890625 32.796875 18.4375-3.769531 29.339844-16.839844 34.554688-32.289063l.027343-.113281c2.574219-7.710937 3.765625-16.015625 3.765625-24.066406 0-24.519531 25.71875-19.132813 48.855469-21.96875 21.921875-2.695313 37.386719-13.863281 45.996094-28.265625-8.042969-13.066406-19.402344-21.855469-34.636719-25.710938 16.992188-6.773437 29.371094-16.300781 36.707031-28.828125-9.40625-18.625-30.023437-32.96875-62.566406-33l-45.882813-.054687c-21.664062-.027344-21.804687-31.382813.9375-30.957032h44.890626c121.84375 0 75.023437-69.992187 63.355468-69.992187-2.832031 0-9.007812 25.429687-37.5 25.316406-21.75-.085937-44.351562.285157-53.640625.285157h-30.476562c-117.679688 0-113.65625 115.117187-18.636719 118.492187l6.175781.199219c20.476563.734375 30.476563 37.984375-2.265625 38.410156-28.691406.367188-12.039062-.226562-49.113281-.226562-36.847656.003906-32.398437 51.113281 2.210937 50.660156zm0 0" fill="#f9f9f9"/><path d="m62.5 215.253906c8.46875-20.183594 22.09375-34.839844 42.398438-42.4375-22.261719-11.335937-37.46875-25.113281-42.398438-42.433594-5.269531 19.417969-19.683594 33.390626-42.398438 42.433594 21.042969 5.332032 34.695313 20.074219 42.398438 42.4375zm0 0" fill="#ffc15a"/><path d="m294.09375 172.816406c15.238281 3.855469 26.59375 12.644532 34.636719 25.714844 3.058593 4.960938 5.636719 10.574219 7.761719 16.722656 8.46875-20.183594 22.089843-34.839844 42.398437-42.4375-22.261719-11.335937-37.472656-25.113281-42.398437-42.433594-1.332032 4.875-3.230469 9.410157-5.695313 13.605469-7.332031 12.53125-19.710937 22.054688-36.703125 28.828125zm0 0" fill="#ffc15a"/></g><path d="m17.648438 182.5c16.960937 4.296875 28.539062 16.074219 35.40625 36.007812 1.351562 3.917969 4.976562 6.59375 9.117187 6.730469.109375.003907.222656.003907.332031.003907 4.007813 0 7.648438-2.402344 9.207032-6.121094 7.773437-18.535156 19.773437-30.621094 36.6875-36.949219 3.707031-1.386719 6.246093-4.835937 6.472656-8.789063.222656-3.953124-1.910156-7.667968-5.441406-9.464843-21.25-10.824219-33.460938-22.6875-37.324219-36.269531-1.222657-4.296876-5.144531-7.253907-9.605469-7.253907-.019531 0-.042969 0-.0625 0-4.488281.027344-8.40625 3.042969-9.578125 7.371094-4.351563 16.039063-16.277344 27.738281-36.457031 35.773437-4.019532 1.601563-6.554688 5.609376-6.269532 9.933594.285157 4.320313 3.316407 7.964844 7.515626 9.027344zm45.328124-29.582031c5.308594 6.9375 12.367188 13.367187 21.226563 19.359375-8.152344 5.511718-15.171875 12.492187-21.019531 20.910156-5.417969-8.785156-12.113282-15.820312-20.054688-21.078125 8.191406-5.457031 14.816406-11.863281 19.847656-19.191406zm0 0"/><path d="m407.996094 328.164062c0-38.535156-81.152344-59.890624-165.335938-64.730468.789063-4.761719 1.207032-9.683594 1.207032-14.671875 0-7.941407 2.265624-9.902344 24.570312-10.933594 5.035156-.234375 10.246094-.476563 15.515625-1.121094 17-2.089843 31.636719-8.882812 42.609375-19.515625.160156.441406.332031.867188.484375 1.316406 1.351563 3.917969 4.976563 6.59375 9.117187 6.730469.109376.003907.222657.003907.328126.003907 4.011718 0 7.652343-2.402344 9.210937-6.125 7.773437-18.53125 19.773437-30.617188 36.6875-36.945313 3.707031-1.386719 6.246094-4.835937 6.472656-8.789063.222657-3.953124-1.910156-7.667968-5.441406-9.464843-21.25-10.824219-33.460937-22.691407-37.324219-36.269531-1.222656-4.296876-5.144531-7.257813-9.605468-7.257813-.019532 0-.042969 0-.0625 0-3.03125.019531-5.796876 1.40625-7.640626 3.636719-14.089843-14.789063-35.257812-23.003906-60.542968-23.027344l-45.882813-.054688c-4.039062-.007812-5.121093-1.914062-5.476562-2.542968-.996094-1.746094-.980469-4.160156.039062-5.871094 1.046875-1.761719 3.121094-2.636719 6.171875-2.566406h.1875 44.890625c31.335938 0 55.011719-4.585938 70.375-13.625 17.816407-10.488282 21.558594-24.699219 21.558594-34.777344 0-19.417969-15.21875-41.5625-28.574219-41.5625-6.351562 0-9.296875 4.941406-11.449218 8.546875-5.0625 8.488281-11.230469 16.769531-25.855469 16.769531-.050781 0-.105469 0-.15625 0-14.113281-.054687-28.796875.082032-39.519531.179688-5.964844.058594-10.894532.101562-14.160157.101562h-30.476562c-30.011719 0-55.285157 7.234375-73.082031 20.921875-16.476563 12.667969-25.738282 30.082031-26.074219 49.03125-.578125 32.613281 26.773437 66.617188 80.199219 68.515625l6.136718.195313c5.21875.1875 9.355469 6.421875 9.296875 11.460937-.019531 1.6875-.078125 6.835938-11.332031 6.980469-14.703125.1875-17.257812.125-21.496094.015625-4.023437-.101562-9.527344-.242188-27.488281-.242188-13.867187 0-25.277344 6.050782-31.308594 16.601563-6.144531 10.753906-5.84375 24.957031.765625 36.179687 6.699219 11.371094 18.445313 17.855469 32.292969 17.855469.195313 0 .390625-.003906.585937-.003906 1.757813-.023437 3.535157-.09375 5.261719-.164063 9.996094-.40625 16.414063-.320312 21.195313 4.277344 1.304687 1.25 2.675781 3.042969 3.984375 5.589844-88.585938 3.277344-178.855469 24.464844-178.855469 65.351562 0 24.671876 33.417969 42.628907 80.945312 53.503907v99.09375c0 3.621093 1.960938 6.960937 5.125 8.722656 25.289063 14.101563 71.144532 22.515625 122.695313 22.515625h.109375c52.109375-.011719 94.578125-8.761719 113.601562-23.410156 2.457032-1.890625 3.894532-4.8125 3.894532-7.914063v-48.617187c0-.011719 0-.027344 0-.042969v-50.191406c47.886718-10.859375 81.625-28.871094 81.625-53.660157zm-71.027344-175.246093c5.308594 6.933593 12.367188 13.367187 21.226562 19.359375-8.152343 5.507812-15.171874 12.492187-21.019531 20.910156-5.417969-8.785156-12.113281-15.824219-20.054687-21.078125 8.191406-5.457031 14.816406-11.863281 19.847656-19.191406zm-184.101562 80.066406c-1.65625.066406-3.226563.128906-4.710938.148437-8.789062.144532-13.214844-4.292968-15.40625-8.015624-2.988281-5.078126-3.242188-11.558594-.632812-16.125 3.085937-5.40625 9.296874-6.539063 13.960937-6.539063 17.707031 0 23.066406.136719 26.980469.234375 4.476562.113281 7.183594.183594 22.261718-.011719 22.695313-.292969 30.910157-14.582031 31.050782-26.726562.171875-14.785157-11.261719-31.03125-28.59375-31.652344l-6.140625-.199219c-19.265625-.683594-35.332031-6.394531-46.46875-16.519531-9.511719-8.648437-14.636719-19.898437-14.429688-31.671875.445313-25.054688 25.101563-50.332031 79.183594-50.332031h30.472656c3.335938 0 8.195313-.046875 14.347657-.101563 10.667968-.101562 25.277343-.238281 39.253906-.183594h.230468c21.894532 0 33.605469-12.46875 39.601563-21.125 3.761719 5.148438 7.777344 13.691407 5.796875 21.75-3.757812 15.300782-29.796875 24.074219-71.445312 24.074219h-44.800782c-10.292968-.1875-18.863281 4.328125-23.621094 12.332031-4.65625 7.828126-4.746093 18.011719-.242187 25.949219 4.5625 8.027344 12.878906 12.636719 22.824219 12.652344l45.886718.054687c23.175782.019532 40.96875 8.011719 50.789063 22.640626-6.328125 8.230468-15.800781 14.816406-28.617187 19.917968-4.019532 1.601563-6.554688 5.613282-6.269532 9.933594.28125 4.320312 3.316406 7.96875 7.511719 9.03125 10.210937 2.585938 18.457031 7.90625 24.914063 16.0625-8.085938 10.066406-20.292969 16.503906-35.035157 18.316406-4.515625.550782-9.339843.773438-14.003906.992188-9.980469.460937-19.402344.898437-27.339844 4.328125-7.429687 3.210937-16.285156 10.425781-16.285156 26.5625 0 15.722656-5.152344 33.363281-18.792969 42.066406-1.464844-23.355469-6.773437-38.785156-16.382812-48.015625-11.269532-10.824219-25.476563-10.246094-35.847656-9.828125zm-38.804688 58.183594c19.085938-4.53125 43.75-7.496094 70.1875-8.492188.804688 6.113281 1.292969 13.535157 1.292969 22.554688 0 3 1.347656 5.84375 3.671875 7.738281 1.800781 1.46875 4.035156 2.25 6.316406 2.25.667969 0 1.335938-.066406 2.003906-.203125 15.496094-3.171875 28-12.160156 36.160156-25.992187 1.074219-1.816407 2.058594-3.726563 2.96875-5.699219 23.675782 1.503906 45.464844 4.660156 61.945313 9.015625 19.617187 5.183594 25.398437 10.230468 26.867187 11.925781-1.667968 1.925781-8.878906 8.167969-35.265624 13.949219-23.578126 5.167968-54.195313 8.011718-86.210938 8.011718-32.023438 0-62.648438-2.84375-86.222656-8.011718-26.386719-5.78125-33.589844-12.027344-35.253906-13.949219 1.574218-1.824219 8.152343-7.546875 31.539062-13.097656zm-94.085938 36.996093c0-6.613281 11.257813-17.71875 42.648438-27.773437-.273438 1.25-.425781 2.539063-.425781 3.875 0 14.1875 15.121093 24.75 46.234375 32.296875 25.648437 6.21875 59.585937 9.640625 95.566406 9.640625 35.96875 0 69.90625-3.421875 95.554688-9.640625 31.121093-7.546875 46.246093-18.109375 46.246093-32.296875 0-1.320313-.140625-2.609375-.402343-3.867187.371093.121093.746093.238281 1.109374.355468 30.640626 10.007813 41.511719 21.023438 41.511719 27.410156 0 7.773438-15.335937 20.035157-49.601562 29.90625-7.351563 2.117188-15.214844 4.035157-23.496094 5.75-.402344.0625-.792969.140626-1.175781.246094-31.796875 6.484375-69.796875 9.984375-109.746094 9.984375-50.90625 0-98.644531-5.675781-134.421875-15.980469-34.261719-9.871093-49.601563-22.132812-49.601563-29.90625zm286.417969 96.886719c-17.734375 6.445313-39.296875 11.183594-62.875 13.777344-5.480469.601563-9.4375 5.535156-8.832031 11.019531.5625 5.113282 4.886719 8.898438 9.914062 8.898438.363282 0 .734376-.019532 1.105469-.0625 22.21875-2.441406 42.894531-6.726563 60.6875-12.515625v29.195312c-17.398437 10.199219-54.636719 16.648438-97.523437 16.660157-.03125 0-.066406 0-.101563 0-44.136719 0-84.574219-6.589844-107.84375-17.386719v-28.070313c17.925781 6.132813 39.484375 10.5 63.332031 12.757813.316407.03125.636719.042969.953126.042969 5.089843 0 9.441406-3.875 9.929687-9.046876.519531-5.492187-3.511719-10.363281-9.003906-10.882812-25.375-2.402344-47.738281-7.265625-65.210938-14.136719v-39.617187c31.484375 5.53125 67.351563 8.34375 103.074219 8.34375 35.460938 0 71.070312-2.773438 102.394531-8.226563zm0 0"/><path d="m203.402344 441.0625c-5.515625 0-9.988282 4.472656-9.988282 9.988281s4.472657 9.988281 9.988282 9.988281h.199218c5.515626 0 9.988282-4.472656 9.988282-9.988281s-4.472656-9.988281-9.988282-9.988281zm0 0"/></svg>