<svg height="512pt" viewBox="-4 0 512 512" width="512pt" xmlns="http://www.w3.org/2000/svg"><g fill-rule="evenodd"><path d="m143.378906 338.683594-125.796875 119.523437c-10.210937 9.71875-9.984375 26.273438 0 36.25 4.539063 4.535157 10.4375 7.027344 16.421875 7.480469 1.25.085938 2.496094.085938 3.71875 0 5.925782-.425781 11.714844-2.917969 16.136719-7.480469l120.949219-125.332031 85.207031-88.285156-8.652344-20.691406-17.585937-7.367188zm0 0" fill="#b3b0b5"/><path d="m251.363281 260.148438 8.652344 20.691406 20.449219 48.75 49.183594-57.054688 75.082031-6.207031-39.113281-64.367187 17.300781-73.265626-73.351563 17.261719-64.386718-39.085937-6.210938 75.054687-57.128906 49.117188 51.9375 21.738281zm0 0" fill="#ffc15a"/><path d="m130.246094 174.128906c5.671875-29.078125 19.714844-52.261718 44.5625-67.910156-32.648438-8.898438-56.644532-22.925781-67.933594-44.523438-1.644531 27.179688-16.933594 49.65625-44.5625 67.878907 29.359375 1.246093 51.539062 17.0625 67.933594 44.554687zm0 0" fill="#ffd89e"/><path d="m372.308594 68.835938c29.214844 7.371093 48.164062 27.832031 58.886718 58.839843 11.742188-27.972656 30.660157-48.324219 58.886719-58.839843-30.949219-15.730469-52.078125-34.832032-58.886719-58.835938-7.347656 26.925781-27.34375 46.308594-58.886718 58.835938zm0 0" fill="#cbe558"/><path d="m418.515625 320.488281c-6.550781 24.09375-24.476563 41.46875-52.730469 52.691407 26.152344 6.601562 43.144532 24.910156 52.730469 52.6875 10.523437-25.054688 27.484375-43.28125 52.730469-52.6875-12.539063-6.40625-23.289063-13.40625-31.882813-21.144532-10.324219-9.351562-17.5-19.785156-20.847656-31.546875zm0 0" fill="#ff6977"/></g><path d="m475.785156 364.269531c-9.453125-4.8125-17.503906-9.796875-24.195312-14.996093 33.875-37.640626 52.414062-85.796876 52.414062-136.757813 0-42.917969-12.980468-83.617187-37.625-118.277344 7.859375-6.84375 16.886719-12.167969 27.195313-16.011719 3.722656-1.386718 6.273437-4.84375 6.5-8.808593.226562-3.96875-1.914063-7.691407-5.457031-9.492188-30.554688-15.53125-48.148438-32.75-53.792969-52.648437-1.222657-4.304688-5.152344-7.277344-9.628907-7.277344-.015624 0-.03125 0-.050781 0-4.492187.0234375-8.421875 3.039062-9.605469 7.375-3.085937 11.308594-8.699218 21.121094-16.9375 29.554688-31.828124-19.140626-68.164062-29.21875-105.585937-29.21875-32.589844 0-63.746094 7.417968-92.613281 22.058593-24.988282 12.671875-47.417969 30.664063-65.347656 52.300781-11.828126-6.949218-20.207032-15.242187-25.308594-25-2.085938-3.984374-6.574219-6.089843-10.964844-5.152343-4.394531.941406-7.625 4.695312-7.898438 9.183593-1.425781 23.613282-14.539062 43.28125-40.078124 60.128907-3.625 2.390625-5.296876 6.84375-4.136719 11.027343 1.160156 4.183594 4.882812 7.144532 9.21875 7.328126 15.390625.652343 28.730469 5.859374 40.285156 15.78125-5.378906 18.535156-8.113281 37.726562-8.113281 57.148437 0 43.617187 14.097656 86.347656 39.863281 121.351563l-123.242187 117.097656c-6.769532 6.449218-10.5625 15.230468-10.67578175 24.734375-.11718725 9.640625 3.71093775 19.058593 10.50390575 25.847656 6.753907 6.746094 15.734376 10.453125 25.316407 10.453125h.238281c9.523438-.0625 18.390625-3.804688 24.964844-10.546875l26.664062-27.351563c3.855469-3.957031 3.777344-10.292968-.183594-14.152343-3.957031-3.859375-10.292968-3.777344-14.152343.179687l-26.660157 27.347656c-2.804687 2.878907-6.628906 4.476563-10.761718 4.503907-4.269532.050781-8.285156-1.605469-11.277344-4.59375-3-3-4.6875-7.167969-4.636719-11.445313.046875-4.0625 1.632813-7.78125 4.457031-10.46875l211.457032-200.921875 7.78125 3.257813 4.527344 10.832031-76.289063 79.152344c-.539063.441406-1.039063.945312-1.488281 1.515625-.023438.03125-.042969.066406-.066406.097656l-41.886719 43.453125c-3.835938 3.980469-3.71875 10.316406.261719 14.152344 3.980468 3.835937 10.316406 3.722656 14.152343-.257813l36.507813-37.878906c34.933594 25.183594 76.082031 38.449219 119.582031 38.449219 31.242187 0 62.222656-7.175781 90.042969-20.785157 8.570312 7.871094 15.191406 18.6875 19.996094 32.605469 1.351562 3.921875 4.984374 6.601563 9.132812 6.738281.109375.003907.21875.003907.328125.003907 4.019531 0 7.664063-2.40625 9.226563-6.132813 9.941406-23.667968 25.3125-39.105468 46.996093-47.1875 3.722657-1.386718 6.269531-4.84375 6.5-8.808594.226563-3.964843-1.914062-7.6875-5.453125-9.488281zm-44.128906-329.886719c8.230469 12.300782 20.433594 23.492188 36.789062 33.753907-8.128906 4.851562-15.480468 10.71875-22.050781 17.578125-.199219.183594-.402343.363281-.585937.5625-5.101563 5.414062-9.742188 11.480468-13.886719 18.148437-8.800781-16.160156-20.480469-28.359375-34.929687-36.5-.003907 0-.007813-.003906-.011719-.007812 15.164062-9.042969 26.753906-20.25 34.675781-33.535157zm-345.496094 89.320313c12.464844-11.511719 21.1875-24.328125 26.109375-38.367187 10.226563 9.945312 23.925781 18.097656 41.289063 24.597656-12.128906 11.222656-21.257813 25.050781-27.316406 41.367187-.015626-.019531-.03125-.035156-.046876-.054687-.824218-.960938-1.65625-1.894532-2.496093-2.8125-.226563-.242188-.453125-.480469-.675781-.722656-.6875-.734376-1.378907-1.457032-2.078126-2.160157-.101562-.101562-.199218-.214843-.300781-.3125-.027343-.03125-.0625-.050781-.089843-.078125-10.160157-10.15625-21.640626-17.328125-34.394532-21.457031zm151.5 119.867187-.015625-.011718c-.023437-.007813-.046875-.011719-.070312-.023438l-36.921875-15.457031 44.839844-38.554687c1.992187-1.710938 3.234374-4.140626 3.449218-6.761719l4.878906-58.925781 50.554688 30.6875c2.242188 1.363281 4.929688 1.789062 7.484375 1.1875l57.597656-13.554688-13.582031 57.515625c-.601562 2.558594-.175781 5.253906 1.1875 7.5l30.707031 50.527344-58.945312 4.871093c-2.613281.214844-5.042969 1.453126-6.753907 3.4375l-38.625 44.804688-22.851562-54.523438c-1.015625-2.421874-2.941406-4.347656-5.367188-5.363281zm118.140625 130.273438c.28125 4.332031 3.324219 7.988281 7.535157 9.050781 1.476562.371094 2.917968.792969 4.332031 1.25-21.691407 8.644531-45.085938 13.160157-68.652344 13.160157-38.277344 0-74.527344-11.378907-105.53125-33.007813l63.195313-65.5625 14.554687 34.734375c1.339844 3.195312 4.238281 5.472656 7.664063 6.015625.523437.082031 1.046874.125 1.566406.125 2.886718 0 5.664062-1.25 7.582031-3.472656l46.507813-53.953125 71-5.871094c3.457031-.285156 6.519531-2.339844 8.09375-5.429688 1.574218-3.09375 1.4375-6.777343-.363282-9.742187l-36.988281-60.859375 16.363281-69.273438c.796875-3.375-.210937-6.921874-2.664062-9.375-2.449219-2.453124-5.996094-3.460937-9.371094-2.667968l-69.367188 16.324218-60.886718-36.960937c-2.964844-1.796875-6.644532-1.933594-9.734375-.359375-3.089844 1.574219-5.144531 4.636719-5.429688 8.089844l-5.875 70.960937-54.015625 46.445313c-2.632812 2.261718-3.902344 5.722656-3.363281 9.152344.542969 3.425781 2.820313 6.328124 6.023437 7.667968l37.785157 15.820313-67.203125 63.851562c-22.300782-31.191406-34.484375-68.933593-34.484375-107.441406 0-13.085937 1.371093-26.058594 4.085937-38.753906.09375.136719.183594.269531.277344.410156.324219.488281.648438.984375.96875 1.484375.226562.355469.457031.707031.683594 1.070312.523437.832032 1.042968 1.675782 1.554687 2.535157 0 0 .003907.003906.003907.007812 1.828124 3.058594 5.113281 4.882813 8.59375 4.882813.570312 0 1.144531-.050782 1.722656-.148438 4.085937-.714844 7.308594-3.875 8.105468-7.945312 5.40625-27.710938 18.511719-47.78125 40.070313-61.355469 3.359375-2.117187 5.152344-6.015625 4.566406-9.945313-.585937-3.925781-3.4375-7.136718-7.269531-8.179687-6.304688-1.71875-12.144531-3.601563-17.539062-5.644531-.035157-.015625-.070313-.035156-.105469-.050782 35.152343-40.292968 85.207031-63.152343 139.222656-63.152343 31.160156 0 61.484375 7.738281 88.539063 22.496093-5.660157 3.441407-11.992188 6.558594-18.941407 9.320313-.003906.003906-.003906.003906-.003906.003906-4.03125 1.605469-6.570313 5.625-6.285156 9.953125.28125 4.335938 3.328125 7.988282 7.539062 9.050782 24.878907 6.277343 41.847657 23.417968 51.871094 52.40625 1.355469 3.917968 4.992187 6.597656 9.136719 6.730468.109375.003906.21875.007813.324218.007813 4.019532 0 7.664063-2.410157 9.226563-6.136719 3.417969-8.136719 7.410156-15.402344 11.996094-21.84375.058593-.078125.117187-.148438.179687-.230469 20.574219 30.449219 31.386719 65.8125 31.386719 103.027344 0 45.679687-16.507813 88.867187-46.695313 122.730469-3.78125-4.84375-6.578124-9.878906-8.375-15.046875-.039062-.113281-.078124-.222657-.113281-.335938-.230469-.683593-.449219-1.367187-.644531-2.054687-.003906-.015625-.007812-.027344-.011719-.039063-1.152343-4.054687-4.699219-6.917969-8.839843-7.246093-.070313-.003907-.144532-.003907-.214844-.007813-.191406-.011719-.378906-.023437-.574219-.023437-.019531 0-.035156 0-.054687 0-4.214844.023437-7.929688 2.675781-9.347657 6.582031-.097656.261719-.179687.527343-.253906.796875-5.628906 20.699218-20.925781 35.75-46.769531 46.015625-4.03125 1.601562-6.574219 5.625-6.289063 9.957031zm63.433594 29.152344c-7.546875-13.316406-17.335937-23.5625-29.296875-30.664063 12.480469-7.703125 22.183594-17.082031 29.050781-28.074219 7.179688 10.246094 17.4375 19.625 30.90625 28.273438-12.222656 7.589844-22.46875 17.769531-30.660156 30.464844zm0 0"/><path d="m101.1875 431.003906-.140625.144532c-3.910156 3.90625-3.910156 10.246093 0 14.152343 1.953125 1.953125 4.511719 2.933594 7.074219 2.933594s5.125-.980469 7.078125-2.933594l.140625-.140625c3.910156-3.910156 3.910156-10.246094 0-14.15625-3.90625-3.90625-10.246094-3.90625-14.152344 0zm0 0"/></svg>