<svg height="512pt" viewBox="0 -24 512.001 512" width="512pt" xmlns="http://www.w3.org/2000/svg"><g fill-rule="evenodd"><path d="m49.425781 62.835938v-52.859376h-14.058593c-13.945313 0-25.371094 13.929688-25.371094 30.945313 0 17.042969 11.425781 30.972656 25.371094 30.972656h14.058593zm0 0" fill="#ffcb7c"/><path d="m85.484375 19.007812v52.886719h341.003906v-61.917969h-341.003906zm0 0" fill="#d7d6d8"/><path d="m49.425781 19.007812h36.054688v43.828126h-36.054688zm0 0" fill="#ffc15a"/><path d="m426.488281 19.007812h36.058594v43.828126h-36.058594zm0 0" fill="#ffc15a"/><path d="m462.546875 19.007812v52.886719h14.058594c13.972656 0 25.398437-13.929687 25.398437-30.972656 0-17.015625-11.425781-30.945313-25.398437-30.945313h-14.058594zm0 0" fill="#ffcb7c"/><path d="m108.785156 71.894531h294.433594v319.21875h-294.433594zm0 0" fill="#f9f9f9"/><path d="m288.472656 299.464844 8.273438-24.289063-25.199219-5.011719-16.921875-19.28125-16.949219 19.28125-25.203125 5.011719 8.277344 24.289063-8.277344 24.320312 25.203125 4.984375 16.949219 19.308594 16.921875-19.308594 25.199219-4.984375zm0 0" fill="#cbe558"/><path d="m49.425781 443.972656v-52.859375h-14.058593c-13.945313 0-25.371094 13.929688-25.371094 30.945313 0 17.042968 11.425781 30.972656 25.371094 30.972656h14.058593zm0 0" fill="#ffcb7c"/><path d="m49.425781 400.144531h36.054688v43.828125h-36.054688zm0 0" fill="#ffc15a"/><path d="m85.484375 400.144531v52.886719h341.003906v-61.917969h-341.003906zm0 0" fill="#d7d6d8"/><path d="m426.488281 400.144531h36.058594v43.828125h-36.058594zm0 0" fill="#ffc15a"/><path d="m462.546875 400.144531v52.886719h14.058594c13.972656 0 25.398437-13.929688 25.398437-30.972656 0-17.015625-11.425781-30.945313-25.398437-30.945313h-14.058594zm0 0" fill="#ffcb7c"/></g><path d="m476.605469 381.136719h-14.058594c-5.203125 0-9.472656 3.964843-9.949219 9.03125h-16.160156c-.476562-5.066407-4.746094-9.03125-9.949219-9.03125h-13.277343v-159.699219c0-5.507812-4.476563-9.972656-9.996094-9.972656-5.519532 0-9.996094 4.464844-9.996094 9.972656v159.699219h-274.4375v-299.265625h274.4375v59.8125c0 5.507812 4.476562 9.976562 10 9.976562 5.519531 0 9.996094-4.46875 9.996094-9.976562v-59.8125h13.273437c5.210938 0 9.488281-3.980469 9.953125-9.0625h16.15625c.460938 5.078125 4.738282 9.0625 9.949219 9.0625h14.058594c19.515625 0 35.394531-18.371094 35.394531-40.949219 0-22.5625-15.878906-40.921875-35.394531-40.921875h-14.058594c-5.203125 0-9.472656 3.964844-9.949219 9.03125h-16.160156c-.476562-5.066406-4.746094-9.03125-9.949219-9.03125h-341.003906c-5.203125 0-9.472656 3.964844-9.949219 9.03125h-16.160156c-.476562-5.066406-4.746094-9.03125-9.949219-9.03125h-14.058593c-19.503907 0-35.367188 18.359375-35.367188 40.921875 0 22.578125 15.863281 40.945313 35.367188 40.945313h14.058593c5.210938 0 9.488281-3.980469 9.953125-9.058594h16.152344c.464844 5.078125 4.742188 9.058594 9.953125 9.058594h13.300781v299.269531h-13.300781c-5.203125 0-9.472656 3.964843-9.949219 9.03125h-16.160156c-.476562-5.066407-4.746094-9.03125-9.949219-9.03125h-14.058593c-19.503907 0-35.367188 18.359375-35.367188 40.921875 0 22.578125 15.863281 40.949218 35.367188 40.949218h14.058593c5.210938 0 9.488281-3.980468 9.953125-9.0625h16.152344c.464844 5.082032 4.742188 9.0625 9.953125 9.0625h341.003906c5.210938 0 9.488281-3.980468 9.949219-9.0625h16.15625c.464844 5.082032 4.742188 9.0625 9.953125 9.0625h14.058594c19.515625 0 35.394531-18.371093 35.394531-40.949218 0-22.5625-15.878906-40.921875-35.394531-40.921875zm-24.054688-328.277344h-16.066406v-23.875h16.066406zm39.457031-11.9375c0 11.378906-7.054687 20.996094-15.402343 20.996094h-4.0625v-41.964844h4.0625c8.347656 0 15.402343 9.601563 15.402343 20.96875zm-432.585937-11.9375h16.0625v23.875h-16.0625zm-39.429687 11.9375c0-11.367187 7.039062-20.972656 15.375-20.972656h4.0625v41.96875h-4.0625c-8.332032 0-15.375-9.617188-15.375-20.996094zm75.488281-20.96875h321.011719v41.964844h-321.011719zm341.003906 390.167969h16.0625v23.875h-16.0625zm-377.0625 0h16.0625v23.875h-16.0625zm-39.429687 11.9375c0-11.367188 7.039062-20.96875 15.375-20.96875h4.0625v41.964844h-4.0625c-8.332032 0-15.375-9.613282-15.375-20.996094zm75.488281-20.96875h321.011719v41.964844h-321.011719zm381.125 41.964844h-4.0625v-41.96875h4.0625c8.347656 0 15.402343 9.605468 15.402343 20.96875 0 11.386718-7.054687 21-15.402343 21zm0 0"/><path d="m358.0625 104.953125h-202.90625c-5.519531 0-9.996094 4.464844-9.996094 9.976563 0 5.507812 4.476563 9.972656 9.996094 9.972656h202.90625c5.519531 0 9.996094-4.464844 9.996094-9.972656 0-5.511719-4.476563-9.976563-9.996094-9.976563zm0 0"/><path d="m153.910156 173.96875h202.933594c5.519531 0 9.996094-4.464844 9.996094-9.976562 0-5.507813-4.476563-9.972657-9.996094-9.972657h-202.933594c-5.519531 0-9.996094 4.464844-9.996094 9.972657 0 5.511718 4.476563 9.976562 9.996094 9.976562zm0 0"/><path d="m366.980469 213.03125c0-5.511719-4.476563-9.976562-9.996094-9.976562h-203.074219c-5.519531 0-9.996094 4.464843-9.996094 9.976562 0 5.507812 4.476563 9.972656 9.996094 9.972656h203.074219c5.519531 0 9.996094-4.464844 9.996094-9.972656zm0 0"/><path d="m305.40625 270.191406c-1.4375-2.488281-3.882812-4.238281-6.707031-4.800781l-21.867188-4.347656-14.6875-16.730469c-1.898437-2.164062-4.636719-3.402344-7.515625-3.402344 0 0 0 0-.003906 0-2.878906 0-5.617188 1.238282-7.515625 3.394532l-14.714844 16.738281-21.875 4.351562c-2.824219.5625-5.265625 2.308594-6.707031 4.796875-1.4375 2.488282-1.730469 5.476563-.804688 8.195313l7.183594 21.082031-7.183594 21.109375c-.925781 2.722656-.628906 5.710937.808594 8.199219 1.441406 2.488281 3.886719 4.234375 6.714844 4.796875l21.863281 4.320312 14.710938 16.757813c1.898437 2.160156 4.636719 3.402344 7.519531 3.402344h.003906c2.882813-.003907 5.625-1.246094 7.519532-3.410157l14.683593-16.75 21.859375-4.320312c2.824219-.5625 5.273438-2.308594 6.710938-4.796875 1.441406-2.488282 1.738281-5.476563.8125-8.199219l-7.1875-21.109375 7.183594-21.082031c.929687-2.71875.636718-5.707031-.804688-8.195313zm-35.800781 48.792969c-2.167969.429687-4.128907 1.558594-5.582031 3.21875l-9.40625 10.730469-9.421876-10.738282c-1.453124-1.652343-3.414062-2.78125-5.578124-3.210937l-14.007813-2.769531 4.609375-13.539063c.707031-2.082031.707031-4.339843 0-6.421875l-4.609375-13.519531 14.019531-2.789063c2.15625-.429687 4.109375-1.554687 5.5625-3.203124l9.429688-10.726563 9.40625 10.71875c1.453125 1.652344 3.410156 2.78125 5.566406 3.210937l14.019531 2.789063-4.605469 13.519531c-.710937 2.082032-.710937 4.339844-.003906 6.417969l4.609375 13.542969zm0 0"/><path d="m337.054688 272.835938c5.523437 0 10-4.46875 10-9.976563s-4.476563-9.976563-10-9.976563h-.167969c-5.523438 0-9.996094 4.46875-9.996094 9.976563s4.472656 9.976563 9.996094 9.976563zm0 0"/><path d="m337.054688 340.613281h.199218c5.519532 0 9.996094-4.464843 9.996094-9.976562 0-5.507813-4.476562-9.972657-9.996094-9.972657h-.199218c-5.519532 0-9.996094 4.464844-9.996094 9.972657 0 5.511719 4.476562 9.976562 9.996094 9.976562zm0 0"/><path d="m172.082031 272.835938c5.519531 0 9.996094-4.46875 9.996094-9.976563s-4.476563-9.976563-9.996094-9.976563h-.199219c-5.523437 0-9.996093 4.46875-9.996093 9.976563s4.472656 9.976563 9.996093 9.976563zm0 0"/><path d="m172.082031 340.613281h.167969c5.523438 0 9.996094-4.464843 9.996094-9.976562 0-5.507813-4.472656-9.972657-9.996094-9.972657h-.167969c-5.523437 0-9.996093 4.464844-9.996093 9.972657 0 5.511719 4.472656 9.976562 9.996093 9.976562zm0 0"/><path d="m403.214844 191.523438c-5.519532 0-9.996094-4.46875-9.996094-9.976563v-.167969c0-5.511718 4.476562-9.976562 9.996094-9.976562 5.523437 0 10 4.464844 10 9.976562v.167969c0 5.507813-4.476563 9.976563-10 9.976563zm0 0"/></svg>