<svg height="511pt" viewBox="0 -5 511.99984 511" width="511pt" xmlns="http://www.w3.org/2000/svg"><g fill-rule="evenodd"><path d="m233.144531 293.671875c-12.503906 37.019531-51.574219 29.28125-72.34375 18.101563l-34.417969-18.496094c-26.347656-14.175782-18.109374-14.175782-46.558593-14.175782h-42.996094l34.898437 20.089844 126.382813 122.234375c20.878906 20.175781 38.453125 37.296875 68.78125 37.296875h111.246094c30.917969 0 54.90625-20.0625 66.710937-54.195312 5.605469-16.28125 8.464844-35.757813 7.929688-57.78125-.363282-14.769532-3.671875-28.332032-9.390625-39.875-11.378907-22.980469-32.289063-37.859375-58.242188-37.859375h-111.109375c-18.355468 0-35.761718 9.554687-40.890625 24.660156zm0 0" fill="#ffcb7c"/><path d="m274.035156 269.011719h105.054688c0-27.152344-13.988282-43.9375-31.757813-50.832031-12.667969-4.933594-27.300781-4.847657-40.109375.085937-18.441406 7.089844-33.1875 24.183594-33.1875 50.746094zm0 0" fill="#ffc15a"/><path d="m307.222656 218.265625c12.808594-4.933594 27.441406-5.019531 40.109375-.085937v-19.894532c0-11.015625-9.023437-20.039062-20.039062-20.039062-11.042969 0-20.070313 9.023437-20.070313 20.039062zm0 0" fill="#d7d6d8"/><path d="m386.683594 458.722656h-128.316406v31.890625h128.316406zm0 0" fill="#ffc15a"/><path d="m392.515625 152.1875c22.785156 5.746094 37.585937 21.746094 45.9375 45.929688 9.164063-21.828126 23.9375-37.71875 45.941406-45.929688-24.132812-12.300781-40.617187-27.210938-45.941406-45.957031-5.714844 21.015625-21.328125 36.148437-45.9375 45.957031zm0 0" fill="#ffc15a"/><path d="m242.226562 192.007812c-16.847656-8.574218-28.367187-18.972656-32.066406-32.058593-4.007812 14.65625-14.882812 25.21875-32.066406 32.058593 15.894531 4.007813 26.234375 15.160157 32.066406 32.058594 6.390625-15.246094 16.703125-26.34375 32.066406-32.058594zm0 0" fill="#d675a7"/><path d="m118.167969 191.417969c27.050781-3.867188 43.699219-37.269531 32.039062-64.03125-6.277343-14.402344-20.015625-25.5-41.707031-25.527344l-30.582031-.027344c-14.460938-.027343-14.546875-28.722656.617187-28.386719 2.972656.027344 27.21875 0 29.9375 0 81.226563 0 50.03125-63.050781 42.238282-63.050781 0 0-6.027344 28.613281-25.003907 28.5-14.515625-.054687-29.566406.222657-35.761719.222657h-20.351562c-78.453125 0-75.761719 93.457031-12.414062 96.0625l4.117187.167968c19.230469.785156 18.109375 29.28125-1.484375 29.675782-19.144531.417968-8.042969-.167969-32.765625-.167969-24.554687 0-21.609375 39.511719 1.484375 39.175781 3.222656-.058594 6.953125.027344 10.148438 0 9.921874-.113281 18.160156 4.144531 18.160156 44.835938 18.445312-4.371094 28.757812-21.746094 28.757812-40.464844.003906-18.972656 17.15625-14.796875 32.570313-16.984375zm0 0" fill="#f9f9f9"/></g><path d="m453.140625 296.808594h-3.902344c-13.128906-22.316406-34.886719-36.503906-60.839843-37.601563-1.855469-15.527343-8.183594-28.695312-18.609376-38.445312-3.773437-3.53125-8.003906-6.507813-12.5625-8.917969v-13.558594c0-16.503906-13.429687-29.929687-29.933593-29.929687-16.523438 0-29.964844 13.425781-29.964844 29.929687v13.578125c-4.757813 2.460938-9.195313 5.507813-13.175781 9.128907-7.933594 7.21875-17.1875 19.550781-19.472656 38.835937-19.328126 2.921875-35.488282 14.710937-40.910157 30.679687-3.1875 9.4375-8.40625 15.476563-15.957031 18.453126-13.363281 5.269531-31.152344.117187-42.328125-5.902344l-34.414063-18.492188c-5.738281-3.089844-9.75-5.460937-12.976562-7.371094-13.1875-7.804687-15.246094-7.988281-38.265625-7.988281h-43c-4.476563 0-8.398437 3.011719-9.554687 7.335938-1.160157 4.328125.738281 8.894531 4.621093 11.128906l33.832031 19.480469 49.207032 47.597656c3.925781 3.800781 10.191406 3.695312 13.988281-.230469 3.800781-3.925781 3.695313-10.191406-.230469-13.988281l-50.089844-48.453125c-.582031-.5625-1.234374-1.054687-1.941406-1.460937l-2.820312-1.625h5.984375c10.039062 0 15.570312 0 18.769531.636718 2.390625.476563 4.046875 1.414063 9.421875 4.59375 3.199219 1.894532 7.582031 4.484375 13.683594 7.769532l34.410156 18.492187c15.617187 8.410156 39.308594 14.628906 58.960937 6.882813 12.929688-5.101563 22.421876-15.660157 27.4375-30.515626 3.53125-10.398437 16.792969-17.949218 31.527344-17.949218h111.105469c32.507813 0 56.792969 28.632812 57.746094 68.078125.480469 20.207031-1.992188 38.371093-7.140625 53.617187-.214844.492188-.390625 1.007813-.523438 1.542969-4.296875 12.128906-10.328125 22.335937-17.953125 30.148437-10.71875 10.976563-23.882812 16.539063-39.132812 16.539063h-111.246094c-26.183594 0-41.816406-15.105469-61.609375-34.230469l-23.449219-22.675781c-3.925781-3.796875-10.191406-3.691406-13.988281.234375-3.796875 3.929688-3.695312 10.191406.234375 13.988281l23.453125 22.683594c17.066406 16.488281 33.371094 32.230469 56.945312 37.726563v24.058593c0 5.460938 4.429688 9.890625 9.890626 9.890625h128.316406c5.464844 0 9.894531-4.429687 9.894531-9.890625v-24.230469c13.105469-3.277343 24.941406-10.125 34.847656-20.269531 8.339844-8.539062 15.105469-19.214843 20.191407-31.609375h1.523437c32.457031 0 58.859375-26.398437 58.859375-58.847656s-26.402344-58.847656-58.859375-58.847656zm-136.023437-98.523438c0-5.59375 4.566406-10.144531 10.175781-10.144531 5.59375 0 10.148437 4.550781 10.148437 10.144531v7.09375c-3.246094-.488281-6.5625-.753906-9.929687-.753906-3.519531 0-6.992188.285156-10.394531.8125zm-32.332032 60.835938c2.953125-16.289063 13.195313-26.546875 25.328125-31.394532.386719-.117187.761719-.265624 1.128907-.425781 5.25-1.9375 10.8125-2.890625 16.269531-2.890625 5.59375 0 10.957031.976563 15.855469 2.828125.121093.054688.242187.101563.363281.148438 4.6875 1.824219 8.9375 4.453125 12.539062 7.820312 6.402344 5.988281 10.519531 14.140625 12.140625 23.910157h-83.625zm92.007813 221.597656h-108.53125v-12.101562h108.527343v12.101562zm81.246093-86.316406c3.453126-14.488282 5.039063-30.597656 4.628907-47.894532-.253907-10.539062-1.886719-20.46875-4.679688-29.601562 19.265625 2.398438 34.226563 18.855469 34.226563 38.75 0 19.878906-14.933594 36.328125-34.175782 38.746094zm0 0"/><path d="m34.136719 213.914062c1.589843.011719 3.164062.019532 4.652343.007813 2.453126-.035156 2.828126.339844 3.027344.535156 1.207032 1.191407 5.132813 7.191407 5.132813 34.40625 0 3.027344 1.382812 5.882813 3.757812 7.761719 1.761719 1.394531 3.929688 2.132812 6.136719 2.132812.761719 0 1.523438-.089843 2.28125-.269531 21.753906-5.15625 36.367188-25.285156 36.367188-50.089843 0-4.941407 0-5.578126 13.367187-6.289063 3.445313-.183594 7.007813-.375 10.699219-.894531.003906 0 .007812-.003906.011718-.003906 15.179688-2.167969 28.566407-11.796876 36.722657-26.417969 8.917969-15.980469 10.03125-35.179688 2.980469-51.359375-8.703126-19.96875-27.207032-31.4375-50.765626-31.46875l-30.4375-.027344c-.445312-.566406-1.109374-2.242188-1.058593-4.492188.054687-2.351562.820312-3.753906 1.164062-4.105468.023438-.003906.058594-.003906.097657-.003906.050781-.003907.113281 0 .167968 0 2.390625.023437 17.617188.011718 25.796875.003906l4.234375-.003906c21.976563 0 38.699219-4.433594 49.699219-13.183594 9.699219-7.714844 14.828125-18.542969 14.828125-31.316406 0-15.4375-9.359375-38.335938-22.289062-38.335938-4.679688 0-8.714844 3.277344-9.679688 7.855469-.921875 4.367187-6.195312 20.644531-15.242188 20.644531-.011718 0-.027343 0-.042968 0-9.371094-.035156-19.128906.066406-26.246094.144531-4.027344.042969-7.355469.078125-9.554688.078125h-20.351562c-46.808594 0-68.75 30.171875-69.324219 58.207032-.566406 27.460937 18.660157 56.074218 56.503907 57.632812l4.121093.167969c1.085938.042969 4.386719.179687 4.339844 4.433593-.011719 1.253907-.457031 5.363282-5.636719 5.464844-9.828125.21875-11.378906.160156-14.191406.0625-2.753906-.097656-6.519531-.234375-18.359375-.234375-10.015625 0-18.464844 4.734375-23.175781 12.988281-5.402344 9.464844-5.128906 22.445313.6875 32.292969 5.21875 8.839844 14.003906 13.800781 24.144531 13.679688 1.675781-.027344 3.585937-.015625 5.433594-.003907zm-12.539063-23.734374c-2.210937-3.746094-2.445312-9.085938-.542968-12.421876.800781-1.402343 2.207031-3.011718 5.992187-3.011718 11.488281 0 15.054687.128906 17.65625.21875 3.179687.113281 4.933594.175781 15.308594-.050782 16.078125-.324218 24.886719-13.144531 25.007812-25.042968.121094-11.652344-7.847656-23.777344-23.320312-24.410156l-4.117188-.167969c-26.292969-1.082031-37.886719-20.175781-37.53125-37.457031.398438-19.324219 15.871094-38.824219 49.542969-38.824219h20.347656c2.25 0 5.652344-.039063 9.769532-.082031 7.058593-.074219 16.71875-.183594 25.9375-.144532 12.355468.070313 21.097656-7.578125 26.816406-16.664062 1.023437 4.574218 1.222656 9.738281-.585938 14.496094-5.324218 13.996093-26.542968 16.933593-43.410156 16.933593l-4.25.003907c-7.507812.003906-23.066406.015624-25.535156-.003907-7.414063-.125-13.867188 3.503907-17.753906 10.003907-4.84375 8.101562-4.960938 19.535156-.28125 27.804687 3.71875 6.574219 10.007812 10.351563 17.261718 10.363281l30.578125.027344c15.554688.023438 27.152344 6.980469 32.648438 19.589844 4.597656 10.550781 3.804687 23.191406-2.121094 33.8125-5.121094 9.175781-13.226563 15.179687-22.238281 16.472656-2.832032.398438-5.953125.566406-8.96875.726562-6.773438.359376-13.78125.734376-19.800782 3.75-5.609374 2.8125-12.300781 8.964844-12.300781 22.296876 0 8.710937-3 18.183593-9.480469 24.46875-1.191406-16.511719-4.511718-26.558594-10.496093-32.476563-5.570313-5.511719-12.078125-6.257813-16.640625-6.257813-.167969 0-.335938 0-.496094.003907-1.371094.011719-2.84375.003906-4.332031-.007813-1.960938-.011718-3.988281-.023437-5.871094.007813-1.085937.015625-4.417969.0625-6.792969-3.957031zm0 0"/><path d="m168.222656 192.660156c.28125 4.28125 3.292969 7.890625 7.453125 8.941406 11.988281 3.023438 20.210938 11.425782 25.132813 25.691407 1.335937 3.878906 4.929687 6.527343 9.03125 6.660156.105468.003906.214844.003906.320312.003906 3.976563 0 7.578125-2.382812 9.121094-6.066406 5.613281-13.386719 14.246094-22.089844 26.394531-26.609375 3.679688-1.371094 6.199219-4.785156 6.425781-8.707031.222657-3.917969-1.890624-7.601563-5.390624-9.382813-15.269532-7.773437-24.363282-16.5-27.03125-25.933594-1.207032-4.261718-5.09375-7.199218-9.519532-7.199218-.015625 0-.03125 0-.042968 0-4.441407.015625-8.328126 2.996094-9.5 7.28125-3.109376 11.367187-11.671876 19.703125-26.179688 25.476562-3.988281 1.585938-6.496094 5.5625-6.214844 9.84375zm42.382813-11.847656c3.265625 3.792969 7.226562 7.386719 11.898437 10.792969-4.367187 3.308593-8.277344 7.199219-11.722656 11.660156-3.230469-4.625-6.960938-8.5625-11.195312-11.796875 4.285156-3.179688 7.964843-6.734375 11.019531-10.65625zm0 0"/><path d="m158.292969 369.257812c-3.414063-4.265624-9.640625-4.953124-13.90625-1.539062s-4.953125 9.640625-1.539063 13.90625l.113282.140625c1.953124 2.441406 4.828124 3.710937 7.726562 3.710937 2.167969 0 4.355469-.710937 6.179688-2.171874 4.261718-3.414063 4.953124-9.640626 1.539062-13.90625zm0 0"/><path d="m390.097656 161.78125c18.675782 4.707031 31.4375 17.648438 39.003906 39.566406 1.339844 3.875 4.929688 6.523438 9.03125 6.65625.109376.003906.214844.003906.324219.003906 3.972657 0 7.574219-2.378906 9.117188-6.0625 8.53125-20.3125 21.707031-33.558593 40.277343-40.488281 3.675782-1.375 6.195313-4.789062 6.417969-8.707031.222657-3.917969-1.886719-7.59375-5.382812-9.378906-23.289063-11.871094-36.671875-24.902344-40.917969-39.84375-1.207031-4.257813-5.09375-7.191406-9.515625-7.191406-.015625 0-.035156 0-.054687 0-4.445313.027343-8.324219 3.011718-9.492188 7.296874-4.804688 17.660157-17.90625 30.535157-40.054688 39.363282-3.984374 1.589844-6.492187 5.566406-6.207031 9.84375.285157 4.28125 3.292969 7.890625 7.453125 8.941406zm48.824219-32.753906c5.992187 8.121094 14.203125 15.617187 24.71875 22.570312-9.617187 6.265625-17.800781 14.394532-24.496094 24.347656-6.195312-10.414062-14-18.601562-23.378906-24.53125 9.722656-6.273437 17.453125-13.75 23.15625-22.386718zm0 0"/></svg>