<svg height="511pt" viewBox="-42 1 511 511.99975" width="511pt" xmlns="http://www.w3.org/2000/svg"><g fill-rule="evenodd"><path d="m78.863281 349.523438c-47.570312 31.152343-77.140625 81.949218-65.992187 152.417968l10.558594.027344h55.433593zm0 0" fill="#d675a7"/><path d="m78.863281 349.523438v152.445312h102.746094l-26.089844-123.25c-18.195312 4.707031-30.84375-7.3125-30.84375-26.871094l-.171875-17.660156c-.140625-2.324219.140625-4.765625.792969-7.171875-16.664063 5.78125-32.34375 13.265625-46.433594 22.507813zm0 0" fill="#b3b0b5"/><path d="m155.519531 378.71875 26.089844 123.253906h19.015625l13.921875-.03125 13.894531.03125h6.28125l26.035156-123.082031c-2.773437-.679687-5.691406-1.730469-8.71875-3.234375l-23.003906-12.414062h-42.445312l-23.007813 12.414062c-2.769531 1.390625-5.488281 2.382812-8.0625 3.0625zm0 0" fill="#d675a7"/><path d="m337.472656 341.839844v160.132812h68.195313l10.527343-.03125c12.109376-76.589844-23.855468-129.941406-78.722656-160.101562zm0 0" fill="#d675a7"/><path d="m337.472656 501.972656v-160.132812c-15.082031-8.277344-31.582031-14.796875-48.898437-19.585938 1.835937 3.882813 2.773437 8.078125 2.546875 11.933594l-.171875 17.660156c0 19.332032-12.335938 31.292969-30.191407 27.042969l-26.035156 123.082031zm0 0" fill="#b3b0b5"/><path d="m260.757812 378.890625c17.855469 4.25 30.191407-7.710937 30.191407-27.042969l.171875-17.660156c.226562-3.855469-.707032-8.050781-2.546875-11.933594-3.367188-7.03125-9.820313-13.011718-18.222657-14.0625-5.125-.652344-10.980468.539063-17.292968 4.480469l-24.023438 11.679687v38.890626l23.007813 12.417968c3.027343 1.5 5.941406 2.546875 8.714843 3.230469zm0 0" fill="#f6838d"/><path d="m229.035156 363.242188v-38.890626h-42.445312v38.890626zm0 0" fill="#ff6977"/><path d="m186.589844 363.242188v-38.890626l-24.023438-11.679687c-7.414062-4.621094-14.207031-5.472656-19.921875-3.96875-8.855469 2.292969-15.167969 10.175781-17.34375 18.3125-.652343 2.40625-.9375 4.84375-.792969 7.171875l.167969 17.660156c0 19.558594 12.648438 31.574219 30.84375 26.871094 2.578125-.679688 5.292969-1.671875 8.066407-3.0625zm0 0" fill="#f6838d"/><path d="m162.566406 312.671875 24.023438 11.679687h42.445312l24.023438-11.679687c6.308594-3.941406 12.167968-5.132813 17.289062-4.480469 16.921875-19.785156 28.210938-45.722656 28.210938-72.027344v-47.28125h-184.496094v48.273438c0 26.332031 11.320312 52.015625 28.582031 71.546875 5.714844-1.503906 12.507813-.652344 19.921875 3.96875zm0 0" fill="#ffddcf"/><path d="m114.0625 188.882812h204.449219c10.753906 0 19.523437-8.816406 19.523437-19.558593 0-10.746094-8.769531-19.558594-19.523437-19.558594h-224.738281c-10.75 0-19.523438 8.8125-19.523438 19.558594 0 10.742187 8.773438 19.558593 19.523438 19.558593zm0 0" fill="#d7d6d8"/><path d="m114.234375 109.9375h184.808594v39.828125h-184.808594zm0 0" fill="#b3b0b5"/><path d="m114.234375 73.113281h184.808594v36.824219h-184.808594zm0 0" fill="#ff6977"/><path d="m114.234375 73.113281h184.808594v-52.042969c-62.167969-14.882812-123.773438-14.769531-184.808594 0zm0 0" fill="#b3b0b5"/></g><path d="m207.984375 441.738281h-.171875c-5.519531 0-9.996094 4.476563-9.996094 10 0 5.523438 4.476563 10 9.996094 10h.171875c5.519531 0 9.992187-4.476562 9.992187-10 0-5.519531-4.472656-10-9.992187-10zm0 0"/><path d="m396.144531 377.585938c-14.007812-17.628907-32.226562-32.625-53.855469-44.507813-.03125-.015625-.0625-.035156-.09375-.050781-14.257812-7.820313-29.988281-14.296875-46.988281-19.273438-2.425781-3.757812-5.507812-7.078125-9.078125-9.675781 14.363282-20.695313 22.425782-44.832031 22.425782-67.914063v-37.28125h9.957031c16.277343 0 29.519531-13.261718 29.519531-29.558593 0-16.300781-13.242188-29.5625-29.519531-29.5625h-9.476563v-118.691407c0-4.628906-3.171875-8.648437-7.667968-9.726562-63.195313-15.128906-126.945313-15.125-189.484376.007812-4.484374 1.085938-7.644531 5.101563-7.644531 9.71875v118.691407h-10.464843c-16.277344 0-29.519532 13.261719-29.519532 29.5625 0 16.296875 13.242188 29.558593 29.519532 29.558593h10.296874v38.273438c0 23.539062 8.414063 47.941406 23.375 68.542969-4.261718 3.632812-7.6875 8.332031-9.941406 13.492187-15.949218 5.882813-30.597656 13.175782-43.71875 21.726563-.296875.179687-.582031.367187-.859375.574219-18.027343 11.886718-33.136719 26.15625-44.722656 42.398437-23.957031 33.578125-32.4375 73.820313-25.203125 119.613281.769531 4.859375 4.949219 8.4375 9.867188 8.441406l89.855468.054688 313.476563-.058594c4.914062 0 9.097656-3.578125 9.867187-8.4375 7.621094-48.144531-2.726562-91.6875-29.921875-125.917968zm-115.003906-43.960938c-.007813.15625-.015625.308594-.015625.464844l-.171875 17.757812c0 7.628906-2.453125 13.53125-6.734375 16.199219-4.242188 2.640625-10.488281 2.183594-17.605469-1.285156l-17.585937-9.488281v-26.664063l18.398437-8.941406c.316407-.152344.617188-.320313.914063-.503907 5.730468-3.570312 10.804687-4.089843 15.085937-1.554687 2.617188 1.554687 4.625 3.988281 5.941407 6.59375.078124.179687.164062.351563.25.523437 1.101562 2.367188 1.640624 4.839844 1.523437 6.898438zm7.90625-304.585938v34.074219h-164.820313v-34.09375c54.449219-12.027343 109.820313-12.019531 164.820313.019531zm-164.820313 90.898438h45.695313c5.519531 0 9.996094-4.476562 9.996094-10s-4.476563-10-9.996094-10h-45.695313v-16.824219h164.820313v16.824219h-42.550781c-5.519532 0-9.996094 4.476562-9.996094 10s4.476562 10 9.996094 10h42.550781v19.828125h-164.820313zm-39.984374 49.386719c0-5.273438 4.277343-9.558594 9.53125-9.558594h224.738281c5.253906 0 9.527343 4.285156 9.527343 9.558594 0 5.269531-4.273437 9.558593-9.527343 9.558593h-224.738281c-5.253907 0-9.53125-4.289062-9.53125-9.558593zm39.816406 29.558593h164.507812v37.28125c0 21.097657-8.300781 43.445313-22.902344 61.976563-5.789062.378906-11.710937 2.289063-17.414062 5.75l-21.515625 10.460937h-37.84375l-21.515625-10.460937c-6.757812-4.097656-13.820312-6.039063-20.601562-5.8125-14.484376-18.050781-22.714844-39.980469-22.714844-60.921875zm72.527344 135.46875h22.453124v18.890626h-22.453124zm-37.574219 32.410157c-7.117188 3.46875-13.363281 3.925781-17.605469 1.285156-4.28125-2.664063-6.738281-8.570313-6.738281-16.296875l-.167969-17.660156c0-.152344-.007812-.308594-.015625-.464844-.25-4.488281 2.566406-10.957031 7.714844-14.011719 1.777343-1.054687 3.691406-1.582031 5.730469-1.582031 2.875 0 6.003906 1.046875 9.355468 3.132812.292969.183594.597656.351563.910156.503907l18.398438 8.941406v26.664063zm-90.144531 2.742187v122.472656l-47.265626-.03125c-6.734374-59.582031 18.097657-98.117187 47.265626-122.441406zm19.988281 122.484375v-136.792969c8.992187-5.53125 17.816406-9.902343 25.726562-13.300781l.097657 9.953125c0 14.691406 5.890624 26.785156 16.164062 33.179688 5.023438 3.128906 10.714844 4.699218 16.796875 4.726562l21.636719 102.210938-66.554688.035156zm100.851562-.035156-22.628906-106.894531c.304687-.148438.613281-.277344.921875-.429688.109375-.054687.21875-.109375.328125-.167968l20.785156-11.21875h37.398438l20.785156 11.21875c.109375.058593.21875.113281.328125.167968.519531.253906 1.035156.480469 1.550781.71875l-22.550781 106.601563-12.082031-.007813zm136.675781.046875-79.328124-.042969 21.625-102.222656c5.816406-.144531 11.269531-1.699219 16.101562-4.707031 10.273438-6.394532 16.164062-18.488282 16.164062-33.085938l.148438-15.320312c9.359375 3.25 18.160156 6.980468 26.382812 11.15625v144.21875zm81.070313-.050781-59.988281.035156v-132.421875c44.484375 30.386719 66.128906 76.816406 59.988281 132.386719zm0 0"/><path d="m208.039062 423.558594h.253907c5.519531 0 9.996093-4.476563 9.996093-10 0-5.523438-4.476562-10-9.996093-10h-.253907c-5.519531 0-9.996093 4.476562-9.996093 10 0 5.519531 4.476562 10 9.996093 10zm0 0"/><path d="m173.574219 236.808594h.253906c5.519531 0 9.996094-4.476563 9.996094-10 0-5.523438-4.476563-10-9.996094-10h-.253906c-5.519531 0-9.996094 4.476562-9.996094 10 0 5.523437 4.476563 10 9.996094 10zm0 0"/><path d="m240.410156 236.808594h.226563c5.519531 0 9.996093-4.476563 9.996093-10 0-5.523438-4.476562-10-9.996093-10h-.226563c-5.519531 0-9.996094 4.476562-9.996094 10 0 5.523437 4.476563 10 9.996094 10zm0 0"/><path d="m167.992188 271.570312c0 5.519532 4.476562 10 9.996093 10h6.367188c9.75 0 14.882812-5.847656 17.949219-9.339843 2.351562-2.675781 2.535156-2.675781 3.273437-2.679688.757813 0 .9375 0 3.28125 2.664063 3.066406 3.488281 8.195313 9.328125 17.941406 9.328125h6.367188c5.519531 0 9.996093-4.480469 9.996093-10.003907 0-5.519531-4.476562-10-9.996093-10h-6.367188c-.542969 0-.703125 0-2.933593-2.53125-3.109376-3.539062-8.3125-9.460937-18.316407-9.457031-9.964843.023438-15.160156 5.945313-18.265625 9.480469-2.226562 2.539062-2.390625 2.539062-2.929687 2.539062h-6.367188c-5.519531-.003906-9.996093 4.476563-9.996093 10zm0 0"/><path d="m207.019531 99.9375h-.199219c-5.519531 0-9.992187 4.476562-9.992187 10 0 5.519531 4.472656 10 9.992187 10h.199219c5.519531 0 9.996094-4.480469 9.996094-10 0-5.523438-4.476563-10-9.996094-10zm0 0"/></svg>