<svg height="511pt" viewBox="-47 0 511 511.998" width="511pt" xmlns="http://www.w3.org/2000/svg"><g fill-rule="evenodd"><path d="m84.253906 175.316406c2.355469-.027344 35.371094 0 60.898438 0 18.238281 0 17.757812-1.8125 23.996094 20.152344l5.390624 18.964844h40.699219l12.167969-34.980469c5.332031-15.25 15.007812-16.128906 26.976562-16.128906h56.21875c22.007813 0 34.035157-14.480469 33.980469-29.390625-2.242187-.9375-4.597656-1.730469-7.09375-2.355469 2.296875-.90625 4.484375-1.898437 6.582031-2.917969-2.75-13.945312-16.394531-26.789062-42.660156-26.816406l-85.546875-.027344c-21.15625 0-21.15625-32.964844.597657-31.859375 2.835937.027344 25.894531 0 28.476562 0 77.261719 0 47.59375-59.949219 40.191406-59.949219 0 0-5.730468 27.210938-23.796875 27.097657-13.785156-.054688-28.109375.226562-34.007812.226562h-104.011719c-62.96875 0-53.066406 72.054688-7.882812 72.675781 18.292968.257813 17.214843 27.835938-1.417969 28.230469-18.210938.398438-7.660157-.167969-31.171875-.167969-23.375 0-20.539063 37.558594 1.414062 37.246094zm0 0" fill="#e8e7e9"/><path d="m249.449219 249.691406h-101.628907v48.1875c-28.195312 13.351563-49.722656 37.445313-58.542968 66.609375 72.128906 46.316407 105.371094-45.292969 213.664062-13.292969-10.691406-23.128906-29.726562-42.0625-53.492187-53.316406zm0 0" fill="#f9f9f9"/><path d="m147.820312 249.691406h101.628907c29.554687 0 28.363281-35.257812 0-35.257812h-101.628907c-28.363281 0-29.554687 35.257812 0 35.257812zm0 0" fill="#b3b0b5"/><path d="m302.941406 351.195312c-108.292968-32-141.535156 59.609376-213.664062 13.292969-2.894532 9.46875-4.425782 19.445313-4.425782 29.792969 0 59.464844 50.941407 107.707031 113.769532 107.707031 62.851562 0 113.765625-48.242187 113.765625-107.707031 0-15.308594-3.375-29.875-9.445313-43.085938zm-72.382812 41.128907c0-7.992188 6.492187-14.484375 14.492187-14.484375s14.464844 6.492187 14.464844 14.484375c0 7.992187-6.464844 14.457031-14.464844 14.457031s-14.492187-6.464844-14.492187-14.457031zm0 0" fill="#cbe558"/><path d="m186.335938 432.460938c0-9.976563-8.082032-18.082032-18.066407-18.082032-10.011719 0-18.097656 8.105469-18.097656 18.082032 0 9.976562 8.085937 18.054687 18.097656 18.054687 9.984375 0 18.066407-8.078125 18.066407-18.054687zm0 0" fill="#ffcb7c"/><path d="m230.558594 392.324219c0 7.992187 6.492187 14.457031 14.492187 14.457031s14.464844-6.464844 14.464844-14.457031c0-7.992188-6.464844-14.484375-14.464844-14.484375s-14.492187 6.492187-14.492187 14.484375zm0 0" fill="#ffcb7c"/><path d="m45.511719 275.996094c6.976562-16.636719 18.238281-28.710938 34.972656-34.976563-18.351563-9.355469-30.917969-20.691406-34.972656-34.949219-4.371094 15.988282-16.253907 27.496094-35.003907 34.949219 17.359376 4.394531 28.621094 16.554688 35.003907 34.976563zm0 0" fill="#ffc15a"/><path d="m344.582031 133.933594c13.414063 5.640625 22.460938 16.835937 27.910157 32.597656 6.976562-16.609375 18.234374-28.714844 35-34.949219-18.378907-9.355469-30.945313-20.691406-35-34.980469-3.832032 14.03125-13.445313 24.632813-28.421876 32.058594-2.101562 1.019532-4.285156 2.011719-6.582031 2.921875 2.496094.621094 4.851563 1.414063 7.09375 2.351563zm0 0" fill="#ffc15a"/></g><path d="m412.03125 122.660156c-16.859375-8.582031-26.921875-18.265625-29.914062-28.792968-1.222657-4.304688-5.15625-7.273438-9.625-7.273438-.023438 0-.039063 0-.0625 0-4.496094.023438-8.421876 3.046875-9.601563 7.386719-2.175781 8.015625-6.804687 14.671875-14.007813 20.101562-7.40625-11.886719-22.453124-22.21875-47.40625-22.246093l-85.550781-.027344c-2.421875 0-3.933593-.777344-4.898437-2.515625-1.210938-2.179688-1.179688-5.332031.070312-7.335938.632813-1.015625 1.761719-2.15625 4.917969-2.003906.136719.007813.269531.011719.40625.015625 2.289063.019531 16.777344.007812 24.558594 0h4.019531c21.046875 0 37.078125-4.265625 47.652344-12.667969 9.375-7.457031 14.328125-17.917969 14.328125-30.253906 0-14.917969-9.148438-37.046875-21.789063-37.046875-4.707031 0-8.785156 3.316406-9.789062 7.914062-.878906 4.058594-5.824219 19.183594-13.925782 19.183594-.011718 0-.027343 0-.042968 0-9-.035156-20.886719.070313-29.5625.148438-4.710938.042968-8.554688.078125-10.613282.078125-5.527343 0-10.007812 4.480469-10.007812 10.011719 0 5.527343 4.480469 10.007812 10.007812 10.007812 2.09375 0 6.003907-.035156 10.792969-.078125 8.625-.078125 20.429688-.1875 29.28125-.152344 11.4375.074219 19.667969-6.632812 25.207031-14.859375.679688 3.96875.644532 8.25-.851562 12.089844-5.011719 12.898438-24.890625 15.605469-40.6875 15.605469h-4.039062c-7.019532.007812-21.457032.023437-24.164063 0-9.648437-.417969-17.898437 3.734375-22.6875 11.414062-5.117187 8.210938-5.347656 19.0625-.585937 27.644531 4.523437 8.144532 12.6875 12.820313 22.398437 12.820313l85.539063.027344c16.015624.015625 25.40625 5.390625 29.894531 11.871093-2.542969 2.003907-4.015625 5.164063-3.792969 8.511719.246094 3.699219 2.503906 6.894531 5.777344 8.414063-.894532 2.199218-2.230469 4.234375-3.972656 5.984375-4.355469 4.371093-10.820313 6.679687-18.707032 6.679687h-56.21875c-10.632812 0-28.4375 0-36.425781 22.847656l-9.828125 28.257813h-26.027344l-3.320312-11.6875c-3.351563-11.792969-5.03125-17.710937-9.402344-22.082031-5.488281-5.488282-12.085938-5.433594-20.449219-5.367188-1.15625.011719-2.414062.019532-3.773437.019532-9.1875 0-19.339844-.003907-28.6875-.007813-19.074219-.007813-30.839844-.007813-32.351563.007813-1.652343.023437-4.074219-.3125-5.945312-3.480469-1.96875-3.332031-2.195313-8.25-.515625-11.1875.722656-1.265625 1.902344-2.558594 5.183594-2.558594 10.945312 0 14.324218.125 16.789062.210937 2.941406.109376 4.71875.171876 14.597656-.042968 15.886719-.335938 24.410156-13.121094 24.367188-24.976563-.046875-13.296875-9.730469-23.082031-23.027344-23.269531-16.855469-.230469-26.835938-14.035156-26.742188-27.246094.082032-12.285156 9.1875-25.410156 34.492188-25.410156h17.980469c5.53125 0 10.011719-4.484375 10.011719-10.011719 0-5.527343-4.480469-10.007812-10.011719-10.007812h-17.980469c-37.441406 0-54.355469 22.746093-54.511719 45.289062-.160156 22.984375 17.1875 47 46.484375 47.40625 1.144532.015625 3.273438.042969 3.289063 3.324219.003906 1.441406-.453125 4.796875-4.785157 4.890625-9.300781.203125-10.769531.148437-13.4375.050781-2.617187-.09375-6.207031-.222656-17.515624-.222656-9.75 0-17.976563 4.609375-22.566407 12.648438-5.234375 9.171874-4.972656 21.746093.660157 31.289062 5.078124 8.609375 13.65625 13.480469 23.445312 13.324219 1.445312-.015625 16.328125-.011719 32.085938-.007813 9.347656.003906 19.503906.007813 28.691406.007813 1.421875 0 2.730468-.011719 3.941406-.019531 2.347656-.019532 4.945312-.042969 6.386719.085937 1.027343 2.203125 2.554687 7.585937 4.039062 12.8125l1.769531 6.21875h-13.46875c-20.613281 0-31.734374 14.378906-31.734374 27.910156 0 11.222657 7.421874 22.5625 21.722656 26.179688v33.210937c-17.769532 9.554688-32.824219 23.148438-43.800782 39.609375-12.539062 18.808594-19.167968 40.574219-19.167968 62.945313 0 64.910156 55.527344 117.71875 123.777344 117.71875 68.253906 0 123.777343-52.808594 123.777343-117.71875 0-16.183594-3.480469-32.042969-10.140625-46.699219-.128906-.324219-.269531-.644531-.429687-.957031-2.453125-5.265625-5.3125-10.378906-8.578125-15.289063-10.96875-16.464843-26.023438-30.058593-43.789063-39.609375v-33.210937c14.300781-3.621094 21.722657-14.957031 21.722657-26.179688 0-7.371093-3.175782-14.53125-8.707032-19.640625-4.082031-3.773437-11.390625-8.269531-23.023437-8.269531h-20.128907l7.539063-21.664063c2.988281-8.554687 5.988281-9.421874 17.523437-9.421874h56.21875c16.828126 0 27.171876-6.835938 32.886719-12.570313 3.183594-3.195313 5.726563-6.84375 7.570313-10.792969 5.085937 4.820313 9.058594 11.390625 11.972656 19.824219 1.351562 3.921875 4.984375 6.597656 9.132812 6.734375.109376.003906.21875.003906.328126.003906 4.019531 0 7.664062-2.40625 9.226562-6.132812 6.21875-14.800782 15.789062-24.429688 29.261719-29.441406 3.726562-1.386719 6.277343-4.84375 6.503906-8.808594s-1.914063-7.691406-5.453125-9.492188zm-213.410156 369.320313c-57.214844 0-103.757813-43.828125-103.757813-97.699219 0-4.929688.394531-9.792969 1.148438-14.5625 12.28125 5.878906 23.628906 8.203125 34.445312 8.203125 19.523438 0 37.3125-7.554687 55.683594-15.359375 30.097656-12.785156 61.191406-25.988281 109.53125-12.988281 4.363281 10.875 6.707031 22.59375 6.707031 34.707031 0 53.871094-46.546875 97.699219-103.757812 97.699219zm83.582031-155.707031c-45.058594-7.097657-77.269531 6.558593-103.890625 17.863281-28.070312 11.925781-48.921875 20.761719-76.910156 5.863281 8.972656-22.675781 26.753906-41.726562 50.703125-53.074219 3.496093-1.65625 5.722656-5.179687 5.722656-9.046875v-38.175781h81.609375v38.175781c0 3.867188 2.226562 7.390625 5.722656 9.046875 14.976563 7.09375 27.535156 17.214844 37.042969 29.347657zm-21.042969-103.9375c0 4.464843-4.597656 7.347656-11.710937 7.347656h-101.628907c-7.117187 0-11.714843-2.886719-11.714843-7.347656 0-3.929688 3.621093-7.894532 11.714843-7.894532h26.652344.0625.035156 40.613282.058594.0625 34.144531c8.089843 0 11.710937 3.964844 11.710937 7.894532zm111.976563-87.136719c-3.824219-5.675781-8.328125-10.417969-13.503907-14.210938 5.277344-3.789062 9.722657-8.085937 13.328126-12.875 3.832031 4.601563 8.601562 8.933594 14.335937 13.019531-5.335937 3.90625-10.0625 8.601563-14.160156 14.066407zm0 0"/><path d="m245.050781 367.832031c-13.511719 0-24.503906 10.988281-24.503906 24.492188 0 13.492187 10.992187 24.464843 24.503906 24.464843 13.496094 0 24.476563-10.972656 24.476563-24.464843 0-13.503907-10.980469-24.492188-24.476563-24.492188zm0 28.9375c-2.429687 0-4.484375-2.035156-4.484375-4.445312 0-2.425781 2.054688-4.476563 4.484375-4.476563 2.414063 0 4.457031 2.050782 4.457031 4.476563 0 2.453125-2 4.445312-4.457031 4.445312zm0 0"/><path d="m168.269531 404.367188c-15.496093 0-28.105469 12.601562-28.105469 28.09375 0 15.472656 12.609376 28.0625 28.105469 28.0625 15.484375 0 28.078125-12.589844 28.078125-28.0625 0-15.492188-12.597656-28.09375-28.078125-28.09375zm0 36.140624c-4.457031 0-8.085937-3.609374-8.085937-8.046874 0-4.453126 3.628906-8.074219 8.085937-8.074219 4.445313 0 8.058594 3.621093 8.058594 8.074219 0 4.4375-3.613281 8.046874-8.058594 8.046874zm0 0"/><path d="m90.476562 241.585938c.226563-3.960938-1.914062-7.683594-5.449218-9.484376-16.84375-8.585937-26.902344-18.265624-29.890625-28.769531-1.222657-4.304687-5.15625-7.269531-9.625-7.269531-.019531 0-.035157 0-.054688 0-4.492187.023438-8.417969 3.035156-9.601562 7.367188-3.453125 12.636718-12.953125 21.890624-29.046875 28.289062-4.03125 1.601562-6.570313 5.621094-6.289063 9.953125.285157 4.332031 3.324219 7.984375 7.53125 9.050781 13.359375 3.378906 22.519531 12.71875 28 28.550782 1.359375 3.917968 4.992188 6.59375 9.140625 6.726562.105469.003906.214844.007812.320313.007812 4.019531 0 7.664062-2.414062 9.230469-6.140624 6.199218-14.785157 15.765624-24.425782 29.25-29.472657 3.714843-1.390625 6.261718-4.847656 6.484374-8.808593zm-44.332031 13.085937c-3.824219-5.683594-8.335937-10.429687-13.511719-14.230469 5.28125-3.792968 9.734376-8.089844 13.339844-12.886718 3.835938 4.601562 8.609375 8.9375 14.34375 13.023437-5.34375 3.917969-10.074218 8.621094-14.171875 14.09375zm0 0"/><path d="m181.234375 47.34375h.195313c5.53125 0 10.011718-4.480469 10.011718-10.007812 0-5.53125-4.480468-10.011719-10.011718-10.011719h-.195313c-5.53125 0-10.011719 4.480469-10.011719 10.011719 0 5.527343 4.480469 10.007812 10.011719 10.007812zm0 0"/></svg>