<svg height="512pt" viewBox="-5 0 512 512" width="512pt" xmlns="http://www.w3.org/2000/svg"><g fill-rule="evenodd"><path d="m413.839844 428.730469h-347.988282c-10.0625 0-18.277343 8.222656-18.277343 18.292969 0 10.042968 8.214843 18.265624 18.277343 18.265624h365.515626c10.035156 0 18.25-8.222656 18.25-18.265624 0-10.070313-8.214844-18.292969-18.25-18.292969zm0 0" fill="#e2f1a1"/><path d="m88.167969 428.730469h325.671875c47.917968-44.058594 77.984375-107.277344 77.984375-177.535157 0-133.101562-107.824219-241.011718-240.820313-241.011718s-240.824218 107.910156-240.824218 241.011718c0 70.257813 30.042968 133.476563 77.988281 177.535157zm0 0" fill="#f9f9f9"/><path d="m172.726562 267.988281c10.640626-25.417969 27.824219-43.914062 53.394532-53.464843-28.050782-14.285157-47.222656-31.625-53.394532-53.4375-6.660156 24.4375-24.820312 42.070312-53.421874 53.4375 26.496093 6.695312 43.707031 25.304687 53.421874 53.464843zm0 0" fill="#ffc15a"/><path d="m301.195312 162.441406c23.441407 5.914063 38.664063 22.390625 47.253907 47.292969 9.429687-22.476563 24.652343-38.839844 47.28125-47.292969-24.820313-12.636718-41.800781-27.988281-47.28125-47.289062-5.878907 21.636718-21.9375 37.21875-47.253907 47.289062zm0 0" fill="#ffc15a"/><path d="m319.503906 327.253906c-22.285156-11.367187-37.535156-25.160156-42.4375-42.5-5.277344 19.445313-19.71875 33.441406-42.4375 42.5 21.042969 5.308594 34.710938 20.082032 42.4375 42.472656 8.449219-20.199218 22.113282-34.882812 42.4375-42.472656zm0 0" fill="#ffc15a"/><path d="m431.367188 465.289062h-398.640626c-10.03125 0-18.25 8.222657-18.25 18.265626 0 10.039062 8.21875 18.261718 18.25 18.261718h431.738282c10.0625 0 18.28125-8.222656 18.28125-18.261718 0-10.042969-8.21875-18.265626-18.28125-18.265626zm0 0" fill="#cbe558"/></g><path d="m232.136719 337.125c16.886719 4.261719 28.433593 16.011719 35.304687 35.921875 1.378906 3.992187 5.078125 6.722656 9.300782 6.855469.109374.003906.21875.003906.324218.003906 4.09375 0 7.804688-2.457031 9.394532-6.25 7.734374-18.5 19.710937-30.554688 36.605468-36.863281 3.78125-1.414063 6.371094-4.925781 6.605469-8.957031.230469-4.03125-1.945313-7.816407-5.539063-9.652344-21.257812-10.84375-33.449218-22.683594-37.269531-36.199219-1.238281-4.386719-5.242187-7.414063-9.792969-7.414063-.019531 0-.039062 0-.054687 0-4.578125.023438-8.574219 3.101563-9.773437 7.515626-4.339844 15.996093-16.242188 27.675781-36.382813 35.710937-4.101563 1.632813-6.679687 5.726563-6.386719 10.128906.289063 4.40625 3.382813 8.121094 7.664063 9.199219zm45.40625-29.488281c5.261719 6.816406 12.214843 13.152343 20.914062 19.066406-8.015625 5.449219-14.933593 12.324219-20.707031 20.589844-5.359375-8.621094-11.953125-15.550781-19.742188-20.761719 8.03125-5.390625 14.554688-11.695312 19.535157-18.894531zm0 0"/><path d="m348.453125 104.96875c-.019531 0-.039063 0-.058594 0-4.574219.027344-8.570312 3.097656-9.769531 7.511719-4.945312 18.195312-18.417969 31.441406-41.191406 40.5-4.101563 1.632812-6.683594 5.722656-6.394532 10.128906.289063 4.40625 3.386719 8.125 7.667969 9.203125 19.210938 4.847656 32.332031 18.175781 40.117188 40.742188 1.378906 3.992187 5.074219 6.71875 9.296875 6.855468.109375 0 .222656.003906.332031.003906 4.089844 0 7.796875-2.453124 9.386719-6.242187 8.769531-20.910156 22.332031-34.546875 41.457031-41.691406 3.78125-1.414063 6.375-4.929688 6.601563-8.960938.230468-4.03125-1.945313-7.820312-5.542969-9.652343-23.96875-12.203126-37.742188-25.613282-42.109375-40.996094-1.242188-4.382813-5.246094-7.402344-9.792969-7.402344zm25.917969 56.871094c-9.898438 6.449218-18.320313 14.820312-25.210938 25.0625-6.367187-10.714844-14.398437-19.144532-24.035156-25.246094 9.996094-6.449219 17.945312-14.140625 23.808594-23.035156 6.167968 8.359375 14.617187 16.070312 25.4375 23.21875zm0 0"/><path d="m116.8125 224.394531c22.191406 5.605469 37.332031 20.953125 46.289062 46.914063 1.378907 3.992187 5.078126 6.722656 9.300782 6.855468.109375.003907.21875.007813.328125.007813 4.089843 0 7.800781-2.457031 9.386719-6.253906 10.046874-24 25.605468-39.65625 47.566406-47.859375 3.78125-1.410156 6.375-4.925782 6.601562-8.957032.230469-4.035156-1.945312-7.820312-5.542968-9.652343-27.425782-13.960938-43.195313-29.378907-48.21875-47.136719-1.238282-4.382812-5.242188-7.410156-9.796876-7.410156-.015624 0-.03125 0-.046874 0-4.574219.023437-8.574219 3.089844-9.777344 7.503906-5.71875 21-21.210938 36.261719-47.359375 46.652344-4.101563 1.632812-6.6875 5.722656-6.398438 10.128906.289063 4.40625 3.386719 8.125 7.667969 9.207031zm56.386719-39.140625c7.261719 10.363282 17.628906 19.855469 31.234375 28.605469-12.355469 7.6875-22.707032 17.992187-30.984375 30.832031-7.640625-13.472656-17.535157-23.84375-29.617188-31.035156 12.601563-7.792969 22.410157-17.28125 29.367188-28.402344zm0 0"/><path d="m464.464844 455.109375h-5.84375c.761718-2.566406 1.179687-5.277344 1.179687-8.085937 0-13.574219-9.542969-24.957032-22.257812-27.789063 17.5-19.410156 31.773437-41.28125 42.546875-65.277344 14.542968-32.402343 21.917968-66.976562 21.917968-102.761719 0-35.65625-7.320312-70.117187-21.753906-102.425781-13.945312-31.199219-33.777344-58.824219-58.957031-82.097656-4.128906-3.816406-10.570313-3.5625-14.386719.566406-3.816406 4.128907-3.566406 10.570313.566406 14.386719 47.132813 43.574219 74.167969 105.378906 74.167969 169.570312 0 63.109376-26.148437 123.867188-71.851562 167.355469h-317.582031c-45.699219-43.460937-71.847657-104.21875-71.847657-167.355469 0-127.28125 103.464844-230.832031 230.640625-230.832031 32.832032 0 64.546875 6.757813 94.257813 20.085938 5.132812 2.300781 11.15625.007812 13.457031-5.125 2.300781-5.128907.007812-11.152344-5.121094-13.457031-32.351562-14.507813-66.867187-21.867188-102.59375-21.867188-67.042968 0-130.078125 26.132812-177.488281 73.578125-47.40625 47.445313-73.515625 110.527344-73.515625 177.617187 0 35.792969 7.371094 70.367188 21.90625 102.761719 10.65625 23.75 24.742188 45.414063 41.996094 64.667969-14.785156 1.007812-26.507813 13.355469-26.507813 28.398438 0 2.808593.414063 5.519531 1.175781 8.085937h-5.84375c-15.675781 0-28.429687 12.757813-28.429687 28.445313 0 15.683593 12.753906 28.445312 28.429687 28.445312h431.738282c15.691406 0 28.460937-12.761719 28.460937-28.445312 0-15.6875-12.769531-28.445313-28.460937-28.445313zm-406.707032-8.082031c0-4.472656 3.628907-8.113282 8.09375-8.113282h365.515626c4.449218 0 8.070312 3.640626 8.070312 8.113282 0 4.378906-3.695312 8.082031-8.070312 8.082031h-365.515626c-4.464843 0-8.09375-3.625-8.09375-8.082031zm406.707032 44.609375h-431.738282c-4.375 0-8.070312-3.699219-8.070312-8.082031 0-4.382813 3.695312-8.082032 8.070312-8.082032h431.738282c4.464844 0 8.097656 3.625 8.097656 8.082032 0 4.457031-3.632812 8.082031-8.097656 8.082031zm0 0"/><path d="m183.246094 79.679688c5.300781-1.878907 8.078125-7.695313 6.199218-12.996094-1.875-5.300782-7.691406-8.074219-12.996093-6.199219-48.011719 17.003906-80.371094 52.578125-94.644531 80.203125-2.582032 4.996094-.625 11.136719 4.371093 13.71875 1.496094.773438 3.089844 1.136719 4.667969 1.136719 3.683594 0 7.242188-2.007813 9.050781-5.507813 11.914063-23.058594 40.894531-55.320312 83.351563-70.355468zm0 0"/><path d="m375.902344 62.742188.171875.113281c1.734375 1.15625 3.695312 1.710937 5.636719 1.710937 3.292968 0 6.519531-1.589844 8.480468-4.535156 3.121094-4.679688 1.855469-11-2.824218-14.117188l-.171876-.117187c-4.675781-3.117187-11-1.855469-14.117187 2.824219-3.121094 4.679687-1.855469 11 2.824219 14.121094zm0 0"/><path d="m211.4375 67.3125.171875.113281c1.734375 1.160157 3.695313 1.710938 5.636719 1.710938 3.289062 0 6.519531-1.589844 8.480468-4.535157 3.121094-4.675781 1.855469-11-2.824218-14.117187l-.171875-.117187c-4.675781-3.117188-11-1.851563-14.117188 2.824218-3.121093 4.679688-1.855469 11 2.824219 14.121094zm0 0"/></svg>