<svg height="512pt" viewBox="-1 0 512 512.00088" width="512pt" xmlns="http://www.w3.org/2000/svg"><g fill-rule="evenodd"><path d="m97.179688 304.511719c36.324218 12.355469 87.25 13.515625 158.316406-4.4375.113281-5.402344.113281-10.601563 0-15.582031-1.441406-76.539063-24.527344-108.972657-53.808594-125.539063-.027344 0-.027344 0-.058594-.027344-12.984375-7.324219-27.160156-11.539062-41.21875-15.074219-43.398437-10.914062-85.582031-15.492187-86.910156-85.816406-31.769531 29.550782-39.464844 65.828125-30.609375 93.875-29.167969-17.386718-33.527344-25.699218-32.847656 11.847656.707031 37.976563 9.675781 85.222657 44.585937 116.410157 11.261719 10.09375 25.265625 18.492187 42.550782 24.34375zm102.835937-40.886719c-57.738281 20.644531-114.238281-19.847656-120.574219-89.800781 42.71875 27.425781 45.859375 21.347656 86.316406 31.273437 40.484376 9.925782 34.257813 58.527344 34.257813 58.527344zm0 0" fill="#ff6977"/><path d="m79.441406 173.824219c6.335938 69.953125 62.835938 110.445312 120.578125 89.800781 0 0 6.222657-48.601562-34.261719-58.527344-40.457031-9.925781-43.597656-3.847656-86.316406-31.273437zm0 0" fill="#ffc15a"/><path d="m309.476562 158.867188c-29.367187 16.511718-52.535156 48.945312-53.980468 125.625.113281 4.976562.113281 10.179687 0 15.582031 209.496094 52.902343 244.070312-60.253907 245.453125-136.316407.058593-2.175781.058593-4.183593.085937-6.050781v-.648437c-.054687-29.746094-5.628906-21.433594-32.902344-5.148438 8.855469-28.046875 1.160157-64.324218-30.609374-93.871094-1.304688 66.699219-39.296876 74.25-80.265626 84.175782-15.699218 3.816406-31.855468 7.972656-46.507812 15.976562-.425781.222656-.847656.449219-1.273438.675782zm122.105469 14.957031c-6.367187 69.953125-62.835937 110.445312-120.578125 89.800781 0 0-6.222656-48.601562 34.230469-58.527344 40.457031-9.925781 43.597656-3.847656 86.347656-31.273437zm0 0" fill="#ff6977"/><path d="m345.238281 205.097656c-40.457031 9.925782-34.234375 58.527344-34.234375 58.527344 57.742188 20.644531 114.210938-19.847656 120.578125-89.800781-42.75 27.425781-45.890625 21.347656-86.34375 31.273437zm0 0" fill="#ffc15a"/><path d="m255.496094 284.492188c1.445312-76.679688 24.613281-109.113282 53.980468-125.625 7.269532-27.796876 7.1875-59.238282-.367187-86.296876-7.414063-26.605468-22.066406-48.945312-43.992187-59.292968-2.71875-1.300782-5.574219-2.402344-8.519532-3.308594-2.941406.90625-5.796875 2.007812-8.542968 3.308594-21.246094 10.007812-35.898438 31.214844-43.933594 56.636718-8.6875 27.652344-9.535156 60.308594-2.433594 89.039063 29.28125 16.566406 52.367188 49 53.808594 125.539063zm0 0" fill="#e2f1a1"/><path d="m201.6875 158.953125c-7.101562-28.730469-6.253906-61.386719 2.433594-89.039063-9.621094-8.34375-21.5-12.894531-35.421875-11.679687-29.027344 18.433594-27.527344 59.578125-8.289063 85.617187 14.0625 3.535157 28.238282 7.75 41.222656 15.074219zm0 0" fill="#cbe558"/><path d="m309.109375 72.570312c7.554687 27.058594 7.636719 58.503907.367187 86.296876.425782-.226563.847657-.453126 1.273438-.679688 14.65625-8 30.808594-12.15625 46.511719-15.976562 18.105469-26.097657 18.925781-65.9375-9.480469-83.976563-15.21875-1.328125-28.6875 4.554687-38.671875 14.335937zm0 0" fill="#cbe558"/><path d="m97.179688 482.761719v-178.25c-17.285157-5.851563-31.289063-14.25-42.550782-24.34375v202.59375c0 11.707031 9.5625 21.261719 21.277344 21.261719 11.683594 0 21.273438-9.554688 21.273438-21.261719zm0 0" fill="#ffcb7c"/></g><path d="m396.71875 315.929688c-4.339844 0-8.335938-2.863282-9.582031-7.246094-1.507813-5.292969 1.5625-10.808594 6.859375-12.316406l.199218-.054688c5.296876-1.511719 10.8125 1.5625 12.316407 6.855469 1.507812 5.296875-1.5625 10.8125-6.859375 12.320312l-.199219.054688c-.910156.261719-1.828125.386719-2.734375.386719zm0 0"/><path d="m341.378906 279.023438c-11.144531 0-22.492187-1.992188-33.730468-6.007813-3.53125-1.261719-6.058594-4.402344-6.535157-8.121094-.074219-.574219-1.753906-14.242187 2.191407-29.332031 5.5625-21.28125 19.242187-35.164062 39.558593-40.148438 10.625-2.605468 18.910157-4.167968 25.566407-5.421874 18.953124-3.574219 27.601562-5.203126 57.765624-24.558594 3.207032-2.054688 7.304688-2.105469 10.558594-.128906 3.253906 1.972656 5.101563 5.632812 4.753906 9.425781-3.527343 38.785156-21.867187 71.449219-50.308593 89.613281-15.253907 9.742188-32.28125 14.679688-49.820313 14.679688zm-20.746094-22.804688c20.957032 5.726562 41.984376 2.722656 59.835938-8.679688 18.070312-11.539062 31.167969-30.582031 37.484375-53.835937-19.710937 10.957031-29.988281 12.894531-45.828125 15.882813-6.757812 1.273437-14.410156 2.714843-24.511719 5.195312-13.132812 3.21875-21.316406 11.667969-25.019531 25.824219-1.535156 5.871093-1.929688 11.535156-1.960938 15.613281zm0 0"/><path d="m169.640625 279.023438c-17.554687 0-34.585937-4.941407-49.851563-14.695313-28.4375-18.171875-46.761718-50.832031-50.277343-89.605469-.34375-3.792968 1.503906-7.449218 4.761719-9.421875 3.253906-1.976562 7.347656-1.925781 10.554687.132813 30.144531 19.351562 38.792969 20.984375 57.742187 24.554687 6.65625 1.257813 14.9375 2.816407 25.5625 5.425781 20.324219 4.980469 34.015626 18.863282 39.582032 40.144532 3.949218 15.089844 2.265625 28.757812 2.195312 29.332031-.476562 3.722656-3.003906 6.859375-6.535156 8.121094-11.238281 4.019531-22.59375 6.011719-33.734375 6.011719zm30.378906-15.398438h.007813zm0 0h.007813zm-106.957031-69.917969c6.308594 23.242188 19.398438 42.277344 37.464844 53.820313 17.871094 11.417968 38.925781 14.421875 59.902344 8.679687-.023438-11.53125-3.042969-35.542969-27.046876-41.425781-10.101562-2.480469-17.753906-3.921875-24.507812-5.195312-15.835938-2.984376-26.113281-4.921876-45.8125-15.878907zm0 0"/><path d="m502.160156 129.019531c-6.363281-3.605469-12.617187-1.546875-20.667968 3.035157.863281-28.582032-12.339844-58.214844-37.179688-81.316407-2.878906-2.679687-7.066406-3.414062-10.683594-1.878906-3.621094 1.535156-6 5.054687-6.074218 8.988281-.933594 48.371094-21.503907 60.917969-51.765626 69.421875 4.382813-12.96875 5.515626-26.796875 2.9375-39.570312-3.277343-16.226563-12.128906-29.324219-25.597656-37.878907-1.347656-.859374-2.886718-1.378906-4.476562-1.515624-12.226563-1.070313-24.101563 1.722656-34.558594 7.929687-10.5-26.726563-28.699219-47.875-54.574219-55.796875-1.902343-.582031-3.933593-.582031-5.839843 0-25.367188 7.765625-43.574219 28.175781-54.507813 54.078125-9.582031-5.042969-20.214844-7.183594-31.339844-6.210937-1.59375.136718-3.128906.65625-4.476562 1.515624-13.765625 8.738282-22.679688 22.167969-25.789063 38.839844-2.445312 13.105469-1.050781 27.15625 3.675782 40.222656-33.527344-8.636718-56.789063-19.523437-57.773438-71.035156-.078125-3.933594-2.457031-7.453125-6.074219-8.988281-3.621093-1.535156-7.804687-.800781-10.683593 1.878906-24.84375 23.101563-38.042969 52.738281-37.179688 81.324219-8.058594-4.585938-14.316406-6.648438-20.679688-3.042969-8.6875 4.914063-9.109374 16.472657-8.7773432 34.925781.9882812 53.128907 17.0468752 95.171876 46.5820312 122.429688v196.386719c0 16.125 13.121094 29.238281 29.25 29.238281s29.25-13.117188 29.25-29.238281v-165.488281c16.234375 4.21875 34.238281 6.339843 53.976562 6.339843 28.539063 0 60.707032-4.429687 96.367188-13.273437 35.679688 8.835937 68.078125 13.308594 96.476562 13.308594 3.003907 0 5.964844-.050782 8.878907-.152344 5.503906-.1875 9.8125-4.800782 9.625-10.304688-.191407-5.503906-4.765625-9.796875-10.308594-9.621094-27.292969.933594-59.09375-2.867187-94.640625-11.304687 0-2.566406-.023438-5.09375-.070312-7.589844 1.480468-80.632812 27.257812-105.339843 50.058593-117.730469 14.433594-7.863281 31.011719-11.867187 47.042969-15.742187 20.210938-4.882813 41.109375-9.933594 57.050781-22.886719 13.398438-10.882812 21.875-26.238281 25.640625-46.601562 17.441406 24.335937 18.910156 49.65625 13.371094 67.195312-1.246094 3.945313.078125 8.253906 3.324219 10.820313 3.242187 2.566406 7.738281 2.863281 11.292969.742187 3.890624-2.324218 7.332031-4.476562 10.367187-6.371094 2.4375-1.523437 5.035156-3.152343 7.257813-4.453124.167968 2.984374.238281 7.40625.117187 13.925781-.789063 42.503906-12.570313 98.652343-64.242187 124.773437-4.914063 2.484375-6.882813 8.484375-4.398438 13.398438 2.484375 4.914062 8.480469 6.882812 13.398438 4.398437 47.90625-24.21875 73.902343-73.394531 75.175781-142.199219.347656-18.449218-.066407-30.003906-8.757813-34.925781zm-344.988281-36.707031c1.351563-7.253906 5.042969-17.144531 14.851563-24.285156 7.457031-.191406 14.351562 1.726562 20.613281 5.71875-5.734375 21.554687-7.167969 45.339844-4.246094 68.148437-7.238281-2.714843-14.582031-4.863281-21.898437-6.769531-8.355469-12.789062-11.917969-28.890625-9.320313-42.8125zm-67.96875 390.449219c0 7.324219-5.964844 13.285156-13.296875 13.285156-7.335938 0-13.300781-5.960937-13.300781-13.285156v-183.9375c8.132812 5.328125 17.003906 9.796875 26.597656 13.40625zm156.25-190.492188c-80.523437 19.160157-140.417969 14.289063-178.097656-14.496093-37.914063-28.96875-46.671875-78.089844-47.34375-114.195313-.117188-6.523437-.042969-10.945313.125-13.933594 2.21875 1.300781 4.8125 2.921875 7.246093 4.441407 3.042969 1.902343 6.492188 4.058593 10.402344 6.390624 3.550782 2.117188 8.042969 1.820313 11.289063-.746093 3.246093-2.570313 4.566406-6.875 3.324219-10.820313-5.539063-17.539062-4.074219-42.855468 13.367187-67.191406 3.765625 20.363281 12.238281 35.722656 25.636719 46.601562 15.941406 12.953126 36.847656 18 57.0625 22.878907 16.484375 3.980469 33.535156 8.097656 48.261718 16.40625 20.496094 11.578125 47.195313 36.3125 48.792969 117.019531-.046875 2.515625-.066406 5.0625-.066406 7.644531zm55.328125-139.796875c-17.390625 10.753906-30.289062 25.726563-39.292969 45.628906-2.246093 4.96875-4.25 10.25-6.023437 15.84375-8.886719-27.996093-23.757813-48.109374-45.019532-61.378906-5.632812-25.875-4.546874-54.898437 3.105469-79.425781.046875-.136719.085938-.277344.128907-.414063 7.75-24.546874 22.101562-44.53125 42.917968-52.234374 41.4375 15.375 56.257813 80.039062 44.183594 131.980468zm50.25-18.984375c-9.316406 2.296875-18.734375 4.820313-27.992188 8.261719 3.089844-21.945312 2.164063-44.785156-2.773437-65.664062 7.148437-5.441407 15.496094-8.242188 24.203125-8.054688 9.570312 6.976562 13.289062 16.574219 14.710938 23.613281 2.703124 13.398438-.417969 29.113281-8.148438 41.84375zm0 0"/></svg>