<svg height="512pt" viewBox="-51 0 512 512" width="512pt" xmlns="http://www.w3.org/2000/svg"><g fill-rule="evenodd"><path d="m269.808594 98.320312h-106.363282l-30.191406 32.230469 45.808594 43.117188h75.125l45.8125-43.117188zm0 0" fill="#e8b3ce"/><path d="m254.1875 173.667969h-82.691406c-7.65625 0-13.890625 6.265625-13.890625 13.917969v63.070312c0 1.871094.367187 3.628906 1.046875 5.273438 2.070312 5.042968 7.058594 8.617187 12.84375 8.617187h90.234375c5.78125 0 10.769531-3.574219 12.867187-8.617187.683594-1.644532 1.050782-3.402344 1.050782-5.273438v-63.070312c0-7.65625-6.265626-13.917969-13.917969-13.917969zm0 0" fill="#ffc15a"/><path d="m157.605469 250.65625v-61.257812c-60.214844 23.585937-102.851563 82.207031-102.851563 150.75 0 89.375 72.488282 161.859374 161.871094 161.859374s161.84375-72.484374 161.84375-161.859374c0-68.542969-42.609375-127.164063-102.820312-150.75v61.257812c0 1.871094-.371094 3.628906-1.050782 5.273438 26.734375 18.453124 44.28125 49.292968 44.28125 84.21875 0 56.464843-45.785156 102.246093-102.253906 102.246093s-102.253906-45.78125-102.253906-102.246093c0-34.925782 17.519531-65.765626 44.28125-84.21875-.679688-1.644532-1.046875-3.402344-1.046875-5.273438zm0 0" fill="#f9f9f9"/><path d="m79.589844 138.855469c-18.625-7.425781-30.476563-18.878907-34.785156-34.808594-4.054688 14.203125-16.527344 25.511719-34.8125 34.808594 16.671874 6.210937 27.867187 18.257812 34.8125 34.8125 6.324218-18.34375 17.519531-30.445313 34.785156-34.8125zm0 0" fill="#ffc15a"/><path d="m346.292969 68.898438c13.097656 4.875 21.914062 14.339843 27.355469 27.355468 4.988281-14.402344 13.777343-23.925781 27.355468-27.355468-14.65625-5.8125-23.953125-14.828126-27.355468-27.355469-3.175782 11.167969-12.984376 20.042969-27.355469 27.355469zm0 0" fill="#ffc15a"/></g><path d="m285.09375 182.519531c-1.324219-6.121093-5-11.378906-10.035156-14.773437l31.789062-29.917969c4.011719-3.777344 4.210938-10.085937.445313-14.109375l-30.191407-32.230469c-1.890624-2.015625-4.53125-3.160156-7.292968-3.160156h-106.363282c-2.765624 0-5.402343 1.144531-7.292968 3.160156l-30.191406 32.230469c-3.769532 4.023438-3.570313 10.332031.445312 14.109375l31.78125 29.910156c-5.035156 3.398438-8.710938 8.660157-10.035156 14.792969-25.070313 10.894531-47.359375 27.75-64.738282 49.050781-3.492187 4.277344-2.851562 10.570313 1.421876 14.058594 1.855468 1.515625 4.089843 2.253906 6.3125 2.253906 2.898437 0 5.773437-1.257812 7.75-3.675781 13.367187-16.386719 30.019531-29.800781 48.710937-39.347656v45.785156c0 .328125.015625.652344.027344.976562-27.203125 21.234376-43.257813 53.847657-43.257813 88.515626 0 61.886718 50.355469 112.238281 112.246094 112.238281 61.894531 0 112.246094-50.351563 112.246094-112.238281 0-34.667969-16.054688-67.28125-43.253906-88.515626.011718-.324218.023437-.648437.023437-.976562v-45.785156c50.765625 25.761718 82.835937 77.359375 82.835937 135.277344 0 83.738281-68.121093 151.867187-151.847656 151.867187-83.746094 0-151.878906-68.128906-151.878906-151.867187 0-9.53125.902344-19.121094 2.6875-28.496094 1.03125-5.421875-2.527344-10.652344-7.953125-11.679688-5.417969-1.035156-10.648437 2.527344-11.679687 7.949219-2.019532 10.601563-3.039063 21.445313-3.039063 32.226563 0 94.757812 77.09375 171.851562 171.863281 171.851562 94.75 0 171.832032-77.09375 171.832032-171.851562 0-35.234376-10.585938-69.09375-30.617188-97.921876-18.367188-26.4375-43.425781-46.976562-72.75-59.707031zm-117.175781 69.675781c-.015625-.03125-.023438-.066406-.039063-.101562-.175781-.445312-.28125-.929688-.28125-1.4375v-63.070312c0-2.128907 1.785156-3.925782 3.898438-3.925782h90.230468c2.128907 0 3.929688 1.796875 3.929688 3.925782v63.070312c0 2.113281-1.800781 3.898438-3.929688 3.898438h-90.230468c-1.601563 0-2.980469-.972657-3.578125-2.359376zm-.140625-143.882812h97.699218l20.414063 21.792969-35.664063 33.570312h-67.199218l-35.667969-33.570312zm141.109375 231.835938c0 50.867187-41.386719 92.253906-92.261719 92.253906-50.871094 0-92.261719-41.386719-92.261719-92.253906 0-27.261719 12.09375-52.984376 32.734375-70.453126 4.003906 3.039063 8.992188 4.84375 14.398438 4.84375h90.230468c5.414063 0 10.410157-1.808593 14.421876-4.847656 20.644531 17.46875 32.738281 43.191406 32.738281 70.457032zm0 0"/><path d="m161.453125 69.046875c1.953125 1.949219 4.507813 2.925781 7.066406 2.925781 2.558594 0 5.113281-.976562 7.066407-2.925781 3.902343-3.902344 3.902343-10.230469 0-14.132813l-23.046876-23.046874c-3.902343-3.902344-10.230468-3.902344-14.132812 0-3.902344 3.902343-3.902344 10.230468 0 14.132812zm0 0"/><path d="m273.066406 71.972656c2.558594 0 5.117188-.976562 7.066406-2.925781l23.046876-23.046875c3.902343-3.902344 3.90625-10.230469 0-14.132812-3.898438-3.902344-10.226563-3.902344-14.128907 0l-23.046875 23.046874c-3.902344 3.902344-3.90625 10.230469 0 14.132813 1.949219 1.949219 4.507813 2.925781 7.0625 2.925781zm0 0"/><path d="m62.679688 263.714844-.085938.171875c-2.460938 4.9375-.453125 10.9375 4.484375 13.398437 1.433594.714844 2.953125 1.054688 4.453125 1.054688 3.667969 0 7.199219-2.03125 8.949219-5.535156l.085937-.171876c2.460938-4.9375.453125-10.9375-4.484375-13.402343-4.9375-2.460938-10.941406-.453125-13.402343 4.484375zm0 0"/><path d="m219.09375 71.972656c5.515625 0 9.992188-4.472656 9.992188-9.992187v-51.988281c0-5.519532-4.476563-9.992188-9.992188-9.992188-5.519531 0-9.992188 4.472656-9.992188 9.992188v51.988281c0 5.519531 4.472657 9.992187 9.992188 9.992187zm0 0"/><path d="m45.132812 183.652344c4.140626-.132813 7.769532-2.8125 9.121094-6.730469 5.421875-15.738281 14.511719-25.023437 27.785156-28.378906 4.199219-1.0625 7.238282-4.710938 7.519532-9.035157.285156-4.324218-2.253906-8.335937-6.28125-9.9375-15.996094-6.355468-25.425782-15.554687-28.824219-28.132812-1.171875-4.332031-5.089844-7.351562-9.578125-7.382812-.023438 0-.046875 0-.070312 0-4.460938 0-8.382813 2.957031-9.609376 7.25-2.996093 10.5-13 20.136718-29.730468 28.644531-3.535156 1.796875-5.675782 5.515625-5.449219 9.476562.226563 3.960938 2.773437 7.410157 6.488281 8.796875 13.390625 4.984375 22.902344 14.574219 29.085938 29.308594 1.5625 3.722656 5.199218 6.128906 9.214844 6.128906.109374 0 .21875-.003906.328124-.007812zm-14.996093-45.234375c5.664062-4.046875 10.386719-8.335938 14.1875-12.898438 3.570312 4.75 7.972656 9.007813 13.195312 12.761719-5.117187 3.769531-9.574219 8.464844-13.359375 14.085938-4.0625-5.417969-8.742187-10.074219-14.023437-13.949219zm0 0"/><path d="m404.6875 59.609375c-11.898438-4.71875-18.898438-11.484375-21.394531-20.683594-1.175781-4.332031-5.097657-7.351562-9.585938-7.375-4.507812-.011719-8.441406 2.941407-9.667969 7.257813-2.171874 7.640625-9.667968 14.765625-22.277343 21.183594-3.535157 1.796874-5.671875 5.515624-5.445313 9.476562.226563 3.960938 2.773438 7.410156 6.492188 8.792969 9.949218 3.703125 17.023437 10.851562 21.621094 21.847656 1.558593 3.722656 5.199218 6.132813 9.21875 6.132813.105468 0 .210937 0 .316406-.003907 4.140625-.128906 7.769531-2.800781 9.128906-6.714843 4.089844-11.808594 10.558594-18.460938 20.359375-20.9375 4.203125-1.0625 7.242187-4.714844 7.523437-9.039063.28125-4.328125-2.257812-8.339844-6.289062-9.9375zm-31.617188 16.335937c-2.257812-2.714843-4.722656-5.171874-7.402343-7.363281 2.828125-2.183593 5.335937-4.460937 7.527343-6.828125 2.035157 2.410156 4.355469 4.652344 6.945313 6.726563-2.582031 2.171875-4.941406 4.660156-7.070313 7.464843zm0 0"/></svg>