<svg height="512pt" viewBox="0 -14 512.00045 512" width="512pt" xmlns="http://www.w3.org/2000/svg"><g fill-rule="evenodd"><path d="m196.039062 119.953125-129.058593 64.859375c6.398437 12.726562 1.257812 28.222656-11.449219 34.613281l98.8125 196.324219c12.738281-6.394531 28.246094-1.285156 34.640625 11.441406l129.058594-64.859375c-6.398438-12.699219-1.257813-28.222656 11.453125-34.613281l-98.816406-196.324219c-12.707032 6.394531-28.242188 1.285157-34.640626-11.441406zm0 0" fill="#f9f9f9"/><path d="m66.980469 184.8125 129.058593-64.859375c6.398438 12.726563 21.933594 17.835937 34.640626 11.441406l98.816406 196.324219c-12.710938 6.390625-17.851563 21.914062-11.453125 34.613281l-129.058594 64.859375c-6.394531-12.726562-21.902344-17.835937-34.640625-11.441406l-98.8125-196.324219c12.707031-6.390625 17.847656-21.886719 11.449219-34.613281zm171.726562-101.671875c-4.453125-8.84375-15.363281-12.4375-24.21875-7.988281l-165.871093 83.351562-28.644532 14.382813c-3.96875 1.996093-6.882812 5.277343-8.480468 9.101562-1.855469 4.367188-1.972657 9.417969 0 14.039063.140624.34375.3125.6875.484374 1.058594l36.640626 72.792968 97.703124 194.125c1.339844 2.65625 3.253907 4.824219 5.480469 6.449219 5.3125 3.851563 12.507813 4.679687 18.734375 1.570313l3.085938-1.570313 191.429687-96.191406c8.855469-4.453125 12.453125-15.324219 7.996094-24.167969l-2.597656-5.222656-15.992188-31.730469-77.453125-153.890625-28.84375-57.328125zm0 0" fill="#f6838d"/><path d="m194.839844 233.152344-28.5-11.558594-7.710938 29.734375-24.246094 18.890625 21.929688 21.542969 4.230469 30.449219 29.640625-8.21875 28.503906 11.558593 7.710938-29.734375 24.246093-18.890625-21.933593-21.542969-4.226563-30.449218zm0 0" fill="#ffcb7c"/><path d="m248.160156 28.070312v73.847657l28.84375 57.328125v-91.65625c14.253906 0 25.820313-11.527344 25.820313-25.796875h144.449219c0 14.269531 11.566406 25.796875 25.816406 25.796875v219.75c-14.25 0-25.816406 11.558594-25.816406 25.796875h-92.816407l15.992188 31.730469h113.464843c9.910157 0 18.023438-8.105469 18.023438-18.007813v-298.789063c0-5.679687-2.65625-10.757812-6.796875-14.070312-3.085937-2.453125-7-3.9375-11.226563-3.9375h-217.734374c-4.253907 0-8.136719 1.484375-11.222657 3.9375-4.140625 3.3125-6.796875 8.390625-6.796875 14.070312zm0 0" fill="#ff6977"/><path d="m277.003906 67.589844v91.65625l77.453125 153.890625h92.816407c0-14.238281 11.566406-25.796875 25.816406-25.796875v-219.75c-14.25 0-25.816406-11.527344-25.816406-25.796875h-144.449219c0 14.269531-11.566407 25.796875-25.820313 25.796875zm0 0" fill="#f9f9f9"/><path d="m423 204.589844c-28.703125 0-51.980469-23.257813-51.980469-51.9375 0-10.757813 3.285157-20.773438 8.882813-29.074219-27.957032.855469-50.40625 23.769531-50.40625 51.933594 0 28.675781 23.304687 51.933593 52.007812 51.933593 17.933594 0 33.753906-9.074218 43.09375-22.855468-.542968 0-1.054687 0-1.597656 0zm0 0" fill="#ffc15a"/></g><path d="m483.914062 0h-68.824218c-5.558594 0-10.0625 4.507812-10.0625 10.0625 0 5.558594 4.503906 10.0625 10.0625 10.0625h68.824218c4.390626 0 7.957032 3.5625 7.957032 7.945312v298.792969c0 4.378907-3.566406 7.941407-7.957032 7.941407h-107.289062l-5.839844-11.605469h76.488282c5.558593 0 10.0625-4.503907 10.0625-10.0625 0-8.675781 7.070312-15.734375 15.753906-15.734375 5.558594 0 10.066406-4.503906 10.066406-10.0625v-219.75c0-5.554688-4.507812-10.0625-10.066406-10.0625-8.683594 0-15.753906-7.058594-15.753906-15.734375 0-5.554688-4.503907-10.0625-10.0625-10.0625h-144.449219c-5.558594 0-10.066407 4.507812-10.066407 10.0625 0 8.675781-7.066406 15.734375-15.753906 15.734375-5.554687 0-10.0625 4.507812-10.0625 10.0625v49.269531l-8.71875-17.320313v-71.46875c0-4.382812 3.570313-7.945312 7.957032-7.945312h68.429687c5.558594 0 10.0625-4.503906 10.0625-10.0625 0-5.554688-4.503906-10.0625-10.0625-10.0625h-68.429687c-15.484376 0-28.082032 12.59375-28.082032 28.070312v39.765626c-8.128906-5.355469-18.824218-6.355469-28.128906-1.675782l-194.511719 97.734375h-.003906c-13.824219 6.949219-19.417969 23.863281-12.464844 37.710938l134.34375 266.921875c4.9375 9.804687 14.867188 15.472656 25.160157 15.472656 4.234374 0 8.53125-.960938 12.5625-2.988281l194.519531-97.761719c6.683593-3.359375 11.664062-9.136719 14.019531-16.265625 1.308594-3.949219 1.71875-8.046875 1.253906-12.054687h99.070313c15.484375 0 28.082031-12.589844 28.082031-28.066407v-298.792969c0-15.476562-12.597656-28.070312-28.085938-28.070312zm-196.84375 76.21875c11.703126-3.425781 20.949219-12.664062 24.378907-24.363281h127.199219c3.429687 11.699219 12.675781 20.9375 24.378906 24.363281v202.496094c-11.703125 3.421875-20.953125 12.660156-24.378906 24.359375h-77.996094l-73.585938-146.222657v-80.632812zm77.417969 284.441406c-.671875 2.027344-2.074219 3.664063-3.957031 4.609375l-194.515625 97.761719c-3.859375 1.941406-8.761719.3125-10.707031-3.550781l-134.339844-266.910157c-1.96875-3.929687-.390625-8.726562 3.527344-10.695312l-.003906.003906 194.519531-97.738281c3.863281-1.945313 8.765625-.328125 10.707031 3.523437l134.34375 266.949219c.941406 1.878907 1.09375 4.023438.425781 6.046875zm0 0"/><path d="m239.671875 126.871094c-2.5-4.960938-8.546875-6.964844-13.511719-4.464844-3.75 1.886719-8.015625 2.199219-12.011718.882812-3.996094-1.320312-7.234376-4.109374-9.117188-7.855468-2.496094-4.964844-8.546875-6.96875-13.507812-4.472656l-129.0625 64.859374c-2.382813 1.199219-4.195313 3.296876-5.03125 5.832032-.839844 2.53125-.636719 5.296875.5625 7.679687 3.890624 7.742188.757812 17.210938-6.984376 21.105469-2.386718 1.199219-4.195312 3.296875-5.035156 5.832031-.835937 2.53125-.632812 5.296875.566406 7.679688l98.816407 196.324219c2.496093 4.957031 8.539062 6.960937 13.503906 4.46875 7.761719-3.898438 17.246094-.769532 21.136719 6.96875 1.765625 3.515624 5.3125 5.546874 8.996094 5.546874 1.519531 0 3.0625-.34375 4.511718-1.074218l129.058594-64.863282c2.386719-1.195312 4.199219-3.296874 5.035156-5.832031.839844-2.535156.636719-5.300781-.566406-7.683593-1.882812-3.734376-2.191406-7.984376-.875-11.96875 1.324219-3.996094 4.121094-7.238282 7.882812-9.125 2.386719-1.195313 4.199219-3.292969 5.039063-5.832032.839844-2.535156.636719-5.300781-.566406-7.6875zm67.378906 212.640625c-1.921875 5.804687-2.324219 11.867187-1.246093 17.707031l-113.632813 57.109375c-6.832031-7.316406-16.425781-11.386719-26.289063-11.386719-2.136718 0-4.289062.191406-6.425781.582032l-91.0625-180.914063c8.902344-8.308594 13.003907-20.699219 10.8125-32.679687l113.636719-57.109376c4.058594 4.363282 9.175781 7.65625 14.996094 9.578126 5.816406 1.917968 11.882812 2.316406 17.738281 1.234374l91.066406 180.886719c-4.367187 4.058594-7.667969 9.171875-9.59375 14.992188zm0 0"/><path d="m221.804688 215.261719-26.351563 7.28125-25.332031-10.273438c-2.6875-1.085937-5.714844-.964843-8.304688.335938s-4.492187 3.65625-5.21875 6.464843l-6.851562 26.421876-21.550782 16.789062c-2.285156 1.78125-3.695312 4.464844-3.859374 7.363281-.167969 2.894531.925781 5.722657 2.992187 7.753907l19.488281 19.144531 3.757813 27.054687c.398437 2.871094 2.015625 5.433594 4.441406 7.027344 2.425781 1.589844 5.421875 2.058594 8.214844 1.285156l26.34375-7.304687 25.332031 10.273437c1.214844.492188 2.5.734375 3.78125.734375 1.550781 0 3.101562-.355469 4.519531-1.070312 2.589844-1.304688 4.492188-3.660157 5.21875-6.464844l6.855469-26.425781 21.546875-16.789063c2.289063-1.78125 3.695313-4.464843 3.863281-7.359375.164063-2.898437-.925781-5.722656-2.996094-7.753906l-19.488281-19.144531-3.757812-27.027344c-.398438-2.871094-2.015625-5.429687-4.4375-7.023437s-5.410157-2.0625-8.207031-1.292969zm13.589843 60.789062-15.179687 11.828125c-1.75 1.363282-3 3.265625-3.558594 5.410156l-4.828125 18.621094-17.859375-7.242187c-1.210938-.492188-2.496094-.738281-3.78125-.738281-.902344 0-1.808594.121093-2.6875.367187l-18.570312 5.144531-2.644532-19.0625c-.308594-2.203125-1.332031-4.238281-2.917968-5.796875l-13.734376-13.488281 15.179688-11.828125c1.75-1.363281 3-3.265625 3.558594-5.414063l4.828125-18.617187 17.859375 7.242187c2.054687.832032 4.328125.960938 6.460937.371094l18.578125-5.128906 2.648438 19.046875c.304687 2.199219 1.332031 4.238281 2.914062 5.792969zm0 0"/><path d="m107.859375 211.011719-.058594.03125c-4.960937 2.5-6.925781 8.539062-4.425781 13.5 1.769531 3.503906 5.324219 5.523437 9.007812 5.523437 1.527344 0 3.082032-.351562 4.539063-1.085937 4.960937-2.5 6.957031-8.550781 4.453125-13.515625-2.503906-4.960938-8.554688-6.953125-13.515625-4.453125zm0 0"/><path d="m197.289062 187.40625c1.527344 0 3.082032-.351562 4.539063-1.085938 4.960937-2.5 6.957031-8.550781 4.453125-13.515624-2.503906-4.960938-8.554688-6.957032-13.515625-4.453126l-.058594.03125c-4.960937 2.5-6.925781 8.539063-4.425781 13.5 1.769531 3.503907 5.320312 5.523438 9.007812 5.523438zm0 0"/><path d="m183.253906 360.792969-.054687.03125c-4.964844 2.503906-6.929688 8.539062-4.425781 13.5 1.765624 3.507812 5.320312 5.523437 9.003906 5.523437 1.53125 0 3.085937-.347656 4.539062-1.082031 4.964844-2.503906 6.957032-8.554687 4.453125-13.515625-2.5-4.964844-8.554687-6.957031-13.515625-4.457031zm0 0"/><path d="m272.683594 337.1875c1.507812 0 3.039062-.339844 4.480468-1.054688 4.976563-2.46875 7.011719-8.503906 4.546876-13.484374-2.46875-4.976563-8.507813-7.015626-13.488282-4.546876l-.054687.027344c-4.980469 2.46875-6.988281 8.492188-4.519531 13.472656 1.753906 3.539063 5.328124 5.585938 9.035156 5.585938zm0 0"/><path d="m381.503906 237.507812c20.628906 0 39.855469-10.195312 51.425782-27.277343 2.085937-3.082031 2.304687-7.066407.558593-10.355469-1.746093-3.292969-5.167969-5.351562-8.890625-5.351562h-1.597656c-23.113281 0-41.914062-18.78125-41.914062-41.871094 0-8.390625 2.476562-16.5 7.160156-23.449219 2.113281-3.132813 2.292968-7.183594.46875-10.488281-1.824219-3.304688-5.351563-5.304688-9.121094-5.195313-16.167969.492188-31.292969 7.160157-42.589844 18.765625-11.332031 11.640625-17.570312 26.992188-17.570312 43.226563 0 34.183593 27.84375 61.996093 62.070312 61.996093zm-18.800781-99.515624c-1.15625 4.765624-1.746094 9.679687-1.746094 14.660156 0 27.246094 17.675781 50.441406 42.171875 58.738281-6.433594 3.867187-13.882812 5.992187-21.628906 5.992187-23.125 0-41.941406-18.785156-41.941406-41.871093 0-16.484375 9.347656-30.667969 23.144531-37.519531zm0 0"/><path d="m327.554688 103.707031c5.558593 0 10.0625-4.507812 10.0625-10.0625 0-5.558593-4.503907-10.0625-10.0625-10.0625h-.058594c-5.558594 0-10.035156 4.503907-10.035156 10.0625 0 5.554688 4.535156 10.0625 10.09375 10.0625zm0 0"/><path d="m422.570312 103.707031c5.558594 0 10.0625-4.507812 10.0625-10.0625 0-5.558593-4.503906-10.0625-10.0625-10.0625h-.027343c-5.558594 0-10.050781 4.503907-10.050781 10.0625 0 5.554688 4.519531 10.0625 10.078124 10.0625zm0 0"/><path d="m422.570312 251.226562h-.027343c-5.558594 0-10.050781 4.503907-10.050781 10.0625 0 5.558594 4.519531 10.0625 10.078124 10.0625 5.558594 0 10.0625-4.507812 10.0625-10.0625 0-5.558593-4.503906-10.0625-10.0625-10.0625zm0 0"/><path d="m374.847656 20.125h.199219c5.558594 0 10.066406-4.503906 10.066406-10.0625 0-5.554688-4.507812-10.0625-10.066406-10.0625h-.199219c-5.558594 0-10.0625 4.507812-10.0625 10.0625 0 5.558594 4.503906 10.0625 10.0625 10.0625zm0 0"/></svg>