<svg height="511pt" viewBox="-44 1 511 511.999" width="511pt" xmlns="http://www.w3.org/2000/svg"><g fill-rule="evenodd"><path d="m194.738281 259.402344h-.144531zm-17.5 218.449218c0 32.003907 43.4375 32.230469 43.4375 0v-220.5c-8.210937 1.308594-16.875 2.019532-25.9375 2.050782-.058593 0-.113281 0-.144531 0-.3125 0-.625 0-.941406 0-.3125 0-.597656 0-.910156 0-.058594 0-.085938 0-.144532 0-5.273437-.03125-10.375-.285156-15.363281-.742188v219.191406zm0 0" fill="#cbe558"/><path d="m177.238281 400.570312v-57.019531c-47.542969-61.410156-158.042969-22.085937-166.679687-17.980469 8.09375 33.226563 73.90625 136.183594 166.679687 114.582032zm0 0" fill="#e2f1a1"/><path d="m220.675781 370.9375v39.636719c94.308594 40.292969 182.265625-93.839844 192.785157-136.953125-18.101563 0-131.082032-39.382813-192.785157 40.292968zm0 0" fill="#e2f1a1"/><path d="m177.238281 258.660156c4.988281.457032 10.089844.710938 15.359375.742188h.144532.910156.941406.144531c25.109375-19.976563 35.113281-50.722656 33.203125-83.09375-1.820312-30.292969-14.105468-62.039063-34.285156-87.742188-14.707031-18.75-33.605469-34.308594-55.722656-43.769531-25.480469-10.886719-55.179688-13.679687-87.640625-3.988281-6.558594 2.363281-9.378907 19.976562 9.832031 34.679687-23.941406 81.582031 18.125 173.996094 117.113281 183.171875zm0 0" fill="#f8a2aa"/><path d="m227.941406 176.308594c1.910156 32.371094-8.09375 63.117187-33.203125 83.09375 9.0625-.03125 17.726563-.742188 25.9375-2.050782 91.375-14.589843 129.597657-103.242187 106.539063-181.863281 19.210937-14.707031 16.386718-32.316406 9.804687-34.679687-35.914062-10.746094-68.519531-6.15625-95.679687 7.777344-18.671875 9.574218-34.773438 23.539062-47.6875 39.980468 20.183594 25.703125 32.464844 57.449219 34.289062 87.742188zm0 0" fill="#f6838d"/><path d="m193.652344 88.566406c12.914062-16.441406 29.015625-30.40625 47.6875-39.980468-11.800782-23.335938-31.011719-38.527344-52.703125-38.527344-20.519531 0-38.816407 13.566406-50.703125 34.738281 22.117187 9.460937 41.015625 25.019531 55.71875 43.769531zm0 0" fill="#ff6977"/></g><path d="m421.371094 267.40625c-1.90625-2.429688-4.824219-3.84375-7.910156-3.84375-1.996094 0-8.03125-1.15625-13.867188-2.269531-19.320312-3.691407-51.65625-9.871094-86.179688-6.480469-33.050781 3.246094-60.75 14.585938-82.679687 33.773438v-22.964844c34.503906-7.453125 63.535156-25.558594 83.773437-52.753906 27.308594-36.695313 36.128907-86.316407 24.082032-133.90625 9.980468-9.644532 14.828125-21.375 13.125-32.347657-1.160156-7.4375-5.382813-13.148437-11.296875-15.273437-.171875-.0625-.34375-.117188-.515625-.167969-30.777344-9.207031-60.710938-8.472656-88.964844 2.179687-1.828125.6875-3.640625 1.429688-5.445312 2.203126-14.109376-22.429688-34.832032-35.554688-56.855469-35.554688-21.148438 0-40.761719 11.703125-54.839844 32.40625-27.257813-9.625-56.769531-10.101562-86.390625-1.234375-.179688.050781-.355469.109375-.53125.171875-5.898438 2.128906-10.109375 7.839844-11.257812 15.273438-1.699219 10.972656 3.152343 22.703124 13.128906 32.339843-9.207032 36.28125-6.375 73.882813 8.140625 106.5625 2.257812 5.078125 8.199219 7.367188 13.277343 5.113281 5.078126-2.257812 7.367188-8.203124 5.113282-13.28125-13.425782-30.226562-15.378906-65.394531-5.5-99.027343 1.171875-3.996094-.234375-8.296875-3.539063-10.824219-9.621093-7.367188-11.238281-14.730469-10.789062-17.714844 70.542969-19.84375 122.53125 24.507813 145.75 68.9375 21.308593 40.777344 26.875 98.394532-10.082031 130.605469-27.105469-.371094-51.011719-6.980469-71.097657-19.664063-4.699219-2.964843-10.910156-1.5625-13.875 3.136719-2.96875 4.699219-1.5625 10.910157 3.132813 13.878907 17.140625 10.820312 36.542968 17.800781 57.902344 20.910156v52.359375c-21.925782-15.929688-52.054688-22.804688-88.640626-19.988281-37 2.851562-67.769531 14.371093-72.296874 16.523437-4.304688 2.042969-6.582032 6.832031-5.457032 11.464844 4.871094 19.992187 25.621094 55.808593 54.488282 82.816406 21.902343 20.496094 55.035156 42.425781 96.507812 42.425781 5.011719 0 10.148438-.332031 15.398438-1.015625v25.675781c0 22.417969 16.015624 34.148438 31.835937 34.148438 8.34375 0 16.144531-3.167969 21.964844-8.914062 4.449219-4.398438 9.753906-12.34375 9.753906-25.234376v-53.15625c8.476563 2.292969 17.058594 3.445313 25.734375 3.445313 16.976562 0 34.304688-4.386719 51.828125-13.152344 60.597656-30.320312 107.039063-106.597656 114.9375-138.984375.730469-2.996094.042969-6.167968-1.863281-8.597656zm-268.765625-226.703125c9.980469-13.195313 22.730469-20.582031 36.035156-20.582031 14.515625 0 28.597656 9.082031 38.902344 24.710937-12.289063 7.507813-23.703125 16.996094-33.875 28.191407-12.074219-13.265626-26-24.28125-41.0625-32.320313zm53.855469 48.207031c8.429687-9.625 21.445312-21.925781 38.890624-31.085937.171876-.078125.351563-.140625.523438-.226563.300781-.152344.589844-.320312.871094-.496094 21.769531-11.074218 50.25-17.140624 85.136718-7.3125.457032 2.976563-1.152343 10.335938-10.78125 17.707032-3.304687 2.53125-4.710937 6.832031-3.539062 10.824218 12.746094 43.445313 5.570312 89.253907-19.195312 122.535157-13.707032 18.421875-37.945313 39.859375-78.609376 46.453125 10.367188-14.878906 16.535157-32.878906 18.089844-53.203125 2.09375-27.398438-4.589844-57.476563-18.816406-84.699219-3.746094-7.167969-7.960938-14.015625-12.570312-20.496094zm-137.445313 307.164063c-23.15625-21.667969-39.175781-47.886719-45.867187-64.460938 11.402343-3.773437 32.933593-9.742187 56.933593-11.589843 39.878907-3.070313 69.148438 6.050781 87.09375 27.109374v37.625l-35.96875-16.824218-8.359375-29.699219c-1.503906-5.347656-7.054687-8.464844-12.40625-6.960937-5.347656 1.503906-8.464844 7.0625-6.960937 12.410156l3.65625 12.988281-24.136719-11.289063c-5.035156-2.355468-11.023438-.183593-13.375 4.847657-2.355469 5.03125-.183594 11.023437 4.847656 13.375l50.683594 23.710937-6.011719 1.363282c-5.417969 1.234374-8.8125 6.625-7.582031 12.042968 1.0625 4.664063 5.210938 7.832032 9.804688 7.832032.738281 0 1.488281-.082032 2.238281-.253907l31.234375-7.097656 12.335937 5.769531v24.875c-42.273437 6.5-76.460937-15.472656-98.160156-35.773437zm137.824219 92.699219c-2.03125 2.003906-4.808594 3.105468-7.824219 3.105468-5.40625 0-11.71875-3.671875-11.71875-14.023437v-208.492188c2.070313.066407 4.152344.101563 6.25.101563.394531 0 .789063 0 1.183594-.003906h.003906.0625.003906.003907c5.363281-.03125 10.632812-.304688 15.8125-.78125v141.800781.113281 67.257812c-.003907 4.707032-1.308594 8.480469-3.777344 10.921876zm92.453125-91.78125c-23.699219 11.855468-46.726563 14.082031-68.558594 6.664062v-26.320312l15.386719-7.195313 29.800781 13.058594c1.3125.578125 2.683594.847656 4.03125.847656 3.875 0 7.566406-2.25 9.21875-6.023437 2.230469-5.089844-.085937-11.023438-5.175781-13.253907l-13.625-5.96875 6.023437-2.816406c.121094-.054687.242188-.109375.363281-.167969l44.085938-20.621094c5.035156-2.351562 7.207031-8.339843 4.851562-13.375-2.351562-5.03125-8.339843-7.203124-13.375-4.847656l-20.902343 9.773438 6.113281-14.910156c2.109375-5.140626-.351562-11.019532-5.488281-13.125-5.144531-2.109376-11.019531.351562-13.128907 5.488281l-14.40625 35.128906-33.773437 15.796875v-37.6875c48.1875-58.71875 129.898437-43.109375 165.082031-36.382812 1.550782.292968 2.996094.574218 4.355469.828124-12.933594 32.527344-52.460937 90.886719-100.878906 115.109376zm0 0"/><path d="m86.378906 223.8125c2.214844 0 4.441406-.726562 6.300782-2.222656 4.328124-3.480469 5.015624-9.8125 1.535156-14.144532l-.113282-.140624c-3.480468-4.332032-9.816406-5.019532-14.144531-1.535157-4.332031 3.480469-5.019531 9.8125-1.535156 14.140625l.113281.144532c1.984375 2.472656 4.902344 3.757812 7.84375 3.757812zm0 0"/></svg>