<svg height="511pt" viewBox="0 0 511.99955 511" width="511pt" xmlns="http://www.w3.org/2000/svg"><g fill-rule="evenodd"><path d="m10.003906 277.648438 198.304688 25.558593 47.679687-56.160156-197.882812-26.4375zm0 0" fill="#e8b3ce"/><path d="m255.988281 247.046875 47.675781 56.160156 150.203126-19.351562 48.128906-6.207031-48.128906-57.039063zm0 0" fill="#e8b3ce"/><path d="m303.664062 303.207031-47.675781-56.160156v254.449219l197.878907-26.410156v-191.230469zm0 0" fill="#d675a7"/><path d="m208.308594 303.207031-150.203125-19.351562v191.230469l197.882812 26.410156v-254.449219zm0 0" fill="#d675a7"/><path d="m58.105469 220.609375 197.882812 26.4375 197.878907-26.4375-197.878907-25.160156-7.910156 1.019531zm0 0" fill="#b3b0b5"/><path d="m345.046875 51.023438c20.125 5.101562 33.191406 19.183593 40.5625 40.550781 8.078125-19.269531 21.117187-33.296875 40.535156-40.550781-21.289062-10.824219-35.832031-23.96875-40.535156-40.519532-5.046875 18.53125-18.820313 31.90625-40.5625 40.519532zm0 0" fill="#ffc15a"/><path d="m151.109375 51.023438c-21.742187-8.613282-35.519531-21.988282-40.5625-40.519532-4.707031 16.550782-19.246094 29.695313-40.5625 40.519532 19.445313 7.253906 32.484375 21.28125 40.5625 40.550781 7.371094-21.367188 20.4375-35.449219 40.5625-40.550781zm0 0" fill="#ffc15a"/><path d="m176.589844 380.421875 6.71875-19.15625-20.4375-5.75-13.71875-16.804687-13.71875 14.507812-20.4375 2.351562 6.71875 20.257813-6.71875 19.128906 20.4375 5.78125 13.71875 16.800781 13.71875-14.507812 20.4375-2.351562zm0 0" fill="#ffc15a"/><path d="m320.785156 364.75 6.6875 19.15625-6.6875 20.257812 20.4375 2.351563 13.71875 14.507813 13.71875-16.800782 20.40625-5.753906-6.6875-19.152344 6.6875-20.261718-20.40625-2.351563-13.71875-14.507813-13.71875 16.804688zm0 0" fill="#ffc15a"/></g><path d="m509.640625 271.195312-48.128906-57.039062c-1.597657-1.894531-3.925781-3.160156-6.386719-3.46875l-197.042969-25.058594v-94.339844c0-5.523437-4.480469-10.003906-10.003906-10.003906-5.527344 0-10.003906 4.480469-10.003906 10.003906v96.351563l-181.230469 23.046875c-2.464844.3125-4.78125 1.574219-6.382812 3.472656l-48.105469 57.039063c-2.35937525 2.796875-3.003907 6.664062-1.675781 10.074219 1.328124 3.414062 4.414062 5.828124 8.046874 6.296874l39.375 5.074219v182.441407c0 5.015624 3.710938 9.253906 8.679688 9.917968l197.878906 26.40625c.050782.007813.097656.003906.148438.011719.390625.042969.78125.078125 1.175781.078125s.785156-.035156 1.175781-.078125c.050782-.007813.097656-.003906.148438-.011719l197.878906-26.40625c4.96875-.664062 8.679688-4.902344 8.679688-9.917968v-54.601563c0-5.523437-4.480469-10.003906-10.003907-10.003906-5.527343 0-10.007812 4.480469-10.007812 10.003906v45.84375l-177.867188 23.738281v-215.777344l30.046875 35.394532c1.914063 2.253906 4.710938 3.527344 7.625 3.527344.425782 0 .851563-.027344 1.277344-.082032l138.917969-17.902344v45.441407c0 5.523437 4.480469 10.003906 10.007812 10.003906 5.523438 0 10.003907-4.480469 10.003907-10.003906v-48.019531l39.402343-5.078126c3.636719-.464843 6.722657-2.882812 8.046875-6.292968 1.332032-3.417969.6875-7.28125-1.675781-10.082032zm-261.5625-44.152343c5.523437 0 10.003906-4.476563 10.003906-10.003907v-11.238281l118.398438 15.054688-120.492188 16.097656-120.496093-16.097656 102.582031-13.042969v9.226562c0 5.527344 4.476562 10.003907 10.003906 10.003907zm-185.859375 4.210937 174.285156 23.28125-32.304687 38.054688-174.71875-22.519532zm5.894531 63.972656 138.917969 17.902344c.425781.054688.851562.082032 1.277344.082032 2.914062 0 5.710937-1.273438 7.625-3.53125l30.046875-35.390626v215.777344l-177.867188-23.734375zm239.660157-2.636718-32.304688-38.050782 174.285156-23.285156 32.757813 38.820313zm0 0"/><path d="m66.488281 60.398438c16.0625 5.992187 27.457031 17.457031 34.832031 35.042968 1.5625 3.722656 5.203126 6.132813 9.222657 6.132813.109375 0 .21875 0 .328125-.003907 4.144531-.132812 7.777344-2.8125 9.132812-6.734374 6.511719-18.882813 17.492188-30.042969 33.5625-34.113282 4.203125-1.066406 7.246094-4.722656 7.523438-9.054687.28125-4.328125-2.261719-8.347657-6.296875-9.945313-19.144531-7.582031-30.457031-18.65625-34.59375-33.847656-1.183594-4.332031-5.105469-7.347656-9.597657-7.375-.019531 0-.039062 0-.058593 0-4.46875 0-8.398438 2.964844-9.621094 7.269531-3.648437 12.835938-15.253906 24.066407-35.46875 34.332031-3.539063 1.800782-5.683594 5.519532-5.457031 9.484376.222656 3.964843 2.769531 7.425781 6.492187 8.8125zm43.585938-27.59375c4.679687 6.667968 10.742187 12.527343 18.167969 17.550781-7.21875 4.894531-13.347657 11.339843-18.367188 19.300781-5.402344-7.644531-11.835938-14.039062-19.261719-19.144531 8.042969-5.496094 14.515625-11.382813 19.460938-17.707031zm0 0"/><path d="m148.074219 88.535156c-1.535157 5.308594 1.523437 10.855469 6.832031 12.390625 5.839844 1.691407 23.609375 6.832031 19.820312 52.4375-.457031 5.507813 3.636719 10.339844 9.144532 10.796875.277344.023438.558594.035156.835937.035156 5.152344 0 9.527344-3.949218 9.960938-9.175781 3.414062-41.089843-8.09375-65.757812-34.203125-73.3125-5.304688-1.535156-10.855469 1.523438-12.390625 6.828125zm0 0"/><path d="m342.589844 60.722656c16.070312 4.070313 27.050781 15.230469 33.5625 34.109375 1.351562 3.921875 4.984375 6.605469 9.132812 6.738281.109375.003907.21875.003907.328125.003907 4.015625 0 7.660157-2.410157 9.222657-6.132813 7.371093-17.585937 18.757812-29.050781 34.808593-35.046875 3.71875-1.390625 6.265625-4.84375 6.488281-8.808593.222657-3.960938-1.917968-7.679688-5.457031-9.480469-20.199219-10.273438-31.792969-21.503907-35.445312-34.335938-1.222657-4.304687-5.152344-7.269531-9.621094-7.269531-.019531 0-.039063 0-.058594 0-4.492187.027344-8.414062 3.042969-9.59375 7.375-4.136719 15.191406-15.453125 26.265625-34.59375 33.847656-4.035156 1.597656-6.578125 5.617188-6.300781 9.945313.28125 4.332031 3.320312 7.988281 7.527344 9.054687zm43.492187-27.917968c4.941407 6.324218 11.410157 12.210937 19.453125 17.707031-7.421875 5.105469-13.851562 11.5-19.253906 19.144531-5.019531-7.960938-11.148438-14.402344-18.367188-19.296875 7.425782-5.027344 13.488282-10.886719 18.167969-17.554687zm0 0"/><path d="m311.449219 164.195312c.273437 0 .554687-.007812.839843-.035156 5.503907-.457031 9.597657-5.289062 9.136719-10.796875-3.789062-45.605469 13.964844-50.746093 19.800781-52.4375 5.308594-1.539062 8.363282-7.085937 6.824219-12.394531-1.539062-5.304688-7.085937-8.359375-12.390625-6.824219-26.089844 7.558594-37.585937 32.226563-34.171875 73.3125.433594 5.226563 4.808594 9.175781 9.960938 9.175781zm0 0"/><path d="m187.160156 380.511719 5.589844-15.933594c.914062-2.609375.710938-5.476563-.566406-7.929687-1.273438-2.449219-3.503906-4.265626-6.164063-5.011719l-17.394531-4.898438-11.71875-14.355469c-1.820312-2.226562-4.511719-3.566406-7.386719-3.671874-2.878906-.101563-5.65625 1.035156-7.632812 3.125l-11.21875 11.859374-16.816407 1.9375c-2.988281.34375-5.667968 2.015626-7.289062 4.554688s-2.011719 5.671875-1.0625 8.53125l5.644531 17.019531-5.585937 15.902344c-.917969 2.605469-.714844 5.472656.558594 7.925781 1.269531 2.449219 3.5 4.265625 6.15625 5.015625l17.40625 4.921875 11.726562 14.363282c1.816406 2.226562 4.507812 3.566406 7.382812 3.671874.121094.003907.242188.003907.367188.003907 2.742188 0 5.375-1.128907 7.265625-3.128907l11.214844-11.859374 16.816406-1.9375c2.992187-.34375 5.667969-2.015626 7.289063-4.554688 1.621093-2.539062 2.011718-5.671875 1.0625-8.53125zm-20.066406 3.058593 2.847656 8.578126-8.214844.945312c-2.335937.269531-4.507812 1.351562-6.125 3.0625l-5.898437 6.238281-6.519531-7.984375c-1.296875-1.589844-3.050782-2.742187-5.027344-3.300781l-10.191406-2.882813 3.191406-9.082031c.730469-2.089843.753906-4.363281.054688-6.464843l-2.84375-8.578126 8.210937-.945312c2.339844-.269531 4.507813-1.351562 6.125-3.066406l5.898437-6.234375 6.519532 7.984375c1.300781 1.59375 3.0625 2.746094 5.039062 3.304687l10.183594 2.863281-3.191406 9.101563c-.734375 2.089844-.753906 4.359375-.058594 6.460937zm0 0"/><path d="m397.5 353.667969c-1.621094-2.535157-4.296875-4.207031-7.285156-4.550781l-16.789063-1.933594-11.21875-11.863282c-1.976562-2.089843-4.746093-3.226562-7.632812-3.125-2.875.105469-5.5625 1.445313-7.382813 3.671876l-11.722656 14.355468-17.394531 4.898438c-2.65625.746094-4.890625 2.558594-6.164063 5.007812-1.273437 2.449219-1.480468 5.3125-.570312 7.917969l5.570312 15.949219-5.625 17.03125c-.945312 2.859375-.554687 5.988281 1.066406 8.523437 1.621094 2.535157 4.296876 4.207031 7.289063 4.550781l16.816406 1.9375 11.214844 11.859376c1.890625 2 4.523437 3.128906 7.265625 3.128906.121094 0 .242188 0 .367188-.003906 2.875-.105469 5.5625-1.445313 7.382812-3.671876l11.722656-14.359374 17.371094-4.894532c2.65625-.746094 4.886719-2.558594 6.160156-5.007812 1.273438-2.449219 1.480469-5.3125.570313-7.917969l-5.570313-15.945313 5.625-17.035156c.945313-2.855468.554688-5.988281-1.066406-8.523437zm-31.554688 40.925781c-1.976562.558594-3.734374 1.710938-5.035156 3.300781l-6.519531 7.988281-5.902344-6.238281c-1.617187-1.710937-3.785156-2.796875-6.125-3.066406l-8.226562-.945313 2.835937-8.589843c.691406-2.09375.671875-4.355469-.054687-6.4375l-3.179688-9.109375 10.191407-2.867188c1.980468-.558594 3.738281-1.710937 5.039062-3.304687l6.523438-7.984375 5.898437 6.238281c1.617187 1.710937 3.785156 2.792969 6.121094 3.0625l8.203125.945313-2.835938 8.59375c-.691406 2.089843-.671875 4.351562.054688 6.433593l3.183594 9.113281zm0 0"/><path d="m453.867188 370.386719c-5.527344 0-10.007813 4.480469-10.007813 10.003906v.199219c0 5.523437 4.480469 10.003906 10.007813 10.003906 5.523437 0 10.003906-4.480469 10.003906-10.003906v-.199219c0-5.523437-4.480469-10.003906-10.003906-10.003906zm0 0"/></svg>