<svg height="511pt" viewBox="-25 1 511 511.999" width="511pt" xmlns="http://www.w3.org/2000/svg"><g fill-rule="evenodd"><path d="m139.46875 205.84375 33.183594-57.542969h-86.269532c0 14.058594-7.648437 26.332031-18.972656 32.910157l43.121094 74.777343zm0 0" fill="#f6838d"/><path d="m172.652344 148.300781-33.183594 57.542969-28.9375 50.140625 28.9375 50.171875 33.183594 57.515625h115.722656l33.152344-57.515625 28.9375-50.171875-28.9375-50.140625-33.152344-57.542969zm0 0" fill="#f9f9f9"/><path d="m172.652344 148.300781h115.722656l-38.90625-67.40625c-5.578125 3.230469-12.058594 5.074219-18.96875 5.074219-6.90625 0-13.390625-1.84375-18.96875-5.074219zm0 0" fill="#f6838d"/><path d="m288.375 148.300781 33.152344 57.542969 28.9375 50.140625 43.125-74.773437c-11.328125-6.578126-18.972656-18.851563-18.972656-32.910157zm0 0" fill="#f6838d"/><path d="m139.46875 306.15625-28.9375-50.171875-43.121094 74.804687c11.328125 6.550782 18.972656 18.824219 18.972656 32.882813h86.269532zm0 0" fill="#f6838d"/><path d="m230.5 363.671875h-57.847656l38.875 67.433594c5.578125-3.230469 12.0625-5.074219 18.972656-5.074219 6.90625 0 13.390625 1.84375 18.96875 5.074219l38.902344-67.433594zm0 0" fill="#f6838d"/><path d="m321.527344 306.15625-33.152344 57.515625h86.242188c0-14.058594 7.644531-26.332031 18.972656-32.882813l-43.125-74.804687zm0 0" fill="#f6838d"/><path d="m393.589844 330.789062c-11.328125 6.550782-18.972656 18.824219-18.972656 32.882813 0 9.808594 3.710937 18.765625 9.824218 25.484375 6.9375 7.679688 16.960938 12.5 28.117188 12.5 20.953125 0 37.941406-17.007812 37.941406-37.984375 0-17.6875-12.0625-32.542969-28.425781-36.765625-3.03125-.792969-6.230469-1.21875-9.515625-1.21875-6.910156 0-13.394532 1.871094-18.96875 5.101562zm0 0" fill="#ffcb7c"/><path d="m423.714844 184.609375c15.515625-4.761719 26.785156-19.21875 26.785156-36.308594 0-20.976562-16.988281-37.984375-37.941406-37.984375-9.996094 0-19.085938 3.882813-25.878906 10.207032-7.417969 6.941406-12.0625 16.808593-12.0625 27.777343 0 14.058594 7.644531 26.332031 18.96875 32.910157 5.578124 3.230468 12.0625 5.074218 18.972656 5.074218 3.878906 0 7.617187-.570312 11.15625-1.675781zm0 0" fill="#ffcb7c"/><path d="m249.46875 80.894531c10.335938-5.980469 17.582031-16.695312 18.800781-29.167969.113281-1.21875.171875-2.464843.171875-3.742187 0-20.976563-16.988281-37.984375-37.941406-37.984375s-37.941406 17.007812-37.941406 37.984375c0 1.277344.058594 2.523437.199218 3.742187 1.214844 12.472657 8.464844 23.1875 18.769532 29.167969 5.578125 3.230469 12.0625 5.074219 18.972656 5.074219 6.90625 0 13.390625-1.84375 18.96875-5.074219zm0 0" fill="#ffcb7c"/><path d="m74.320312 120.523438c-6.796874-6.324219-15.882812-10.207032-25.878906-10.207032-20.953125 0-37.941406 17.007813-37.941406 37.984375 0 17.09375 11.269531 31.546875 26.785156 36.308594 3.539063 1.105469 7.277344 1.675781 11.15625 1.675781 6.910156 0 13.394532-1.84375 18.96875-5.074218 11.328125-6.578126 18.972656-18.851563 18.972656-32.910157 0-10.96875-4.644531-20.835937-12.0625-27.777343zm0 0" fill="#ffcb7c"/><path d="m67.410156 330.789062c-5.578125-3.230468-12.0625-5.101562-18.96875-5.101562-3.285156 0-6.484375.425781-9.515625 1.21875-16.335937 4.226562-28.425781 19.078125-28.425781 36.765625 0 20.976563 16.988281 37.984375 37.941406 37.984375 11.15625 0 21.179688-4.820312 28.144532-12.5 6.085937-6.71875 9.796874-15.675781 9.796874-25.484375 0-14.058594-7.644531-26.332031-18.972656-32.882813zm0 0" fill="#ffcb7c"/><path d="m211.53125 431.105469c-8.976562 5.1875-15.628906 13.976562-18.007812 24.378906-.625 2.75-.964844 5.582031-.964844 8.53125 0 20.976563 16.988281 37.984375 37.941406 37.984375s37.941406-17.007812 37.941406-37.984375c0-2.949219-.339844-5.78125-.964844-8.53125-2.378906-10.402344-9.03125-19.191406-18.007812-24.378906-5.578125-3.230469-12.0625-5.074219-18.96875-5.074219-6.910156 0-13.394531 1.84375-18.96875 5.074219zm0 0" fill="#ffcb7c"/></g><path d="m434.730469 321.148438c7.183593-21.777344 10.816406-44.46875 10.816406-67.601563 0-21.664063-3.195313-42.960937-9.507813-63.4375 14.582032-8.234375 24.460938-23.886719 24.460938-41.808594 0-26.457031-21.507812-47.984375-47.941406-47.984375-8.941406 0-17.3125 2.46875-24.484375 6.75-29.425781-31.710937-67.886719-53.929687-109.84375-63.457031-2.214844-24.414063-22.769531-43.609375-47.730469-43.609375-24.957031 0-45.507812 19.183594-47.730469 43.589844-41.96875 9.550781-80.429687 31.777344-109.84375 63.476562-7.171875-4.28125-15.542969-6.75-24.484375-6.75-26.433594 0-47.941406 21.527344-47.941406 47.984375 0 17.921875 9.875 33.574219 24.460938 41.808594-6.316407 20.476563-9.511719 41.773437-9.511719 63.4375 0 23.148437 3.640625 45.839844 10.835937 67.59375-15.308594 8.019531-25.785156 24.070313-25.785156 42.53125 0 26.457031 21.503906 47.984375 47.941406 47.984375 10.160156 0 19.589844-3.191406 27.351563-8.613281 28.949219 30.003906 66.277343 51.125 106.78125 60.390625-.003907.195312-.015625.386718-.015625.582031 0 26.457031 21.503906 47.984375 47.941406 47.984375 26.433594 0 47.9375-21.527344 47.9375-47.984375 0-.195313-.011719-.386719-.011719-.582031 40.5-9.265625 77.828125-30.386719 106.777344-60.390625 7.765625 5.421875 17.191406 8.613281 27.355469 8.613281 26.433594 0 47.9375-21.527344 47.9375-47.984375.003906-18.457031-10.464844-34.5-25.765625-42.523437zm-9.179688-67.601563c0 21.3125-3.410156 42.207031-10.121093 62.234375-.953126-.054688-1.90625-.09375-2.871094-.09375-5.160156 0-10.125.828125-14.785156 2.34375l-35.773438-62.03125 35.789062-62.058594c4.65625 1.515625 9.617188 2.34375 14.769532 2.34375 1.480468 0 2.941406-.078125 4.386718-.210937 5.710938 18.542969 8.605469 37.835937 8.605469 57.472656zm-59.878906 100.125h-60l44.785156-77.652344 30.011719 52.039063c-7.363281 6.652344-12.65625 15.554687-14.796875 25.613281zm-95.277344 20h.652344l-25.777344 44.699219c-4.65625-1.511719-9.617187-2.339844-14.769531-2.339844s-10.113281.828125-14.769531 2.339844l-25.78125-44.699219h.65625c5.523437 0 10-4.476563 10-10s-4.476563-10-10-10h-12.191407l-56.324218-97.671875 56.34375-97.699219h104.132812l56.34375 97.699219-56.328125 97.671875h-12.1875c-5.523437 0-10 4.476563-10 10s4.476563 10 10 10zm-175.066406-20c-2.140625-10.058594-7.433594-18.960937-14.796875-25.613281l30.011719-52.039063 44.785156 77.652344zm0-195.371094h60.015625l-44.800781 77.683594-30.023438-52.058594c7.371094-6.65625 12.667969-15.5625 14.808594-25.625zm135.171875-62.332031c5.152344 0 10.113281-.828125 14.769531-2.339844l25.761719 44.671875h-81.0625l25.761719-44.671875c4.65625 1.511719 9.617187 2.339844 14.769531 2.339844zm135.171875 62.332031c2.140625 10.0625 7.4375 18.96875 14.804687 25.625l-30.019531 52.058594-44.800781-77.683594zm74.824219-10c0 15.429688-12.53125 27.980469-27.9375 27.980469s-27.941406-12.550781-27.941406-27.980469c0-15.429687 12.535156-27.980469 27.941406-27.980469s27.9375 12.550782 27.9375 27.980469zm-67.089844-27.640625c-3.683594 5.214844-6.363281 11.1875-7.734375 17.640625h-71.550781l-31.542969-54.691406c5.96875-5.390625 10.574219-12.261719 13.246094-20.023437 37.25 8.882812 71.363281 28.824218 97.582031 57.074218zm-142.90625-100.660156c15.40625 0 27.941406 12.554688 27.941406 27.984375s-12.535156 27.980469-27.941406 27.980469c-14.375 0-26.246094-10.929688-27.769531-24.925782-.011719-.132812-.027344-.265624-.042969-.398437-.082031-.875-.128906-1.761719-.128906-2.65625 0-15.429687 12.535156-27.984375 27.941406-27.984375zm-45.332031 43.570312c2.675781 7.769532 7.28125 14.644532 13.25 20.039063l-31.539063 54.691406h-71.550781c-1.375-6.453125-4.050781-12.425781-7.734375-17.640625 26.207031-28.238281 60.316406-48.183594 97.574219-57.089844zm-136.726563 56.746094c15.40625 0 27.941406 12.554688 27.941406 27.984375 0 15.425781-12.535156 27.980469-27.941406 27.980469s-27.941406-12.554688-27.941406-27.980469c0-15.429687 12.535156-27.984375 27.941406-27.984375zm-12.992187 133.230469c0-19.636719 2.894531-38.929687 8.601562-57.472656 1.449219.132812 2.910157.210937 4.390625.210937 5.152344 0 10.113282-.828125 14.769532-2.339844l35.789062 62.054688-35.773438 62.03125c-4.660156-1.515625-9.628906-2.34375-14.785156-2.34375-.957031 0-1.90625.035156-2.851562.09375-6.726563-20.007812-10.140625-40.902344-10.140625-62.234375zm-14.949219 110.125c0-12.957031 8.839844-23.878906 20.792969-27.050781.148437-.035156.296875-.070313.445312-.113282 2.148438-.53125 4.390625-.820312 6.703125-.820312 15.40625 0 27.9375 12.554688 27.9375 27.984375 0 15.425781-12.53125 27.980469-27.9375 27.980469s-27.941406-12.550782-27.941406-27.980469zm68.988281 24.761719c2.71875-4.492188 4.710938-9.46875 5.839844-14.761719h71.535156l31.554688 54.71875c-4.789063 4.328125-8.695313 9.609375-11.4375 15.535156-37.035157-8.484375-71.148438-27.898437-97.492188-55.492187zm141.011719 103.566406c-15.40625 0-27.941406-12.554688-27.941406-27.984375s12.535156-27.980469 27.941406-27.980469 27.941406 12.550782 27.941406 27.980469-12.535156 27.984375-27.941406 27.984375zm43.519531-48.074219c-2.742187-5.925781-6.648437-11.207031-11.441406-15.535156l31.558594-54.71875h71.535156c1.125 5.292969 3.121094 10.269531 5.839844 14.761719-26.34375 27.59375-60.457031 47.007812-97.492188 55.492187zm138.539063-52.273437c-15.40625 0-27.941406-12.550782-27.941406-27.980469s12.535156-27.980469 27.941406-27.980469c2.34375 0 4.625.292969 6.800781.839844.078125.023438.152344.039062.226563.058594 12.015624 3.128906 20.914062 14.082031 20.914062 27.082031-.003906 15.429687-12.535156 27.980469-27.941406 27.980469zm0 0"/><path d="m230.699219 353.671875h-.199219c-5.523438 0-10 4.476563-10 10s4.476562 10 10 10h.199219c5.519531 0 10-4.476563 10-10s-4.480469-10-10-10zm0 0"/></svg>