<svg height="511pt" viewBox="-32 0 511 511.99917" width="511pt" xmlns="http://www.w3.org/2000/svg"><g fill-rule="evenodd"><path d="m179.566406 380.839844c20.566406-6.125 27.402344-25.339844 22.179688-36.621094-2.777344-5.925781-8.878906-9.667969-18.066406-8.136719-46.890626 6.039063-51.628907 5.726563-69.328126 22.816407l-5.417968 5.8125-36.421875 39.203124 29.015625 60.429688c.3125.652344.570312 1.277344.769531 1.925781l160.355469-52.238281 60.503906-65.816406c12.425781-13.550782-1.164062-44.132813-32.421875-19.785156l-62.464844 43.253906c-11.316406 3.148437-21.359375 3.941406-48.703125 9.15625zm0 0" fill="#ffddcf"/><path d="m101.757812 466.441406-29.757812-61.992187.511719-.539063-.027344-.085937c-3.632813-7.539063-12.792969-10.769531-20.367187-7.140625l-32.964844 15.816406c-7.574219 3.628906-10.777344 12.785156-7.175782 20.324219l29.078126 60.515625c3.628906 7.570312 12.761718 10.800781 20.335937 7.171875l32.992187-15.816407c6.921876-3.316406 10.210938-11.28125 7.914063-18.425781zm0 0" fill="#ffcb7c"/><path d="m114.351562 358.898438c17.699219-17.089844 22.4375-16.777344 69.328126-22.816407 9.191406-1.53125 15.289062 2.210938 18.066406 8.136719 27.886718-18.144531 34.609375-29.707031 43.0625-39.457031 32.648437-59.640625 100.671875-127.5 143.761718-133.507813-8.964843-8.304687-8.964843-32.226562 4.167969-40.050781-3.742187-56.097656-119.480469-66.074219-112.984375 32.113281-.027344-.027344-.054687-.054687-.082031-.085937-36.199219-22.390625-68.875-48.976563-99-78.628907-23.402344-23.042968-45.273437-47.960937-66.066406-74.152343-9.078125-5.214844-39.65625 36.851562-26.238281 68.371093-4.484376-5.246093-46.378907 41.042969-2.269532 92.433594-6.070312 51.703125 29.871094 77.183594 80.671875 81.804688-25.359375 17.007812-101.492187 17.800781-140.46875 11.707031-15.347656-2.410156-11.941406 46.003906 19.289063 61.253906 7.886718 26.132813 32.820312 37.953125 63.339844 38.691407zm0 0" fill="#f9f9f9"/><path d="m388.570312 171.253906c-43.089843 6.011719-111.113281 73.871094-143.761718 133.507813 104.957031-41.867188 120.898437-73.640625 143.761718-133.507813zm0 0" fill="#e8e7e9"/><path d="m279.671875 163.234375c-12.652344-39.769531-32.339844-99.550781-47.542969-138.070313-14.097656-35.742187-60.164062 16.894532-51.457031 59.441407 30.125 29.648437 62.804687 56.234375 99 78.628906zm0 0" fill="#e8e7e9"/><path d="m392.738281 131.203125c-13.132812 7.824219-13.132812 31.746094-4.167969 40.050781l48.929688-11.054687zm0 0" fill="#ffcb7c"/></g><path d="m442.9375 151.8125-40.839844-26.457031c-2.375-13.800781-10.46875-25.882813-23.179687-34.410157-12.652344-8.488281-29.140625-12.742187-45.242188-11.671874-18.488281 1.226562-34.96875 9.171874-46.40625 22.367187-4.601562 5.308594-8.324219 11.417969-11.160156 18.199219-10.296875-31.242188-23.570313-70.167969-34.683594-98.34375-6.800781-17.246094-20.242187-20.121094-30.554687-17.058594-11.585938 3.445312-23.402344 15.039062-31.609375 31.023438-4.101563 7.984374-6.921875 16.417968-8.414063 24.777343-16.273437-17.148437-32.378906-35.785156-48.410156-55.996093-.785156-.992188-1.753906-1.824219-2.851562-2.457032-3.523438-2.023437-10.902344-4.117187-20.726563 4.601563-11.875 10.535156-28.699219 39.425781-22.636719 67.09375-6.257812 5.429687-12.347656 14.726562-16.035156 25.199219-5.203125 14.773437-9.839844 43.851562 15.558594 75.742187-1.710938 21.855469 3.480468 40.402344 15.46875 55.175781 8.886718 10.957032 21.359375 19.453125 36.863281 25.238282-31.191406 4.746093-73.78125 4.191406-100.226563.054687-8.539062-1.332031-15.953124 3.8125-18.886718 13.125-2.90625 9.230469-1.585938 22.617187 3.445312 34.9375 5.308594 13.003906 14.089844 23.503906 24.980469 29.988281 7.75 20.492188 25.632813 34.261719 50.671875 39.46875l-15.6875 16.800782c-7.132812-4.5625-16.402344-5.457032-24.578125-1.539063 0 0-.003906 0-.003906.003906l-32.957031 15.8125c-12.542969 6.007813-17.871094 21.101563-11.867188 33.664063l29.074219 60.515625c4.335937 9.042969 13.390625 14.332031 22.808593 14.332031 3.652344 0 7.355469-.796875 10.859376-2.476562l33-15.820313c8.25-3.964844 13.367187-11.863281 14.191406-20.378906l38.832031-12.628907c5.25-1.707031 8.125-7.347656 6.414063-12.59375-1.707032-5.25-7.34375-8.121093-12.59375-6.414062l-37.898438 12.324219-23.238281-48.410157 37.058593-39.6875c14.121094-13.621093 16.621094-13.9375 55.703126-18.925781l7.773437-.992187c.125-.015625.25-.035156.375-.058594 4.722656-.789062 6.539063.625 7.375 2.515625.011719.027344.023437.054687.035156.082031.1875.433594.320313.894532.429688 1.355469 1.421875 6.144531-2.695313 17.050781-15.976563 21.21875-5.910156 1.128906-12.621094 2.457031-20.3125 4.054687-5.402344 1.121094-8.875 6.410157-7.753906 11.816407s6.417969 8.871093 11.820312 7.753906c7.664063-1.589844 14.339844-2.910156 20.210938-4.027344.171875-.027343.347656-.0625.519531-.097656 11-2.085937 19.160157-3.453125 25.746094-4.554687 9.839844-1.648438 16.339844-2.738282 23.535156-4.746094 1.070313-.296875 2.085938-.773438 3.003907-1.410156l62.460937-43.253907c.152344-.105469.304687-.214843.453125-.332031 8.519531-6.636719 16-8.789062 19.050781-5.480469 2.226563 2.414063 2.652344 7.582031-.128906 10.617188l-58.777344 63.933593-32.238281 10.917969c-5.226562 1.769531-8.03125 7.441407-6.261719 12.671875 1.410157 4.167969 5.296875 6.792969 9.464844 6.792969 1.066406 0 2.144531-.171875 3.207031-.53125l34.664063-11.734375c1.589843-.539062 3.019531-1.46875 4.15625-2.703125l60.511719-65.828125c9.585937-10.453125 9.628906-27.363281.097656-37.691406-8.425782-9.132813-24.867188-13.09375-45.800782 3.089844l-60.824218 42.117187c-3.972656 1.039063-7.921875 1.808594-12.992188 2.691406 2.109375-5.492187 2.828125-11.214843 2.179688-16.589843 20.089844-13.871094 28.382812-24.082032 35.15625-32.421876.851562-1.054687 1.675781-2.066406 2.488281-3.046874 103.476563-41.652344 122.652344-75.113282 145.15625-133.289063l43.71875-9.878906c3.925781-.886719 6.933594-4.035157 7.640625-7.996094.703125-3.957031-1.03125-7.953125-4.40625-10.140625zm-226.371094-128.210938c1.675782-.5 3.757813-1.117187 6.261719 5.230469 12.574219 31.875 28.015625 77.90625 38.609375 110.433594-24.386719-17.082031-48.125-36.875-71.460938-59.621094-3.347656-25.183593 15.183594-52.65625 26.589844-56.042969zm-126.507812 452.082032-32.988282 15.8125c-2.605468 1.253906-5.75.140625-7.007812-2.484375l-29.066406-60.496094c-1.226563-2.566406-.09375-5.769531 2.480468-7.003906l32.957032-15.8125c2.578125-1.238281 5.800781-.105469 7.035156 2.453125 0 0 24.460938 50.351562 28.855469 61.214844.878906 2.175781.222656 4.78125-1.761719 6.035156-.160156.101562-.328125.195312-.503906.28125zm113.554687-144.792969c-5.550781-4.257813-13.035156-6.050781-21.382812-4.699219l-7.578125.96875c-39.886719 5.089844-48.1875 6.144532-67.246094 24.550782-.125.121093-.246094.242187-.363281.367187l-2.277344 2.4375c-13.660156-.902344-32.566406-4.890625-43.320313-18.972656 34.628907-2.589844 77.695313-15.007813 106.570313-31.386719 4.800781-2.722656 6.484375-8.824219 3.761719-13.625s-8.824219-6.484375-13.625-3.761719c-29.601563 16.789063-77.355469 29.457031-109.996094 29.28125-12.511719-7.085937-17.480469-20.371093-19.0625-25.945312-2.011719-7.089844-1.855469-12.328125-1.335938-15.023438 38.390626 5.386719 116.074219 5.394531 144.582032-13.722656 3.515625-2.355469 5.164062-6.675781 4.117187-10.773437-1.046875-4.101563-4.566406-7.101563-8.78125-7.480469-28.082031-2.554688-49.15625-11.582031-60.9375-26.101563-6.097656-7.519531-9.726562-16.613281-10.886719-27.144531 30.933594 17.378906 65.292969 19.589844 66.992188 19.691406.199219.011719.394531.015625.589844.015625 5.253906 0 9.660156-4.101562 9.96875-9.414062.320312-5.511719-3.886719-10.238282-9.398438-10.558594-.421875-.027344-42.175781-2.707031-70.867187-25.507812-13.515625-16.03125-19.171875-33.339844-16.339844-50.105469 1.574219-9.3125 5.300781-16.414063 8.5-20.878907 20.535156 30.621094 56.871094 53.847657 77.1875 60.597657 1.046875.347656 2.109375.511719 3.152344.511719 4.1875 0 8.089843-2.652344 9.484375-6.847657 1.738281-5.238281-1.097656-10.894531-6.335938-12.636719-19.488281-6.472656-55.972656-31.570312-71.351562-60.15625-5.097656-12.398437-1.003906-26.289062 1.917968-33.503906 3.71875-9.179687 8.5625-15.597656 11.839844-18.871094 20.355469 25.289063 40.878906 48.132813 61.730469 68.71875.460937.5625.976563 1.074219 1.542969 1.519532 31.984375 31.375 64.757812 57.417968 98.925781 78.691406 1.765625 1.429688 3.984375 2.246094 6.300781 2.246094 1.003906 0 2.023438-.152344 3.03125-.472656 1.6875-.535157 3.128906-1.480469 4.257813-2.6875.085937-.089844.160156-.183594.238281-.273438.15625-.179688.308594-.363281.453125-.550781.140625-.1875.277344-.375.40625-.570313.015625-.027344.03125-.054687.050781-.082031 1.148438-1.777344 1.742188-3.890625 1.597656-6.078125-2.933593-44.359375 21.460938-61.855469 45.273438-63.4375 20.160156-1.335938 42.582031 8.875 47.027344 27.820312-5.199219 5.316407-8.566406 12.855469-9.484375 21.582032-.59375 5.625-.125 11.125 1.242187 16.050781-46.644531 16.058594-107.078125 79.792969-137.246094 134.386719-1.257812 1.476562-2.46875 2.953125-3.726562 4.503906-6.035156 7.441406-12.785156 15.753906-29.199219 27.328125zm66.324219-47.691406c29.265625-42.3125 70.382812-81.152344 101.546875-96-16.910156 40.203125-36.257813 66.121093-101.546875 96zm123.296875-123.246094c-.75-2.382813-1.191406-5.578125-.808594-9.238281.265625-2.519532.894531-4.785156 1.800781-6.640625l17.917969 11.609375zm0 0"/><path d="m340.855469 141.199219h.199219c5.519531 0 9.996093-4.476563 9.996093-9.996094s-4.476562-9.996094-9.996093-9.996094h-.199219c-5.519531 0-9.996094 4.476563-9.996094 9.996094.003906 5.519531 4.476563 9.996094 9.996094 9.996094zm0 0"/><path d="m184.042969 429.234375-.171875.085937c-4.941406 2.464844-6.949219 8.464844-4.484375 13.40625 1.75 3.507813 5.28125 5.539063 8.953125 5.539063 1.496094 0 3.019531-.339844 4.453125-1.054687l.167969-.085938c4.941406-2.460938 6.949218-8.464844 4.484374-13.402344-2.460937-4.941406-8.460937-6.949218-13.402343-4.488281zm0 0"/></svg>