<svg height="511pt" viewBox="-19 0 511 511.99998" width="511pt" xmlns="http://www.w3.org/2000/svg"><g fill-rule="evenodd"><path d="m109.0625 288.332031v-153.863281h-65.984375v153.863281zm0 0" fill="#e8e7e9"/><path d="m198.152344 134.46875v153.863281h70.410156v-153.863281zm0 0" fill="#e8e7e9"/><path d="m355.425781 134.46875v153.863281h70.441407v-153.863281zm0 0" fill="#e8e7e9"/><path d="m76.070312 100.90625c14.136719.199219 27.363282-9.515625 27.390626-28.175781.058593-29.753907-28.335938-34.253907-17.679688-62.628907-22.453125 12.839844-54.898438 55.691407-33.390625 79.769532 6.539063 7.308594 15.253906 10.917968 23.679687 11.035156zm0 0" fill="#ffc15a"/><path d="m244.570312 10.160156c-22.480468 12.839844-54.902343 55.691406-33.390624 79.769532 6.109374 6.878906 14.222656 10.488281 22.164062 10.976562 14.710938.917969 28.851562-8.828125 28.878906-28.117188.054688-29.753906-28.335937-34.253906-17.652344-62.628906zm0 0" fill="#ffc15a"/><path d="m400.816406 10.101562c-22.453125 12.871094-54.902344 55.691407-33.390625 79.796876 6.394531 7.164062 14.9375 10.777343 23.222657 11.007812 14.308593.398438 27.792968-9.316406 27.820312-28.175781.054688-29.722657-28.308594-34.253907-17.652344-62.628907zm0 0" fill="#ffc15a"/><path d="m109.0625 288.332031h-70.414062c-11.367188 0-20.652344 9.316407-20.652344 20.722657 0 11.378906 9.285156 20.695312 20.652344 20.695312h70.414062c11.339844 0 20.621094-9.316406 20.621094-20.695312 0-11.40625-9.28125-20.722657-20.621094-20.722657zm0 0" fill="#ffd89e"/><path d="m198.152344 288.332031c-11.367188 0-20.652344 9.316407-20.652344 20.722657 0 11.378906 9.285156 20.695312 20.652344 20.695312h70.410156c11.339844 0 20.625-9.316406 20.625-20.695312 0-11.40625-9.285156-20.722657-20.625-20.722657zm0 0" fill="#ffd89e"/><path d="m355.425781 288.332031c-11.339843 0-20.621093 9.316407-20.621093 20.722657 0 11.378906 9.28125 20.695312 20.621093 20.695312h70.441407c11.339843 0 20.621093-9.316406 20.621093-20.695312 0-11.40625-9.28125-20.722657-20.621093-20.722657zm0 0" fill="#ffd89e"/><path d="m390.644531 372.542969h-359.421875c-11.339844 0-20.621094 9.316406-20.621094 20.722656 0 11.378906 9.28125 20.695313 20.621094 20.695313h411.523438c11.371094 0 20.652344-9.316407 20.652344-20.695313 0-11.40625-9.28125-20.722656-20.652344-20.722656zm0 0" fill="#f6838d"/><path d="m307.183594 413.960938h-138.652344l32.105469 46.519531h74.4375zm0 0" fill="#ffc15a"/><path d="m275.074219 460.480469h-121.96875c-11.339844 0-20.621094 9.316406-20.621094 20.695312 0 11.40625 9.28125 20.722657 20.621094 20.722657h169.5c11.371093 0 20.652343-9.316407 20.652343-20.722657 0-11.378906-9.28125-20.695312-20.652343-20.695312zm0 0" fill="#f6838d"/></g><path d="m237.199219 403.859375h-.199219c-5.578125 0-10.101562 4.523437-10.101562 10.101563 0 5.578124 4.523437 10.101562 10.101562 10.101562h.199219c5.578125 0 10.101562-4.523438 10.101562-10.101562 0-5.578126-4.523437-10.101563-10.101562-10.101563zm0 0"/><path d="m268.5625 201.097656c-5.578125 0-10.101562 4.523438-10.101562 10.101563v.199219c0 5.582031 4.523437 10.101562 10.101562 10.101562s10.101562-4.523438 10.101562-10.101562v-.199219c0-5.578125-4.523437-10.101563-10.101562-10.101563zm0 0"/><path d="m442.746094 362.441406h-42v-22.589844h25.121094c16.941406 0 30.722656-13.816406 30.722656-30.796874 0-13.445313-8.628906-24.902344-20.621094-29.105469v-145.480469c0-5.578125-4.523438-10.101562-10.101562-10.101562h-25.121094v-14.457032c1.539062-.375 3.0625-.835937 4.558594-1.40625 14.550781-5.546875 23.246093-18.914062 23.261718-35.753906.03125-16.644531-7.167968-26.945312-12.953125-35.226562-6.195312-8.863282-9.308593-13.316407-5.34375-23.871094 1.496094-3.988282.332031-8.488282-2.910156-11.246094-3.25-2.761719-7.875-3.1875-11.570313-1.066406-18.488281 10.597656-40.902343 37.171875-44.871093 61.625-2.121094 13.066406.980469 24.707031 8.96875 33.65625 0 .003906 0 .003906.003906.003906 5.667969 6.351562 12.917969 10.738281 20.65625 12.882812v14.859376h-25.121094c-5.578125 0-10.101562 4.523437-10.101562 10.101562v145.480469c-11.992188 4.203125-20.625 15.660156-20.625 29.105469 0 16.980468 13.785156 30.796874 30.726562 30.796874h25.121094v22.589844h-137.101563v-22.589844h25.117188c16.941406 0 30.726562-13.816406 30.726562-30.796874 0-13.445313-8.632812-24.902344-20.625-29.105469v-28.164063c0-5.578125-4.523437-10.097656-10.101562-10.097656s-10.101562 4.519531-10.101562 10.097656v26.445313h-50.207032v-133.660157h50.207032v26.445313c0 5.578125 4.523437 10.097656 10.101562 10.097656s10.101562-4.519531 10.101562-10.097656v-36.546875c0-5.578125-4.523437-10.101562-10.101562-10.101562h-25.117188v-14.167969c1.886719-.398438 3.75-.9375 5.578126-1.632813 14.554687-5.53125 23.265624-18.898437 23.300781-35.757812.03125-16.660156-7.179688-26.964844-12.972657-35.242188-6.191406-8.855468-9.300781-13.300781-5.328124-23.847656 1.5-3.984375.339843-8.484375-2.902344-11.246094-3.238282-2.761718-7.863282-3.195312-11.5625-1.082031-18.484375 10.554687-40.902344 37.101563-44.886719 61.578125-2.128906 13.085938.972656 24.734375 8.972656 33.6875 5.414063 6.066406 12.261719 10.332031 19.597657 12.578125v15.132813h-25.089844c-5.578125 0-10.097656 4.523437-10.097656 10.101562v145.480469c-12.007813 4.199219-20.652344 15.65625-20.652344 29.109375 0 16.976562 13.796875 30.792968 30.75 30.792968h25.089844v22.59375h-139.300782v-22.59375h25.121094c16.941406 0 30.722656-13.816406 30.722656-30.792968 0-13.449219-8.628906-24.90625-20.625-29.109375v-145.480469c0-5.578125-4.519531-10.101562-10.097656-10.101562h-22.890625v-14.574219c1.382813-.351563 2.757813-.777344 4.105469-1.289063 14.546875-5.535156 23.253906-18.902344 23.285156-35.753906.03125-16.664062-7.179688-26.96875-12.976562-35.253906-6.199219-8.851563-9.308594-13.296875-5.347657-23.84375 1.496094-3.988282.332031-8.480469-2.910156-11.242188-3.242187-2.761718-7.863281-3.191406-11.5625-1.078125-18.488281 10.574219-40.90625 37.136719-44.878906 61.609375-2.125 13.070313.976562 24.710938 8.972656 33.660156l-.003906-.003906c5.785156 6.476563 13.207031 10.910156 21.113281 13.011719v14.757813h-22.890625c-5.578125 0-10.101563 4.523437-10.101563 10.101562v144.296875c-14.253906 2.675781-25.078124 15.238281-25.078124 30.289063 0 16.980468 13.796874 30.796874 30.75 30.796874h25.089843v22.589844h-32.515625c-16.941406 0-30.722656 13.828125-30.722656 30.824219 0 16.980469 13.78125 30.796875 30.722656 30.796875h132.007813l18.164062 26.316406h-28.285156c-16.941406 0-30.726563 13.816406-30.726563 30.796875 0 16.996094 13.78125 30.824219 30.726563 30.824219h169.496094c16.957031 0 30.753906-13.828125 30.753906-30.824219 0-16.980469-13.796875-30.796875-30.753906-30.796875h-28.285157l18.164063-26.316406h130.261719c16.957031 0 30.753906-13.816406 30.753906-30.796875 0-16.996094-13.796875-30.824219-30.753906-30.824219zm-67.785156-279.265625c-3.902344-4.375-5.246094-9.929687-4.101563-16.976562 1.835937-11.3125 9.773437-24.136719 18.976563-34.058594 2.054687 6.703125 5.839843 12.121094 9.21875 16.957031 5.007812 7.164063 9.332031 13.351563 9.3125 23.621094-.007813 8.386719-3.648438 14.390625-10.253907 16.90625-6.460937 2.457031-16.125 1.417969-23.152343-6.449219zm40.804687 61.394531v133.660157h-50.238281v-133.660157zm-70.863281 164.484376c0-5.859376 4.722656-10.621094 10.523437-10.621094h70.441407c5.800781 0 10.519531 4.761718 10.519531 10.621094 0 5.839843-4.71875 10.59375-10.519531 10.59375h-70.441407c-5.800781 0-10.523437-4.75-10.523437-10.59375zm-126.1875-225.851563s-.003906-.003906-.003906-.003906c-3.90625-4.375-5.246094-9.929688-4.101563-16.984375 1.84375-11.316406 9.773437-24.128906 18.96875-34.03125 2.050781 6.707031 5.839844 12.125 9.222656 16.960937 5.011719 7.164063 9.339844 13.351563 9.320313 23.625-.015625 8.394531-3.664063 14.402344-10.273438 16.914063-6.449218 2.453125-16.105468 1.398437-23.132812-6.480469zm-31.113282 225.851563c0-5.859376 4.734376-10.621094 10.550782-10.621094h70.410156c5.800781 0 10.523438 4.761718 10.523438 10.621094 0 5.839843-4.722657 10.59375-10.523438 10.59375h-70.410156c-5.816406 0-10.550782-4.75-10.550782-10.59375zm-127.679687-225.914063c-3.902344-4.367187-5.242187-9.914063-4.097656-16.960937 1.839843-11.320313 9.777343-24.144532 18.980469-34.058594 2.054687 6.707031 5.847656 12.125 9.230468 16.960937 5.015625 7.164063 9.347656 13.351563 9.328125 23.628907-.015625 8.390624-3.664062 14.398437-10.269531 16.910156-6.457031 2.457031-16.128906 1.40625-23.171875-6.480469zm39.039063 61.429687v133.660157h-45.78125v-133.660157zm-70.863282 164.484376c0-5.859376 4.734375-10.621094 10.550782-10.621094h70.414062c5.800781 0 10.523438 4.761718 10.523438 10.621094 0 5.839843-4.722657 10.59375-10.523438 10.59375h-70.410156c-5.820313 0-10.554688-4.75-10.554688-10.59375zm305.058594 172.121093c0 5.855469-4.730469 10.621094-10.550781 10.621094h-169.5c-5.800781 0-10.519531-4.765625-10.519531-10.621094 0-5.839843 4.71875-10.59375 10.519531-10.59375h169.5c5.820312 0 10.550781 4.75 10.550781 10.59375zm109.589844-77.316406h-165.5c-5.578125 0-10.101563 4.523437-10.101563 10.101563 0 5.578124 4.523438 10.101562 10.101563 10.101562h10.691406l-18.164062 26.316406h-63.835938l-18.164062-26.316406h8.980468c5.578125 0 10.097656-4.523438 10.097656-10.101562 0-5.578126-4.519531-10.101563-10.097656-10.101563h-165.53125c-5.800781 0-10.523437-4.75-10.523437-10.59375 0-5.855469 4.722656-10.621094 10.523437-10.621094h411.523438c5.820312 0 10.550781 4.765625 10.550781 10.621094 0 5.84375-4.730469 10.59375-10.550781 10.59375zm0 0"/></svg>