<svg height="512pt" viewBox="0 -18 512 512" width="512pt" xmlns="http://www.w3.org/2000/svg"><g fill-rule="evenodd"><path d="m35.167969 430.675781c108.480469-16.199219 181.230469-115.269531 196.449219-211.320312-13.96875-8.625-23.269532-24.082031-23.269532-41.703125 0 27.042968-21.9375 48.964844-48.964844 48.964844-27.027343 0-48.933593-21.921876-48.933593-48.964844 0 27.042968-21.910157 48.964844-48.9375 48.964844-9.699219 0-18.746094-2.820313-26.34375-7.6875zm0 0" fill="#e8b3ce"/><path d="m282.914062 219.355469c15.25 96.050781 82.90625 195.121093 191.386719 211.320312v-208.929687c-6.429687 3.132812-13.65625 4.867187-21.28125 4.867187-27.027343 0-48.933593-21.917969-48.933593-48.964843 0 27.046874-21.910157 48.964843-48.9375 48.964843-27.027344 0-48.933594-21.917969-48.933594-48.964843 0 17.625-9.304688 33.082031-23.300782 41.707031zm0 0" fill="#e8b3ce"/><path d="m12.578125 177.648438h489.375v-43.699219h-489.375zm0 0" fill="#e8b3ce"/><path d="m110.449219 177.648438h-97.871094c0 17.339843 8.988281 32.570312 22.589844 41.28125.226562.140624.453125.285156.710937.425781 7.453125 4.613281 16.246094 7.257812 25.632813 7.257812 27.027343 0 48.9375-21.917969 48.9375-48.964843zm0 0" fill="#ffc15a"/><path d="m110.449219 177.648438c0 27.046874 21.90625 48.964843 48.933593 48.964843 27.027344 0 48.964844-21.917969 48.964844-48.964843zm0 0" fill="#cbe558"/><path d="m208.347656 177.648438c0 17.625 9.300782 33.082031 23.269532 41.707031 7.453124 4.613281 16.246093 7.257812 25.664062 7.257812 9.386719 0 18.179688-2.644531 25.632812-7.257812 13.996094-8.625 23.300782-24.082031 23.300782-41.707031zm0 0" fill="#ffc15a"/><path d="m306.214844 177.648438c0 27.046874 21.90625 48.964843 48.933594 48.964843 27.03125 0 48.9375-21.917969 48.9375-48.964843zm0 0" fill="#cbe558"/><path d="m404.085938 177.648438c0 27.046874 21.90625 48.964843 48.933593 48.964843 7.625 0 14.851563-1.734375 21.28125-4.867187 9.046875-4.355469 16.53125-11.414063 21.421875-20.125 3.984375-7.089844 6.230469-15.261719 6.230469-23.972656zm0 0" fill="#ffc15a"/><path d="m417.824219 256.449219-20.625 5.722656-19.800781-8.054687-5.378907 20.722656-16.871093 13.152344 15.25 15.003906 2.960937 21.207031 20.597656-5.722656 19.828125 8.058593 5.351563-20.726562 16.871093-13.152344-15.25-15zm0 0" fill="#d675a7"/><path d="m138.757812 305.8125 16.871094-13.152344-15.25-15-2.933594-21.210937-20.625 5.722656-19.800781-8.054687-5.378906 20.722656-16.871094 13.152344 15.25 15.003906 2.960938 21.207031 20.597656-5.722656 19.828125 8.058593zm0 0" fill="#d675a7"/><path d="m231.617188 219.355469c-15.21875 96.050781-87.96875 195.121093-196.449219 211.320312h439.132812c-108.484375-16.199219-176.136719-115.269531-191.386719-211.320312-7.453124 4.613281-16.246093 7.257812-25.632812 7.257812-9.417969 0-18.210938-2.644531-25.664062-7.257812zm0 0" fill="#d675a7"/><path d="m163.621094 133.949219 47.34375-61.972657 47.339844-61.949218-121.824219 61.949218-121.851563 61.972657zm0 0" fill="#ffc15a"/><path d="m210.964844 71.976562-47.34375 61.972657h189.367187l-47.34375-61.972657-47.339843-61.949218zm0 0" fill="#cbe558"/><path d="m305.644531 71.976562 47.34375 61.972657h142.734375v-3.1875l-115.59375-58.785157-121.824218-61.949218zm0 0" fill="#ffc15a"/><path d="m474.300781 430.675781h-454.980469c-5.09375 0-9.273437 4.183594-9.273437 9.28125v17.679688c0 5.125 4.179687 9.308593 9.273437 9.308593h470.828126c5.089843 0 9.273437-4.183593 9.273437-9.308593v-17.679688c0-5.097656-4.183594-9.28125-9.273437-9.28125zm0 0" fill="#ffc15a"/></g><path d="m512 177.648438v-43.699219c0-3.726563-2.164062-7.261719-5.492188-8.953125l-121.824218-61.976563-121.824219-61.945312c-2.808594-1.433594-6.300781-1.433594-9.109375 0l-121.824219 61.945312-119.746093 60.90625c-5.363282.210938-9.648438 4.613281-9.648438 10.027344v43.699219c0 19.121094 9.148438 36.140625 23.285156 46.933594l-.660156 196.042968h-5.835938c-10.652343 0-19.320312 8.671875-19.320312 19.328125v17.679688c0 10.671875 8.667969 19.351562 19.320312 19.351562h470.828126c10.652343 0 19.320312-8.679687 19.320312-19.351562v-17.679688c0-10.65625-8.667969-19.328125-19.320312-19.328125h-5.800782v-193.015625c16.59375-10.453125 27.652344-28.933593 27.652344-49.964843zm-254.71875 38.921874c-17.972656 0-33.132812-12.269531-37.570312-28.875h75.136718c-4.4375 16.605469-19.59375 28.875-37.566406 28.875zm-233.335938-28.875h75.132813c-4.4375 16.605469-19.59375 28.875-37.566406 28.875-17.972657 0-33.128907-12.269531-37.566407-28.875zm329.03125-43.699218c.007813 0 .011719.003906.019532.003906.007812 0 .015625-.003906.023437-.003906h138.886719v23.609375h-469.28125v-23.609375zm-156 43.699218c-4.441406 16.605469-19.609374 28.875-37.59375 28.875-17.972656 0-33.132812-12.269531-37.570312-28.875zm195.742188 0c-4.4375 16.605469-19.597656 28.875-37.570312 28.875-17.972657 0-33.128907-12.269531-37.566407-28.875zm97.867188 0c-4.4375 16.605469-19.59375 28.875-37.566407 28.875-17.972656 0-33.132812-12.269531-37.570312-28.875zm-115.011719-106.765624 84.476562 42.976562h-102.09375l-44.328125-58.03125-20.554687-26.894531zm-117.269531-54.355469 39.355468 51.5 35.011719 45.832031h-148.734375l35.007812-45.832031zm-117.273438 54.355469 82.503906-41.949219-20.554687 26.898437-44.328125 58.027344h-102.113282zm-79.519531 155.730468c20.355469 0 38.332031-10.367187 48.933593-26.101562 10.605469 15.734375 28.582032 26.101562 48.9375 26.101562 20.363282 0 38.351563-10.371094 48.960938-26.105468 3.394531 5.039062 7.554688 9.515624 12.296875 13.289062-15.589844 84.027344-79.402344 174.40625-175.386719 194.792969l.617188-184.097657c4.988281 1.375 10.226562 2.121094 15.640625 2.121094zm427.863281 220.238282h-469.28125v-16.175782h15.019531.042969.050781 179.453125c5.550782 0 10.046875-4.5 10.046875-10.046875 0-5.550781-4.496093-10.046875-10.046875-10.046875h-114.226562c27.933594-13.757812 53.449218-33.636718 75.519531-59.085937 31.300781-36.089844 53.464844-81.027344 63.214844-127.742188 5.710937 1.851563 11.792969 2.859375 18.113281 2.859375 6.300781 0 12.367188-1.003906 18.066406-2.84375 9.667969 47.144532 30.914063 92.03125 60.585938 127.582032 21.300781 25.523437 46.210937 45.453124 73.722656 59.230468h-114.851562c-5.546876 0-10.042969 4.496094-10.042969 10.046875 0 5.546875 4.496093 10.042969 10.042969 10.042969h179.457031c.015625 0 .035156.003906.050781.003906s.027344-.003906.042969-.003906h15.023437v16.179688zm-25.121094-38.246094c-97.253906-20.488282-154.957031-110.242188-170.371094-194.78125 4.757813-3.777344 8.929688-8.261719 12.332032-13.3125 10.605468 15.734375 28.582031 26.101562 48.933594 26.101562 20.355468 0 38.332031-10.367187 48.9375-26.101562 10.601562 15.734375 28.578124 26.101562 48.933593 26.101562 3.839844 0 7.59375-.378906 11.234375-1.085937zm0 0"/><path d="m80.542969 307.765625 2.484375 17.828125c.402344 2.867188 2.019531 5.421875 4.441406 7.011719 2.421875 1.585937 5.410156 2.050781 8.199219 1.277343l17.300781-4.804687 16.65625 6.769531c1.214844.492188 2.5.738282 3.78125.738282 1.554688 0 3.101562-.359376 4.519531-1.074219 2.585938-1.300781 4.484375-3.660157 5.210938-6.464844l4.492187-17.414063 14.175782-11.046874c2.28125-1.78125 3.6875-4.457032 3.851562-7.347657.167969-2.886719-.917969-5.710937-2.980469-7.738281l-12.8125-12.605469-2.460937-17.820312c-.398438-2.871094-2.015625-5.429688-4.4375-7.019531-2.417969-1.59375-5.410156-2.058594-8.203125-1.285157l-17.324219 4.804688-16.632812-6.765625c-2.683594-1.089844-5.703126-.96875-8.292969.328125-2.585938 1.300781-4.488281 3.652343-5.214844 6.457031l-4.523437 17.421875-14.179688 11.054687c-2.28125 1.78125-3.6875 4.457032-3.851562 7.34375-.167969 2.890626.921874 5.710938 2.984374 7.742188zm17.277343-25c1.742188-1.363281 2.992188-3.261719 3.546876-5.402344l2.496093-9.617187 9.171875 3.734375c2.058594.835937 4.332032.96875 6.472656.375l9.558594-2.652344 1.359375 9.832031c.304688 2.195313 1.324219 4.230469 2.90625 5.785156l7.078125 6.964844-7.832031 6.105469c-1.746094 1.363281-2.996094 3.265625-3.550781 5.414063l-2.476563 9.605468-9.191406-3.734375c-1.207031-.492187-2.492187-.738281-3.78125-.738281-.902344 0-1.808594.121094-2.6875.367188l-9.546875 2.648437-1.371094-9.84375c-.308594-2.191406-1.328125-4.222656-2.90625-5.773437l-7.082031-6.964844zm0 0"/><path d="m430.238281 272.894531-2.460937-17.820312c-.394532-2.871094-2.011719-5.429688-4.433594-7.019531-2.421875-1.59375-5.414062-2.058594-8.203125-1.285157l-17.328125 4.808594-16.628906-6.769531c-2.679688-1.085938-5.703125-.96875-8.292969.328125-2.585937 1.300781-4.488281 3.652343-5.21875 6.457031l-4.519531 17.421875-14.179688 11.054687c-2.285156 1.78125-3.6875 4.457032-3.855468 7.34375-.164063 2.890626.921874 5.710938 2.984374 7.742188l12.820313 12.609375 2.484375 17.828125c.402344 2.867188 2.019531 5.421875 4.441406 7.011719 2.421875 1.589843 5.410156 2.054687 8.199219 1.28125l17.296875-4.808594 16.660156 6.769531c1.214844.492188 2.5.738282 3.78125.738282 1.550782 0 3.097656-.359376 4.515625-1.074219 2.585938-1.300781 4.484375-3.65625 5.210938-6.460938l4.496093-17.414062 14.171876-11.050781c2.285156-1.78125 3.6875-4.457032 3.851562-7.347657.167969-2.886719-.917969-5.707031-2.980469-7.738281zm-17.28125 24.996094c-1.746093 1.363281-2.996093 3.265625-3.550781 5.414063l-2.476562 9.605468-9.191407-3.734375c-1.210937-.492187-2.496093-.738281-3.78125-.738281-.902343 0-1.808593.121094-2.691406.367188l-9.542969 2.648437-1.375-9.84375c-.304687-2.191406-1.324218-4.222656-2.902344-5.773437l-7.082031-6.964844 7.832031-6.105469c1.746094-1.359375 2.992188-3.257813 3.546876-5.402344l2.496093-9.617187 9.171875 3.734375c2.058594.835937 4.332032.96875 6.472656.375l9.5625-2.652344 1.359376 9.832031c.300781 2.199219 1.324218 4.234375 2.90625 5.789063l7.078124 6.964843zm0 0"/><path d="m254.917969 420.628906h-.199219c-5.546875 0-10.042969 4.496094-10.042969 10.046875 0 5.546875 4.496094 10.046875 10.042969 10.046875h.199219c5.550781 0 10.046875-4.5 10.046875-10.046875s-4.496094-10.046875-10.046875-10.046875zm0 0"/></svg>