<svg height="512pt" viewBox="0 -24 512 512" width="512pt" xmlns="http://www.w3.org/2000/svg"><g fill-rule="evenodd"><path d="m441.742188 142.210938v281.648437c0 16.59375 13.558593 30.15625 30.140624 30.15625 14.121094 0 26.0625-9.878906 29.289063-23.046875.539063-2.292969.851563-4.671875.851563-7.109375v-383.726563c0-2.460937-.3125-4.839843-.851563-7.105468-3.226563-13.195313-15.167969-23.050782-29.289063-23.050782-16.582031 0-30.140624 13.5625-30.140624 30.15625zm0 0" fill="#e8e7e9"/><path d="m178.503906 308.136719v72.035156h227.046875l36.191407-28.203125v-15.65625l-36.191407-28.175781zm0 0" fill="#f9f9f9"/><path d="m47.222656 318.019531v57.140625h98.140625v-62.011718h-98.140625zm0 0" fill="#d675a7"/><path d="m145.363281 313.148438v94.574218c0 9.117188 7.472657 16.59375 16.582031 16.59375 9.113282 0 16.554688-7.476562 16.554688-16.59375v-127.164062c0-9.117188-7.441406-16.5625-16.554688-16.5625-9.109374 0-16.582031 7.445312-16.582031 16.5625zm0 0" fill="#cbe558"/><path d="m96.121094 375.160156 35.433594-62.011718h-38.941407l-35.429687 62.011718zm0 0" fill="#e8b3ce"/><path d="m47.222656 370.289062v-63.851562c0-3.878906-3.171875-7.050781-7.078125-7.050781h-23.121093c-3.875 0-7.046876 3.171875-7.046876 7.050781v75.402344c0 3.878906 3.171876 7.082031 7.046876 7.082031h23.121093c3.90625 0 7.078125-3.203125 7.078125-7.082031zm0 0" fill="#cbe558"/><path d="m178.503906 88.355469v72.0625h227.046875l36.191407-28.203125v-15.65625l-36.191407-28.203125zm0 0" fill="#f9f9f9"/><path d="m47.222656 98.265625v57.113281h98.140625v-61.984375h-98.140625zm0 0" fill="#d675a7"/><path d="m145.363281 93.394531v94.574219c0 9.117188 7.472657 16.59375 16.582031 16.59375 9.113282 0 16.554688-7.476562 16.554688-16.59375v-127.164062c0-9.117188-7.441406-16.566407-16.554688-16.566407-9.109374 0-16.582031 7.449219-16.582031 16.566407zm0 0" fill="#cbe558"/><path d="m96.121094 155.378906 35.433594-61.984375h-38.941407l-35.429687 61.984375zm0 0" fill="#e8b3ce"/><path d="m47.222656 150.535156v-63.851562c0-3.878906-3.171875-7.050782-7.078125-7.050782h-23.121093c-3.875 0-7.046876 3.171876-7.046876 7.050782v75.402344c0 3.878906 3.171876 7.050781 7.046876 7.050781h23.121093c3.90625 0 7.078125-3.171875 7.078125-7.050781zm0 0" fill="#cbe558"/></g><path d="m471.882812 0c-22.121093 0-40.117187 18.003906-40.117187 40.132812v56l-20.085937-15.648437c-1.75-1.367187-3.910157-2.109375-6.132813-2.109375h-217.066406v-17.570312c0-14.636719-11.902344-26.542969-26.535157-26.542969-14.644531 0-26.5625 11.90625-26.5625 26.542969v22.609374h-78.503906c-1.535156-7.828124-8.449218-13.757812-16.734375-13.757812h-23.121093c-9.386719 0-17.023438 7.640625-17.023438 17.027344v75.402344c0 9.390624 7.636719 17.03125 17.023438 17.03125h23.121093c8.285157 0 15.199219-5.929688 16.734375-13.761719h.261719.03125.03125 38.878906.03125.03125 39.242188v22.613281c0 14.648438 11.914062 26.570312 26.558593 26.570312 14.632813 0 26.535157-11.921874 26.535157-26.570312v-17.574219h70.617187c5.511719 0 9.980469-4.464843 9.980469-9.976562s-4.46875-9.980469-9.980469-9.980469h-70.617187v-52.105469h213.636719l29.648437 23.101563v5.90625l-29.648437 23.101562h-60.722657c-5.511719 0-9.980469 4.464844-9.980469 9.976563s4.46875 9.976562 9.980469 9.976562h64.152344c2.222656 0 4.382813-.738281 6.132813-2.105469l20.085937-15.648437v163.257813l-20.089844-15.636719c-1.75-1.363281-3.910156-2.105469-6.128906-2.105469h-217.066406v-17.597656c0-14.636719-11.902344-26.542969-26.535157-26.542969-14.644531 0-26.5625 11.90625-26.5625 26.542969v22.613281h-78.503906c-1.53125-7.832031-8.449218-13.765625-16.734375-13.765625h-23.121093c-9.386719.003906-17.023438 7.644531-17.023438 17.03125v75.40625c0 9.402344 7.636719 17.054688 17.023438 17.054688h23.121093c8.277344 0 15.1875-5.929688 16.726563-13.761719h.269531c.011719 0 .023437.003906.03125.003906.011719 0 .019531-.003906.03125-.003906h38.878906c.011719 0 .019531.003906.03125.003906.007813 0 .019531-.003906.03125-.003906h39.242188v22.585937c0 14.648438 11.914062 26.570313 26.558593 26.570313 14.632813 0 26.535157-11.921875 26.535157-26.570313v-17.574218h70.617187c5.511719 0 9.980469-4.464844 9.980469-9.976563s-4.46875-9.980469-9.980469-9.980469h-70.617187v-52.074218h213.640625l29.644531 23.070312v5.90625l-29.644531 23.097656h-60.726563c-5.511719 0-9.980469 4.46875-9.980469 9.980469s4.46875 9.976563 9.980469 9.976563h64.152344c2.222656 0 4.382813-.742188 6.132813-2.105469l20.085937-15.648438v51.464844c0 22.132813 17.996094 40.136719 40.117187 40.136719 22.121094 0 40.117188-18.007813 40.117188-40.136719v-383.726563c0-22.128906-17.996094-40.132812-40.117188-40.132812zm-397.503906 145.398438 24.023438-42.023438h15.953125l-24.023438 42.023438zm-17.179687-10.160157v-31.867187h18.214843zm-19.957031 23.921875h-17.285157v-69.546875h17.285157zm76.078124-13.761718 22.066407-38.601563v38.601563zm55.203126 42.570312c0 3.585938-3.011719 6.613281-6.578126 6.613281-3.578124 0-6.601562-3.027343-6.601562-6.613281v-127.164062c0-3.570313 3.023438-6.585938 6.601562-6.585938 3.628907 0 6.578126 2.953125 6.578126 6.585938zm-94.148438 177.214844 24.027344-42.054688h15.957031l-24.027344 42.054688zm-17.175781-10.167969v-31.886719h18.21875zm-19.957031 23.925781h-17.285157v-69.574218h17.285157zm76.074218-13.757812 22.070313-38.625v38.625zm55.207032 42.539062c0 3.585938-3.011719 6.613282-6.578126 6.613282-3.578124 0-6.601562-3.027344-6.601562-6.613282v-127.164062c0-3.570313 3.023438-6.585938 6.601562-6.585938 3.628907 0 6.578126 2.953125 6.578126 6.585938zm323.519531 16.140625c0 11.125-9.042969 20.175781-20.160157 20.175781-11.117187 0-20.160156-9.050781-20.160156-20.175781v-383.730469c0-11.125 9.042969-20.175781 20.160156-20.175781 11.117188 0 20.160157 9.050781 20.160157 20.175781zm0 0"/><path d="m299.140625 370.191406h-.195313c-5.511718 0-9.980468 4.46875-9.980468 9.980469s4.46875 9.976563 9.980468 9.976563h.195313c5.511719 0 9.980469-4.464844 9.980469-9.976563s-4.46875-9.980469-9.980469-9.980469zm0 0"/><path d="m299.140625 170.394531c5.511719 0 9.980469-4.464843 9.980469-9.976562s-4.46875-9.976563-9.980469-9.976563h-.195313c-5.511718 0-9.980468 4.464844-9.980468 9.976563s4.46875 9.976562 9.980468 9.976562zm0 0"/></svg>