<svg height="512pt" viewBox="-22 0 512 512.00047" width="512pt" xmlns="http://www.w3.org/2000/svg"><g fill-rule="evenodd"><path d="m412.242188 341.59375h-377.242188c-13.765625 0-25.011719 11.253906-25.011719 25.03125v14.230469c0 13.777343 11.246094 25.03125 25.011719 25.03125h398.007812c13.765626 0 25.011719-11.253907 25.011719-25.03125v-14.230469c0-13.777344-11.246093-25.03125-25.011719-25.03125zm0 0" fill="#e8e7e9"/><path d="m363.011719 405.886719h-258.015625v48.074219h258.015625zm0 0" fill="#ffcb7c"/><path d="m168.273438 453.960938h131.460937v48.050781h-131.460937zm0 0" fill="#ffc15a"/><path d="m55.765625 341.59375h356.476563v-157.386719c-33.253907 4.878907-71.71875-35.632812-122.140626-13.546875-75.257812 32.964844-87.722656-2.070312-138.625-3.121094-32.714843-.679687-29.769531 9.128907-60.53125 15.109376-12.207031 2.355468-24.53125 3.886718-35.179687 2.550781zm0 0" fill="#ffc15a"/><path d="m151.476562 167.539062c50.902344 1.050782 63.363282 36.085938 138.625 3.117188 50.421876-22.082031 88.886719 18.425781 122.140626 13.550781 6.429687-.933593 12.691406-3.570312 18.78125-8.671875 15.605468-13.097656 11.695312-18.257812 11.695312-36.003906v-84.332031c.878906-44.933594-21.582031-46.234375-44.953125-44.933594h-327.78125c-23.339844-1.300781-45.804687 0-44.925781 44.933594v84.332031c-1.925782 31.863281 11.726562 43.289062 30.703125 45.667969 10.652343 1.332031 22.972656-.195313 35.183593-2.550781 30.761719-5.980469 27.816407-15.789063 60.53125-15.109376zm0 0" fill="#cbe558"/><path d="m151.050781 294.027344c7.988281-19.078125 20.875-32.941406 40.082031-40.113282-21.046874-10.742187-35.4375-23.753906-40.082031-40.113281-4.984375 18.34375-18.609375 31.550781-40.082031 40.113281 19.886719 5.019532 32.800781 18.964844 40.082031 40.113282zm0 0" fill="#e8b3ce"/><path d="m283.8125 231.972656c15.210938 3.828125 25.070312 14.515625 30.648438 30.671875 6.121093-14.597656 15.976562-25.199219 30.648437-30.671875-16.089844-8.21875-27.105469-18.171875-30.648437-30.699218-3.824219 14.03125-14.246094 24.152343-30.648438 30.699218zm0 0" fill="#e8b3ce"/></g><path d="m433.003906 331.605469h-10.773437v-139.558594c5.121093-1.808594 10.199219-4.664063 15.210937-8.863281 15.722656-13.1875 16.136719-22.066406 15.507813-35.457032-.117188-2.53125-.238281-5.15625-.238281-8.195312v-84.238281c.394531-20.945313-3.980469-35.527344-13.371094-44.582031-11.46875-11.0625-27.589844-11.21875-41.847656-10.429688h-327.234376c-14.246093-.785156-30.347656-.636719-41.820312 10.425781-9.390625 9.054688-13.761719 23.640625-13.367188 44.589844v83.941406c-1.195312 20.722657 3.695313 36.046875 14.539063 45.546875 4.730469 4.144532 10.234375 6.875 16.164063 8.566406v138.253907h-10.773438c-19.296875 0-35 15.710937-35 35.019531v14.230469c0 19.308593 15.703125 35.019531 35 35.019531h60.003906v38.085938c0 5.519531 4.472656 9.992187 9.992188 9.992187h53.289062v38.058594c0 5.515625 4.472656 9.988281 9.988282 9.988281h131.460937c5.515625 0 9.988281-4.472656 9.988281-9.988281v-38.058594h53.289063c5.515625 0 9.992187-4.472656 9.992187-9.992187v-38.085938h60.003906c19.296876 0 35-15.710938 35-35.019531v-14.230469c0-19.308594-15.703124-35.019531-35.003906-35.019531zm-397.976562-191.472657c.015625-.199218.019531-.398437.019531-.601562v-84.332031c0-.066407 0-.128907 0-.195313-.292969-14.921875 2.148437-24.988281 7.257813-29.917968 4.046874-3.898438 10.421874-5.097657 19.132812-5.097657 2.476562 0 5.136719.09375 7.988281.253907.183594.011718.371094.015624.558594.015624h327.785156c.183594 0 .371094-.003906.554688-.015624 12.914062-.71875 21.957031-.160157 27.148437 4.847656 5.109375 4.925781 7.554688 14.992187 7.261719 29.914062 0 .066406-.003906.128906-.003906.195313v84.332031c0 3.507812.140625 6.496094.265625 9.128906.472656 10.15625.546875 11.71875-8.386719 19.214844-13.425781 11.242188-27.425781 6.882812-51.019531-1.792969-11.734375-4.3125-24.890625-9.144531-39.335938-11.113281v-69.296875c0-5.515625-4.472656-9.988281-9.992187-9.988281-5.515625 0-9.988281 4.472656-9.988281 9.988281v68.667969c-8.988282.714844-18.390626 2.882812-28.179688 7.167968-45.75 20.039063-65.46875 13.351563-88.300781 5.605469-10.402344-3.53125-21.949219-7.441406-36.328125-8.945312v-69.039063c0-5.515625-4.472656-9.988281-9.988282-9.988281-5.515624 0-9.988281 4.472656-9.988281 9.988281v68.570313c-14.167969.785156-21.273437 4.019531-28.71875 7.402343-5.917969 2.6875-12.039062 5.46875-23.730469 7.742188-15.019531 2.921875-36.148437 5.777344-46.265624-3.085938-6.007813-5.265624-8.613282-15.230468-7.746094-29.625zm30.726562 55.53125c9.230469-.132812 18.601563-1.558593 27.097656-3.210937 14-2.722656 21.863282-6.292969 28.179688-9.164063 8.101562-3.679687 13.449219-6.113281 30.238281-5.761718 16.015625.328125 27.714844 4.300781 40.105469 8.503906 24.523438 8.320312 49.882812 16.925781 102.730469-6.222656 26.898437-11.773438 50.125-3.234375 72.589843 5.023437 11.742188 4.320313 23.683594 8.707031 35.558594 9.621094v137.152344h-336.5zm223.992188 296.359376h-111.484375v-28.070313h111.480469v28.070313zm158.28125-111.167969c0 8.292969-6.738282 15.039062-15.023438 15.039062h-159.074218c-5.515626 0-9.992188 4.472657-9.992188 9.992188 0 5.515625 4.472656 9.988281 9.992188 9.988281h79.09375v28.097656h-238.039063v-28.097656h79.121094c5.519531 0 9.992187-4.472656 9.992187-9.988281 0-5.519531-4.472656-9.992188-9.992187-9.992188h-159.105469c-8.28125 0-15.023438-6.746093-15.023438-15.039062v-14.230469c0-8.292969 6.742188-15.042969 15.023438-15.042969h398.007812c8.28125 0 15.019532 6.746094 15.019532 15.042969zm0 0"/><path d="m195.675781 245.015625c-19.96875-10.191406-31.421875-21.292969-35.015625-33.941406-1.222656-4.296875-5.144531-7.257813-9.609375-7.257813-.019531 0-.039062 0-.054687 0-4.488282.023438-8.40625 3.035156-9.585938 7.367188-4.070312 14.972656-15.234375 25.917968-34.140625 33.453125-4.023437 1.605469-6.554687 5.617187-6.265625 9.9375.285156 4.320312 3.324219 7.964843 7.523438 9.027343 15.832031 3.992188 26.652344 15.011719 33.078125 33.675782 1.351562 3.921875 4.980469 6.597656 9.121093 6.734375.109376.003906.21875.003906.328126.003906 4.011718 0 7.652343-2.40625 9.210937-6.128906 7.273437-17.371094 18.511719-28.695313 34.363281-34.613281 3.707032-1.386719 6.25-4.832032 6.476563-8.785157.226562-3.957031-1.902344-7.667969-5.429688-9.472656zm-43.953125 27.144531c-4.925781-7.796875-10.933594-14.117187-17.996094-18.929687 7.261719-4.941407 13.203126-10.6875 17.796876-17.210938 4.863281 6.195313 11.207031 11.96875 19.078124 17.371094-7.269531 5.019531-13.574218 11.285156-18.878906 18.769531zm0 0"/><path d="m349.65625 223.078125c-14.464844-7.390625-23.070312-15.640625-25.582031-24.519531-1.214844-4.304688-5.144531-7.273438-9.613281-7.273438-.015626 0-.03125 0-.046876 0-4.488281.019532-8.410156 3.03125-9.589843 7.363282-2.917969 10.707031-11.003907 18.574218-24.714844 24.046874-4.019531 1.609376-6.550781 5.621094-6.261719 9.945313.289063 4.320313 3.328125 7.960937 7.527344 9.019531 11.410156 2.871094 18.925781 10.574219 23.644531 24.246094 1.351563 3.914062 4.980469 6.589844 9.121094 6.722656.109375.003906.214844.003906.324219.003906 4.011718 0 7.648437-2.40625 9.210937-6.125 5.304688-12.664062 13.460938-20.898437 24.925781-25.175781 3.710938-1.382812 6.253907-4.828125 6.480469-8.78125.230469-3.953125-1.898437-7.671875-5.425781-9.472656zm-34.578125 18.78125c-2.882813-4.027344-6.167969-7.496094-9.855469-10.402344 3.71875-2.828125 6.953125-5.960937 9.691406-9.386719 2.933594 3.332032 6.421876 6.5 10.480469 9.519532-3.804687 2.960937-7.25 6.386718-10.316406 10.269531zm0 0"/><path d="m234.1875 395.894531h-.171875c-5.515625 0-9.988281 4.472657-9.988281 9.992188 0 5.515625 4.472656 9.988281 9.988281 9.988281h.171875c5.515625 0 9.988281-4.472656 9.988281-9.988281 0-5.519531-4.472656-9.992188-9.988281-9.992188zm0 0"/></svg>