<svg height="512pt" viewBox="-33 0 512 512.00112" width="512pt" xmlns="http://www.w3.org/2000/svg"><g fill-rule="evenodd"><path d="m175.046875 370.332031c0-75.683593 95.90625-75.683593 95.90625 0 0 38.011719 1.046875 52.070313.367187 83.789063-.113281.027344-.226562.058594-.367187.085937v47.792969c56.316406-2.324219 120.988281-17.09375 165.046875-54.3125-11.410156-70.128906-33.667969-218.121094-118.867188-254.546875 21.886719-118.65625-48.8125-180.757813-94.117187-183.140625-56.460937 4.480469-116.433594 64.542969-94.148437 183.140625-85.171876 36.425781-107.453126 184.417969-118.867188 254.546875 35.847656 30.273438 93.214844 51.363281 165.050781 54.3125v-47.792969c-.113281-.027343-.257812-.058593-.371093-.085937-.679688-31.605469.371093-45.664063.371093-83.363282-.003906-.140624-.003906-.285156-.003906-.425781zm48.082031-306.476562c50.003906 0 89.644532 104.570312-.113281 144.253906-81.546875-36.027344-58.246094-144.253906.113281-144.253906zm0 0" fill="#f6838d"/><path d="m223.128906 63.855469c-58.359375 0-81.660156 108.226562-.113281 144.253906 89.757813-39.683594 50.117187-144.253906.113281-144.253906zm0 0" fill="#d675a7"/><path d="m175.046875 370.332031v.425781c0-.140624 0-.285156 0-.425781zm95.90625 0c0-75.683593-95.90625-75.683593-95.90625 0v83.875c32.5625 7.285157 63.796875 7.226563 95.90625 0zm0 0" fill="#d675a7"/><path d="m125.753906 375.207031c-16.113281-8.191406-27.097656-18.167969-30.667968-30.667969-3.792969 14.027344-14.210938 24.121094-30.636719 30.667969 15.207031 3.855469 25.058593 14.511719 30.636719 30.671875 6.117187-14.570312 15.972656-25.199218 30.667968-30.671875zm0 0" fill="#ffc15a"/><path d="m344.910156 344.539062c-3.824218 14.027344-14.242187 24.121094-30.664062 30.667969 15.203125 3.855469 25.085937 14.511719 30.664062 30.671875 6.117188-14.570312 15.96875-25.199218 30.636719-30.671875-16.082031-8.191406-27.097656-18.167969-30.636719-30.667969zm0 0" fill="#ffc15a"/></g><path d="m153.46875 226.222656c-4.242188 3.535156-4.816406 9.839844-1.277344 14.085938 13.089844 15.703125 37.554688 24.871094 67.121094 25.148437.457031.003907.914062.007813 1.371094.007813 30.691406 0 58.886718-9.753906 72.097656-25.015625 3.617188-4.175781 3.164062-10.488281-1.011719-14.105469s-10.492187-3.164062-14.105469 1.011719c-9.433593 10.894531-33.359374 18.367187-58.160156 18.101562-23.34375-.222656-42.761718-6.933593-51.949218-17.957031-3.539063-4.242188-9.84375-4.816406-14.085938-1.277344zm0 0"/><path d="m445.871094 446.082031-.753906-4.632812c-5.835938-35.992188-14.65625-90.386719-32.621094-140.304688-20.660156-57.398437-48.976563-95.636719-84.234375-113.808593 8.710937-56.335938-2.230469-107.152344-31.117188-143.765626-20.148437-25.539062-48.351562-42.230468-73.605469-43.5585932-.4375-.0195313-.875-.01562505-1.316406.0195312-29.804687 2.363281-58.152344 18.433594-77.773437 44.089844-19.039063 24.886718-38.734375 69.71875-26.75 143.234375-16.085938 8.292969-30.816407 20.789062-43.867188 37.242187-3.433593 4.328125-2.707031 10.621094 1.621094 14.050782 4.324219 3.433593 10.613281 2.710937 14.046875-1.617188 12.898438-16.257812 27.464844-27.929688 43.296875-34.691406 4.3125-1.839844 6.765625-6.433594 5.898437-11.042969-13.308593-70.820313 4.421876-112.515625 21.640626-135.027344 16.027343-20.957031 38.882812-34.136719 62.796874-36.242187 15.425782 1.046875 38.636719 10.996094 58.3125 35.933594 26.5625 33.671874 35.742188 81.746093 25.851563 135.367187-.847656 4.601563 1.605469 9.171875 5.90625 11.011719 33.308594 14.238281 60.382813 49.761718 80.472656 105.582031 17.164063 47.691406 25.804688 100.402344 31.527344 135.667969-44.679687 35.140625-105.679687 45.191406-144.25 47.84375 0 0 .570313-68.582032.339844-83.339844-.160157-10.34375-.339844-22.066406-.339844-37.757812 0-43.832032-29.152344-66.765626-57.953125-66.765626-28.796875 0-57.949219 22.933594-57.949219 66.765626 0 15.691406-.183593 27.414062-.34375 37.757812-.226562 14.757812.34375 83.351562.34375 83.351562-59.058593-3.96875-109.738281-20.765624-144.25-47.859374 5.875-36.234376 14.753907-90.300782 32.699219-138.832032 1.917969-5.183594-.730469-10.9375-5.910156-12.851562-5.179688-1.914063-10.933594.730468-12.847656 5.910156-18.828126 50.921875-27.894532 106.832031-33.890626 143.832031l-.722656 4.441407c-.5625 3.46875.734375 6.976562 3.417969 9.246093 39.839844 33.644531 100.601563 53.765625 171.089844 56.660157 2.71875.113281 5.371093-.890626 7.335937-2.777344 1.964844-1.886719 3.078125-4.492188 3.078125-7.214844v-35.628906c12.753907 2.179687 25.398438 3.273437 38.027344 3.273437 12.601563 0 25.195313-1.089843 37.871094-3.261719v35.617188c0 2.722656 1.113281 5.328125 3.078125 7.214844 1.867187 1.789062 4.347656 2.785156 6.925781 2.785156.136719 0 .273437-.003906.410156-.007812 40.84375-1.6875 117.375-11.289063 171.089844-56.664063 2.683594-2.269531 3.980469-5.777344 3.417969-9.246094zm-260.820313-.035156v-75.714844c0-32.128906 19.671875-46.761719 37.949219-46.761719 9.792969 0 18.929688 3.933594 25.71875 11.078126 8.003906 8.421874 12.234375 20.761718 12.234375 35.683593v75.722657c-25.394531 4.761718-50.375 4.761718-75.902344-.007813zm0 0"/><path d="m218.972656 217.257812c1.289063.566407 2.664063.851563 4.042969.851563 1.375 0 2.753906-.285156 4.042969-.851563 53.3125-23.574218 64.632812-68.324218 57.445312-102.34375-3.417968-16.183593-11.121094-31.226562-21.6875-42.351562-11.453125-12.0625-25.550781-18.703125-39.6875-18.703125-29.207031 0-53.667968 22.914063-60.867187 57.023437-7.816407 37.023438 6.691406 84.273438 56.710937 106.375zm-37.140625-102.246093c4.324219-20.484375 18.769531-41.152344 41.296875-41.152344 18.089844 0 36.453125 19.847656 41.804688 45.1875 2.628906 12.453125 7.125 54.082031-41.902344 78.027344-39.003906-19.351563-46.710938-55.945313-41.199219-82.0625zm0 0"/><path d="m54.472656 375.863281c.28125 4.324219 3.320313 7.972657 7.519532 9.039063 11.421874 2.894531 18.933593 10.597656 23.644531 24.238281 1.351562 3.917969 4.984375 6.597656 9.125 6.730469.109375.003906.21875.007812.328125.007812 4.015625 0 7.65625-2.410156 9.21875-6.128906 5.320312-12.671875 13.476562-20.902344 24.933594-25.171875 3.71875-1.382813 6.269531-4.835937 6.496093-8.800781.226563-3.964844-1.914062-7.6875-5.453125-9.484375-14.429687-7.335938-23.035156-15.578125-25.582031-24.5-1.226563-4.296875-5.152344-7.257813-9.613281-7.257813-.023438 0-.046875 0-.070313 0-4.492187.03125-8.414062 3.054688-9.585937 7.390625-2.886719 10.671875-10.960938 18.519531-24.6875 23.992188-4.023438 1.605469-6.558594 5.621093-6.273438 9.945312zm41.082032-10.511719c2.921874 3.320313 6.402343 6.480469 10.441406 9.484376-3.796875 2.953124-7.230469 6.371093-10.292969 10.246093-2.871094-4.011719-6.152344-7.472656-9.828125-10.371093 3.71875-2.824219 6.945312-5.945313 9.679688-9.359376zm0 0"/><path d="m311.789062 384.902344c11.4375 2.898437 18.960938 10.601562 23.667969 24.238281 1.351563 3.917969 4.984375 6.597656 9.128907 6.730469.109374.003906.21875.007812.328124.007812 4.015626 0 7.65625-2.410156 9.21875-6.128906 5.316407-12.671875 13.464844-20.902344 24.910157-25.171875 3.714843-1.386719 6.261719-4.839844 6.488281-8.800781.226562-3.960938-1.910156-7.679688-5.445312-9.480469-14.4375-7.355469-23.035157-15.59375-25.550782-24.484375-1.222656-4.308594-5.152344-7.277344-9.625-7.277344-.015625 0-.03125 0-.046875 0-4.496093.023438-8.421875 3.039063-9.601562 7.375-2.910157 10.683594-10.996094 18.535156-24.71875 24.007813-4.027344 1.605469-6.5625 5.621093-6.277344 9.945312s3.320313 7.972657 7.523437 9.039063zm33.566407-19.554688c2.925781 3.324219 6.40625 6.480469 10.453125 9.492188-3.792969 2.949218-7.226563 6.367187-10.285156 10.242187-2.878907-4.015625-6.164063-7.476562-9.847657-10.375 3.71875-2.824219 6.945313-5.945312 9.679688-9.359375zm0 0"/><path d="m54.851562 275.132812c1.4375.71875 2.964844 1.058594 4.46875 1.058594 3.667969 0 7.199219-2.023437 8.949219-5.527344l.085938-.171874c2.472656-4.941407.46875-10.945313-4.472657-13.417969-4.9375-2.46875-10.945312-.46875-13.414062 4.472656l-.085938.171875c-2.472656 4.9375-.46875 10.945312 4.46875 13.414062zm0 0"/></svg>