<svg height="512pt" viewBox="0 -12 512 512" width="512pt" xmlns="http://www.w3.org/2000/svg"><g fill-rule="evenodd"><path d="m133.890625 476.964844v-250.390625h-108.988281v250.390625zm0 0" fill="#f9f9f9"/><path d="m60.320312 324.152344h38.152344v-39.015625c0-10.085938-8.597656-18.351563-19.074218-18.351563-10.476563 0-19.078126 8.265625-19.078126 18.351563zm0 0" fill="#b3b0b5"/><path d="m24.902344 226.574219h123.847656v-37.25h-138.710938v37.25zm0 0" fill="#ffc15a"/><path d="m377.226562 305.855469h-243.335937v171.109375h77.921875v-89.542969c0-23.171875 19.671875-42.152344 43.761719-42.152344 24.058593 0 43.730469 18.980469 43.730469 42.152344v89.542969h77.921874zm0 0" fill="#e8e7e9"/><path d="m299.304688 387.421875c0-23.171875-19.671876-42.152344-43.730469-42.152344-24.085938 0-43.761719 18.980469-43.761719 42.152344v89.542969h87.492188zm0 0" fill="#b3b0b5"/><path d="m377.226562 305.855469v171.109375h108.988282v-251.503906h-108.988282zm0 0" fill="#f9f9f9"/><path d="m413.527344 284.027344v39.015625h38.125v-39.015625c0-10.089844-8.570313-18.351563-19.046875-18.351563-10.507813 0-19.078125 8.261719-19.078125 18.351563zm0 0" fill="#b3b0b5"/><path d="m377.226562 225.460938h124.734376v-37.246094h-138.738282v37.246094zm0 0" fill="#ffc15a"/><path d="m191.171875 124.71875h168.945313l-104.542969-114.679688-104.574219 114.679688zm0 0" fill="#cbe558"/><path d="m191.171875 124.71875h128.773437v181.136719h-128.773437zm0 0" fill="#f9f9f9"/><path d="m233.308594 229.222656h44.527344v-45.566406c0-11.800781-10.019532-21.460938-22.261719-21.460938-12.273438 0-22.265625 9.660157-22.265625 21.460938zm0 0" fill="#b3b0b5"/></g><path d="m98.472656 334.195312c5.546875 0 10.039063-4.496093 10.039063-10.042968v-39.011719c0-15.660156-13.0625-28.398437-29.117188-28.398437-16.054687 0-29.113281 12.738281-29.113281 28.398437v39.011719c0 5.546875 4.492188 10.042968 10.039062 10.042968zm-28.109375-49.054687c0-4.507813 4.136719-8.3125 9.03125-8.3125 4.898438 0 9.035157 3.804687 9.035157 8.3125v28.972656h-18.066407zm0 0"/><path d="m255.574219 152.152344c-17.8125 0-32.308594 14.132812-32.308594 31.503906v45.570312c0 5.542969 4.496094 10.039063 10.042969 10.039063h44.527344c5.546874 0 10.042968-4.496094 10.042968-10.039063v-45.570312c0-17.371094-14.492187-31.503906-32.304687-31.503906zm12.222656 67.03125h-24.445313v-35.527344c0-6.296875 5.480469-11.417969 12.222657-11.417969 6.738281 0 12.222656 5.121094 12.222656 11.417969zm0 0"/><path d="m501.960938 152.039062c-5.546876 0-10.042969 4.496094-10.042969 10.042969v16.089844h-49.273438v-16.089844c0-5.546875-4.492187-10.042969-10.039062-10.042969s-10.042969 4.496094-10.042969 10.042969v16.089844h-49.296875v-16.089844c0-5.546875-4.496094-10.042969-10.042969-10.042969s-10.039062 4.496094-10.039062 10.042969v63.378907c0 5.546874 4.492187 10.042968 10.039062 10.042968h3.964844v60.3125h-37.199219v-161.054687h30.128907c3.980468 0 7.582031-2.347657 9.1875-5.984375 1.605468-3.640625.914062-7.882813-1.765626-10.820313l-104.546874-114.679687c-1.902344-2.085938-4.59375-3.277344-7.417969-3.277344s-5.519531 1.1875-7.421875 3.277344l-104.574219 114.675781c-2.675781 2.941406-3.371094 7.183594-1.765625 10.820313 1.609375 3.640624 5.210938 5.988281 9.1875 5.988281h30.132812v161.054687h-37.203124v-59.203125h4.820312c5.546875 0 10.039062-4.492187 10.039062-10.039062v-63.382813c0-5.542968-4.492187-10.039062-10.039062-10.039062s-10.039062 4.496094-10.039062 10.039062v16.09375h-49.273438v-16.09375c0-5.542968-4.496094-10.039062-10.042969-10.039062-5.542969 0-10.039062 4.496094-10.039062 10.039062v16.09375h-49.273438v-16.09375c0-5.542968-4.492187-10.039062-10.039062-10.039062s-10.042969 4.496094-10.042969 10.039062v63.382813c0 5.546875 4.496094 10.039062 10.039062 10.039062h4.820313v83.921875c0 5.542969 4.496094 10.039063 10.042969 10.039063s10.039062-4.496094 10.039062-10.039063v-83.921875h88.90625v230.308594h-88.902344v-66.105469c0-5.546875-4.496093-10.042968-10.042968-10.042968s-10.039063 4.496093-10.039063 10.042968v76.148438c0 5.542968 4.492188 10.039062 10.039063 10.039062h461.3125c5.546875 0 10.042968-4.496094 10.042968-10.039062v-241.460938h5.703126c5.542968 0 10.039062-4.496094 10.039062-10.042968v-63.378907c0-5.546875-4.496094-10.042969-10.039062-10.042969zm-363.25 47.328126v17.164062h-118.628907v-17.164062zm353.207031-1.109376v17.164063h-118.65625v-17.164063zm-236.347657-173.3125 81.808594 89.734376h-163.632812zm-54.355468 109.816407h108.6875v161.054687h-108.6875zm165.972656 181.136719v151.023437h-57.84375v-79.5c0-28.777344-24.121094-52.191406-53.769531-52.191406-29.667969 0-53.804688 23.414062-53.804688 52.191406v79.5h-57.839843v-151.023437zm-77.925781 151.023437h-67.40625v-79.5c0-17.703125 15.125-32.109375 33.71875-32.109375 18.574219 0 33.6875 14.40625 33.6875 32.109375zm186.910156 0h-88.902344v-231.417969h88.902344zm0 0"/><path d="m413.527344 333.082031h38.121094c5.546874 0 10.042968-4.492187 10.042968-10.039062v-39.015625c0-15.65625-13.050781-28.394532-29.089844-28.394532-16.054687 0-29.117187 12.738282-29.117187 28.394532v39.015625c.003906 5.542969 4.496094 10.039062 10.042969 10.039062zm10.042968-49.054687c0-4.582032 4.050782-8.3125 9.035157-8.3125 4.882812 0 9.003906 3.804687 9.003906 8.3125v28.972656h-18.039063zm0 0"/><path d="m24.902344 370.699219c5.546875 0 10.042968-4.492188 10.042968-10.039063v-.171875c0-5.546875-4.496093-10.039062-10.042968-10.039062s-10.039063 4.492187-10.039063 10.039062v.171875c0 5.546875 4.492188 10.039063 10.039063 10.039063zm0 0"/></svg>