<svg height="512pt" viewBox="-59 0 512 512.00025" width="512pt" xmlns="http://www.w3.org/2000/svg"><g fill-rule="evenodd"><path d="m208.882812 378.628906-44.378906 33.875v89.523438l77.265625-56.242188 77.265625-56.269531-65.746094-44.761719zm0 0" fill="#cbe558"/><path d="m75.722656 209.308594 44.375-33.875 44.40625-33.847656v-89.546876l-77.265625 56.269532-77.261719 56.242187zm0 0" fill="#cbe558"/><path d="m208.882812 175.433594 44.40625 33.875 65.746094-44.757813-53.773437-39.148437c-6.511719 7.597656-11.605469 16.980468-15.398438 28.035156-9.535156-22.734375-24.875-39.261719-47.71875-47.796875 7.246094-3.710937 13.839844-7.652344 19.699219-11.847656l-57.339844-41.757813v89.550782zm0 0" fill="#cbe558"/><path d="m253.289062 209.308594v135.445312l65.746094 44.761719v-224.964844zm0 0" fill="#cbe558"/><path d="m253.289062 277.03125v-67.722656l-44.40625-33.875-44.378906-33.847656-44.40625 33.847656-44.375 33.875v135.445312l4.980469 3.800782 39.394531 30.074218 44.40625 33.875 44.378906-33.875 44.40625-33.875zm0 0" fill="#e2f1a1"/><path d="m75.722656 277.03125v-67.722656l-65.746094-44.757813v224.964844l66.28125-44.335937-.535156-.425782zm0 0" fill="#cbe558"/><path d="m120.097656 378.628906-39.394531-30.074218-4.445313-3.375-66.28125 44.335937 77.261719 56.269531 77.265625 56.242188v-89.523438zm0 0" fill="#cbe558"/><path d="m202.144531 105.640625c22.84375 8.535156 38.183594 25.0625 47.71875 47.796875 3.792969-11.054688 8.886719-20.441406 15.398438-28.035156 8.347656-9.695313 19.019531-16.414063 32.320312-19.757813-25.558593-10.207031-41.773437-25.941406-47.71875-47.824219-3.933593 13.863282-13.695312 25.710938-28.019531 35.972657-5.859375 4.195312-12.453125 8.136719-19.699219 11.847656zm0 0" fill="#ffcb7c"/><path d="m312.296875 45.433594c16.953125 6.320312 28.332031 18.59375 35.378906 35.433594 6.425781-18.652344 17.832031-30.984376 35.378907-35.433594-18.964844-7.542969-30.964844-19.222656-35.378907-35.4375-4.101562 14.460937-16.8125 25.96875-35.378906 35.4375zm0 0" fill="#f6838d"/></g><path d="m328.941406 163.421875c-.3125-2.757813-1.804687-5.328125-4.046875-6.960937l-44.042969-32.0625c5.570313-4.222657 11.941407-7.238282 19.164063-9.0625 4.195313-1.058594 7.230469-4.707032 7.515625-9.03125.285156-4.328126-2.242188-8.34375-6.261719-9.949219-23.097656-9.222657-36.765625-22.6875-41.785156-41.160157-1.175781-4.332031-5.085937-7.347656-9.5625-7.371093-.019531 0-.039063 0-.058594 0-4.453125 0-8.371093 2.960937-9.589843 7.257812-2.679688 9.429688-8.816407 18.121094-18.570313 26.253907l-51.339844-37.386719c-3.449219-2.515625-8.273437-2.507813-11.722656 0l-77.261719 56.269531-77.265625 56.242188c-2.554687 1.859374-4.113281 4.929687-4.113281 8.089843v78.125c0 5.519531 4.464844 9.996094 9.972656 9.996094 5.507813 0 9.972656-4.476563 9.972656-9.996094v-59.253906l45.800782 31.183594v125.597656l-45.800782 30.628906v-48.273437c0-5.523438-4.464843-9.996094-9.972656-9.996094-5.507812 0-9.972656 4.476562-9.972656 9.996094v66.890625c-.03125 3.175781 1.546875 6.285156 4.113281 8.15625l77.265625 56.269531 77.265625 56.242188c3.441407 2.511718 8.273438 2.511718 11.71875 0l77.265625-56.242188 77.265625-56.269531c2.550781-1.859375 4.109375-4.933594 4.109375-8.089844v-224.964844c.003906-.378906-.023437-.753906-.0625-1.128906.003906.050781.007813.097656.015625.144531-.007812-.046875-.011719-.09375-.015625-.144531-.011718-.082031.039063.375 0 0-.3125-2.757813.039063.375 0 0zm-65.679687 176.039063v-124.855469l45.800781-31.183594v187.21875zm-98.757813 60.480468-78.8125-60.140625v-125.539062l40.441406-30.871094 38.371094-29.242187 78.8125 60.117187v125.535156zm84.890625-318.933594c6 9.230469 14.210938 17.1875 24.597657 23.832032-5.90625 3.683594-11.210938 8.242187-15.914063 13.640625-.214844.226562-.417969.460937-.613281.707031-3.023438 3.558594-5.792969 7.472656-8.300782 11.75-7.074218-10.640625-15.757812-19.296875-26.003906-25.90625 11.222656-7.382812 19.933594-15.359375 26.234375-24.023438zm-50.730469 34c19.359376 7.234376 33.101563 21.070313 42.007813 42.304688 1.558594 3.71875 5.1875 6.121094 9.191406 6.121094.109375 0 .21875 0 .328125-.003906 4.128906-.136719 7.75-2.8125 9.097656-6.726563 2.261719-6.558594 4.984376-12.324219 8.152344-17.363281l34.246094 24.933594-48.066406 32.726562-79.144532-60.367188v-64.976562l29.648438 21.589844c-2.078125 1.171875-4.246094 2.335937-6.5 3.488281-3.527344 1.796875-5.660156 5.519531-5.433594 9.480469.226563 3.957031 2.765625 7.410156 6.472656 8.792968zm-105.5625 1.386719 61.429688-44.738281v64.972656l-40.472656 30.851563-38.671875 29.519531-48.0625-32.722656zm-65.679687 273.472657 48.472656-32.414063 78.636719 60.007813v64.953124l-61.429688-44.714843zm208.488281 47.828124-61.433594 44.71875v-64.953124l79.144532-60.394532 48.066406 32.726563zm0 0"/><path d="m386.730469 36.140625c-16.296875-6.484375-25.925781-15.894531-29.433594-28.777344-1.179687-4.328125-5.089844-7.3398435-9.566406-7.363281-.019531 0-.035157 0-.054688 0-4.453125 0-8.371093 2.964844-9.589843 7.261719-3.042969 10.710937-13.238282 20.554687-30.308594 29.261719-3.527344 1.796874-5.660156 5.519531-5.433594 9.480468.222656 3.964844 2.769531 7.414063 6.476562 8.796875 13.660157 5.097657 23.363282 14.886719 29.660157 29.933594 1.558593 3.722656 5.1875 6.132813 9.191406 6.132813.109375 0 .21875-.003907.328125-.007813 4.128906-.132813 7.75-2.8125 9.101562-6.730469 5.535157-16.074218 14.824219-25.5625 28.398438-29.003906 4.195312-1.0625 7.226562-4.714844 7.503906-9.042969.28125-4.328125-2.253906-8.34375-6.273437-9.941406zm-39.695313 23.359375c-4.199218-5.65625-9.066406-10.503906-14.574218-14.523438 5.917968-4.207031 10.824218-8.671874 14.75-13.425781 3.691406 4.960938 8.269531 9.394531 13.71875 13.292969-5.339844 3.898438-9.976563 8.785156-13.894532 14.65625zm0 0"/><path d="m9.976562 292.613281c5.503907 0 9.96875-4.476562 9.96875-9.996093v-.199219c0-5.519531-4.464843-9.996094-9.96875-9.996094-5.507812 0-9.97265575 4.476563-9.97265575 9.996094v.199219c0 5.519531 4.46484375 9.996093 9.97265575 9.996093zm0 0"/></svg>