<svg height="512pt" viewBox="-77 0 512 512.00113" width="512pt" xmlns="http://www.w3.org/2000/svg"><g fill-rule="evenodd"><path d="m117.167969 414.035156c16.242187 0 29.648437-13.011718 31.691406-29.90625-7.710937-8.363281-12.472656-19.898437-12.472656-32.597656 0-2.890625.253906-5.699219.707031-8.417969-13.890625-5.980469-26.277344-15.109375-35.546875-27.414062v27.753906c-.058594 17.121094-6.773437 29.109375-16.382813 36.167969 0 19.019531 14.3125 34.414062 32.003907 34.414062zm0 0" fill="#f8a2aa"/><path d="m148.859375 384.128906c7.824219 8.476563 18.621094 13.75 30.585937 13.75 11.960938 0 22.789063-5.273437 30.585938-13.75 7.707031-8.363281 12.472656-19.898437 12.472656-32.597656 0-3.03125-.285156-5.980469-.792968-8.84375-26.277344 11.621094-58.167969 11.761719-84.617188.425781-.453125 2.71875-.707031 5.527344-.707031 8.417969 0 12.699219 4.761719 24.234375 12.472656 32.597656zm0 0" fill="#ffcbbe"/><path d="m210.03125 384.128906c2.066406 16.894532 15.476562 29.90625 31.71875 29.90625 16.355469 0 29.847656-13.210937 31.75-30.273437-13.125-5.898438-23.246094-19.164063-23.304688-40.167969v-20.71875c-8.078124 8.503906-17.828124 15.105469-28.484374 19.8125.507812 2.863281.792968 5.8125.792968 8.84375 0 12.699219-4.765625 24.234375-12.472656 32.597656zm0 0" fill="#f8a2aa"/><path d="m179.445312 397.878906c-11.964843 0-22.761718-5.273437-30.585937-13.75-2.042969 16.894532-15.449219 29.90625-31.691406 29.90625-17.691407 0-32.003907-15.390625-32.003907-34.414062-15.476562 11.367187-38.410156 9.894531-52.839843-3.429688-16.980469 36-24.945313 78.152344-21.542969 125.800782h337.46875c3.570312-50-5.359375-93.910157-24.066406-131.015626-11.933594 15.789063-33.789063 20.351563-50.683594 12.785157-1.898438 17.0625-15.394531 30.273437-31.75 30.273437-16.242188 0-29.648438-13.011718-31.71875-29.90625-7.796875 8.476563-18.625 13.75-30.585938 13.75zm0 0" fill="#ff6977"/><path d="m101.546875 315.699219-.027344-101.507813c-16.441406-2.183594-30.53125-5.101562-41.300781-8.476562v132.886718c0 15.109376-22.507812 22.820313-40.027344 16.300782 2.070313 8.902344 6.4375 16.015625 12.132813 21.289062 14.429687 13.320313 37.363281 14.796875 52.839843 3.429688 9.609376-7.058594 16.328126-19.050782 16.382813-36.171875zm0 0" fill="#b3b0b5"/><path d="m250.195312 214.417969v129.175781c.058594 21.003906 10.179688 34.269531 23.304688 40.167969 16.894531 7.566406 38.75 3.003906 50.683594-12.785157 3.34375-4.480468 5.921875-9.835937 7.367187-16.074218-17.515625 6.523437-40.023437-1.1875-40.023437-16.296875v-132.351563c-10.941406 3.289063-25.003906 6.066406-41.332032 8.164063zm0 0" fill="#b3b0b5"/><path d="m249.035156 164.925781c-17.320312 19.898438-133.34375 20.4375-147.515625 0l.027344-.085937c-38.664063 5.160156-64.289063 14.65625-64.289063 24.917968 0 5.894532 8.445313 11.367188 22.960938 15.957032 10.769531 3.375 24.859375 6.292968 41.300781 8.476562l1.8125.226563c21.316407 2.75 46.488281 4.339843 73.445313 4.339843 26.929687 0 52.101562-1.589843 73.417968-4.339843 16.328126-2.097657 30.390626-4.875 41.332032-8.164063 15.589844-4.675781 24.746094-10.375 24.746094-16.496094 0-10.546874-26.929688-19.757812-67.238282-24.832031zm0 0" fill="#d675a7"/><path d="m101.519531 164.925781c14.171875 20.4375 130.195313 19.898438 147.515625 0l-21.0625-50.910156c-35.433594 10.882813-70.214844 10.65625-104.429687 0l-21.996094 50.824219zm0 0" fill="#f9f9f9"/><path d="m123.542969 114.015625c34.214843 10.65625 68.996093 10.882813 104.429687 0l-18.253906-44.078125c-18.878906-55.191406 63.210938-55.503906 55.019531-57.347656-54.792969-5.214844-99.46875-9.578125-123.222656 59.871094zm0 0" fill="#d675a7"/><path d="m137.09375 343.113281c26.449219 11.335938 58.335938 11.195313 84.617188-.425781 10.65625-4.707031 20.410156-11.308594 28.484374-19.8125v-108.457031c-21.316406 2.75-46.484374 4.335937-73.417968 4.335937-26.957032 0-52.128906-1.585937-73.445313-4.335937-.59375-.058594-1.21875-.140625-1.8125-.226563l.027344 101.507813c9.269531 12.304687 21.65625 21.429687 35.546875 27.414062zm0 0" fill="#ffddcf"/></g><path d="m145.117188 247.839844h-.257813c-5.523437 0-10.003906 4.480468-10.003906 10.003906 0 5.527344 4.480469 10.007812 10.003906 10.007812h.257813c5.527343 0 10.007812-4.480468 10.007812-10.007812-.003906-5.523438-4.484375-10.003906-10.007812-10.003906zm0 0"/><path d="m213.089844 267.878906h.257812c5.527344 0 10.003906-4.480468 10.003906-10.003906 0-5.527344-4.476562-10.007812-10.003906-10.007812h-.257812c-5.527344 0-10.003906 4.480468-10.003906 10.007812s4.476562 10.003906 10.003906 10.003906zm0 0"/><path d="m179.527344 491.988281h-.195313c-5.527343 0-10.007812 4.480469-10.007812 10.003907 0 5.527343 4.480469 10.007812 10.007812 10.007812h.195313c5.527344 0 10.007812-4.480469 10.007812-10.007812 0-5.523438-4.480468-10.003907-10.007812-10.003907zm0 0"/><path d="m335.660156 371.726562c2.453125-4.300781 4.386719-9.148437 5.640625-14.566406.832031-3.589844-.378906-7.34375-3.144531-9.773437-2.765625-2.429688-6.640625-3.144531-10.09375-1.859375-8.746094 3.253906-18.3125 1.488281-23.242188-1.9375-3.289062-2.28125-3.289062-4.316406-3.289062-4.984375v-125.117188c16.777344-6.140625 24.746094-13.878906 24.746094-23.730469 0-14.800781-18.894532-21.632812-25.105469-23.878906-11.257813-4.070312-26.769531-7.539062-45.097656-10.109375l-18.804688-45.433593c-.050781-.128907-.105469-.261719-.160156-.390626l-18.019531-43.535156c-3.128906-9.300781-2.925782-16.726562.613281-22.691406 8.34375-14.058594 33.4375-18.367188 42.882813-19.988281 1.5-.257813 2.683593-.460938 3.644531-.664063 8.242187-1.765625 9.039062-8.070312 9.085937-9.957031.109375-4.15625-2.441406-8.945313-8.382812-10.28125-.410156-.09375-.828125-.160156-1.246094-.199219l-.257812-.023437c-54.992188-5.238281-106.9375-10.175781-133.253907 66.238281l-37.578125 86.878906c-17.488281 2.605469-32.371094 6.144532-43.273437 10.316406-5.953125 2.277344-24.074219 9.214844-24.074219 23.71875 0 13.449219 15.640625 20.289063 22.960938 23.058594v125.789063c0 .667969 0 2.699219-3.285157 4.984375-4.929687 3.425781-14.5 5.191406-23.246093 1.9375-3.449219-1.285156-7.328126-.570313-10.09375 1.859375-2.765626 2.433593-3.972657 6.183593-3.144532 9.773437 1.925782 8.320313 5.441406 15.308594 10.007813 21.003906-16.273438 37.316407-22.886719 79.171876-19.648438 124.542969.371094 5.238281 4.730469 9.292969 9.980469 9.292969h127.871094c5.527344 0 10.007812-4.480469 10.007812-10.003906 0-5.527344-4.480468-10.007813-10.007812-10.007813h-118.40625c-1.457032-36.445312 4.058594-70.210937 16.398437-100.667969 7.730469 3.96875 16.289063 5.933594 24.617188 5.933594 1.960937 0 3.914062-.105468 5.832031-.324218 3.53125-.398438 7.066406-1.183594 10.515625-2.355469 5.820313 17.160156 21.351563 29.46875 39.558594 29.46875 15.695312 0 29.625-9.246094 36.8125-23.085938 4.761719 2.777344 9.964843 4.800781 15.46875 5.921875l.074219 57.484375c.003906 5.523438 4.484374 9.992188 10.003906 9.992188h.015625c5.523437-.007813 10-4.492188 9.992187-10.019531l-.074218-57.472657c5.5-1.121093 10.695312-3.152343 15.453124-5.929687 7.199219 13.855468 21.144532 23.109375 36.835938 23.109375 17.425781 0 32.589844-11.300781 38.882812-27.65625 1.3125.253906 2.625.457031 3.9375.605469 1.925782.21875 3.875.324218 5.839844.324218 10.527344 0 21.421875-3.128906 30.546875-9.488281 13.359375 31.347656 19.347657 66.28125 17.832031 104.160156h-117.703124c-5.527344 0-10.007813 4.480469-10.007813 10.003907 0 5.527343 4.480469 10.007812 10.007813 10.007812h127.164062c5.25 0 9.605469-4.058594 9.980469-9.292969 3.429687-48.054687-4.167969-92.082031-22.570313-130.980469zm-184.960937-295.292968c.105469-.242188.199219-.488282.285156-.734375 14.132813-41.320313 35.035156-53.5 63.761719-55.472657-4.816406 3.574219-9.082032 7.941407-12.253906 13.277344-6.65625 11.21875-7.410157 24.5625-2.242188 39.671875.066406.195313.140625.394531.222656.585938l13.90625 33.597656c-25.769531 6.207031-51.613281 6.226563-77.089844.070313zm-21.460938 49.609375c15.351563 4.011719 30.824219 6.023437 46.335938 6.023437 15.496093 0 31.035156-2.007812 46.542969-6.007812l14.613281 35.308594c-11.714844 5.164062-41.09375 9.988281-76.882813 8.378906-24.882812-1.117188-39.488281-4.90625-46.089844-7.910156zm-80.734375 63.679687c4.480469-3.335937 18.359375-9.6875 49.433594-14.269531 9.902344 7.8125 29.335938 12.558594 57.96875 14.132813 4.867188.265624 10.605469.433593 16.851562.433593 26.910157 0 63.207032-3.097656 79.394532-14.589843 33.546875 4.582031 48.113281 10.878906 52.820312 14.300781-3.863281 2.75-14.566406 7.695312-37.878906 11.960937-24.878906 4.550782-56.953125 7.058594-90.3125 7.058594-25.628906 0-50.582031-1.472656-72.171875-4.257812-18.953125-2.4375-32.164063-5.429688-41.136719-8.230469-.171875-.058594-.34375-.117188-.523437-.164063-7.734375-2.453125-12.21875-4.75-14.445313-6.375zm16.351563 187.320313c-9.582031 1.082031-20.238281-2.164063-27.4375-9.96875 7.710937-.609375 15.101562-3.003907 20.925781-7.050781 7.660156-5.320313 11.882812-12.929688 11.882812-21.417969v-119.84375c6.453126 1.507812 13.589844 2.878906 21.289063 4.082031l.027344 120.578125c-.070313 22.582031-13.832031 32.171875-26.6875 33.621094zm52.3125 26.984375c-10.828125 0-19.847657-8.726563-21.660157-20.167969 9.460938-8.914063 15.992188-22.324219 16.046876-40.410156v-3.695313c4.625 3.527344 9.609374 6.648438 14.875 9.371094-.03125.804688-.050782 1.605469-.050782 2.40625 0 13.359375 4.410156 25.644531 11.753906 35.3125-2.792968 10.023438-11.242187 17.183594-20.964843 17.183594zm-5.621094-91.816406-.019531-86.75c20.09375 2.164062 42.4375 3.300781 65.25 3.300781 22.347656 0 43.921875-1.082031 63.414062-3.109375v93.054687c-16.675781 15.703125-41.4375 24.117188-67.09375 22.640625-25.164062-1.457031-47.394531-12.027344-61.550781-29.136718zm67.898437 75.660156c-16.492187 0-30.199218-13.347656-32.660156-30.734375 8.023438 2.261719 16.453125 3.6875 25.160156 4.1875 2.308594.136719 4.609376.199219 6.90625.199219 10.511719 0 20.84375-1.402344 30.664063-4.046876.898437-.199218 1.78125-.414062 2.632813-.664062-2.335938 17.542969-16.109376 31.058594-32.703126 31.058594zm62.304688 16.15625c-9.722656 0-18.183594-7.164063-20.992188-17.199219 7.34375-9.664063 11.75-21.941406 11.75-35.296875 0-1.003906-.03125-2.011719-.085937-3.019531 2.667969-1.410157 5.269531-2.914063 7.777344-4.535157.167969 21.417969 9.464843 36.234376 21.933593 44.71875-3.269531 9.054688-11.242187 15.332032-20.382812 15.332032zm45.058594-26.921875c-12.816406-1.441407-26.535156-11.011719-26.605469-33.511719v-120.472656c6.0625-.917969 11.839844-1.9375 17.253906-3.0625 1.390625-.289063 2.734375-.582032 4.0625-.882813v119.429688c0 8.488281 4.21875 16.09375 11.882813 21.417969 5.828125 4.050781 13.226562 6.445312 20.941406 7.050781-7.21875 7.855469-17.921875 11.121093-27.535156 10.03125zm0 0"/></svg>