<svg height="511pt" viewBox="0 0 511 511.99986" width="511pt" xmlns="http://www.w3.org/2000/svg"><g fill-rule="evenodd"><path d="m162.742188 74.84375c26.21875-26.230469 58.957031-45.882812 94.476562-56.429688 68.285156-19.707031 141.273438-4.90625 191.445312 45.3125 75.90625 75.910157 70.917969 203.96875-11.113281 286.035157-74.066406 74.125-185.691406 85.351562-262.503906 30.878906-8.222656-5.8125-16.074219-12.417969-23.414063-19.765625-7.34375-7.34375-13.945312-15.171875-19.757812-23.421875-54.449219-76.847656-43.226562-188.484375 30.867188-262.609375zm0 0" fill="#e8b3ce"/><path d="m166.457031 278.160156c-22.648437-52.515625-10.402343-118.390625 35.375-164.214844 58.703125-58.695312 150.285157-62.269531 204.597657-7.964843 54.28125 54.328125 50.738281 145.949219-7.964844 204.675781-46.289063 46.304688-113.070313 58.300781-165.851563 34.652344-52.777343-23.675782-66.15625-67.148438-66.15625-67.148438zm0 0" fill="#f9f9f9"/><path d="m131.875 337.453125c5.8125 8.253906 12.414062 16.078125 19.757812 23.421875 7.339844 7.34375 15.191407 13.953125 23.414063 19.765625l-76.421875 102.507813c-41.921875 56.203124-125.597656-27.164063-69.21875-69.246094zm0 0" fill="#d675a7"/><path d="m386.8125 227.855469c-17.003906-7.769531-34.269531-7.144531-51.726562 0 8.925781-18.347657 9.605468-35.671875 0-51.75 19.359374 8.335937 36.675781 8.621093 51.726562 0-7.566406 13.554687-6.660156 31.25 0 51.75zm0 0" fill="#ffc15a"/><path d="m281.398438 250.144531c-20.410157-9.300781-41.128907-8.566406-62.078126 0 10.714844-22.003906 11.507813-42.789062 0-62.101562 23.242188 10.039062 44.019532 10.351562 62.078126 0-9.070313 16.277343-7.996094 37.488281 0 62.101562zm0 0" fill="#ffc15a"/></g><path d="m60.984375 441.4375h-.226563c-5.527343 0-10.011718 4.480469-10.011718 10.007812 0 5.527344 4.484375 10.007813 10.011718 10.007813h.226563c5.527344 0 10.007813-4.480469 10.007813-10.007813 0-5.527343-4.480469-10.007812-10.007813-10.007812zm0 0"/><path d="m194.75 106.875c-23.554688 23.578125-39.484375 52.847656-46.066406 84.640625-6.46875 31.253906-3.5 62.585937 8.582031 90.605469 2.1875 5.078125 8.078125 7.417968 13.152344 5.226562 5.074219-2.1875 7.417969-8.074218 5.226562-13.152344-21.597656-50.082031-8.230469-111.636718 33.261719-153.171874 54.699219-54.695313 140.136719-58.269532 190.441406-7.96875 50.300782 50.34375 46.726563 135.8125-7.964844 190.527343-42.078124 42.09375-104.242187 55.191407-154.679687 32.59375-5.042969-2.261719-10.964844-.003906-13.222656 5.039063-2.261719 5.046875-.003907 10.964844 5.039062 13.226562 19.070313 8.542969 39.558594 12.679688 60.179688 12.679688 42.074219 0 84.6875-17.222656 116.839843-49.390625 62.488282-62.511719 66.0625-160.675781 7.964844-218.828125-58.113281-58.105469-156.242187-54.535156-218.753906 7.972656zm0 0"/><path d="m200.746094 311.320312c-3.910156-3.90625-10.246094-3.90625-14.152344 0-3.910156 3.910157-3.910156 10.246094 0 14.15625l.167969.167969c1.953125 1.953125 4.515625 2.929688 7.078125 2.929688 2.558594 0 5.121094-.976563 7.074218-2.929688 3.910157-3.910156 3.910157-10.246093 0-14.152343zm0 0"/><path d="m327.78125 234.699219c1.933594 2.0625 4.589844 3.164062 7.304688 3.164062 1.273437 0 2.558593-.242187 3.785156-.746093 15.667968-6.410157 29.988281-6.460938 43.785156-.160157 3.609375 1.652344 7.855469 1.011719 10.820312-1.632812 2.960938-2.640625 4.082032-6.785157 2.855469-10.5625-6.15625-18.949219-6.421875-33.679688-.78125-43.777344 2.191407-3.925781 1.5-8.832031-1.699219-11.996094-3.195312-3.164062-8.109374-3.804687-12.011718-1.570312-12.019532 6.886719-26.019532 6.722656-42.800782-.507813-3.984374-1.714844-8.625-.664062-11.484374 2.601563-2.859376 3.265625-3.289063 8-1.0625 11.726562 7.472656 12.503907 7.339843 26.320313-.40625 42.238281-1.816407 3.730469-1.144532 8.195313 1.695312 11.222657zm23.542969-43.226563c7.089843 1.222656 13.90625 1.335938 20.4375.347656-.65625 6.546876-.316407 13.644532 1.019531 21.339844-3.667969-.601562-7.371094-.898437-11.109375-.898437-3.605469 0-7.246094.277343-10.910156.835937 1.527343-7.425781 1.714843-14.644531.5625-21.625zm0 0"/><path d="m277.234375 259.246094c3.617187 1.648437 7.859375 1.011718 10.820313-1.632813 2.964843-2.640625 4.085937-6.785156 2.859374-10.558593-7.667968-23.613282-7.921874-41.320313-.773437-54.140626 2.1875-3.925781 1.488281-8.832031-1.710937-11.988281-3.199219-3.160156-8.109376-3.800781-12.007813-1.566406-15.023437 8.613281-32.40625 8.445313-53.132813-.503906-3.984374-1.722657-8.625-.675781-11.488281 2.585937-2.863281 3.261719-3.296875 7.996094-1.074219 11.726563 9.335938 15.664062 9.203126 32.867187-.402343 52.59375-1.816407 3.730469-1.144531 8.195312 1.695312 11.226562 1.929688 2.0625 4.589844 3.164063 7.304688 3.164063 1.273437 0 2.558593-.242188 3.785156-.742188 19.351563-7.914062 37.054687-7.96875 54.125-.164062zm-40.957031-55.269532c10.28125 2.125 20.085937 2.289063 29.375.496094-1.273438 9.171875-.800782 19.316406 1.410156 30.53125-5.210938-1.042968-10.488281-1.566406-15.828125-1.566406-5.183594 0-10.425781.492188-15.714844 1.476562 2.597657-10.695312 2.851563-21.027343.757813-30.9375zm0 0"/><path d="m455.742188 56.65625c-25.574219-25.601562-58.007813-43.429688-93.792969-51.566406-34.636719-7.875-71.8125-6.59375-107.582031 3.730468-37.011719 10.992188-71.140626 31.375-98.703126 58.949219-41.457031 41.472657-65.5 95.460938-67.695312 152.007813-1.632812 42.078125 8.96875 81.835937 30.273438 115.359375l-94.820313 70.746093c-18.277344 13.640626-26.179687 33.328126-21.6875 54.015626 5.257813 24.214843 26.671875 45.609374 50.921875 50.867187 3.816406.828125 7.59375 1.234375 11.308594 1.234375 16.441406 0 31.585937-7.988281 42.683594-22.867188l70.710937-94.855468c31.261719 19.886718 67.945313 30.445312 106.878906 30.445312 2.796875 0 5.617188-.054687 8.433594-.164062 56.53125-2.195313 110.496094-26.246094 151.957031-67.722656 41.460938-41.476563 65.507813-95.464844 67.707032-152.011719 2.210937-56.84375-17.890626-109.464844-56.59375-148.167969zm-365.136719 420.507812c-11.332031 15.191407-24.582031 16.019532-33.707031 14.039063-16.683594-3.617187-31.992188-18.902344-35.605469-35.550781-1.976563-9.109375-1.136719-22.355469 14.097656-33.726563l94.464844-70.480469c4.554687 5.742188 9.449219 11.253907 14.699219 16.507813 5.25 5.25 10.765624 10.148437 16.503906 14.707031zm339.867187-134.480468c-37.882812 37.902344-87.097656 59.875-138.578125 61.875-2.554687.097656-5.089843.148437-7.625.148437-38.027343-.003906-73.628906-11.144531-103.152343-32.015625-.03125-.023437-.058594-.050781-.089844-.074218-.066406-.050782-.140625-.089844-.207032-.140626-7.820312-5.550781-15.21875-11.78125-22.109374-18.675781-71.863282-71.894531-66.882813-193.859375 11.109374-271.882812 25.210938-25.222657 56.417969-43.863281 90.175782-53.890625 67.488281-19.472656 135.371094-3.488282 181.589844 42.777344 71.878906 71.878906 66.894531 193.84375-11.113282 271.878906zm0 0"/></svg>