<svg height="512pt" viewBox="0 -11 512 512" width="512pt" xmlns="http://www.w3.org/2000/svg"><g fill-rule="evenodd"><path d="m287.929688 307.945312h54.480468l-27.945312 44.328126 27.945312 46.738281h-57.398437l-29.027344 46-28.996094-46h-57.398437l27.949218-46.738281-27.949218-44.328126h54.449218l31.945313-53.398437zm-152.835938.339844c-4.480469 12.667969-7 26.273438-7.230469 40.445313-.027343.710937-.027343 1.417969-.027343 2.125 0 70.773437 57.371093 128.140625 128.148437 128.140625 70.78125 0 128.152344-57.367188 128.152344-128.140625 0-.707031 0-1.414063 0-2.125-.257813-14.171875-2.78125-27.777344-7.230469-40.445313-17.546875-49.855468-65.050781-85.566406-120.921875-85.566406-55.839844 0-103.34375 35.710938-120.890625 85.566406zm0 0" fill="#cbe558"/><path d="m314.460938 352.273438-15.277344-25.507813-11.253906-18.820313h-63.890626l-11.25 18.820313-15.25 25.507813 15.25 24.207031 14.199219 22.53125h58.023438l14.171875-22.53125zm0 0" fill="#f6838d"/><path d="m212.789062 326.765625 11.25-18.820313h-54.449218l27.949218 44.328126zm0 0" fill="#f8a2aa"/><path d="m224.039062 307.945312h63.890626l-31.945313-53.398437zm0 0" fill="#f8a2aa"/><path d="m287.929688 307.945312 11.253906 18.820313 15.277344 25.507813 27.949218-44.328126zm0 0" fill="#f8a2aa"/><path d="m314.460938 352.273438-15.277344 24.207031-14.171875 22.53125h57.398437zm0 0" fill="#f8a2aa"/><path d="m285.011719 399.011719h-58.023438l28.996094 46zm0 0" fill="#f8a2aa"/><path d="m226.988281 399.011719-14.199219-22.53125-15.25-24.207031-27.949218 46.738281zm0 0" fill="#f8a2aa"/><path d="m127.863281 348.730469c.230469-14.171875 2.75-27.777344 7.230469-40.445313-51.5625-25.933594-85.09375-68.050781-85.09375-115.582031 0-78.820313 92.234375-142.707031 205.984375-142.707031 113.78125 0 206.015625 63.886718 206.015625 142.707031 0 47.53125-33.53125 89.648437-85.09375 115.582031 4.449219 12.667969 6.972656 26.273438 7.230469 40.445313 70.664062-32.113281 117.859375-89.960938 117.859375-156.027344 0-100.898437-110.152344-182.695313-246.011719-182.695313-135.855469 0-245.976563 81.796876-245.976563 182.695313 0 66.066406 47.164063 123.914063 117.855469 156.027344zm0 0" fill="#ffd89e"/><path d="m326.992188 192.277344c-4.109376 14.457031-16.808594 25.960937-35.433594 35.429687 16.980468 6.347657 28.375 18.59375 35.433594 35.429688 1.8125-5.242188 4.023437-10.003907 6.660156-14.230469 6.71875-10.742188 16.15625-17.996094 28.769531-21.199219-18.960937-7.539062-31.007813-19.21875-35.429687-35.429687zm0 0" fill="#ffc15a"/><path d="m253.546875 172.921875c6.464844-18.679687 17.859375-31.007813 35.460937-35.429687-18.992187-7.570313-31.039062-19.21875-35.460937-35.429688-4.082031 14.453125-16.808594 25.960938-35.429687 35.429688 16.976562 6.320312 28.371093 18.59375 35.429687 35.429687zm0 0" fill="#ffc15a"/></g><path d="m435.902344 55.484375c-48.179688-35.78125-112.074219-55.484375-179.917969-55.484375-67.839844 0-131.730469 19.703125-179.902344 55.484375-49.0625 36.441406-76.082031 85.171875-76.082031 137.21875 0 34.113281 11.929688 67.605469 34.503906 96.859375 20.417969 26.460938 49.167969 49.019531 83.398438 65.535156 2.25 74.21875 63.324218 133.902344 138.082031 133.902344 74.753906 0 135.828125-59.679688 138.082031-133.886719 34.238282-16.519531 62.996094-39.085937 83.417969-65.550781 22.582031-29.257812 34.515625-62.75 34.515625-96.859375 0-52.042969-27.027344-100.777344-76.097656-137.21875zm-179.917969 413.503906c-65.144531 0-118.140625-52.992187-118.140625-118.132812 0-65.136719 52.996094-118.132813 118.140625-118.132813 11.027344 0 21.960937 1.53125 32.5 4.53125 13.464844 5.164063 23.050781 14.894532 29.277344 29.75 1.5625 3.726563 5.207031 6.136719 9.226562 6.136719.105469 0 .210938 0 .316407-.003906 4.144531-.132813 7.78125-2.808594 9.136718-6.726563.183594-.519531.378906-1.015625.566406-1.527344 23.722657 22.257813 37.121094 52.960938 37.121094 85.972657 0 65.140625-53 118.132812-118.144531 118.132812zm70.371094-227.226562c-4.207031-5.644531-9.070313-10.480469-14.582031-14.496094 5.917968-4.203125 10.824218-8.664063 14.753906-13.410156 3.699218 4.945312 8.277344 9.371093 13.726562 13.265625-5.335937 3.890625-9.976562 8.777344-13.898437 14.640625zm62.632812 71.464843c23.785157-13.128906 43.652344-29.820312 57.792969-48.617187 16.5-21.933594 25.222656-46.800781 25.222656-71.90625 0-36.078125-17.972656-71.035156-50.605468-98.433594-31.34375-26.316406-74.832032-44.527343-122.453126-51.289062-5.472656-.785157-10.535156 3.03125-11.3125 8.5-.777343 5.472656 3.03125 10.539062 8.5 11.3125 90.3125 12.820312 155.859376 67.453125 155.859376 129.910156 0 38.9375-25.929688 76.265625-69.914063 101.445313-7.945313-17.679688-19.644531-33.613282-34.59375-46.785157 4.753906-4.917969 10.527344-8.21875 17.394531-9.957031 4.207032-1.066406 7.246094-4.71875 7.527344-9.050781.285156-4.328125-2.257812-8.34375-6.289062-9.949219-16.324219-6.488281-25.964844-15.894531-29.472657-28.761719-1.183593-4.332031-5.109375-7.347656-9.597656-7.371093-.019531 0-.039063 0-.058594 0-4.46875 0-8.398437 2.964843-9.621093 7.265624-2.84375 10.007813-11.933594 19.246094-27.019532 27.492188-11.199218-2.859375-22.734375-4.320312-34.363281-4.320312-55.992187 0-104.3125 33.484374-125.988281 81.480468-44.03125-25.183594-69.988282-62.53125-69.988282-101.488281 0-63.070313 66.292969-117.808594 157.636719-130.15625 5.472657-.738281 9.316407-5.777344 8.574219-11.257813-.742188-5.472656-5.773438-9.3125-11.257812-8.574218-48.054688 6.5-92 24.625-123.742188 51.035156-33.03125 27.488281-51.222656 62.628906-51.222656 98.953125 0 25.105469 8.722656 49.96875 25.222656 71.902344 14.140625 18.804687 34.019531 35.5 57.808594 48.628906-1.855469 6.550781-3.214844 13.269531-4.078125 20.019531-62.234375-32.507812-98.9375-84.242187-98.9375-140.550781 0-95.222656 105.859375-172.691406 235.972656-172.691406 130.132813 0 236.003906 77.46875 236.003906 172.691406 0 56.300781-36.707031 108.039063-98.957031 140.558594-.007812-.066407-2.234375-13.574219-4.042969-20.035157zm0 0"/><path d="m264.570312 249.410156c-1.804687-3.019531-5.066406-4.867187-8.585937-4.867187s-6.78125 1.847656-8.585937 4.867187l-29.027344 48.53125h-48.78125c-3.644532 0-7 1.980469-8.761719 5.171875-1.761719 3.191407-1.644531 7.085938.296875 10.167969l24.667969 39.132812-24.789063 41.460938c-1.851562 3.09375-1.894531 6.9375-.117187 10.070312 1.777343 3.132813 5.101562 5.070313 8.703125 5.070313h51.878906l26.050781 41.332031c1.832031 2.90625 5.027344 4.667969 8.464844 4.667969s6.632813-1.761719 8.464844-4.667969l26.050781-41.332031h51.910156c3.601563 0 6.925782-1.9375 8.703125-5.070313 1.777344-3.132812 1.730469-6.980468-.117187-10.074218l-24.804688-41.460938 24.679688-39.128906c1.945312-3.082031 2.0625-6.976562.300781-10.167969-1.761719-3.191406-5.117187-5.175781-8.761719-5.175781h-48.804687zm-8.585937 24.628906 14.300781 23.902344h-28.59375zm-49.582031 43.910157-2.203125 3.679687-6.890625 11.527344-9.582032-15.203125h18.675782zm-19.171875 71.054687 10.527343-17.605468 11.097657 17.605468zm68.753906 37.242188-10.859375-17.230469h21.722656zm68.285156-108.296875-9.59375 15.210937-9.101562-15.210937zm-16.625 63.867187 6.578125-10.429687 10.542969 17.617187h-21.652344zm-16.925781-10.671875-11.257812 17.863281h-46.949219l-23.234375-36.863281 20.445312-34.191406h52.535156l20.449219 34.183594zm0 0"/><path d="m263.199219 99.429688c-1.179688-4.335938-5.109375-7.351563-9.605469-7.371094-.015625 0-.03125 0-.046875 0-4.476563 0-8.410156 2.972656-9.628906 7.285156-3.019531 10.699219-13.226563 20.53125-30.335938 29.226562-3.542969 1.800782-5.683593 5.527344-5.453125 9.492188.222656 3.964844 2.773438 7.421875 6.496094 8.804688 13.675781 5.09375 23.390625 14.878906 29.695312 29.921874 1.5625 3.726563 5.207032 6.136719 9.226563 6.136719.105469 0 .214844 0 .320313-.003906 4.144531-.132813 7.78125-2.808594 9.136718-6.730469 5.570313-16.101562 14.875-25.585937 28.441406-28.996094 4.210938-1.058593 7.257813-4.707031 7.546876-9.039062.289062-4.328125-2.246094-8.351562-6.277344-9.960938-16.359375-6.515624-26.011719-15.925781-29.515625-28.765624zm-10.289063 52.105468c-4.203125-5.644531-9.066406-10.480468-14.566406-14.492187 5.917969-4.199219 10.828125-8.660157 14.753906-13.40625 3.699219 4.9375 8.273438 9.359375 13.722656 13.25-5.34375 3.890625-9.984374 8.777343-13.910156 14.648437zm0 0"/><path d="m255.984375 60.003906h.199219c5.527344 0 10.007812-4.480468 10.007812-10.007812s-4.480468-10.003906-10.007812-10.003906h-.199219c-5.523437 0-10.003906 4.476562-10.003906 10.003906s4.480469 10.007812 10.003906 10.007812zm0 0"/></svg>