<svg height="512pt" viewBox="0 0 512 512.001" width="512pt" xmlns="http://www.w3.org/2000/svg"><g fill-rule="evenodd"><path d="m388.988281 141.550781h45.953125v79.257813h-45.953125zm0 0" fill="#f9f9f9"/><path d="m411.609375 431.425781h70.386719c11 0 20.011718-9.015625 20.011718-20.015625v-170.589844c0-11.027343-9.011718-20.011718-20.011718-20.011718h-452.019532c-11 0-19.984374 8.984375-19.984374 20.011718v170.589844c0 11 8.988281 20.015625 19.984374 20.015625zm0 0" fill="#ffc15a"/><path d="m78.988281 141.550781h45.953125v79.257813h-45.953125zm0 0" fill="#f9f9f9"/><path d="m233.988281 141.550781h45.953125v79.257813h-45.953125zm0 0" fill="#f9f9f9"/><path d="m388.988281 141.550781h64.488281c10.605469 0 19.25-8.644531 19.25-19.246093 0-10.574219-8.648437-19.246094-19.25-19.246094h-83.027343c-10.570313 0-19.246094 8.671875-19.246094 19.246094 0 10.601562 8.675781 19.246093 19.246094 19.246093zm0 0" fill="#ffcb7c"/><path d="m298.476562 141.550781c10.605469 0 19.25-8.644531 19.25-19.246093 0-10.574219-8.648437-19.246094-19.25-19.246094h-83.027343c-10.570313 0-19.246094 8.671875-19.246094 19.246094 0 10.601562 8.675781 19.246093 19.246094 19.246093zm0 0" fill="#ffcb7c"/><path d="m143.476562 141.550781c10.601563 0 19.246094-8.644531 19.246094-19.246093 0-10.574219-8.644531-19.246094-19.246094-19.246094h-83.027343c-10.570313 0-19.246094 8.671875-19.246094 19.246094 0 10.601562 8.675781 19.246093 19.246094 19.246093zm0 0" fill="#ffcb7c"/><path d="m82.191406 44.519531h39.546875v58.535157h-39.546875zm0 0" fill="#b3b0b5"/><path d="m237.191406 44.519531h39.546875v58.535157h-39.546875zm0 0" fill="#b3b0b5"/><path d="m392.21875 44.519531h39.515625v58.535157h-39.515625zm0 0" fill="#b3b0b5"/><path d="m392.21875 44.519531h50.714844c3.597656 0 6.546875-2.949219 6.546875-6.546875v-21.429687c0-3.601563-2.921875-6.519531-6.492188-6.550781h-62.050781c-3.542969.03125-6.460938 2.949218-6.460938 6.550781v21.429687c0 3.597656 2.945313 6.546875 6.546876 6.546875zm0 0" fill="#cbe558"/><path d="m294.480469 37.972656v-21.429687c0-3.601563-2.917969-6.519531-6.488281-6.550781h-62.050782c-3.542968.03125-6.464844 2.949218-6.464844 6.550781v21.429687c0 3.597656 2.949219 6.546875 6.546876 6.546875h61.910156c3.601562 0 6.546875-2.949219 6.546875-6.546875zm0 0" fill="#cbe558"/><path d="m139.453125 37.972656v-21.429687c0-3.601563-2.890625-6.519531-6.464844-6.550781h-62.050781c-3.570312.03125-6.460938 2.949218-6.460938 6.550781v21.429687c0 3.597656 2.945313 6.546875 6.519532 6.546875h61.9375c3.601562 0 6.519531-2.949219 6.519531-6.546875zm0 0" fill="#cbe558"/><path d="m47.949219 431.425781h52.726562v70.582031h-52.726562zm0 0" fill="#b3b0b5"/><path d="m411.609375 431.425781h52.726563v70.582031h-52.726563zm0 0" fill="#b3b0b5"/><path d="m162.894531 358.941406v-68.570312c0-10.007813-8.164062-18.171875-18.140625-18.171875h-68.570312c-10.007813 0-18.171875 8.164062-18.171875 18.171875v68.570312c0 9.980469 8.164062 18.144532 18.171875 18.144532h68.570312c9.976563 0 18.140625-8.164063 18.140625-18.144532zm0 0" fill="#e8e7e9"/><path d="m137.496094 324.644531c-14.484375-5.753906-23.667969-14.65625-27.042969-27.042969-3.117187 11.054688-12.839844 19.8125-27.042969 27.042969 12.953125 4.84375 21.65625 14.171875 27.042969 27.042969 4.933594-14.234375 13.636719-23.644531 27.042969-27.042969zm0 0" fill="#cbe558"/><path d="m307.804688 358.941406v-68.570312c0-10.007813-8.191407-18.171875-18.171876-18.171875h-68.570312c-9.976562 0-18.167969 8.164062-18.167969 18.171875v68.570312c0 9.980469 8.191407 18.144532 18.167969 18.144532h68.570312c9.980469 0 18.171876-8.164063 18.171876-18.144532zm0 0" fill="#e8e7e9"/><path d="m282.378906 324.644531c-14.488281-5.753906-23.671875-14.65625-27.042968-27.042969-3.121094 11.054688-12.8125 19.8125-27.015626 27.042969 12.925782 4.84375 21.628907 14.171875 27.015626 27.042969 4.929687-14.234375 13.632812-23.644531 27.042968-27.042969zm0 0" fill="#cbe558"/><path d="m448.433594 358.941406v-68.570312c0-10.007813-8.191406-18.171875-18.171875-18.171875h-68.570313c-10.007812 0-18.167968 8.164062-18.167968 18.171875v68.570312c0 9.980469 8.160156 18.144532 18.167968 18.144532h68.570313c9.980469 0 18.171875-8.164063 18.171875-18.144532zm0 0" fill="#e8e7e9"/><path d="m423.003906 324.644531c-14.484375-5.753906-23.667968-14.65625-27.042968-27.042969-3.117188 11.054688-12.839844 19.8125-27.011719 27.042969 12.925781 4.84375 21.628906 14.171875 27.011719 27.042969 4.933593-14.234375 13.636718-23.644531 27.042968-27.042969zm0 0" fill="#cbe558"/></g><path d="m430.261719 387.074219h-68.570313c-15.527344 0-28.164062-12.621094-28.164062-28.132813v-68.570312c0-15.527344 12.636718-28.164063 28.164062-28.164063h68.570313c15.53125 0 28.164062 12.636719 28.164062 28.164063v68.570312c0 15.515625-12.632812 28.132813-28.164062 28.132813zm-68.570313-104.882813c-4.511718 0-8.179687 3.671875-8.179687 8.179688v68.570312c0 4.492188 3.667969 8.148438 8.179687 8.148438h68.570313c4.433593 0 8.179687-3.730469 8.179687-8.148438v-68.570312c0-4.507813-3.667968-8.179688-8.179687-8.179688zm0 0"/><path d="m141.183594 315.355469c-11.722656-4.65625-18.621094-11.324219-21.089844-20.378907-1.179688-4.335937-5.101562-7.347656-9.59375-7.367187-.015625 0-.03125 0-.046875 0-4.46875 0-8.402344 2.972656-9.617187 7.277344-2.113282 7.496093-9.5 14.511719-21.957032 20.851562-3.53125 1.796875-5.667968 5.511719-5.445312 9.46875.226562 3.957031 2.765625 7.40625 6.476562 8.796875 9.824219 3.671875 16.796875 10.71875 21.328125 21.539063 1.558594 3.726562 5.195313 6.136719 9.214844 6.136719.101563 0 .210937-.003907.3125-.003907 4.144531-.132812 7.773437-2.804687 9.128906-6.714843 4.027344-11.625 10.402344-18.183594 20.058594-20.632813 4.199219-1.0625 7.234375-4.714844 7.515625-9.039063.28125-4.320312-2.257812-8.332031-6.285156-9.933593zm-31.308594 16.082031c-2.179688-2.609375-4.558594-4.976562-7.132812-7.097656 2.722656-2.109375 5.144531-4.304688 7.265624-6.585938 1.972657 2.316406 4.203126 4.476563 6.695313 6.476563-2.492187 2.105469-4.765625 4.507812-6.828125 7.207031zm0 0"/><path d="m76.183594 262.207031c-15.53125 0-28.164063 12.636719-28.164063 28.164063v68.570312c0 15.511719 12.632813 28.132813 28.164063 28.132813h68.570312c15.511719 0 28.132813-12.621094 28.132813-28.132813v-68.570312c0-15.527344-12.621094-28.164063-28.132813-28.164063zm76.71875 28.164063v68.570312c0 4.492188-3.65625 8.148438-8.148438 8.148438h-68.570312c-4.511719 0-8.179688-3.652344-8.179688-8.148438v-68.570312c0-4.507813 3.667969-8.179688 8.179688-8.179688h68.570312c4.492188 0 8.148438 3.671875 8.148438 8.179688zm0 0"/><path d="m481.996094 210.816406h-37.066406v-59.273437h8.546874c16.125 0 29.242188-13.117188 29.242188-29.238281 0-16.121094-13.121094-29.242188-29.242188-29.242188h-11.75v-38.550781h1.207032c9.117187 0 16.539062-7.417969 16.539062-16.539063v-21.433594c0-9.117187-7.417968-16.539062-16.539062-16.539062h-61.910156c-9.121094 0-16.539063 7.421875-16.539063 16.539062v21.433594c0 9.117188 7.417969 16.539063 16.539063 16.539063h1.203124v38.550781h-11.777343c-16.121094 0-29.238281 13.117188-29.238281 29.242188 0 16.121093 13.117187 29.238281 29.238281 29.238281h8.546875v59.273437h-89.0625v-59.273437h8.542968c16.125 0 29.242188-13.117188 29.242188-29.238281 0-16.125-13.117188-29.242188-29.242188-29.242188h-11.746093v-38.550781h1.203125c9.121094 0 16.539062-7.417969 16.539062-16.539063v-21.433594c0-9.117187-7.417968-16.539062-16.539062-16.539062h-61.910156c-9.117188 0-16.539063 7.421875-16.539063 16.539062v21.433594c0 9.117188 7.417969 16.539063 16.539063 16.539063h1.175781v38.550781h-11.75c-16.121094 0-29.238281 13.117188-29.238281 29.242188 0 16.121093 13.117187 29.238281 29.238281 29.238281h8.546875v59.273437h-89.066406v-59.273437h8.546874c16.125 0 29.242188-13.117188 29.242188-29.238281 0-16.125-13.121094-29.242188-29.242188-29.242188h-11.75v-38.550781h1.207032c9.105468 0 16.511718-7.417969 16.511718-16.539063v-21.433594c0-9.117187-7.40625-16.539062-16.511718-16.539062h-61.9375c-9.105469 0-16.511719 7.421875-16.511719 16.542969v21.429687c0 9.121094 7.40625 16.539063 16.511719 16.539063h1.203125v38.550781h-11.75c-16.121094 0-29.238281 13.121094-29.238281 29.242188 0 16.121093 13.117187 29.238281 29.238281 29.238281h8.546875v59.273437h-39.019532c-16.527343 0-29.976562 13.460938-29.976562 30.003906v170.589844c0 16.546875 13.449219 30.007813 29.976562 30.007813h7.980469v60.589843c0 5.519532 4.472657 9.992188 9.992188 9.992188h52.726562c5.519531 0 9.992188-4.472656 9.992188-9.992188v-60.589843h105.546875c5.519531 0 9.992187-4.472657 9.992187-9.992188s-4.472656-9.992187-9.992187-9.992187h-186.238282c-5.507812 0-9.992187-4.496094-9.992187-10.019532v-170.59375c0-5.523437 4.484375-10.019531 9.992187-10.019531h452.019532c5.527344 0 10.019531 4.496094 10.019531 10.019531v170.589844c0 5.527344-4.492187 10.023438-10.019531 10.023438h-185.898438c-5.519531 0-9.992187 4.472656-9.992187 9.992187s4.472656 9.992188 9.992187 9.992188h105.519532v60.589843c0 5.519532 4.472656 9.992188 9.992187 9.992188h52.726563c5.515624 0 9.992187-4.472656 9.992187-9.992188v-60.589843h7.664063c16.546874 0 30.007812-13.460938 30.007812-30.007813v-170.589844c0-16.542968-13.460938-30.003906-30.003906-30.003906zm-391.316406 281.199219h-32.738282v-50.597656h32.738282zm293.789062-472.03125h55.019531v14.542969h-55.019531zm17.742188 34.527344h19.53125v38.550781h-19.53125zm-41.015626 67.792969c0-5.019532 4.238282-9.253907 9.253907-9.253907h83.027343c5.105469 0 9.257813 4.148438 9.257813 9.253907 0 5.101562-4.152344 9.253906-9.257813 9.253906h-83.027343c-5.101563 0-9.253907-4.152344-9.253907-9.253906zm37.785157 29.238281h25.96875v59.273437h-25.96875zm-169.511719-131.558594h55.019531v14.542969h-55.019531zm17.714844 34.527344h19.558594v38.550781h-19.558594zm-40.988282 67.792969c0-5.019532 4.238282-9.253907 9.253907-9.253907h83.027343c5.105469 0 9.257813 4.148438 9.257813 9.253907 0 5.101562-4.152344 9.253906-9.257813 9.253906h-83.027343c-5.101563 0-9.253907-4.152344-9.253907-9.253906zm37.785157 29.238281h25.96875v59.273437h-25.96875zm-169.511719-131.558594h54.992188v14.542969h-54.992188zm17.714844 34.527344h19.558594v38.550781h-19.558594zm-40.988282 67.792969c0-5.019532 4.238282-9.253907 9.253907-9.253907h83.027343c5.105469 0 9.257813 4.148438 9.257813 9.253907 0 5.101562-4.152344 9.253906-9.257813 9.253906h-83.027343c-5.101563 0-9.253907-4.152344-9.253907-9.253906zm37.785157 29.238281h25.964843v59.273437h-25.964843zm365.363281 340.472656h-32.742188v-50.597656h32.742188zm0 0"/><path d="m286.066406 315.355469c-11.726562-4.65625-18.625-11.324219-21.089844-20.378907-1.179687-4.335937-5.105468-7.347656-9.597656-7.367187-4.496094-.046875-8.445312 2.957031-9.660156 7.277344-2.117188 7.507812-9.496094 14.523437-21.929688 20.851562-3.53125 1.796875-5.667968 5.507813-5.445312 9.464844.222656 3.953125 2.757812 7.40625 6.46875 8.796875 9.808594 3.675781 16.777344 10.722656 21.304688 21.542969 1.558593 3.726562 5.199218 6.136719 9.214843 6.136719.105469 0 .210938-.003907.316407-.003907 4.140624-.132812 7.769531-2.804687 9.128906-6.714843 4.027344-11.625 10.402344-18.183594 20.054687-20.632813 4.199219-1.0625 7.234375-4.714844 7.515625-9.039063.28125-4.320312-2.253906-8.332031-6.28125-9.933593zm-31.308594 16.078125c-2.175781-2.605469-4.550781-4.96875-7.121093-7.085938 2.71875-2.113281 5.140625-4.304687 7.261719-6.585937 1.96875 2.3125 4.199218 4.472656 6.6875 6.46875-2.492188 2.105469-4.769532 4.507812-6.828126 7.203125zm0 0"/><path d="m317.796875 358.941406v-68.570312c0-15.527344-12.632813-28.164063-28.164063-28.164063h-68.570312c-15.527344 0-28.160156 12.636719-28.160156 28.164063v68.570312c0 15.511719 12.632812 28.132813 28.160156 28.132813h68.570312c15.53125 0 28.164063-12.617188 28.164063-28.132813zm-104.914063 0v-68.570312c0-4.507813 3.667969-8.179688 8.179688-8.179688h68.570312c4.507813 0 8.175782 3.671875 8.175782 8.179688v68.570312c0 4.417969-3.742188 8.148438-8.175782 8.148438h-68.570312c-4.433594 0-8.179688-3.730469-8.179688-8.148438zm0 0"/><path d="m386.746094 355.542969c1.558594 3.726562 5.199218 6.136719 9.214844 6.136719.105468 0 .210937-.003907.316406-.007813 4.140625-.128906 7.769531-2.800781 9.125-6.714844 4.027344-11.625 10.402344-18.179687 20.058594-20.628906 4.199218-1.066406 7.234374-4.714844 7.515624-9.039063.28125-4.320312-2.257812-8.332031-6.28125-9.933593-11.726562-4.65625-18.625-11.324219-21.09375-20.378907-1.179687-4.335937-5.101562-7.347656-9.59375-7.367187-.015624 0-.03125 0-.046874 0-4.46875 0-8.402344 2.972656-9.617188 7.277344-2.109375 7.492187-9.492188 14.507812-21.933594 20.855469-3.527344 1.796874-5.660156 5.511718-5.4375 9.464843s2.761719 7.402344 6.46875 8.792969c9.808594 3.675781 16.777344 10.722656 21.304688 21.542969zm8.773437-37.789063c1.972657 2.316406 4.203125 4.476563 6.691407 6.476563-2.488282 2.105469-4.765626 4.507812-6.824219 7.203125-2.179688-2.605469-4.554688-4.972656-7.128907-7.09375 2.722657-2.109375 5.140626-4.304688 7.261719-6.585938zm0 0"/><path d="m256.328125 421.433594h-.171875c-5.519531 0-9.992188 4.472656-9.992188 9.992187s4.472657 9.992188 9.992188 9.992188h.171875c5.515625 0 9.992187-4.476563 9.992187-9.992188 0-5.519531-4.476562-9.992187-9.992187-9.992187zm0 0"/></svg>