<svg height="511pt" viewBox="0 -4 511.99988 511" width="511pt" xmlns="http://www.w3.org/2000/svg"><g fill-rule="evenodd"><path d="m269.75 258.726562 53.230469-34.953124 29.816406-29.847657-43.507813-43.554687-32.566406 32.601562-52.722656 35.578125-50.621094 67.894531-154.394531 154.519532c-11.960937 11.972656-11.960937 31.578125 0 43.550781 5.984375 5.960937 13.863281 8.96875 21.769531 8.96875 7.882813 0 15.761719-2.980469 21.742188-8.96875l173.582031-173.75zm0 0" fill="#ffcb7c"/><path d="m309.289062 150.375 43.511719 43.550781 17.261719 17.277344c8.644531 8.65625 22.757812 8.65625 31.40625 0 8.617188-8.625 8.617188-22.78125 0-31.40625l-2.695312-2.695313-14.597657-14.613281-43.507812-43.519531-14.878907-14.925781-2.695312-2.695313c-8.644531-8.625-22.761719-8.625-31.375 0-8.648438 8.652344-8.648438 22.785156 0 31.4375zm0 0" fill="#f9f9f9"/><path d="m340.667969 118.964844 43.507812 43.523437 14.597657 14.613281c19.046874.167969 38.152343-7.039062 52.691406-21.59375 28.742187-28.769531 28.742187-75.441406 0-104.210937-28.742188-28.769531-75.367188-28.769531-104.109375 0-14.539063 14.554687-21.738281 33.679687-21.570313 52.742187zm0 0" fill="#f6838d"/><path d="m454.753906 254.613281c-5.46875 19.324219-22.449218 34.644531-47.25 47.296875 22.617188 8.457032 37.808594 24.796875 47.25 47.296875 8.585938-24.910156 23.808594-41.367187 47.25-47.296875-25.3125-10.070312-41.382812-25.648437-47.25-47.296875zm0 0" fill="#ffc15a"/><path d="m196.675781 105.0625c8.589844-24.910156 23.78125-41.367188 47.222657-47.269531-25.3125-10.070313-41.355469-25.675781-47.222657-47.296875-5.496093 19.292968-22.449219 34.644531-47.25 47.296875 22.621094 8.429687 37.8125 24.800781 47.25 47.269531zm0 0" fill="#ffc15a"/><path d="m485.988281 53.085938c-18.648437-7.433594-30.496093-18.925782-34.804687-34.871094-2.296875 8.085937-7.3125 15.207031-14.570313 21.589844-5.527343 4.851562-12.359375 9.25-20.265625 13.277343 16.667969 6.214844 27.863282 18.273438 34.835938 34.84375 2.917968-8.484375 6.886718-15.664062 12.015625-21.335937 5.980469-6.582032 13.519531-11.179688 22.789062-13.503906zm0 0" fill="#ffc15a"/></g><path d="m416.320312 185.394531c15.875-3.246093 30.464844-11.058593 42.21875-22.820312 24.769532-24.792969 31.261719-62.308594 17.019532-93.71875 3.753906-2.828125 8.039062-4.855469 12.882812-6.082031 4.203125-1.0625 7.238282-4.710938 7.523438-9.035157s-2.25-8.335937-6.273438-9.941406c-16.019531-6.386719-25.457031-15.605469-28.859375-28.191406-1.171875-4.335938-5.089843-7.359375-9.582031-7.386719-.023438 0-.046875 0-.066406 0-4.464844 0-8.390625 2.960938-9.617188 7.257812-1.195312 4.210938-3.46875 8.226563-6.804687 12.082032-31.578125-14.789063-69.441407-8.417969-94.476563 16.671875-11.753906 11.765625-19.546875 26.375-22.785156 42.261719-11.1875-3.671876-23.992188-1.082032-32.855469 7.789062-12.550781 12.5625-12.550781 33.003906 0 45.566406l10.515625 10.523438-24.828125 24.855468-51.921875 35.039063c-.929687.628906-1.75 1.410156-2.421875 2.308594l-50.191406 67.316406-153.882813 154.007813c-15.886718 15.90625-15.886718 41.78125.007813 57.691406 7.953125 7.941406 18.390625 11.914062 28.828125 11.914062 10.441406 0 20.878906-3.976562 28.816406-11.921875l57.652344-57.710937c3.902344-3.90625 3.898438-10.234375-.007812-14.136719s-10.234376-3.898437-14.136719.007813l-57.652344 57.710937c-8.085937 8.09375-21.261719 8.089844-29.363281 0-8.101563-8.113281-8.101563-21.3125 0-29.421875l154.390625-154.519531c.339843-.339844.65625-.703125.941406-1.089844l49.609375-66.53125 51.3125-34.632813c.53125-.355468 1.027344-.765624 1.480469-1.21875l25.496093-25.523437 29.378907 29.410156-22.035157 22.054688-52.371093 34.390625c-1.160157.765625-2.152344 1.761718-2.90625 2.925781l-33.09375 51.144531-57.980469 57.953125c-3.90625 3.90625-3.90625 10.234375-.003906 14.136719 3.902344 3.90625 10.230468 3.90625 14.136718.003906l58.730469-58.703125c.496094-.496093.941407-1.046875 1.324219-1.640625l32.53125-50.261718 51.46875-33.800782c.570312-.375 1.101562-.808594 1.585938-1.289062l22.746093-22.769532 10.191407 10.199219c6.066406 6.074219 14.15625 9.421875 22.773437 9.421875s16.703125-3.347656 22.773437-9.421875c8.867188-8.878906 11.457032-21.691406 7.78125-32.875zm26.867188-138.0625c.074219-.066406.148438-.128906.222656-.195312 2.71875-2.398438 5.15625-4.871094 7.289063-7.433594 3.578125 4.761719 7.992187 9.027344 13.226562 12.796875-5.132812 3.773438-9.605469 8.484375-13.398437 14.121094-4.070313-5.429688-8.761719-10.097656-14.054688-13.984375 2.410156-1.722657 4.640625-3.492188 6.714844-5.304688zm-48.792969 156.808594c-2.292969 2.292969-5.359375 3.558594-8.632812 3.558594-3.269531 0-6.335938-1.265625-8.628907-3.558594l-78.34375-78.421875c-4.765624-4.773438-4.765624-12.535156 0-17.308594 2.371094-2.371094 5.488282-3.558594 8.609376-3.558594 3.121093 0 6.246093 1.1875 8.625 3.558594l2.6875 2.691406v.003907l36.9375 37.003906 36.054687 36.0625h.003906l2.6875 2.691406c4.675781 4.679688 4.675781 12.59375 0 17.277344zm-58.527343-104.152344c.816406-15.71875 7.324218-30.378906 18.566406-41.628906 16.398437-16.4375 40.023437-22.308594 61.601562-16.453125-1.363281.765625-2.761718 1.523438-4.234375 2.277344-3.53125 1.800781-5.660156 5.519531-5.433593 9.476562.226562 3.957032 2.773437 7.40625 6.488281 8.792969 13.375 4.984375 22.898437 14.585937 29.113281 29.351563 1.566406 3.714843 5.203125 6.121093 9.210938 6.121093.113281 0 .226562-.003906.335937-.007812 4.144531-.140625 7.769531-2.816407 9.117187-6.734375.246094-.714844.507813-1.402344.769532-2.089844 4.8125 20.964844-1.222656 43.550781-17.007813 59.351562-11.234375 11.246094-25.867187 17.757813-41.5625 18.574219zm0 0"/><path d="m145.9375 67.160156c19.128906 7.128906 32.710938 20.792969 41.523438 41.773438 1.5625 3.71875 5.203124 6.125 9.214843 6.125.109375 0 .21875 0 .332031-.003906 4.140626-.136719 7.769532-2.816407 9.121094-6.734376 7.800782-22.628906 20.957032-35.984374 40.210938-40.832031 4.207031-1.058593 7.25-4.707031 7.535156-9.035156s-2.25-8.34375-6.28125-9.945313c-22.8125-9.082031-36.3125-22.371093-41.269531-40.628906-1.175781-4.332031-5.09375-7.347656-9.582031-7.378906-.023438 0-.042969 0-.066407 0-4.460937 0-8.386719 2.960938-9.613281 7.257812-4.398438 15.441407-18.195312 28.894532-42.179688 41.132813-3.53125 1.800781-5.664062 5.519531-5.433593 9.476563.226562 3.960937 2.773437 7.410156 6.488281 8.792968zm50.253906-33.515625c5.90625 9.039063 13.960938 16.839844 24.125 23.359375-9.789062 6.140625-17.917968 14.679688-24.34375 25.574219-6.960937-10.414063-15.492187-18.898437-25.53125-25.394531 10.988282-7.242188 19.539063-15.058594 25.75-23.539063zm0 0"/><path d="m505.699219 292.625c-22.84375-9.09375-36.351563-22.378906-41.296875-40.625-1.175782-4.335938-5.097656-7.355469-9.59375-7.382812-.015625 0-.035156 0-.054688 0-4.46875 0-8.398437 2.96875-9.617187 7.273437-4.367188 15.414063-18.160157 28.863281-42.175781 41.117187-3.53125 1.800782-5.664063 5.515626-5.4375 9.472657.226562 3.957031 2.769531 7.40625 6.480468 8.792969 19.148438 7.160156 32.734375 20.832031 41.53125 41.800781 1.5625 3.722656 5.199219 6.128906 9.214844 6.128906.109375 0 .21875 0 .328125-.003906 4.144531-.136719 7.773437-2.8125 9.125-6.730469 7.800781-22.621094 20.964844-35.988281 40.253906-40.867188 4.199219-1.0625 7.238281-4.710937 7.519531-9.035156.285157-4.324218-2.25-8.339844-6.277343-9.941406zm-51.644531 34.097656c-6.960938-10.417968-15.496094-18.90625-25.546876-25.414062 11-7.246094 19.558594-15.0625 25.765626-23.539063 5.914062 9.039063 13.980468 16.839844 24.15625 23.363281-9.804688 6.144532-17.945313 14.691407-24.375 25.589844zm0 0"/><path d="m143.039062 389.835938-.140624.113281c-4.3125 3.445312-5.011719 9.738281-1.5625 14.046875 1.976562 2.46875 4.882812 3.753906 7.8125 3.753906 2.191406 0 4.394531-.71875 6.238281-2.191406l.144531-.113282c4.308594-3.449218 5.007812-9.738281 1.558594-14.050781-3.445313-4.308593-9.738282-5.007812-14.050782-1.558593zm0 0"/></svg>