<svg height="512pt" viewBox="-54 0 512 512" width="512pt" xmlns="http://www.w3.org/2000/svg"><g fill-rule="evenodd"><path d="m191.28125 103.71875c-11.464844 23.640625 3.859375 83.757812 68.105469 67.375 2.582031 10.148438 2.695312 21.289062-2.128907 32.710938h47.246094c2.46875-10.742188 3.152344-23.667969 2.839844-36.734376-.738281-29.507812-6.554688-59.75-8.742188-67.375 0 0-27.410156-5.359374-29.199218 29.109376-.792969 15.589843-45.96875 21.230468-36.546875-24.773438 8.738281-42.515625-41.574219-60.261719-9.90625-94.019531-87.425781 0-89.1875 56.460937-90.121094 89.230469-.910156 31.007812-43.871094 24.660156-39.132813 3.855468-16.628906 15.277344-27.808593 39-28.488281 63.972656-.34375 12.214844 1.816407 24.746094 7.066407 36.734376h47.332031c-10.328125-21.203126-6.386719-41.410157 3.832031-51.785157-.539062 24.488281 36.519531 24.488281 37.484375-.539062.308594-8.023438.878906-43.824219 30.359375-47.761719zm0 0" fill="#ff6977"/><path d="m259.386719 171.09375c-64.246094 16.382812-79.570313-43.734375-68.105469-67.375-29.480469 3.941406-30.050781 39.738281-30.363281 47.761719-.964844 25.027343-38.023438 25.027343-37.484375.539062-10.214844 10.375-14.160156 30.582031-3.832032 51.785157h137.65625c4.824219-11.421876 4.710938-22.5625 2.128907-32.710938zm0 0" fill="#ffc15a"/><path d="m72.269531 203.804688c-5.25-11.992188-7.40625-24.519532-7.066406-36.738282h-36.804687c-12.085938 0-18.132813 9.1875-18.132813 18.367188 0 9.183594 6.046875 18.367187 18.132813 18.367187h43.871093zm0 0" fill="#b3b0b5"/><path d="m307.34375 167.070312c.3125 13.066407-.371094 25.992188-2.839844 36.734376h31.613282c15.550781 0 21.566406 11.480468 21.566406 23.214843v80.976563h35.328125v-117.683594c0-11.738281-6.015625-23.246094-21.566407-23.246094h-64.101562zm0 0" fill="#b3b0b5"/><path d="m336.117188 203.804688h-307.71875c-12.085938 0-18.132813-9.1875-18.132813-18.367188l-.054687 76.046875h347.472656v-34.464844c0-11.738281-6.015625-23.214843-21.566406-23.214843zm0 0" fill="#e8b3ce"/><path d="m393.011719 397.679688h-35.328125v70.890624h20.601562c8.085938 0 14.726563-6.632812 14.726563-14.710937zm0 0" fill="#b3b0b5"/><path d="m357.683594 397.679688h35.328125v-89.679688h-85.441407c-26.789062 0-48.695312 20.179688-48.695312 44.839844s21.90625 44.839844 48.695312 44.839844zm0 0" fill="#ffc15a"/><path d="m307.398438 366.644531c7.632812 0 13.820312-6.179687 13.820312-13.804687 0-5.5-3.234375-10.261719-7.917969-12.472656-1.785156-.851563-3.800781-1.304688-5.902343-1.304688-7.632813 0-13.789063 6.152344-13.789063 13.777344 0 5.242187 2.921875 9.804687 7.234375 12.128906 1.960938 1.078125 4.171875 1.675781 6.554688 1.675781zm0 0" fill="#f9f9f9"/><path d="m307.570312 397.679688c-26.789062 0-48.695312-20.179688-48.695312-44.839844s21.90625-44.839844 48.695312-44.839844h50.113282v-46.515625h-347.472656l-.171876 181.691406h347.644532v-45.492187h-50.113282zm0 0" fill="#d675a7"/><path d="m357.683594 443.175781h-347.644532l-.027343 44.101563c0 8.078125 6.613281 14.710937 14.726562 14.710937h318.246094c8.085937 0 14.699219-6.632812 14.699219-14.710937zm0 0" fill="#e8b3ce"/></g><path d="m371.445312 157.058594h-54.539062c-1.542969-26.949219-6.445312-52.328125-8.679688-60.121094-1.035156-3.617188-4.011718-6.347656-7.703124-7.070312-1.53125-.296876-15.292969-2.65625-26.976563 6.464843-8.539063 6.671875-13.285156 17.261719-14.117187 31.492188-1.238282 1.4375-6.542969 3.398437-11.351563 1.472656-8.488281-3.398437-6.617187-17.398437-5.417969-23.25 4.636719-22.554687-4.609375-39.164063-12.039062-52.511719-9.210938-16.546875-12.464844-23.777344-.367188-36.671875 2.730469-2.914062 3.46875-7.167969 1.882813-10.828125-1.585938-3.664062-5.195313-6.035156-9.1875-6.035156-97.304688 0-99.214844 66.835938-100.128907 98.945312-.160156 5.429688-2.035156 8.890626-5.734374 10.582032-4.371094 2.003906-9.886719.964844-12.484376-1.148438-1.4375-1.167968-1.371093-2.078125-1.144531-3.058594.972657-4.273437-.945312-8.683593-4.738281-10.882812-3.789062-2.199219-8.570312-1.679688-11.796875 1.289062-13.996094 12.859376-24.285156 30.695313-28.96875 50.222657-.886719 3.703125-1.550781 7.410156-2.019531 11.109375h-27.535156c-18.28125 0-28.144532 14.621094-28.144532 28.378906v.042969l-.2187498 257.515625c0 .058594-.0078124.117187-.0078124.179687 0 .058594.0078124.117188.0078124.175781l-.0351562 43.925782c0 13.632812 11.097656 24.722656 24.738281 24.722656h318.246094c13.625 0 24.710937-11.089844 24.710937-24.722656v-8.695313h10.589844c13.640625 0 24.738282-11.089843 24.738282-24.722656v-263.546875c0-19.890625-12.691407-33.253906-31.578126-33.253906zm-63.875 230.613281c-21.332031 0-38.683593-15.625-38.683593-34.832031 0-19.203125 17.351562-34.828125 38.683593-34.828125h75.429688v69.660156zm75.429688-197.359375v107.675781h-15.304688v-70.96875c0-19.875-12.691406-33.226562-31.578124-33.226562h-19.820313c.609375-5.355469.941406-10.976563 1.046875-16.710938h54.101562c7.667969-.003906 11.554688 4.449219 11.554688 13.230469zm-292.824219-67.996094c.5625.550782 1.164063 1.082032 1.792969 1.597656 8.867188 7.207032 22.625 8.777344 33.457031 3.820313 10.679688-4.894531 17.027344-15.171875 17.410157-28.207031.429687-15.148438 1.023437-35.894532 11.085937-51.847656 9.480469-15.03125 26.039063-23.824219 50.347656-26.648438-5.59375 16.28125 2.234375 30.339844 8.859375 42.242188 6.714844 12.066406 13.058594 23.464843 9.917969 38.75-5.109375 24.953124 4.238281 36.773437 10.265625 41.601562 10.078125 8.070312 23.546875 7.660156 32.421875 3.671875 8.171875-3.671875 13.28125-10.394531 13.667969-17.972656.296875-5.722657 1.636718-13.332031 6.351562-17.117188 1.542969-1.238281 3.285156-1.945312 4.925782-2.34375 3.484374 17.289063 9.207031 56.257813 5.449218 83.929688h-25.671875c1.273438-8.136719.824219-16.558594-1.367187-25.167969-.65625-2.574219-2.308594-4.78125-4.589844-6.136719-2.285156-1.355469-5.011719-1.75-7.585938-1.09375-21.699218 5.53125-38.691406 1.695313-49.136718-11.101562-11.441406-14.019531-11.699219-33.519531-7.488282-42.203125 1.609376-3.316406 1.265626-7.25-.894531-10.234375-2.160156-2.988281-5.78125-4.542969-9.4375-4.058594-15.871093 2.121094-27.570312 11.757813-33.835937 27.875-4.558594 11.730469-4.996094 23.691406-5.183594 28.800781l-.023438.621094c-.351562 9.226562-8.820312 9.234375-9.785156 9.210938-2.933594-.089844-7.835937-1.253907-7.6875-8.066407.089844-4.101562-2.332031-7.84375-6.109375-9.441406-3.78125-1.597656-8.152343-.726563-11.03125 2.199219-9.910156 10.0625-16.039062 28.097656-10.953125 48.796875h-26.21875c-2.988281-8.808594-4.179687-17.746094-3.925781-26.445313.003906-.09375.015625-.183594.015625-.277344 0-.023437-.003906-.042968-.003906-.066406.554687-16.65625 6.375-32.410156 14.960937-44.6875zm36.070313 71.476563c-2.488282-7.019531-3.097656-13.585938-2.417969-19.246094 4.796875 3.632813 10.742187 5.589844 16.695313 5.769531.296874.007813.59375.011719.890624.011719 13.941407 0 28.789063-9.808594 29.507813-28.460937l.027344-.664063c.460937-12.664063 2.742187-22.070313 6.90625-28.335937.339843 13.417968 4.777343 28.28125 14.410156 40.085937 8.128906 9.957031 26.097656 24.796875 58.847656 20.011719.160157 3.707031-.191406 7.304687-1.046875 10.828125zm-105.96875-8.347657c0-.015624 0-.03125 0-.046874.007812-2.003907.636718-8.320313 8.121094-8.320313h27.023437c.4375 5.65625 1.382813 11.242187 2.8125 16.714844h-29.835937c-7.476563 0-8.109376-6.296875-8.121094-8.308594zm8.121094 28.367188h43.835937c.015625 0 .027344.003906.042969.003906.019531 0 .035156-.003906.054687-.003906h184.863281c.019532 0 .039063.003906.058594.003906.011719 0 .027344-.003906.039063-.003906h78.824219c2.855468 0 11.554687 0 11.554687 13.203125v24.457031h-128.921875c-5.527344 0-10.011719 4.480469-10.011719 10.011719 0 5.527344 4.480469 10.011719 10.011719 10.011719h128.921875v26.488281h-40.105469c-32.371094 0-58.703125 24.609375-58.703125 54.855469s26.332031 54.851562 58.703125 54.851562h40.105469v25.46875h-327.601563l.136719-161.664062h122.722657c5.527343 0 10.011718-4.480469 10.011718-10.011719 0-5.527344-4.480468-10.011719-10.011718-10.011719h-122.707032l.035156-38.722656c2.492188.6875 5.210938 1.0625 8.140626 1.0625zm314.585937 278.164062h-318.246094c-2.554687 0-4.714843-2.152343-4.714843-4.691406l.03125-34.101562h327.617187v34.09375c0 2.546875-2.148437 4.699218-4.6875 4.699218zm35.300781-33.417968h-10.589844v-50.867188h15.304688v46.167969c0 2.546875-2.160156 4.699219-4.714844 4.699219zm0 0"/><path d="m317.605469 331.328125c-3.128907-1.488281-6.660157-2.273437-10.207031-2.273437-13.125 0-23.800782 10.667968-23.800782 23.785156 0 8.765625 4.789063 16.789062 12.421875 20.902344 3.511719 1.933593 7.339844 2.914062 11.378907 2.914062 13.140624 0 23.832031-10.683594 23.832031-23.816406 0-9.160156-5.359375-17.609375-13.625-21.511719zm-10.207031 25.304687c-.632813 0-1.199219-.144531-1.804688-.476562-.953125-.511719-1.972656-1.65625-1.972656-3.316406 0-2.113282 1.660156-3.765625 3.777344-3.765625.589843 0 1.140624.117187 1.628906.347656 1.324218.625 2.179687 1.96875 2.179687 3.417969 0 2.089844-1.707031 3.792968-3.808593 3.792968zm0 0"/><path d="m183.421875 272.007812h.199219c5.527344 0 10.011718-4.484374 10.011718-10.011718 0-5.53125-4.480468-10.011719-10.011718-10.011719h-.199219c-5.527344 0-10.011719 4.480469-10.011719 10.011719 0 5.527344 4.480469 10.011718 10.011719 10.011718zm0 0"/></svg>