<svg height="512pt" viewBox="-58 0 512 512" width="512pt" xmlns="http://www.w3.org/2000/svg"><g fill-rule="evenodd"><path d="m72.707031 464.324219h250.589844c38.476563-34.4375 62.699219-84.46875 62.699219-140.195313 0-33.136718-8.554688-64.230468-23.570313-91.273437-151.902343 47.054687-188.820312-59.75-328.820312-.054688-15.042969 27.039063-23.601563 58.164063-23.601563 91.328125 0 55.726563 24.226563 105.757813 62.703125 140.195313zm0 0" fill="#e8b3ce"/><path d="m72.707031 464.324219h250.589844v37.671875h-250.589844zm0 0" fill="#f9f9f9"/><path d="m33.605469 232.800781c140-59.699219 176.917969 47.109375 328.820312.054688-21.902343-39.429688-57.578125-70.125-100.53125-85.660157v-102.015624h-127.785156v102.015624c-42.929687 15.503907-78.574219 46.203126-100.503906 85.605469zm0 0" fill="#f9f9f9"/><path d="m189.558594 305.875c-11.675782-48.160156-127.871094-16.980469-9.519532 94.132812 2.4375 2.523438 5.382813 4.28125 8.527344 5.300782 1.617188.539062 3.316406.878906 5.015625 1.050781 1.699219-.171875 3.398438-.511719 5.015625-1.050781 3.144532-1.019532 6.089844-2.777344 8.527344-5.300782 118.351562-111.113281 2.152344-142.292968-9.519531-94.132812-.539063 2.183594-2.265625 3.257812-4.023438 3.257812-1.757812 0-3.484375-1.078124-4.023437-3.257812zm0 0" fill="#ff6977"/><path d="m203.128906 103.570312c0-8.617187-6.96875-15.617187-15.582031-15.617187-8.644531 0-15.613281 7-15.613281 15.617187 0 8.617188 6.96875 15.589844 15.613281 15.589844 8.613281 0 15.582031-6.972656 15.582031-15.589844zm0 0" fill="#e8b3ce"/><path d="m230.8125 172.28125c0-10.089844-8.191406-18.28125-18.277344-18.28125-10.113281 0-18.273437 8.191406-18.273437 18.28125 0 10.121094 8.160156 18.285156 18.273437 18.285156 10.089844-.003906 18.277344-8.164062 18.277344-18.285156zm0 0" fill="#e8b3ce"/><path d="m134.109375 45.179688h148.042969c9.691406 0 17.597656-7.90625 17.597656-17.601563 0-9.636719-7.847656-17.519531-17.480469-17.574219h-168.535156c-9.601563.054688-17.480469 7.9375-17.480469 17.574219 0 9.691406 7.90625 17.601563 17.597656 17.601563zm0 0" fill="#b3b0b5"/></g><path d="m187.546875 129.164062c14.109375 0 25.585937-11.480468 25.585937-25.589843 0-14.128907-11.476562-25.625-25.585937-25.625-14.125 0-25.617187 11.496093-25.617187 25.625 0 14.109375 11.492187 25.589843 25.617187 25.589843zm0-31.207031c3.074219 0 5.578125 2.519531 5.578125 5.613281 0 3.082032-2.503906 5.585938-5.578125 5.585938-3.09375 0-5.609375-2.503906-5.609375-5.585938 0-3.09375 2.515625-5.613281 5.609375-5.613281zm0 0"/><path d="m184.257812 172.28125c0 15.597656 12.6875 28.289062 28.277344 28.289062 15.59375 0 28.28125-12.691406 28.28125-28.289062s-12.683594-28.285156-28.28125-28.285156c-15.59375 0-28.277344 12.6875-28.277344 28.285156zm36.550782 0c0 4.566406-3.710938 8.28125-8.269532 8.28125-4.5625 0-8.273437-3.714844-8.273437-8.28125 0-4.5625 3.710937-8.277344 8.273437-8.277344 4.558594 0 8.269532 3.710938 8.269532 8.277344zm0 0"/><path d="m396.003906 324.128906c0-33.636718-8.574218-66.847656-24.792968-96.054687-.011719-.023438-.027344-.050781-.039063-.074219-.003906-.003906-.003906-.003906-.003906-.007812-22.175781-39.863282-57.246094-70.78125-99.269531-87.683594v-85.125h10.253906c15.21875 0 27.601562-12.382813 27.601562-27.605469 0-15.207031-12.382812-27.578125-27.601562-27.578125h-168.304688c-15.21875 0-27.597656 12.371094-27.597656 27.578125 0 15.222656 12.378906 27.605469 27.597656 27.605469h10.257813v85.125c-35.085938 14.105468-65.171875 37.785156-87.328125 68.8125-4.367188 6.117187-8.355469 12.4375-11.96875 18.925781-.027344.058594-.0625.109375-.09375.167969-16.222656 29.226562-24.714844 61.976562-24.714844 95.914062 0 54.761719 22.800781 107.191406 62.703125 144.585938v33.28125c0 5.523437 4.480469 10.003906 10.003906 10.003906h250.589844c5.523437 0 10.003906-4.476562 10.003906-10.003906v-33.28125c39.898438-37.394532 62.703125-89.824219 62.703125-144.585938zm-289.746094-296.550781c0-4.175781 3.40625-7.570313 7.589844-7.570313h168.304688c4.1875 0 7.59375 3.394532 7.59375 7.570313 0 4.191406-3.40625 7.597656-7.59375 7.597656h-168.304688c-4.183594 0-7.589844-3.40625-7.589844-7.597656zm31.25 129.027344c3.964844-1.433594 6.605469-5.195313 6.605469-9.410157v-92.011718h107.777344v92.011718c0 4.214844 2.640625 7.976563 6.605469 9.410157 36.425781 13.15625 67.484375 37.867187 88.617187 70.238281-64.289062 17.015625-106.574219 4.628906-147.539062-7.378906-40.265625-11.804688-81.714844-23.945313-140.488281-6.527344 20.058593-25.132812 46.921874-44.945312 78.421874-56.332031zm-54.796874 335.386719v-17.664063h75.367187c5.527344 0 10.003906-4.476563 10.003906-10.003906 0-5.527344-4.476562-10.003907-10.003906-10.003907h-81.488281c-36.003906-33.632812-56.582032-80.867187-56.582032-130.191406 0-29.753906 7.480469-58.320312 20.902344-83.542968 66.414063-27.308594 108.511719-14.972657 153.035156-1.921876 27.039063 7.925782 56.28125 16.5 92.550782 16.5 20.960937 0 44.285156-2.882812 70.875-10.390624 12.191406 24.5 18.621094 51.757812 18.621094 79.355468 0 49.328125-20.574219 96.558594-56.582032 130.191406h-83.609375c-5.527343 0-10.003906 4.480469-10.003906 10.003907 0 5.527343 4.476563 10.003906 10.003906 10.003906h77.488281v17.664063zm0 0"/><path d="m198.199219 454.320312h-.199219c-5.523438 0-10.003906 4.480469-10.003906 10.003907 0 5.527343 4.480468 10.003906 10.003906 10.003906h.199219c5.523437 0 10.003906-4.476563 10.003906-10.003906 0-5.523438-4.476563-10.003907-10.003906-10.003907zm0 0"/><path d="m266.140625 297.636719c-7.101563-15.761719-24.324219-25.195313-42.820313-23.476563-12.734374 1.183594-23.289062 7.234375-29.742187 16.550782-6.460937-9.320313-17.007813-15.367188-29.734375-16.550782-18.515625-1.722656-35.71875 7.714844-42.820312 23.476563-7.171876 15.914062-9.9375 51.292969 52.007812 109.515625 3.433594 3.492187 7.730469 6.144531 12.371094 7.648437 2.253906.75 4.667968 1.261719 7.175781 1.511719.335937.035156.667969.050781 1.003906.050781.332031 0 .664063-.015625 1-.050781 2.507813-.25 4.921875-.761719 7.101563-1.488281 4.714844-1.527344 9.011718-4.179688 12.449218-7.671875 61.945313-58.222656 59.179688-93.601563 52.007813-109.515625zm-65.863281 95.078125c-.117188.113281-.230469.226562-.347656.34375-1.214844 1.257812-2.703126 2.179687-4.496094 2.761718-.570313.191407-1.191406.339844-1.851563.453126-.667969-.113282-1.304687-.269532-1.929687-.476563-1.71875-.558594-3.207032-1.480469-4.421875-2.738281-.113281-.117188-.226563-.230469-.347657-.34375-56.570312-53.109375-50.75-79.910156-47.621093-86.859375 3.765625-8.359375 12.5625-11.882813 20.378906-11.882813.796875 0 1.582031.039063 2.347656.109375 3.460938.320313 14.972657 2.292969 17.855469 14.1875 1.605469 6.5 7.125 10.867188 13.734375 10.867188 6.613281 0 12.136719-4.367188 13.746094-10.90625 2.875-11.855469 14.386719-13.828125 17.847656-14.148438 8.324219-.773437 18.574219 2.566407 22.722656 11.773438 3.132813 6.949219 8.953125 33.75-47.617187 86.859375zm0 0"/></svg>