<svg height="512pt" viewBox="0 -30 512.00019 512" width="512pt" xmlns="http://www.w3.org/2000/svg"><g fill-rule="evenodd"><path d="m301.128906 53.203125v24.800781c0 12.46875 10.234375 22.675782 22.707032 22.675782 12.472656 0 22.707031-10.207032 22.707031-22.675782v-24.800781c0-12.472656-10.234375-22.675781-22.707031-22.675781-12.472657 0-22.707032 10.203125-22.707032 22.675781zm0 0" fill="#ffcbbe"/><path d="m346.542969 53.203125v16.777344c0 12.472656 10.207031 22.703125 22.679687 22.703125s22.707032-10.230469 22.707032-22.703125v-37.300781c0-12.46875-10.234376-22.671876-22.707032-22.671876s-22.679687 10.203126-22.679687 22.671876zm0 0" fill="#ffcbbe"/><path d="m391.929688 32.679688v37.300781c0 12.472656 10.203124 22.703125 22.675781 22.703125 5.414062 0 10.433593-1.957032 14.34375-5.15625.765625-6.207032 3.65625-10.0625 7.882812-8.644532l2.578125.59375c-1.359375-2.890624-2.097656-6.121093-2.097656-9.496093v-37.300781c0-12.46875-10.234375-22.671876-22.707031-22.671876-12.472657 0-22.675781 10.203126-22.675781 22.671876zm0 0" fill="#ffcbbe"/><path d="m437.3125 32.679688v37.300781c0 3.375.738281 6.605469 2.097656 9.496093l34.757813 8.191407c5.1875-4.167969 8.53125-10.542969 8.53125-17.6875v-37.300781c0-12.46875-10.203125-22.671876-22.707031-22.671876-12.472657 0-22.679688 10.203126-22.679688 22.671876zm0 0" fill="#ffcbbe"/><path d="m474.167969 87.667969-34.757813-8.191407-2.578125-.59375c-4.226562-1.417968-7.117187 2.4375-7.882812 8.644532-3.910157 3.203125-8.929688 5.15625-14.34375 5.15625-12.472657 0-22.675781-10.230469-22.675781-22.703125 0 12.472656-10.234376 22.703125-22.707032 22.703125s-22.679687-10.230469-22.679687-22.703125v8.023437c0 12.46875-10.234375 22.671875-22.707031 22.671875-12.472657 0-22.707032-10.203125-22.707032-22.671875v78.507813c0 8.816406 4.761719 18.199219 18.058594 30.414062l10.261719 9.410157.820312 8.730468h121.359375l33.5625-24.886718 13.382813-44.640626c5.949219-14.511718 7-37.808593-20.753907-46.992187zm0 0" fill="#ffddcf"/><path d="m60.398438 205.066406h121.328124l.824219-8.730468 10.261719-9.410157c13.292969-12.214843 18.058594-21.597656 18.058594-30.414062v-78.507813c0 12.46875-10.234375 22.671875-22.707032 22.671875-12.472656 0-22.679687-10.203125-22.679687-22.671875v-8.023437c0 12.472656-10.234375 22.703125-22.707031 22.703125s-22.675782-10.230469-22.675782-22.703125c0 12.472656-10.234374 22.703125-22.707031 22.703125-5.414062 0-10.40625-1.957032-14.34375-5.15625-.765625-6.207032-3.628906-10.0625-7.882812-8.644532l-2.578125.59375-34.726563 8.191407-3.6875.878906c-27.75 9.183594-26.703125 32.480469-20.75 46.992187l13.378907 44.640626zm0 0" fill="#ffddcf"/><path d="m37.863281 87.667969 34.726563-8.191407c1.359375-2.890624 2.097656-6.121093 2.097656-9.496093v-37.300781c0-12.46875-10.207031-22.671876-22.679688-22.671876-12.472656 0-22.707031 10.203126-22.707031 22.671876v37.300781c0 7.144531 3.347657 13.519531 8.5625 17.6875zm0 0" fill="#ffcbbe"/><path d="m74.6875 32.679688v37.300781c0 3.375-.738281 6.605469-2.097656 9.496093l2.578125-.59375c4.253906-1.417968 7.117187 2.4375 7.882812 8.644532 3.941407 3.203125 8.929688 5.15625 14.34375 5.15625 12.472657 0 22.707031-10.230469 22.707031-22.703125v-37.300781c0-12.46875-10.234374-22.671876-22.707031-22.671876-12.472656 0-22.707031 10.203126-22.707031 22.671876zm0 0" fill="#ffcbbe"/><path d="m120.101562 32.679688v37.300781c0 12.472656 10.203126 22.703125 22.675782 22.703125s22.707031-10.230469 22.707031-22.703125v-37.300781c0-12.46875-10.234375-22.671876-22.707031-22.671876s-22.675782 10.203126-22.675782 22.671876zm0 0" fill="#ffcbbe"/><path d="m165.484375 53.203125v24.800781c0 12.46875 10.207031 22.671875 22.679687 22.671875 12.472657 0 22.707032-10.203125 22.707032-22.671875v-24.800781c0-12.472656-10.234375-22.675781-22.707032-22.675781-12.472656 0-22.679687 10.203125-22.679687 22.675781zm0 0" fill="#ffcbbe"/><path d="m193.71875 239.164062v-24.035156c0-5.527344-4.535156-10.0625-10.0625-10.0625h-125.863281c-5.53125 0-10.066407 4.535156-10.066407 10.0625v24.03125c0 5.527344 4.535157 10.0625 10.066407 10.0625h125.863281c5.527344.003906 10.0625-4.53125 10.0625-10.058594zm0 0" fill="#e8e7e9"/><path d="m177.5625 249.226562h-117.191406v60.199219h120.707031v-60.199219zm0 0" fill="#ffddcf"/><path d="m451.628906 205.066406h-123.253906c-5.558594 0-10.09375 4.535156-10.09375 10.0625v24.035156c0 5.527344 4.535156 10.0625 10.09375 10.0625h125.835938c5.527343 0 10.0625-4.535156 10.0625-10.0625v-24.035156c0-5.527344-4.535157-10.0625-10.0625-10.0625zm0 0" fill="#e8e7e9"/><path d="m330.925781 249.226562v60.199219h120.703125v-60.199219zm0 0" fill="#ffddcf"/><path d="m197.773438 432.011719v-112.609375c0-5.496094-4.507813-9.976563-10.007813-9.976563h-133.886719c-5.5 0-9.976562 4.480469-9.976562 9.976563v112.609375c0 5.5 4.476562 10.003906 9.976562 10.003906h133.886719c5.5.003906 10.007813-4.503906 10.007813-10.003906zm0 0" fill="#cbe558"/><path d="m314.339844 319.402344v112.609375c0 5.5 4.507812 10.003906 10.007812 10.003906h133.886719c5.5 0 9.976563-4.503906 9.976563-10.003906v-112.609375c0-5.496094-4.476563-9.976563-9.976563-9.976563h-133.886719c-5.5 0-10.007812 4.480469-10.007812 9.976563zm0 0" fill="#cbe558"/></g><path d="m237.359375 233.042969c-11.027344-2.078125-22.316406-6.070313-33.632813-11.878907v-6.035156c0-6.886718-3.484374-12.964844-8.78125-16.582031l4.636719-4.253906c14.726563-13.53125 21.292969-25.183594 21.292969-37.78125v-103.308594c0-18.019531-14.671875-32.683594-32.710938-32.683594-4.988281 0-9.71875 1.128907-13.953124 3.136719-3.929688-13.644531-16.527344-23.65625-31.433594-23.65625-8.804688 0-16.800782 3.503906-22.683594 9.183594-5.886719-5.679688-13.890625-9.183594-22.699219-9.183594-8.804687 0-16.800781 3.503906-22.683593 9.183594-5.886719-5.679688-13.890626-9.183594-22.703126-9.183594-18.039062 0-32.710937 14.660156-32.710937 32.679688v37.300781c0 4.523437.933594 8.902343 2.679687 12.925781-10.402343 5.554688-15.699218 12.957031-18.363281 18.753906-4.945312 10.75-4.804687 24.285156.363281 37.203125l13.246094 44.191407c.617188 2.070312 1.894532 3.882812 3.628906 5.167968l20.617188 15.273438c-2.351562 3.285156-3.75 7.296875-3.75 11.632812v24.035156c0 8.441407 5.246094 15.667969 12.644531 18.628907v41.960937c-9.347656 1.667969-16.46875 9.835938-16.46875 19.652344v112.609375c0 11.03125 8.964844 20.007813 19.984375 20.007813h133.886719c11.035156 0 20.011719-8.976563 20.011719-20.007813v-112.613281c0-9.886719-7.238282-18.097656-16.695313-19.683594v-41.925781c6.203125-2.484375 10.894531-7.96875 12.246094-14.65625 10.136719 4.472656 20.289063 7.683593 30.320313 9.574219.628906.117187 1.25.175781 1.863281.175781 4.71875 0 8.917969-3.351563 9.824219-8.15625 1.027343-5.429688-2.546876-10.664063-7.976563-11.6875zm-76.890625 6.175781c-5.527344 0-10.007812 4.480469-10.007812 10.007812 0 5.523438 4.480468 10.003907 10.007812 10.003907h10.601562v40.191406h-100.691406v-40.191406h10.203125c5.527344 0 10.007813-4.480469 10.007813-10.003907 0-5.527343-4.480469-10.007812-10.007813-10.007812l-20.160156.003906c-.015625 0-.035156-.003906-.050781-.003906s-.035156.003906-.050782.003906h-2.515624c-.023438-.007812-.0625-.050781-.070313-.058594l-.003906-24.023437c.011719-.023437.050781-.0625.0625-.066406h2.574219.023437.019531l121.25-.003907c.027344 0 .054688.003907.082032.003907.027343 0 .054687-.003907.082031-.003907h1.820312c.023438.007813.066407.050782.070313.058594l.003906 11.820313c-.003906.046875 0 .09375 0 .136719v12.0625c-.007812.023437-.050781.066406-.0625.070312zm27.695312-198.6875c7.003907 0 12.699219 5.683594 12.699219 12.667969v24.800781c0 6.988281-5.695312 12.667969-12.699219 12.667969-6.988281 0-12.671874-5.683594-12.671874-12.667969v-24.796875c0-6.988281 5.683593-12.671875 12.671874-12.671875zm-45.386718-20.519531c7.003906 0 12.703125 5.683593 12.703125 12.667969v37.300781c0 7-5.699219 12.699219-12.703125 12.699219-6.988282 0-12.671875-5.695313-12.671875-12.699219v-37.300781c0-6.984376 5.6875-12.667969 12.671875-12.667969zm-45.382813 0c7 0 12.699219 5.683593 12.699219 12.667969v37.300781c0 7-5.695312 12.699219-12.699219 12.699219-2.132812 0-3.933593-.542969-5.398437-1.25-1.273438-4.300782-3.476563-7.722657-6.523438-9.988282-.253906-.1875-.519531-.339844-.777344-.511718.007813-.316407.027344-.632813.027344-.949219v-37.300781c0-6.984376 5.683594-12.667969 12.671875-12.667969zm-58.085937 12.667969c0-6.984376 5.695312-12.667969 12.699218-12.667969 7.003907 0 12.703126 5.683593 12.703126 12.667969v37.300781c0 .371093-.027344.734375-.0625 1.101562l-23.433594 5.523438c-1.234375-1.972657-1.90625-4.25-1.90625-6.625zm-16.296875 99.988281c-.09375-.3125-.203125-.621094-.328125-.925781-3.210938-7.828126-3.542969-15.949219-.886719-21.722657 2.417969-5.257812 7.503906-9.242187 15.125-11.839843l36.289063-8.554688c.039062.597656.058593 1.28125.035156 2.054688-.523438 17.644531-5.960938 26.90625-18.183594 30.964843-4.734375 1.570313-7.589844 6.390625-6.6875 11.300781.898438 4.90625 5.273438 8.417969 10.265625 8.191407 5.1875-.226563 20.226563 1.789062 22.976563 10.179687 1.722656 5.253906 7.378906 8.113282 12.625 6.394532 5.25-1.71875 8.113281-7.371094 6.394531-12.621094-3.105469-9.480469-10.15625-15.457032-17.988281-19.070313 5.019531-6.515625 8.269531-14.773437 9.738281-24.730469 1.652343.261719 3.324219.402344 5.003906.402344 8.8125 0 16.816406-3.507812 22.703125-9.191406 5.882812 5.683594 13.878906 9.191406 22.683594 9.191406 6.941406 0 13.378906-2.179687 18.679687-5.878906 5.921875 8.382812 15.683594 13.871094 26.707031 13.871094 4.5 0 8.792969-.914063 12.699219-2.5625v48.394531c0 4.046875-1.535156 10.835937-14.8125 23.039063l-10.261719 9.410156c-1.746093 1.597656-2.851562 3.757812-3.152343 6.097656h-108.933594l-28.265625-20.9375zm164.753906 299.34375h-133.859375l-.03125-112.578125h6.46875.027344.027344l120.128906-.027344c.183594.011719.363281.027344.550781.027344.183594 0 .367187-.015625.550781-.027344h6.136719zm0 0"/><path d="m219.8125 271.683594-10.316406 10.316406c-3.910156 3.90625-3.910156 10.242188-.003906 14.152344 1.953124 1.953125 4.515624 2.929687 7.074218 2.929687 2.5625 0 5.121094-.976562 7.074219-2.929687l10.320313-10.316406c3.910156-3.90625 3.910156-10.242188.003906-14.152344-3.910156-3.90625-10.246094-3.90625-14.152344 0zm0 0"/><path d="m308.214844 282.011719-10.289063-10.320313c-3.902343-3.910156-10.238281-3.917968-14.152343-.015625-3.910157 3.902344-3.921876 10.238281-.019532 14.148438l10.292969 10.320312c1.953125 1.957031 4.515625 2.9375 7.082031 2.9375 2.558594 0 5.113282-.972656 7.066406-2.921875 3.914063-3.902344 3.921876-10.238281.019532-14.148437zm0 0"/><path d="m258.097656 268.753906c-5.527344 0-10.003906 4.480469-10.003906 10.003906v23.269532c0 5.527344 4.480469 10.007812 10.003906 10.007812 5.527344 0 10.007813-4.480468 10.007813-10.007812v-23.269532c0-5.523437-4.480469-10.003906-10.007813-10.003906zm0 0"/><path d="m508.386719 101.660156c-2.664063-5.796875-7.957031-13.199218-18.359375-18.753906 1.742187-4.027344 2.679687-8.40625 2.679687-12.925781v-37.300781c0-18.019532-14.675781-32.679688-32.714843-32.679688-8.804688 0-16.800782 3.503906-22.683594 9.183594-5.886719-5.679688-13.890625-9.183594-22.703125-9.183594-8.800781 0-16.796875 3.503906-22.679688 9.183594-5.890625-5.679688-13.890625-9.183594-22.703125-9.183594-14.894531 0-27.484375 10.015625-31.410156 23.660156-4.238281-2.011718-8.976562-3.140625-13.976562-3.140625-18.035157 0-32.710938 14.664063-32.710938 32.683594v103.3125c0 12.59375 6.566406 24.25 21.300781 37.785156l4.636719 4.253907c-5.300781 3.617187-8.789062 9.695312-8.789062 16.574218v6.09375c-10.683594 5.601563-21.464844 9.515625-32.121094 11.640625-5.417969 1.082031-8.933594 6.355469-7.855469 11.773438.953125 4.757812 5.128906 8.050781 9.804687 8.050781.648438 0 1.308594-.0625 1.96875-.195312 9.546876-1.90625 19.128907-5.007813 28.625-9.242188 1.378907 6.632812 6.050782 12.0625 12.222657 14.535156v41.949219c-9.402344 1.632813-16.582031 9.820313-16.582031 19.667969v112.609375c0 11.035156 8.976562 20.011719 20.011718 20.011719h133.886719c11.019531 0 19.984375-8.976563 19.984375-20.011719v-112.609375c0-9.855469-7.179688-18.046875-16.582031-19.667969v-41.941406c7.398437-2.960938 12.644531-10.1875 12.644531-18.628907v-24.035156c0-4.335937-1.398438-8.34375-3.742188-11.625l20.613282-15.285156c1.734375-1.285156 3.007812-3.097656 3.625-5.164062l13.246094-44.195313c5.167968-12.917969 5.308593-26.449219.363281-37.199219zm-48.394531-81.648437c7.003906 0 12.699218 5.683593 12.699218 12.667969v37.300781c0 2.371093-.667968 4.652343-1.898437 6.628906l-23.414063-5.523437c-.03125-.363282-.058594-.730469-.058594-1.105469v-37.300781c0-6.984376 5.683594-12.667969 12.671876-12.667969zm-45.386719 0c7.003906 0 12.703125 5.683593 12.703125 12.667969v37.300781c0 .316406.015625.628906.023437.941406-.257812.167969-.527343.324219-.777343.511719-3.058594 2.269531-5.269532 5.691406-6.546876 10-1.691406.808594-3.535156 1.246094-5.402343 1.246094-6.984375 0-12.671875-5.695313-12.671875-12.699219v-37.300781c0-6.984376 5.6875-12.667969 12.671875-12.667969zm-58.054688 12.667969c0-6.984376 5.683594-12.667969 12.671875-12.667969 7.003906 0 12.699219 5.683593 12.699219 12.667969v37.300781c0 7.003906-5.695313 12.699219-12.699219 12.699219-6.988281 0-12.671875-5.695313-12.671875-12.699219zm-45.414062 20.523437c0-6.988281 5.695312-12.667969 12.699219-12.667969 7.003906 0 12.703124 5.683594 12.703124 12.667969v24.800781c0 6.984375-5.699218 12.667969-12.703124 12.667969-7.003907 0-12.699219-5.683594-12.699219-12.667969zm140.433593 161.867187c.023438 0 .046876.003907.066407.003907.035156 0 .066406-.003907.101562-.003907h2.460938c.019531.007813.0625.046876.066406.058594l.003906 24.019532c-.007812.023437-.050781.066406-.0625.070312h-22.988281c-5.527344 0-10.007812 4.480469-10.007812 10.007812 0 5.523438 4.480468 10.003907 10.007812 10.003907h10.40625v40.191406h-100.695312v-40.191406h10.40625c5.527343 0 10.003906-4.480469 10.003906-10.003907 0-5.527343-4.476563-10.007812-10.003906-10.007812h-22.976563c-.023437-.007812-.066406-.046875-.070313-.054688l-.003906-12.222656c0-.023437 0-.046875 0-.070312v-11.726563c.007813-.023437.054688-.0625.089844-.074219h1.867188c.003906 0 .011718.003907.019531.003907.007812 0 .011719-.003907.023437-.003907zm-127.222656 216.941407-.003906-112.578125h6.550781.03125.027344l120.128906-.027344c.179688.011719.363281.027344.546875.027344.1875 0 .371094-.015625.554688-.027344h6.023437l.027344 112.605469zm164.96875-300.269531c-.125.304687-.234375.609374-.328125.925781l-12.425781 41.457031-28.238281 20.933594h-108.957031c-.304688-2.335938-1.410157-4.5-3.152344-6.097656l-10.257813-9.402344c-13.285156-12.207032-14.820312-19-14.820312-23.046875v-48.394531c3.90625 1.652343 8.199219 2.5625 12.703125 2.5625 11.03125 0 20.796875-5.488282 26.722656-13.867188 5.296875 3.699219 11.726562 5.875 18.660156 5.875 8.8125 0 16.816406-3.507812 22.703125-9.191406 5.882813 5.683594 13.878907 9.191406 22.683594 9.191406 1.679687 0 3.351563-.140625 5.003906-.398438 1.46875 9.953126 4.71875 18.210938 9.742188 24.722657-7.835938 3.617187-14.886719 9.59375-17.992188 19.074219-1.71875 5.25 1.144531 10.902343 6.394531 12.621093 5.25 1.722657 10.902344-1.140625 12.625-6.394531 2.75-8.394531 17.804688-10.417969 22.976563-10.179688 4.988281.191407 9.363281-3.28125 10.265625-8.191406.902344-4.90625-1.949219-9.726562-6.683594-11.300781-12.226562-4.066406-17.664062-13.324219-18.1875-30.960937-.023437-.773438-.003906-1.460938.035156-2.058594l36.289063 8.554687c7.621094 2.597657 12.707031 6.582031 15.125 11.839844 2.65625 5.777344 2.324219 13.898437-.886719 21.726563zm0 0"/><path d="m391.277344 259.230469h.195312c5.527344 0 10.007813-4.476563 10.007813-10.003907 0-5.527343-4.480469-10.007812-10.007813-10.007812h-.195312c-5.527344 0-10.007813 4.480469-10.007813 10.007812 0 5.527344 4.480469 10.003907 10.007813 10.003907zm0 0"/><path d="m120.722656 239.21875h-.195312c-5.527344 0-10.007813 4.480469-10.007813 10.007812 0 5.523438 4.480469 10.003907 10.007813 10.003907h.195312c5.527344 0 10.007813-4.480469 10.007813-10.003907 0-5.527343-4.480469-10.007812-10.007813-10.007812zm0 0"/></svg>