<svg height="511pt" viewBox="0 -3 511.99909 511" width="511pt" xmlns="http://www.w3.org/2000/svg"><g fill-rule="evenodd"><path d="m151.269531 126.730469c-57.347656 2.148437-110.515625 38.144531-131.835937 95.335937-28.328125 75.894532 10.214844 160.40625 86.078125 188.757813 38.863281 14.519531 79.984375 11.457031 114.636719-5.183594-6.324219-15.007813-10.214844-31.332031-11.1875-48.457031-25.097657 15.609375-56.890626 19.847656-86.707032 8.707031-51.054687-19.074219-76.980468-75.949219-57.949218-127.070313 19.058593-51.09375 75.917968-77.039062 126.96875-57.964843 30.164062 11.253906 51.539062 35.710937 60.09375 64.378906 11.679687-11.769531 25.355468-21.5625 40.492187-28.839844-6.894531-16.351562-16.710937-31.441406-29.101563-44.417969-14.824218-15.550781-33.28125-28.035156-54.742187-36.054687-.371094-.144531-.746094-.285156-1.117187-.429687-18.371094-6.671876-37.226563-9.449219-55.628907-8.761719zm0 0" fill="#e8e7e9"/><path d="m351.097656 202.050781c-19.972656.570313-38.886718 5.125-56.03125 12.859375-1.085937.484375-2.144531.972656-3.203125 1.488282-15.136719 7.273437-28.816406 17.066406-40.492187 28.835937-27.355469 27.523437-43.8125 65.8125-42.609375 107.65625.054687 1.429687.113281 2.863281.199219 4.292969.972656 17.128906 4.863281 33.453125 11.1875 48.457031 22.808593 54.1875 77.121093 91.503906 139.363281 89.699219 80.925781-2.320313 144.65625-69.851563 142.339843-150.871094-1.691406-58.078125-36.859374-107.308594-86.480468-129.644531-19.34375-8.707031-40.863282-13.320313-63.472656-12.804688-.253907 0-.542969 0-.800782.03125zm-94.433594 149.464844c-1.027343-36.371094 17.714844-68.707031 46.472657-86.664063 14.367187-8.960937 31.222656-14.347656 49.335937-14.863281 54.488282-1.574219 99.902344 41.355469 101.472656 95.882813 1.546876 54.5-41.347656 99.980468-95.804687 101.523437-45.703125 1.320313-85.019531-28.664062-97.441406-70.535156-2.375-8.046875-3.777344-16.523437-4.035157-25.34375zm0 0" fill="#f9f9f9"/><path d="m295.066406 214.910156c17.144532-7.761718 36.058594-12.289062 56.03125-12.859375.257813-.03125.546875-.03125.800782-.03125 1.660156-.027343 3.320312-.054687 4.980468-.027343 1.144532 0 2.316406.027343 3.464844.085937 19.515625.628906 38.117188 5.125 55.027344 12.742187l-24.496094-72.339843-37.714844 1.085937-37.6875 1.0625zm0 0" fill="#e2f1a1"/><path d="m262.761719 171.976562 4.519531-76.261718-35.769531-13.375-34.882813-13.03125-45.359375 57.421875c18.144531-.6875 36.6875 2.003906 54.773438 8.476562.285156.085938.570312.199219.855469.285157.375.144531.746093.285156 1.117187.429687 9.53125 3.550781 18.457031 7.992187 26.757813 13.203125 9.613281 6.011719 18.371093 13.085938 26.183593 20.964844.601563.628906 1.203125 1.257812 1.804688 1.886718zm0 0" fill="#cbe558"/></g><path d="m511.933594 344.175781c-1.746094-60.339843-37.527344-111.832031-88.355469-136.574219l-23.148437-68.359374c-1.421876-4.199219-5.445313-6.960938-9.839844-6.851563l-27.664063.789063c.527344-14.867188 5.941407-23.507813 12.0625-33.253907 4.039063-6.433593 8.210938-13.082031 11.207031-21.660156 3.464844-8.027344 3.675782-16.878906.589844-24.976563-3-7.871093-8.796875-14.058593-16.324218-17.429687-15.933594-7.105469-34.902344.492187-42.28125 16.96875l-8.921876 20.03125c-1.402343 3.125-3.867187 5.542969-6.941406 6.804687-2.90625 1.191407-5.988281 1.179688-8.695312-.039062-2.691406-1.203125-4.75-3.492188-5.800782-6.449219-1.109374-3.132812-.953124-6.578125.453126-9.71875l1.996093-4.484375c.003907-.003906.003907-.007812.007813-.011718l3.882812-8.714844c6.726563-13.035156 6.746094-26.292969.039063-36.421875-6.003907-9.070313-16.621094-14.136719-27.695313-13.21875-12.886718 1.066406-23.828125 9.640625-30.019531 23.515625l-20.316406 45.453125-26.011719-9.71875c-4.097656-1.53125-8.722656-.242188-11.441406 3.195312l-42.488282 53.789063c-18.609374 1.261718-37.035156 5.886718-54.511718 13.871094-38.074219 17.394531-67.101563 48.585937-81.730469 87.828124-14.644531 39.230469-13.136719 81.820313 4.242187 119.929688 17.375 38.105469 48.542969 67.160156 87.757813 81.816406 17.882813 6.683594 36.40625 10.003906 54.878906 10.003906 19.765625 0 39.472657-3.820312 58.25-11.394531 8.109375 16.1875 19.070313 31 32.621094 43.804688 29.316406 27.703125 67.320313 42.800781 107.464844 42.800781 1.527343 0 3.066406-.023438 4.601562-.066406 41.835938-1.199219 80.699219-18.628906 109.433594-49.082032 28.734375-30.457031 43.898437-70.292968 42.699219-112.175781zm-112.863282-146.039062c-13.902343-4.058594-28.570312-6.246094-43.714843-6.246094-1.507813 0-3.027344.023437-4.542969.066406-14.046875.402344-27.609375 2.664063-40.46875 6.519531l12.765625-43.964843 29.90625-.851563c.042969 0 .089844.003906.132813.003906.222656 0 .449218-.015624.675781-.027343l29.890625-.851563zm-134.167968-165.78125c3.101562-6.949219 7.9375-11.191407 13.265625-11.632813 3.734375-.3125 7.269531 1.320313 9.210937 4.25 2.609375 3.933594 2.164063 9.6875-1.242187 16.191406-.101563.1875-.195313.382813-.28125.578126l-2 4.484374c0 .003907-.003907.007813-.003907.011719l-4.003906 8.980469c-3.523437 7.890625-3.894531 16.664062-1.039062 24.707031 2.910156 8.210938 8.800781 14.648438 16.566406 18.125 4.007812 1.796875 8.265625 2.699219 12.554688 2.699219 4.042968 0 8.117187-.800781 12.035156-2.40625 7.886718-3.234375 14.171875-9.355469 17.710937-17.25l8.921875-20.03125c2.832032-6.316406 9.851563-9.347656 15.632813-6.769531 2.597656 1.164062 4.625 3.363281 5.699219 6.1875 1.222656 3.207031 1.101562 6.746093-.339844 9.96875-.125.277343-.238282.566406-.335938.855469-2.246094 6.5625-5.695312 12.058593-9.351562 17.878906-6.976563 11.113281-14.75 23.515625-15.171875 44.566406l-27.546875.785156c-4.378906.125-8.175782 3.0625-9.398438 7.273438l-14.753906 50.820312c-5.214844-8.65625-11.222656-16.777344-17.953125-24.238281l4.273437-72.082031c.261719-4.425782-2.390624-8.503906-6.539062-10.054688l-25.707031-9.605468zm-64.917969 48.984375 56.785156 21.21875-2.835937 47.871094c-12.710938-10.078126-26.992188-18.21875-42.386719-23.964844-13.023437-4.871094-26.421875-7.945313-39.898437-9.253906zm-90.941406 320.027344c-34.167969-12.769532-61.324219-38.082032-76.464844-71.285157-15.140625-33.199219-16.453125-70.304687-3.691406-104.484375 12.746093-34.195312 38.035156-61.371094 71.203125-76.523437 16.261718-7.425781 33.464844-11.519531 50.800781-12.269531.542969.023437 1.089844.003906 1.628906-.0625 17.488281-.539063 35.085938 2.324218 51.972657 8.640624 19.351562 7.21875 36.375 18.394532 50.261718 32.722657.457032.59375.976563 1.136719 1.550782 1.617187 8.890624 9.484375 16.425781 20.300782 22.394531 32.21875-8.195313 4.617188-15.933594 9.945313-23.128907 15.902344-11.902343-26.070312-33.414062-46.238281-60.765624-56.445312-27.214844-10.167969-56.761719-9.121094-83.199219 2.945312s-46.589844 33.710938-56.753907 60.953125c-20.9375 56.246094 7.714844 119.070313 63.875 140.050781 12.433594 4.648438 25.320313 6.941406 38.140626 6.941406 14.921874 0 29.746093-3.117187 43.625-9.257812 1.449218 9.332031 3.722656 18.441406 6.78125 27.253906-31.5625 12.640625-66.097657 13.089844-98.230469 1.082032zm89.609375-49.898438c-22.503906 12.121094-48.746094 13.976562-72.871094 4.964844-45.742188-17.089844-69.078125-68.269532-52.023438-114.082032 8.273438-22.179687 24.6875-39.808593 46.222657-49.640624 21.53125-9.828126 45.601562-10.679688 67.773437-2.394532 24.484375 9.136719 43.226563 28.078125 52.140625 52.441406-26.257812 28.636719-41.988281 66.976563-41.242187 108.710938zm255.910156 91.015625c-25.03125 26.53125-58.890625 41.71875-95.339844 42.761719-36.457031 1.035156-71.125-12.175782-97.640625-37.230469-13.828125-13.066406-24.5625-28.535156-31.828125-45.519531-.136718-.410156-.289062-.816406-.480468-1.21875-.046876-.101563-.105469-.191406-.15625-.292969-5.746094-13.894531-9.175782-28.777344-10.082032-44.171875-.007812-.199219-.019531-.398438-.039062-.597656-.066406-1.203125-.117188-2.40625-.152344-3.613282-2.152344-75.292968 57.304688-138.304687 132.546875-140.464843 1.324219-.035157 2.640625-.054688 3.957031-.054688 73.460938 0 134.277344 58.722657 136.421875 132.675781 1.039063 36.488282-12.171875 71.195313-37.207031 97.726563zm0 0"/><path d="m396.160156 247.796875c-5.167968-2.097656-11.046875.390625-13.144531 5.554687-2.09375 5.167969.390625 11.054688 5.554687 13.152344 32.570313 13.234375 54.273438 44.503906 55.292969 79.65625 1.386719 48.871094-37.199219 89.761719-86.015625 91.148438-23.667968.695312-46.15625-7.894532-63.363281-24.152344-17.203125-16.257812-27.050781-38.253906-27.734375-61.929688-1.078125-37.710937 21.875-72.046874 57.109375-85.441406 5.210937-1.980468 7.828125-7.808594 5.851563-13.019531-1.980469-5.210937-7.804688-7.832031-13.011719-5.855469-43.261719 16.441406-71.4375 58.59375-70.117188 104.898438.839844 29.066406 12.933594 56.066406 34.054688 76.027344 20.339843 19.222656 46.710937 29.699218 74.566406 29.699218 1.070313 0 2.148437-.015625 3.222656-.046875 59.933594-1.699219 107.304688-51.898437 105.605469-111.910156-1.253906-43.15625-27.894531-81.539063-67.871094-97.78125zm0 0"/><path d="m357.394531 260.058594h.199219c5.574219 0 10.089844-4.519532 10.089844-10.097656 0-5.574219-4.515625-10.09375-10.089844-10.09375h-.199219c-5.570312 0-10.085937 4.519531-10.085937 10.09375 0 5.578124 4.515625 10.097656 10.085937 10.097656zm0 0"/></svg>