<svg height="512pt" viewBox="-12 0 512 512.00104" width="512pt" xmlns="http://www.w3.org/2000/svg"><g fill-rule="evenodd"><path d="m128.792969 126.515625h211.554687v-40.082031c0-71.390625-82.703125-47.59375-128.765625-45.03125-66.875 3.753906-78.40625-29.664063-99.046875-31.3125-31.316406-2.503906-24.113281 115.058594 16.257813 116.425781zm0 0" fill="#b3b0b5"/><path d="m340.347656 126.515625h-211.554687v61.3125h211.554687zm0 0" fill="#e8e7e9"/><path d="m340.347656 187.828125h-211.554687v10.703125c0 30.144531 12.980469 59.523438 32.765625 81.867188 6.578125-1.707032 14.351562-.738282 22.863281 4.554687l27.53125 13.351563h48.710937l27.527344-13.351563c7.230469-4.496094 13.949219-5.863281 19.816406-5.125 19.414063-22.65625 32.339844-52.316406 32.339844-82.433594zm0 0" fill="#ffddcf"/><path d="m340.347656 187.828125v7.742187l49.820313 20.753907s15.800781-12.695313 0-32.050781c-15.773438-19.386719-49.820313-28.722657-49.820313-28.722657zm0 0" fill="#e8e7e9"/><path d="m340.347656 155.550781s34.046875-9.367187 49.820313-28.722656c15.800781-19.386719 0-32.082031 0-32.082031l-49.820313 20.78125zm0 0" fill="#e8e7e9"/><path d="m328.902344 295.941406c-3.871094-8.054687-11.242188-14.914062-20.894532-16.113281-5.867187-.738281-12.582031.628906-19.816406 5.125l-27.527344 13.351563v44.546874l26.363282 14.207032c3.472656 1.707031 6.800781 2.929687 10.019531 3.699218 20.46875 4.867188 34.589844-8.824218 34.589844-30.941406l.199219-20.210937c.253906-4.414063-.796876-9.222657-2.933594-13.664063zm0 0" fill="#f6838d"/><path d="m260.664062 342.851562v-44.546874h-48.710937v44.546874zm0 0" fill="#ff6977"/><path d="m211.953125 342.851562v-44.546874l-27.53125-13.351563c-8.511719-5.292969-16.285156-6.261719-22.863281-4.554687-10.132813 2.648437-17.363282 11.671874-19.871094 20.980468-.738281 2.761719-1.050781 5.550782-.910156 8.226563l.199218 20.210937c0 22.375 14.492188 36.152344 35.359376 30.742188 2.960937-.769532 6.0625-1.90625 9.253906-3.5zm0 0" fill="#f6838d"/><path d="m211.953125 342.851562-26.363281 14.207032c-3.191406 1.59375-6.292969 2.730468-9.253906 3.5l29.921874 141.074218 37.777344-.027343 23.117188.027343 29.894531-140.875c-3.21875-.769531-6.550781-1.992187-10.023437-3.703124l-26.363282-14.203126zm0 0" fill="#d675a7"/><path d="m297.046875 360.757812-29.894531 140.878907 68.640625.027343h49.195312v-183.292968c-17.28125-9.476563-36.214843-16.964844-56.085937-22.429688 2.136718 4.441406 3.191406 9.25 2.933594 13.664063l-.199219 20.210937c0 22.117188-14.121094 35.808594-34.589844 30.941406zm0 0" fill="#b3b0b5"/><path d="m206.257812 501.636719-29.921874-141.078125c-20.867188 5.410156-35.359376-8.367188-35.359376-30.742188l-.199218-20.210937c-.140625-2.675781.171875-5.464844.910156-8.226563-19.101562 6.601563-37.09375 15.199219-53.265625 25.761719v174.523437h63.828125zm0 0" fill="#b3b0b5"/><path d="m88.421875 501.664062v-174.523437c-54.515625 35.667969-88.421875 93.792969-75.640625 174.464844l51.5.027343 20.300781.027344h3.839844zm0 0" fill="#d675a7"/><path d="m384.988281 318.371094v183.292968h18.476563l20.296875-.027343 51.503906-.027344c13.890625-87.648437-27.332031-148.738281-90.277344-183.238281zm0 0" fill="#d675a7"/></g><path d="m236.519531 434.113281h-.199219c-5.550781 0-10.046874 4.5-10.046874 10.050781 0 5.550782 4.496093 10.050782 10.046874 10.050782h.199219c5.550781 0 10.050781-4.5 10.050781-10.050782 0-5.550781-4.5-10.050781-10.050781-10.050781zm0 0"/><path d="m482.578125 423.449219c-5.847656-23.164063-16.414063-44.464844-31.410156-63.308594-26.574219-33.394531-66.460938-58.484375-115.527344-72.730469-2.980469-4.738281-6.914063-8.871094-11.503906-11.941406 14.089843-19.871094 23.007812-42.632812 25.519531-65.132812l36.648438 15.265624c1.246093.515626 2.558593.769532 3.863281.769532 2.25 0 4.476562-.757813 6.292969-2.214844.953124-.765625 9.347656-7.828125 10.621093-19.933594.933594-8.890625-2.136719-17.742187-9.121093-26.292968-7.949219-9.773438-19.617188-17.167969-30.167969-22.386719 10.546875-5.21875 22.214843-12.609375 30.164062-22.367188 6.992188-8.578125 10.058594-17.4375 9.121094-26.335937-1.277344-12.101563-9.664063-19.164063-10.617187-19.929688-2.867188-2.304687-6.765626-2.855468-10.160157-1.441406l-35.90625 14.976562v-14.011718c0-19.828125-5.859375-35.101563-17.417969-45.390625-23.285156-20.730469-62.566406-16.152344-97.222656-12.113281-8.953125 1.042968-17.414062 2.03125-24.738281 2.4375-41.03125 2.3125-58.5625-9.9375-72.652344-19.773438-7.921875-5.53125-15.402343-10.753906-25.027343-11.5234375-8.324219-.6601565-15.789063 3.2851565-21.011719 11.1210935-13.746094 20.613282-12.121094 70.28125 3.277343 100.269532 7.101563 13.824218 15.546876 20.339843 23.140626 23.171874v63.898438c0 27.054688 9.839843 55.128906 27.3125 78.691406-5.339844 4.238282-9.582032 9.976563-12.246094 16.296875-18.382813 6.71875-35.257813 15.078125-50.355469 24.890625-.378906.21875-.738281.457032-1.082031.71875-20.503906 13.503906-37.691406 29.707032-50.871094 48.148438-27.253906 38.128906-36.890625 83.855468-28.644531 135.902344.773437 4.878906 4.980469 8.472656 9.921875 8.476562l75.34375.042969c.101562.003906.203125.015625.300781.015625.101563 0 .199219-.011719.296875-.015625l27.070312.015625 87.992188-.039063c.8125.210938 1.660156.324219 2.523438.324219.691406 0 1.394531-.070312 2.097656-.21875.136718-.03125.265625-.074219.402344-.109375l35.230468-.015625 20.546875.011719c.144531.035156.285157.082031.429688.113281.703125.148438 1.40625.21875 2.097656.21875.871094 0 1.730469-.113281 2.550781-.332031l102.609375.046875 12.582031-.007813c.046876 0 .089844.007813.136719.007813s.09375-.007813.140625-.007813l90.140625-.050781c4.941407-.003906 9.144531-3.597656 9.917969-8.476562 4.484375-28.277344 3.605469-55.105469-2.609375-79.730469zm-190.960937-75.332031-20.90625-11.265626v-32.25l21.867187-10.605468c.3125-.152344.617187-.320313.914063-.503906 7.058593-4.386719 13.378906-4.980469 18.78125-1.777344 6.359374 3.777344 9.839843 11.773437 9.53125 17.328125-.011719.152343-.015626.308593-.015626.460937l-.203124 20.3125c0 9.207032-3.046876 16.386719-8.359376 19.699219-5.300781 3.300781-12.96875 2.804687-21.609374-1.398437zm-152.777344-204.835938v-6.71875h191.457031v41.21875h-191.457031zm243.542968 47.34375c4.792969 5.871094 5.355469 10.273438 4.40625 13.40625l-36.390624-15.160156v-19.148438c10.195312 4.160156 24.066406 11.167969 31.984374 20.902344zm-31.988281-68.402344 36.296875-15.136718c.1875.578124.332032 1.199218.402344 1.859374.355469 3.378907-1.230469 7.257813-4.714844 11.535157-7.914062 9.710937-21.785156 16.722656-31.980468 20.882812v-19.140625zm-241.347656-99.882812c1.550781-2.324219 2.402344-2.261719 2.6875-2.234375 4.191406.335937 9.015625 3.703125 15.125 7.96875 14.859375 10.375 37.316406 26.054687 85.277344 23.359375 7.929687-.441406 16.679687-1.460938 25.945312-2.539063 28.953125-3.375 64.980469-7.574219 81.53125 7.160157 7.191407 6.402343 10.683594 16.335937 10.683594 30.378906v30.03125h-201.304687c-6.960938-.332032-12.273438-7.886719-15.507813-14.1875-12.699219-24.730469-13.277344-66.679688-4.4375-79.9375zm29.792969 175.539062h191.453125c-.128907 24.472656-9.855469 50.332032-26.871094 71.714844-5.878906.25-12.648437 2.027344-20.066406 6.535156l-25 12.125h-44.097657l-25.003906-12.125c-8.976562-5.453125-17.003906-6.914062-23.65625-6.5-17.0625-20.996094-26.757812-46.628906-26.757812-71.097656zm83.160156 110.476563h28.613281v24.449219h-28.613281zm-41.003906 39.761719c-8.628906 4.203124-16.292969 4.699218-21.597656 1.398437-5.320313-3.316406-8.371094-10.496094-8.371094-19.796875l-.199219-20.210938c-.003906-.15625-.007813-.3125-.015625-.464843-.3125-5.554688 3.167969-13.554688 9.527344-17.328125 2.28125-1.351563 4.722656-2.027344 7.316406-2.027344 3.550781 0 7.382812 1.269531 11.464844 3.804688.296875.183593.601562.351562.917968.503906l21.863282 10.605468v32.25zm-82.523438 143.488281v-32.496094c0-5.550781-4.5-10.050781-10.050781-10.050781-5.546875 0-10.046875 4.5-10.046875 10.050781v32.484375l-56.847656-.03125c-8.5-71.140625 21.910156-116.441406 56.847656-144.546875v31.875c0 5.550781 4.5 10.050781 10.046875 10.050781 5.550781 0 10.050781-4.5 10.050781-10.050781v-46.042969c11.359375-7.023437 22.503906-12.445312 32.324219-16.550781l.132813 13.519531c0 16.296875 6.503906 29.699219 17.84375 36.761719 5.59375 3.480469 11.945312 5.21875 18.75 5.21875.300781 0 .609374-.023437.914062-.03125l25.40625 119.816406-78.054688.03125zm115.914063-.035157-26.410157-124.550781c.683594-.304687 1.363282-.609375 2.042969-.941406.113281-.054687.226563-.113281.335938-.171875l24.128906-13.003906h43.644531l24.128906 13.003906c.113282.058594.222657.117188.335938.171875.929688.457031 1.855469.882813 2.78125 1.28125l-26.347656 124.203125-14.996094-.003906zm252.121093-.007812-71.472656.039062v-41.289062c0-5.550781-4.496094-10.050781-10.046875-10.050781s-10.050781 4.5-10.050781 10.050781v41.300781h-2.671875l-92.695313-.042969 25.40625-119.777343c.042969 0 .082032.003906.125.003906 6.804688 0 13.160157-1.742187 18.75-5.222656 11.332032-7.0625 17.832032-20.460938 17.832032-36.660157l.191406-19.484374c11.785156 3.984374 22.816406 8.617187 33.0625 13.851562v45.8125c0 5.550781 4.496094 10.050781 10.046875 10.050781s10.050781-4.5 10.050781-10.050781v-34.125c53.300782 35.234375 79.152344 89.929688 71.472656 155.59375zm0 0"/><path d="m236.578125 410.488281h.285156c5.550781 0 10.046875-4.496093 10.046875-10.046875 0-5.550781-4.496094-10.050781-10.046875-10.050781h-.285156c-5.550781 0-10.050781 4.5-10.050781 10.050781 0 5.550782 4.5 10.046875 10.050781 10.046875zm0 0"/><path d="m202.101562 247.949219h7.285157c10.550781 0 16.175781-6.386719 19.539062-10.203125 3.027344-3.4375 3.425781-3.546875 4.875-3.515625 1.371094 0 1.796875.152343 4.765625 3.511719 3.363282 3.808593 8.996094 10.179687 19.53125 10.179687h7.289063c5.550781 0 10.050781-4.5 10.050781-10.050781 0-5.550782-4.5-10.050782-10.050781-10.050782h-7.285157c-1.195312 0-1.589843-.121093-4.476562-3.390624-3.40625-3.855469-9.105469-10.300782-19.832031-10.300782-.023438 0-.042969 0-.0625 0-10.785157 0-16.480469 6.46875-19.886719 10.335938-2.882812 3.269531-3.242188 3.386718-4.453125 3.386718h-7.289063c-5.550781 0-10.050781 4.496094-10.050781 10.046876 0 5.550781 4.5 10.050781 10.050781 10.050781zm0 0"/><path d="m384.988281 399.953125c-5.550781 0-10.050781 4.5-10.050781 10.050781v.199219c0 5.550781 4.5 10.050781 10.050781 10.050781s10.046875-4.5 10.046875-10.050781v-.199219c0-5.550781-4.496094-10.050781-10.046875-10.050781zm0 0"/><path d="m88.421875 408.75c-5.546875 0-10.046875 4.5-10.046875 10.050781v.199219c0 5.550781 4.5 10.050781 10.046875 10.050781 5.550781 0 10.050781-4.5 10.050781-10.050781v-.199219c0-5.550781-4.5-10.050781-10.050781-10.050781zm0 0"/></svg>