<svg height="511pt" viewBox="1 -40 511.999 511" width="511pt" xmlns="http://www.w3.org/2000/svg"><g fill-rule="evenodd"><path d="m122.4375 216.046875c0-71.136719 54.824219-129.210937 123.746094-132.625-67.886719 2.382813-135.171875 26.984375-187.039063 73.832031-18.542969 16.738282-35.105469 36.34375-49.027343 58.765625 13.921874 22.421875 30.484374 42.027344 49.027343 58.765625 51.4375 46.476563 118.03125 71.050782 185.375 73.777344-68.148437-4.277344-122.082031-61.980469-122.082031-132.515625zm0 0" fill="#f9f9f9"/><path d="m252.613281 83.25c71.902344 0 130.171875 59.453125 130.171875 132.796875 0 72.746094-57.351562 131.824219-128.480468 132.773437 71.90625.632813 143.808593-23.65625 198.175781-72.832031 18.800781-16.992187 35.535156-37.003906 49.398437-59.96875-13.863281-22.964843-30.597656-42.976562-49.398437-59.96875-54.796875-49.578125-127.390625-73.835937-199.867188-72.800781zm0 0" fill="#f9f9f9"/><path d="m382.785156 216.046875c0-73.34375-58.269531-132.796875-130.171875-132.796875-2.152343.027344-4.308593.085938-6.429687.171875-68.921875 3.414063-123.746094 61.488281-123.746094 132.625 0 70.535156 53.933594 128.238281 122.078125 132.515625 3.246094.144531 6.515625.230469 9.789063.257812 71.128906-.949218 128.480468-60.027343 128.480468-132.773437zm0 0" fill="#e8e7e9"/><path d="m252.613281 83.25c72.476563-1.035156 145.070313 23.222656 199.867188 72.800781-25.664063-84.199219-103.910157-145.433593-196.480469-145.433593-93.003906 0-171.566406 61.835937-196.855469 146.636718 51.871094-46.847656 119.152344-71.449218 187.039063-73.832031 2.121094-.117187 4.277344-.171875 6.429687-.171875zm0 0" fill="#ff6977"/><path d="m452.480469 275.988281c-54.367188 49.175781-126.269531 73.464844-198.175781 72.832031-.574219 0-1.117188 0-1.695313 0-2.726563 0-5.421875-.085937-8.09375-.257812-67.339844-2.726562-133.933594-27.300781-185.371094-73.777344 25.289063 84.800782 103.851563 146.636719 196.855469 146.636719 92.570312 0 170.816406-61.234375 196.480469-145.433594zm0 0" fill="#ff6977"/></g><path d="m510.539062 210.785156c-13.640624-22.582031-30.234374-42.785156-49.214843-60.3125-11.542969-36.207031-32.570313-68.8125-60.945313-94.445312-29.253906-26.425782-65.082031-44.292969-103.613281-51.671875-5.488281-1.046875-10.789063 2.546875-11.839844 8.035156s2.546875 10.789063 8.035157 11.839844c58.839843 11.269531 108.21875 48.464843 135.566406 100.203125-48.109375-32.679688-106.746094-50.953125-169.527344-51.328125-2.050781-.011719-4.097656 0-6.140625.027343-.082031 0-.164063-.003906-.246094-.003906-2.25 0-4.484375.0625-6.707031.167969-46.117188 1.59375-91.320312 13.164063-131.421875 33.6875-11.035156 5.648437-21.640625 11.980469-31.773437 18.921875 26.96875-52.101562 76.1875-89.757812 135.070312-101.429688 5.480469-1.085937 9.042969-6.410156 7.957031-11.890624-1.085937-5.484376-6.40625-9.046876-11.890625-7.960938-38.4375 7.617188-74.121094 25.695312-103.191406 52.28125-28.21875 25.804688-49.046875 58.542969-60.371094 94.824219-18.804687 17.339843-35.230468 37.144531-48.765625 58.953125-2.027343 3.269531-2.027343 7.402344 0 10.671875 13.535157 21.808593 29.964844 41.617187 48.773438 58.960937 13.273437 42.492188 40.101562 80.640625 75.785156 107.652344 37.648437 28.503906 82.574219 43.570312 129.921875 43.570312 47.117188 0 91.871094-14.933593 129.425781-43.1875 35.566407-26.761718 62.433594-64.597656 75.894531-106.78125 18.980469-17.527343 35.574219-37.734374 49.21875-60.316406 1.945313-3.21875 1.945313-7.25 0-10.46875zm-256.335937 127.894532c-2.929687-.027344-5.847656-.09375-8.757813-.203126-62.875-3.804687-112.886718-57.257812-112.886718-122.429687 0-65.714844 50.828125-119.523437 114.421875-122.539063 1.921875-.0625 3.847656-.113281 5.78125-.136718 66.128906.082031 119.90625 55.082031 119.90625 122.675781 0 67.089844-52.996094 121.757813-118.464844 122.632813zm-232.089844-122.660157c12.429688-19 27.101563-36.085937 43.609375-51.050781.167969-.144531.332032-.296875.492188-.453125 26.679687-24.066406 58.132812-42.601563 92.671875-54.714844-28.570313 26.179688-46.570313 64.109375-46.570313 106.246094 0 42.097656 17.96875 79.996094 46.5 106.167969-34.460937-12.101563-65.851562-30.589844-92.492187-54.59375-.007813-.007813-.019531-.019532-.03125-.03125-16.742188-15.089844-31.605469-32.351563-44.179688-51.570313zm233.886719 195.28125c-73.1875 0-139.96875-41.785156-173.15625-105.078125 10.09375 6.910156 20.65625 13.207032 31.644531 18.832032 39.59375 20.269531 84.132813 31.777343 129.664063 33.617187 4.941406.300781 9.898437.292969 14.847656.261719 62.824219-.375 121.5-18.671875 169.628906-51.398438-33.265625 63.28125-98.765625 103.765625-172.628906 103.765625zm85.386719-84.695312c31.425781-26.226563 51.519531-66.046875 51.519531-110.558594 0-44.550781-20.121094-84.402344-51.585938-110.632813 61.789063 18.355469 114.425782 56.910157 148.652344 110.605469-34.214844 53.675781-86.824218 92.222657-148.585937 110.585938zm0 0"/><path d="m348.289062 193.070312c-6.320312-25.066406-23.117187-45.824218-48.574218-60.035156-22.027344-12.308594-50.210938-15.511718-77.332032-8.800781-28.96875 7.171875-52.691406 24.554687-66.796874 48.941406-2.796876 4.835938-1.144532 11.027344 3.695312 13.824219 4.835938 2.796875 11.027344 1.144531 13.824219-3.695312 24.476562-42.316407 81.820312-52.113282 116.742187-32.601563 45.054688 25.148437 48.488282 68.601563 31.898438 100.507813-15.429688 29.691406-51.300782 52.351562-93.582032 31.945312-13.40625-6.476562-23.03125-17.804688-27.105468-31.890625-4.382813-15.164063-1.796875-32.027344 7.097656-46.289063 11.148438-17.898437 35.011719-24.78125 53.214844-15.335937 8.320312 4.304687 14.21875 11.453125 16.605468 20.132813 2.488282 9.054687.929688 18.742187-4.375 27.257812-4.160156 6.644531-13.328124 9.339844-20.011718 5.886719-2.890625-1.496094-4.933594-3.953125-5.746094-6.914063-.863281-3.15625-.289062-6.578125 1.617188-9.632812 2.953124-4.742188 1.507812-10.984375-3.234376-13.941406-4.742187-2.960938-10.980468-1.511719-13.941406 3.230468-4.929687 7.90625-6.335937 17.03125-3.957031 25.699219 2.324219 8.46875 7.992187 15.40625 15.96875 19.535156 16.203125 8.367188 36.609375 2.605469 46.46875-13.144531 8.339844-13.386719 10.726563-28.78125 6.722656-43.34375-3.898437-14.1875-13.425781-25.816406-26.808593-32.734375-27.34375-14.1875-63.101563-4.050781-79.699219 22.601563-11.929688 19.117187-15.34375 41.941406-9.363281 62.613281 5.691406 19.679687 19.09375 35.480469 37.75 44.492187 13.667968 6.597656 27.546874 9.910156 41.15625 9.910156 10.558593 0 20.957031-1.996093 30.964843-5.996093 20.316407-8.125 37.441407-24.015625 48.214844-44.746094 11.117187-21.386719 14.167969-45.347656 8.585937-67.476563zm0 0"/><path d="m255.796875 20.738281h.203125c5.589844 0 10.117188-4.53125 10.117188-10.121093 0-5.585938-4.527344-10.117188-10.117188-10.117188h-.203125c-5.585937 0-10.117187 4.53125-10.117187 10.117188 0 5.589843 4.53125 10.121093 10.117187 10.121093zm0 0"/></svg>