<svg height="511pt" viewBox="0 -63 511.99961 511" width="511pt" xmlns="http://www.w3.org/2000/svg"><g fill-rule="evenodd"><path d="m376.453125 121.082031h-327.558594c0 21.488281-17.402343 38.894531-38.886719 38.894531v176.59375c21.484376 0 38.886719 17.433594 38.886719 38.917969h327.558594c0-21.484375 17.433594-38.917969 38.917969-38.917969v-176.59375c-21.484375 0-38.917969-17.40625-38.917969-38.894531zm0 0" fill="#ff6977"/><path d="m59.042969 175.707031h307.289062v145.160157h-307.289062zm0 0" fill="#e8b3ce"/><path d="m169.449219 248.5 5.640625-16.640625-17.234375-3.402344-11.566407-13.207031-11.5625 13.207031-17.234374 3.402344 5.667968 16.640625-5.667968 16.609375 17.234374 3.429687 11.5625 13.210938 11.566407-13.210938 17.234375-3.429687zm0 0" fill="#ffc15a"/><path d="m242.890625 231.859375 5.640625 16.640625-5.640625 16.609375 17.207031 3.429687 11.5625 13.210938 11.59375-13.210938 17.207032-3.429687-5.640626-16.609375 5.640626-16.640625-17.207032-3.402344-11.59375-13.207031-11.5625 13.207031zm0 0" fill="#ffc15a"/><path d="m416.25 10.507812-319.394531 72.679688c3.261719 14.398438-1.925781 28.769531-12.300781 37.898438h291.898437c0 21.484374 17.433594 38.890624 38.917969 38.890624v111.625l57.3125-13.039062c-4.761719-20.949219 8.363281-41.808594 29.308594-46.570312l-39.199219-172.175782c-20.949219 4.761719-41.78125-8.363281-46.542969-29.308594zm0 0" fill="#ff6977"/><path d="m418.488281 66.007812-242.039062 55.074219h200.003906c0 21.488281 17.433594 38.894531 38.917969 38.894531v55.613282l35.316406-8.050782zm0 0" fill="#e8b3ce"/></g><path d="m366.335938 165.699219h-113.722657c-5.527343 0-10.007812 4.480469-10.007812 10.007812 0 5.527344 4.480469 10.007813 10.007812 10.007813h103.714844v125.144531h-287.277344v-125.144531h103.714844c5.523437 0 10.003906-4.480469 10.003906-10.007813 0-5.527343-4.480469-10.007812-10.003906-10.007812h-113.722656c-5.527344 0-10.007813 4.480469-10.007813 10.007812v145.160157c0 5.523437 4.480469 10.003906 10.007813 10.003906h307.292969c5.523437 0 10.003906-4.476563 10.003906-10.003906v-145.160157c0-5.527343-4.480469-10.007812-10.003906-10.007812zm0 0"/><path d="m177.027344 222.042969-13.890625-2.742188-9.320313-10.640625c-1.898437-2.171875-4.640625-3.417968-7.527344-3.417968-2.886718 0-5.628906 1.246093-7.527343 3.417968l-9.320313 10.640625-13.890625 2.742188c-2.828125.558593-5.28125 2.3125-6.726562 4.8125-1.441407 2.5-1.734375 5.5-.804688 8.230469l4.566407 13.410156-4.566407 13.382812c-.933593 2.726563-.640625 5.726563.800781 8.226563 1.4375 2.5 3.886719 4.253906 6.714844 4.816406l13.898438 2.765625 9.324218 10.652344c1.902344 2.171875 4.644532 3.414062 7.53125 3.414062 2.882813 0 5.628907-1.242187 7.527344-3.414062l9.324219-10.652344 13.898437-2.765625c2.828126-.5625 5.273438-2.316406 6.714844-4.8125 1.441406-2.492187 1.734375-5.488281.808594-8.21875l-4.550781-13.394531 4.550781-13.425782c.925781-2.730468.628906-5.726562-.8125-8.222656-1.445312-2.492187-3.894531-4.246094-6.722656-4.804687zm-17.054688 29.675781 1.972656 5.804688-6.042968 1.203124c-2.164063.429688-4.125 1.5625-5.578125 3.222657l-4.035157 4.609375-4.035156-4.609375c-1.453125-1.660157-3.414062-2.792969-5.578125-3.222657l-6.023437-1.199218 1.976562-5.796875c.714844-2.09375.714844-4.363281 0-6.457031l-1.976562-5.8125 6.007812-1.183594c2.171875-.429688 4.136719-1.5625 5.59375-3.226563l4.035156-4.609375 4.035157 4.609375c1.457031 1.664063 3.421875 2.796875 5.589843 3.226563l6.03125 1.1875-1.976562 5.820312c-.703125 2.085938-.703125 4.347656.003906 6.433594zm0 0"/><path d="m234.222656 270.109375c1.441406 2.496094 3.886719 4.25 6.710938 4.8125l13.875 2.765625 9.324218 10.652344c1.898438 2.167968 4.640626 3.414062 7.523438 3.414062h.003906c2.878906 0 5.621094-1.238281 7.519532-3.402344l9.355468-10.660156 13.878906-2.769531c2.828126-.5625 5.273438-2.316406 6.714844-4.8125 1.4375-2.496094 1.730469-5.488281.804688-8.21875l-4.546875-13.394531 4.550781-13.421875c.925781-2.730469.628906-5.726563-.816406-8.222657-1.441406-2.496093-3.890625-4.246093-6.71875-4.808593l-13.871094-2.742188-9.347656-10.652343c-1.902344-2.164063-4.644532-3.40625-7.523438-3.40625h-.003906c-2.882812.003906-5.625 1.246093-7.523438 3.414062l-9.320312 10.648438-13.863281 2.738281c-2.828125.5625-5.277344 2.3125-6.71875 4.808593-1.445313 2.496094-1.742188 5.492188-.816407 8.222657l4.550782 13.421875-4.546875 13.394531c-.929688 2.730469-.632813 5.726563.804687 8.21875zm23.785156-24.824219-1.976562-5.824218 6.003906-1.183594c2.167969-.429688 4.132813-1.5625 5.589844-3.226563l4.046875-4.621093 4.0625 4.628906c1.453125 1.660156 3.414063 2.789062 5.578125 3.21875l6.003906 1.183594-1.972656 5.824218c-.707031 2.085938-.707031 4.347656 0 6.433594l1.972656 5.808594-6.015625 1.199218c-2.160156.429688-4.113281 1.558594-5.566406 3.210938l-4.0625 4.632812-4.046875-4.621093c-1.449219-1.660157-3.410156-2.792969-5.570312-3.222657l-6.019532-1.199218 1.972656-5.808594c.707032-2.085938.707032-4.347656 0-6.433594zm0 0"/><path d="m511.75 209.769531-39.199219-172.175781c-1.230469-5.386719-6.582031-8.753906-11.976562-7.535156-7.523438 1.710937-15.261719.390625-21.789063-3.722656-6.527344-4.113282-11.066406-10.519532-12.777344-18.046876-.589843-2.589843-2.183593-4.835937-4.429687-6.25-2.242187-1.414062-4.964844-1.878906-7.546875-1.289062l-319.394531 72.679688c-5.382813 1.226562-8.757813 6.578124-7.539063 11.964843 2.082032 9.199219-.464844 18.738281-6.65625 25.683594h-31.546875c-5.523437 0-10.003906 4.480469-10.003906 10.007813 0 15.925781-12.957031 28.882812-28.882813 28.882812-5.527343 0-10.007812 4.480469-10.007812 10.007812v176.59375c0 5.527344 4.480469 10.007813 10.007812 10.007813 15.925782 0 28.882813 12.96875 28.882813 28.910156 0 5.527344 4.480469 10.007813 10.003906 10.007813h327.558594c5.527344 0 10.007813-4.480469 10.007813-10.007813 0-15.941406 12.96875-28.910156 28.910156-28.910156 5.527344 0 10.007812-4.480469 10.007812-10.007813v-56.984374l49.527344-11.269532c5.386719-1.222656 8.761719-6.585937 7.535156-11.972656-3.535156-15.542969 6.234375-31.066406 21.773438-34.597656 2.585937-.589844 4.835937-2.179688 6.25-4.429688 1.410156-2.242187 1.875-4.960937 1.285156-7.546875zm-95.355469-59.75c-.335937-.03125-.679687-.050781-1.023437-.050781-15.941406 0-28.910156-12.957031-28.910156-28.882812 0-5.527344-4.480469-10.007813-10.007813-10.007813h-110.933594l145.433594-33.09375 27.761719 122.019531-13.335938 3.042969v-43.070313c0-5.183593-3.9375-9.445312-8.984375-9.957031zm-48.917969 215.464844h-309.601562c-3.953125-18.960937-18.914062-33.933594-37.863281-37.890625v-158.640625c18.949219-3.957031 33.90625-18.914063 37.859375-37.859375h309.605468c2.789063 13.359375 11.058594 24.730469 22.335938 31.664062 4.71875 2.898438 9.960938 5.03125 15.550781 6.195313v102.648437.015626 55.976562c-18.960937 3.957031-33.929687 18.925781-37.886719 37.890625zm94.238282-114.6875-36.335938 8.265625v-35.492188l27.535156-6.277343c5.386719-1.226563 8.757813-6.585938 7.53125-11.972657l-32.199218-141.53125c-.589844-2.589843-2.183594-4.835937-4.429688-6.25-2.246094-1.414062-4.960937-1.878906-7.546875-1.289062l-240.941406 54.828125h-71.464844c2.710938-6.316406 4.074219-13.175781 3.957031-20.125l301.882813-68.695313c3.914063 8.589844 10.242187 15.863282 18.414063 21.011719 8.175781 5.148438 17.445312 7.699219 26.914062 7.527344l35.210938 154.65625c-17.605469 8.066406-28.878907 25.976563-28.527344 45.34375zm0 0"/><path d="m212.675781 185.714844h.195313c5.527344 0 10.007812-4.480469 10.007812-10.007813 0-5.527343-4.480468-10.007812-10.007812-10.007812h-.195313c-5.527343 0-10.007812 4.480469-10.007812 10.007812 0 5.527344 4.480469 10.007813 10.007812 10.007813zm0 0"/></svg>