<svg height="512pt" viewBox="-10 0 512 512.002" width="512pt" xmlns="http://www.w3.org/2000/svg"><g fill-rule="evenodd"><path d="m47.675781 165.5625c0-10.351562-8.386719-18.707031-18.714843-18.707031-10.332032 0-18.71875 8.355469-18.71875 18.707031 0 10.328125 8.386718 18.710938 18.71875 18.710938 4.726562 0 9.082031-1.769532 12.359374-4.671876 3.890626-3.421874 6.355469-8.441406 6.355469-14.039062zm0 0" fill="#ff6977"/><path d="m444.324219 173.800781c0 5.078125 2.003906 9.6875 5.28125 13.050781 3.425781 3.484376 8.15625 5.65625 13.4375 5.65625 10.328125 0 18.714843-8.378906 18.714843-18.707031 0-10.324219-8.386718-18.707031-18.714843-18.707031-10.332031 0-18.71875 8.382812-18.71875 18.707031zm0 0" fill="#ff6977"/><path d="m159.976562 273.171875v114.714844l-66.015624 36.519531c-47.589844 26.335938-12.101563 109.085938 63.199218 64.273438l82.09375-48.816407 82.066406 48.816407c75.300782 44.8125 110.789063-37.9375 63.199219-64.273438l-65.984375-36.519531v-114.714844l62.648438 18.101563c43.296875 13.109374 64.828125-43.132813 31.339844-63.175782-2.871094-1.710937-6.152344-3.191406-9.835938-4.292968l-4.0625-1.332032-92.132812-30.109375c72.632812-60.183593 28.902343-181.6875-67.234376-182.121093-96.167968.433593-139.898437 121.9375-67.265624 182.121093l-92.105469 30.109375-4.0625 1.332032c-46.890625 14.183593-25.507813 81.679687 21.472656 67.46875zm0 0" fill="#ffc15a"/></g><path d="m241.460938 255.941406h-.261719c-5.65625 0-10.242188 4.585938-10.242188 10.242188s4.585938 10.242187 10.242188 10.242187h.261719c5.65625 0 10.238281-4.585937 10.238281-10.242187s-4.582031-10.242188-10.238281-10.242188zm0 0"/><path d="m241.199219 318.59375h-.234375c-5.65625 0-10.238282 4.582031-10.238282 10.242188 0 5.65625 4.582032 10.238281 10.238282 10.238281h.234375c5.65625 0 10.238281-4.582031 10.238281-10.238281 0-5.660157-4.582031-10.242188-10.238281-10.242188zm0 0"/><path d="m210.816406 165.332031c0 5.65625 4.585938 10.242188 10.242188 10.242188h39.058594c5.65625 0 10.242187-4.585938 10.242187-10.242188s-4.585937-10.242187-10.242187-10.242187h-39.058594c-5.65625 0-10.242188 4.585937-10.242188 10.242187zm0 0"/><path d="m463.042969 144.851562c-15.96875 0-28.957031 12.988282-28.957031 28.949219 0 4.304688.949218 8.386719 2.640624 12.058594l-26.683593 29.679687c-1.375-.539062-2.789063-1.046874-4.269531-1.496093l-79.976563-26.144531c11.859375-13.414063 20.136719-29.265626 24.230469-46.605469 5.03125-21.304688 3.65625-43.835938-3.976563-65.160157-7.734375-21.613281-21.234375-40.164062-39.035156-53.652343-19.265625-14.59375-42.679687-22.367188-67.804687-22.480469-27.816407.121094-53.28125 9.554688-73.652344 27.289062-4.269532 3.710938-4.714844 10.179688-1.003906 14.445313 3.714843 4.269531 10.183593 4.714844 14.449218 1.003906 16.613282-14.460937 37.464844-22.15625 60.203125-22.253906 48.128907.214844 76.789063 32.453125 87.558594 62.550781 10.574219 29.539063 9.082031 71.703125-26.808594 101.445313-2.875 2.378906-4.226562 6.132812-3.527343 9.800781.699218 3.664062 3.332031 6.660156 6.878906 7.816406l91.835937 30.011719-16.5 18.351563c-3.78125 4.203124-3.4375 10.679687.769531 14.460937 1.957032 1.761719 4.40625 2.625 6.84375 2.625 2.804688 0 5.597657-1.144531 7.621094-3.394531l19.738282-21.957032c5.613281 6.738282 6.007812 15.433594 3.863281 22.519532-3.703125 12.238281-15.445313 22.167968-33.332031 16.753906-.039063-.011719-.082032-.023438-.121094-.035156l-62.652344-18.101563c-3.09375-.894531-6.425781-.28125-8.996094 1.65625-2.574218 1.933594-4.089844 4.964844-4.089844 8.183594v114.714844c0 3.726562 2.023438 7.160156 5.285157 8.960937l65.988281 36.519532c10.28125 5.691406 16.226562 15.277343 16.3125 26.304687.085938 11.320313-5.890625 21.8125-15.59375 27.378906-13.679688 7.847657-32.761719 5.304688-53.726562-7.171875l-82.0625-48.816406c-3.226563-1.917969-7.246094-1.917969-10.472657 0l-82.09375 48.816406c-20.960937 12.476563-40.042969 15.019532-53.726562 7.171875-9.703125-5.566406-15.679688-16.058593-15.59375-27.378906.085937-11.027344 6.03125-20.613281 16.3125-26.304687l66.015625-36.515626c3.261718-1.804687 5.285156-5.238281 5.285156-8.964843v-114.714844c0-3.21875-1.511719-6.25-4.085938-8.183594-2.570312-1.9375-5.90625-2.546875-8.996093-1.65625l-62.679688 18.101563c-.042969.011718-.085937.023437-.125.035156-13.035156 3.945312-21.363281-.472656-26.050781-4.867188-6.746094-6.328124-9.890625-16.515624-7.824219-25.347656 1.3125-5.601562 5.230469-12.933594 16.273438-16.953125l20.324219 22.605469c2.019531 2.25 4.8125 3.394531 7.617187 3.394531 2.441406 0 4.886719-.867187 6.84375-2.628906 4.207031-3.78125 4.550781-10.257813.769531-14.460937l-14.277344-15.882813 77.167969-25.226563c3.542969-1.160156 6.179688-4.15625 6.878907-7.824218.695312-3.664063-.65625-7.417969-3.53125-9.800782-24.558594-20.339843-36.085938-50.226562-31.617188-81.992187.785156-5.601563-3.117188-10.78125-8.714844-11.566406-5.597656-.785157-10.78125 3.113281-11.570312 8.714843-4.632813 32.960938 4.78125 64.285157 26.050781 88.273438l-69.640625 22.765625-28.449219-31.640625c2.125-4.023438 3.335938-8.605469 3.335938-13.46875 0-15.960938-12.992188-28.949219-28.957031-28.949219-15.96875 0-28.960938 12.988281-28.960938 28.949219 0 15.964844 12.992188 28.953125 28.960938 28.953125 3.625 0 7.089843-.675781 10.292968-1.898437l23.167969 25.769531c-11.277344 6.195312-19.066406 16.0625-21.90625 28.203125-3.738281 15.964844 1.660156 33.609375 13.75 44.949218 12 11.253907 28.730469 14.738282 45.929687 9.558594l49.539063-14.308594v95.0625l-60.734375 33.59375c-16.6875 9.238282-26.734375 25.710938-26.878906 44.070313-.140625 18.703125 9.773437 36.0625 25.886718 45.304687 5.972657 3.425782 15.417969 7.183594 28.117188 7.183594 12.394531-.003906 27.886719-3.578125 46.269531-14.519531l76.859375-45.703125 76.824219 45.703125c37.234375 22.15625 62.59375 14.105469 74.394531 7.335937 16.109375-9.242187 26.027344-26.601562 25.882813-45.308593-.140625-18.355469-10.1875-34.828125-26.878907-44.066407l-60.703124-33.59375v-95.058593l49.503906 14.300781c29.839844 8.992188 52.167968-8.5 58.808594-30.449219 4.441406-14.679687 1.761718-31.644531-9.726563-43.730469l23.960937-26.648437c3.585938 1.59375 7.550782 2.484375 11.722657 2.484375 15.96875 0 28.957031-12.984375 28.957031-28.949219 0-15.960937-12.988281-28.949219-28.957031-28.949219zm-434.082031 29.179688c-4.675782 0-8.476563-3.796875-8.476563-8.46875 0-4.667969 3.800781-8.464844 8.476563-8.464844 4.671874 0 8.472656 3.796875 8.472656 8.464844 0 4.671875-3.800782 8.46875-8.472656 8.46875zm434.082031 8.238281c-4.675781 0-8.476563-3.796875-8.476563-8.46875 0-4.667969 3.800782-8.464843 8.476563-8.464843 4.671875 0 8.476562 3.796874 8.476562 8.464843 0 4.671875-3.804687 8.46875-8.476562 8.46875zm0 0"/><path d="m143.527344 74.976562c1.46875.734376 3.035156 1.082032 4.574218 1.082032 3.753907 0 7.371094-2.074219 9.164063-5.664063l.089844-.171875c2.527343-5.058594.476562-11.210937-4.582031-13.742187-5.054688-2.53125-11.207032-.476563-13.738282 4.582031l-.085937.171875c-2.53125 5.058594-.480469 11.210937 4.578125 13.742187zm0 0"/><path d="m256.066406 124.015625c2 2.003906 4.621094 3.003906 7.246094 3.003906 2.617188 0 5.238281-1 7.238281-3l6.574219-6.570312 6.570312 6.570312c2 2 4.621094 3 7.242188 3s5.242188-1 7.242188-3.003906c4-4 4-10.484375-.003907-14.480469l-6.566406-6.5625 6.566406-6.566406c4.003907-3.996094 4.003907-10.480469.003907-14.480469-3.996094-4-10.484376-4.003906-14.480469-.003906l-6.574219 6.570313-6.574219-6.570313c-3.996093-4-10.480469-3.996094-14.480469.003906s-4 10.484375.003907 14.480469l6.566406 6.566406-6.566406 6.5625c-4.003907 3.996094-4.003907 10.480469-.007813 14.480469zm0 0"/><path d="m176.464844 124.011719c2.003906 2.003906 4.625 3.007812 7.25 3.007812 2.617187 0 5.234375-1 7.234375-2.996093l6.589843-6.578126 6.59375 6.578126c1.996094 1.996093 4.613282 2.996093 7.234376 2.996093 2.621093 0 5.246093-1.003906 7.246093-3.007812 3.996094-4 3.992188-10.484375-.011719-14.480469l-6.570312-6.558594 6.570312-6.5625c4.003907-3.996094 4.007813-10.480468.011719-14.480468-3.996093-4.003907-10.480469-4.007813-14.480469-.011719l-6.59375 6.578125-6.589843-6.578125c-4-3.996094-10.484375-3.992188-14.484375.011719-3.996094 4-3.988282 10.484374.011718 14.480468l6.570313 6.5625-6.570313 6.558594c-4 3.996094-4.007812 10.480469-.011718 14.480469zm0 0"/></svg>