<svg height="512pt" viewBox="0 0 512.00039 512" width="512pt" xmlns="http://www.w3.org/2000/svg"><g fill-rule="evenodd"><path d="m239.183594 178.964844-18.664063 100.117187 4.964844 107.320313c3.003906 65.652344 65.316406 53.066406 56.976563 6.546875l-19.824219-110.71875 4.90625-99.296875c29.15625-5.128906 54.28125-37.386719 59.074219-78.945313 5.476562-47.761719-18.035157-89.714843-52.523438-93.683593-34.488281-3.964844-66.933594 31.550781-72.40625 79.34375-4.679688 40.476562 11.488281 76.757812 37.496094 89.316406zm0 0" fill="#e8e7e9"/><path d="m178.289062 320.808594c8.992188-33.304688 5.390626-38.917969-18.945312-100.570313-12.589844-35.800781-62.050781-9.496093-52.238281 35.375-12.140625-37.132812-17.953125-49.972656-21.753907-66.019531l10.863282-106.015625c8.734375-54.875-38.0625-50.851563-46.285156-26.386719l-39.933594 118.910156 20.335937 107.828126 26.96875 124.101562 94.105469-5.332031zm0 0" fill="#ffddcf"/><path d="m151.402344 402.699219-94.101563 5.332031c-11.742187.679688-20.816406 10.828125-20.136719 22.589844l2.894532 51.195312c.679687 11.761719 10.832031 20.804688 22.601562 20.152344l94.074219-5.355469c11.773437-.652343 20.820313-10.828125 20.167969-22.566406l-2.921875-51.21875c-.652344-11.734375-10.835938-20.808594-22.578125-20.128906zm0 0" fill="#cbe558"/><path d="m333.679688 320.808594c-8.960938-33.304688-5.386719-38.917969 18.976562-100.570313 12.5625-35.800781 62.023438-9.496093 52.210938 35.375 12.140624-37.132812 17.953124-49.972656 21.753906-66.019531l-10.835938-106.015625c-8.734375-54.875 38.0625-50.851563 46.257813-26.386719l39.960937 118.910156-20.332031 107.828126-27 124.101562-94.074219-5.332031zm0 0" fill="#ffddcf"/><path d="m360.597656 402.699219 94.074219 5.332031c11.738281.679688 20.816406 10.828125 20.164063 22.589844l-2.921876 51.195312c-.679687 11.761719-10.832031 20.804688-22.574218 20.152344l-94.105469-5.355469c-11.742187-.652343-20.816406-10.828125-20.136719-22.566406l2.894532-51.21875c.679687-11.734375 10.832031-20.808594 22.605468-20.128906zm0 0" fill="#cbe558"/></g><path d="m336.550781 105.128906c2.882813-25.171875-1.550781-49.78125-12.488281-69.289062-11.535156-20.574219-28.875-33.167969-48.824219-35.460938-19.953125-2.308594-39.707031 6.027344-55.609375 23.449219-15.085937 16.527344-24.988281 39.5-27.871094 64.671875-4.683593 40.5 10.054688 78.472656 36.296876 95.625l-17.359376 93.128906c-.144531.753906-.195312 1.523438-.160156 2.292969l4.964844 107.3125c1.160156 25.410156 11.042969 44.253906 27.109375 51.699219 4.601563 2.128906 9.503906 3.179687 14.386719 3.175781 7.464844 0 14.878906-2.449219 21.0625-7.21875 12.105468-9.339844 17.429687-25.539063 14.242187-43.328125l-19.625-109.597656 4.484375-90.757813c30.636719-9.761719 54.542969-43.683593 59.390625-85.703125zm-83.75 178.863282 19.824219 110.722656c1.875 10.464844-.59375 19.203125-6.777344 23.972656-4.363281 3.367188-9.910156 4.015625-14.832031 1.734375-9.070313-4.203125-14.738281-16.769531-15.546875-34.480469l-4.910156-106.164062 18.449218-98.980469c.828126-4.433594-1.417968-8.871094-5.480468-10.832031-22.535156-10.878906-35.957032-44.175782-31.910156-79.179688 2.410156-21.039062 10.5-40.03125 22.777343-53.480468 11.457031-12.550782 25.140625-18.613282 38.558594-17.070313 13.402344 1.542969 25.363281 10.558594 33.671875 25.378906 8.902344 15.878907 12.476562 36.207031 10.066406 57.230469-4.179687 36.253906-25.578125 65.796875-50.878906 70.246094-4.597656.808594-8.019531 4.691406-8.25 9.351562l-4.90625 99.296875c-.039062.753907.007812 1.507813.144531 2.253907zm0 0"/><path d="m163.53125 163.058594c1.925781 1.796875 4.371094 2.6875 6.816406 2.6875 2.671875 0 5.339844-1.066406 7.308594-3.179688 3.765625-4.035156 3.546875-10.359375-.488281-14.125-8.929688-8.332031-15.238281-28.957031-15.34375-50.152344-.101563-20.761718 5.515625-38.070312 15.414062-47.492187 4-3.808594 4.15625-10.132813.351563-14.132813-3.804688-3.996093-10.128906-4.152343-14.128906-.347656-13.875 13.199219-21.753907 35.824219-21.625 62.070313.132812 27.113281 8.648437 52.5 21.695312 64.671875zm0 0"/><path d="m367.648438 98.285156c-.105469 21.199219-6.414063 41.824219-15.34375 50.15625-4.039063 3.765625-4.257813 10.089844-.492188 14.125 1.96875 2.109375 4.636719 3.179688 7.3125 3.179688 2.441406 0 4.890625-.890625 6.816406-2.6875 13.046875-12.175782 21.5625-37.5625 21.699219-64.675782.128906-26.242187-7.753906-48.867187-21.628906-62.066406-4-3.808594-10.324219-3.648437-14.128907.347656-3.804687 4-3.648437 10.324219.351563 14.132813 9.898437 9.421875 15.515625 26.730469 15.414063 47.488281zm0 0"/><path d="m168.707031 216.730469c-6.410156-17.964844-22.199219-26.753907-39.347656-21.882813-10.050781 2.859375-19.328125 10.027344-25.5625 20.15625-3.757813-10.6875-6.367187-18.226562-8.328125-26.097656l10.660156-104.039062c5.328125-34.046876-8.992187-50.175782-24.203125-53.914063-17.175781-4.226563-35.777343 6.117187-41.472656 23.054687l-39.933594 118.914063c-.5429685 1.621094-.664062 3.351563-.347656 5.03125l17.132813 90.824219c1.019531 5.421875 6.242187 8.988281 11.671874 7.96875 5.425782-1.023438 8.992188-6.25 7.96875-11.675782l-16.644531-88.257812 39.101563-116.4375c2.554687-7.601562 11.480468-11.554688 17.75-10.011719 8.570312 2.109375 12.007812 13.9375 9.191406 31.644531-.03125.183594-.054688.371094-.074219.554688l-10.863281 106.011719c-.113281 1.113281-.039062 2.234375.21875 3.320312 2.351562 9.945313 5.375 18.550781 9.957031 31.570313 4.816407 13.695312 11.414063 32.457031 20.902344 63.238281 1.628906 5.273437 7.222656 8.230469 12.496094 6.609375 5.277343-1.628906 8.234375-7.222656 6.609375-12.496094-3.238282-10.5-6.140625-19.613281-8.753906-27.613281-4.667969-21.871094 7.945312-36.269531 17.992187-39.128906 7.085937-2.015625 12.167969 1.171875 15.089844 9.480469.039062.117187.085937.234374.128906.351562 1.425781 3.613281 2.78125 7.03125 4.066406 10.273438 20.394531 51.492187 22.117188 55.84375 14.597657 83.769531l-24.675782 75.160156-78.773437 4.460937-11.664063-53.710937c-1.167968-5.394531-6.492187-8.8125-11.886718-7.644531-5.394532 1.171875-8.820313 6.492187-7.648438 11.886718l11.449219 52.738282c-11.433594 5.226562-19.089844 17.074218-18.324219 30.347656l2.894531 51.207031c.960938 16.664063 14.859375 29.605469 31.386719 29.601563.585938 0 1.171875-.015625 1.761719-.046875l94.058593-5.355469c8.359376-.464844 16.046876-4.175781 21.648438-10.453125 5.585938-6.261719 8.40625-14.304687 7.945312-22.660156l-2.921874-51.222657c-.46875-8.332031-4.175782-16-10.441407-21.59375-2.726562-2.433593-5.785156-4.34375-9.058593-5.683593l23.328124-71.054688c.054688-.167969.105469-.339843.152344-.511719 9.328125-34.5625 5.578125-44.03125-15.242187-96.59375-1.265625-3.1875-2.59375-6.546874-3.992188-10.089843zm-4.6875 266.101562c-2.039062 2.285157-4.820312 3.632813-7.851562 3.800781l-94.058594 5.355469c-6.308594.34375-11.710937-4.472656-12.074219-10.734375l-2.894531-51.207031c-.359375-6.273437 4.457031-11.675781 10.726563-12.039063l94.113281-5.328124c.21875-.015626.441406-.019532.660156-.019532 2.777344 0 5.445313 1.023438 7.566406 2.914063 2.277344 2.035156 3.625 4.808593 3.792969 7.808593v.015626l2.921875 51.207031c.167969 3.019531-.863281 5.941406-2.902344 8.226562zm0 0"/><path d="m511.480469 172.917969-39.960938-118.902344c-5.671875-16.933594-24.257812-27.28125-41.429687-23.066406-15.222656 3.734375-29.546875 19.855469-24.21875 53.917969l10.632812 104.039062c-1.960937 7.867188-4.570312 15.40625-8.324218 26.082031-6.242188-10.128906-15.527344-17.292969-25.582032-20.144531-17.136718-4.859375-32.914062 3.933594-39.304687 21.890625-1.371094 3.46875-2.675781 6.757813-3.914063 9.886719-20.894531 52.695312-24.660156 62.1875-15.351562 96.785156.046875.175781.101562.351562.15625.523438l23.355468 71.058593c-10.859374 4.433594-18.804687 14.792969-19.527343 27.257813v.019531l-2.890625 51.203125c-.484375 8.347656 2.332031 16.402344 7.933594 22.675781 5.597656 6.273438 13.277343 9.984375 21.613281 10.445313l94.113281 5.359375c.589844.03125 1.175781.046875 1.761719.046875 16.492187 0 30.382812-12.9375 31.347656-29.609375l2.921875-51.210938c.734375-13.265625-6.925781-25.101562-18.351562-30.332031l11.078124-50.894531c1.171876-5.394531-2.246093-10.71875-7.640624-11.890625-5.390626-1.179688-10.71875 2.246094-11.890626 7.640625l-11.292968 51.871093-78.753906-4.464843-24.699219-75.15625c-7.507813-27.960938-5.777344-32.328125 14.699219-83.960938 1.261718-3.1875 2.589843-6.539062 3.988281-10.078125.046875-.121094.09375-.242187.136719-.363281 2.910156-8.292969 7.96875-11.480469 15.054687-9.472656 10.011719 2.839843 22.582031 17.140625 18.074219 38.886719-2.636719 8.058593-5.566406 17.25-8.832032 27.855468-1.625 5.273438 1.332032 10.871094 6.609376 12.496094 5.273437 1.621094 10.867187-1.332031 12.492187-6.609375 3.246094-10.527344 6.152344-19.652344 8.769531-27.644531.078125-.214844.148438-.433594.210938-.652344 4.925781-15.046875 8.800781-26.0625 11.925781-34.945312 4.582031-13.019532 7.605469-21.617188 9.957031-31.566407.257813-1.085937.328125-2.207031.214844-3.3125l-10.832031-106.019531c-.019531-.183594-.042969-.371094-.074219-.554688-2.816406-17.710937.617188-29.542968 9.195312-31.644531 6.265626-1.535156 15.175782 2.414063 17.71875 10.011719l39.128907 116.4375-17.410157 92.339844c-1.023437 5.425781 2.546876 10.652344 7.96875 11.671875 5.425782 1.023437 10.652344-2.542969 11.675782-7.96875l17.894531-94.902344c.316406-1.679687.195313-3.414063-.347656-5.035156zm-46.625 257.136719-2.917969 51.183593c-.367188 6.277344-5.777344 11.085938-12.03125 10.753907l-94.117188-5.359376c-3.007812-.164062-5.78125-1.515624-7.820312-3.796874-2.039062-2.285157-3.066406-5.199219-2.890625-8.222657l2.894531-51.214843c.367188-6.273438 5.773438-11.058594 12.058594-10.71875l94.0625 5.328124c6.28125.363282 11.109375 5.773438 10.761719 12.046876zm0 0"/><path d="m35.832031 319.242188c1.046875 0 2.113281-.167969 3.160157-.515626 5.238281-1.746093 8.066406-7.40625 6.320312-12.644531l-.054688-.167969c-1.746093-5.238281-7.40625-8.066406-12.644531-6.320312-5.234375 1.742188-8.066406 7.402344-6.320312 12.640625l.058593.167969c1.394532 4.191406 5.292969 6.839844 9.480469 6.839844zm0 0"/><path d="m477.839844 299.214844c-5.445313-.910156-10.597656 2.773437-11.5 8.214844l-.03125.171874c-.90625 5.445313 2.773437 10.59375 8.214844 11.5.558593.09375 1.109374.140626 1.65625.140626 4.796874 0 9.03125-3.464844 9.847656-8.355469l.027344-.167969c.910156-5.445312-2.769532-10.597656-8.214844-11.503906zm0 0"/></svg>