<?xml version="1.0" encoding="iso-8859-1"?>
<!-- Generator: Adobe Illustrator 19.0.0, SVG Export Plug-In . SVG Version: 6.00 Build 0)  -->
<svg version="1.1" id="Capa_1" xmlns="http://www.w3.org/2000/svg" xmlns:xlink="http://www.w3.org/1999/xlink" x="0px" y="0px"
	 viewBox="0 0 512 512" style="enable-background:new 0 0 512 512;" xml:space="preserve">
<path style="fill:#F9D366;" d="M345.068,54.75l4.804-0.974c6.34-1.285,6.34-10.346,0-11.631l-4.804-0.974
	c-12.101-2.453-21.558-11.911-24.012-24.012l-0.974-4.804c-1.285-6.34-10.345-6.34-11.631,0l-0.974,4.804
	c-2.453,12.101-11.911,21.558-24.012,24.012l-4.804,0.974c-6.34,1.285-6.34,10.346,0,11.631l4.804,0.974
	c12.101,2.453,21.558,11.911,24.012,24.012l0.974,4.804c1.285,6.34,10.345,6.34,11.631,0l0.974-4.804
	C323.509,66.661,332.968,57.203,345.068,54.75z"/>
<path style="fill:#4E4F75;" d="M388.738,281.222v181.843c0,22.83-59.27,41.331-132.383,41.331c-20.997,0-40.858-1.529-58.493-4.247
	c-43.782-6.733-73.891-20.809-73.891-37.084V282.67l73.891-0.402L388.738,281.222z"/>
<g>
	<path style="fill:#32314C;" d="M197.863,282.268v217.881c-43.782-6.733-73.891-20.809-73.891-37.084V282.67L197.863,282.268z"/>
	<path style="fill:#32314C;" d="M388.738,281.222v27.721c-36.771,8.718-82.636,13.896-132.383,13.896s-95.612-5.178-132.383-13.896
		V282.67l73.891-0.402L388.738,281.222z"/>
</g>
<ellipse style="fill:#4E4F75;" cx="256.354" cy="226.266" rx="219.091" ry="68.406"/>
<path style="fill:#32314C;" d="M256.352,244.594c-43.559,0-86.283-4.41-120.301-12.419c-0.082-0.019-0.164-0.039-0.246-0.058
	c-6.159-1.454-6.159-10.247,0-11.702c0.082-0.019,0.164-0.038,0.246-0.058c34.019-8.009,76.742-12.419,120.301-12.419
	s86.282,4.41,120.301,12.419c0.082,0.019,0.164,0.039,0.246,0.058c6.159,1.454,6.159,10.247,0,11.702
	c-0.082,0.019-0.164,0.038-0.246,0.058C342.634,240.184,299.911,244.594,256.352,244.594z"/>
<path style="fill:#ED4596;" d="M167.467,27.671l8.372,16.964c1.021,2.067,2.993,3.5,5.274,3.832l18.721,2.72
	c5.746,0.835,8.039,7.896,3.882,11.948L190.17,76.34c-1.651,1.609-2.405,3.928-2.015,6.2l3.198,18.645
	c0.981,5.723-5.025,10.087-10.164,7.385l-16.744-8.803c-2.041-1.073-4.478-1.073-6.519,0l-16.744,8.803
	c-5.139,2.702-11.146-1.662-10.164-7.385l3.198-18.645c0.39-2.272-0.364-4.591-2.015-6.2l-13.548-13.204
	c-4.158-4.053-1.864-11.113,3.882-11.948l18.721-2.72c2.281-0.331,4.254-1.764,5.274-3.832l8.372-16.964
	C157.473,22.465,164.897,22.465,167.467,27.671z"/>
<path d="M277.152,61.225l4.804,0.974c9.129,1.851,16.223,8.944,18.073,18.072l0.974,4.805c1.295,6.386,6.75,10.846,13.266,10.845
	c6.516,0,11.971-4.46,13.264-10.846l0.974-4.804c1.85-9.128,8.944-16.222,18.073-18.073l4.804-0.974
	c6.386-1.294,10.845-6.749,10.845-13.265s-4.459-11.971-10.845-13.265l-4.804-0.974c-9.129-1.851-16.223-8.944-18.073-18.072
	l-0.974-4.804C326.238,4.46,320.783,0,314.268,0c0,0,0,0-0.001,0c-6.515,0-11.97,4.459-13.265,10.846l-0.974,4.804
	c-1.85,9.128-8.944,16.223-18.073,18.072l-4.804,0.974c-6.386,1.295-10.845,6.749-10.845,13.265S270.766,59.93,277.152,61.225z
	 M314.267,21.41c3.608,12.896,13.657,22.943,26.552,26.551c-12.896,3.608-22.945,13.656-26.552,26.551
	c-3.608-12.896-13.657-22.944-26.552-26.551C300.61,44.352,310.659,34.305,314.267,21.41z"/>
<path d="M422.557,77.157c4.199,0,7.601-3.403,7.601-7.601V49.414c0-4.198-3.402-7.601-7.601-7.601c-4.199,0-7.601,3.403-7.601,7.601
	v20.142C414.956,73.754,418.359,77.157,422.557,77.157z"/>
<path d="M422.557,131.384c4.199,0,7.601-3.403,7.601-7.601v-20.142c0-4.198-3.402-7.601-7.601-7.601
	c-4.199,0-7.601,3.403-7.601,7.601v20.142C414.956,127.981,418.359,131.384,422.557,131.384z"/>
<path d="M439.6,94.199h20.142c4.199,0,7.601-3.403,7.601-7.601c0-4.198-3.402-7.601-7.601-7.601H439.6
	c-4.199,0-7.601,3.403-7.601,7.601C431.999,90.796,435.401,94.199,439.6,94.199z"/>
<path d="M385.373,94.199h20.142c4.199,0,7.601-3.403,7.601-7.601c0-4.198-3.402-7.601-7.601-7.601h-20.142
	c-4.199,0-7.601,3.403-7.601,7.601C377.772,90.796,381.174,94.199,385.373,94.199z"/>
<path d="M73.743,118.244c4.199,0,7.601-3.403,7.601-7.601V90.501c0-4.198-3.402-7.601-7.601-7.601c-4.199,0-7.601,3.403-7.601,7.601
	v20.142C66.142,114.841,69.544,118.244,73.743,118.244z"/>
<path d="M73.743,172.47c4.199,0,7.601-3.403,7.601-7.601v-20.142c0-4.198-3.402-7.601-7.601-7.601c-4.199,0-7.601,3.403-7.601,7.601
	v20.142C66.142,169.067,69.544,172.47,73.743,172.47z"/>
<path d="M90.786,135.286h20.141c4.199,0,7.601-3.403,7.601-7.601s-3.402-7.601-7.601-7.601H90.786c-4.199,0-7.601,3.403-7.601,7.601
	S86.588,135.286,90.786,135.286z"/>
<path d="M36.56,135.286h20.142c4.199,0,7.601-3.403,7.601-7.601s-3.402-7.601-7.601-7.601H36.56c-4.199,0-7.601,3.403-7.601,7.601
	S32.361,135.286,36.56,135.286z"/>
<path d="M351.059,156.879c-4.137-0.612-8.016,2.255-8.63,6.408c-0.612,4.153,2.256,8.016,6.408,8.63
	c36.238,5.354,66.794,13.694,88.367,24.121c19.756,9.547,30.635,20.283,30.635,30.227c0,14.243-21.994,29.612-58.834,41.115
	c-40.668,12.697-94.88,19.69-152.653,19.69c-57.774,0-111.987-6.993-152.654-19.69c-36.84-11.502-58.834-26.873-58.834-41.115
	c0-18.637,39.806-43.953,127.203-55.495c4.162-0.549,7.09-4.369,6.541-8.53c-0.549-4.162-4.364-7.09-8.531-6.541
	c-39.921,5.272-74.01,14.062-98.585,25.42c-19.082,8.819-41.828,23.81-41.828,45.146c0,15.476,12.058,37.689,69.504,55.626
	c42.094,13.143,97.917,20.381,157.185,20.381s115.09-7.238,157.184-20.381c57.447-17.937,69.504-40.15,69.504-55.626
	C483.041,195.029,433.702,169.089,351.059,156.879z"/>
<path d="M141.525,225.632c1.729-1.797,2.539-4.406,1.925-7.014c-0.959-4.087-5.055-6.62-9.137-5.661l-0.255,0.061
	c-6.265,1.48-10.473,6.803-10.473,13.247c0,6.444,4.208,11.769,10.481,13.25l0.243,0.057c34.573,8.139,77.916,12.622,122.043,12.622
	c44.126,0,87.469-4.482,122.04-12.621l0.255-0.06c6.264-1.48,10.472-6.804,10.472-13.248c-0.001-6.444-4.209-11.768-10.481-13.249
	l-0.246-0.058c-4.087-0.959-8.177,1.574-9.138,5.661c-0.612,2.608,0.197,5.217,1.926,7.014
	c-32.837,7.337-73.422,11.361-114.829,11.361C214.948,236.993,174.362,232.968,141.525,225.632z"/>
<path d="M388.734,292.951c-4.199,0-7.601,3.403-7.601,7.601v162.514c0,13.754-48.61,33.733-124.781,33.733
	S131.57,476.82,131.57,463.066v-31.552c0-4.198-3.402-7.601-7.601-7.601c-4.199,0-7.601,3.403-7.601,7.601v31.552
	c0,14.857,15.253,27.473,44.109,36.482C186.195,507.577,220.244,512,256.351,512s70.157-4.423,95.874-12.452
	c28.857-9.009,44.109-21.625,44.109-36.482V300.552C396.335,296.354,392.933,292.951,388.734,292.951z"/>
<path d="M123.969,413.778c4.199,0,7.601-3.403,7.601-7.601V300.552c0-4.198-3.402-7.601-7.601-7.601
	c-4.199,0-7.601,3.403-7.601,7.601v105.626C116.368,410.375,119.772,413.778,123.969,413.778z"/>
<path d="M126.672,81.565l-3.146,18.337c-0.947,5.52,1.282,10.994,5.812,14.285c2.56,1.86,5.555,2.804,8.57,2.804
	c2.321,0,4.655-0.56,6.81-1.693l16.467-8.657l16.467,8.658c4.959,2.606,10.852,2.18,15.383-1.112
	c4.531-3.292,6.756-8.766,5.809-14.285L195.7,81.565l13.322-12.985c4.01-3.909,5.426-9.646,3.695-14.972
	c-1.73-5.327-6.248-9.135-11.791-9.941l-18.41-2.675l-8.234-16.682c-2.478-5.023-7.496-8.142-13.097-8.142
	s-10.62,3.119-13.097,8.142l-8.234,16.683l-18.411,2.675c-5.542,0.806-10.06,4.615-11.79,9.942
	c-1.731,5.326-0.315,11.062,3.695,14.971L126.672,81.565z M142.348,55.989c4.758-0.691,8.87-3.678,10.999-7.99l7.838-15.881
	l7.838,15.88c2.128,4.312,6.239,7.3,10.998,7.991l17.526,2.547l-12.683,12.363c-3.443,3.356-5.012,8.189-4.2,12.927l2.993,17.455
	l-15.676-8.241c-2.128-1.119-4.462-1.678-6.797-1.678s-4.669,0.559-6.797,1.678l-15.676,8.241l2.994-17.455
	c0.814-4.739-0.757-9.571-4.201-12.928l-12.683-12.362L142.348,55.989z"/>
<path d="M200.102,129.492c-4.052,1.1-6.444,5.275-5.345,9.327c10.546,38.86,10.687,82.646,10.687,83.084
	c0.002,4.197,3.404,7.599,7.601,7.599c0,0,0.001,0,0.002,0c4.198-0.001,7.599-3.403,7.599-7.6c0-1.868-0.128-46.2-11.217-87.064
	C208.328,130.785,204.15,128.393,200.102,129.492z"/>
<path d="M252.612,189.933c4.199,0,7.601-3.403,7.601-7.601V82.406c0-4.198-3.402-7.601-7.601-7.601s-7.601,3.403-7.601,7.601v99.926
	C245.011,186.53,248.413,189.933,252.612,189.933z"/>
<path d="M347.314,102.873c-3.513-2.299-8.223-1.318-10.523,2.194c-29.074,44.396-29.41,113.895-29.41,116.833
	c0,4.197,3.401,7.598,7.598,7.6c0.001,0,0.002,0,0.003,0c4.196,0,7.598-3.401,7.601-7.597c0.001-0.675,0.359-67.942,26.926-108.507
	C351.808,109.884,350.825,105.173,347.314,102.873z"/>
<path d="M286.324,184.251c3.864,0,7.17-2.934,7.555-6.86l5.067-51.682c0.409-4.178-2.644-7.897-6.822-8.306
	c-4.161-0.409-7.896,2.645-8.305,6.822l-5.067,51.682c-0.409,4.178,2.644,7.897,6.822,8.306
	C285.824,184.239,286.075,184.251,286.324,184.251z"/>
<g>
</g>
<g>
</g>
<g>
</g>
<g>
</g>
<g>
</g>
<g>
</g>
<g>
</g>
<g>
</g>
<g>
</g>
<g>
</g>
<g>
</g>
<g>
</g>
<g>
</g>
<g>
</g>
<g>
</g>
</svg>
