<?xml version="1.0" encoding="iso-8859-1"?>
<!-- Generator: Adobe Illustrator 19.0.0, SVG Export Plug-In . SVG Version: 6.00 Build 0)  -->
<svg version="1.1" id="Capa_1" xmlns="http://www.w3.org/2000/svg" xmlns:xlink="http://www.w3.org/1999/xlink" x="0px" y="0px"
	 viewBox="0 0 512 512" style="enable-background:new 0 0 512 512;" xml:space="preserve">
<path style="fill:#CFB1FC;" d="M340.002,170.298v247.423c0,47.865-38.801,86.675-86.675,86.675s-86.685-38.811-86.685-86.675
	V170.298L340.002,170.298L340.002,170.298z"/>
<g>
	<path style="fill:#CF8BFC;" d="M212.343,417.721V170.298h-45.702v247.423c0,47.865,38.811,86.675,86.685,86.675
		c7.912,0,15.568-1.081,22.85-3.066C239.394,491.3,212.343,457.675,212.343,417.721z"/>
	<path style="fill:#CF8BFC;" d="M340.002,170.298v31.937c-20.45,13.657-51.677,22.386-86.675,22.386
		c-18.574,0-36.104-2.464-51.514-6.813c-13.616-3.843-25.58-9.175-35.171-15.583v-31.927H340.002z"/>
</g>
<path style="fill:#CFB1FC;" d="M364.852,132.293c0,33.358-49.934,60.391-111.523,60.391c-18.58,0-36.107-2.46-51.514-6.81
	c-35.673-10.076-60.02-30.288-60.02-53.582c0-21.308,20.369-40.044,51.142-50.78H313.72
	C344.494,92.26,364.852,110.996,364.852,132.293z"/>
<path style="fill:#CF8BFC;" d="M232.372,81.513l-6.944,51.019c0,0-47.236,11.471-23.613,53.333v0.01
	c-35.673-10.076-60.02-30.288-60.02-53.582c0-21.308,20.369-40.044,51.142-50.78C192.938,81.513,232.372,81.513,232.372,81.513z"/>
<path style="fill:#F9D366;" d="M313.72,26.071v90.081c0,10.199-27.044,18.467-60.391,18.467c-10.066,0-19.551-0.754-27.902-2.088
	c-19.314-3.079-32.5-9.26-32.5-16.379V26.071H313.72z"/>
<g>
	<path style="fill:#DD8833;" d="M225.427,26.071v106.46c-19.314-3.079-32.5-9.26-32.5-16.379V26.071H225.427z"/>
	<ellipse style="fill:#DD8833;" cx="253.324" cy="26.071" rx="60.396" ry="18.467"/>
</g>
<path style="fill:#EF8C33;" d="M360.359,219.047l-84.204,40.107c-16.61,7.911-23.663,27.791-15.75,44.401l49.822,104.6
	c7.911,16.61,27.791,23.663,44.401,15.75l84.205-40.107c16.61-7.911,23.663-27.791,15.75-44.401l-49.822-104.6
	C396.848,218.187,376.969,211.136,360.359,219.047z"/>
<path style="fill:#ED4596;" d="M350.356,306.494c0,0,15.07-43.509,39.793-29.62c38.058,21.381-10.548,91.019-10.548,91.019
	s-84.701-6.142-77.319-49.167C307.076,290.777,350.356,306.494,350.356,306.494z"/>
<path style="fill:#F9D366;" d="M160.785,278.73l7.432-1.507c9.807-1.988,9.807-16.005,0-17.993l-7.432-1.507
	c-18.721-3.796-33.352-18.427-37.147-37.147l-1.507-7.432c-1.988-9.807-16.005-9.807-17.993,0l-1.507,7.432
	c-3.796,18.721-18.427,33.352-37.147,37.147l-7.432,1.507c-9.807,1.988-9.807,16.005,0,17.993l7.432,1.507
	c18.721,3.796,33.352,18.427,37.147,37.147l1.507,7.432c1.988,9.807,16.005,9.807,17.993,0l1.507-7.432
	C127.433,297.157,142.064,282.526,160.785,278.73z"/>
<path d="M424.104,147.468c4.2,0,7.604-3.405,7.604-7.604v-20.151c0-4.199-3.404-7.604-7.604-7.604s-7.604,3.405-7.604,7.604v20.151
	C416.5,144.064,419.904,147.468,424.104,147.468z"/>
<path d="M424.104,201.718c4.2,0,7.604-3.405,7.604-7.604v-20.151c0-4.199-3.404-7.604-7.604-7.604s-7.604,3.405-7.604,7.604v20.151
	C416.5,198.315,419.904,201.718,424.104,201.718z"/>
<path d="M461.304,149.311h-20.15c-4.2,0-7.604,3.405-7.604,7.604s3.404,7.604,7.604,7.604h20.15c4.2,0,7.604-3.405,7.604-7.604
	S465.504,149.311,461.304,149.311z"/>
<path d="M386.904,164.519h20.15c4.2,0,7.604-3.405,7.604-7.604s-3.404-7.604-7.604-7.604h-20.15c-4.2,0-7.604,3.405-7.604,7.604
	S382.704,164.519,386.904,164.519z"/>
<path d="M280.346,64.116c1.122,2.811,4.006,4.696,7.016,4.694c3.451-0.002,6.536-2.417,7.378-5.759
	c0.748-2.97-0.433-6.198-2.905-7.997c-2.529-1.84-6.029-1.907-8.641-0.202C280.187,56.816,278.941,60.794,280.346,64.116z"/>
<path d="M246.3,69.246c2.511,5.95,11.112,6.193,13.89,0.34c1.383-2.913,0.733-6.495-1.599-8.727
	c-2.408-2.306-6.105-2.766-9.012-1.138C246.292,61.56,244.833,65.767,246.3,69.246z"/>
<path d="M267.288,89.634c1.207,2.865,4.09,4.769,7.212,4.689c3.121-0.08,5.909-2.109,6.966-5.037
	c1.076-2.98,0.125-6.435-2.331-8.436c-2.582-2.105-6.266-2.27-9.039-0.442C267.084,82.393,265.961,86.311,267.288,89.634z"/>
<path d="M174.245,232.954v-37.308c0-4.199-3.405-7.604-7.604-7.604s-7.604,3.405-7.604,7.604v37.308
	c0,4.199,3.405,7.604,7.604,7.604S174.245,237.154,174.245,232.954z"/>
<path d="M159.037,301.897v43.909c0,4.199,3.405,7.604,7.604,7.604s7.604-3.405,7.604-7.604v-43.909c0-4.199-3.405-7.604-7.604-7.604
	S159.037,297.698,159.037,301.897z"/>
<path d="M336.153,444.453c-3.867-1.634-8.33,0.172-9.965,4.041c-12.409,29.339-41.008,48.297-72.861,48.297
	c-43.605,0-79.081-35.471-79.081-79.071v-46.566c0-4.199-3.405-7.604-7.604-7.604s-7.604,3.405-7.604,7.604v46.566
	c0,51.986,42.298,94.279,94.289,94.279c37.976,0,72.075-22.602,86.868-57.581C341.831,450.551,340.021,446.09,336.153,444.453z"/>
<path d="M332.398,195.646v6.588c0,4.199,3.404,7.604,7.604,7.604s7.604-3.405,7.604-7.604v-6.588c0-4.199-3.404-7.604-7.604-7.604
	S332.398,191.447,332.398,195.646z"/>
<path d="M411.625,231.529c-4.7-9.867-12.96-17.314-23.261-20.968c-10.298-3.654-21.407-3.078-31.275,1.622h-0.001l-43.505,20.722
	c-5.083-8.53-10.551-20.675-14.844-37.562c43.647-9.998,73.718-34.149,73.718-63.051c0-22.806-19.009-43.508-51.136-56.069V26.071
	c0-0.278-0.017-0.551-0.046-0.82c-0.473-8.412-8.197-14.976-23.023-19.509c-4.019-1.228-8.267,1.032-9.495,5.048
	c-1.229,4.016,1.032,8.267,5.048,9.495c7.966,2.436,10.962,4.794,11.965,5.827c-3.315,3.647-20.779,10.823-52.445,10.823
	c-31.784,0-49.259-7.229-52.482-10.863c3.222-3.636,20.698-10.865,52.482-10.865c4.37,0,8.725,0.149,12.946,0.443
	c4.189,0.289,7.822-2.867,8.114-7.058c0.292-4.189-2.867-7.822-7.056-8.114C262.757,0.161,258.045,0,253.325,0
	c-25.255,0-67.997,5.491-67.997,26.071v50.153c-32.128,12.554-51.138,33.255-51.138,56.068c0,38.129,52.332,67.997,119.139,67.997
	c10.552,0,20.743-0.747,30.424-2.152c4.495,18.028,10.346,31.465,16.066,41.326l-26.933,12.828
	c-9.868,4.699-17.315,12.961-20.969,23.261c-3.654,10.3-3.078,21.408,1.622,31.275l49.821,104.6
	c4.7,9.867,12.96,17.314,23.261,20.968c4.473,1.587,9.098,2.376,13.708,2.376c6.005,0,11.985-1.339,17.567-3.998l84.203-40.107
	c9.868-4.699,17.315-12.961,20.969-23.261c3.654-10.301,3.078-21.408-1.622-31.275L411.625,231.529z M253.325,52.142
	c15.66,0,38.041-2.113,52.789-8.624v72.234c-2.114,3.314-18.247,10.564-48.429,11.212c-1.449,0.027-2.901,0.052-4.36,0.052
	c-1.46,0-2.911-0.023-4.361-0.052c-30.183-0.648-46.315-7.897-48.429-11.212V81.348c-0.001-0.04,0.001-0.078,0-0.118V43.518
	C215.283,50.029,237.664,52.142,253.325,52.142z M149.397,132.291c0-14.86,13.516-29.514,35.93-39.588v22.213
	c-2.175-0.937-4.274-1.913-6.252-2.946c-3.723-1.945-8.317-0.503-10.26,3.219c-1.945,3.722-0.504,8.316,3.219,10.26
	c20.406,10.66,50.036,16.773,81.292,16.773c31.259,0,60.891-6.117,81.297-16.78c3.722-1.945,5.163-6.539,3.218-10.261
	c-1.946-3.722-6.539-5.161-10.261-3.217c-1.98,1.034-4.081,2.012-6.257,2.949V92.704c22.412,10.08,35.928,24.733,35.928,39.588
	c0,28.614-47.59,52.789-103.921,52.789C196.992,185.08,149.397,160.906,149.397,132.291z M448.735,362.319
	c-2.296,6.473-6.974,11.662-13.175,14.616l-84.203,40.107c-6.201,2.953-13.179,3.315-19.652,1.019
	c-6.473-2.296-11.662-6.974-14.615-13.174l-49.822-104.6c-2.953-6.2-3.316-13.179-1.02-19.651
	c2.296-6.473,6.974-11.662,13.175-14.616l29.068-13.845c6.633,8.19,11.759,11.36,12.229,11.641c1.222,0.73,2.565,1.078,3.892,1.078
	c2.588,0,5.111-1.322,6.534-3.706c2.153-3.605,0.977-8.274-2.629-10.428c-0.068-0.041-2.388-1.567-5.834-5.345l40.942-19.501h-0.001
	c6.202-2.953,13.179-3.314,19.652-1.019c6.473,2.296,11.662,6.974,14.615,13.174l49.822,104.6
	C450.67,348.868,451.032,355.847,448.735,362.319z"/>
<path d="M393.874,270.245c-7.292-4.096-14.973-4.808-22.21-2.062c-13.048,4.953-21.615,19.999-25.73,29.027
	c-9.601-2.493-26.684-5.325-38.754,1.687c-6.696,3.889-10.98,10.301-12.395,18.544c-1.778,10.363,0.583,19.784,7.017,28.002
	c8.623,11.013,24.399,19.418,46.893,24.983c16.12,3.989,29.78,5.01,30.354,5.053c0.185,0.013,0.367,0.02,0.551,0.02
	c2.472,0,4.806-1.205,6.234-3.251c0.328-0.471,8.142-11.722,15.205-26.753c9.854-20.972,13.269-38.519,10.153-52.153
	C408.867,283.165,403.041,275.395,393.874,270.245z M375.79,359.901c-16.471-1.834-49.975-8.461-62.012-23.834
	c-3.73-4.763-5.039-10.015-4.003-16.055c0.86-5.005,3.283-6.939,5.032-7.958c2.952-1.721,6.942-2.351,11.166-2.351
	c8.512,0,17.974,2.564,21.798,3.941c1.912,0.69,4.02,0.589,5.856-0.286c1.838-0.876,3.248-2.452,3.915-4.376
	c1.983-5.726,9.826-22.902,19.52-26.581c1.895-0.72,4.93-1.389,9.363,1.102c5.34,2.999,8.591,7.321,9.941,13.213
	C400.717,315.704,384.742,345.938,375.79,359.901z"/>
<path d="M169.727,284.676c7.918-1.605,13.449-8.369,13.449-16.449s-5.531-14.844-13.449-16.449l-7.432-1.507
	c-15.761-3.196-28.01-15.444-31.206-31.206l-1.507-7.433c-1.606-7.918-8.369-13.449-16.45-13.448
	c-8.079,0-14.843,5.531-16.449,13.448l-1.507,7.432c-3.196,15.762-15.444,28.01-31.206,31.206l-7.432,1.507
	c-7.918,1.605-13.449,8.369-13.449,16.449s5.531,14.844,13.449,16.449l7.432,1.507c15.761,3.196,28.01,15.444,31.206,31.206
	l1.507,7.432c1.605,7.918,8.368,13.449,16.449,13.449l0,0c8.078,0,14.844-5.531,16.449-13.449l1.507-7.432
	c3.196-15.762,15.444-28.01,31.206-31.206L169.727,284.676z M159.273,271.278c-21.763,4.412-38.676,21.326-43.089,43.089
	l-1.507,7.432c-0.083,0.41-0.255,1.263-1.544,1.262c-1.289,0-1.461-0.853-1.544-1.262l-1.507-7.432
	c-4.412-21.763-21.326-38.676-43.089-43.089l-7.432-1.507c-0.41-0.083-1.262-0.256-1.262-1.544s0.853-1.461,1.262-1.544l7.432-1.507
	c21.763-4.412,38.676-21.326,43.089-43.088l1.507-7.433c0.083-0.41,0.255-1.262,1.544-1.262c1.289,0,1.461,0.853,1.544,1.262
	l1.507,7.432c4.412,21.764,21.326,38.676,43.089,43.088l7.432,1.507c0.41,0.083,1.262,0.257,1.262,1.544s-0.853,1.461-1.262,1.544
	L159.273,271.278L159.273,271.278z"/>
<g>
</g>
<g>
</g>
<g>
</g>
<g>
</g>
<g>
</g>
<g>
</g>
<g>
</g>
<g>
</g>
<g>
</g>
<g>
</g>
<g>
</g>
<g>
</g>
<g>
</g>
<g>
</g>
<g>
</g>
</svg>
