<?xml version="1.0" encoding="iso-8859-1"?>
<!-- Generator: Adobe Illustrator 19.0.0, SVG Export Plug-In . SVG Version: 6.00 Build 0)  -->
<svg version="1.1" id="Capa_1" xmlns="http://www.w3.org/2000/svg" xmlns:xlink="http://www.w3.org/1999/xlink" x="0px" y="0px"
	 viewBox="0 0 512.001 512.001" style="enable-background:new 0 0 512.001 512.001;" xml:space="preserve">
<path style="fill:#EDE6F5;" d="M498.3,484.302c-96.919-51.281-112.229-215.918-94.376-297.103
	C421.777,106.015,376.577,7.605,253.448,7.605c-122.613,0-168.328,98.41-150.475,179.595s7.651,215.359-89.267,266.638
	c0,0,50.692,60.182,117.323,28.383c71.414-34.082,131.449,46.515,218.166,14.572C390.19,481.69,437.586,466.005,498.3,484.302"/>
<path style="fill:#CEC1E8;" d="M174.692,187.195c9.491,81.187,4.066,243.744-47.423,295.02c0,0,0.385,0.456,1.136,1.207
	c-65.339,29.03-114.698-29.587-114.698-29.587c96.914-51.276,107.114-185.452,89.268-266.639
	C85.119,106.018,130.828,7.604,253.445,7.604h0.781C189.394,8.029,165.231,106.19,174.692,187.195z"/>
<g>
	<circle style="fill:#4E4F75;" cx="204.139" cy="138.678" r="31.433"/>
	<circle style="fill:#4E4F75;" cx="307.866" cy="138.678" r="31.433"/>
	<path style="fill:#4E4F75;" d="M256.003,236.014c31.626,0,61.377,8.032,87.326,22.162c-8.48-40.453-44.352-70.832-87.326-70.832
		s-78.846,30.379-87.326,70.832C194.626,244.045,224.376,236.014,256.003,236.014z"/>
</g>
<g>
	<path style="fill:#CEC1E8;" d="M256.003,280.493c11.989,0,23.504,1.325,34.223,3.763c5.844,1.329,9.52-6.238,4.802-9.934
		c-9.319-7.3-23.342-11.945-39.025-11.945s-29.706,4.645-39.025,11.945c-4.718,3.696-1.042,11.263,4.802,9.934
		C232.498,281.818,244.014,280.493,256.003,280.493z"/>
	<path style="fill:#CEC1E8;" d="M322.041,81.756c10.381,0,20.407,0.994,29.867,2.842c7.252,1.418,11.008-8.258,4.692-12.091
		c-9.067-5.503-21.211-8.867-34.559-8.867s-25.492,3.364-34.559,8.867c-6.317,3.834-2.56,13.508,4.692,12.091
		C301.635,82.75,311.661,81.756,322.041,81.756z"/>
	<path style="fill:#CEC1E8;" d="M189.965,81.756c10.381,0,20.407,0.994,29.867,2.842c7.252,1.418,11.008-8.258,4.692-12.091
		c-9.067-5.503-21.211-8.867-34.559-8.867s-25.492,3.364-34.559,8.867c-6.317,3.834-2.56,13.508,4.692,12.091
		C169.558,82.75,179.584,81.756,189.965,81.756z"/>
</g>
<path d="M58.176,476.695c-14.37-6.188-25.551-15.106-32.111-21.151c40.488-24.774,68.981-66.722,82.695-121.981
	c11.519-46.416,12.117-100.359,1.641-147.999c-9.522-43.3,0.232-88.352,26.091-120.517c26.215-32.605,66.657-49.839,116.957-49.839
	c50.433,0,90.918,17.199,117.078,49.736c25.811,32.104,35.519,77.194,25.969,120.619c-7.655,34.812-8.775,79.795-3.072,123.416
	c0.543,4.164,4.367,7.104,8.526,6.554c4.163-0.544,7.099-4.361,6.554-8.526c-5.402-41.327-4.338-85.506,2.847-118.178
	c10.53-47.881-0.301-97.756-28.971-133.416C362.055,30.136,323.187,0,253.448,0c-69.569,0-108.446,30.191-128.81,55.519
	C95.921,91.24,85.044,141.075,95.546,188.832c9.843,44.762,9.266,97.499-1.547,141.068c-9.494,38.257-31.749,89.649-83.849,117.215
	c-2.033,1.076-3.47,3.013-3.908,5.271c-0.438,2.257,0.167,4.592,1.649,6.35c0.695,0.824,17.312,20.32,44.271,31.928
	c0.98,0.422,2.001,0.622,3.003,0.622c2.946,0,5.75-1.722,6.989-4.599C63.814,482.831,62.033,478.357,58.176,476.695z"/>
<path d="M505.515,486.677c0.02-0.062,0.046-0.12,0.065-0.181c0.001-0.005,0.002-0.011,0.004-0.016
	c0.068-0.228,0.124-0.457,0.17-0.688c0.003-0.018,0.009-0.037,0.013-0.056c0.044-0.225,0.074-0.451,0.096-0.677
	c0.003-0.026,0.008-0.053,0.011-0.079c0.015-0.176,0.018-0.353,0.021-0.529c0.016-0.805-0.091-1.598-0.32-2.35
	c-0.004-0.012-0.006-0.025-0.01-0.038c-0.04-0.129-0.09-0.253-0.137-0.38c-0.039-0.105-0.072-0.212-0.115-0.315
	c-0.018-0.043-0.042-0.084-0.061-0.128c-0.417-0.948-1.03-1.812-1.815-2.533c-0.097-0.09-0.192-0.184-0.295-0.269
	c-0.036-0.03-0.077-0.056-0.115-0.085c-0.161-0.129-0.326-0.253-0.499-0.37c-0.029-0.02-0.063-0.036-0.092-0.056
	c-0.184-0.119-0.37-0.233-0.566-0.337c-0.006-0.003-0.011-0.007-0.017-0.01c-29.53-15.624-68.701-52.204-87.617-137.744
	c-0.907-4.101-4.968-6.692-9.067-5.784c-4.101,0.907-6.691,4.966-5.784,9.067c7.308,33.045,18.362,62.039,32.857,86.177
	c9.436,15.712,20.234,29.164,32.289,40.257c-44.082-4.972-81.116,6.527-117.969,20.103c-41.379,15.244-76.81,3.119-111.075-8.607
	c-34.261-11.725-69.691-23.849-107.738-5.691c-14.198,6.775-28.75,9.536-43.241,8.204c-4.177-0.385-7.884,2.695-8.269,6.878
	c-0.384,4.183,2.695,7.883,6.877,8.269c17.26,1.584,34.481-1.653,51.183-9.623c32.444-15.485,62.019-5.365,96.262,6.355
	c23.175,7.931,48.394,16.562,76.243,16.562c14.286,0,29.264-2.271,45.014-8.073c43.925-16.181,88.014-29.302,144.282-12.344
	c0.068,0.02,0.136,0.031,0.204,0.05c0.124,0.033,0.246,0.064,0.37,0.091c0.158,0.034,0.315,0.062,0.474,0.086
	c0.119,0.018,0.237,0.038,0.357,0.05c0.192,0.02,0.381,0.028,0.572,0.034c0.07,0.002,0.141,0.012,0.211,0.012
	c0.012,0,0.024-0.002,0.038-0.002c0.302-0.001,0.602-0.023,0.898-0.061c0.081-0.01,0.16-0.025,0.24-0.039
	c0.227-0.035,0.451-0.081,0.673-0.137c0.088-0.022,0.175-0.043,0.263-0.068c0.282-0.082,0.561-0.174,0.831-0.288
	c0.049-0.02,0.094-0.047,0.143-0.068c0.224-0.099,0.443-0.21,0.656-0.331c0.096-0.055,0.191-0.113,0.285-0.17
	c0.177-0.111,0.349-0.229,0.516-0.354c0.077-0.058,0.156-0.111,0.231-0.17c0.226-0.181,0.442-0.378,0.647-0.586
	c0.06-0.061,0.116-0.127,0.173-0.19c0.164-0.178,0.319-0.364,0.467-0.559c0.049-0.064,0.097-0.126,0.144-0.192
	c0.186-0.262,0.359-0.534,0.511-0.822c0.003-0.005,0.007-0.009,0.009-0.015c0.039-0.073,0.067-0.148,0.103-0.222
	c0.072-0.147,0.145-0.292,0.208-0.444C505.402,487.022,505.458,486.85,505.515,486.677z"/>
<path d="M243.176,138.675c0-21.525-17.512-39.037-39.037-39.037s-39.037,17.512-39.037,39.037s17.512,39.037,39.037,39.037
	S243.176,160.201,243.176,138.675z M180.311,138.675c0-13.139,10.689-23.828,23.828-23.828c13.139,0,23.828,10.689,23.828,23.828
	c0,13.139-10.689,23.828-23.828,23.828C191,162.503,180.311,151.814,180.311,138.675z"/>
<path d="M346.904,138.675c0-21.525-17.512-39.037-39.037-39.037c-21.525,0-39.037,17.512-39.037,39.037s17.512,39.037,39.037,39.037
	C329.392,177.713,346.904,160.201,346.904,138.675z M284.038,138.675c0-13.139,10.689-23.828,23.828-23.828
	s23.828,10.689,23.828,23.828c0,13.139-10.689,23.828-23.828,23.828S284.038,151.814,284.038,138.675z"/>
<path d="M164.139,264.28c2.381,1.769,5.57,1.995,8.176,0.576c25.511-13.893,54.45-21.236,83.689-21.236s58.177,7.343,83.688,21.236
	c1.139,0.621,2.389,0.927,3.636,0.927c1.604,0,3.199-0.507,4.539-1.502c2.38-1.769,3.513-4.76,2.905-7.662
	c-9.338-44.546-49.193-76.877-94.768-76.877c-45.574,0-85.431,32.331-94.769,76.877C160.626,259.519,161.76,262.51,164.139,264.28z
	 M256.003,194.95c32.669,0,61.849,19.702,74.691,48.681c-23.489-9.996-48.985-15.22-74.691-15.22s-51.202,5.225-74.691,15.22
	C194.153,214.651,223.335,194.95,256.003,194.95z"/>
<g>
</g>
<g>
</g>
<g>
</g>
<g>
</g>
<g>
</g>
<g>
</g>
<g>
</g>
<g>
</g>
<g>
</g>
<g>
</g>
<g>
</g>
<g>
</g>
<g>
</g>
<g>
</g>
<g>
</g>
</svg>
