<?xml version="1.0" encoding="iso-8859-1"?>
<!-- Generator: Adobe Illustrator 19.0.0, SVG Export Plug-In . SVG Version: 6.00 Build 0)  -->
<svg version="1.1" id="Capa_1" xmlns="http://www.w3.org/2000/svg" xmlns:xlink="http://www.w3.org/1999/xlink" x="0px" y="0px"
	 viewBox="0 0 512.001 512.001" style="enable-background:new 0 0 512.001 512.001;" xml:space="preserve">
<g>
	<path style="fill:#F9D366;" d="M38.89,266.393c-11.063-3.302-23.23,1.703-28.586,12.384c-5.996,11.971-1.156,26.543,10.825,32.549
		l69.617,35.263"/>
	<path style="fill:#F9D366;" d="M137.186,241.326l-55.015-26.037c-11.971-5.996-26.543-1.156-32.549,10.815
		c-5.387,10.753-2.033,23.601,7.389,30.443"/>
</g>
<polyline style="fill:#F777CE;" points="136.024,319.163 36.047,267.941 144.104,209.213 205.848,240.847 "/>
<polygon style="fill:#ED4596;" points="36.047,267.936 36.047,392.433 136.02,443.659 136.02,319.163 "/>
<polygon style="fill:#EDE6F5;" points="244.074,384.934 244.074,220.074 136.02,278.799 136.02,443.659 "/>
<path style="fill:#4E4F75;" d="M432.301,243.875c7.637-7.41,18.049-11.971,29.525-11.971c23.436,0,42.435,19.009,42.435,42.445
	c0,18.245-11.517,33.808-27.678,39.803"/>
<polyline style="fill:#F777CE;" points="306.779,240.847 368.522,209.213 476.578,267.941 376.601,319.163 "/>
<polygon style="fill:#CEC1E8;" points="268.552,384.934 268.552,220.074 376.607,278.799 376.607,443.659 "/>
<polygon style="fill:#ED4596;" points="476.578,267.936 476.578,392.433 376.607,443.659 376.601,319.163 "/>
<path d="M327.892,140.496c4.274,0,7.74-3.465,7.74-7.74v-20.511c0-4.274-3.465-7.74-7.74-7.74c-4.274,0-7.74,3.465-7.74,7.74v20.511
	C320.152,137.031,323.618,140.496,327.892,140.496z"/>
<path d="M327.892,195.715c4.274,0,7.74-3.465,7.74-7.74v-20.511c0-4.274-3.465-7.74-7.74-7.74c-4.274,0-7.74,3.465-7.74,7.74v20.511
	C320.152,192.251,323.618,195.715,327.892,195.715z"/>
<path d="M345.247,157.851h20.511c4.274,0,7.74-3.465,7.74-7.74s-3.465-7.74-7.74-7.74h-20.511c-4.274,0-7.74,3.465-7.74,7.74
	S340.972,157.851,345.247,157.851z"/>
<path d="M290.027,157.851h20.511c4.274,0,7.74-3.465,7.74-7.74s-3.465-7.74-7.74-7.74h-20.511c-4.274,0-7.74,3.465-7.74,7.74
	S285.752,157.851,290.027,157.851z"/>
<path d="M202.304,103.398c4.274,0,7.74-3.465,7.74-7.74V68.342c0-4.274-3.465-7.74-7.74-7.74c-4.274,0-7.74,3.465-7.74,7.74v27.315
	C194.564,99.933,198.03,103.398,202.304,103.398z"/>
<path d="M202.304,176.941c4.274,0,7.74-3.465,7.74-7.74v-27.315c0-4.274-3.465-7.74-7.74-7.74c-4.274,0-7.74,3.465-7.74,7.74v27.315
	C194.564,173.475,198.03,176.941,202.304,176.941z"/>
<path d="M252.733,111.031h-27.315c-4.274,0-7.74,3.465-7.74,7.74c0,4.274,3.465,7.74,7.74,7.74h27.315c4.274,0,7.74-3.465,7.74-7.74
	C260.473,114.497,257.007,111.031,252.733,111.031z"/>
<path d="M151.876,126.511h27.315c4.274,0,7.74-3.465,7.74-7.74c0-4.274-3.465-7.74-7.74-7.74h-27.315c-4.274,0-7.74,3.465-7.74,7.74
	C144.136,123.046,147.601,126.511,151.876,126.511z"/>
<path d="M248.03,213.422c-2.346-1.395-5.254-1.451-7.652-0.149l-34.634,18.823l-58.11-29.774c-2.276-1.166-4.979-1.133-7.225,0.088
	l-31.975,17.378l-22.796-11.421c-15.763-7.895-35.024-1.497-42.935,14.269c-5.263,10.506-4.297,22.595,1.826,31.883l-6.738,3.661
	c-13.865-2.586-27.948,4.247-34.407,17.128c-7.898,15.769-1.493,35.028,14.276,42.934l10.647,5.338v68.851
	c0,2.904,1.625,5.564,4.21,6.888l33.102,16.962c1.13,0.579,2.335,0.853,3.523,0.853c2.812,0,5.524-1.538,6.895-4.213
	c1.949-3.804,0.446-8.468-3.359-10.418l-28.891-14.804v-107.1l84.493,43.29v107.104L92.416,412.62
	c-3.804-1.949-8.467-0.445-10.418,3.359c-1.949,3.804-0.446,8.468,3.359,10.418l47.133,24.15c0.014,0.007,0.036,0.003,0.053,0.006
	c1.094,0.552,2.282,0.845,3.477,0.845c1.27,0,2.542-0.313,3.697-0.939l108.053-58.725c2.492-1.355,4.043-3.964,4.043-6.801V220.075
	C251.814,217.345,250.376,214.817,248.03,213.422z M56.54,229.576c4.083-8.138,14.026-11.443,22.164-7.366l13.153,6.589
	L58.238,247.07C54.42,242.171,53.622,235.402,56.54,229.576z M24.598,304.407c-8.142-4.081-11.45-14.025-7.375-22.161
	c2.284-4.554,6.413-7.639,11.084-8.708v32.727L24.598,304.407z M52.627,267.738l91.583-49.774l45.059,23.086l-56.946,30.949
	c-2.492,1.355-4.043,3.964-4.043,6.801v27.699L52.627,267.738z M236.335,380.331l-92.574,50.312V283.402l92.574-50.311V380.331z"/>
<path d="M512.001,274.349c0-27.671-22.508-50.185-50.175-50.185c-11.155,0-21.79,3.653-30.513,10.365l-59.095-32.118
	c-2.247-1.221-4.95-1.253-7.225-0.088l-58.11,29.774l-34.634-18.823c-2.398-1.302-5.305-1.247-7.652,0.149
	c-2.346,1.395-3.783,3.923-3.783,6.652v36.729c0,4.274,3.465,7.74,7.74,7.74c4.275,0,7.74-3.465,7.74-7.74V233.09l92.575,50.311
	v147.241l-92.575-50.312v-97.725c0-4.274-3.465-7.74-7.74-7.74c-4.274,0-7.74,3.465-7.74,7.74v102.328
	c0,2.837,1.551,5.446,4.043,6.801L372.91,450.46c1.154,0.626,2.425,0.939,3.697,0.939c1.212,0,2.416-0.301,3.521-0.867l0.008,0.015
	l99.973-51.225c2.585-1.324,4.21-3.984,4.21-6.888v-73.225C501.074,310.778,512.001,293.385,512.001,274.349z M323.356,241.05
	l45.059-23.086l60.152,32.692c0.023,0.012,0.044,0.025,0.067,0.037l31.364,17.046l-75.652,38.759v-27.699
	c0-2.837-1.551-5.446-4.043-6.801L323.356,241.05z M384.346,430.996V323.891l84.493-43.289v107.101L384.346,430.996z
	 M484.318,300.724v-32.788h-0.006c-0.001-2.833-1.545-5.442-4.038-6.798l-33.359-18.13c4.605-2.197,9.674-3.365,14.91-3.365
	c19.131,0,34.695,15.568,34.695,34.705C496.521,284.65,491.881,294.24,484.318,300.724z"/>
<g>
</g>
<g>
</g>
<g>
</g>
<g>
</g>
<g>
</g>
<g>
</g>
<g>
</g>
<g>
</g>
<g>
</g>
<g>
</g>
<g>
</g>
<g>
</g>
<g>
</g>
<g>
</g>
<g>
</g>
</svg>
