<?xml version="1.0" encoding="iso-8859-1"?>
<!-- Generator: Adobe Illustrator 19.0.0, SVG Export Plug-In . SVG Version: 6.00 Build 0)  -->
<svg version="1.1" id="Capa_1" xmlns="http://www.w3.org/2000/svg" xmlns:xlink="http://www.w3.org/1999/xlink" x="0px" y="0px"
	 viewBox="0 0 512 512" style="enable-background:new 0 0 512 512;" xml:space="preserve">
<polyline style="fill:#CF8BFC;" points="300.123,270.358 504.396,270.358 504.396,457.405 7.604,457.405 7.604,270.358 
	185.993,270.358 "/>
<polygon style="fill:#9966CC;" points="369.167,270.359 365.903,286.965 336.46,283.203 330.742,312.332 301.299,308.57 
	295.581,337.699 266.139,333.937 260.42,363.065 230.978,359.304 225.27,388.423 195.827,384.662 148.855,332.833 217.788,270.359 
	"/>
<polygon style="fill:#F9D366;" points="456.674,457.405 459.016,443.748 436.325,421.626 467.684,417.074 481.706,388.655 
	495.728,417.074 504.396,418.331 504.396,457.405 "/>
<path style="fill:#EF8C33;" d="M387.711,111.709l-30.345-17.256c-5.708-3.244-9.763-8.76-11.173-15.167l-1.419-6.509
	c-0.71-3.204-2.068-6.185-3.974-8.77c-1.906-2.585-4.339-4.775-7.198-6.397c-11.112-6.316-25.235-2.433-31.562,8.679l-38.922,68.446
	l108.392,61.643l26.614-46.79C405.707,136.245,401.043,119.293,387.711,111.709z M367.231,147.001
	c-3.944,6.935-12.765,9.358-19.699,5.414l-34.37-19.547c-6.935-3.944-9.358-12.765-5.414-19.699c2.666-4.684,7.543-7.31,12.572-7.31
	c2.423,0,4.877,0.618,7.127,1.896l34.37,19.547C368.752,131.246,371.175,140.068,367.231,147.001z"/>
<polygon style="fill:#EDE6F5;" points="349.039,183.599 352.698,213.059 323.549,218.68 327.208,248.138 298.061,253.757 
	301.721,283.214 272.574,288.831 276.236,318.287 247.09,323.903 250.754,353.356 221.608,358.972 225.272,388.425 196.126,394.041 
	135.32,359.461 263.116,134.736 "/>
<g>
	<polygon style="fill:#F9D366;" points="388.446,293.03 402.469,321.442 433.823,325.999 411.135,348.115 416.491,379.343 
		388.446,364.599 360.401,379.343 365.758,348.115 343.069,325.999 374.424,321.442 	"/>
	<polygon style="fill:#F9D366;" points="72.829,293.03 86.851,321.442 118.206,325.999 95.517,348.115 100.873,379.343 
		72.829,364.599 44.784,379.343 50.139,348.115 27.451,325.999 58.806,321.442 	"/>
	<polyline style="fill:#F9D366;" points="316.041,457.405 313.699,443.748 336.389,421.626 305.03,417.074 291.009,388.655 
		276.987,417.074 245.638,421.626 268.329,443.748 265.987,457.405 	"/>
	<polyline style="fill:#F9D366;" points="166.588,457.405 165.989,453.887 188.669,431.765 157.321,427.212 143.299,398.794 
		129.277,427.212 97.919,431.765 120.609,453.887 120.011,457.405 	"/>
</g>
<path d="M144.244,194.283c4.2,0,7.604-3.405,7.604-7.604v-20.15c0-4.199-3.404-7.604-7.604-7.604s-7.604,3.405-7.604,7.604v20.15
	C136.64,190.878,140.045,194.283,144.244,194.283z"/>
<path d="M144.244,248.532c4.2,0,7.604-3.405,7.604-7.604v-20.15c0-4.199-3.404-7.604-7.604-7.604s-7.604,3.405-7.604,7.604v20.15
	C136.64,245.129,140.045,248.532,144.244,248.532z"/>
<path d="M161.295,211.333h20.149c4.2,0,7.604-3.405,7.604-7.604c0-4.199-3.404-7.604-7.604-7.604h-20.149
	c-4.2,0-7.604,3.405-7.604,7.604C153.691,207.928,157.095,211.333,161.295,211.333z"/>
<path d="M107.045,211.333h20.15c4.2,0,7.604-3.405,7.604-7.604c0-4.199-3.404-7.604-7.604-7.604h-20.15
	c-4.2,0-7.604,3.405-7.604,7.604C99.441,207.928,102.844,211.333,107.045,211.333z"/>
<path d="M354.64,161.918c1.962,0,3.936-0.264,5.878-0.798c5.681-1.561,10.411-5.24,13.323-10.36
	c6.011-10.57,2.302-24.058-8.264-30.068l-34.376-19.55c-3.327-1.889-7.09-2.886-10.881-2.886c-7.915,0-15.265,4.273-19.181,11.155
	c-2.912,5.119-3.655,11.067-2.095,16.746c1.56,5.68,5.24,10.411,10.36,13.323l34.37,19.547
	C347.141,160.941,350.867,161.918,354.64,161.918z M313.707,122.125c-0.485-1.762-0.253-3.608,0.649-5.195
	c1.218-2.139,3.503-3.467,5.964-3.467c1.164,0,2.331,0.313,3.368,0.902l34.37,19.547c3.279,1.865,4.429,6.051,2.563,9.331
	c-0.903,1.588-2.37,2.729-4.132,3.213c-1.762,0.483-3.609,0.253-5.197-0.651l-34.37-19.547
	C315.332,125.355,314.192,123.888,313.707,122.125z"/>
<path d="M127.988,361.477c0.534,1.945,1.82,3.597,3.572,4.594l60.808,34.58c1.153,0.655,2.448,0.994,3.758,0.994
	c0.481,0,0.961-0.046,1.439-0.137l29.145-5.616c3.931-0.757,6.601-4.434,6.106-8.406l-2.786-22.394l22.161-4.27
	c3.931-0.758,6.601-4.434,6.106-8.406l-2.785-22.393l22.159-4.269c3.931-0.757,6.601-4.433,6.107-8.405l-2.784-22.396l22.163-4.271
	c3.93-0.757,6.6-4.433,6.105-8.404l-2.783-22.4l22.163-4.271c3.931-0.757,6.601-4.432,6.107-8.404l-2.783-22.4l22.167-4.274
	c3.93-0.758,6.6-4.432,6.105-8.404l-1.792-14.422l9.297,5.287c1.187,0.675,2.478,0.996,3.752,0.996c2.645,0,5.215-1.382,6.616-3.846
	l26.615-46.792c9.64-16.959,3.69-38.602-13.263-48.245c0,0,0,0-0.001,0l-30.347-17.257c-3.823-2.173-6.558-5.886-7.5-10.177
	l-1.426-6.533c-0.942-4.248-2.717-8.164-5.277-11.637c-2.581-3.502-5.8-6.361-9.562-8.496c-14.734-8.376-33.542-3.203-41.928,11.531
	l-38.918,68.445c-0.003,0.006-0.005,0.012-0.009,0.017l-22.717,39.945c-2.076,3.651-0.8,8.292,2.852,10.369
	c3.648,2.075,8.292,0.8,10.369-2.851l18.965-33.351l75.996,43.218l2.312,18.617l-22.167,4.274c-3.93,0.758-6.6,4.433-6.105,8.404
	l2.783,22.4l-22.163,4.271c-3.931,0.757-6.601,4.432-6.107,8.404l2.783,22.4l-22.163,4.271c-3.93,0.757-6.6,4.433-6.105,8.405
	l2.783,22.396l-22.159,4.269c-3.931,0.757-6.601,4.433-6.106,8.406l2.785,22.394l-22.161,4.27c-3.931,0.757-6.601,4.433-6.106,8.405
	l2.786,22.393l-19.404,3.739l-51.756-29.432l88.012-154.766c2.076-3.651,0.8-8.292-2.851-10.369
	c-3.654-2.075-8.294-0.801-10.37,2.851L128.71,355.703C127.713,357.456,127.454,359.532,127.988,361.477z M308.648,70.05
	c4.241-7.448,13.751-10.064,21.2-5.828c1.898,1.077,3.524,2.522,4.831,4.297c1.293,1.753,2.192,3.739,2.665,5.877l1.422,6.521
	c1.871,8.505,7.28,15.848,14.841,20.144l30.346,17.256c9.664,5.499,13.056,17.84,7.56,27.508l-22.854,40.18l-95.173-54.125
	L308.648,70.05z"/>
<path d="M412.953,386.074c2.563,1.346,5.667,1.122,8.008-0.579c2.342-1.701,3.515-4.584,3.024-7.437l-4.68-27.288l19.827-19.326
	c2.072-2.021,2.818-5.042,1.923-7.795c-0.894-2.753-3.274-4.759-6.139-5.175l-27.399-3.981l-12.253-24.827
	c-1.282-2.595-3.925-4.239-6.819-4.239s-5.538,1.643-6.819,4.239l-12.254,24.827l-27.398,3.981
	c-2.864,0.416-5.245,2.422-6.139,5.175c-0.894,2.753-0.148,5.775,1.923,7.795l19.826,19.325l-4.679,27.289
	c-0.49,2.852,0.683,5.735,3.024,7.437c1.325,0.962,2.894,1.452,4.47,1.452c1.21,0,2.425-0.289,3.537-0.873l24.506-12.884
	L412.953,386.074z M370.501,365.443l2.751-16.043c0.424-2.467-0.394-4.983-2.186-6.73l-11.655-11.361l16.107-2.341
	c2.477-0.36,4.618-1.915,5.725-4.16l7.204-14.596l7.202,14.596c1.108,2.244,3.248,3.8,5.725,4.16l16.108,2.341l-11.656,11.361
	c-1.793,1.747-2.61,4.264-2.186,6.731l2.752,16.042l-14.407-7.575c-2.216-1.164-4.861-1.164-7.077,0L370.501,365.443z"/>
<path d="M125.438,323.649c-0.894-2.753-3.274-4.759-6.139-5.175L91.9,314.493l-12.253-24.827c-1.282-2.595-3.925-4.239-6.819-4.239
	s-5.538,1.643-6.819,4.239l-12.254,24.827l-27.398,3.981c-2.864,0.416-5.245,2.422-6.139,5.175
	c-0.894,2.753-0.148,5.775,1.923,7.795l19.826,19.325l-4.679,27.289c-0.49,2.852,0.683,5.735,3.024,7.437
	c1.325,0.962,2.894,1.452,4.47,1.452c1.21,0,2.425-0.289,3.537-0.873l24.506-12.884l24.506,12.884
	c2.563,1.346,5.666,1.122,8.007-0.579c2.342-1.701,3.515-4.584,3.024-7.437l-4.68-27.288l19.827-19.326
	C125.586,329.423,126.331,326.402,125.438,323.649z M90.209,342.669c-1.793,1.747-2.61,4.264-2.186,6.731l2.752,16.042
	l-14.407-7.575c-2.216-1.164-4.861-1.164-7.077,0l-14.407,7.575l2.751-16.043c0.424-2.467-0.394-4.983-2.186-6.73l-11.655-11.361
	l16.107-2.341c2.477-0.36,4.618-1.915,5.725-4.16l7.203-14.596l7.202,14.596c1.108,2.244,3.248,3.8,5.725,4.16l16.108,2.341
	L90.209,342.669z"/>
<path d="M7.604,356.023c4.2,0,7.604-3.405,7.604-7.604v-70.457h145.436c4.2,0,7.604-3.405,7.604-7.604
	c0-4.199-3.404-7.604-7.604-7.604H7.604c-4.2,0-7.604,3.405-7.604,7.604v78.061C0,352.62,3.404,356.023,7.604,356.023z"/>
<path d="M352.346,449.802h-29.895l-0.583-3.398l19.828-19.332c2.073-2.021,2.819-5.043,1.923-7.795
	c-0.895-2.753-3.275-4.759-6.14-5.175l-27.402-3.977l-12.251-24.833c-1.281-2.596-3.924-4.24-6.819-4.24
	c-2.894,0-5.539,1.643-6.819,4.24l-12.253,24.833l-27.393,3.977c-2.864,0.417-5.244,2.422-6.139,5.175
	c-0.895,2.753-0.148,5.774,1.923,7.795l19.828,19.331l-0.583,3.399h-78.507l12.912-12.593c2.071-2.021,2.815-5.043,1.922-7.795
	c-0.895-2.752-3.275-4.757-6.139-5.174l-27.393-3.977l-12.253-24.833c-1.281-2.597-3.924-4.24-6.819-4.24
	c-2.896,0-5.539,1.643-6.819,4.24l-12.253,24.833l-27.401,3.977c-2.864,0.416-5.245,2.422-6.14,5.175
	c-0.895,2.753-0.148,5.774,1.923,7.795l12.916,12.592H15.208v-76.035c0-4.199-3.404-7.604-7.604-7.604S0,369.568,0,373.768v83.639
	c0,4.199,3.404,7.604,7.604,7.604h344.742c4.2,0,7.604-3.405,7.604-7.604C359.95,453.207,356.547,449.802,352.346,449.802z
	 M273.637,438.304l-11.658-11.366l16.102-2.338c2.477-0.36,4.619-1.916,5.725-4.161l7.202-14.597l7.202,14.597
	c1.107,2.245,3.248,3.801,5.726,4.161l16.111,2.339l-11.657,11.366c-1.793,1.747-2.61,4.263-2.187,6.73l0.817,4.768h-32.017
	l0.818-4.767C276.247,442.568,275.429,440.051,273.637,438.304z M125.917,448.443l-11.657-11.366l16.11-2.339
	c2.477-0.36,4.62-1.916,5.726-4.161l7.202-14.598l7.202,14.598c1.107,2.245,3.248,3.801,5.725,4.161l16.106,2.339l-11.654,11.367
	c-0.423,0.413-0.787,0.87-1.097,1.358h-32.566C126.704,449.314,126.34,448.855,125.917,448.443z"/>
<path d="M504.396,262.754H325.471c-4.2,0-7.604,3.405-7.604,7.604c0,4.199,3.404,7.604,7.604,7.604h171.321v124.084l-8.267-16.755
	c-1.281-2.596-3.924-4.24-6.819-4.24c-2.896,0-5.539,1.643-6.819,4.24l-12.253,24.833l-27.402,3.977
	c-2.864,0.416-5.245,2.422-6.14,5.175s-0.148,5.775,1.923,7.795l19.829,19.332l-0.583,3.398h-72.568c-4.2,0-7.604,3.405-7.604,7.604
	s3.404,7.604,7.604,7.604h126.702c4.2,0,7.604-3.405,7.604-7.604V270.358C512,266.158,508.596,262.754,504.396,262.754z
	 M465.692,449.802l0.818-4.767c0.424-2.467-0.394-4.983-2.186-6.73l-11.658-11.366l16.111-2.339c2.477-0.36,4.62-1.916,5.726-4.161
	l7.202-14.598l7.202,14.598c1.108,2.246,3.249,3.802,5.726,4.161l2.156,0.313v24.889H465.692z"/>
<g>
</g>
<g>
</g>
<g>
</g>
<g>
</g>
<g>
</g>
<g>
</g>
<g>
</g>
<g>
</g>
<g>
</g>
<g>
</g>
<g>
</g>
<g>
</g>
<g>
</g>
<g>
</g>
<g>
</g>
</svg>
