<?xml version="1.0" encoding="iso-8859-1"?>
<!-- Generator: Adobe Illustrator 19.0.0, SVG Export Plug-In . SVG Version: 6.00 Build 0)  -->
<svg version="1.1" id="Capa_1" xmlns="http://www.w3.org/2000/svg" xmlns:xlink="http://www.w3.org/1999/xlink" x="0px" y="0px"
	 viewBox="0 0 511.996 511.996" style="enable-background:new 0 0 511.996 511.996;" xml:space="preserve">
<path style="fill:#F9D366;" d="M363.367,268.761c-30.416,0-107.368,1.419-107.368,44.093c0-42.673-76.962-44.093-107.368-44.093
	c-30.416,0-83.643,12.166-141.028-22.812c0,0,4.157,144.465,86.279,173.36c59.291,20.865,117.476,3.508,145.245-21.149
	c9.571-8.506,24.16-8.506,33.741,0c27.759,24.657,85.945,42.014,145.245,21.149c82.112-28.895,86.279-173.36,86.279-173.36
	C447.001,280.927,393.783,268.761,363.367,268.761z M158.294,369.123c-23.511,0-42.582-19.061-42.582-42.582h47.144
	c23.511,0,42.582,19.071,42.582,42.582H158.294z M353.695,369.123h-47.134c0-23.511,19.061-42.582,42.572-42.582h47.144
	C396.277,350.062,377.217,369.123,353.695,369.123z"/>
<path style="fill:#ED4596;" d="M222.658,170.237c0,36.009,13.199,67.792,33.339,86.858c20.139-19.067,33.339-50.849,33.339-86.858
	s-13.199-67.792-33.339-86.858C235.858,102.445,222.658,134.228,222.658,170.237z"/>
<path d="M508.214,239.374c-2.409-1.4-5.393-1.37-7.776,0.082c-9.898,6.032-19.665,10.594-29.206,14.026v-5.511
	c0-4.199-3.404-7.604-7.604-7.604s-7.604,3.405-7.604,7.604v10.12c-12.288,3.057-24.087,4.435-35.189,4.907v-10.465
	c0-4.199-3.404-7.604-7.604-7.604c-4.2,0-7.604,3.405-7.604,7.604v10.613c-8.117-0.163-15.748-0.653-22.78-1.107
	c-4.122-0.267-8.105-0.522-11.878-0.689v-10.337c0-4.199-3.404-7.604-7.604-7.604c-4.2,0-7.604,3.405-7.604,7.604v10.179
	c-8.939,0.1-21.815,0.498-35.35,2.063v-10.722c0-4.199-3.404-7.604-7.604-7.604c-4.2,0-7.604,3.405-7.604,7.604v13.001
	c-2.954,0.557-5.882,1.181-8.749,1.888c-15.037,3.713-25.561,8.934-32.853,14.817v-17.843c5.7-8.492,34.141-46.839,82.72-46.839
	c4.2,0,7.604-3.405,7.604-7.604s-3.404-7.604-7.604-7.604c-23.507,0-42.78,7.491-57.773,16.993
	c2.297-6.381,4.143-13.056,5.517-19.933c1.174-3.01,10.555-25.999,26.402-34.621c3.688-2.007,5.051-6.625,3.045-10.313
	c-2.006-3.688-6.625-5.052-10.314-3.045c-6.362,3.461-11.807,8.427-16.353,13.762c-1.163-34.775-14.286-67.137-35.62-87.334
	c-2.933-2.776-7.524-2.776-10.456,0c-21.335,20.199-34.458,52.562-35.621,87.337c-4.546-5.336-9.99-10.304-16.352-13.765
	c-3.69-2.006-8.307-0.644-10.314,3.045c-2.007,3.689-0.644,8.307,3.045,10.314c15.852,8.625,25.234,31.625,26.401,34.619
	c1.374,6.877,3.22,13.553,5.517,19.936c-14.993-9.502-34.265-16.993-57.773-16.993c-4.199,0-7.604,3.405-7.604,7.604
	s3.405,7.604,7.604,7.604c48.367,0,76.984,38.366,82.72,46.853v17.825c-7.293-5.88-17.817-11.101-32.852-14.812
	c-2.866-0.708-5.796-1.331-8.751-1.889v-13.001c0-4.199-3.405-7.604-7.604-7.604s-7.604,3.405-7.604,7.604v10.721
	c-13.537-1.565-26.412-1.963-35.35-2.062v-10.179c0-4.199-3.405-7.604-7.604-7.604s-7.604,3.405-7.604,7.604v10.337
	c-3.772,0.167-7.752,0.423-11.872,0.689c-7.033,0.454-14.668,0.944-22.786,1.107v-10.613c0-4.199-3.405-7.604-7.604-7.604
	c-4.199,0-7.604,3.405-7.604,7.604v10.465c-11.102-0.472-22.902-1.851-35.189-4.907v-10.119c0-4.199-3.405-7.604-7.604-7.604
	s-7.604,3.405-7.604,7.604v5.51c-9.539-3.432-19.303-7.993-29.198-14.025c-2.382-1.451-5.365-1.483-7.776-0.083
	c-2.411,1.4-3.863,4.008-3.783,6.795c0.044,1.514,1.198,37.527,12.631,77.706c6.785,23.847,15.812,44.176,26.829,60.424
	c14.135,20.848,31.596,35.041,51.896,42.183c28.436,10.007,58.998,12.357,88.381,6.795c25.273-4.784,48.761-15.511,64.44-29.433
	c6.734-5.986,16.897-5.985,23.64,0.001c15.671,13.919,39.155,24.648,64.43,29.431c10.388,1.966,20.923,2.943,31.459,2.943
	c19.269,0,38.544-3.27,56.929-9.738c10.004-3.52,19.415-8.807,27.975-15.715c3.269-2.637,3.78-7.424,1.143-10.692
	c-2.638-3.268-7.426-3.781-10.693-1.142c-7.209,5.818-15.107,10.26-23.472,13.204c-54.33,19.115-110.382,4.579-137.673-19.663
	c-12.503-11.101-31.35-11.099-43.838,0c-36.066,32.024-96.558,34.132-137.674,19.663c-39.273-13.818-59.234-57.731-69.064-92.135
	c-6.83-23.908-9.858-46.709-11.172-60.592c44.25,22.315,85.708,19.633,113.961,17.807c7.054-0.456,13.148-0.851,18.499-0.851
	c10.853,0,39.683,0,63.263,5.823c9.027,2.228,36.5,9.012,36.5,30.666c0,4.199,3.405,7.604,7.604,7.604
	c4.199,0,7.604-3.405,7.604-7.604c0-21.655,27.471-28.438,36.497-30.666c23.579-5.823,52.412-5.823,63.267-5.823
	c5.35,0,11.443,0.394,18.499,0.851c28.248,1.827,69.702,4.51,113.956-17.806c-2.355,24.758-10.183,77.908-35.378,115.61
	c-2.334,3.492-1.395,8.214,2.097,10.547s8.213,1.394,10.547-2.098c36.108-54.034,38.81-133.927,38.907-137.301
	C512.077,243.382,510.625,240.774,508.214,239.374z M255.997,94.355c16.222,18.603,25.734,46.351,25.734,75.882
	c0,24.551-6.591,47.849-18.13,65.705v-93.915c0-4.199-3.405-7.604-7.604-7.604c-4.199,0-7.604,3.405-7.604,7.604v93.916
	c-11.539-17.856-18.131-41.155-18.131-65.705C230.262,140.706,239.775,112.958,255.997,94.355z"/>
<path d="M162.857,318.937h-47.144c-4.199,0-7.604,3.405-7.604,7.604c0,27.672,22.514,50.186,50.186,50.186h47.144
	c4.199,0,7.604-3.405,7.604-7.604C213.043,341.45,190.53,318.937,162.857,318.937z M158.295,361.519
	c-16.676,0-30.664-11.731-34.146-27.374h38.708c16.676,0,30.664,11.731,34.146,27.374H158.295z"/>
<path d="M349.133,318.937c-27.666,0-50.175,22.514-50.175,50.186c0,4.199,3.404,7.604,7.604,7.604h47.133
	c27.672,0,50.186-22.514,50.186-50.186c0-4.199-3.404-7.604-7.604-7.604H349.133z M353.695,361.519h-38.698
	c3.482-15.643,17.465-27.374,34.136-27.374h38.708C384.359,349.787,370.371,361.519,353.695,361.519z"/>
<g>
</g>
<g>
</g>
<g>
</g>
<g>
</g>
<g>
</g>
<g>
</g>
<g>
</g>
<g>
</g>
<g>
</g>
<g>
</g>
<g>
</g>
<g>
</g>
<g>
</g>
<g>
</g>
<g>
</g>
</svg>
