<?xml version="1.0" encoding="iso-8859-1"?>
<!-- Generator: Adobe Illustrator 19.0.0, SVG Export Plug-In . SVG Version: 6.00 Build 0)  -->
<svg version="1.1" id="Capa_1" xmlns="http://www.w3.org/2000/svg" xmlns:xlink="http://www.w3.org/1999/xlink" x="0px" y="0px"
	 viewBox="0 0 512 512" style="enable-background:new 0 0 512 512;" xml:space="preserve">
<g>
	<path style="fill:#4E4F75;" d="M62.942,504.396h126.389c36.819,0,66.666-29.848,66.666-66.666l0,0H129.608
		C92.79,437.73,62.942,467.577,62.942,504.396L62.942,504.396z"/>
	<path style="fill:#4E4F75;" d="M449.053,504.396H322.664c-36.819,0-66.666-29.848-66.666-66.666l0,0h126.389
		C419.206,437.73,449.053,467.577,449.053,504.396L449.053,504.396z"/>
	<path style="fill:#4E4F75;" d="M115.61,244.277V51.438c0-24.21,62.853-43.83,140.387-43.83c22.266,0,43.328,1.621,62.029,4.505
		c46.429,7.141,78.358,22.067,78.358,39.327v191.301l-78.358,0.427L115.61,244.277z"/>
</g>
<path style="fill:#F777CE;" d="M396.392,202.487v42.268c-23.117-5.481-49.63-9.651-78.366-12.133
	c-19.742-1.698-40.548-2.611-62.021-2.611c-52.746,0-101.397,5.491-140.387,14.734v-42.258c0-24.213,62.848-43.836,140.387-43.836
	c22.267,0,43.321,1.612,62.021,4.503C364.451,170.301,396.392,185.228,396.392,202.487z"/>
<path style="fill:#32314C;" d="M318.027,243.167V12.112c46.429,7.141,78.358,22.067,78.358,39.327V242.74L318.027,243.167z"/>
<ellipse style="fill:#4E4F75;" cx="256.001" cy="302.557" rx="232.336" ry="72.542"/>
<path style="fill:#ED4596;" d="M396.392,202.487v42.268c-23.117-5.481-49.63-9.651-78.366-12.133v-69.469
	C364.451,170.301,396.392,185.228,396.392,202.487z"/>
<path style="fill:#32314C;" d="M256.001,283.119c46.192,0,91.499,4.677,127.575,13.17c0.087,0.02,0.174,0.041,0.261,0.062
	c6.53,1.543,6.53,10.867,0,12.41c-0.087,0.02-0.173,0.041-0.261,0.062c-36.076,8.493-81.383,13.17-127.575,13.17
	c-46.192,0-91.499-4.677-127.575-13.17c-0.087-0.02-0.174-0.041-0.261-0.062c-6.53-1.543-6.53-10.867,0-12.41
	c0.087-0.02,0.173-0.041,0.261-0.062C164.502,287.796,209.809,283.119,256.001,283.119z"/>
<path d="M382.386,430.126h-30.41c-0.002,0-0.003,0-0.005,0c-0.001,0-0.002,0-0.002,0h-57.72c-0.005,0-0.009,0-0.013,0
	c-0.002,0-0.005,0-0.007,0h-38.222c-0.003,0-0.006,0-0.01,0H129.608c-40.953,0-74.27,33.318-74.27,74.27
	c0,4.199,3.405,7.604,7.604,7.604h126.389c29.226,0,54.552-16.974,66.666-41.575C268.112,495.026,293.439,512,322.664,512h126.389
	c4.199,0,7.604-3.405,7.604-7.604C456.658,463.443,423.339,430.126,382.386,430.126z M351.973,445.334
	c29.989,0,54.812,22.472,58.557,51.459H368.12c-2.139-20.942-13.024-39.327-28.923-51.459H351.973z M160.018,445.334h12.78
	c-15.899,12.133-26.783,30.517-28.923,51.459h-42.409C105.211,467.808,130.031,445.336,160.018,445.334z M111.598,448.154
	c-14.002,12.073-23.479,29.257-25.459,48.638H71.034C73.992,473.873,90.145,455.04,111.598,448.154z M189.331,496.792h-30.129
	c3.744-28.981,28.559-51.451,58.542-51.459h30.162C244.165,474.322,219.322,496.792,189.331,496.792z M264.089,445.334h30.147
	c29.989,0,54.812,22.472,58.557,51.459h-30.129C292.673,496.792,267.831,474.322,264.089,445.334z M425.857,496.792
	c-1.98-19.381-11.457-36.565-25.459-48.638c21.453,6.886,37.606,25.719,40.565,48.638H425.857z"/>
<path d="M126.684,316.222c36.632,8.624,82.558,13.373,129.317,13.373c46.76,0,92.686-4.75,129.301-13.37l0.284-0.066
	c6.432-1.52,10.754-6.988,10.754-13.605c0-6.618-4.322-12.086-10.776-13.61l-0.243-0.058
	c-36.632-8.624-82.558-13.373-129.318-13.373s-92.685,4.75-129.3,13.37l-0.284,0.066c-6.432,1.52-10.754,6.988-10.754,13.605
	c0,6.617,4.322,12.085,10.767,13.608L126.684,316.222z M256.001,290.723c43.506,0,86.164,4.188,120.848,11.833
	c-34.673,7.643-77.334,11.833-120.848,11.833c-43.505,0-86.163-4.188-120.848-11.833
	C169.825,294.911,212.488,290.723,256.001,290.723z"/>
<path d="M422.553,244.002c-5.934-1.853-12.133-3.591-18.557-5.219v-36.294c0-0.046-0.004-0.091-0.004-0.137v-90.585
	c0-4.199-3.405-7.604-7.604-7.604c-4.199,0-7.604,3.405-7.604,7.604v66.762c-7.643-5.387-18.103-10.191-31.246-14.295
	c-27.229-8.502-63.287-13.184-101.533-13.184c-38.25,0-74.309,4.682-101.537,13.184c-13.146,4.105-23.605,8.911-31.248,14.299
	V51.436c0-7.632,14.045-16.95,35.781-23.737c25.8-8.055,60.249-12.492,97-12.492s71.2,4.437,97.002,12.493
	c21.736,6.787,35.781,16.103,35.781,23.737v33.459c0,4.199,3.405,7.604,7.604,7.604c4.199,0,7.604-3.405,7.604-7.604v-33.46
	c0-15.536-16.065-28.763-46.456-38.252C330.306,4.682,294.247,0,256.001,0c-38.246,0-74.305,4.682-101.534,13.184
	c-30.392,9.489-46.456,22.717-46.456,38.252v172.34c0,0.016,0.002,0.032,0.002,0.049v14.954c-6.427,1.628-12.628,3.368-18.565,5.221
	c-48.01,14.99-73.387,35.238-73.387,58.553c0,24.87,29.978,46.813,84.41,61.785c4.048,1.112,8.235-1.265,9.349-5.315
	s-1.266-8.235-5.316-9.349c-45.174-12.425-73.235-30.481-73.235-47.121c0-30.714,92.294-64.938,224.732-64.938
	s224.731,34.223,224.731,64.938s-92.294,64.938-224.731,64.938c-44.602,0-87.814-3.986-124.964-11.529
	c-4.118-0.832-8.129,1.824-8.965,5.939c-0.835,4.116,1.824,8.129,5.939,8.965c38.131,7.741,82.389,11.833,127.991,11.833
	c62.807,0,121.956-7.668,166.552-21.592c48.01-14.99,73.387-35.238,73.387-58.554C495.94,279.24,470.563,258.992,422.553,244.002z
	 M123.221,235.234v-32.746c0-7.634,14.044-16.954,35.779-23.741c25.801-8.056,60.251-12.493,97.004-12.493
	c36.75,0,71.199,4.437,97.001,12.493c21.663,6.763,35.683,16.042,35.778,23.661v21.367c0,0.029,0.004,0.059,0.004,0.088v11.369
	c-38.879-8.337-84.759-12.825-132.787-12.825C207.976,222.41,162.098,226.897,123.221,235.234z"/>
<g>
</g>
<g>
</g>
<g>
</g>
<g>
</g>
<g>
</g>
<g>
</g>
<g>
</g>
<g>
</g>
<g>
</g>
<g>
</g>
<g>
</g>
<g>
</g>
<g>
</g>
<g>
</g>
<g>
</g>
</svg>
