<?xml version="1.0" encoding="iso-8859-1"?>
<!-- Generator: Adobe Illustrator 19.0.0, SVG Export Plug-In . SVG Version: 6.00 Build 0)  -->
<svg version="1.1" id="Capa_1" xmlns="http://www.w3.org/2000/svg" xmlns:xlink="http://www.w3.org/1999/xlink" x="0px" y="0px"
	 viewBox="0 0 512 512" style="enable-background:new 0 0 512 512;" xml:space="preserve">
<path style="fill:#EDE6F5;" d="M257.996,454.796L119.6,502.897c-14.146,4.914-29.607-2.568-34.521-16.714L9.778,269.511
	c-4.914-14.146,2.568-29.607,16.714-34.521l72.136-25.067l66.261-23.034c14.156-4.914,29.617,2.568,34.531,16.714l60.356,173.666
	l14.945,43.004C279.635,434.421,272.153,449.881,257.996,454.796z"/>
<path style="fill:#CEC1E8;" d="M259.776,377.27H125.747c-14.975,0-27.119-12.144-27.119-27.129V209.923l66.261-23.034
	c14.156-4.914,29.617,2.568,34.531,16.714L259.776,377.27z"/>
<path style="fill:#ED4596;" d="M161.42,400.059c-58.528-5.806-96.626-69.319-72.15-86.26c24.476-16.941,48.611,18.53,48.611,18.53
	s-3.064-42.794,26.643-44.684C194.232,285.757,203.734,359.207,161.42,400.059z"/>
<path style="fill:#EDE6F5;" d="M327.706,94.48V323.85c0,0.738-0.03,1.476-0.091,2.194c-1.112,13.964-12.791,24.935-27.038,24.935
	H154.06c-14.975,0-27.119-12.144-27.119-27.129V94.48c0-14.985,12.144-27.129,27.119-27.129h146.517
	C315.562,67.35,327.706,79.494,327.706,94.48z"/>
<path style="fill:#CEC1E8;" d="M327.706,94.48V323.85c0,0.738-0.03,1.476-0.091,2.194l-87.516-23.125
	c-14.48-3.822-23.125-18.666-19.293-33.146l53.49-202.423h26.28C315.562,67.35,327.706,79.494,327.706,94.48z"/>
<path style="fill:#4E4F75;" d="M227.321,144.09c44.065,20.388,56.561,80.237,32.884,86.814
	c-23.676,6.577-32.884-27.623-32.884-27.623s-9.208,34.199-32.884,27.623C170.76,224.327,183.257,164.478,227.321,144.09z"/>
<path style="fill:#EDE6F5;" d="M269.423,282.7l141.656,37.429c14.484,3.827,29.328-4.812,33.155-19.296L502.828,79.07
	c3.827-14.484-4.812-29.328-19.296-33.155L341.876,8.487c-14.484-3.827-29.328,4.812-33.155,19.296l-58.594,221.764
	C246.299,264.029,254.939,278.873,269.423,282.7z"/>
<path style="fill:#ED4596;" d="M360.647,224.22c19.958-23.783,45.206-38.478,75.743-44.082
	c-23.782-19.957-38.478-45.205-44.082-75.743c-19.958,23.783-45.206,38.478-75.743,44.082
	C340.348,168.436,355.042,193.683,360.647,224.22z"/>
<path d="M265.649,371.073c-1.375-3.957-5.7-6.049-9.653-4.675c-3.957,1.375-6.049,5.697-4.675,9.652l16.233,46.708
	c1.714,4.929,1.405,10.233-0.87,14.931c-2.275,4.698-6.243,8.23-11.173,9.943l-56.299,19.566c-3.957,1.375-6.049,5.697-4.675,9.652
	c1.089,3.133,4.023,5.096,7.163,5.096c0.826,0,1.666-0.135,2.489-0.422l56.3-19.566c18.077-6.283,27.673-26.102,21.391-44.179
	L265.649,371.073z"/>
<path d="M174.462,475.802l-57.35,19.93c-4.929,1.715-10.233,1.406-14.931-0.87c-4.698-2.275-8.23-6.243-9.943-11.173L16.942,267.026
	c-3.537-10.178,1.866-21.336,12.044-24.873l79.792-27.731c3.957-1.375,6.049-5.697,4.675-9.653c-1.375-3.958-5.7-6.048-9.652-4.675
	l-79.792,27.731c-8.758,3.044-15.805,9.315-19.846,17.659c-4.041,8.344-4.59,17.763-1.546,26.521l75.298,216.662
	c3.044,8.758,9.315,15.805,17.66,19.846c4.789,2.318,9.931,3.487,15.099,3.486c3.837,0,7.69-0.644,11.421-1.941l57.349-19.93
	c3.957-1.375,6.049-5.697,4.675-9.652C182.739,476.519,178.415,474.427,174.462,475.802z"/>
<path d="M184.754,363.553c-3.841-1.666-8.308,0.094-9.976,3.936c-4.039,9.301-9.455,17.558-16.128,24.595
	c-36.644-5.285-63.091-35.019-68.335-55.28c-1.453-5.611-2.064-13.075,3.272-16.768c3.765-2.607,7.586-3.62,11.688-3.104
	c4.159,0.533,7.949-2.421,8.472-6.576c0.524-4.155-2.421-7.949-6.577-8.473c-7.868-0.992-15.339,0.921-22.216,5.682
	c-9.634,6.669-13.032,18.71-9.323,33.041c3.756,14.514,14.203,29.944,28.659,42.333c11.485,9.841,30.588,22.109,56.381,24.668
	c0.251,0.024,0.501,0.037,0.749,0.037c1.956,0,3.846-0.756,5.266-2.127c9.271-8.951,16.674-19.711,22.003-31.985
	C190.358,369.688,188.596,365.222,184.754,363.553z"/>
<path d="M111.439,475.453c6.512,2.747,12.964-4.612,9.5-10.731c-1.453-2.566-4.372-4.09-7.31-3.811
	c-3.3,0.313-6.072,2.807-6.72,6.06C106.216,470.448,108.123,474.124,111.439,475.453z"/>
<path d="M327.71,316.268c-4.188,0-7.584,3.395-7.584,7.584c0,10.777-8.768,19.546-19.546,19.546H154.064
	c-10.778,0-19.546-8.768-19.546-19.546V94.48c0-10.778,8.768-19.546,19.546-19.546h118.92c4.188,0,7.584-3.395,7.584-7.584
	s-3.395-7.584-7.584-7.584h-118.92c-19.141,0-34.713,15.572-34.713,34.713V323.85c0,19.14,15.572,34.713,34.713,34.713H300.58
	c19.141,0,34.713-15.572,34.713-34.713C335.293,319.663,331.898,316.268,327.71,316.268z"/>
<path d="M222.266,152.553c7.225,3.834,13.743,9.03,19.411,15.482c2.766,3.147,7.556,3.456,10.702,0.692
	c3.147-2.764,3.456-7.556,0.692-10.702c-7.894-8.985-17.188-15.988-27.621-20.816c-2.02-0.935-4.349-0.935-6.369,0
	c-19.731,9.129-31.482,24.099-37.867,35.049c-8.049,13.806-12.077,28.95-11.052,41.55c1.038,12.764,7.304,21.659,17.189,24.405
	c2.656,0.737,5.3,1.104,7.896,1.104c4.695,0,9.231-1.2,13.397-3.576c2.212-1.263,4.22-2.79,6.038-4.479v24.083h-15.787
	c-4.188,0-7.584,3.395-7.584,7.584s3.395,7.584,7.584,7.584h26.518c4.188,0,7.584-3.395,7.584-7.584
	c0-2.529-1.243-4.764-3.147-6.141v-25.63c2.977,2.195,7.189,1.945,9.874-0.758c2.95-2.973,2.931-7.775-0.041-10.725
	c-6.873-6.82-10.066-18.262-10.093-18.362c-0.891-3.311-3.894-5.612-7.323-5.612c-3.429,0-6.431,2.301-7.323,5.612
	c-1.103,4.099-6.01,16.803-13.814,21.256c-3.002,1.711-6.09,2.039-9.717,1.032c-4.659-1.294-5.841-7.46-6.131-11.021
	C183.919,195.859,196.056,166.469,222.266,152.553z"/>
<path d="M163.302,309.714c-2.953-1.219-6.445-0.422-8.568,1.966c-2.218,2.493-2.526,6.269-0.742,9.09
	c1.648,2.608,4.852,4.003,7.884,3.382c3.052-0.625,5.448-3.066,5.989-6.139C168.475,314.549,166.533,311.078,163.302,309.714z"/>
<path d="M506.601,54.681c-4.663-8.012-12.168-13.73-21.131-16.098L343.813,1.155c-18.505-4.887-37.535,6.187-42.424,24.689
	l-58.594,221.764c-4.889,18.503,6.187,37.535,24.69,42.424l141.656,37.429c2.954,0.781,5.949,1.167,8.924,1.167
	c6.055,0,12.029-1.599,17.401-4.725c8.012-4.663,13.729-12.168,16.098-21.131l21.83-82.62c1.07-4.05-1.346-8.199-5.395-9.269
	c-4.05-1.07-8.199,1.346-9.269,5.395l-21.83,82.62c-1.334,5.047-4.552,9.271-9.064,11.897c-4.512,2.626-9.775,3.338-14.822,2.003
	L271.36,275.368c-10.418-2.752-16.654-13.468-13.901-23.886l58.595-221.764c1.334-5.047,4.552-9.271,9.064-11.897
	c4.51-2.625,9.775-3.337,14.822-2.004l141.656,37.43c5.047,1.334,9.272,4.552,11.897,9.063c2.626,4.511,3.337,9.775,2.004,14.822
	l-29.061,109.987c-1.07,4.05,1.346,8.199,5.395,9.269c4.05,1.071,8.199-1.346,9.269-5.395L510.16,81.007
	C512.528,72.043,511.264,62.694,506.601,54.681z"/>
<path d="M468.651,85.005c6.856,0,10.19-8.84,4.957-13.328c-5.123-4.393-13.351-0.107-12.479,6.671
	C461.609,82.085,464.868,85.005,468.651,85.005z"/>
<path d="M290.606,246.992c-3.701-5.622-12.603-3.65-13.775,2.906c-1.189,6.653,6.643,11.345,11.999,7.377
	C292.014,254.919,292.827,250.282,290.606,246.992z"/>
<path d="M399.767,103.027c-0.53-2.889-2.682-5.213-5.522-5.963c-2.839-0.751-5.859,0.206-7.746,2.457
	c-18.7,22.285-42.69,36.247-71.303,41.498c-2.889,0.53-5.213,2.682-5.963,5.522c-0.75,2.84,0.207,5.859,2.457,7.746
	c22.285,18.7,36.246,42.689,41.498,71.303c0.53,2.889,2.682,5.213,5.522,5.963c0.642,0.17,1.292,0.253,1.937,0.253
	c2.209,0,4.348-0.968,5.81-2.709c18.7-22.285,42.69-36.247,71.303-41.498c2.889-0.53,5.213-2.682,5.963-5.522
	s-0.207-5.858-2.457-7.746C418.981,155.628,405.019,131.639,399.767,103.027z M364.764,208.639
	c-6.18-21.356-17.103-40.122-32.618-56.044c21.356-6.18,40.122-17.103,56.045-32.618c6.18,21.356,17.103,40.122,32.618,56.044
	C399.453,182.201,380.687,193.124,364.764,208.639z"/>
<g>
</g>
<g>
</g>
<g>
</g>
<g>
</g>
<g>
</g>
<g>
</g>
<g>
</g>
<g>
</g>
<g>
</g>
<g>
</g>
<g>
</g>
<g>
</g>
<g>
</g>
<g>
</g>
<g>
</g>
</svg>
