<?xml version="1.0" encoding="iso-8859-1"?>
<!-- Generator: Adobe Illustrator 19.0.0, SVG Export Plug-In . SVG Version: 6.00 Build 0)  -->
<svg version="1.1" id="Capa_1" xmlns="http://www.w3.org/2000/svg" xmlns:xlink="http://www.w3.org/1999/xlink" x="0px" y="0px"
	 viewBox="0 0 512 512" style="enable-background:new 0 0 512 512;" xml:space="preserve">
<rect x="148.425" y="7.645" style="fill:#CF8BFC;" width="216.677" height="363.845"/>
<rect x="148.425" y="7.645" style="fill:#9966CC;" width="36.114" height="363.845"/>
<g>
	<circle style="fill:#4E4F75;" cx="284.888" cy="249.388" r="22.807"/>
	<circle style="fill:#4E4F75;" cx="227.108" cy="102.393" r="22.807"/>
</g>
<g>
	<rect x="98.825" y="352.227" style="fill:#EF8C33;" width="315.877" height="38.507"/>
	<rect x="126.002" y="390.737" style="fill:#EF8C33;" width="25.848" height="113.615"/>
	<rect x="361.675" y="390.737" style="fill:#EF8C33;" width="25.848" height="113.615"/>
</g>
<path d="M101.365,125.021v21.467c0,4.199,3.403,7.603,7.603,7.603c4.2,0,7.603-3.404,7.603-7.603v-36.491h81.091
	c3.385,13.101,15.303,22.807,29.448,22.807c16.769,0,30.41-13.642,30.41-30.41c0-16.769-13.641-30.41-30.41-30.41
	c-14.144,0-26.063,9.706-29.448,22.807h-81.091v-34.97c0-4.199-3.403-7.603-7.603-7.603c-4.2,0-7.603,3.404-7.603,7.603v34.97H7.603
	c-4.2,0-7.603,3.404-7.603,7.603c0,29.343,23.873,53.217,53.217,53.217C74.472,155.611,92.845,143.079,101.365,125.021z
	 M227.11,87.19c8.384,0,15.204,6.821,15.204,15.204s-6.821,15.204-15.204,15.204c-5.613,0-10.513-3.064-13.147-7.602h13.147
	c4.2,0,7.603-3.404,7.603-7.603s-3.403-7.603-7.603-7.603h-13.147C216.597,90.256,221.497,87.19,227.11,87.19z M53.217,140.406
	c-18.356,0-33.715-13.08-37.247-30.409h74.493C86.931,127.325,71.572,140.406,53.217,140.406z"/>
<path d="M504.397,241.786h-93.763v-34.97c0-4.199-3.403-7.603-7.603-7.603s-7.603,3.404-7.603,7.603v34.97H372.7V109.997h52.069
	c4.2,0,7.603-3.404,7.603-7.603s-3.403-7.603-7.603-7.603H372.7V7.645c0-4.199-3.403-7.603-7.603-7.603H148.423
	c-4.2,0-7.603,3.404-7.603,7.603v71.738c0,4.199,3.403,7.603,7.603,7.603s7.603-3.404,7.603-7.603V15.247h201.469v329.381H156.026
	V125.508c0-4.199-3.403-7.603-7.603-7.603s-7.603,3.404-7.603,7.603V344.63H98.821c-4.2,0-7.603,3.404-7.603,7.603v38.507
	c0,4.199,3.403,7.603,7.603,7.603h19.577v106.013c0,4.199,3.403,7.603,7.603,7.603h25.847c4.2,0,7.603-3.404,7.603-7.603V398.341
	H354.07v106.013c0,4.199,3.403,7.603,7.603,7.603h25.847c4.2,0,7.603-3.404,7.603-7.603V398.341H414.7
	c4.2,0,7.603-3.404,7.603-7.603v-38.507c0-4.199-3.403-7.603-7.603-7.603H372.7v-87.637h22.729v36.491
	c0,4.199,3.403,7.603,7.603,7.603s7.603-3.404,7.603-7.603v-21.465c8.521,18.057,26.894,30.588,48.148,30.588
	c29.343,0,53.217-23.872,53.217-53.217C512,245.19,508.597,241.786,504.397,241.786z M144.245,496.751h-10.642v-98.41h10.642
	V496.751z M379.917,496.751h-10.642v-98.41h10.642V496.751z M407.097,383.136H106.424v-23.302h300.672v23.302H407.097z
	 M458.783,287.401c-18.356,0-33.715-13.081-37.247-30.409h74.494C492.499,274.32,477.139,287.401,458.783,287.401z"/>
<path d="M166.29,249.389c0,4.199,3.403,7.603,7.603,7.603h81.564c1.308,5.096,3.945,9.918,7.927,13.9
	c5.744,5.744,13.38,8.907,21.503,8.907c8.123,0,15.759-3.163,21.502-8.907h0.001c11.856-11.856,11.856-31.149-0.001-43.006
	c-11.857-11.856-31.149-11.855-43.006,0c-3.982,3.982-6.62,8.804-7.927,13.9h-81.564C169.693,241.786,166.29,245.19,166.29,249.389z
	 M274.137,238.638c2.964-2.964,6.857-4.446,10.75-4.446c3.893,0,7.787,1.482,10.75,4.446c5.929,5.928,5.929,15.574,0.001,21.502
	c-2.873,2.872-6.691,4.453-10.751,4.453c-4.062,0-7.879-1.581-10.75-4.453c-0.96-0.96-1.749-2.025-2.397-3.149h13.148
	c4.2,0,7.603-3.404,7.603-7.603c0-4.199-3.403-7.603-7.603-7.603H271.74C272.388,240.663,273.176,239.598,274.137,238.638z"/>
<g>
</g>
<g>
</g>
<g>
</g>
<g>
</g>
<g>
</g>
<g>
</g>
<g>
</g>
<g>
</g>
<g>
</g>
<g>
</g>
<g>
</g>
<g>
</g>
<g>
</g>
<g>
</g>
<g>
</g>
</svg>
