<?xml version="1.0" encoding="iso-8859-1"?>
<!-- Generator: Adobe Illustrator 19.0.0, SVG Export Plug-In . SVG Version: 6.00 Build 0)  -->
<svg version="1.1" id="Capa_1" xmlns="http://www.w3.org/2000/svg" xmlns:xlink="http://www.w3.org/1999/xlink" x="0px" y="0px"
	 viewBox="0 0 512 512" style="enable-background:new 0 0 512 512;" xml:space="preserve">
<path style="fill:#F9D366;" d="M480.438,227.089l4.873-0.988c6.432-1.304,6.432-10.496,0-11.799l-4.873-0.988
	c-12.276-2.489-21.87-12.083-24.359-24.359l-0.988-4.873c-1.304-6.432-10.495-6.432-11.799,0l-0.988,4.873
	c-2.489,12.276-12.083,21.87-24.359,24.359l-4.873,0.988c-6.432,1.304-6.432,10.496,0,11.799l4.873,0.988
	c12.276,2.489,21.87,12.083,24.359,24.359l0.988,4.873c1.304,6.432,10.495,6.432,11.799,0l0.988-4.873
	C458.568,239.172,468.162,229.578,480.438,227.089z"/>
<path style="fill:#4E4F75;" d="M399.221,169.016l-80.273,80.283L63.944,504.293l-42.079-42.079L276.87,207.219l80.273-80.283
	C378.218,131.47,394.688,147.94,399.221,169.016z"/>
<path style="fill:#32314C;" d="M34.202,474.548l255.005-254.995l80.273-80.283c7.568,1.627,14.535,4.801,20.576,9.167
	c-7.794-10.783-19.404-18.598-32.912-21.503l-80.273,80.283L21.866,462.212L34.202,474.548z"/>
<path style="fill:#F777CE;" d="M399.221,169.016l-80.273,80.283l-42.079-42.079l38.933-38.933l41.339-41.349
	c6.333,1.367,12.244,3.804,17.549,7.125C387.039,141.782,396.055,154.273,399.221,169.016z"/>
<path style="fill:#EF8C33;" d="M327.379,240.858l-23.379,23.368c-3.166-14.743-12.172-27.234-24.52-34.944
	c-5.305-3.321-11.216-5.768-17.549-7.125l14.938-14.938l8.441-8.441c6.333,1.367,12.244,3.804,17.539,7.135
	c3.526,2.19,6.775,4.781,9.695,7.7C319.864,220.934,325.117,230.31,327.379,240.858z"/>
<path style="fill:#ED4596;" d="M374.691,134.061l-46.552,46.562l-38.933,38.933l-12.337-12.337l38.933-38.933l41.339-41.349
	C363.475,128.304,369.387,130.74,374.691,134.061z"/>
<path style="fill:#D8782A;" d="M302.849,205.913l-13.643,13.643l-9.726,9.726c-5.305-3.321-11.216-5.768-17.549-7.125l14.938-14.938
	l8.441-8.441C291.643,200.146,297.555,202.582,302.849,205.913z"/>
<path style="fill:#F9D366;" d="M393.39,95.958l19.263-3.906c9.094-1.843,9.094-14.841,0-16.685l-19.263-3.906
	c-18.982-3.849-33.819-18.684-37.668-37.668l-3.906-19.263c-1.843-9.094-14.841-9.094-16.685,0l-3.906,19.263
	c-3.849,18.982-18.684,33.819-37.668,37.668l-19.263,3.906c-9.094,1.843-9.094,14.841,0,16.685l19.263,3.906
	c18.982,3.849,33.819,18.684,37.668,37.668l3.906,19.263c1.843,9.094,14.841,9.094,16.685,0l3.906-19.263
	C359.571,114.642,374.407,99.807,393.39,95.958z"/>
<path d="M486.843,206.745l-4.873-0.988c-9.26-1.877-16.456-9.075-18.335-18.334l-0.988-4.873
	c-1.312-6.478-6.845-11.003-13.456-11.003c0,0,0,0-0.001,0c-6.61,0-12.143,4.524-13.457,11.003l-0.988,4.873
	c-1.877,9.26-9.074,16.458-18.335,18.334l-4.873,0.988c-6.478,1.314-11.001,6.847-11.001,13.457c0,6.61,4.524,12.143,11.001,13.457
	l4.873,0.988c9.261,1.877,16.458,9.074,18.335,18.334l0.988,4.874c1.314,6.478,6.848,11.003,13.458,11.001
	c6.611,0,12.144-4.525,13.456-11.003l0.988-4.873c1.878-9.261,9.075-16.458,18.335-18.335l4.873-0.988
	c6.478-1.313,11.001-6.847,11.001-13.457C497.844,213.592,493.321,208.058,486.843,206.745z M449.19,247.136
	c-3.66-13.082-13.854-23.276-26.936-26.936c13.082-3.66,23.277-13.853,26.936-26.936c3.661,13.082,13.855,23.276,26.936,26.936
	C463.046,223.862,452.851,234.054,449.19,247.136z"/>
<path d="M177.185,189.009c4.259,0,7.711-3.452,7.711-7.711v-20.047c0-4.258-3.451-7.711-7.711-7.711
	c-4.259,0-7.711,3.452-7.711,7.711v20.047C169.474,185.556,172.926,189.009,177.185,189.009z"/>
<path d="M177.185,242.981c4.259,0,7.711-3.452,7.711-7.711v-20.047c0-4.258-3.451-7.711-7.711-7.711
	c-4.259,0-7.711,3.452-7.711,7.711v20.047C169.474,239.529,172.926,242.981,177.185,242.981z"/>
<path d="M194.147,205.971h20.047c4.259,0,7.711-3.452,7.711-7.711s-3.451-7.711-7.711-7.711h-20.047
	c-4.259,0-7.711,3.452-7.711,7.711S189.889,205.971,194.147,205.971z"/>
<path d="M140.176,205.971h20.047c4.259,0,7.711-3.452,7.711-7.711s-3.451-7.711-7.711-7.711h-20.047
	c-4.259,0-7.711,3.452-7.711,7.711S135.916,205.971,140.176,205.971z"/>
<path d="M406.755,167.398c-2.534-11.799-8.384-22.546-16.917-31.079c-3.012-3.01-7.895-3.011-10.904,0
	c-3.012,3.011-3.012,7.894-0.001,10.905c5.462,5.461,9.463,12.126,11.716,19.458l-59.909,59.909
	c-6.26-13.804-17.369-24.913-31.173-31.173l19.888-19.888c3.011-3.011,3.011-7.893,0-10.904c-3.012-3.011-7.894-3.011-10.905,0
	L16.413,456.759c-1.445,1.445-2.258,3.407-2.258,5.452c0,2.045,0.812,4.006,2.258,5.452l42.078,42.078
	c1.506,1.506,3.48,2.259,5.453,2.259s3.947-0.753,5.453-2.259l67.767-67.767c3.011-3.011,3.011-7.893,0-10.904
	c-3.012-3.011-7.894-3.011-10.905,0l-62.314,62.315l-31.173-31.173l231.484-231.484c14.883,4.58,26.594,16.292,31.173,31.173
	L148.618,408.711c-3.011,3.011-3.011,7.894,0,10.904c1.506,1.506,3.48,2.259,5.453,2.259c1.974,0,3.947-0.753,5.453-2.259
	l245.145-245.146C406.519,172.619,407.304,169.956,406.755,167.398z M276.192,218.79l11.435-11.435
	c14.883,4.579,26.594,16.291,31.173,31.173l-11.435,11.434C301.106,236.161,289.996,225.051,276.192,218.79z"/>
<path d="M272.763,99.609l19.263,3.906c15.983,3.241,28.403,15.661,31.642,31.643l3.906,19.264c1.552,7.653,8.09,12.999,15.9,12.999
	c7.809,0,14.347-5.345,15.899-12.999l3.906-19.263c3.24-15.982,15.66-28.403,31.642-31.643l19.262-3.906
	c7.654-1.551,13-8.09,13-15.899s-5.345-14.348-13-15.899l-19.262-3.906c-15.983-3.241-28.403-15.661-31.642-31.643l-3.906-19.264
	C357.822,5.345,351.284,0,343.475,0c-7.81,0-14.348,5.345-15.9,12.999l-3.906,19.263c-3.239,15.982-15.66,28.403-31.642,31.643
	l-19.263,3.906c-7.653,1.551-13,8.09-13,15.899S265.11,98.057,272.763,99.609z M275.827,82.924l19.263-3.906
	c22.069-4.474,39.218-21.625,43.692-43.692l3.906-19.263c0.072-0.359,0.131-0.643,0.786-0.643c0.655,0,0.712,0.284,0.785,0.643
	l3.906,19.263c4.474,22.068,21.624,39.218,43.692,43.692l19.262,3.906c0.36,0.073,0.643,0.131,0.643,0.785
	c0,0.655-0.283,0.712-0.643,0.785l-19.262,3.906c-22.069,4.474-39.218,21.625-43.692,43.692l-3.906,19.263
	c-0.072,0.359-0.131,0.643-0.785,0.643c-0.656,0-0.713-0.284-0.786-0.643l-3.906-19.263c-4.474-22.068-21.624-39.218-43.692-43.692
	l-19.263-3.906c-0.359-0.073-0.643-0.131-0.643-0.785C275.185,83.055,275.469,82.997,275.827,82.924z"/>
<g>
</g>
<g>
</g>
<g>
</g>
<g>
</g>
<g>
</g>
<g>
</g>
<g>
</g>
<g>
</g>
<g>
</g>
<g>
</g>
<g>
</g>
<g>
</g>
<g>
</g>
<g>
</g>
<g>
</g>
</svg>
