<?xml version="1.0" encoding="iso-8859-1"?>
<!-- Generator: Adobe Illustrator 19.0.0, SVG Export Plug-In . SVG Version: 6.00 Build 0)  -->
<svg version="1.1" id="Capa_1" xmlns="http://www.w3.org/2000/svg" xmlns:xlink="http://www.w3.org/1999/xlink" x="0px" y="0px"
	 viewBox="0 0 512 512" style="enable-background:new 0 0 512 512;" xml:space="preserve">
<path style="fill:#FFC9BD;" d="M378.397,243.21v138.785c0,67.595-54.811,122.386-122.396,122.386
	c-67.595,0-122.386-54.791-122.386-122.386V243.21H378.397z"/>
<path style="fill:#FCAFA2;" d="M133.615,243.21v0.004h-0.005v137.432c0,67.353,53.853,123.084,121.203,123.729
	c6.621,0.063,13.122-0.404,19.464-1.355c-58.927-8.823-104.113-59.645-104.113-121.031v-43.74c0-14.824,10.643-27.416,25.219-30.118
	c0.087-0.016,0.175-0.033,0.262-0.049c19.902-3.716,40.108-5.585,60.355-5.585s40.453,1.878,60.365,5.585
	c22.369,4.173,43.256,4.904,62.031,2.142v-67.016H133.615V243.21z"/>
<path style="fill:#EDE6F5;" d="M292.554,278.128c89.705,25.22,160.592-0.255,177.207-78.895S425.456,7.615,327.986,7.615
	c-15.661,0-28.145,4.906-38.068,13.147l-67.831,0.011c-9.924-8.241-22.418-13.159-38.079-13.159
	c-97.47,0-158.389,112.976-141.775,191.617s87.501,104.116,177.217,78.895"/>
<path style="fill:#CEC1E8;" d="M111.625,199.233c7.534,52.801,31.589,81.628,64.914,87.243
	c-68.813,6.966-120.436-21.638-134.307-87.243C25.621,120.591,86.545,7.618,184.013,7.618c4.336,0,8.428,0.376,12.286,1.097
	C137,20.462,101.045,125.099,111.625,199.233z"/>
<path style="fill:#CF8BFC;" d="M274.638,12.21h-37.279c-9.892,0-17.912,8.02-17.912,17.912v248.007h73.103V30.123
	C292.55,20.23,284.53,12.21,274.638,12.21z"/>
<g>
	<circle style="fill:#F9D366;" cx="256.001" cy="128.001" r="17.168"/>
	<circle style="fill:#F9D366;" cx="256.001" cy="193.454" r="36.551"/>
</g>
<g>
	<path style="fill:#4E4F75;" d="M102.041,416.881h100.792c29.362,0,53.165-23.803,53.165-53.165l0,0H155.206
		C125.844,363.715,102.041,387.518,102.041,416.881L102.041,416.881z"/>
	<path style="fill:#4E4F75;" d="M409.957,416.881H309.164c-29.362,0-53.165-23.803-53.165-53.165l0,0h100.792
		C386.154,363.715,409.957,387.518,409.957,416.881L409.957,416.881z"/>
</g>
<path style="fill:#FFC9BD;" d="M255.998,363.715L255.998,363.715c-10.247,0-18.555-8.308-18.555-18.555v-67.031h37.111v67.031
	C274.554,355.407,266.247,363.715,255.998,363.715z"/>
<path d="M437.395,55.339c-2.66-3.259-7.456-3.746-10.716-1.086c-3.258,2.659-3.745,7.456-1.086,10.715
	c15.25,18.692,26.784,41.191,33.356,65.063c6.532,23.73,7.694,47.115,3.36,67.629c-6.407,30.325-21.256,52.721-44.135,66.569
	c-29.359,17.769-70.073,20.527-118.008,8.064V30.123c0-2.354-0.327-4.631-0.926-6.796c8.231-5.432,17.685-8.096,28.747-8.096
	c26.502,0,52.15,9.18,74.172,26.547c1.397,1.102,3.059,1.636,4.71,1.636c2.252,0,4.482-0.994,5.985-2.9
	c2.604-3.302,2.038-8.091-1.264-10.695C386.854,10.31,357.943,0,327.986,0c-13.919,0-26.326,3.549-37,10.535
	c-4.432-3.705-10.133-5.94-16.348-5.94H237.36c-6.216,0-11.92,2.236-16.352,5.943C210.33,3.55,197.922,0,184.008,0
	c-41.62,0-80.597,19.801-109.749,55.756c-33.791,41.676-49.286,98.611-39.475,145.051c7.209,34.123,24.897,60.559,51.149,76.449
	c19.711,11.931,43.641,17.925,70.824,17.925c19.658,0,41.022-3.143,63.713-9.436h9.359v59.416c0,3.904,0.865,7.608,2.405,10.94
	h-77.027c-4.81,0-9.486,0.579-13.976,1.64v-46.493c0-4.206-3.41-7.615-7.615-7.615c-4.206,0-7.615,3.41-7.615,7.615v52.349
	c-18.801,10.347-31.574,30.35-31.574,53.285c0,4.206,3.41,7.615,7.615,7.615h31.093c8.361,24.114,23.975,45.679,44.428,61.178
	C200.289,502.897,227.413,512,256.001,512c28.583,0,55.706-9.103,78.435-26.325c20.456-15.5,36.075-37.065,44.44-61.178h31.081
	c4.206,0,7.615-3.41,7.615-7.615c0-22.93-12.767-42.928-31.561-53.278v-52.356c0-4.206-3.41-7.615-7.615-7.615
	s-7.615,3.41-7.615,7.615v46.496c-4.494-1.063-9.174-1.643-13.989-1.643h-77.027c1.539-3.332,2.405-7.036,2.405-10.94v-59.416h9.365
	c22.691,6.293,44.048,9.436,63.707,9.436c27.177,0,51.109-5.995,70.818-17.923c26.254-15.89,43.941-42.326,51.151-76.451
	C487.065,154.165,471.436,97.065,437.395,55.339z M255.998,137.554c-5.268,0-9.553-4.285-9.553-9.553s4.285-9.553,9.553-9.553
	c5.267,0,9.552,4.285,9.552,9.553S261.265,137.554,255.998,137.554z M284.934,193.451c0,15.955-12.981,28.936-28.936,28.936
	s-28.936-12.981-28.936-28.936s12.981-28.936,28.936-28.936S284.934,177.495,284.934,193.451z M93.817,264.226
	c-22.878-13.847-37.727-36.244-44.133-66.567c-4.318-20.441-3.178-43.745,3.296-67.395c6.513-23.786,17.96-46.233,33.108-64.915
	c26.205-32.318,60.98-50.117,97.92-50.117c11.059,0,20.514,2.664,28.749,8.1c-0.598,2.164-0.924,4.44-0.924,6.792v49.081
	c0,4.206,3.41,7.615,7.615,7.615s7.615-3.41,7.615-7.615V30.123c0-5.677,4.619-10.296,10.296-10.296h37.278
	c5.677,0,10.296,4.619,10.296,10.296v130.002c-5.261-4.573-11.606-7.923-18.597-9.608c8.516-3.927,14.445-12.539,14.445-22.515
	c0-13.665-11.118-24.784-24.783-24.784s-24.784,11.118-24.784,24.784c0,9.976,5.929,18.59,14.445,22.515
	c-6.992,1.684-13.337,5.034-18.598,9.608V104.59c0-4.206-3.41-7.615-7.615-7.615s-7.615,3.41-7.615,7.615v167.704
	C163.893,284.754,123.176,281.996,93.817,264.226z M155.206,371.331h92.541c-3.634,21.505-22.391,37.934-44.913,37.934h-92.54
	C113.926,387.76,132.683,371.331,155.206,371.331z M325.236,473.535c-20.06,15.199-44.001,23.233-69.237,23.233
	c-25.239,0-49.182-8.034-69.239-23.233c-16.644-12.613-29.649-29.772-37.366-49.039h53.437c22.85,0,42.785-12.679,53.165-31.367
	c10.38,18.686,30.316,31.367,53.165,31.367h53.448C354.891,443.762,341.884,460.921,325.236,473.535z M401.705,409.265h-92.54
	c-22.523,0-41.279-16.43-44.913-37.934h92.54C379.313,371.331,398.071,387.76,401.705,409.265z M266.938,345.16
	c0,6.032-4.907,10.94-10.94,10.94s-10.94-4.907-10.94-10.94v-59.416h21.88V345.16z M227.062,270.513v-43.738
	c7.757,6.744,17.874,10.841,28.936,10.841s21.178-4.097,28.936-10.841v43.738H227.062z"/>
<g>
</g>
<g>
</g>
<g>
</g>
<g>
</g>
<g>
</g>
<g>
</g>
<g>
</g>
<g>
</g>
<g>
</g>
<g>
</g>
<g>
</g>
<g>
</g>
<g>
</g>
<g>
</g>
<g>
</g>
</svg>
