<?xml version="1.0" encoding="iso-8859-1"?>
<!-- Generator: Adobe Illustrator 19.0.0, SVG Export Plug-In . SVG Version: 6.00 Build 0)  -->
<svg version="1.1" id="Capa_1" xmlns="http://www.w3.org/2000/svg" xmlns:xlink="http://www.w3.org/1999/xlink" x="0px" y="0px"
	 viewBox="0 0 512 512" style="enable-background:new 0 0 512 512;" xml:space="preserve">
<rect x="36.511" y="130.139" style="fill:#CF8BFC;" width="438.992" height="374.257"/>
<rect x="36.511" y="130.139" style="fill:#9966CC;" width="438.992" height="37.655"/>
<rect x="13.448" y="7.604" style="fill:#CF8BFC;" width="485.112" height="122.535"/>
<g>
	<polygon style="fill:#F9D366;" points="151.475,175.065 174.929,222.588 227.374,230.209 189.425,267.201 198.383,319.434 
		151.475,294.773 104.567,319.434 113.525,267.201 75.575,230.209 128.02,222.588 	"/>
	<polygon style="fill:#F9D366;" points="187.041,358.854 205.093,395.43 245.457,401.295 216.25,429.766 223.144,469.966 
		187.041,450.986 150.94,469.966 157.834,429.766 128.627,401.295 168.99,395.43 	"/>
	<polyline style="fill:#F9D366;" points="270.146,7.603 299.194,35.92 289.106,94.754 341.938,66.975 394.78,94.754 384.682,35.92 
		413.73,7.603 	"/>
	<polyline style="fill:#F9D366;" points="475.494,321.717 454.558,310.707 395.409,341.802 406.703,275.942 358.849,229.294 
		424.983,219.682 454.558,159.763 475.494,202.183 	"/>
	<polyline style="fill:#F9D366;" points="407.403,504.395 404.432,487.078 442.381,450.082 389.944,442.468 366.484,394.939 
		343.033,442.468 290.586,450.082 328.535,487.078 325.564,504.395 	"/>
	<polyline style="fill:#F9D366;" points="13.447,64.217 21.122,60.182 71.47,86.644 61.849,30.587 85.431,7.603 13.447,7.603 	"/>
	<polygon style="fill:#F9D366;" points="498.555,130.138 483.615,130.138 483.818,128.932 443.091,89.229 498.559,81.179 	"/>
	<polyline style="fill:#F9D366;" points="36.502,322.873 52.775,355.824 96.259,362.15 64.789,392.82 72.22,436.132 36.502,417.355 
			"/>
	<polygon style="fill:#F9D366;" points="299.341,271.571 313.363,299.983 344.718,304.54 322.03,326.656 327.385,357.884 
		299.341,343.139 271.296,357.884 276.652,326.656 253.963,304.54 285.318,299.983 	"/>
	<polyline style="fill:#F9D366;" points="218.004,130.138 215.043,112.852 244.84,83.815 203.657,77.833 185.246,40.513 
		166.834,77.833 125.651,83.815 155.448,112.852 152.478,130.138 	"/>
	<polygon style="fill:#F9D366;" points="329.417,167.793 333.939,194.113 296.547,174.454 259.146,194.113 263.668,167.793 
		266.294,152.474 243.38,130.138 349.704,130.138 326.791,152.474 	"/>
</g>
<polygon style="fill:#DD8833;" points="326.791,152.474 329.417,167.793 263.668,167.793 266.294,152.474 243.38,130.138 
	349.704,130.138 "/>
<path d="M498.556,0H154.832c-4.2,0-7.604,3.405-7.604,7.604s3.404,7.604,7.604,7.604h112.222l23.969,23.366l-9.413,54.895
	c-0.489,2.853,0.684,5.736,3.025,7.437c1.325,0.962,2.894,1.452,4.47,1.452c1.21,0,2.426-0.289,3.537-0.874l49.294-25.918
	l49.304,25.919c2.563,1.347,5.668,1.121,8.008-0.579c2.342-1.701,3.514-4.585,3.023-7.438l-9.422-54.895l23.972-23.365h74.13v59.391
	L442,81.704c-2.864,0.416-5.245,2.422-6.14,5.175s-0.148,5.775,1.923,7.796l28.579,27.86H224.415l-1.203-7.026l26.935-26.248
	c2.073-2.021,2.82-5.043,1.924-7.796c-0.894-2.753-3.274-4.759-6.139-5.176l-37.226-5.407l-16.644-33.734
	c-1.281-2.597-3.924-4.24-6.819-4.24c-2.896,0-5.539,1.643-6.819,4.24l-16.641,33.735l-37.226,5.407
	c-2.864,0.417-5.245,2.423-6.139,5.176c-0.895,2.753-0.148,5.775,1.924,7.796l26.933,26.245l-1.209,7.028H36.506H21.053V68.81
	l0.07-0.036l46.81,24.602c1.113,0.585,2.327,0.873,3.536,0.873c1.578,0,3.147-0.49,4.471-1.453c2.342-1.701,3.514-4.585,3.023-7.437
	l-8.944-52.116l18.503-18.036h40.961c4.2,0,7.604-3.405,7.604-7.604S133.684,0,129.483,0H13.449c-4.2,0-7.604,3.405-7.604,7.604
	c0,0,0,56.557,0,56.603v65.931c0,4.199,3.404,7.604,7.604,7.604h15.453v279.567c0,0.075-0.002,0.149,0,0.224v86.863
	c0,4.199,3.404,7.604,7.604,7.604h370.877c0.004,0,0.007,0,0.011,0s0.008,0,0.011,0h68.091c4.2,0,7.604-3.405,7.604-7.604V369.825
	c0-4.199-3.404-7.604-7.604-7.604s-7.604,3.405-7.604,7.604v126.967h-54.08l-1.212-7.06l35.087-34.205
	c2.072-2.021,2.819-5.043,1.923-7.796c-0.895-2.753-3.274-4.758-6.139-5.175l-48.481-7.039l-21.692-43.945
	c-1.282-2.595-3.925-4.239-6.82-4.238c-2.894,0-5.538,1.643-6.818,4.24l-21.681,43.944l-48.49,7.039
	c-2.865,0.416-5.245,2.422-6.14,5.175s-0.148,5.775,1.923,7.796l35.087,34.205l-1.206,7.059H44.11v-66.847l24.571,12.917
	c1.113,0.585,2.328,0.873,3.537,0.873c1.578,0,3.147-0.49,4.47-1.453c2.342-1.701,3.515-4.585,3.024-7.438l-6.755-39.371
	l28.607-27.879c2.073-2.02,2.819-5.042,1.924-7.795c-0.893-2.753-3.273-4.759-6.137-5.176l-39.53-5.752l-13.712-27.768V137.742
	h173.863c0.007,0,0.015,0.001,0.022,0.001c0.008,0,0.016-0.001,0.023-0.001h22.269l17.836,17.386l-6.471,37.698
	c-0.49,2.853,0.682,5.736,3.023,7.438c1.325,0.963,2.894,1.453,4.471,1.453c1.21,0,2.425-0.289,3.536-0.873l33.863-17.799
	l33.854,17.798c2.563,1.347,5.668,1.122,8.008-0.579c2.342-1.701,3.514-4.585,3.023-7.438l-6.471-37.698l17.836-17.386h115.096
	v31.86l-6.517-13.204c-1.282-2.595-3.925-4.239-6.819-4.239c-2.895,0-5.538,1.643-6.819,4.239l-27.805,56.334l-62.179,9.037
	c-2.863,0.417-5.244,2.422-6.138,5.175c-0.894,2.753-0.148,5.774,1.923,7.795l44.992,43.858l-10.619,61.921
	c-0.489,2.852,0.684,5.735,3.025,7.437c1.325,0.962,2.894,1.452,4.47,1.452c1.21,0,2.425-0.289,3.537-0.873l55.609-29.235
	l13.336,7.014v18.165c0,4.199,3.404,7.604,7.604,7.604s7.604-3.405,7.604-7.604V137.742h0.511c0.004,0,0.008,0.001,0.012,0.001
	c0.007,0,0.014-0.001,0.022-0.001h14.91c4.2,0,7.604-3.405,7.604-7.604V7.604C506.16,3.405,502.756,0,498.556,0z M379.375,30.476
	c-1.793,1.748-2.61,4.264-2.186,6.731l7.491,43.647l-39.204-20.61c-2.216-1.164-4.863-1.165-7.077,0l-39.196,20.609l7.485-43.648
	c0.423-2.467-0.395-4.983-2.187-6.73L288.84,15.208h106.195L379.375,30.476z M66.734,15.208l-10.192,9.934
	c-1.794,1.748-2.611,4.265-2.187,6.732l7.015,40.872L24.66,53.451c-1.128-0.593-2.368-0.88-3.607-0.869V15.208H66.734z
	 M333.843,481.633l-26.916-26.239l37.198-5.401c2.478-0.36,4.62-1.916,5.726-4.161l16.632-33.711l16.641,33.713
	c1.108,2.244,3.249,3.8,5.725,4.16l37.19,5.4l-26.917,26.24c-1.793,1.748-2.61,4.264-2.186,6.731l1.446,8.428h-63.801l1.446-8.428
	C336.453,485.897,335.635,483.381,333.843,481.633z M45.956,359.191c1.108,2.243,3.247,3.798,5.723,4.158l28.239,4.108
	l-20.436,19.917c-1.794,1.747-2.611,4.264-2.187,6.732l4.826,28.126l-18.01-9.467v-57.312L45.956,359.191z M458.097,303.977
	c-2.215-1.165-4.861-1.165-7.078,0l-45.511,23.926l8.69-50.676c0.423-2.467-0.395-4.983-2.187-6.73l-36.821-35.894l50.888-7.395
	c2.476-0.36,4.617-1.915,5.724-4.16l22.755-46.104l13.335,27.019v105.165L458.097,303.977z M490.952,89.967v32.567h-2.803
	l-28.716-27.993L490.952,89.967z M160.756,107.406l-18.76-18.281l25.932-3.766c2.477-0.359,4.619-1.915,5.725-4.161L185.246,57.7
	l11.594,23.498c1.107,2.245,3.248,3.801,5.725,4.161l25.932,3.766l-18.76,18.281c-1.793,1.747-2.61,4.263-2.188,6.73l1.439,8.399
	H161.5l1.443-8.394C163.367,111.673,162.548,109.153,160.756,107.406z M321.483,147.029c-1.793,1.747-2.61,4.264-2.186,6.732
	l4.54,26.451l-23.751-12.487c-2.215-1.165-4.861-1.165-7.076,0l-23.763,12.49l4.541-26.453c0.424-2.468-0.394-4.985-2.186-6.732
	l-9.526-9.287h68.935L321.483,147.029z"/>
<path d="M100.098,325.585c1.325,0.963,2.894,1.453,4.47,1.453c1.21,0,2.425-0.289,3.537-0.873l43.369-22.801l43.37,22.801
	c2.563,1.347,5.667,1.122,8.007-0.579c2.342-1.701,3.515-4.584,3.024-7.437l-8.96-52.233c-0.71-4.14-4.641-6.922-8.779-6.209
	c-4.14,0.71-6.92,4.641-6.209,8.78l6.355,37.048l-33.271-17.491c-2.216-1.164-4.861-1.164-7.077,0l-33.27,17.491l6.354-37.048
	c0.424-2.467-0.394-4.984-2.186-6.731L91.917,235.52l37.198-5.406c2.477-0.36,4.618-1.915,5.725-4.16l16.634-33.707l16.635,33.707
	c1.108,2.244,3.248,3.8,5.725,4.16l37.197,5.406l-10.639,10.371c-3.007,2.931-3.068,7.746-0.138,10.752
	c2.933,3.008,7.747,3.07,10.753,0.138l21.672-21.125c2.072-2.021,2.818-5.042,1.923-7.795c-0.894-2.753-3.274-4.759-6.139-5.175
	l-48.488-7.046l-21.685-43.939c-1.282-2.595-3.925-4.239-6.819-4.239c-2.895,0-5.538,1.643-6.819,4.239l-21.684,43.939
	l-48.489,7.046c-2.864,0.416-5.245,2.422-6.139,5.175c-0.894,2.753-0.148,5.775,1.923,7.795l35.087,34.201l-8.282,48.293
	C96.582,321.001,97.756,323.884,100.098,325.585z"/>
<path d="M252.689,398.945c-0.894-2.753-3.274-4.759-6.139-5.175l-36.408-5.29l-16.282-32.991c-1.282-2.595-3.925-4.239-6.819-4.239
	c-2.895,0-5.538,1.643-6.819,4.239l-16.283,32.991l-36.407,5.29c-2.864,0.416-5.245,2.422-6.139,5.175
	c-0.894,2.753-0.148,5.775,1.923,7.795l26.344,25.68l-6.219,36.261c-0.49,2.853,0.683,5.736,3.024,7.437
	c2.342,1.701,5.443,1.926,8.007,0.579l32.564-17.12l32.563,17.12c1.113,0.585,2.328,0.873,3.537,0.873
	c1.578,0,3.146-0.49,4.47-1.453c2.342-1.701,3.515-4.584,3.024-7.437l-6.219-36.26l26.345-25.68
	C252.837,404.72,253.583,401.698,252.689,398.945z M210.941,424.32c-1.793,1.747-2.61,4.264-2.186,6.731l4.29,25.015l-22.464-11.81
	c-2.215-1.164-4.86-1.165-7.077,0l-22.465,11.81l4.29-25.015c0.424-2.467-0.394-4.984-2.186-6.731l-18.174-17.716l25.115-3.65
	c2.477-0.36,4.618-1.915,5.725-4.16l11.233-22.759l11.232,22.759c1.108,2.244,3.248,3.8,5.725,4.16l25.116,3.65L210.941,424.32z"/>
<path d="M351.95,302.191c-0.894-2.753-3.274-4.759-6.139-5.175l-27.399-3.981l-12.253-24.827c-1.282-2.595-3.925-4.239-6.819-4.239
	c-2.895,0-5.538,1.643-6.819,4.239l-12.254,24.827l-27.398,3.981c-2.864,0.416-5.245,2.422-6.139,5.175
	c-0.894,2.753-0.148,5.775,1.923,7.795l19.826,19.325l-4.679,27.289c-0.49,2.852,0.683,5.735,3.024,7.437
	c1.325,0.962,2.894,1.452,4.47,1.452c1.21,0,2.425-0.289,3.537-0.873l24.506-12.884l24.506,12.884
	c2.563,1.347,5.667,1.122,8.007-0.579c2.342-1.701,3.515-4.584,3.024-7.437l-4.68-27.288l19.827-19.326
	C352.098,307.964,352.844,304.942,351.95,302.191z M316.721,321.211c-1.793,1.747-2.61,4.264-2.186,6.731l2.752,16.042
	l-14.407-7.575c-2.216-1.164-4.861-1.164-7.077,0l-14.407,7.575l2.751-16.043c0.424-2.467-0.394-4.983-2.186-6.73l-11.655-11.361
	l16.107-2.341c2.477-0.36,4.618-1.915,5.725-4.16l7.203-14.596l7.202,14.596c1.108,2.244,3.248,3.8,5.725,4.16l16.108,2.341
	L316.721,321.211z"/>
<g>
</g>
<g>
</g>
<g>
</g>
<g>
</g>
<g>
</g>
<g>
</g>
<g>
</g>
<g>
</g>
<g>
</g>
<g>
</g>
<g>
</g>
<g>
</g>
<g>
</g>
<g>
</g>
<g>
</g>
</svg>
