<?xml version="1.0" encoding="iso-8859-1"?>
<!-- Generator: Adobe Illustrator 19.0.0, SVG Export Plug-In . SVG Version: 6.00 Build 0)  -->
<svg version="1.1" id="Capa_1" xmlns="http://www.w3.org/2000/svg" xmlns:xlink="http://www.w3.org/1999/xlink" x="0px" y="0px"
	 viewBox="0 0 512.002 512.002" style="enable-background:new 0 0 512.002 512.002;" xml:space="preserve">
<path style="fill:#FFC9BD;" d="M55.327,496.379l55.679-36.618c7.231-4.755,15.963-6.67,24.519-5.377l166.28,25.121
	c16.552,2.5,33.451-1.045,47.602-9.988l140.79-88.973c13.602-8.596,17.625-26.612,8.97-40.177l0,0
	c-8.247-12.927-25.122-17.217-38.541-9.798l-108.937,60.229c-8.446,4.67-18.226,6.334-27.741,4.723l-107.053-18.133
	c-11.62-1.968-19.767-12.547-18.703-24.284l0,0c1.182-13.036,13.171-22.334,26.091-20.235l93.299,15.161
	c12.504,2.032,24.478-5.867,27.528-18.162l0,0c3.343-13.468-5.234-27.002-18.839-29.729l-148.024-29.675
	c-5.559-1.115-11.173-1.718-16.774-1.821c-24.63-0.452-47.628,12.324-60.895,33.078l0,0c-15.104,23.626-35.354,43.532-59.236,58.228
	L8.262,380.303"/>
<g>
	<path style="fill:#FCAFA2;" d="M317.58,324.992l-93.299-15.161c-12.919-2.099-24.909,7.199-26.091,20.235l0,0
		c-0.444,4.898,0.734,9.583,3.082,13.536c4.582-7.687,13.543-12.272,23.009-10.733l93.299,15.161
		c12.504,2.032,24.478-5.867,27.528-18.162l0,0c1.521-6.128,0.568-12.266-2.197-17.398
		C338.106,321.428,328.039,326.691,317.58,324.992z"/>
	<path style="fill:#FCAFA2;" d="M55.327,496.379l55.679-36.618c7.231-4.755,15.963-6.67,24.519-5.377l166.28,25.121
		c16.552,2.5,33.451-1.045,47.602-9.989l140.79-88.973c12.27-7.754,16.74-23.171,11.147-36.073
		c-2.237,5.191-6.007,9.786-11.147,13.035l-140.79,88.973c-14.151,8.942-31.05,12.489-47.602,9.988l-166.28-25.121
		c-8.557-1.293-17.289,0.622-24.519,5.377l-63.172,41.875L55.327,496.379z"/>
</g>
<polygon style="fill:#ED4596;" points="431.759,190.316 431.759,73.853 330.9,15.622 230.04,73.853 230.04,190.316 330.9,248.547 
	"/>
<polygon style="fill:#F777CE;" points="431.759,190.316 431.759,73.853 330.9,132.084 330.9,248.547 "/>
<polygon style="fill:#E65091;" points="230.04,190.316 230.04,73.853 330.9,132.084 330.9,248.547 "/>
<path d="M8.27,388.565c-2.774,0-5.483-1.397-7.043-3.932c-2.391-3.885-1.179-8.973,2.706-11.364l33.076-20.355
	c22.683-13.959,42.257-33.2,56.605-55.643c2.458-3.844,7.564-4.966,11.409-2.51c3.843,2.457,4.967,7.566,2.51,11.409
	c-15.682,24.528-37.074,45.557-61.867,60.814l-33.076,20.354C11.241,388.169,9.747,388.565,8.27,388.565z"/>
<path d="M55.334,504.64c-2.686,0-5.322-1.31-6.909-3.723c-2.506-3.812-1.448-8.933,2.364-11.44l55.68-36.618
	c8.946-5.884,19.708-8.24,30.292-6.644l166.28,25.121c14.585,2.205,29.486-0.922,41.955-8.802l140.79-88.973
	c4.707-2.975,7.969-7.607,9.182-13.043s0.232-11.014-2.763-15.708c-5.888-9.229-18.004-12.307-27.581-7.012l-108.938,60.229
	c-10.044,5.552-21.802,7.556-33.117,5.638l-107.053-18.132c-15.771-2.671-26.994-17.244-25.55-33.174
	c0.769-8.487,5.072-16.351,11.807-21.574c6.735-5.223,15.415-7.437,23.837-6.069l93.3,15.162c8.191,1.335,16.185-3.939,18.186-12
	c1.068-4.303,0.348-8.736-2.025-12.481c-2.372-3.745-6.074-6.287-10.421-7.159l-148.024-29.675
	c-5.027-1.008-10.176-1.566-15.302-1.661c-10.577-0.195-21.171,2.426-30.595,7.577c-4.003,2.187-9.022,0.717-11.21-3.287
	c-2.187-4.004-0.716-9.023,3.287-11.21c11.938-6.525,25.353-9.85,38.821-9.598c6.112,0.112,12.25,0.779,18.246,1.98l148.024,29.675
	c8.812,1.767,16.316,6.921,21.128,14.513c4.812,7.593,6.27,16.579,4.106,25.305c-3.636,14.642-17.016,24.742-31.713,24.744
	c-1.707,0-3.429-0.137-5.159-0.417l-93.3-15.162c-3.964-0.645-7.889,0.356-11.06,2.816c-3.171,2.459-5.117,6.014-5.478,10.011
	c-0.67,7.393,4.538,14.155,11.857,15.394l107.053,18.132c7.639,1.293,15.582-0.058,22.364-3.808l108.937-60.229
	c17.191-9.505,38.937-3.979,49.504,12.584c5.376,8.426,7.136,18.439,4.959,28.194c-2.179,9.755-8.03,18.069-16.48,23.408
	l-140.79,88.973c-15.825,10.001-34.734,13.969-53.248,11.174l-166.28-25.121c-6.556-0.989-13.21,0.469-18.747,4.112l-55.68,36.617
	C58.467,504.201,56.891,504.64,55.334,504.64z"/>
<path d="M431.76,127.16c4.562,0,8.26-3.699,8.26-8.261V73.853c0-2.952-1.575-5.678-4.13-7.154L335.03,8.469
	c-2.555-1.476-5.705-1.476-8.261,0L225.91,66.7c-2.555,1.476-4.13,4.202-4.13,7.154v116.463c0,2.952,1.575,5.678,4.13,7.154
	l100.86,58.231c1.278,0.738,2.704,1.107,4.13,1.107s2.853-0.369,4.13-1.107l100.86-58.231c2.555-1.476,4.13-4.202,4.13-7.154
	v-38.374c0-4.562-3.698-8.261-8.26-8.261l0,0c-4.562,0-8.261,3.699-8.261,8.261v33.605l-84.339,48.693v-97.386L423.5,88.162v30.739
	C423.5,123.462,427.198,127.16,431.76,127.16L431.76,127.16z M330.9,25.16l84.339,48.693L330.9,122.546l-84.339-48.693L330.9,25.16z
	 M238.301,88.16l84.339,48.693v97.386l-84.339-48.693V88.16z"/>
<g>
</g>
<g>
</g>
<g>
</g>
<g>
</g>
<g>
</g>
<g>
</g>
<g>
</g>
<g>
</g>
<g>
</g>
<g>
</g>
<g>
</g>
<g>
</g>
<g>
</g>
<g>
</g>
<g>
</g>
</svg>
