<?xml version="1.0" encoding="iso-8859-1"?>
<!-- Generator: Adobe Illustrator 19.0.0, SVG Export Plug-In . SVG Version: 6.00 Build 0)  -->
<svg version="1.1" id="Capa_1" xmlns="http://www.w3.org/2000/svg" xmlns:xlink="http://www.w3.org/1999/xlink" x="0px" y="0px"
	 viewBox="0 0 512 512" style="enable-background:new 0 0 512 512;" xml:space="preserve">
<path style="fill:#4E4F75;" d="M405.681,252.084v205.599c0,25.812-67.013,46.731-149.677,46.731c-23.74,0-46.195-1.729-66.133-4.803
	c-49.502-7.613-83.544-23.527-83.544-41.929V253.722l83.544-0.455L405.681,252.084z"/>
<path style="fill:#32314C;" d="M189.87,253.267v246.345c-49.502-7.613-83.544-23.527-83.544-41.929V253.722L189.87,253.267z"/>
<path style="fill:#F9D366;" d="M391.049,64.598l4.792-0.972c6.325-1.282,6.325-10.322,0-11.604l-4.792-0.972
	c-12.073-2.448-21.508-11.883-23.956-23.956l-0.972-4.792c-1.282-6.325-10.322-6.325-11.604,0l-0.972,4.792
	c-2.448,12.073-11.883,21.508-23.956,23.956l-4.792,0.972c-6.325,1.282-6.325,10.322,0,11.604l4.792,0.972
	c12.073,2.448,21.508,11.883,23.956,23.956l0.972,4.792c1.282,6.325,10.321,6.325,11.604,0l0.972-4.792
	C369.541,76.481,378.976,67.045,391.049,64.598z"/>
<path style="fill:#32314C;" d="M405.681,252.084v31.343c-41.575,9.858-93.432,15.712-149.677,15.712s-108.103-5.854-149.677-15.712
	v-29.705l83.544-0.455L405.681,252.084z"/>
<ellipse style="fill:#4E4F75;" cx="256" cy="189.948" rx="247.71" ry="77.346"/>
<path style="fill:#32314C;" d="M256,210.671c-49.249,0-97.554-4.987-136.017-14.042c-0.093-0.022-0.185-0.043-0.278-0.066
	c-6.963-1.645-6.963-11.586,0-13.231c0.093-0.022,0.185-0.043,0.278-0.066c38.463-9.055,86.768-14.042,136.017-14.042
	s97.553,4.987,136.017,14.042c0.093,0.022,0.185,0.043,0.278,0.066c6.963,1.645,6.963,11.586,0,13.231
	c-0.093,0.022-0.185,0.043-0.278,0.066C353.554,205.684,305.249,210.671,256,210.671z"/>
<path style="fill:#F9D366;" d="M264.524,107.919l21.902-4.441c10.34-2.096,10.34-16.874,0-18.971l-21.902-4.441
	c-21.583-4.376-38.452-21.244-42.828-42.828l-4.44-21.902c-2.096-10.34-16.874-10.34-18.971,0l-4.441,21.902
	c-4.376,21.583-21.244,38.452-42.828,42.828l-21.902,4.441c-10.34,2.096-10.34,16.874,0,18.971l21.902,4.441
	c21.583,4.376,38.452,21.244,42.828,42.828l4.441,21.902c2.096,10.34,16.874,10.34,18.971,0l4.441-21.902
	C226.073,129.163,242.941,112.294,264.524,107.919z"/>
<path d="M323.291,71.057l4.792,0.972c9.107,1.846,16.184,8.924,18.03,18.032l0.973,4.79c1.29,6.371,6.732,10.82,13.233,10.82
	c0,0,0,0,0.001,0c6.5,0,11.942-4.449,13.234-10.82l0.972-4.792c1.846-9.107,8.924-16.185,18.031-18.03l0,0l4.792-0.972
	c6.371-1.292,10.819-6.734,10.819-13.234s-4.449-11.942-10.819-13.234l-4.792-0.972c-9.108-1.846-16.185-8.925-18.031-18.031
	l-0.972-4.793c-1.292-6.371-6.735-10.82-13.235-10.819c-6.501,0-11.943,4.45-13.233,10.818l-0.973,4.793
	c-1.846,9.107-8.924,16.185-18.03,18.031l-4.792,0.972c-6.371,1.291-10.819,6.734-10.819,13.234
	C312.47,64.324,316.92,69.766,323.291,71.057z M360.32,31.333c3.599,12.866,13.625,22.891,26.49,26.491
	c-12.866,3.599-22.891,13.625-26.49,26.491c-3.6-12.866-13.626-22.891-26.49-26.491C346.695,54.224,356.72,44.199,360.32,31.333z"/>
<path d="M80.685,37.763c4.188,0,7.583-3.395,7.583-7.583V10.465c0-4.188-3.395-7.583-7.583-7.583s-7.583,3.395-7.583,7.583V30.18
	C73.102,34.368,76.497,37.763,80.685,37.763z"/>
<path d="M80.685,90.841c4.188,0,7.583-3.395,7.583-7.583V63.543c0-4.188-3.395-7.583-7.583-7.583s-7.583,3.395-7.583,7.583v19.715
	C73.102,87.447,76.497,90.841,80.685,90.841z"/>
<path d="M97.366,54.445h19.715c4.188,0,7.583-3.395,7.583-7.583s-3.395-7.583-7.583-7.583H97.366c-4.188,0-7.583,3.395-7.583,7.583
	S93.178,54.445,97.366,54.445z"/>
<path d="M44.287,54.445h19.715c4.188,0,7.583-3.395,7.583-7.583s-3.395-7.583-7.583-7.583H44.287c-4.188,0-7.583,3.395-7.583,7.583
	S40.1,54.445,44.287,54.445z"/>
<path d="M462.846,362.815c-4.189,0-7.583,3.395-7.583,7.583v19.715c0,4.188,3.394,7.583,7.583,7.583
	c4.189,0,7.583-3.395,7.583-7.583v-19.715C470.429,366.21,467.034,362.815,462.846,362.815z"/>
<path d="M462.846,415.893c-4.189,0-7.583,3.395-7.583,7.583v19.715c0,4.188,3.394,7.583,7.583,7.583
	c4.189,0,7.583-3.395,7.583-7.583v-19.715C470.429,419.288,467.034,415.893,462.846,415.893z"/>
<path d="M499.242,399.211h-19.715c-4.189,0-7.583,3.395-7.583,7.583c0,4.188,3.394,7.583,7.583,7.583h19.715
	c4.189,0,7.583-3.395,7.583-7.583C506.825,402.606,503.43,399.211,499.242,399.211z"/>
<path d="M446.165,399.211H426.45c-4.189,0-7.583,3.395-7.583,7.583c0,4.188,3.394,7.583,7.583,7.583h19.715
	c4.189,0,7.583-3.395,7.583-7.583C453.748,402.606,450.353,399.211,446.165,399.211z"/>
<path d="M36.15,216.664c-9.25-6.103-20.278-15.692-20.278-26.716c0-23.118,47.894-47.155,119.177-59.811
	c4.124-0.732,6.872-4.668,6.14-8.792c-0.731-4.123-4.665-6.871-8.791-6.14c-38.168,6.777-70.33,16.656-93.008,28.569
	C13.722,157.255,0.708,172.79,0.708,189.948c0,14.268,9.116,27.516,27.092,39.376c1.286,0.848,2.735,1.254,4.169,1.254
	c2.463,0,4.879-1.198,6.336-3.408C40.611,223.674,39.647,218.97,36.15,216.664z"/>
<path d="M433.417,251.875c50.946-15.907,77.875-37.321,77.875-61.927c0-21.642-21.309-41.127-61.624-56.349
	c-36.783-13.889-87.839-23.485-143.762-27.021c-4.176-0.266-7.781,2.91-8.047,7.09c-0.264,4.18,2.91,7.782,7.09,8.046
	c54.459,3.444,103.952,12.703,139.364,26.073c32.928,12.434,51.815,27.801,51.815,42.161c0,16.568-25.132,34.307-67.229,47.451
	C382.824,251.784,321.42,259.707,256,259.707c-79.096,0-153.501-11.949-199.033-31.963c-3.834-1.685-8.308,0.057-9.993,3.891
	s0.057,8.308,3.891,9.993C98.222,262.445,174.909,274.873,256,274.873C322.911,274.873,385.92,266.706,433.417,251.875z"/>
<path d="M123.91,189.756c2.735-1.654,4.224-4.936,3.456-8.217c-0.954-4.078-5.034-6.61-9.112-5.656l-0.194,0.045
	c-0.001,0-0.098,0.023-0.099,0.023c-6.616,1.563-11.062,7.187-11.062,13.995c0,6.808,4.446,12.432,11.068,13.997l0.277,0.066
	c39.016,9.185,87.939,14.244,137.755,14.244s98.738-5.058,137.764-14.246l0.275-0.065c6.615-1.563,11.06-7.188,11.06-13.995
	c0-6.807-4.445-12.432-11.076-13.999l-0.278-0.066c-4.077-0.954-8.156,1.577-9.112,5.656c-0.768,3.281,0.721,6.563,3.456,8.217
	c-37.549,8.603-84.343,13.332-132.09,13.332C208.249,203.088,161.451,198.358,123.91,189.756z"/>
<path d="M405.677,264.722c-4.189,0-7.583,3.395-7.583,7.583v76.846c0,4.188,3.394,7.583,7.583,7.583
	c4.189,0,7.583-3.395,7.583-7.583v-76.846C413.26,268.117,409.865,264.722,405.677,264.722z"/>
<path d="M405.677,366.846c-4.189,0-7.583,3.395-7.583,7.583v83.255c0,16.348-54.057,39.15-142.094,39.15
	c-88.036,0-142.093-22.802-142.093-39.15V273.939c0-4.188-3.395-7.583-7.583-7.583s-7.583,3.395-7.583,7.583v183.745
	c0,16.312,17,30.242,49.162,40.284C176.884,507.017,215.274,512,256,512c40.727,0,79.115-4.983,108.099-14.033
	c32.162-10.042,49.162-23.972,49.162-40.284v-83.255C413.26,370.241,409.865,366.846,405.677,366.846z"/>
<path d="M113.778,93.993c0,8.31,5.687,15.266,13.831,16.917l21.902,4.441c18.639,3.778,33.124,18.264,36.903,36.903l4.441,21.902
	c1.651,8.144,8.607,13.831,16.917,13.831s15.266-5.687,16.917-13.831l4.441-21.902c3.778-18.639,18.264-33.123,36.903-36.903l0,0
	l21.902-4.441c8.144-1.651,13.831-8.607,13.831-16.917s-5.687-15.266-13.831-16.917l-21.902-4.441
	c-18.639-3.779-33.123-18.264-36.903-36.903l-4.441-21.902C223.037,5.687,216.081,0,207.771,0s-15.266,5.687-16.917,13.831
	l-4.441,21.902c-3.778,18.638-18.263,33.123-36.903,36.903l-21.902,4.441C119.466,78.727,113.778,85.683,113.778,93.993z
	 M130.623,91.94l21.902-4.441c24.623-4.993,43.761-24.129,48.752-48.752l4.441-21.903c0.084-0.416,0.34-1.678,2.053-1.678
	s1.97,1.264,2.053,1.678l4.441,21.902c4.993,24.623,24.129,43.76,48.752,48.752l21.902,4.441c0.415,0.084,1.678,0.341,1.678,2.053
	c0,1.713-1.264,1.97-1.678,2.053l-21.902,4.441c-24.623,4.993-43.76,24.129-48.752,48.752l-4.441,21.902
	c-0.084,0.416-0.34,1.678-2.053,1.678s-1.97-1.264-2.053-1.678l-4.441-21.902c-4.993-24.623-24.129-43.76-48.752-48.752
	l-21.902-4.441c-0.416-0.084-1.679-0.341-1.679-2.053C128.944,92.279,130.207,92.024,130.623,91.94z"/>
<g>
</g>
<g>
</g>
<g>
</g>
<g>
</g>
<g>
</g>
<g>
</g>
<g>
</g>
<g>
</g>
<g>
</g>
<g>
</g>
<g>
</g>
<g>
</g>
<g>
</g>
<g>
</g>
<g>
</g>
</svg>
