<?xml version="1.0" encoding="iso-8859-1"?>
<!-- Generator: Adobe Illustrator 19.0.0, SVG Export Plug-In . SVG Version: 6.00 Build 0)  -->
<svg version="1.1" id="Capa_1" xmlns="http://www.w3.org/2000/svg" xmlns:xlink="http://www.w3.org/1999/xlink" x="0px" y="0px"
	 viewBox="0 0 512 512" style="enable-background:new 0 0 512 512;" xml:space="preserve">
<g>
	<path style="fill:#F9D366;" d="M227.761,130.382l22.795-4.621c10.762-2.182,10.762-17.563,0-19.745l-22.795-4.621
		c-22.464-4.554-40.02-22.111-44.574-44.574l-4.621-22.795c-2.182-10.762-17.563-10.762-19.745,0l-4.621,22.795
		c-4.554,22.464-22.111,40.02-44.574,44.574l-22.795,4.621c-10.762,2.182-10.762,17.563,0,19.745l22.795,4.621
		c22.464,4.554,40.02,22.111,44.574,44.574l4.621,22.795c2.182,10.762,17.563,10.762,19.745,0l4.621-22.795
		C187.74,152.493,205.297,134.937,227.761,130.382z"/>
	<path style="fill:#F9D366;" d="M480.251,89.32l17.816-3.612c8.411-1.705,8.411-13.726,0-15.431l-17.816-3.612
		c-17.556-3.56-31.278-17.281-34.837-34.837l-3.612-17.816c-1.705-8.411-13.726-8.411-15.431,0l-3.613,17.815
		c-3.56,17.556-17.281,31.278-34.837,34.837l-17.816,3.612c-8.411,1.705-8.411,13.726,0,15.431l17.816,3.612
		c17.556,3.56,31.278,17.281,34.837,34.837l3.612,17.816c1.705,8.411,13.726,8.411,15.431,0l3.612-17.816
		C448.973,106.601,462.694,92.88,480.251,89.32z"/>
</g>
<path style="fill:#EF8C33;" d="M351.931,221.217l1.172,6.126c1.586,8.287-4.766,15.97-13.203,15.97h-11.207v14.066
	c0,8.047-7.022,14.291-15.013,13.351l-14.169-1.667L64.275,504.299H32.457L7.626,479.467v-31.818l235.234-235.234l-1.667-14.169
	c-0.941-7.992,5.304-15.013,13.351-15.013h14.066v-11.207c0-8.438,7.682-14.79,15.97-13.203l6.126,1.172"/>
<polygon style="fill:#81DBBA;" points="317.962,116.552 290.707,159.993 303.645,208.279 351.931,221.217 395.373,193.963 
	390.493,121.432 "/>
<polygon style="fill:#BDF2DF;" points="303.645,208.279 351.931,221.217 395.373,193.963 340.709,171.215 "/>
<polygon style="fill:#56AB8F;" points="317.962,116.552 340.709,171.215 390.493,121.432 "/>
<path d="M293.363,36.858c4.213,0,7.626-3.414,7.626-7.626V9.023c0-4.212-3.413-7.626-7.626-7.626c-4.213,0-7.626,3.414-7.626,7.626
	v20.209C285.737,33.444,289.15,36.858,293.363,36.858z"/>
<path d="M293.363,91.266c4.213,0,7.626-3.414,7.626-7.626V63.432c0-4.212-3.413-7.626-7.626-7.626c-4.213,0-7.626,3.414-7.626,7.626
	v20.209C285.737,87.852,289.15,91.266,293.363,91.266z"/>
<path d="M310.462,53.958h20.209c4.213,0,7.626-3.414,7.626-7.626s-3.413-7.626-7.626-7.626h-20.209
	c-4.213,0-7.626,3.414-7.626,7.626S306.25,53.958,310.462,53.958z"/>
<path d="M256.054,53.958h20.208c4.213,0,7.626-3.414,7.626-7.626s-3.413-7.626-7.626-7.626h-20.208
	c-4.213,0-7.626,3.414-7.626,7.626S251.842,53.958,256.054,53.958z"/>
<path d="M466.219,174.253c-4.213,0-7.626,3.414-7.626,7.626v20.209c0,4.212,3.413,7.626,7.626,7.626
	c4.213,0,7.626-3.414,7.626-7.626v-20.209C473.845,177.668,470.43,174.253,466.219,174.253z"/>
<path d="M466.219,228.661c-4.213,0-7.626,3.414-7.626,7.626v20.209c0,4.212,3.413,7.626,7.626,7.626
	c4.213,0,7.626-3.414,7.626-7.626v-20.209C473.845,232.076,470.43,228.661,466.219,228.661z"/>
<path d="M503.527,211.561h-20.209c-4.213,0-7.626,3.414-7.626,7.626s3.413,7.626,7.626,7.626h20.209
	c4.213,0,7.626-3.414,7.626-7.626S507.74,211.561,503.527,211.561z"/>
<path d="M449.118,211.561h-20.208c-4.213,0-7.626,3.414-7.626,7.626s3.413,7.626,7.626,7.626h20.208
	c4.213,0,7.626-3.414,7.626-7.626S453.33,211.561,449.118,211.561z"/>
<path d="M85.312,133.235l22.795,4.621c19.505,3.954,34.661,19.111,38.617,38.616l4.621,22.795
	c1.693,8.35,8.826,14.182,17.346,14.183c0,0,0,0,0.001,0c8.52,0,15.653-5.831,17.347-14.183l4.621-22.795
	c3.955-19.505,19.112-34.661,38.617-38.616l22.795-4.621c8.35-1.693,14.182-8.826,14.182-17.346
	c0.001-8.52-5.83-15.654-14.182-17.347l-22.795-4.621c-19.505-3.954-34.661-19.111-38.617-38.616l-4.621-22.796
	c-1.694-8.35-8.828-14.182-17.348-14.182s-15.653,5.832-17.346,14.182l-4.621,22.795c-3.955,19.505-19.112,34.661-38.617,38.616
	l-22.795,4.621c-8.351,1.693-14.183,8.827-14.182,17.347C71.131,124.409,76.962,131.542,85.312,133.235z M88.343,113.491
	l22.795-4.621c25.523-5.175,45.358-25.01,50.534-50.534l4.621-22.795c0.263-1.301,1.071-1.96,2.397-1.96
	c1.329,0,2.136,0.659,2.399,1.96l4.621,22.795c5.176,25.524,25.012,45.359,50.534,50.534l22.795,4.621
	c1.301,0.263,1.961,1.071,1.96,2.398c0,1.327-0.659,2.134-1.96,2.398l-22.795,4.621c-25.523,5.175-45.358,25.01-50.534,50.534
	l-4.621,22.795c-0.264,1.302-1.071,1.961-2.399,1.961c-1.327,0-2.134-0.66-2.397-1.96l-4.621-22.795
	c-5.176-25.524-25.012-45.359-50.534-50.534l-22.795-4.621c-1.301-0.263-1.96-1.071-1.96-2.398
	C86.382,114.561,87.043,113.754,88.343,113.491z"/>
<path d="M434.086,155.908c7.461,0,13.706-5.107,15.189-12.419l3.613-17.816c2.957-14.586,14.293-25.922,28.878-28.879l17.816-3.612
	C506.894,91.699,512,85.453,512,77.993c0-7.461-5.105-13.707-12.418-15.19l-17.816-3.612c-14.585-2.957-25.921-14.292-28.878-28.879
	l-3.613-17.816c-1.483-7.312-7.728-12.419-15.189-12.419c0,0,0,0-0.001,0c-7.46,0-13.706,5.106-15.189,12.419l-3.612,17.816
	c-2.957,14.586-14.293,25.922-28.879,28.879l-17.816,3.612c-7.312,1.483-12.419,7.729-12.419,15.19
	c0,7.46,5.106,13.707,12.419,15.189l17.816,3.612c14.586,2.957,25.922,14.292,28.879,28.879l3.612,17.816
	C420.379,150.801,426.626,155.909,434.086,155.908z M389.435,81.845l-17.816-3.612c-0.09-0.018-0.148-0.037-0.17-0.039
	c-0.044-0.121-0.044-0.345-0.051-0.377c0,0,0.062-0.036,0.221-0.067l17.816-3.612c20.605-4.177,36.619-20.191,40.797-40.797
	l3.612-17.816c0.018-0.089,0.037-0.148,0.039-0.17c0.12-0.043,0.344-0.044,0.376-0.051c0.001,0,0.036,0.062,0.067,0.221
	l3.613,17.816c4.178,20.606,20.191,36.619,40.796,40.797l17.816,3.612c0.088,0.018,0.147,0.037,0.169,0.039
	c0.044,0.121,0.045,0.345,0.052,0.378c-0.001,0-0.063,0.036-0.221,0.067l-17.816,3.612c-20.605,4.177-36.618,20.191-40.796,40.797
	l-3.613,17.816c-0.018,0.088-0.037,0.147-0.039,0.17c-0.12,0.043-0.344,0.044-0.376,0.05c-0.001,0-0.036-0.062-0.067-0.22
	l-3.612-17.816C426.054,102.036,410.04,86.024,389.435,81.845z"/>
<path d="M391.004,113.823l-72.531-4.88c-2.813-0.198-5.481,1.178-6.972,3.556l-24.483,39.024l-1.004-0.192
	c-6.194-1.186-12.527,0.439-17.386,4.456c-4.857,4.016-7.644,9.935-7.644,16.238v3.58h-6.44c-6.011,0-11.75,2.577-15.744,7.069
	c-3.994,4.491-5.882,10.493-5.18,16.462l1.234,10.499l-81.536,81.536c-2.978,2.978-2.978,7.807,0,10.784
	c1.49,1.489,3.442,2.234,5.393,2.234c1.951,0,3.904-0.744,5.393-2.234l73.08-73.081l0.579,4.743c0.472,3.867,3.76,6.704,7.56,6.704
	c0.308,0,0.619-0.019,0.933-0.057c4.18-0.509,7.156-4.312,6.647-8.494l-2.471-20.253l-1.666-14.163
	c-0.265-2.257,0.783-3.816,1.431-4.545c0.648-0.729,2.074-1.951,4.346-1.951h6.44v19.971c0,4.212,3.413,7.626,7.626,7.626
	c4.213,0,7.626-3.414,7.626-7.626v-27.598v-11.206c0-2.382,1.323-3.831,2.11-4.483c0.788-0.652,2.461-1.676,4.8-1.23l1.431,0.274
	l11.702,43.668c0.705,2.632,2.761,4.687,5.392,5.392l43.669,11.701l0.274,1.431c0.447,2.34-0.579,4.011-1.23,4.799
	s-2.101,2.111-4.483,2.111h-11.206c-4.213,0-7.626,3.414-7.626,7.626v14.066c0,2.272-1.222,3.698-1.951,4.346
	c-0.73,0.648-2.288,1.696-4.546,1.431l-14.169-1.667c-0.048-0.005-0.096-0.004-0.142-0.008c-0.063-0.006-0.124-0.018-0.188-0.023
	l-19.015-1.399c-4.201-0.306-7.857,2.846-8.165,7.046c-0.31,4.201,2.845,7.857,7.046,8.166l2.406,0.177L61.116,496.672H50.869
	l19.199-19.199c2.978-2.978,2.978-7.807,0-10.784s-7.806-2.979-10.785,0l-26.825,26.825l-14.045-14.045l192.535-192.536
	c2.978-2.978,2.978-7.807,0-10.784c-2.979-2.978-7.807-2.978-10.785,0L15.252,461.056v-10.248l130.212-130.211
	c2.978-2.978,2.978-7.807,0-10.784c-2.979-2.978-7.807-2.978-10.785,0L2.233,442.257c-1.43,1.43-2.233,3.37-2.233,5.392v31.813
	c0,0.251,0.012,0.502,0.037,0.752c0.004,0.045,0.014,0.088,0.019,0.133c0.023,0.202,0.051,0.406,0.09,0.606
	c0.008,0.041,0.02,0.079,0.029,0.119c0.044,0.203,0.092,0.406,0.153,0.606c0.008,0.026,0.019,0.052,0.027,0.078
	c0.066,0.211,0.138,0.419,0.224,0.624c0.006,0.015,0.015,0.03,0.021,0.046c0.089,0.213,0.186,0.422,0.296,0.626
	c0.01,0.019,0.023,0.038,0.034,0.057c0.108,0.197,0.222,0.391,0.348,0.582c0.032,0.047,0.068,0.09,0.101,0.137
	c0.11,0.158,0.221,0.314,0.344,0.465c0.16,0.196,0.33,0.384,0.51,0.565l24.831,24.831c0.18,0.18,0.369,0.351,0.564,0.51
	c0.16,0.131,0.326,0.249,0.494,0.366c0.037,0.025,0.07,0.054,0.107,0.078c0.196,0.131,0.399,0.25,0.603,0.361
	c0.012,0.006,0.023,0.014,0.036,0.02c0.207,0.111,0.419,0.209,0.633,0.3c0.013,0.006,0.026,0.013,0.04,0.018
	c0.203,0.084,0.411,0.156,0.619,0.222c0.028,0.009,0.056,0.021,0.085,0.029c0.193,0.058,0.387,0.104,0.584,0.146
	c0.048,0.01,0.095,0.025,0.142,0.035c0.186,0.037,0.373,0.061,0.56,0.083c0.06,0.007,0.119,0.02,0.18,0.026
	c0.248,0.024,0.496,0.037,0.745,0.037h31.818c2.022,0,3.962-0.803,5.393-2.234L302.29,277.068l10.498,1.235
	c5.977,0.701,11.97-1.187,16.462-5.181c4.492-3.995,7.069-9.733,7.069-15.744v-6.44h3.58c6.303,0,12.222-2.786,16.239-7.644
	c4.016-4.858,5.64-11.194,4.456-17.386l-0.192-1.005l39.024-24.483c2.378-1.492,3.745-4.171,3.556-6.971l-4.881-72.531
	C397.846,117.112,394.812,114.08,391.004,113.823z M386.937,182.192l-32.778-13.642l19.124-19.124c2.978-2.978,2.978-7.807,0-10.784
	c-2.979-2.978-7.807-2.978-10.785,0l-19.123,19.123l-13.641-32.778l53.599,3.606L386.937,182.192z M316.585,133.094l17.085,41.05
	c0.774,1.859,2.251,3.337,4.11,4.11l41.051,17.084l-28.135,17.652l-32.317-8.659l5.822-5.822c2.978-2.978,2.978-7.807,0-10.784
	c-2.979-2.978-7.807-2.978-10.785,0l-5.821,5.821l-8.659-32.316L316.585,133.094z"/>
<path d="M191.573,334.396L81.669,444.301c-2.978,2.978-2.978,7.807,0,10.784c1.49,1.489,3.442,2.234,5.393,2.234
	s3.904-0.744,5.393-2.234L202.36,345.181c2.978-2.978,2.978-7.807,0-10.784C199.38,331.418,194.552,331.418,191.573,334.396z"/>
<g>
</g>
<g>
</g>
<g>
</g>
<g>
</g>
<g>
</g>
<g>
</g>
<g>
</g>
<g>
</g>
<g>
</g>
<g>
</g>
<g>
</g>
<g>
</g>
<g>
</g>
<g>
</g>
<g>
</g>
</svg>
