<?xml version="1.0" encoding="iso-8859-1"?>
<!-- Generator: Adobe Illustrator 19.0.0, SVG Export Plug-In . SVG Version: 6.00 Build 0)  -->
<svg version="1.1" id="Capa_1" xmlns="http://www.w3.org/2000/svg" xmlns:xlink="http://www.w3.org/1999/xlink" x="0px" y="0px"
	 viewBox="0 0 512 512" style="enable-background:new 0 0 512 512;" xml:space="preserve">
<path style="fill:#EDE6F5;" d="M456.509,502.583H156.724c-26.48,0-47.948-21.468-47.948-47.938V97.623l-34.31-63.135L60.839,9.417
	h299.785c18.197,0,34.028,10.135,42.151,25.071c3.694,6.804,5.797,14.594,5.797,22.877v349.333L456.509,502.583z"/>
<g>
	<path style="fill:#CEC1E8;" d="M402.774,34.488H74.466L60.839,9.417h299.785C378.82,9.417,394.652,19.552,402.774,34.488z"/>
	<circle style="fill:#CEC1E8;" cx="60.841" cy="57.36" r="47.942"/>
</g>
<path style="fill:#EDE6F5;" d="M504.447,454.645c0,3.14-0.302,6.21-0.886,9.189c-4.277,22.072-23.712,38.749-47.052,38.749H156.724
	v-95.886h299.785C482.989,406.697,504.447,428.165,504.447,454.645z"/>
<g>
	<path style="fill:#CEC1E8;" d="M503.561,463.834c-4.277,22.072-23.712,38.749-47.052,38.749H156.724v-38.749H503.561z"/>
	<circle style="fill:#CEC1E8;" cx="156.716" cy="454.639" r="47.942"/>
</g>
<path style="fill:#F9D366;" d="M482.299,322.498l15.895-3.223c7.504-1.522,7.504-12.246,0-13.767l-15.895-3.223
	c-15.664-3.175-27.905-15.417-31.081-31.081l-3.223-15.895c-1.522-7.504-12.246-7.504-13.767,0l-3.223,15.895
	c-3.175,15.664-15.417,27.905-31.081,31.081l-15.895,3.223c-7.504,1.522-7.504,12.246,0,13.767l15.895,3.223
	c15.664,3.175,27.905,15.417,31.081,31.081l3.223,15.895c1.522,7.504,12.246,7.504,13.767,0l3.223-15.895
	C454.394,337.915,466.637,325.673,482.299,322.498z"/>
<path d="M44.477,287.969c-4.169,0-7.548,3.38-7.548,7.548v20.003c0,4.169,3.38,7.548,7.548,7.548s7.548-3.38,7.548-7.548v-20.003
	C52.025,291.349,48.645,287.969,44.477,287.969z"/>
<path d="M44.477,341.823c-4.169,0-7.548,3.38-7.548,7.548v20.003c0,4.169,3.38,7.548,7.548,7.548s7.548-3.38,7.548-7.548v-20.003
	C52.025,345.203,48.645,341.823,44.477,341.823z"/>
<path d="M81.406,324.898H61.402c-4.169,0-7.548,3.38-7.548,7.548s3.38,7.548,7.548,7.548h20.003c4.169,0,7.548-3.38,7.548-7.548
	S85.574,324.898,81.406,324.898z"/>
<path d="M27.552,324.898H7.548c-4.169,0-7.548,3.38-7.548,7.548s3.38,7.548,7.548,7.548h20.003c4.169,0,7.548-3.38,7.548-7.548
	S31.721,324.898,27.552,324.898z"/>
<path d="M101.229,166.07c0,4.169,3.38,7.548,7.548,7.548s7.548-3.38,7.548-7.548V57.36c0-15.91-6.74-30.267-17.503-40.394h261.801
	c14.823,0,28.433,8.096,35.517,21.125c3.195,5.885,4.883,12.55,4.883,19.275v210.861c0,4.169,3.379,7.548,7.548,7.548
	s7.548-3.38,7.548-7.548V57.365c0-9.233-2.322-18.389-6.715-26.483c-9.73-17.897-28.422-29.014-48.782-29.014H60.839
	c-0.012,0-0.024,0.002-0.036,0.002C30.22,1.889,5.344,26.773,5.344,57.36c0,30.597,24.893,55.491,55.491,55.491
	c7.956,0,15.64-1.651,22.84-4.905c3.798-1.718,5.486-6.189,3.768-9.988s-6.188-5.485-9.988-3.768
	c-5.232,2.365-10.823,3.565-16.621,3.565c-22.273,0-40.394-18.12-40.394-40.394c0-22.273,18.12-40.393,40.394-40.393
	c22.273,0,40.393,18.12,40.393,40.393v108.71H101.229z"/>
<path d="M179.08,477.516c0-4.169-3.38-7.548-7.548-7.548c-8.45,0-15.326-6.875-15.326-15.326c0-8.45,6.875-15.325,15.326-15.325
	c4.169,0,7.548-3.38,7.548-7.548s-3.38-7.548-7.548-7.548c-16.775,0-30.423,13.648-30.423,30.422s13.648,30.423,30.423,30.423
	C175.7,485.065,179.08,481.685,179.08,477.516z"/>
<path d="M70.889,42.034c4.169,0,7.548-3.38,7.548-7.548s-3.38-7.548-7.548-7.548c-16.775,0-30.423,13.648-30.423,30.422
	s13.648,30.423,30.423,30.423c4.169,0,7.548-3.38,7.548-7.548s-3.38-7.548-7.548-7.548c-8.45,0-15.326-6.875-15.326-15.326
	C55.564,48.91,62.439,42.034,70.889,42.034z"/>
<path d="M456.509,399.151h-40.389v-38.834c0-4.169-3.379-7.548-7.548-7.548s-7.548,3.38-7.548,7.548v38.834H156.72
	c-15.91,0-30.266,6.74-40.394,17.502V196.266c0-4.169-3.38-7.548-7.548-7.548s-7.548,3.38-7.548,7.548v258.377l0,0
	c0,30.597,24.894,55.49,55.491,55.49h299.789c30.597,0,55.491-24.893,55.491-55.491S487.106,399.151,456.509,399.151z
	 M116.326,454.641c0-22.273,18.12-40.393,40.394-40.393c22.273,0,40.393,18.12,40.393,40.393c0,22.273-18.12,40.394-40.393,40.394
	C134.446,495.036,116.326,476.915,116.326,454.641z M456.509,495.036H194.708c10.763-10.128,17.502-24.484,17.502-40.394
	c0-15.909-6.74-30.266-17.502-40.393h261.801c22.274,0,40.394,18.12,40.394,40.393C496.903,476.915,478.783,495.036,456.509,495.036
	z"/>
<path d="M355.709,81.897H169.014c-4.169,0-7.548,3.38-7.548,7.548c0,4.169,3.38,7.548,7.548,7.548h186.695
	c4.17,0,7.548-3.38,7.548-7.548C363.257,85.277,359.877,81.897,355.709,81.897z"/>
<path d="M355.709,130.205H240.135c-4.169,0-7.548,3.38-7.548,7.548s3.38,7.548,7.548,7.548h115.574c4.17,0,7.548-3.38,7.548-7.548
	S359.877,130.205,355.709,130.205z"/>
<path d="M169.014,145.302h45.957c4.169,0,7.548-3.38,7.548-7.548s-3.38-7.548-7.548-7.548h-45.957c-4.169,0-7.548,3.38-7.548,7.548
	S164.845,145.302,169.014,145.302z"/>
<path d="M355.709,179.375H169.014c-4.169,0-7.548,3.38-7.548,7.548s3.38,7.548,7.548,7.548h186.695c4.17,0,7.548-3.38,7.548-7.548
	S359.877,179.375,355.709,179.375z"/>
<path d="M363.257,236.092c0-4.169-3.379-7.548-7.548-7.548h-35.057c-4.17,0-7.548,3.38-7.548,7.548c0,4.169,3.379,7.548,7.548,7.548
	h35.057C359.877,243.641,363.257,240.261,363.257,236.092z"/>
<path d="M303.036,236.092c0-4.169-3.379-7.548-7.548-7.548H169.014c-4.169,0-7.548,3.38-7.548,7.548c0,4.169,3.38,7.548,7.548,7.548
	h126.474C299.657,243.641,303.036,240.261,303.036,236.092z"/>
<path d="M270.325,375.916c29.691,0,53.846-24.155,53.846-53.846s-24.155-53.846-53.846-53.846S216.48,292.38,216.48,322.07
	S240.635,375.916,270.325,375.916z M231.667,324.587h18.704l9.643,34.828C244.418,355.103,232.743,341.269,231.667,324.587z
	 M246.192,309.49h-12.507c1.833-5.324,4.794-10.124,8.598-14.119L246.192,309.49z M266.037,324.587h8.577l-4.289,15.489
	L266.037,324.587z M280.637,359.415l9.643-34.828h18.704C307.908,341.269,296.233,355.103,280.637,359.415z M298.37,295.373
	c3.804,3.995,6.764,8.793,8.597,14.118H294.46L298.37,295.373z M285.215,286.301l-6.421,23.19h-16.938l-6.42-23.19
	c4.586-1.916,9.616-2.979,14.89-2.979C275.599,283.321,280.629,284.384,285.215,286.301z"/>
<path d="M398.426,294.888l-15.895,3.223c-6.875,1.394-11.677,7.266-11.677,14.281c0,7.015,4.802,12.888,11.677,14.282l15.895,3.223
	c12.72,2.579,22.603,12.463,25.183,25.183l3.223,15.894c1.394,6.875,7.267,11.677,14.281,11.677c7.016,0,12.889-4.802,14.282-11.677
	l3.223-15.894c2.58-12.72,12.463-22.604,25.183-25.183l15.895-3.223c6.875-1.394,11.677-7.268,11.677-14.282
	c0-7.015-4.802-12.888-11.677-14.281l-15.895-3.223c-12.72-2.579-22.603-12.463-25.183-25.183l-3.223-15.894
	c-1.394-6.875-7.267-11.677-14.282-11.677c-7.015,0-12.888,4.802-14.281,11.677l-3.223,15.894
	C421.029,282.424,411.146,292.309,398.426,294.888z M438.405,272.704l2.708-13.354l2.707,13.354
	c3.787,18.677,18.303,33.192,36.978,36.979l13.354,2.709l-13.354,2.706c-18.677,3.787-33.192,18.303-36.978,36.979l-2.708,13.354
	l-2.707-13.354c-3.787-18.677-18.302-33.192-36.978-36.979l-13.354-2.708l13.354-2.707
	C420.102,305.896,434.617,291.381,438.405,272.704z"/>
<g>
</g>
<g>
</g>
<g>
</g>
<g>
</g>
<g>
</g>
<g>
</g>
<g>
</g>
<g>
</g>
<g>
</g>
<g>
</g>
<g>
</g>
<g>
</g>
<g>
</g>
<g>
</g>
<g>
</g>
</svg>
