<?xml version="1.0" encoding="iso-8859-1"?>
<!-- Generator: Adobe Illustrator 19.0.0, SVG Export Plug-In . SVG Version: 6.00 Build 0)  -->
<svg version="1.1" id="Capa_1" xmlns="http://www.w3.org/2000/svg" xmlns:xlink="http://www.w3.org/1999/xlink" x="0px" y="0px"
	 viewBox="0 0 512.002 512.002" style="enable-background:new 0 0 512.002 512.002;" xml:space="preserve">
<path style="fill:#EF8C33;" d="M368.294,86.239c17.984,17.984,17.984,47.145,0,65.129l-43.014,43.014
	c-16.065,16.065-10.988,43.258,9.804,52.44l124.431,54.961c5.021,2.22,9.405,5.274,13.068,8.936
	c12.214,12.214,16.339,31.13,8.943,47.881c-9.615,21.758-35.044,31.612-56.817,21.997l-74.098-32.727
	c-13.789-6.086-27.858,7.984-21.773,21.773l32.725,74.1c5.834,13.187,4.511,27.718-2.275,39.266c-1.828,3.116-4.062,6.023-6.66,8.62
	c-3.663,3.663-8.047,6.716-13.061,8.929c-21.766,9.609-47.201-0.238-56.817-22.01l-54.954-124.439
	c-9.188-20.785-36.374-25.869-52.447-9.798l-43.013,43.014c-8.992,8.992-20.785,13.488-32.564,13.488s-23.572-4.496-32.564-13.488
	c-17.984-17.984-17.984-47.145,0-65.129l89.143-89.143c-28.475,8.166-60.416,1.043-82.847-21.388
	c-33.377-33.377-32.886-87.792,1.456-120.552c33.216-31.689,86.412-30.667,118.451,2.199c21.821,22.396,28.685,53.924,20.61,82.069
	l89.143-89.143c8.992-8.992,20.778-13.481,32.564-13.488C347.516,72.744,359.303,77.247,368.294,86.239z"/>
<g>
	<path style="fill:#D87625;" d="M139.67,379.992l-7.332,7.332c-8.992,8.992-20.785,13.488-32.564,13.488
		s-23.572-4.496-32.564-13.488c-17.984-17.984-17.984-47.145,0-65.129l4.062-4.062c0,0-6.681,27.858,14.798,49.337
		C107.548,388.948,133.598,386.065,139.67,379.992z"/>
	<path style="fill:#D87625;" d="M238.268,331.061c25.211,25.211,58.974,191.879,120.993,151.961
		c0.007-0.007,0.014-0.014,0.028-0.014c-1.828,3.116-4.062,6.023-6.66,8.62c-3.663,3.663-8.047,6.716-13.061,8.929
		c-21.766,9.609-47.201-0.238-56.817-22.01l-54.954-124.439c-9.188-20.785-36.374-25.869-52.447-9.798
		C198.966,320.697,213.056,305.85,238.268,331.061z"/>
	<path style="fill:#D87625;" d="M98.674,190.53c37.817,37.817,71.425,30.345,71.425,30.345l-13.747,12.179
		c-28.475,8.166-60.416,1.043-82.847-21.388c-33.377-33.377-32.886-87.792,1.456-120.552
		C74.961,91.113,60.856,152.712,98.674,190.53z"/>
</g>
<circle style="fill:#ED4596;" cx="50.588" cy="274.381" r="23.766"/>
<path style="fill:#E65091;" d="M61.092,287.648c-13.127,0-23.768-10.642-23.768-23.768c0-3.853,0.938-7.48,2.565-10.698
	c-7.746,3.917-13.07,11.93-13.07,21.204c0,13.127,10.642,23.768,23.768,23.768c9.274,0,17.286-5.323,21.204-13.07
	C68.572,286.71,64.944,287.648,61.092,287.648z"/>
<circle style="fill:#4E4F75;" cx="236.61" cy="239.511" r="23.766"/>
<path style="fill:#32314C;" d="M247.111,252.778c-13.127,0-23.768-10.642-23.768-23.768c0-3.853,0.938-7.48,2.565-10.698
	c-7.746,3.917-13.07,11.93-13.07,21.204c0,13.127,10.642,23.768,23.768,23.768c9.274,0,17.286-5.323,21.204-13.07
	C254.591,251.841,250.965,252.778,247.111,252.778z"/>
<circle style="fill:#F9D366;" cx="269.352" cy="31.515" r="23.766"/>
<path style="fill:#DD8833;" d="M279.858,44.779c-13.127,0-23.768-10.642-23.768-23.768c0-3.853,0.938-7.48,2.565-10.698
	c-7.747,3.917-13.07,11.93-13.07,21.204c0,13.127,10.642,23.768,23.768,23.768c9.274,0,17.286-5.323,21.204-13.07
	C287.339,43.841,283.712,44.779,279.858,44.779z"/>
<path d="M462.653,294.696l-49.708-21.954c-3.914-1.727-8.487,0.043-10.216,3.957c-1.728,3.914,0.043,8.487,3.957,10.216
	l49.708,21.954c17.822,7.871,25.919,28.775,18.047,46.597c-3.812,8.633-10.759,15.265-19.56,18.674
	c-8.801,3.407-18.403,3.184-27.035-0.627l-74.102-32.727c-9.234-4.078-19.811-2.101-26.947,5.036
	c-7.137,7.137-9.114,17.716-5.036,26.95l32.727,74.101c7.871,17.822-0.225,38.725-18.046,46.597
	c-8.634,3.813-18.236,4.035-27.036,0.627c-8.801-3.408-15.748-10.04-19.56-18.673l-54.959-124.439
	c-5.344-12.101-16.299-20.777-29.302-23.207c-13.005-2.431-26.352,1.703-35.706,11.058l-43.015,43.015
	c-14.935,14.935-39.235,14.935-54.171,0c-14.934-14.935-14.934-39.235,0-54.171l30.132-30.132l68.342,19.761
	c0.719,0.208,1.443,0.307,2.155,0.307c3.362,0,6.457-2.205,7.439-5.597c1.188-4.11-1.181-8.404-5.29-9.593l-60.135-17.387
	l46.503-46.503c2.496-2.496,2.989-6.367,1.197-9.408s-5.412-4.49-8.809-3.515c-26.761,7.668-55.591,0.228-75.242-19.422
	c-7.41-7.411-13.118-16.058-16.965-25.702c-1.585-3.973-6.092-5.908-10.065-4.326c-3.973,1.585-5.91,6.092-4.326,10.065
	c4.63,11.608,11.494,22.01,20.4,30.917c17.794,17.794,41.874,27.266,66.37,26.92l-36.059,36.059l-16.24-4.695
	c0.196-5.621-1.125-11.211-3.911-16.265c-4.065-7.372-10.757-12.719-18.844-15.057l0,0c-16.695-4.828-34.201,4.828-39.029,21.522
	c-2.337,8.086-1.387,16.599,2.678,23.971s10.757,12.719,18.844,15.057c2.902,0.84,5.859,1.254,8.799,1.254
	c5.251,0,10.446-1.326,15.173-3.932c5.053-2.787,9.154-6.809,11.987-11.667l8.032,2.323l-24.091,24.091
	c-20.975,20.975-20.975,55.105,0,76.081c10.16,10.161,23.67,15.756,38.04,15.756s27.88-5.595,38.04-15.756l43.015-43.015
	c5.825-5.824,13.809-8.296,21.905-6.783c8.097,1.513,14.648,6.702,17.976,14.237l54.959,124.439
	c5.486,12.419,15.477,21.959,28.137,26.862c5.958,2.307,12.17,3.458,18.373,3.458c6.978,0,13.944-1.456,20.518-4.36
	c12.419-5.484,21.959-15.477,26.862-28.137c4.903-12.66,4.583-26.471-0.902-38.891l-32.727-74.101
	c-2.25-5.095,0.823-8.739,1.819-9.735c0.996-0.995,4.642-4.069,9.734-1.819l74.102,32.727c12.419,5.485,26.231,5.806,38.891,0.902
	c12.66-4.903,22.653-14.443,28.137-26.862C499.935,336.088,488.289,306.02,462.653,294.696z M58.324,288.408
	c-3.747,2.066-8.075,2.549-12.187,1.36c-8.487-2.453-13.395-11.354-10.941-19.84c2.025-7.007,8.445-11.574,15.398-11.574
	c1.469,0,2.963,0.205,4.443,0.632l0,0c4.111,1.189,7.513,3.907,9.58,7.655c2.066,3.747,2.55,8.075,1.36,12.187
	C64.789,282.939,62.071,286.341,58.324,288.408z"/>
<path d="M49.382,164.477c4.272-0.234,7.545-3.888,7.311-8.16c-1.229-22.39,7.378-44.115,23.613-59.604
	c30.175-28.783,78.424-27.882,107.558,2.01c19.104,19.602,26.275,48.157,18.717,74.526c-0.973,3.395,0.473,7.017,3.515,8.809
	c3.042,1.791,6.911,1.299,9.408-1.197l42.105-42.104v20.512c0,4.278,3.468,7.746,7.747,7.746s7.746-3.468,7.746-7.746v-36.005
	l31.548-31.548c14.935-14.934,39.235-14.934,54.171,0c14.934,14.935,14.934,39.237,0,54.172l-43.015,43.014
	c-9.355,9.355-13.488,22.701-11.058,35.706c2.43,13.004,11.105,23.957,23.207,29.302l50.68,22.382
	c1.017,0.449,2.08,0.662,3.125,0.662c2.974,0,5.811-1.723,7.091-4.619c1.728-3.914-0.043-8.487-3.957-10.216l-50.68-22.382
	c-7.534-3.328-12.723-9.879-14.236-17.976s0.96-16.081,6.783-21.905l43.015-43.014c20.975-20.975,20.975-55.106,0-76.082
	c-20.975-20.976-55.105-20.974-76.081,0L277.1,101.355V62.064c13.644-3.461,23.768-15.843,23.768-30.548
	C300.869,14.138,286.732,0,269.354,0c-17.377,0-31.515,14.138-31.515,31.515c0,14.705,10.124,27.087,23.768,30.548v54.784
	l-36.588,36.588c0.324-24.128-8.836-47.852-26.061-65.526c-35.032-35.944-93.056-37.024-129.346-2.407
	c-19.52,18.622-29.867,44.742-28.389,71.664C41.457,161.439,45.131,164.712,49.382,164.477z M253.332,31.515
	c0-8.834,7.187-16.022,16.022-16.022s16.022,7.188,16.022,16.022s-7.188,16.022-16.022,16.022S253.332,40.349,253.332,31.515z"/>
<path d="M265.696,227.391c-6.686-16.039-25.175-23.648-41.213-16.965c-16.039,6.686-23.65,25.174-16.965,41.213
	c5.039,12.091,16.783,19.391,29.132,19.391c1.515,0,3.039-0.111,4.561-0.335l37.395,89.722c1.24,2.975,4.12,4.769,7.154,4.769
	c0.994,0,2.003-0.192,2.977-0.598c3.949-1.646,5.816-6.182,4.171-10.13l-37.396-89.724
	C266.772,256.288,271.352,240.964,265.696,227.391z M221.818,245.679c-3.399-8.154,0.471-17.554,8.624-20.953
	c2.008-0.838,4.091-1.233,6.142-1.233c6.278,0,12.249,3.712,14.81,9.858l0,0c3.399,8.154-0.471,17.555-8.624,20.953
	C234.617,257.702,225.216,253.833,221.818,245.679z"/>
<g>
</g>
<g>
</g>
<g>
</g>
<g>
</g>
<g>
</g>
<g>
</g>
<g>
</g>
<g>
</g>
<g>
</g>
<g>
</g>
<g>
</g>
<g>
</g>
<g>
</g>
<g>
</g>
<g>
</g>
</svg>
