<?xml version="1.0" encoding="iso-8859-1"?>
<!-- Generator: Adobe Illustrator 19.0.0, SVG Export Plug-In . SVG Version: 6.00 Build 0)  -->
<svg version="1.1" id="Capa_1" xmlns="http://www.w3.org/2000/svg" xmlns:xlink="http://www.w3.org/1999/xlink" x="0px" y="0px"
	 viewBox="0 0 511.999 511.999" style="enable-background:new 0 0 511.999 511.999;" xml:space="preserve">
<path style="fill:#EDE6F5;" d="M504.411,479.865H7.586l248.392-263.58c0.01-0.02,0.02-0.03,0.02-0.03L504.411,479.865z"/>
<path style="fill:#CEC1E8;" d="M160.732,479.865H7.586l248.392-263.58C254.238,219.208,128.261,430.435,160.732,479.865z"/>
<g>
	<path style="fill:#F9D366;" d="M163.91,249.527l19.351-3.923c9.136-1.853,9.136-14.909,0-16.761l-19.351-3.923
		c-19.07-3.866-33.973-18.77-37.84-37.84l-3.923-19.351c-1.853-9.136-14.909-9.136-16.761,0l-3.923,19.351
		c-3.866,19.07-18.77,33.973-37.84,37.84l-19.351,3.923c-9.136,1.853-9.136,14.909,0,16.761l19.351,3.923
		c19.07,3.866,33.973,18.77,37.84,37.84l3.923,19.351c1.853,9.136,14.909,9.136,16.761,0l3.923-19.351
		C129.937,268.297,144.84,253.393,163.91,249.527z"/>
	<path style="fill:#F9D366;" d="M457.687,136.619l22.807-4.624c10.767-2.183,10.767-17.572,0-19.755l-22.807-4.624
		c-22.476-4.556-40.041-22.122-44.599-44.599l-4.624-22.807c-2.184-10.767-17.572-10.767-19.755,0l-4.624,22.807
		c-4.556,22.476-22.122,40.041-44.599,44.599l-22.807,4.624c-10.767,2.183-10.767,17.572,0,19.755l22.807,4.624
		c22.476,4.556,40.041,22.122,44.599,44.599l4.624,22.807c2.184,10.767,17.572,10.767,19.755,0l4.624-22.807
		C417.646,158.741,435.212,141.176,457.687,136.619z"/>
</g>
<path d="M173.528,74c4.191,0,7.589-3.398,7.589-7.589v-20.11c0-4.191-3.398-7.589-7.589-7.589s-7.589,3.398-7.589,7.589v20.111
	C165.939,70.602,169.337,74,173.528,74z"/>
<path d="M173.528,128.143c4.191,0,7.589-3.398,7.589-7.589v-20.11c0-4.191-3.398-7.589-7.589-7.589s-7.589,3.398-7.589,7.589v20.111
	C165.939,124.745,169.337,128.143,173.528,128.143z"/>
<path d="M190.544,91.016h20.111c4.191,0,7.589-3.398,7.589-7.589s-3.398-7.589-7.589-7.589h-20.111
	c-4.191,0-7.589,3.398-7.589,7.589S186.352,91.016,190.544,91.016z"/>
<path d="M136.401,91.016h20.111c4.191,0,7.589-3.398,7.589-7.589s-3.398-7.589-7.589-7.589h-20.111
	c-4.191,0-7.589,3.398-7.589,7.589S132.209,91.016,136.401,91.016z"/>
<path d="M297.043,68.631c0.192,0.465,0.425,0.901,0.698,1.315c0.273,0.415,0.597,0.799,0.941,1.154
	c1.417,1.406,3.37,2.226,5.373,2.226c1.993,0,3.946-0.82,5.363-2.226c0.354-0.354,0.668-0.739,0.941-1.154
	c0.273-0.415,0.506-0.85,0.698-1.315c0.192-0.455,0.334-0.931,0.435-1.417c0.101-0.486,0.152-0.992,0.152-1.487
	c0-1.993-0.809-3.946-2.226-5.363c-1.417-1.406-3.37-2.216-5.363-2.216c-2.004,0-3.956,0.809-5.373,2.216
	c-1.406,1.417-2.216,3.37-2.216,5.363c0,0.496,0.051,1.002,0.142,1.487C296.709,67.7,296.851,68.176,297.043,68.631z"/>
<path d="M381.078,399.075c1.743,2.648,5.087,3.913,8.154,3.149c2.953-0.736,5.203-3.239,5.663-6.242
	c1.052-6.871-7.379-11.369-12.548-6.786C379.564,391.664,378.991,395.984,381.078,399.075z"/>
<path d="M405.363,447.645c3.612,5.487,12.254,3.785,13.71-2.543c1.576-6.847-6.617-11.913-12.098-7.623
	C403.914,439.874,403.186,444.421,405.363,447.645z"/>
<path d="M335.008,354.229c-3.782-5.744-13.018-3.531-13.834,3.283c-0.816,6.804,7.418,11.149,12.565,6.596
	C336.53,361.64,337.095,357.326,335.008,354.229z"/>
<path d="M215.608,309.707c-3.594-5.459-12.222-3.809-13.694,2.499c-0.693,2.97,0.523,6.16,3.017,7.915
	c2.866,2.017,6.867,1.767,9.468-0.58C217.147,317.064,217.68,312.782,215.608,309.707z"/>
<path d="M88.113,441.25c-3.68-5.591-12.649-3.673-13.782,2.915c-0.547,3.182,1.039,6.477,3.901,7.988
	c2.816,1.486,6.298,1.051,8.669-1.069C89.656,448.62,90.177,444.312,88.113,441.25z"/>
<path d="M353.637,439.934c-1.276,6.817,6.828,11.813,12.256,7.341c2.55-2.102,3.463-5.71,2.195-8.768
	c-1.169-2.817-4.015-4.716-7.074-4.681C357.443,433.869,354.363,436.451,353.637,439.934z"/>
<path d="M179.181,437.202c-1.702-2.585-4.959-3.87-7.972-3.188c-3.285,0.744-5.75,3.654-5.911,7.026
	c-0.323,6.771,8.129,10.537,12.943,5.735C180.764,444.257,181.181,440.169,179.181,437.202z"/>
<path d="M121.343,444.316c1.159,2.746,3.835,4.608,6.825,4.68c3.18,0.077,6.109-1.895,7.256-4.854
	c2.548-6.57-4.848-12.806-10.909-9.271C121.304,436.746,119.891,440.875,121.343,444.316z"/>
<path d="M122.112,409.275c2.755,1.813,6.473,1.654,9.028-0.45c2.347-1.934,3.338-5.151,2.446-8.066
	c-0.947-3.093-3.827-5.299-7.069-5.382c-3.237-0.083-6.242,1.985-7.332,5.031C118.018,403.667,119.275,407.334,122.112,409.275z"/>
<path d="M61.795,115.683c0.192,0.455,0.425,0.901,0.698,1.315c0.283,0.415,0.597,0.799,0.941,1.154
	c1.417,1.406,3.369,2.216,5.373,2.216c0.496,0,0.992-0.051,1.477-0.142c0.486-0.101,0.961-0.243,1.427-0.435
	c0.455-0.192,0.89-0.425,1.305-0.698c0.415-0.273,0.809-0.597,1.154-0.941c0.354-0.354,0.668-0.739,0.941-1.154
	c0.273-0.415,0.516-0.86,0.698-1.315c0.192-0.455,0.334-0.931,0.435-1.417c0.101-0.486,0.152-0.992,0.152-1.487
	s-0.051-0.992-0.152-1.477c-0.101-0.486-0.243-0.961-0.435-1.427c-0.182-0.455-0.425-0.89-0.698-1.305
	c-0.273-0.415-0.587-0.809-0.941-1.154c-0.344-0.354-0.739-0.668-1.154-0.941s-0.85-0.516-1.305-0.698
	c-0.465-0.192-0.941-0.334-1.427-0.435c-2.459-0.496-5.08,0.314-6.85,2.074c-0.344,0.344-0.658,0.739-0.941,1.154
	c-0.273,0.415-0.506,0.85-0.698,1.305c-0.182,0.465-0.334,0.941-0.425,1.427c-0.101,0.486-0.152,0.982-0.152,1.477
	s0.051,1.002,0.152,1.487C61.461,114.752,61.613,115.227,61.795,115.683z"/>
<path d="M42.765,253.041l19.351,3.923c16.117,3.267,28.643,15.792,31.91,31.909l3.923,19.351
	c1.544,7.614,8.048,12.933,15.818,12.933s14.274-5.318,15.818-12.933l3.923-19.351c3.267-16.117,15.792-28.642,31.909-31.909
	l19.351-3.923c7.615-1.544,12.934-8.049,12.933-15.818c0-7.769-5.318-14.273-12.933-15.817l-19.351-3.923
	c-16.117-3.267-28.642-15.792-31.909-31.91l-3.923-19.351c-1.544-7.614-8.049-12.933-15.818-12.933s-14.274,5.317-15.818,12.933
	l-3.923,19.351c-3.267,16.117-15.792,28.643-31.91,31.91l-19.351,3.923c-7.614,1.543-12.933,8.048-12.933,15.817
	C29.832,244.992,35.15,251.497,42.765,253.041z M45.781,236.281l19.351-3.923c22.107-4.483,39.288-21.663,43.769-43.769
	l3.923-19.351c0.073-0.361,0.156-0.77,0.943-0.77c0.787,0,0.869,0.409,0.943,0.77l3.923,19.351
	c4.483,22.107,21.662,39.288,43.769,43.769l19.352,3.923c0.361,0.073,0.77,0.156,0.77,0.942s-0.41,0.869-0.771,0.943l-19.351,3.923
	c-22.107,4.483-39.287,21.662-43.769,43.769l-3.923,19.351c-0.073,0.361-0.156,0.771-0.943,0.771c-0.787,0-0.869-0.41-0.943-0.771
	l-3.923-19.351c-4.483-22.107-21.663-39.287-43.769-43.769l-19.351-3.923c-0.361-0.073-0.771-0.156-0.77-0.943
	C45.01,236.436,45.42,236.353,45.781,236.281z"/>
<path d="M301.016,122.117c0,8.505,5.821,15.625,14.157,17.315l22.807,4.624c19.531,3.959,34.709,19.138,38.668,38.668l4.624,22.808
	c1.69,8.336,8.811,14.157,17.316,14.157c8.505,0,15.624-5.821,17.314-14.157l4.624-22.808c3.959-19.53,19.138-34.709,38.668-38.668
	l22.808-4.624c8.336-1.69,14.157-8.81,14.157-17.315s-5.821-15.625-14.157-17.315l-22.808-4.624
	c-19.53-3.959-34.709-19.138-38.668-38.668l-4.624-22.807c-1.69-8.335-8.81-14.157-17.314-14.157l0,0
	c-8.505,0-15.625,5.821-17.315,14.157l-4.624,22.807c-3.959,19.531-19.138,34.709-38.668,38.668l-22.807,4.624
	C306.837,106.492,301.016,113.612,301.016,122.117z M318.188,119.677l22.807-4.624c25.52-5.175,45.354-25.008,50.528-50.528
	l4.624-22.807c0.268-1.324,1.089-1.995,2.44-1.994c1.35,0,2.171,0.671,2.44,1.994l4.624,22.807
	c5.175,25.52,25.007,45.354,50.528,50.528l22.808,4.624c1.324,0.268,1.994,1.089,1.994,2.44s-0.672,2.171-1.994,2.44l-22.808,4.624
	c-25.52,5.175-45.354,25.007-50.528,50.528l-4.624,22.808c-0.268,1.324-1.089,1.994-2.44,1.994c-1.351,0-2.171-0.672-2.44-1.994
	l-4.624-22.808c-5.175-25.52-25.008-45.354-50.528-50.528l-22.807-4.624c-1.324-0.268-1.994-1.089-1.994-2.44
	S316.864,119.946,318.188,119.677z"/>
<path d="M509.933,474.659L369.481,325.617c-2.875-3.05-7.678-3.193-10.728-0.319c-3.051,2.875-3.192,7.677-0.319,10.728
	L486.83,472.275H119.246c-4.191,0-7.589,3.398-7.589,7.589c0,4.191,3.398,7.589,7.589,7.589h385.163c3.029,0,5.768-1.8,6.968-4.581
	C512.577,480.092,512.009,476.863,509.933,474.659z"/>
<path d="M93.949,472.276H25.167l230.831-244.952l84.079,89.222c2.875,3.05,7.676,3.192,10.728,0.319
	c3.051-2.875,3.192-7.677,0.319-10.728l-89.603-95.084c-1.434-1.522-3.432-2.384-5.523-2.384c-2.091,0-4.089,0.863-5.523,2.384
	L2.065,474.659c-2.076,2.204-2.644,5.432-1.444,8.212s3.939,4.581,6.968,4.581H93.95c4.191,0,7.589-3.398,7.589-7.589
	S98.14,472.276,93.949,472.276z"/>
<g>
</g>
<g>
</g>
<g>
</g>
<g>
</g>
<g>
</g>
<g>
</g>
<g>
</g>
<g>
</g>
<g>
</g>
<g>
</g>
<g>
</g>
<g>
</g>
<g>
</g>
<g>
</g>
<g>
</g>
</svg>
