<?xml version="1.0" encoding="iso-8859-1"?>
<!-- Generator: Adobe Illustrator 19.0.0, SVG Export Plug-In . SVG Version: 6.00 Build 0)  -->
<svg version="1.1" id="Capa_1" xmlns="http://www.w3.org/2000/svg" xmlns:xlink="http://www.w3.org/1999/xlink" x="0px" y="0px"
	 viewBox="0 0 512 512" style="enable-background:new 0 0 512 512;" xml:space="preserve">
<path style="fill:#F9D366;" d="M255.065,49.065c-0.992,0.992-1.96,1.998-2.916,3.012c-76.621,80.614-60.782,225.849-122.921,287.988
	c-62.92,62.92-112.73,62.92-112.73,62.92s69.473,38.014,166.474-30.149c0,0,1.311,49.811-144.19,131.081
	c0,0,142.879,17.041,415.528-255.609c55.019-55.019,55.019-144.225,0-199.244S310.084-5.954,255.065,49.065z"/>
<path style="fill:#EF8C33;" d="M420.089,214.09c-82.384,82.384-182.654,100.165-182.654,100.165
	c33.054-48.794-4.564-174.556,51.849-230.969c36.121-36.121,94.684-36.121,130.805,0S456.21,177.969,420.089,214.09z"/>
<path style="fill:#ED4596;" d="M305.714,180.95c2.147,3.251,4.651,6.336,7.514,9.198c22.898,22.898,60.023,22.898,82.92,0
	c22.898-22.898,22.898-60.023,0-82.92c-22.898-22.898-60.023-22.898-82.92,0C293.191,127.263,290.686,158.191,305.714,180.95"/>
<path style="fill:#F9D366;" d="M145.409,194.341L145.409,194.341c-34.84,4.758-53.077,28.568-61.962,58.374
	c-8.723,29.912-15.409,61.124-27.161,80.679l0,0l0,0c34.839-4.757,53.076-28.569,61.961-58.373
	C126.969,245.11,133.656,213.895,145.409,194.341L145.409,194.341z"/>
<path d="M354.686,215.16c-17.031,0-34.06-6.482-47.026-19.447c-3.186-3.187-6.052-6.694-8.516-10.427
	c-2.395-3.628-1.397-8.509,2.231-10.904c3.627-2.396,8.508-1.397,10.905,2.23c1.882,2.849,4.073,5.531,6.511,7.97
	c19.79,19.792,51.996,19.791,71.789,0c19.792-19.792,19.792-51.997,0-71.791c-19.79-19.792-51.996-19.791-71.789,0
	c-11.532,11.531-16.838,28.039-14.196,44.157c0.703,4.289-2.205,8.336-6.494,9.039c-4.292,0.704-8.336-2.206-9.039-6.494
	c-3.46-21.107,3.493-42.727,18.599-57.833c25.931-25.929,68.12-25.929,94.051,0c25.929,25.929,25.929,68.121,0,94.051
	C388.746,208.678,371.717,215.16,354.686,215.16z"/>
<path d="M44.067,512c-3.799,0-5.878-0.227-6.219-0.267c-3.387-0.404-6.127-2.942-6.79-6.288c-0.662-3.345,0.906-6.736,3.883-8.398
	c85.551-47.786,118.909-83.939,131.9-104.544c-42.967,24.872-79.445,29.645-103.746,28.835
	c-31.009-1.034-49.601-11.023-50.378-11.448c-3.154-1.726-4.738-5.371-3.847-8.855c0.892-3.484,4.03-5.921,7.626-5.921
	c0.076-0.001,11.918-0.213,30.917-7.72c17.615-6.961,45.141-21.787,76.246-52.893c28.025-28.025,39.687-75.419,52.035-125.596
	c7.324-29.766,14.898-60.544,26.342-89.455c1.6-4.042,6.177-6.02,10.214-4.421c4.042,1.599,6.021,6.172,4.422,10.215
	c-11.049,27.917-18.493,58.168-25.692,87.423c-12.886,52.37-25.059,101.836-56.188,132.966
	c-34.615,34.615-65.529,50.862-87.077,58.485c5.026,0.785,10.667,1.354,16.864,1.517c25.484,0.671,65.976-5.585,113.867-39.238
	c2.373-1.666,5.469-1.896,8.062-0.592c2.591,1.302,4.255,3.925,4.331,6.824c0.042,1.567-0.148,15.999-19.223,40.15
	c-20.099,25.447-53.189,52.361-98.583,80.227c17.915-3.555,41.697-10.425,70.172-22.744c39.897-17.26,82.99-42.313,128.084-74.464
	c56.414-40.221,116.118-91.715,177.456-153.053c51.863-51.863,51.863-136.25,0-188.113c-51.864-51.864-136.251-51.862-188.113,0
	c-0.939,0.938-1.854,1.89-2.758,2.847c-11.879,12.498-21.974,27.112-30.883,44.7c-1.963,3.876-6.7,5.428-10.577,3.464
	c-3.878-1.964-5.43-6.699-3.465-10.578c9.61-18.973,20.567-34.807,33.495-48.409c0.989-1.048,2.011-2.11,3.058-3.157
	c58-58,152.372-57.999,210.374,0.001c58,58.001,58,152.374,0,210.374c-62.501,62.501-123.385,114.925-180.958,155.814
	c-46.231,32.833-90.481,58.371-131.523,75.905C92.156,509.194,57.447,512,44.067,512z"/>
<path d="M56.284,341.264c-2.621,0-5.101-1.312-6.57-3.54c-1.666-2.529-1.734-5.789-0.174-8.385
	c8.553-14.231,14.435-35.726,20.662-58.485c1.824-6.666,3.71-13.557,5.689-20.342c11.267-37.797,34.294-59.304,68.453-63.969
	c3.003-0.409,5.97,0.939,7.636,3.467s1.734,5.789,0.174,8.385c-8.552,14.231-14.435,35.727-20.663,58.488
	c-1.824,6.666-3.71,13.557-5.689,20.341c-11.267,37.797-34.294,59.304-68.451,63.969C56.994,341.241,56.637,341.264,56.284,341.264z
	 M130.937,206.037c-19.237,7.382-32.375,23.523-39.947,48.927c-1.929,6.614-3.797,13.443-5.605,20.045
	c-4.603,16.819-9.025,32.979-14.626,46.689c19.236-7.382,32.374-23.522,39.946-48.927c1.929-6.614,3.797-13.442,5.605-20.044
	C120.911,235.908,125.335,219.747,130.937,206.037z"/>
<path d="M237.434,322.125c-2.635,0-5.135-1.326-6.602-3.588c-1.722-2.653-1.686-6.079,0.087-8.697
	c12.988-19.174,14.06-53.714,15.195-90.28c1.565-50.424,3.339-107.576,37.604-141.84c18.956-18.956,44.16-29.396,70.968-29.396
	c26.808,0,52.011,10.44,70.968,29.396c39.132,39.132,39.132,102.803,0,141.935c-10.888,10.887-22.689,21.257-35.077,30.82
	c-3.439,2.656-8.383,2.021-11.04-1.421c-2.656-3.44-2.021-8.383,1.421-11.04c11.857-9.155,23.151-19.077,33.564-29.491
	c15.983-15.983,24.785-37.233,24.785-59.837s-8.802-43.854-24.785-59.837c-32.994-32.994-86.679-32.994-119.673,0
	c-29.856,29.856-31.456,81.375-33.002,131.199c-0.956,30.83-1.87,60.304-9.943,82.634c19.866-5.484,56.092-17.662,95.253-41.473
	c3.71-2.258,8.555-1.08,10.814,2.636c2.258,3.714,1.078,8.556-2.636,10.814c-61.241,37.239-114.297,46.951-116.526,47.345
	C238.35,322.085,237.89,322.125,237.434,322.125z"/>
<g>
</g>
<g>
</g>
<g>
</g>
<g>
</g>
<g>
</g>
<g>
</g>
<g>
</g>
<g>
</g>
<g>
</g>
<g>
</g>
<g>
</g>
<g>
</g>
<g>
</g>
<g>
</g>
<g>
</g>
</svg>
