<?xml version="1.0" encoding="iso-8859-1"?>
<!-- Generator: Adobe Illustrator 19.0.0, SVG Export Plug-In . SVG Version: 6.00 Build 0)  -->
<svg version="1.1" id="Capa_1" xmlns="http://www.w3.org/2000/svg" xmlns:xlink="http://www.w3.org/1999/xlink" x="0px" y="0px"
	 viewBox="0 0 512.001 512.001" style="enable-background:new 0 0 512.001 512.001;" xml:space="preserve">
<path style="fill:#FFC9BD;" d="M412.059,504.4l-8.026-43.754c-1.043-5.682,0.052-11.548,3.073-16.472l58.699-95.684
	c5.843-9.525,8.06-20.836,6.243-31.861l-18.071-109.695c-1.746-10.598-11.775-17.758-22.364-15.966l0,0
	c-10.092,1.707-17.119,10.964-16.049,21.145l8.686,82.636c0.674,6.406-0.847,12.852-4.313,18.282l-38.996,61.092
	c-4.233,6.631-12.855,8.887-19.794,5.18l0,0c-7.706-4.117-10.304-13.907-5.652-21.303l33.591-53.411
	c4.502-7.158,2.761-16.573-4.004-21.648l0,0c-7.41-5.558-17.96-3.807-23.177,3.848l-56.749,83.276
	c-2.131,3.128-3.962,6.421-5.482,9.838c-6.685,15.023-4.815,32.485,4.493,46.04l0,0c10.595,15.431,17.563,33.057,20.386,51.562
	l3.909,25.629"/>
<path style="fill:#F9D366;" d="M242.175,304.46c-68.224-9.041-106.429-84.525-72.003-144.117
	c5.568-9.638,12.478-18.775,20.769-27.064C239.174,85.045,224.102,7.596,224.102,7.596s63.308,74.434,42.205,154.323
	c0,0,38.626-37.479,38.626-78.682c0,0,59.314,63.214,47.262,140.863c-8.052,51.873-56.706,87.425-108.745,80.529L242.175,304.46z"/>
<path style="fill:#FFC9BD;" d="M99.943,504.4l8.026-43.754c1.043-5.682-0.052-11.548-3.073-16.472l-58.699-95.684
	c-5.843-9.525-8.06-20.836-6.243-31.861l18.071-109.695c1.746-10.598,11.775-17.758,22.364-15.966l0,0
	c10.092,1.707,17.119,10.964,16.049,21.145l-8.686,82.636c-0.674,6.406,0.847,12.852,4.313,18.282l38.996,61.092
	c4.233,6.631,12.855,8.887,19.794,5.18l0,0c7.706-4.117,10.304-13.907,5.652-21.303l-33.591-53.411
	c-4.502-7.158-2.761-16.573,4.004-21.648l0,0c7.41-5.558,17.96-3.807,23.177,3.848l56.749,83.276
	c2.131,3.128,3.962,6.421,5.482,9.838c6.685,15.023,4.815,32.485-4.493,46.04l0,0c-10.595,15.431-17.563,33.057-20.386,51.562
	l-3.909,25.629"/>
<g>
	<path style="fill:#FCAFA2;" d="M99.943,504.4l21.95-0.332l7.965-43.422c1.043-5.682-0.052-11.548-3.073-16.472l-58.699-95.684
		c-5.843-9.525-8.06-20.836-6.243-31.861l18.071-109.695c0.895-5.434,3.976-9.951,8.183-12.834c-2.251-1.543-4.85-2.648-7.708-3.132
		l0,0c-10.591-1.791-20.619,5.368-22.364,15.966L39.954,316.631c-1.817,11.025,0.4,22.336,6.243,31.861l58.699,95.684
		c3.02,4.924,4.114,10.79,3.073,16.472L99.943,504.4z"/>
	<path style="fill:#FCAFA2;" d="M412.059,504.4l-21.95-0.332l-7.965-43.422c-1.043-5.682,0.052-11.548,3.073-16.472l58.699-95.684
		c5.843-9.525,8.06-20.836,6.243-31.861l-18.071-109.695c-0.895-5.434-3.976-9.951-8.183-12.834c2.251-1.543,4.85-2.648,7.708-3.132
		l0,0c10.591-1.791,20.619,5.368,22.364,15.966l18.071,109.695c1.817,11.025-0.4,22.336-6.243,31.861l-58.699,95.684
		c-3.02,4.924-4.114,10.79-3.073,16.472L412.059,504.4z"/>
</g>
<circle style="fill:#ED4596;" cx="256.077" cy="229.501" r="50.151"/>
<path d="M130.816,71.135c4.198,0,7.599-3.402,7.599-7.599V43.4c0-4.196-3.401-7.599-7.599-7.599c-4.198,0-7.599,3.402-7.599,7.599
	v20.136C123.217,67.733,126.62,71.135,130.816,71.135z"/>
<path d="M130.816,125.347c4.198,0,7.599-3.402,7.599-7.599V97.613c0-4.196-3.401-7.599-7.599-7.599
	c-4.198,0-7.599,3.402-7.599,7.599v20.136C123.217,121.945,126.62,125.347,130.816,125.347z"/>
<path d="M147.855,88.173h20.135c4.198,0,7.599-3.402,7.599-7.599s-3.401-7.599-7.599-7.599h-20.135
	c-4.198,0-7.599,3.402-7.599,7.599S143.658,88.173,147.855,88.173z"/>
<path d="M93.642,88.173h20.137c4.198,0,7.599-3.402,7.599-7.599s-3.401-7.599-7.599-7.599H93.642c-4.198,0-7.599,3.402-7.599,7.599
	S89.445,88.173,93.642,88.173z"/>
<path d="M404.382,110.646c4.198,0,7.599-3.402,7.599-7.599V82.911c0-4.196-3.401-7.599-7.599-7.599s-7.599,3.402-7.599,7.599v20.136
	C396.783,107.244,400.184,110.646,404.382,110.646z"/>
<path d="M404.382,164.858c4.198,0,7.599-3.402,7.599-7.599v-20.137c0-4.196-3.401-7.599-7.599-7.599s-7.599,3.402-7.599,7.599
	v20.137C396.783,161.456,400.184,164.858,404.382,164.858z"/>
<path d="M421.419,127.684h20.137c4.198,0,7.599-3.402,7.599-7.599s-3.401-7.599-7.599-7.599h-20.137
	c-4.198,0-7.599,3.402-7.599,7.599S417.222,127.684,421.419,127.684z"/>
<path d="M367.207,127.684h20.135c4.198,0,7.599-3.402,7.599-7.599s-3.401-7.599-7.599-7.599h-20.135
	c-4.198,0-7.599,3.402-7.599,7.599S363.01,127.684,367.207,127.684z"/>
<path d="M213.126,365.789l-56.749-83.275c-3.702-5.434-9.314-9.019-15.801-10.096s-12.955,0.504-18.216,4.449
	c-9.852,7.39-12.432,21.346-5.876,31.772l33.591,53.41c1.114,1.773,1.433,3.863,0.896,5.887s-1.85,3.682-3.697,4.669
	c-3.412,1.826-7.723,0.697-9.806-2.567l-38.996-61.093c-2.53-3.962-3.652-8.72-3.161-13.398l8.686-82.636
	c1.485-14.134-8.328-27.06-22.339-29.431c-7.137-1.207-14.298,0.444-20.182,4.645c-5.885,4.201-9.773,10.445-10.948,17.578
	L32.456,315.396c-2.113,12.826,0.467,25.991,7.264,37.069l21.085,34.368c2.193,3.577,6.873,4.696,10.45,2.504
	c3.576-2.194,4.698-6.873,2.504-10.451l-21.085-34.368c-4.886-7.966-6.742-17.431-5.222-26.652l18.071-109.695
	c0.514-3.116,2.212-5.844,4.783-7.68c2.57-1.836,5.707-2.557,8.816-2.029c6.121,1.035,10.408,6.684,9.76,12.858l-8.686,82.637
	c-0.849,8.087,1.092,16.314,5.466,23.164l38.995,61.092c6.328,9.914,19.409,13.333,29.78,7.794
	c5.526-2.953,9.617-8.119,11.224-14.175c1.607-6.056,0.615-12.571-2.72-17.875l-33.591-53.411
	c-2.378-3.781-1.442-8.844,2.132-11.525c1.908-1.432,4.253-2.003,6.607-1.614c2.353,0.391,4.388,1.691,5.731,3.663l56.749,83.274
	c1.858,2.728,3.48,5.638,4.82,8.649c5.511,12.387,4.05,27.196-3.815,38.65c-11.176,16.277-18.657,35.199-21.634,54.717
	l-3.908,25.629c-0.633,4.149,2.217,8.024,6.366,8.656c0.389,0.06,0.775,0.088,1.156,0.088c3.691,0,6.929-2.694,7.501-6.454
	l3.908-25.629c2.634-17.266,9.251-34.006,19.139-48.406c10.833-15.778,12.814-36.252,5.171-53.431
	C217.563,372.978,215.496,369.268,213.126,365.789z"/>
<path d="M87.55,401.367c-2.194-3.578-6.875-4.698-10.45-2.504c-3.576,2.194-4.698,6.873-2.504,10.451l23.823,38.833
	c2.044,3.331,2.78,7.283,2.075,11.128l-8.026,43.754c-0.757,4.128,1.975,8.087,6.102,8.845c0.464,0.085,0.925,0.127,1.38,0.127
	c3.597,0,6.793-2.565,7.465-6.229l8.026-43.753c1.383-7.537-0.063-15.284-4.07-21.817L87.55,401.367z"/>
<path d="M398.929,345.943c-3.536-2.258-8.236-1.221-10.493,2.317l-13.901,21.777c-2.083,3.264-6.391,4.392-9.808,2.566
	c-1.846-0.987-3.159-2.644-3.696-4.668c-0.537-2.023-0.219-4.114,0.897-5.887l33.59-53.41c6.558-10.425,3.977-24.381-5.876-31.773
	c-5.259-3.945-11.724-5.526-18.216-4.449c-6.486,1.077-12.097,4.663-15.799,10.096l-56.751,83.276
	c-2.37,3.478-4.438,7.188-6.145,11.028c-7.643,17.179-5.662,37.652,5.171,53.43c9.886,14.399,16.503,31.137,19.138,48.406
	l3.909,25.629c0.573,3.761,3.811,6.454,7.501,6.454c0.382,0,0.768-0.028,1.156-0.088c4.149-0.633,6.999-4.509,6.366-8.657
	l-3.909-25.629c-2.977-19.519-10.457-38.439-21.633-54.717c-7.864-11.454-9.325-26.264-3.815-38.651
	c1.339-3.01,2.96-5.92,4.819-8.647l56.751-83.276c1.342-1.971,3.378-3.271,5.729-3.662c2.355-0.389,4.7,0.182,6.607,1.614
	c3.573,2.681,4.51,7.743,2.132,11.525l-33.59,53.41c-3.336,5.304-4.327,11.819-2.721,17.875c1.606,6.057,5.697,11.223,11.224,14.176
	c10.373,5.541,23.453,2.118,29.781-7.794l13.901-21.777C403.504,352.899,402.466,348.201,398.929,345.943z"/>
<path d="M472.282,352.464c6.796-11.081,9.376-24.246,7.263-37.069L461.475,205.7c-1.175-7.135-5.065-13.378-10.95-17.579
	c-5.884-4.201-13.051-5.849-20.18-4.644c-14.013,2.37-23.825,15.299-22.339,29.431l8.686,82.635c0.49,4.678-0.631,9.436-3.162,13.4
	l-10.857,17.009c-2.258,3.537-1.22,8.235,2.317,10.493c3.536,2.258,8.235,1.221,10.493-2.317l10.857-17.009
	c4.373-6.852,6.314-15.079,5.466-23.165l-8.686-82.636c-0.649-6.174,3.637-11.823,9.76-12.858c3.113-0.528,6.245,0.193,8.815,2.028
	c2.571,1.836,4.27,4.563,4.784,7.681l18.071,109.695c1.519,9.22-0.335,18.685-5.222,26.652L400.629,440.2
	c-4.007,6.531-5.453,14.278-4.071,21.816l8.026,43.754c0.672,3.665,3.868,6.229,7.465,6.229c0.455,0,0.916-0.042,1.38-0.127
	c4.128-0.758,6.86-4.717,6.102-8.845l-8.026-43.753c-0.704-3.845,0.032-7.796,2.076-11.128L472.282,352.464z"/>
<path d="M359.702,225.266c5.178-33.364-1.697-69.407-19.884-104.233c-13.647-26.131-28.71-42.319-29.344-42.995
	c-2.133-2.274-5.436-3.013-8.337-1.866c-2.899,1.147-4.802,3.948-4.802,7.066c0,19.634-9.899,38.727-19.358,52.492
	c1.34-26.803-4.712-55.396-17.958-84.112c-13.471-29.205-29.456-48.151-30.129-48.944c-2.235-2.629-5.962-3.416-9.075-1.924
	c-3.111,1.493-4.826,4.901-4.173,8.291c0.142,0.737,13.652,74.141-31.075,118.867c-8.534,8.535-15.928,18.169-21.973,28.636
	c-4.726,8.181-8.304,16.874-10.634,25.838c-1.056,4.062,1.381,8.211,5.443,9.266c4.065,1.056,8.21-1.382,9.266-5.443
	c1.986-7.64,5.042-15.062,9.085-22.058c5.383-9.319,11.965-17.895,19.562-25.492c31.994-31.995,37.859-75.291,37.693-103.578
	c4.016,6.619,8.342,14.479,12.385,23.284c11.411,24.865,22.856,62.678,12.569,101.619c-0.871,3.3,0.563,6.776,3.51,8.499
	c2.944,1.722,6.679,1.272,9.129-1.105c1.427-1.385,30.247-29.717,38.651-65.296c15.853,22.004,42.606,68.221,34.435,120.858
	c-3.574,23.034-15.962,43.403-34.879,57.353c-18.88,13.924-42.093,19.891-65.357,16.809l-1.277-0.169
	c-21.862-2.897-41.798-13.614-56.136-30.177c-13.868-16.02-21.726-36.328-22.125-57.185c-0.081-4.197-3.547-7.541-7.744-7.452
	c-4.197,0.08-7.533,3.547-7.452,7.743c0.468,24.402,9.641,48.14,25.83,66.841c16.774,19.375,40.082,31.909,65.626,35.294
	l1.277,0.169c4.68,0.62,9.357,0.927,14.007,0.927c22.368,0,44.105-7.1,62.37-20.57C340.992,276.172,355.509,252.287,359.702,225.266
	z"/>
<path d="M313.823,229.502c0-31.843-25.905-57.748-57.748-57.748s-57.747,25.905-57.747,57.748c0,31.841,25.904,57.747,57.747,57.747
	S313.823,261.343,313.823,229.502z M213.525,229.502c0-23.463,19.088-42.551,42.55-42.551c23.463,0,42.551,19.088,42.551,42.551
	c0,23.462-19.088,42.55-42.551,42.55C232.613,272.051,213.525,252.963,213.525,229.502z"/>
<g>
</g>
<g>
</g>
<g>
</g>
<g>
</g>
<g>
</g>
<g>
</g>
<g>
</g>
<g>
</g>
<g>
</g>
<g>
</g>
<g>
</g>
<g>
</g>
<g>
</g>
<g>
</g>
<g>
</g>
</svg>
