<?xml version="1.0" encoding="iso-8859-1"?>
<!-- Generator: Adobe Illustrator 19.0.0, SVG Export Plug-In . SVG Version: 6.00 Build 0)  -->
<svg version="1.1" id="Capa_1" xmlns="http://www.w3.org/2000/svg" xmlns:xlink="http://www.w3.org/1999/xlink" x="0px" y="0px"
	 viewBox="0 0 512 512" style="enable-background:new 0 0 512 512;" xml:space="preserve">
<g>
	<path style="fill:#F9D366;" d="M316.197,343.491c-77.19-10.23-120.417-95.634-81.466-163.058
		c6.3-10.905,14.118-21.242,23.498-30.622C312.803,95.238,295.748,7.611,295.748,7.611s71.629,84.216,47.752,174.605
		c0,0,43.702-42.404,43.702-89.023c0,0,67.11,71.522,53.473,159.376c-9.109,58.691-64.16,98.916-123.037,91.112L316.197,343.491z"/>
	<path style="fill:#F9D366;" d="M206.741,137.486l6.495-1.316c8.57-1.738,8.57-13.986,0-15.723l-6.495-1.316
		c-16.359-3.317-29.144-16.102-32.461-32.461l-1.316-6.495c-1.738-8.57-13.986-8.57-15.723,0l-1.316,6.495
		c-3.317,16.359-16.102,29.144-32.461,32.461l-6.495,1.316c-8.57,1.738-8.57,13.986,0,15.723l6.495,1.316
		c16.359,3.317,29.144,16.102,32.461,32.461l1.316,6.495c1.738,8.57,13.986,8.57,15.723,0l1.316-6.495
		C177.597,153.588,190.382,140.803,206.741,137.486z"/>
</g>
<path style="fill:#ED4596;" d="M274.282,281.387c0-30.239,50.929-44.562,50.929-60.477c0,22.281,63.782,39.271,38.196,81.167
	s-45.769,41.605-45.769,41.605l-41.765-12.958L274.282,281.387z"/>
<path style="fill:#FFC9BD;" d="M58.654,504.388l53.64-35.277c6.966-4.58,15.378-6.426,23.621-5.18l160.189,24.201
	c15.946,2.409,32.225-1.007,45.858-9.622l135.633-85.715c13.104-8.281,16.979-25.637,8.641-38.706l0,0
	c-7.945-12.453-24.202-16.586-37.131-9.439l-104.948,58.023c-8.137,4.498-17.558,6.103-26.725,4.55l-103.132-17.469
	c-11.194-1.896-19.043-12.087-18.018-23.394l0,0c1.138-12.559,12.689-21.517,25.135-19.494l89.882,14.606
	c12.046,1.958,23.58-5.652,26.52-17.498l0,0c3.22-12.975-5.042-26.013-18.15-28.641l-142.602-28.588
	c-5.355-1.074-10.763-1.654-16.16-1.754c-23.727-0.434-45.884,11.872-58.666,31.866l0,0c-14.55,22.761-34.058,41.937-57.066,56.095
	l-31.865,19.61"/>
<g>
	<path style="fill:#FCAFA2;" d="M311.301,338.994l-89.882-14.606c-12.447-2.023-23.997,6.935-25.135,19.494l0,0
		c-0.433,4.777,0.732,9.347,3.051,13.184c4.439-7.322,13.022-11.674,22.085-10.201l89.882,14.606
		c12.046,1.958,23.58-5.652,26.52-17.498l0,0c1.479-5.959,0.531-11.929-2.191-16.9C330.971,335.618,321.322,340.622,311.301,338.994
		z"/>
	<path style="fill:#FCAFA2;" d="M58.654,504.388l53.64-35.277c6.966-4.58,15.377-6.426,23.621-5.18l160.19,24.201
		c15.946,2.409,32.225-1.007,45.858-9.622l135.633-85.715c11.865-7.498,16.163-22.435,10.681-34.895
		c-2.162,4.944-5.774,9.317-10.681,12.418l-135.633,85.715c-13.633,8.615-29.912,12.031-45.858,9.623l-160.19-24.201
		c-8.243-1.245-16.655,0.6-23.621,5.18l-60.675,39.777L58.654,504.388z"/>
</g>
<path d="M459.754,62.667c4.205,0,7.612-3.408,7.612-7.612V33.967c0-4.204-3.407-7.612-7.612-7.612s-7.612,3.408-7.612,7.612v21.088
	C452.142,59.259,455.55,62.667,459.754,62.667z"/>
<path d="M459.754,119.443c4.205,0,7.612-3.408,7.612-7.612V90.743c0-4.204-3.407-7.612-7.612-7.612s-7.612,3.408-7.612,7.612v21.088
	C452.142,116.035,455.55,119.443,459.754,119.443z"/>
<path d="M498.687,65.287h-21.089c-4.205,0-7.612,3.408-7.612,7.612c0,4.204,3.407,7.612,7.612,7.612h21.089
	c4.205,0,7.612-3.408,7.612-7.612C506.299,68.695,502.891,65.287,498.687,65.287z"/>
<path d="M420.823,80.511h21.087c4.205,0,7.612-3.408,7.612-7.612c0-4.204-3.407-7.612-7.612-7.612h-21.087
	c-4.205,0-7.612,3.408-7.612,7.612C413.211,77.103,416.618,80.511,420.823,80.511z"/>
<path d="M115.456,143.629l6.494,1.316c13.39,2.715,23.797,13.122,26.513,26.512l1.316,6.495c1.496,7.377,7.797,12.527,15.323,12.527
	s13.827-5.151,15.323-12.527l1.316-6.494c2.715-13.391,13.122-23.798,26.513-26.513l6.494-1.316
	c7.376-1.495,12.527-7.796,12.527-15.322c0-7.526-5.152-13.827-12.527-15.322l-6.494-1.316
	c-13.391-2.715-23.798-13.122-26.513-26.512l-1.316-6.495c-1.496-7.376-7.797-12.527-15.323-12.527s-13.827,5.151-15.323,12.527
	l-1.316,6.494c-2.716,13.391-13.123,23.798-26.513,26.513l-6.494,1.316c-7.377,1.495-12.527,7.796-12.527,15.322
	C102.928,135.833,108.079,142.134,115.456,143.629z M118.203,127.996c0.019-0.013,0.107-0.056,0.277-0.09l6.494-1.316
	c19.399-3.933,34.476-19.009,38.409-38.409l1.316-6.494c0.04-0.197,0.07-0.256,0.069-0.257c0.132-0.094,0.533-0.094,0.643-0.021
	c0.014,0.019,0.056,0.107,0.09,0.277l1.316,6.495c3.933,19.4,19.009,34.476,38.41,38.408l6.494,1.316
	c0.172,0.035,0.267,0.078,0.256,0.07c0.095,0.13,0.095,0.533,0.021,0.643c-0.02,0.013-0.107,0.055-0.277,0.09l-6.494,1.316
	c-19.4,3.933-34.477,19.009-38.409,38.41l-1.316,6.494c-0.035,0.17-0.076,0.257-0.07,0.257h0.001
	c-0.131,0.094-0.532,0.094-0.643,0.021c-0.014-0.019-0.056-0.107-0.09-0.277l-1.316-6.495c-3.934-19.4-19.01-34.476-38.409-38.408
	l-6.494-1.317c-0.158-0.031-0.245-0.071-0.256-0.071c-0.001,0-0.001,0-0.001,0C118.13,128.509,118.13,128.107,118.203,127.996z"/>
<path d="M359.439,308.575c1.239,0.756,2.607,1.116,3.96,1.116c2.564,0,5.069-1.296,6.503-3.646
	c8.569-14.033,9.453-27.689,2.628-40.59c-5.536-10.463-15.248-18.793-23.819-26.143c-7.448-6.388-15.889-13.629-15.889-18.403
	c0-4.204-3.407-7.614-7.612-7.614c-4.155,0-7.533,3.327-7.611,7.464c0,0.049-0.001,0.098-0.001,0.148
	c-0.185,2.902-10.629,10.339-16.242,14.335c-15.454,11.003-34.687,24.698-34.687,46.146c0,4.204,3.407,7.612,7.612,7.612
	c4.205,0,7.612-3.408,7.612-7.612c0-13.6,15.031-24.302,28.293-33.745c5.191-3.696,10.08-7.177,13.977-10.781
	c3.932,4.825,9.209,9.352,14.638,14.006c19.175,16.446,29.962,27.833,18.11,47.241C354.719,301.698,355.851,306.382,359.439,308.575
	z"/>
<path d="M108.658,320.958c2.263-3.542,1.228-8.248-2.313-10.513c-3.542-2.264-8.248-1.23-10.514,2.313
	c-13.85,21.664-32.744,40.237-54.641,53.712L9.324,386.079c-3.58,2.203-4.697,6.892-2.494,10.472
	c1.438,2.336,3.934,3.623,6.491,3.623c1.361,0,2.738-0.364,3.983-1.13l31.865-19.61C73.008,364.765,93.579,344.543,108.658,320.958z
	"/>
<path d="M445.424,337.989l-104.947,58.022c-6.601,3.65-14.33,4.967-21.771,3.707l-103.133-17.469
	c-7.227-1.224-12.37-7.902-11.708-15.203c0.357-3.947,2.279-7.458,5.41-9.887c3.132-2.43,7.01-3.417,10.924-2.781l89.882,14.606
	c15.837,2.573,31.266-7.608,35.129-23.177c2.062-8.312,0.674-16.874-3.911-24.109c-4.586-7.234-11.735-12.146-20.131-13.829
	l-142.603-28.588c-5.756-1.154-11.651-1.794-17.517-1.901c-12.904-0.245-25.779,2.945-37.228,9.203
	c-3.689,2.016-5.045,6.641-3.029,10.33c2.016,3.688,6.642,5.044,10.33,3.029c9.131-4.99,19.362-7.526,29.648-7.341
	c4.958,0.09,9.938,0.631,14.802,1.607l142.604,28.588c4.281,0.859,7.927,3.362,10.264,7.051c2.337,3.688,3.045,8.055,1.993,12.292
	c-1.969,7.939-9.834,13.13-17.911,11.818l-89.882-14.606c-8.013-1.304-16.283,0.804-22.695,5.778s-10.51,12.46-11.243,20.542
	c-1.374,15.168,9.312,29.044,24.328,31.587l103.132,17.469c10.823,1.834,22.074-0.082,31.68-5.393l104.947-58.022
	c9.387-5.19,21.26-2.172,27.031,6.871c2.935,4.601,3.896,10.068,2.708,15.395c-1.19,5.327-4.386,9.866-9,12.782l-135.634,85.715
	c-12.082,7.635-26.518,10.667-40.655,8.53l-160.19-24.201c-10.113-1.527-20.392,0.726-28.941,6.347l-53.64,35.276
	c-3.513,2.31-4.487,7.029-2.178,10.542c1.463,2.224,3.89,3.431,6.367,3.431c1.435,0,2.888-0.405,4.175-1.253l53.64-35.276
	c5.406-3.555,11.904-4.981,18.301-4.014l160.19,24.201c17.752,2.68,35.886-1.123,51.062-10.714l135.634-85.715
	c8.062-5.095,13.646-13.027,15.725-22.335c2.078-9.307,0.397-18.861-4.732-26.899C482.575,334.193,461.828,328.919,445.424,337.989z
	"/>
<path d="M360.829,348.495c0.654,0,1.318-0.084,1.979-0.262c44.831-12.037,78.348-49.129,85.39-94.496
	c3.332-21.468,2.307-43.778-3.048-66.306c-0.972-4.089-5.071-6.617-9.166-5.646c-4.09,0.972-6.618,5.076-5.646,9.166
	c4.897,20.601,5.845,40.94,2.815,60.451c-6.118,39.415-35.28,71.653-74.294,82.127c-4.061,1.09-6.468,5.266-5.378,9.325
	C354.396,346.254,357.47,348.495,360.829,348.495z"/>
<path d="M220.619,276.743c1.174,3.005,4.048,4.842,7.091,4.842c0.922,0,1.859-0.168,2.77-0.525c3.915-1.531,5.849-5.946,4.319-9.861
	c-11.211-28.681-8.833-60.377,6.524-86.959c6.132-10.616,13.632-20.389,22.289-29.047c23.592-23.592,37.916-56.883,41.424-96.273
	c0.773-8.684,0.949-16.751,0.808-23.834c18.811,30.174,45.745,86.7,30.298,145.184c-0.873,3.306,0.564,6.788,3.516,8.514
	c2.947,1.725,6.69,1.274,9.145-1.107c1.633-1.585,35.192-34.577,43.943-75.536c8.199,11.13,19.417,28.453,28.206,49.865
	c1.595,3.888,6.042,5.749,9.932,4.151c3.889-1.596,5.748-6.043,4.152-9.932c-16.725-40.744-41.245-67.139-42.279-68.243
	c-2.136-2.277-5.445-3.018-8.352-1.87c-2.904,1.149-4.811,3.955-4.811,7.078c0,23.849-12.74,46.954-24.084,62.802
	c2.229-31.158-4.529-64.584-20.018-98.165c-15.186-32.923-33.185-54.258-33.944-55.15c-2.239-2.634-5.974-3.423-9.092-1.927
	c-3.118,1.496-4.834,4.91-4.18,8.306c0.161,0.837,15.557,84.385-35.43,135.372c-9.596,9.597-17.91,20.43-24.706,32.197
	C210.455,207.237,207.714,243.728,220.619,276.743z"/>
<g>
</g>
<g>
</g>
<g>
</g>
<g>
</g>
<g>
</g>
<g>
</g>
<g>
</g>
<g>
</g>
<g>
</g>
<g>
</g>
<g>
</g>
<g>
</g>
<g>
</g>
<g>
</g>
<g>
</g>
</svg>
