<?xml version="1.0" encoding="iso-8859-1"?>
<!-- Generator: Adobe Illustrator 19.0.0, SVG Export Plug-In . SVG Version: 6.00 Build 0)  -->
<svg version="1.1" id="Capa_1" xmlns="http://www.w3.org/2000/svg" xmlns:xlink="http://www.w3.org/1999/xlink" x="0px" y="0px"
	 viewBox="0 0 512.001 512.001" style="enable-background:new 0 0 512.001 512.001;" xml:space="preserve">
<path style="fill:#4E4F75;" d="M410.571,280.95v182.058c0,22.857-59.34,41.38-132.539,41.38c-21.022,0-40.906-1.531-58.56-4.252
	c-43.833-6.741-73.978-20.833-73.978-37.128V282.401l73.978-0.403L410.571,280.95z"/>
<g>
	<path style="fill:#32314C;" d="M219.471,281.998v218.137c-43.833-6.741-73.978-20.833-73.978-37.128V282.401L219.471,281.998z"/>
	<path style="fill:#32314C;" d="M410.571,280.95v27.754c-36.814,8.729-82.733,13.912-132.539,13.912s-95.724-5.184-132.539-13.912
		V282.4l73.978-0.403L410.571,280.95z"/>
</g>
<ellipse style="fill:#4E4F75;" cx="278.024" cy="225.934" rx="219.349" ry="68.486"/>
<path style="fill:#32314C;" d="M278.029,244.28c-43.61,0-86.384-4.416-120.442-12.434c-0.082-0.019-0.164-0.039-0.247-0.058
	c-6.166-1.456-6.166-10.259,0-11.716c0.082-0.019,0.164-0.039,0.247-0.058c34.059-8.018,76.832-12.434,120.442-12.434
	s86.383,4.416,120.442,12.434c0.082,0.019,0.164,0.039,0.247,0.058c6.166,1.456,6.166,10.259,0,11.716
	c-0.082,0.019-0.164,0.039-0.247,0.058C364.413,239.863,321.639,244.28,278.029,244.28z"/>
<g>
	<path style="fill:#EDE6F5;" d="M379.199,172.88c0,21.855-1.826,43.222-5.306,63.88c-8.279,1.39-16.893,2.608-25.761,3.622
		c-8.533,0.984-17.299,1.786-26.228,2.394c-4.048,0.284-8.127,0.528-12.226,0.72c-4.251-22.748-6.493-46.378-6.493-70.617
		c0-60.237,13.849-116.68,38.007-165.27C365.35,56.199,379.199,112.642,379.199,172.88z"/>
	<path style="fill:#EDE6F5;" d="M253.215,172.88c0,24.239-2.242,47.879-6.504,70.627c-4.221-0.193-8.411-0.446-12.561-0.731
		c-8.929-0.609-17.695-1.41-26.228-2.394c-8.746-1.015-17.238-2.192-25.406-3.571c-3.49-20.668-5.317-42.056-5.317-63.931
		c0-60.237,13.839-116.68,37.997-165.27C239.355,56.199,253.215,112.642,253.215,172.88z"/>
</g>
<g>
	<path style="fill:#F9D366;" d="M472.542,90.91l7.437-1.508c9.814-1.99,9.814-16.017,0-18.006l-7.437-1.508
		c-18.735-3.799-33.377-18.441-37.174-37.174l-1.508-7.437c-1.99-9.814-16.017-9.814-18.006,0l-1.508,7.437
		c-3.799,18.735-18.441,33.377-37.174,37.174l-7.437,1.508c-9.814,1.99-9.814,16.017,0,18.006l7.437,1.508
		c18.735,3.799,33.377,18.441,37.174,37.174l1.508,7.437c1.99,9.814,16.017,9.814,18.006,0l1.508-7.437
		C439.166,109.351,453.807,94.709,472.542,90.91z"/>
	<path style="fill:#F9D366;" d="M160.02,416.17l22.243-4.51c10.501-2.129,10.501-17.137,0-19.265l-22.243-4.51
		c-21.92-4.444-39.05-21.576-43.495-43.495l-4.51-22.243c-2.129-10.501-17.137-10.501-19.265,0l-4.51,22.243
		c-4.444,21.92-21.576,39.05-43.495,43.495l-22.243,4.51c-10.501,2.129-10.501,17.137,0,19.265l22.243,4.51
		c21.92,4.444,39.05,21.576,43.495,43.494l4.51,22.243c2.129,10.501,17.137,10.501,19.265,0l4.51-22.243
		C120.968,437.746,138.1,420.614,160.02,416.17z"/>
</g>
<path d="M104.865,111.772c4.203,0,7.61-3.407,7.61-7.61V84.378c0-4.203-3.407-7.61-7.61-7.61c-4.203,0-7.61,3.407-7.61,7.61v19.784
	C97.255,108.364,100.662,111.772,104.865,111.772z"/>
<path d="M104.865,165.037c4.203,0,7.61-3.407,7.61-7.61v-19.784c0-4.203-3.407-7.61-7.61-7.61c-4.203,0-7.61,3.407-7.61,7.61v19.784
	C97.255,161.63,100.662,165.037,104.865,165.037z"/>
<path d="M121.605,128.512h19.784c4.203,0,7.61-3.407,7.61-7.61s-3.407-7.61-7.61-7.61h-19.784c-4.203,0-7.61,3.407-7.61,7.61
	S117.402,128.512,121.605,128.512z"/>
<path d="M68.341,128.512h19.784c4.203,0,7.61-3.407,7.61-7.61s-3.407-7.61-7.61-7.61H68.341c-4.203,0-7.61,3.407-7.61,7.61
	S64.138,128.512,68.341,128.512z"/>
<path d="M452.193,259.323c-40.318,17.208-105.426,27.482-174.164,27.482c-57.841,0-112.119-7.001-152.833-19.713
	c-36.884-11.517-58.903-26.904-58.903-41.164c0-17.484,33.145-36.317,84.442-47.98c4.098-0.931,6.665-5.009,5.734-9.107
	c-0.931-4.099-5.013-6.663-9.107-5.734c-62.091,14.117-96.287,36.427-96.287,62.821c0,15.494,12.073,37.733,69.586,55.691
	c42.143,13.158,98.031,20.405,157.369,20.405c71.742,0,137.401-10.463,180.139-28.704c3.866-1.65,5.662-6.121,4.012-9.986
	C460.529,259.469,456.058,257.675,452.193,259.323z"/>
<path d="M408.617,163.091c-4.098-0.934-8.176,1.637-9.106,5.735c-0.931,4.098,1.637,8.175,5.735,9.106
	c51.343,11.663,84.52,30.503,84.52,47.998c0,9.228-9.29,17.382-17.084,22.597c-3.492,2.338-4.429,7.064-2.092,10.556
	c1.467,2.193,3.877,3.379,6.331,3.379c1.455,0,2.925-0.417,4.226-1.287c15.818-10.585,23.838-22.444,23.838-35.246
	C504.986,199.523,470.761,177.206,408.617,163.091z"/>
<path d="M410.568,292.694c-4.203,0-7.61,3.407-7.61,7.61v162.705c0,13.77-48.667,33.772-124.928,33.772
	s-124.928-20.002-124.928-33.772v-14.784c0-4.203-3.407-7.61-7.61-7.61s-7.61,3.407-7.61,7.61v14.784
	c0,14.875,15.271,27.505,44.161,36.526c25.747,8.039,59.836,12.466,95.986,12.466s70.239-4.427,95.986-12.466
	c28.891-9.021,44.161-21.651,44.161-36.526V300.303C418.177,296.1,414.77,292.694,410.568,292.694z"/>
<path d="M153.101,353.178v-52.874c0-4.203-3.407-7.61-7.61-7.61s-7.61,3.407-7.61,7.61v52.874c0,4.203,3.407,7.61,7.61,7.61
	S153.101,357.38,153.101,353.178z"/>
<path d="M145.108,225.928c0,6.449,4.213,11.78,10.391,13.242l0.244,0.061c0.033,0.008,0.067,0.017,0.101,0.024
	c7.942,1.87,16.496,3.572,25.406,5.057c7.946,1.343,16.625,2.563,25.802,3.628c8.649,0.997,17.592,1.814,26.579,2.427
	c4.685,0.321,8.851,0.563,12.7,0.74c10.328,0.518,20.994,0.781,31.703,0.781c10.68,0,21.454-0.266,32.004-0.789
	c4.02-0.19,8.192-0.435,12.385-0.731c8.989-0.613,17.933-1.429,26.576-2.426c8.859-1.014,17.659-2.25,26.155-3.678
	c0.014-0.002,0.027-0.005,0.042-0.007c0.031-0.005,0.062-0.01,0.093-0.016c8.673-1.458,17.061-3.134,24.931-4.984
	c0.036-0.008,0.07-0.017,0.106-0.025l0.152-0.039c6.27-1.485,10.483-6.815,10.483-13.265c0-6.449-4.213-11.779-10.391-13.242
	c-0.186-0.047-0.619-0.155-1.168-0.222c-4.167-0.509-7.966,2.461-8.475,6.633c-0.288,2.364,0.541,4.607,2.072,6.2
	c-3.248,0.724-6.579,1.418-9.978,2.079c2.505-17.936,3.792-36.217,3.792-54.497c0-20.091-1.532-40.225-4.553-59.841
	c-0.639-4.154-4.525-7.002-8.679-6.363c-4.154,0.639-7.002,4.525-6.363,8.679c2.903,18.851,4.375,38.205,4.375,57.524
	c0,19.231-1.475,38.457-4.355,57.243c-6.026,0.94-12.179,1.777-18.378,2.505c-3.497-21.238-13.136-89.692,0.783-127.051
	c1.467-3.939-0.536-8.32-4.474-9.787c-3.935-1.466-8.32,0.536-9.787,4.474c-15.155,40.679-5.558,110.572-1.705,133.945
	c-4.072,0.366-8.179,0.694-12.302,0.975c-1.799,0.127-3.585,0.239-5.36,0.346c-3.452-20.531-5.217-41.57-5.217-62.652
	c0-51.373,10.472-101.958,30.399-147.319c3.863,8.785,7.384,17.783,10.524,26.896c1.37,3.973,5.701,6.085,9.673,4.716
	c3.974-1.369,6.086-5.699,4.717-9.673c-5.114-14.845-11.203-29.405-18.101-43.278c-1.29-2.584-3.93-4.22-6.817-4.22
	c-2.889,0-5.528,1.636-6.814,4.222c-25.386,51.058-38.803,109.379-38.803,168.658c0,21.31,1.721,42.587,5.114,63.379
	c-14.998,0.534-30.227,0.535-44.985,0.01c3.398-20.778,5.121-42.059,5.121-63.39c0-59.265-13.421-117.586-38.813-168.658
	C220.725,1.636,218.086,0,215.197,0s-5.528,1.636-6.814,4.222c-25.378,51.045-38.793,109.366-38.793,168.658
	c0,18.319,1.289,36.619,3.8,54.56c-3.532-0.682-6.981-1.396-10.323-2.142c1.532-1.592,2.362-3.836,2.073-6.2
	c-0.508-4.172-4.303-7.143-8.475-6.633c-0.548,0.067-0.98,0.175-1.077,0.199C149.321,214.149,145.108,219.48,145.108,225.928z
	 M215.197,25.563c19.932,45.371,30.407,95.955,30.407,147.316c0,21.106-1.767,42.152-5.225,62.669
	c-1.822-0.109-3.71-0.228-5.712-0.365c-4.004-0.273-7.993-0.593-11.953-0.946c3.851-23.345,13.462-93.278-1.699-133.973
	c-1.467-3.938-5.849-5.942-9.787-4.474s-5.942,5.849-4.474,9.787c13.914,37.348,4.262,105.895,0.774,127.092
	c-6.409-0.758-12.555-1.592-18.353-2.493c-2.886-18.785-4.364-38.03-4.364-57.299C184.81,121.499,195.279,70.913,215.197,25.563z"/>
<path d="M354.764,80.399c0,8.085,5.535,14.855,13.459,16.461l7.437,1.508c15.772,3.198,28.031,15.456,31.229,31.229l1.508,7.438
	c1.607,7.924,8.376,13.459,16.462,13.458c8.085,0,14.854-5.535,16.461-13.458l1.508-7.437c3.198-15.773,15.456-28.031,31.229-31.229
	l7.437-1.508c7.924-1.606,13.459-8.376,13.459-16.461s-5.535-14.855-13.459-16.461l-7.437-1.508
	c-15.772-3.198-28.031-15.456-31.229-31.229l-1.508-7.437c-1.606-7.924-8.375-13.459-16.461-13.459l0,0
	c-8.084,0-14.855,5.535-16.461,13.459l-1.508,7.437c-3.198,15.773-15.456,28.031-31.229,31.229l-7.437,1.508
	C360.298,65.545,354.764,72.313,354.764,80.399z M371.247,78.854l7.437-1.508c21.779-4.416,38.704-21.341,43.121-43.121l1.508-7.437
	c0.083-0.41,0.256-1.264,1.545-1.263c1.29,0,1.462,0.853,1.545,1.263l1.508,7.437c4.416,21.779,21.341,38.704,43.121,43.121
	l7.437,1.508c0.41,0.083,1.263,0.257,1.263,1.545c0,1.289-0.853,1.462-1.263,1.545l-7.437,1.508l0,0
	c-21.779,4.416-38.704,21.341-43.121,43.12l-1.508,7.438c-0.083,0.41-0.256,1.263-1.545,1.263c-1.29,0-1.462-0.853-1.545-1.263
	l-1.508-7.437c-4.416-21.779-21.341-38.704-43.121-43.121l-7.437-1.508c-0.41-0.083-1.263-0.257-1.263-1.545
	C369.983,79.11,370.836,78.937,371.247,78.854z"/>
<path d="M183.775,419.118c8.227-1.668,13.973-8.695,13.973-17.09c0-8.395-5.746-15.423-13.973-17.091l-22.243-4.51
	c-18.965-3.845-33.704-18.584-37.549-37.549l-4.51-22.243c-1.669-8.228-8.696-13.973-17.091-13.973s-15.422,5.747-17.09,13.973
	l-4.51,22.243c-3.845,18.965-18.584,33.704-37.549,37.549l-22.243,4.51c-8.227,1.669-13.973,8.696-13.973,17.091
	c0,8.395,5.747,15.422,13.973,17.09l22.243,4.51c18.965,3.845,33.704,18.584,37.549,37.549l4.51,22.243
	c1.668,8.228,8.695,13.973,17.09,13.973l0,0c8.394,0,15.422-5.747,17.091-13.973l4.51-22.243
	c3.845-18.965,18.584-33.703,37.549-37.549L183.775,419.118z M109.067,458.154l-4.51,22.243c-0.089,0.44-0.36,1.779-2.175,1.779
	c-1.814,0-2.085-1.338-2.174-1.779l-4.51-22.243c-5.063-24.971-24.47-44.378-49.441-49.441l-22.243-4.51
	c-0.44-0.089-1.779-0.36-1.779-2.175c0-1.814,1.338-2.086,1.779-2.175l22.243-4.51c24.971-5.063,44.378-24.469,49.441-49.441
	l4.51-22.243c0.089-0.44,0.36-1.778,2.174-1.778c1.815,0,2.086,1.338,2.175,1.778l4.51,22.243
	c5.063,24.972,24.469,44.378,49.441,49.441l22.243,4.51c0.44,0.089,1.779,0.36,1.779,2.175c0,1.815-1.338,2.086-1.779,2.175
	l-22.243,4.51C133.536,413.776,114.13,433.182,109.067,458.154z"/>
<g>
</g>
<g>
</g>
<g>
</g>
<g>
</g>
<g>
</g>
<g>
</g>
<g>
</g>
<g>
</g>
<g>
</g>
<g>
</g>
<g>
</g>
<g>
</g>
<g>
</g>
<g>
</g>
<g>
</g>
</svg>
